<svg width="13" height="26" viewBox="0 0 13 26" fill="none" xmlns="http://www.w3.org/2000/svg">
<path fill-rule="evenodd" clip-rule="evenodd" d="M9.23729 8.39187L8.38312 9.24605L6.888 7.75093L7.74218 6.89676L9.23729 8.39187Z" fill="#9AAAB4"/>
<path fill-rule="evenodd" clip-rule="evenodd" d="M11.4407 9.74139L9.665 7.96568C9.42911 7.72978 9.04672 7.72978 8.81083 7.96568L7.95665 8.81985C7.72075 9.05575 7.72075 9.43814 7.95665 9.67403L9.73236 11.4498C10.2041 11.9219 10.9695 11.9219 11.4413 11.4498C11.9124 10.9783 11.9121 10.2132 11.4407 9.74139Z" fill="#66757F"/>
<path fill-rule="evenodd" clip-rule="evenodd" d="M0.990936 5.07755C0.990936 2.82557 2.81653 0.999969 5.06851 0.999969C7.32049 0.999969 9.14608 2.82557 9.14608 5.07755C9.14608 7.32954 7.32049 9.15513 5.06851 9.15513C2.81653 9.15513 0.990936 7.32954 0.990936 5.07755Z" fill="#8899A6"/>
<path fill-rule="evenodd" clip-rule="evenodd" d="M2.1991 5.07754C2.1991 3.49281 3.48377 2.20813 5.0685 2.20813C6.65323 2.20813 7.9379 3.49281 7.9379 5.07754C7.9379 6.66227 6.65323 7.94695 5.0685 7.94695C3.48377 7.94695 2.1991 6.66227 2.1991 5.07754Z" fill="#BBDDF5"/>
<path fill-rule="evenodd" clip-rule="evenodd" d="M9.24278 21.3919L8.38861 22.246L6.89349 20.7509L7.74767 19.8968L9.24278 21.3919Z" fill="#9AAAB4"/>
<path fill-rule="evenodd" clip-rule="evenodd" d="M11.4462 22.7414L9.67049 20.9657C9.4346 20.7298 9.05221 20.7298 8.81632 20.9657L7.96214 21.8199C7.72624 22.0558 7.72624 22.4381 7.96214 22.674L9.73785 24.4498C10.2096 24.9219 10.975 24.9219 11.4468 24.4498C11.9179 23.9783 11.9176 23.2132 11.4462 22.7414Z" fill="#66757F"/>
<path fill-rule="evenodd" clip-rule="evenodd" d="M0.996429 18.0775C0.996429 15.8256 2.82202 14 5.074 14C7.32598 14 9.15157 15.8256 9.15157 18.0775C9.15157 20.3295 7.32598 22.1551 5.074 22.1551C2.82202 22.1551 0.996429 20.3295 0.996429 18.0775Z" fill="#8899A6"/>
<path fill-rule="evenodd" clip-rule="evenodd" d="M2.20459 18.0775C2.20459 16.4928 3.48926 15.2081 5.07399 15.2081C6.65872 15.2081 7.94339 16.4928 7.94339 18.0775C7.94339 19.6623 6.65872 20.9469 5.07399 20.9469C3.48926 20.9469 2.20459 19.6623 2.20459 18.0775Z" fill="#885FFF"/>
<path fill-rule="evenodd" clip-rule="evenodd" d="M0.996429 18.0775C0.996429 15.8256 2.82202 14 5.074 14C7.32598 14 9.15157 15.8256 9.15157 18.0775C9.15157 18.9856 8.85477 19.8243 8.3529 20.5019L8.81649 20.9655C9.0524 20.7298 9.43465 20.7299 9.67048 20.9657L11.4462 22.7414C11.9176 23.2132 11.9179 23.9783 11.4468 24.4498C10.975 24.9219 10.2096 24.9219 9.73784 24.4498L7.96213 22.6741C7.72623 22.4382 7.72623 22.0558 7.96213 21.8199L7.96232 21.8197L7.49878 21.3561C6.82105 21.8582 5.9822 22.1551 5.074 22.1551C2.82202 22.1551 0.996429 20.3295 0.996429 18.0775Z" fill="white" fill-opacity="0.2"/>
</svg>
