<svg width="31" height="24" viewBox="0 0 31 24" fill="none" xmlns="http://www.w3.org/2000/svg">
<g clip-path="url(#clip0_504_15)">
<rect x="0.25" y="0.75" width="30.5" height="10.5" stroke="white" stroke-opacity="0.25" stroke-width="0.5"/>
<path d="M11.6837 3.75399H9.82772V8.83399H9.05572V3.75399H7.19572V3.10199H11.6837V3.75399Z" fill="#EEEEEE" fill-opacity="0.5"/>
<path d="M14.8623 4.78199V8.83399H14.4383C14.337 8.83399 14.273 8.78466 14.2463 8.68599L14.1903 8.24999C14.0143 8.44466 13.817 8.60199 13.5983 8.72199C13.3797 8.83932 13.129 8.89799 12.8463 8.89799C12.625 8.89799 12.429 8.86199 12.2583 8.78999C12.0903 8.71532 11.949 8.61132 11.8343 8.47799C11.7197 8.34466 11.633 8.18332 11.5743 7.99399C11.5183 7.80466 11.4903 7.59532 11.4903 7.36599V4.78199H12.2023V7.36599C12.2023 7.67266 12.2717 7.90999 12.4103 8.07799C12.5517 8.24599 12.7663 8.32999 13.0543 8.32999C13.265 8.32999 13.461 8.28066 13.6423 8.18199C13.8263 8.08066 13.9957 7.94199 14.1503 7.76599V4.78199H14.8623Z" fill="#EEEEEE" fill-opacity="0.5"/>
<path d="M16.6633 5.36999C16.7513 5.27132 16.8446 5.18199 16.9433 5.10199C17.042 5.02199 17.146 4.95399 17.2553 4.89799C17.3673 4.83932 17.4846 4.79532 17.6073 4.76599C17.7326 4.73399 17.8673 4.71799 18.0113 4.71799C18.2326 4.71799 18.4273 4.75532 18.5953 4.82999C18.766 4.90199 18.9073 5.00599 19.0193 5.14199C19.134 5.27532 19.2206 5.43666 19.2793 5.62599C19.338 5.81532 19.3673 6.02466 19.3673 6.25399V8.83399H18.6513V6.25399C18.6513 5.94732 18.5806 5.70999 18.4393 5.54199C18.3006 5.37132 18.0886 5.28599 17.8033 5.28599C17.5926 5.28599 17.3953 5.33666 17.2113 5.43799C17.03 5.53932 16.862 5.67666 16.7073 5.84999V8.83399H15.9913V4.78199H16.4193C16.5206 4.78199 16.5833 4.83132 16.6073 4.92999L16.6633 5.36999Z" fill="#EEEEEE" fill-opacity="0.5"/>
<path d="M23.1642 6.36599C23.1642 6.20066 23.1402 6.04999 23.0922 5.91399C23.0469 5.77532 22.9789 5.65666 22.8882 5.55799C22.8002 5.45666 22.6922 5.37932 22.5642 5.32599C22.4362 5.26999 22.2909 5.24199 22.1282 5.24199C21.7869 5.24199 21.5162 5.34199 21.3162 5.54199C21.1189 5.73932 20.9962 6.01399 20.9482 6.36599H23.1642ZM23.7402 8.26599C23.6522 8.37266 23.5469 8.46599 23.4242 8.54599C23.3016 8.62332 23.1696 8.68732 23.0282 8.73799C22.8896 8.78866 22.7456 8.82599 22.5962 8.84999C22.4469 8.87666 22.2989 8.88999 22.1522 8.88999C21.8722 8.88999 21.6136 8.84332 21.3762 8.74999C21.1416 8.65399 20.9376 8.51532 20.7642 8.33399C20.5936 8.14999 20.4602 7.92332 20.3642 7.65399C20.2682 7.38466 20.2202 7.07532 20.2202 6.72599C20.2202 6.44332 20.2629 6.17932 20.3482 5.93399C20.4362 5.68866 20.5616 5.47666 20.7242 5.29799C20.8869 5.11666 21.0856 4.97532 21.3202 4.87399C21.5549 4.76999 21.8189 4.71799 22.1122 4.71799C22.3549 4.71799 22.5789 4.75932 22.7842 4.84199C22.9922 4.92199 23.1709 5.03932 23.3202 5.19399C23.4722 5.34599 23.5909 5.53532 23.6762 5.76199C23.7616 5.98599 23.8042 6.24199 23.8042 6.52999C23.8042 6.64199 23.7922 6.71666 23.7682 6.75399C23.7442 6.79132 23.6989 6.80999 23.6322 6.80999H20.9242C20.9322 7.06599 20.9669 7.28866 21.0282 7.47799C21.0922 7.66732 21.1802 7.82599 21.2922 7.95399C21.4042 8.07932 21.5376 8.17399 21.6922 8.23799C21.8469 8.29932 22.0202 8.32999 22.2122 8.32999C22.3909 8.32999 22.5442 8.30999 22.6722 8.26999C22.8029 8.22732 22.9149 8.18199 23.0082 8.13399C23.1016 8.08599 23.1789 8.04199 23.2402 8.00199C23.3042 7.95932 23.3589 7.93799 23.4042 7.93799C23.4629 7.93799 23.5082 7.96066 23.5402 8.00599L23.7402 8.26599Z" fill="#EEEEEE" fill-opacity="0.5"/>
<rect x="0.25" y="12.75" width="30.5" height="10.5" fill="black" fill-opacity="0.1" stroke="url(#paint0_linear_504_15)" stroke-width="0.5"/>
<path d="M11.6837 15.754H9.82768V20.834H9.05568V15.754H7.19568V15.102H11.6837V15.754Z" fill="white"/>
<path d="M14.8623 16.782V20.834H14.4383C14.337 20.834 14.273 20.7847 14.2463 20.686L14.1903 20.25C14.0143 20.4447 13.817 20.602 13.5983 20.722C13.3796 20.8393 13.129 20.898 12.8463 20.898C12.625 20.898 12.429 20.862 12.2583 20.79C12.0903 20.7153 11.949 20.6113 11.8343 20.478C11.7196 20.3447 11.633 20.1833 11.5743 19.994C11.5183 19.8047 11.4903 19.5953 11.4903 19.366V16.782H12.2023V19.366C12.2023 19.6727 12.2716 19.91 12.4103 20.078C12.5516 20.246 12.7663 20.33 13.0543 20.33C13.265 20.33 13.461 20.2807 13.6423 20.182C13.8263 20.0807 13.9956 19.942 14.1503 19.766V16.782H14.8623Z" fill="white"/>
<path d="M16.6632 17.37C16.7512 17.2713 16.8446 17.182 16.9432 17.102C17.0419 17.022 17.1459 16.954 17.2552 16.898C17.3672 16.8393 17.4846 16.7953 17.6072 16.766C17.7326 16.734 17.8672 16.718 18.0112 16.718C18.2326 16.718 18.4272 16.7553 18.5952 16.83C18.7659 16.902 18.9072 17.006 19.0192 17.142C19.1339 17.2753 19.2206 17.4367 19.2792 17.626C19.3379 17.8153 19.3672 18.0247 19.3672 18.254V20.834H18.6512V18.254C18.6512 17.9473 18.5806 17.71 18.4392 17.542C18.3006 17.3713 18.0886 17.286 17.8032 17.286C17.5926 17.286 17.3952 17.3367 17.2112 17.438C17.0299 17.5393 16.8619 17.6767 16.7072 17.85V20.834H15.9912V16.782H16.4192C16.5206 16.782 16.5832 16.8313 16.6072 16.93L16.6632 17.37Z" fill="white"/>
<path d="M23.1642 18.366C23.1642 18.2007 23.1402 18.05 23.0922 17.914C23.0468 17.7753 22.9788 17.6567 22.8882 17.558C22.8002 17.4567 22.6922 17.3793 22.5642 17.326C22.4362 17.27 22.2908 17.242 22.1282 17.242C21.7868 17.242 21.5162 17.342 21.3162 17.542C21.1188 17.7393 20.9962 18.014 20.9482 18.366H23.1642ZM23.7402 20.266C23.6522 20.3727 23.5468 20.466 23.4242 20.546C23.3015 20.6233 23.1695 20.6873 23.0282 20.738C22.8895 20.7887 22.7455 20.826 22.5962 20.85C22.4468 20.8767 22.2988 20.89 22.1522 20.89C21.8722 20.89 21.6135 20.8433 21.3762 20.75C21.1415 20.654 20.9375 20.5153 20.7642 20.334C20.5935 20.15 20.4602 19.9233 20.3642 19.654C20.2682 19.3847 20.2202 19.0753 20.2202 18.726C20.2202 18.4433 20.2628 18.1793 20.3482 17.934C20.4362 17.6887 20.5615 17.4767 20.7242 17.298C20.8868 17.1167 21.0855 16.9753 21.3202 16.874C21.5548 16.77 21.8188 16.718 22.1122 16.718C22.3548 16.718 22.5788 16.7593 22.7842 16.842C22.9922 16.922 23.1708 17.0393 23.3202 17.194C23.4722 17.346 23.5908 17.5353 23.6762 17.762C23.7615 17.986 23.8042 18.242 23.8042 18.53C23.8042 18.642 23.7922 18.7167 23.7682 18.754C23.7442 18.7913 23.6988 18.81 23.6322 18.81H20.9242C20.9322 19.066 20.9668 19.2887 21.0282 19.478C21.0922 19.6673 21.1802 19.826 21.2922 19.954C21.4042 20.0793 21.5375 20.174 21.6922 20.238C21.8468 20.2993 22.0202 20.33 22.2122 20.33C22.3908 20.33 22.5442 20.31 22.6722 20.27C22.8028 20.2273 22.9148 20.182 23.0082 20.134C23.1015 20.086 23.1788 20.042 23.2402 20.002C23.3042 19.9593 23.3588 19.938 23.4042 19.938C23.4628 19.938 23.5082 19.9607 23.5402 20.006L23.7402 20.266Z" fill="white"/>
</g>
<defs>
<linearGradient id="paint0_linear_504_15" x1="15.5" y1="12.5" x2="15.5" y2="23.5" gradientUnits="userSpaceOnUse">
<stop stop-color="#2DCBEE"/>
<stop offset="1" stop-color="#9720F4"/>
</linearGradient>
<clipPath id="clip0_504_15">
<rect width="31" height="24" fill="white"/>
</clipPath>
</defs>
</svg>
