<svg width="16" height="24" viewBox="0 0 16 24" fill="none" xmlns="http://www.w3.org/2000/svg">
<g clip-path="url(#clip0_204_6607)">
<rect x="0.25" y="0.75" width="15.5" height="10.5" stroke="white" stroke-opacity="0.25" stroke-width="0.5"/>
<rect x="0.25" y="12.8029" width="15.5" height="10.5" fill="black" fill-opacity="0.1" stroke="#2AE98D" stroke-width="0.5"/>
<path d="M9.38607 4.39001C9.35807 4.43901 9.32774 4.47518 9.29507 4.49851C9.26474 4.51951 9.22624 4.53001 9.17957 4.53001C9.13057 4.53001 9.07691 4.51251 9.01857 4.47751C8.96257 4.44018 8.89491 4.39935 8.81557 4.35501C8.73624 4.31068 8.64291 4.27101 8.53557 4.23601C8.43057 4.19868 8.30574 4.18001 8.16107 4.18001C8.03041 4.18001 7.91607 4.19635 7.81807 4.22901C7.72007 4.25935 7.63724 4.30251 7.56957 4.35851C7.50424 4.41451 7.45524 4.48218 7.42257 4.56151C7.38991 4.63851 7.37357 4.72368 7.37357 4.81701C7.37357 4.93601 7.40624 5.03518 7.47157 5.11451C7.53924 5.19385 7.62791 5.26151 7.73757 5.31751C7.84724 5.37351 7.97207 5.42368 8.11207 5.46801C8.25207 5.51235 8.39557 5.56018 8.54257 5.61151C8.68957 5.66051 8.83307 5.71885 8.97307 5.78651C9.11307 5.85185 9.23791 5.93585 9.34757 6.03851C9.45724 6.13885 9.54474 6.26251 9.61007 6.40951C9.67774 6.55651 9.71157 6.73501 9.71157 6.94501C9.71157 7.17368 9.67191 7.38835 9.59257 7.58901C9.51557 7.78735 9.40124 7.96118 9.24957 8.11051C9.10024 8.25751 8.91707 8.37418 8.70007 8.46051C8.48307 8.54451 8.23457 8.58651 7.95457 8.58651C7.79357 8.58651 7.63491 8.57018 7.47857 8.53751C7.32224 8.50718 7.17174 8.46285 7.02707 8.40451C6.88474 8.34618 6.75057 8.27618 6.62457 8.19451C6.49857 8.11285 6.38657 8.02185 6.28857 7.92151L6.56507 7.47001C6.58841 7.43735 6.61874 7.41051 6.65607 7.38951C6.69341 7.36618 6.73307 7.35451 6.77507 7.35451C6.83341 7.35451 6.89641 7.37901 6.96407 7.42801C7.03174 7.47468 7.11224 7.52718 7.20557 7.58551C7.29891 7.64385 7.40741 7.69751 7.53107 7.74651C7.65707 7.79318 7.80757 7.81651 7.98257 7.81651C8.25091 7.81651 8.45857 7.75351 8.60557 7.62751C8.75257 7.49918 8.82607 7.31601 8.82607 7.07801C8.82607 6.94501 8.79224 6.83651 8.72457 6.75251C8.65924 6.66851 8.57174 6.59851 8.46207 6.54251C8.35241 6.48418 8.22757 6.43518 8.08757 6.39551C7.94757 6.35585 7.80524 6.31268 7.66057 6.26601C7.51591 6.21935 7.37357 6.16335 7.23357 6.09801C7.09357 6.03268 6.96874 5.94751 6.85907 5.84251C6.74941 5.73751 6.66074 5.60685 6.59307 5.45051C6.52774 5.29185 6.49507 5.09701 6.49507 4.86601C6.49507 4.68168 6.53124 4.50201 6.60357 4.32701C6.67824 4.15201 6.78557 3.99685 6.92557 3.86151C7.06557 3.72618 7.23824 3.61768 7.44357 3.53601C7.64891 3.45435 7.88457 3.41351 8.15057 3.41351C8.44924 3.41351 8.72457 3.46018 8.97657 3.55351C9.22857 3.64685 9.44324 3.77751 9.62057 3.94551L9.38607 4.39001Z" fill="#EEEEEE" fill-opacity="0.5"/>
<path d="M9.38607 16.39C9.35807 16.439 9.32774 16.4752 9.29507 16.4985C9.26474 16.5195 9.22624 16.53 9.17957 16.53C9.13057 16.53 9.07691 16.5125 9.01857 16.4775C8.96257 16.4402 8.89491 16.3993 8.81557 16.355C8.73624 16.3107 8.64291 16.271 8.53557 16.236C8.43057 16.1987 8.30574 16.18 8.16107 16.18C8.03041 16.18 7.91607 16.1963 7.81807 16.229C7.72007 16.2593 7.63724 16.3025 7.56957 16.3585C7.50424 16.4145 7.45524 16.4822 7.42257 16.5615C7.38991 16.6385 7.37357 16.7237 7.37357 16.817C7.37357 16.936 7.40624 17.0352 7.47157 17.1145C7.53924 17.1938 7.62791 17.2615 7.73757 17.3175C7.84724 17.3735 7.97207 17.4237 8.11207 17.468C8.25207 17.5123 8.39557 17.5602 8.54257 17.6115C8.68957 17.6605 8.83307 17.7188 8.97307 17.7865C9.11307 17.8518 9.23791 17.9358 9.34757 18.0385C9.45724 18.1388 9.54474 18.2625 9.61007 18.4095C9.67774 18.5565 9.71157 18.735 9.71157 18.945C9.71157 19.1737 9.67191 19.3883 9.59257 19.589C9.51557 19.7873 9.40124 19.9612 9.24957 20.1105C9.10024 20.2575 8.91707 20.3742 8.70007 20.4605C8.48307 20.5445 8.23457 20.5865 7.95457 20.5865C7.79357 20.5865 7.63491 20.5702 7.47857 20.5375C7.32224 20.5072 7.17174 20.4628 7.02707 20.4045C6.88474 20.3462 6.75057 20.2762 6.62457 20.1945C6.49857 20.1128 6.38657 20.0218 6.28857 19.9215L6.56507 19.47C6.58841 19.4373 6.61874 19.4105 6.65607 19.3895C6.69341 19.3662 6.73307 19.3545 6.77507 19.3545C6.83341 19.3545 6.89641 19.379 6.96407 19.428C7.03174 19.4747 7.11224 19.5272 7.20557 19.5855C7.29891 19.6438 7.40741 19.6975 7.53107 19.7465C7.65707 19.7932 7.80757 19.8165 7.98257 19.8165C8.25091 19.8165 8.45857 19.7535 8.60557 19.6275C8.75257 19.4992 8.82607 19.316 8.82607 19.078C8.82607 18.945 8.79224 18.8365 8.72457 18.7525C8.65924 18.6685 8.57174 18.5985 8.46207 18.5425C8.35241 18.4842 8.22757 18.4352 8.08757 18.3955C7.94757 18.3558 7.80524 18.3127 7.66057 18.266C7.51591 18.2193 7.37357 18.1633 7.23357 18.098C7.09357 18.0327 6.96874 17.9475 6.85907 17.8425C6.74941 17.7375 6.66074 17.6068 6.59307 17.4505C6.52774 17.2918 6.49507 17.097 6.49507 16.866C6.49507 16.6817 6.53124 16.502 6.60357 16.327C6.67824 16.152 6.78557 15.9968 6.92557 15.8615C7.06557 15.7262 7.23824 15.6177 7.44357 15.536C7.64891 15.4543 7.88457 15.4135 8.15057 15.4135C8.44924 15.4135 8.72457 15.4602 8.97657 15.5535C9.22857 15.6468 9.44324 15.7775 9.62057 15.9455L9.38607 16.39Z" fill="#EEEEEE"/>
</g>
<defs>
<clipPath id="clip0_204_6607">
<rect width="16" height="24" fill="white"/>
</clipPath>
</defs>
</svg>
