<svg width="92" height="42" viewBox="0 0 92 42" fill="none" xmlns="http://www.w3.org/2000/svg">
<g clip-path="url(#clip0_204_7301)">
<path fill-rule="evenodd" clip-rule="evenodd" d="M31 1.25H61V12.75H31V1.25ZM61 13.25H31H30.5V12.75V1.25V0.75H31H61H61.5H91.5H92V1.25V12.75V13.25H91.5H61.5H61ZM61.5 1.25V12.75H91.5V1.25H61.5Z" fill="white" fill-opacity="0.25"/>
<rect x="0.25" y="15" width="30.5" height="12" stroke="white" stroke-opacity="0.25" stroke-width="0.5"/>
<rect x="61.25" y="15" width="30.5" height="12" stroke="white" stroke-opacity="0.25" stroke-width="0.5"/>
<path fill-rule="evenodd" clip-rule="evenodd" d="M0.5 29.25H30.5V40.75H0.5V29.25ZM30.5 41.25H0.5H0V40.75V29.25V28.75H0.5H30.5H31H61H61.5V29.25V40.75V41.25H61H31H30.5ZM31 29.25V40.75H61V29.25H31Z" fill="white" fill-opacity="0.25"/>
<rect x="30.75" y="15" width="30.5" height="12" fill="black" fill-opacity="0.1" stroke="#B422D9" stroke-width="0.5"/>
<rect x="61.25" y="29" width="30.5" height="12" fill="black" fill-opacity="0.1" stroke="#B422D9" stroke-width="0.5"/>
<rect x="0.25" y="1" width="30.5" height="12" fill="black" fill-opacity="0.1" stroke="#B422D9" stroke-width="0.5"/>
<path d="M8.70682 4.556C8.68282 4.596 8.65616 4.62667 8.62682 4.648C8.60016 4.66667 8.56682 4.676 8.52682 4.676C8.48149 4.676 8.42816 4.65333 8.36682 4.608C8.30549 4.56267 8.22816 4.51333 8.13482 4.46C8.04416 4.404 7.93349 4.35333 7.80282 4.308C7.67482 4.26267 7.51882 4.24 7.33482 4.24C7.16149 4.24 7.00816 4.264 6.87482 4.312C6.74416 4.35733 6.63349 4.42 6.54282 4.5C6.45482 4.58 6.38816 4.67467 6.34282 4.784C6.29749 4.89067 6.27482 5.00667 6.27482 5.132C6.27482 5.292 6.31349 5.42533 6.39082 5.532C6.47082 5.636 6.57482 5.72533 6.70282 5.8C6.83349 5.87467 6.98016 5.94 7.14282 5.996C7.30816 6.04933 7.47616 6.10533 7.64682 6.164C7.82016 6.22267 7.98816 6.28933 8.15082 6.364C8.31616 6.436 8.46282 6.528 8.59082 6.64C8.72149 6.752 8.82549 6.88933 8.90282 7.052C8.98282 7.21467 9.02282 7.41467 9.02282 7.652C9.02282 7.90267 8.98016 8.13867 8.89482 8.36C8.80949 8.57867 8.68416 8.76933 8.51882 8.932C8.35616 9.09467 8.15482 9.22267 7.91482 9.316C7.67749 9.40933 7.40682 9.456 7.10282 9.456C6.72949 9.456 6.39082 9.38933 6.08682 9.256C5.78282 9.12 5.52282 8.93733 5.30682 8.708L5.53082 8.34C5.55216 8.31067 5.57749 8.28667 5.60682 8.268C5.63882 8.24667 5.67349 8.236 5.71082 8.236C5.74549 8.236 5.78416 8.25067 5.82682 8.28C5.87216 8.30667 5.92282 8.34133 5.97882 8.384C6.03482 8.42667 6.09882 8.47333 6.17082 8.524C6.24282 8.57467 6.32416 8.62133 6.41482 8.664C6.50816 8.70667 6.61349 8.74267 6.73082 8.772C6.84816 8.79867 6.98016 8.812 7.12682 8.812C7.31082 8.812 7.47482 8.78667 7.61882 8.736C7.76282 8.68533 7.88416 8.61467 7.98282 8.524C8.08416 8.43067 8.16149 8.32 8.21482 8.192C8.26816 8.064 8.29482 7.92133 8.29482 7.764C8.29482 7.59067 8.25482 7.44933 8.17482 7.34C8.09749 7.228 7.99482 7.13467 7.86682 7.06C7.73882 6.98533 7.59216 6.92267 7.42682 6.872C7.26149 6.81867 7.09349 6.76533 6.92282 6.712C6.75216 6.656 6.58416 6.592 6.41882 6.52C6.25349 6.448 6.10682 6.35467 5.97882 6.24C5.85082 6.12533 5.74682 5.98267 5.66682 5.812C5.58949 5.63867 5.55082 5.42533 5.55082 5.172C5.55082 4.96933 5.58949 4.77333 5.66682 4.584C5.74682 4.39467 5.86149 4.22667 6.01082 4.08C6.16282 3.93333 6.34816 3.816 6.56682 3.728C6.78816 3.64 7.04149 3.596 7.32682 3.596C7.64682 3.596 7.93749 3.64667 8.19882 3.748C8.46282 3.84933 8.69482 3.996 8.89482 4.188L8.70682 4.556Z" fill="#EEEEEE"/>
<path d="M10.6635 5.34V9.392H9.95151V5.34H10.6635ZM10.8155 4.068C10.8155 4.13733 10.8008 4.20267 10.7715 4.264C10.7448 4.32267 10.7075 4.376 10.6595 4.424C10.6142 4.46933 10.5595 4.50533 10.4955 4.532C10.4342 4.55867 10.3688 4.572 10.2995 4.572C10.2302 4.572 10.1648 4.55867 10.1035 4.532C10.0448 4.50533 9.99284 4.46933 9.94751 4.424C9.90218 4.376 9.86618 4.32267 9.83951 4.264C9.81284 4.20267 9.79951 4.13733 9.79951 4.068C9.79951 3.99867 9.81284 3.93333 9.83951 3.872C9.86618 3.808 9.90218 3.75333 9.94751 3.708C9.99284 3.66 10.0448 3.62267 10.1035 3.596C10.1648 3.56933 10.2302 3.556 10.2995 3.556C10.3688 3.556 10.4342 3.56933 10.4955 3.596C10.5595 3.62267 10.6142 3.66 10.6595 3.708C10.7075 3.75333 10.7448 3.808 10.7715 3.872C10.8008 3.93333 10.8155 3.99867 10.8155 4.068Z" fill="#EEEEEE"/>
<path d="M12.5054 5.928C12.5934 5.82933 12.6867 5.74 12.7854 5.66C12.8841 5.58 12.9881 5.512 13.0974 5.456C13.2094 5.39733 13.3267 5.35333 13.4494 5.324C13.5747 5.292 13.7094 5.276 13.8534 5.276C14.0747 5.276 14.2694 5.31333 14.4374 5.388C14.6081 5.46 14.7494 5.564 14.8614 5.7C14.9761 5.83333 15.0627 5.99467 15.1214 6.184C15.1801 6.37333 15.2094 6.58267 15.2094 6.812V9.392H14.4934V6.812C14.4934 6.50533 14.4227 6.268 14.2814 6.1C14.1427 5.92933 13.9307 5.844 13.6454 5.844C13.4347 5.844 13.2374 5.89467 13.0534 5.996C12.8721 6.09733 12.7041 6.23467 12.5494 6.408V9.392H11.8334V5.34H12.2614C12.3627 5.34 12.4254 5.38933 12.4494 5.488L12.5054 5.928Z" fill="#EEEEEE"/>
<path d="M17.7063 7.412C17.8503 7.412 17.977 7.392 18.0863 7.352C18.1957 7.312 18.2877 7.256 18.3623 7.184C18.437 7.112 18.493 7.02667 18.5303 6.928C18.5677 6.82667 18.5863 6.716 18.5863 6.596C18.5863 6.348 18.5103 6.15067 18.3583 6.004C18.209 5.85733 17.9917 5.784 17.7063 5.784C17.4183 5.784 17.1983 5.85733 17.0463 6.004C16.897 6.15067 16.8223 6.348 16.8223 6.596C16.8223 6.716 16.841 6.82667 16.8783 6.928C16.9183 7.02667 16.9757 7.112 17.0503 7.184C17.125 7.256 17.217 7.312 17.3263 7.352C17.4357 7.392 17.5623 7.412 17.7063 7.412ZM18.9903 9.612C18.9903 9.51333 18.9623 9.43333 18.9063 9.372C18.8503 9.31067 18.7743 9.26267 18.6783 9.228C18.585 9.19333 18.4757 9.16933 18.3503 9.156C18.225 9.14 18.0917 9.128 17.9503 9.12C17.8117 9.112 17.6703 9.104 17.5263 9.096C17.3823 9.088 17.2437 9.07467 17.1103 9.056C16.961 9.12533 16.8383 9.21333 16.7423 9.32C16.649 9.424 16.6023 9.54667 16.6023 9.688C16.6023 9.77867 16.625 9.86267 16.6703 9.94C16.7183 10.02 16.7903 10.088 16.8863 10.144C16.9823 10.2027 17.1023 10.248 17.2463 10.28C17.393 10.3147 17.565 10.332 17.7623 10.332C17.9543 10.332 18.1263 10.3147 18.2783 10.28C18.4303 10.2453 18.5583 10.196 18.6623 10.132C18.769 10.068 18.8503 9.992 18.9063 9.904C18.9623 9.816 18.9903 9.71867 18.9903 9.612ZM19.7143 5.5V5.764C19.7143 5.852 19.6583 5.908 19.5463 5.932L19.0863 5.992C19.177 6.168 19.2223 6.36267 19.2223 6.576C19.2223 6.77333 19.1837 6.95333 19.1063 7.116C19.0317 7.276 18.9277 7.41333 18.7943 7.528C18.661 7.64267 18.501 7.73067 18.3143 7.792C18.1277 7.85333 17.925 7.884 17.7063 7.884C17.517 7.884 17.3383 7.86133 17.1703 7.816C17.085 7.86933 17.0197 7.92667 16.9743 7.988C16.929 8.04667 16.9063 8.10667 16.9063 8.168C16.9063 8.264 16.945 8.33733 17.0223 8.388C17.1023 8.436 17.2063 8.47067 17.3343 8.492C17.4623 8.51333 17.6077 8.52667 17.7703 8.532C17.9357 8.53733 18.1037 8.54667 18.2743 8.56C18.4477 8.57067 18.6157 8.59067 18.7783 8.62C18.9437 8.64933 19.0903 8.69733 19.2183 8.764C19.3463 8.83067 19.449 8.92267 19.5263 9.04C19.6063 9.15733 19.6463 9.30933 19.6463 9.496C19.6463 9.66933 19.6023 9.83733 19.5143 10C19.429 10.1627 19.305 10.3067 19.1423 10.432C18.9797 10.56 18.7797 10.6613 18.5423 10.736C18.3077 10.8133 18.0423 10.852 17.7463 10.852C17.4503 10.852 17.1917 10.8227 16.9703 10.764C16.749 10.7053 16.565 10.6267 16.4183 10.528C16.2717 10.4293 16.161 10.3147 16.0863 10.184C16.0143 10.056 15.9783 9.92133 15.9783 9.78C15.9783 9.58 16.041 9.41067 16.1663 9.272C16.2917 9.13333 16.4637 9.02267 16.6823 8.94C16.5623 8.88667 16.4663 8.816 16.3943 8.728C16.325 8.63733 16.2903 8.516 16.2903 8.364C16.2903 8.30533 16.301 8.24533 16.3223 8.184C16.3437 8.12 16.3757 8.05733 16.4183 7.996C16.4637 7.932 16.5183 7.872 16.5823 7.816C16.6463 7.76 16.721 7.71067 16.8063 7.668C16.6063 7.556 16.4503 7.408 16.3383 7.224C16.2263 7.03733 16.1703 6.82133 16.1703 6.576C16.1703 6.37867 16.2077 6.2 16.2823 6.04C16.3597 5.87733 16.4663 5.74 16.6023 5.628C16.7383 5.51333 16.8997 5.42533 17.0863 5.364C17.2757 5.30267 17.4823 5.272 17.7063 5.272C17.8823 5.272 18.0463 5.292 18.1983 5.332C18.3503 5.36933 18.489 5.42533 18.6143 5.5H19.7143Z" fill="#EEEEEE"/>
<path d="M21.1866 3.5V9.392H20.4746V3.5H21.1866Z" fill="#EEEEEE"/>
<path d="M25.0532 6.924C25.0532 6.75867 25.0292 6.608 24.9812 6.472C24.9359 6.33333 24.8679 6.21467 24.7772 6.116C24.6892 6.01467 24.5812 5.93733 24.4532 5.884C24.3252 5.828 24.1799 5.8 24.0172 5.8C23.6759 5.8 23.4052 5.9 23.2052 6.1C23.0079 6.29733 22.8852 6.572 22.8372 6.924H25.0532ZM25.6292 8.824C25.5412 8.93067 25.4359 9.024 25.3132 9.104C25.1905 9.18133 25.0585 9.24533 24.9172 9.296C24.7785 9.34667 24.6345 9.384 24.4852 9.408C24.3359 9.43467 24.1879 9.448 24.0412 9.448C23.7612 9.448 23.5025 9.40133 23.2652 9.308C23.0305 9.212 22.8265 9.07333 22.6532 8.892C22.4825 8.708 22.3492 8.48133 22.2532 8.212C22.1572 7.94267 22.1092 7.63333 22.1092 7.284C22.1092 7.00133 22.1519 6.73733 22.2372 6.492C22.3252 6.24667 22.4505 6.03467 22.6132 5.856C22.7759 5.67467 22.9745 5.53333 23.2092 5.432C23.4439 5.328 23.7079 5.276 24.0012 5.276C24.2439 5.276 24.4679 5.31733 24.6732 5.4C24.8812 5.48 25.0599 5.59733 25.2092 5.752C25.3612 5.904 25.4799 6.09333 25.5652 6.32C25.6505 6.544 25.6932 6.8 25.6932 7.088C25.6932 7.2 25.6812 7.27467 25.6572 7.312C25.6332 7.34933 25.5879 7.368 25.5212 7.368H22.8132C22.8212 7.624 22.8559 7.84667 22.9172 8.036C22.9812 8.22533 23.0692 8.384 23.1812 8.512C23.2932 8.63733 23.4265 8.732 23.5812 8.796C23.7359 8.85733 23.9092 8.888 24.1012 8.888C24.2799 8.888 24.4332 8.868 24.5612 8.828C24.6919 8.78533 24.8039 8.74 24.8972 8.692C24.9905 8.644 25.0679 8.6 25.1292 8.56C25.1932 8.51733 25.2479 8.496 25.2932 8.496C25.3519 8.496 25.3972 8.51867 25.4292 8.564L25.6292 8.824Z" fill="#EEEEEE"/>
<path d="M8.70682 18.556C8.68282 18.596 8.65616 18.6267 8.62682 18.648C8.60016 18.6667 8.56682 18.676 8.52682 18.676C8.48149 18.676 8.42816 18.6533 8.36682 18.608C8.30549 18.5627 8.22816 18.5133 8.13482 18.46C8.04416 18.404 7.93349 18.3533 7.80282 18.308C7.67482 18.2627 7.51882 18.24 7.33482 18.24C7.16149 18.24 7.00816 18.264 6.87482 18.312C6.74416 18.3573 6.63349 18.42 6.54282 18.5C6.45482 18.58 6.38816 18.6747 6.34282 18.784C6.29749 18.8907 6.27482 19.0067 6.27482 19.132C6.27482 19.292 6.31349 19.4253 6.39082 19.532C6.47082 19.636 6.57482 19.7253 6.70282 19.8C6.83349 19.8747 6.98016 19.94 7.14282 19.996C7.30816 20.0493 7.47616 20.1053 7.64682 20.164C7.82016 20.2227 7.98816 20.2893 8.15082 20.364C8.31616 20.436 8.46282 20.528 8.59082 20.64C8.72149 20.752 8.82549 20.8893 8.90282 21.052C8.98282 21.2147 9.02282 21.4147 9.02282 21.652C9.02282 21.9027 8.98016 22.1387 8.89482 22.36C8.80949 22.5787 8.68416 22.7693 8.51882 22.932C8.35616 23.0947 8.15482 23.2227 7.91482 23.316C7.67749 23.4093 7.40682 23.456 7.10282 23.456C6.72949 23.456 6.39082 23.3893 6.08682 23.256C5.78282 23.12 5.52282 22.9373 5.30682 22.708L5.53082 22.34C5.55216 22.3107 5.57749 22.2867 5.60682 22.268C5.63882 22.2467 5.67349 22.236 5.71082 22.236C5.74549 22.236 5.78416 22.2507 5.82682 22.28C5.87216 22.3067 5.92282 22.3413 5.97882 22.384C6.03482 22.4267 6.09882 22.4733 6.17082 22.524C6.24282 22.5747 6.32416 22.6213 6.41482 22.664C6.50816 22.7067 6.61349 22.7427 6.73082 22.772C6.84816 22.7987 6.98016 22.812 7.12682 22.812C7.31082 22.812 7.47482 22.7867 7.61882 22.736C7.76282 22.6853 7.88416 22.6147 7.98282 22.524C8.08416 22.4307 8.16149 22.32 8.21482 22.192C8.26816 22.064 8.29482 21.9213 8.29482 21.764C8.29482 21.5907 8.25482 21.4493 8.17482 21.34C8.09749 21.228 7.99482 21.1347 7.86682 21.06C7.73882 20.9853 7.59216 20.9227 7.42682 20.872C7.26149 20.8187 7.09349 20.7653 6.92282 20.712C6.75216 20.656 6.58416 20.592 6.41882 20.52C6.25349 20.448 6.10682 20.3547 5.97882 20.24C5.85082 20.1253 5.74682 19.9827 5.66682 19.812C5.58949 19.6387 5.55082 19.4253 5.55082 19.172C5.55082 18.9693 5.58949 18.7733 5.66682 18.584C5.74682 18.3947 5.86149 18.2267 6.01082 18.08C6.16282 17.9333 6.34816 17.816 6.56682 17.728C6.78816 17.64 7.04149 17.596 7.32682 17.596C7.64682 17.596 7.93749 17.6467 8.19882 17.748C8.46282 17.8493 8.69482 17.996 8.89482 18.188L8.70682 18.556Z" fill="#EEEEEE" fill-opacity="0.5"/>
<path d="M10.6635 19.34V23.392H9.95151V19.34H10.6635ZM10.8155 18.068C10.8155 18.1373 10.8008 18.2027 10.7715 18.264C10.7448 18.3227 10.7075 18.376 10.6595 18.424C10.6142 18.4693 10.5595 18.5053 10.4955 18.532C10.4342 18.5587 10.3688 18.572 10.2995 18.572C10.2302 18.572 10.1648 18.5587 10.1035 18.532C10.0448 18.5053 9.99284 18.4693 9.94751 18.424C9.90218 18.376 9.86618 18.3227 9.83951 18.264C9.81284 18.2027 9.79951 18.1373 9.79951 18.068C9.79951 17.9987 9.81284 17.9333 9.83951 17.872C9.86618 17.808 9.90218 17.7533 9.94751 17.708C9.99284 17.66 10.0448 17.6227 10.1035 17.596C10.1648 17.5693 10.2302 17.556 10.2995 17.556C10.3688 17.556 10.4342 17.5693 10.4955 17.596C10.5595 17.6227 10.6142 17.66 10.6595 17.708C10.7075 17.7533 10.7448 17.808 10.7715 17.872C10.8008 17.9333 10.8155 17.9987 10.8155 18.068Z" fill="#EEEEEE" fill-opacity="0.5"/>
<path d="M12.5054 19.928C12.5934 19.8293 12.6867 19.74 12.7854 19.66C12.8841 19.58 12.9881 19.512 13.0974 19.456C13.2094 19.3973 13.3267 19.3533 13.4494 19.324C13.5747 19.292 13.7094 19.276 13.8534 19.276C14.0747 19.276 14.2694 19.3133 14.4374 19.388C14.6081 19.46 14.7494 19.564 14.8614 19.7C14.9761 19.8333 15.0627 19.9947 15.1214 20.184C15.1801 20.3733 15.2094 20.5827 15.2094 20.812V23.392H14.4934V20.812C14.4934 20.5053 14.4227 20.268 14.2814 20.1C14.1427 19.9293 13.9307 19.844 13.6454 19.844C13.4347 19.844 13.2374 19.8947 13.0534 19.996C12.8721 20.0973 12.7041 20.2347 12.5494 20.408V23.392H11.8334V19.34H12.2614C12.3627 19.34 12.4254 19.3893 12.4494 19.488L12.5054 19.928Z" fill="#EEEEEE" fill-opacity="0.5"/>
<path d="M17.7063 21.412C17.8503 21.412 17.977 21.392 18.0863 21.352C18.1957 21.312 18.2877 21.256 18.3623 21.184C18.437 21.112 18.493 21.0267 18.5303 20.928C18.5677 20.8267 18.5863 20.716 18.5863 20.596C18.5863 20.348 18.5103 20.1507 18.3583 20.004C18.209 19.8573 17.9917 19.784 17.7063 19.784C17.4183 19.784 17.1983 19.8573 17.0463 20.004C16.897 20.1507 16.8223 20.348 16.8223 20.596C16.8223 20.716 16.841 20.8267 16.8783 20.928C16.9183 21.0267 16.9757 21.112 17.0503 21.184C17.125 21.256 17.217 21.312 17.3263 21.352C17.4357 21.392 17.5623 21.412 17.7063 21.412ZM18.9903 23.612C18.9903 23.5133 18.9623 23.4333 18.9063 23.372C18.8503 23.3107 18.7743 23.2627 18.6783 23.228C18.585 23.1933 18.4757 23.1693 18.3503 23.156C18.225 23.14 18.0917 23.128 17.9503 23.12C17.8117 23.112 17.6703 23.104 17.5263 23.096C17.3823 23.088 17.2437 23.0747 17.1103 23.056C16.961 23.1253 16.8383 23.2133 16.7423 23.32C16.649 23.424 16.6023 23.5467 16.6023 23.688C16.6023 23.7787 16.625 23.8627 16.6703 23.94C16.7183 24.02 16.7903 24.088 16.8863 24.144C16.9823 24.2027 17.1023 24.248 17.2463 24.28C17.393 24.3147 17.565 24.332 17.7623 24.332C17.9543 24.332 18.1263 24.3147 18.2783 24.28C18.4303 24.2453 18.5583 24.196 18.6623 24.132C18.769 24.068 18.8503 23.992 18.9063 23.904C18.9623 23.816 18.9903 23.7187 18.9903 23.612ZM19.7143 19.5V19.764C19.7143 19.852 19.6583 19.908 19.5463 19.932L19.0863 19.992C19.177 20.168 19.2223 20.3627 19.2223 20.576C19.2223 20.7733 19.1837 20.9533 19.1063 21.116C19.0317 21.276 18.9277 21.4133 18.7943 21.528C18.661 21.6427 18.501 21.7307 18.3143 21.792C18.1277 21.8533 17.925 21.884 17.7063 21.884C17.517 21.884 17.3383 21.8613 17.1703 21.816C17.085 21.8693 17.0197 21.9267 16.9743 21.988C16.929 22.0467 16.9063 22.1067 16.9063 22.168C16.9063 22.264 16.945 22.3373 17.0223 22.388C17.1023 22.436 17.2063 22.4707 17.3343 22.492C17.4623 22.5133 17.6077 22.5267 17.7703 22.532C17.9357 22.5373 18.1037 22.5467 18.2743 22.56C18.4477 22.5707 18.6157 22.5907 18.7783 22.62C18.9437 22.6493 19.0903 22.6973 19.2183 22.764C19.3463 22.8307 19.449 22.9227 19.5263 23.04C19.6063 23.1573 19.6463 23.3093 19.6463 23.496C19.6463 23.6693 19.6023 23.8373 19.5143 24C19.429 24.1627 19.305 24.3067 19.1423 24.432C18.9797 24.56 18.7797 24.6613 18.5423 24.736C18.3077 24.8133 18.0423 24.852 17.7463 24.852C17.4503 24.852 17.1917 24.8227 16.9703 24.764C16.749 24.7053 16.565 24.6267 16.4183 24.528C16.2717 24.4293 16.161 24.3147 16.0863 24.184C16.0143 24.056 15.9783 23.9213 15.9783 23.78C15.9783 23.58 16.041 23.4107 16.1663 23.272C16.2917 23.1333 16.4637 23.0227 16.6823 22.94C16.5623 22.8867 16.4663 22.816 16.3943 22.728C16.325 22.6373 16.2903 22.516 16.2903 22.364C16.2903 22.3053 16.301 22.2453 16.3223 22.184C16.3437 22.12 16.3757 22.0573 16.4183 21.996C16.4637 21.932 16.5183 21.872 16.5823 21.816C16.6463 21.76 16.721 21.7107 16.8063 21.668C16.6063 21.556 16.4503 21.408 16.3383 21.224C16.2263 21.0373 16.1703 20.8213 16.1703 20.576C16.1703 20.3787 16.2077 20.2 16.2823 20.04C16.3597 19.8773 16.4663 19.74 16.6023 19.628C16.7383 19.5133 16.8997 19.4253 17.0863 19.364C17.2757 19.3027 17.4823 19.272 17.7063 19.272C17.8823 19.272 18.0463 19.292 18.1983 19.332C18.3503 19.3693 18.489 19.4253 18.6143 19.5H19.7143Z" fill="#EEEEEE" fill-opacity="0.5"/>
<path d="M21.1866 17.5V23.392H20.4746V17.5H21.1866Z" fill="#EEEEEE" fill-opacity="0.5"/>
<path d="M25.0532 20.924C25.0532 20.7587 25.0292 20.608 24.9812 20.472C24.9359 20.3333 24.8679 20.2147 24.7772 20.116C24.6892 20.0147 24.5812 19.9373 24.4532 19.884C24.3252 19.828 24.1799 19.8 24.0172 19.8C23.6759 19.8 23.4052 19.9 23.2052 20.1C23.0079 20.2973 22.8852 20.572 22.8372 20.924H25.0532ZM25.6292 22.824C25.5412 22.9307 25.4359 23.024 25.3132 23.104C25.1905 23.1813 25.0585 23.2453 24.9172 23.296C24.7785 23.3467 24.6345 23.384 24.4852 23.408C24.3359 23.4347 24.1879 23.448 24.0412 23.448C23.7612 23.448 23.5025 23.4013 23.2652 23.308C23.0305 23.212 22.8265 23.0733 22.6532 22.892C22.4825 22.708 22.3492 22.4813 22.2532 22.212C22.1572 21.9427 22.1092 21.6333 22.1092 21.284C22.1092 21.0013 22.1519 20.7373 22.2372 20.492C22.3252 20.2467 22.4505 20.0347 22.6132 19.856C22.7759 19.6747 22.9745 19.5333 23.2092 19.432C23.4439 19.328 23.7079 19.276 24.0012 19.276C24.2439 19.276 24.4679 19.3173 24.6732 19.4C24.8812 19.48 25.0599 19.5973 25.2092 19.752C25.3612 19.904 25.4799 20.0933 25.5652 20.32C25.6505 20.544 25.6932 20.8 25.6932 21.088C25.6932 21.2 25.6812 21.2747 25.6572 21.312C25.6332 21.3493 25.5879 21.368 25.5212 21.368H22.8132C22.8212 21.624 22.8559 21.8467 22.9172 22.036C22.9812 22.2253 23.0692 22.384 23.1812 22.512C23.2932 22.6373 23.4265 22.732 23.5812 22.796C23.7359 22.8573 23.9092 22.888 24.1012 22.888C24.2799 22.888 24.4332 22.868 24.5612 22.828C24.6919 22.7853 24.8039 22.74 24.8972 22.692C24.9905 22.644 25.0679 22.6 25.1292 22.56C25.1932 22.5173 25.2479 22.496 25.2932 22.496C25.3519 22.496 25.3972 22.5187 25.4292 22.564L25.6292 22.824Z" fill="#EEEEEE" fill-opacity="0.5"/>
<path d="M8.70682 32.556C8.68282 32.596 8.65616 32.6267 8.62682 32.648C8.60016 32.6667 8.56682 32.676 8.52682 32.676C8.48149 32.676 8.42816 32.6533 8.36682 32.608C8.30549 32.5627 8.22816 32.5133 8.13482 32.46C8.04416 32.404 7.93349 32.3533 7.80282 32.308C7.67482 32.2627 7.51882 32.24 7.33482 32.24C7.16149 32.24 7.00816 32.264 6.87482 32.312C6.74416 32.3573 6.63349 32.42 6.54282 32.5C6.45482 32.58 6.38816 32.6747 6.34282 32.784C6.29749 32.8907 6.27482 33.0067 6.27482 33.132C6.27482 33.292 6.31349 33.4253 6.39082 33.532C6.47082 33.636 6.57482 33.7253 6.70282 33.8C6.83349 33.8747 6.98016 33.94 7.14282 33.996C7.30816 34.0493 7.47616 34.1053 7.64682 34.164C7.82016 34.2227 7.98816 34.2893 8.15082 34.364C8.31616 34.436 8.46282 34.528 8.59082 34.64C8.72149 34.752 8.82549 34.8893 8.90282 35.052C8.98282 35.2147 9.02282 35.4147 9.02282 35.652C9.02282 35.9027 8.98016 36.1387 8.89482 36.36C8.80949 36.5787 8.68416 36.7693 8.51882 36.932C8.35616 37.0947 8.15482 37.2227 7.91482 37.316C7.67749 37.4093 7.40682 37.456 7.10282 37.456C6.72949 37.456 6.39082 37.3893 6.08682 37.256C5.78282 37.12 5.52282 36.9373 5.30682 36.708L5.53082 36.34C5.55216 36.3107 5.57749 36.2867 5.60682 36.268C5.63882 36.2467 5.67349 36.236 5.71082 36.236C5.74549 36.236 5.78416 36.2507 5.82682 36.28C5.87216 36.3067 5.92282 36.3413 5.97882 36.384C6.03482 36.4267 6.09882 36.4733 6.17082 36.524C6.24282 36.5747 6.32416 36.6213 6.41482 36.664C6.50816 36.7067 6.61349 36.7427 6.73082 36.772C6.84816 36.7987 6.98016 36.812 7.12682 36.812C7.31082 36.812 7.47482 36.7867 7.61882 36.736C7.76282 36.6853 7.88416 36.6147 7.98282 36.524C8.08416 36.4307 8.16149 36.32 8.21482 36.192C8.26816 36.064 8.29482 35.9213 8.29482 35.764C8.29482 35.5907 8.25482 35.4493 8.17482 35.34C8.09749 35.228 7.99482 35.1347 7.86682 35.06C7.73882 34.9853 7.59216 34.9227 7.42682 34.872C7.26149 34.8187 7.09349 34.7653 6.92282 34.712C6.75216 34.656 6.58416 34.592 6.41882 34.52C6.25349 34.448 6.10682 34.3547 5.97882 34.24C5.85082 34.1253 5.74682 33.9827 5.66682 33.812C5.58949 33.6387 5.55082 33.4253 5.55082 33.172C5.55082 32.9693 5.58949 32.7733 5.66682 32.584C5.74682 32.3947 5.86149 32.2267 6.01082 32.08C6.16282 31.9333 6.34816 31.816 6.56682 31.728C6.78816 31.64 7.04149 31.596 7.32682 31.596C7.64682 31.596 7.93749 31.6467 8.19882 31.748C8.46282 31.8493 8.69482 31.996 8.89482 32.188L8.70682 32.556Z" fill="#EEEEEE" fill-opacity="0.5"/>
<path d="M10.6635 33.34V37.392H9.95151V33.34H10.6635ZM10.8155 32.068C10.8155 32.1373 10.8008 32.2027 10.7715 32.264C10.7448 32.3227 10.7075 32.376 10.6595 32.424C10.6142 32.4693 10.5595 32.5053 10.4955 32.532C10.4342 32.5587 10.3688 32.572 10.2995 32.572C10.2302 32.572 10.1648 32.5587 10.1035 32.532C10.0448 32.5053 9.99284 32.4693 9.94751 32.424C9.90218 32.376 9.86618 32.3227 9.83951 32.264C9.81284 32.2027 9.79951 32.1373 9.79951 32.068C9.79951 31.9987 9.81284 31.9333 9.83951 31.872C9.86618 31.808 9.90218 31.7533 9.94751 31.708C9.99284 31.66 10.0448 31.6227 10.1035 31.596C10.1648 31.5693 10.2302 31.556 10.2995 31.556C10.3688 31.556 10.4342 31.5693 10.4955 31.596C10.5595 31.6227 10.6142 31.66 10.6595 31.708C10.7075 31.7533 10.7448 31.808 10.7715 31.872C10.8008 31.9333 10.8155 31.9987 10.8155 32.068Z" fill="#EEEEEE" fill-opacity="0.5"/>
<path d="M12.5054 33.928C12.5934 33.8293 12.6867 33.74 12.7854 33.66C12.8841 33.58 12.9881 33.512 13.0974 33.456C13.2094 33.3973 13.3267 33.3533 13.4494 33.324C13.5747 33.292 13.7094 33.276 13.8534 33.276C14.0747 33.276 14.2694 33.3133 14.4374 33.388C14.6081 33.46 14.7494 33.564 14.8614 33.7C14.9761 33.8333 15.0627 33.9947 15.1214 34.184C15.1801 34.3733 15.2094 34.5827 15.2094 34.812V37.392H14.4934V34.812C14.4934 34.5053 14.4227 34.268 14.2814 34.1C14.1427 33.9293 13.9307 33.844 13.6454 33.844C13.4347 33.844 13.2374 33.8947 13.0534 33.996C12.8721 34.0973 12.7041 34.2347 12.5494 34.408V37.392H11.8334V33.34H12.2614C12.3627 33.34 12.4254 33.3893 12.4494 33.488L12.5054 33.928Z" fill="#EEEEEE" fill-opacity="0.5"/>
<path d="M17.7063 35.412C17.8503 35.412 17.977 35.392 18.0863 35.352C18.1957 35.312 18.2877 35.256 18.3623 35.184C18.437 35.112 18.493 35.0267 18.5303 34.928C18.5677 34.8267 18.5863 34.716 18.5863 34.596C18.5863 34.348 18.5103 34.1507 18.3583 34.004C18.209 33.8573 17.9917 33.784 17.7063 33.784C17.4183 33.784 17.1983 33.8573 17.0463 34.004C16.897 34.1507 16.8223 34.348 16.8223 34.596C16.8223 34.716 16.841 34.8267 16.8783 34.928C16.9183 35.0267 16.9757 35.112 17.0503 35.184C17.125 35.256 17.217 35.312 17.3263 35.352C17.4357 35.392 17.5623 35.412 17.7063 35.412ZM18.9903 37.612C18.9903 37.5133 18.9623 37.4333 18.9063 37.372C18.8503 37.3107 18.7743 37.2627 18.6783 37.228C18.585 37.1933 18.4757 37.1693 18.3503 37.156C18.225 37.14 18.0917 37.128 17.9503 37.12C17.8117 37.112 17.6703 37.104 17.5263 37.096C17.3823 37.088 17.2437 37.0747 17.1103 37.056C16.961 37.1253 16.8383 37.2133 16.7423 37.32C16.649 37.424 16.6023 37.5467 16.6023 37.688C16.6023 37.7787 16.625 37.8627 16.6703 37.94C16.7183 38.02 16.7903 38.088 16.8863 38.144C16.9823 38.2027 17.1023 38.248 17.2463 38.28C17.393 38.3147 17.565 38.332 17.7623 38.332C17.9543 38.332 18.1263 38.3147 18.2783 38.28C18.4303 38.2453 18.5583 38.196 18.6623 38.132C18.769 38.068 18.8503 37.992 18.9063 37.904C18.9623 37.816 18.9903 37.7187 18.9903 37.612ZM19.7143 33.5V33.764C19.7143 33.852 19.6583 33.908 19.5463 33.932L19.0863 33.992C19.177 34.168 19.2223 34.3627 19.2223 34.576C19.2223 34.7733 19.1837 34.9533 19.1063 35.116C19.0317 35.276 18.9277 35.4133 18.7943 35.528C18.661 35.6427 18.501 35.7307 18.3143 35.792C18.1277 35.8533 17.925 35.884 17.7063 35.884C17.517 35.884 17.3383 35.8613 17.1703 35.816C17.085 35.8693 17.0197 35.9267 16.9743 35.988C16.929 36.0467 16.9063 36.1067 16.9063 36.168C16.9063 36.264 16.945 36.3373 17.0223 36.388C17.1023 36.436 17.2063 36.4707 17.3343 36.492C17.4623 36.5133 17.6077 36.5267 17.7703 36.532C17.9357 36.5373 18.1037 36.5467 18.2743 36.56C18.4477 36.5707 18.6157 36.5907 18.7783 36.62C18.9437 36.6493 19.0903 36.6973 19.2183 36.764C19.3463 36.8307 19.449 36.9227 19.5263 37.04C19.6063 37.1573 19.6463 37.3093 19.6463 37.496C19.6463 37.6693 19.6023 37.8373 19.5143 38C19.429 38.1627 19.305 38.3067 19.1423 38.432C18.9797 38.56 18.7797 38.6613 18.5423 38.736C18.3077 38.8133 18.0423 38.852 17.7463 38.852C17.4503 38.852 17.1917 38.8227 16.9703 38.764C16.749 38.7053 16.565 38.6267 16.4183 38.528C16.2717 38.4293 16.161 38.3147 16.0863 38.184C16.0143 38.056 15.9783 37.9213 15.9783 37.78C15.9783 37.58 16.041 37.4107 16.1663 37.272C16.2917 37.1333 16.4637 37.0227 16.6823 36.94C16.5623 36.8867 16.4663 36.816 16.3943 36.728C16.325 36.6373 16.2903 36.516 16.2903 36.364C16.2903 36.3053 16.301 36.2453 16.3223 36.184C16.3437 36.12 16.3757 36.0573 16.4183 35.996C16.4637 35.932 16.5183 35.872 16.5823 35.816C16.6463 35.76 16.721 35.7107 16.8063 35.668C16.6063 35.556 16.4503 35.408 16.3383 35.224C16.2263 35.0373 16.1703 34.8213 16.1703 34.576C16.1703 34.3787 16.2077 34.2 16.2823 34.04C16.3597 33.8773 16.4663 33.74 16.6023 33.628C16.7383 33.5133 16.8997 33.4253 17.0863 33.364C17.2757 33.3027 17.4823 33.272 17.7063 33.272C17.8823 33.272 18.0463 33.292 18.1983 33.332C18.3503 33.3693 18.489 33.4253 18.6143 33.5H19.7143Z" fill="#EEEEEE" fill-opacity="0.5"/>
<path d="M21.1866 31.5V37.392H20.4746V31.5H21.1866Z" fill="#EEEEEE" fill-opacity="0.5"/>
<path d="M25.0532 34.924C25.0532 34.7587 25.0292 34.608 24.9812 34.472C24.9359 34.3333 24.8679 34.2147 24.7772 34.116C24.6892 34.0147 24.5812 33.9373 24.4532 33.884C24.3252 33.828 24.1799 33.8 24.0172 33.8C23.6759 33.8 23.4052 33.9 23.2052 34.1C23.0079 34.2973 22.8852 34.572 22.8372 34.924H25.0532ZM25.6292 36.824C25.5412 36.9307 25.4359 37.024 25.3132 37.104C25.1905 37.1813 25.0585 37.2453 24.9172 37.296C24.7785 37.3467 24.6345 37.384 24.4852 37.408C24.3359 37.4347 24.1879 37.448 24.0412 37.448C23.7612 37.448 23.5025 37.4013 23.2652 37.308C23.0305 37.212 22.8265 37.0733 22.6532 36.892C22.4825 36.708 22.3492 36.4813 22.2532 36.212C22.1572 35.9427 22.1092 35.6333 22.1092 35.284C22.1092 35.0013 22.1519 34.7373 22.2372 34.492C22.3252 34.2467 22.4505 34.0347 22.6132 33.856C22.7759 33.6747 22.9745 33.5333 23.2092 33.432C23.4439 33.328 23.7079 33.276 24.0012 33.276C24.2439 33.276 24.4679 33.3173 24.6732 33.4C24.8812 33.48 25.0599 33.5973 25.2092 33.752C25.3612 33.904 25.4799 34.0933 25.5652 34.32C25.6505 34.544 25.6932 34.8 25.6932 35.088C25.6932 35.2 25.6812 35.2747 25.6572 35.312C25.6332 35.3493 25.5879 35.368 25.5212 35.368H22.8132C22.8212 35.624 22.8559 35.8467 22.9172 36.036C22.9812 36.2253 23.0692 36.384 23.1812 36.512C23.2932 36.6373 23.4265 36.732 23.5812 36.796C23.7359 36.8573 23.9092 36.888 24.1012 36.888C24.2799 36.888 24.4332 36.868 24.5612 36.828C24.6919 36.7853 24.8039 36.74 24.8972 36.692C24.9905 36.644 25.0679 36.6 25.1292 36.56C25.1932 36.5173 25.2479 36.496 25.2932 36.496C25.3519 36.496 25.3972 36.5187 25.4292 36.564L25.6292 36.824Z" fill="#EEEEEE" fill-opacity="0.5"/>
<path d="M41.5059 18.5779C41.4819 18.6179 41.4552 18.6486 41.4259 18.6699C41.3992 18.6886 41.3659 18.6979 41.3259 18.6979C41.2806 18.6979 41.2272 18.6752 41.1659 18.6299C41.1046 18.5846 41.0272 18.5352 40.9339 18.4819C40.8432 18.4259 40.7326 18.3752 40.6019 18.3299C40.4739 18.2846 40.3179 18.2619 40.1339 18.2619C39.9606 18.2619 39.8072 18.2859 39.6739 18.3339C39.5432 18.3792 39.4326 18.4419 39.3419 18.5219C39.2539 18.6019 39.1872 18.6966 39.1419 18.8059C39.0966 18.9126 39.0739 19.0286 39.0739 19.1539C39.0739 19.3139 39.1126 19.4472 39.1899 19.5539C39.2699 19.6579 39.3739 19.7472 39.5019 19.8219C39.6326 19.8966 39.7792 19.9619 39.9419 20.0179C40.1072 20.0712 40.2752 20.1272 40.4459 20.1859C40.6192 20.2446 40.7872 20.3112 40.9499 20.3859C41.1152 20.4579 41.2619 20.5499 41.3899 20.6619C41.5206 20.7739 41.6246 20.9112 41.7019 21.0739C41.7819 21.2366 41.8219 21.4366 41.8219 21.6739C41.8219 21.9246 41.7792 22.1606 41.6939 22.3819C41.6086 22.6006 41.4832 22.7912 41.3179 22.9539C41.1552 23.1166 40.9539 23.2446 40.7139 23.3379C40.4766 23.4312 40.2059 23.4779 39.9019 23.4779C39.5286 23.4779 39.1899 23.4112 38.8859 23.2779C38.5819 23.1419 38.3219 22.9592 38.1059 22.7299L38.3299 22.3619C38.3512 22.3326 38.3766 22.3086 38.4059 22.2899C38.4379 22.2686 38.4726 22.2579 38.5099 22.2579C38.5446 22.2579 38.5832 22.2726 38.6259 22.3019C38.6712 22.3286 38.7219 22.3632 38.7779 22.4059C38.8339 22.4486 38.8979 22.4952 38.9699 22.5459C39.0419 22.5966 39.1232 22.6432 39.2139 22.6859C39.3072 22.7286 39.4126 22.7646 39.5299 22.7939C39.6472 22.8206 39.7792 22.8339 39.9259 22.8339C40.1099 22.8339 40.2739 22.8086 40.4179 22.7579C40.5619 22.7072 40.6832 22.6366 40.7819 22.5459C40.8832 22.4526 40.9606 22.3419 41.0139 22.2139C41.0672 22.0859 41.0939 21.9432 41.0939 21.7859C41.0939 21.6126 41.0539 21.4712 40.9739 21.3619C40.8966 21.2499 40.7939 21.1566 40.6659 21.0819C40.5379 21.0072 40.3912 20.9446 40.2259 20.8939C40.0606 20.8406 39.8926 20.7872 39.7219 20.7339C39.5512 20.6779 39.3832 20.6139 39.2179 20.5419C39.0526 20.4699 38.9059 20.3766 38.7779 20.2619C38.6499 20.1472 38.5459 20.0046 38.4659 19.8339C38.3886 19.6606 38.3499 19.4472 38.3499 19.1939C38.3499 18.9912 38.3886 18.7952 38.4659 18.6059C38.5459 18.4166 38.6606 18.2486 38.8099 18.1019C38.9619 17.9552 39.1472 17.8379 39.3659 17.7499C39.5872 17.6619 39.8406 17.6179 40.1259 17.6179C40.4459 17.6179 40.7366 17.6686 40.9979 17.7699C41.2619 17.8712 41.4939 18.0179 41.6939 18.2099L41.5059 18.5779Z" fill="#EEEEEE"/>
<path d="M43.3953 19.9019C43.5687 19.7179 43.7607 19.5712 43.9713 19.4619C44.182 19.3526 44.4247 19.2979 44.6993 19.2979C44.9207 19.2979 45.1153 19.3352 45.2833 19.4099C45.454 19.4819 45.5953 19.5859 45.7073 19.7219C45.822 19.8552 45.9087 20.0166 45.9673 20.2059C46.026 20.3952 46.0553 20.6046 46.0553 20.8339V23.4139H45.3393V20.8339C45.3393 20.5272 45.2687 20.2899 45.1273 20.1219C44.9887 19.9512 44.7767 19.8659 44.4913 19.8659C44.2807 19.8659 44.0833 19.9166 43.8993 20.0179C43.718 20.1192 43.55 20.2566 43.3953 20.4299V23.4139H42.6793V17.5219H43.3953V19.9019Z" fill="#EEEEEE"/>
<path d="M47.8923 19.3619V23.4139H47.1803V19.3619H47.8923ZM48.0443 18.0899C48.0443 18.1592 48.0296 18.2246 48.0003 18.2859C47.9736 18.3446 47.9363 18.3979 47.8883 18.4459C47.8429 18.4912 47.7883 18.5272 47.7243 18.5539C47.6629 18.5806 47.5976 18.5939 47.5283 18.5939C47.4589 18.5939 47.3936 18.5806 47.3323 18.5539C47.2736 18.5272 47.2216 18.4912 47.1763 18.4459C47.1309 18.3979 47.0949 18.3446 47.0683 18.2859C47.0416 18.2246 47.0283 18.1592 47.0283 18.0899C47.0283 18.0206 47.0416 17.9552 47.0683 17.8939C47.0949 17.8299 47.1309 17.7752 47.1763 17.7299C47.2216 17.6819 47.2736 17.6446 47.3323 17.6179C47.3936 17.5912 47.4589 17.5779 47.5283 17.5779C47.5976 17.5779 47.6629 17.5912 47.7243 17.6179C47.7883 17.6446 47.8429 17.6819 47.8883 17.7299C47.9363 17.7752 47.9736 17.8299 48.0003 17.8939C48.0296 17.9552 48.0443 18.0206 48.0443 18.0899Z" fill="#EEEEEE"/>
<path d="M52.6301 19.9579V22.3899C52.6301 22.5606 52.6715 22.6872 52.7541 22.7699C52.8368 22.8526 52.9421 22.8939 53.0701 22.8939C53.1475 22.8939 53.2128 22.8846 53.2661 22.8659C53.3221 22.8446 53.3701 22.8219 53.4101 22.7979C53.4501 22.7739 53.4835 22.7526 53.5101 22.7339C53.5368 22.7126 53.5608 22.7019 53.5821 22.7019C53.6061 22.7019 53.6248 22.7072 53.6381 22.7179C53.6541 22.7286 53.6701 22.7459 53.6861 22.7699L53.8941 23.1099C53.7715 23.2246 53.6235 23.3152 53.4501 23.3819C53.2768 23.4459 53.0968 23.4779 52.9101 23.4779C52.5928 23.4779 52.3475 23.3886 52.1741 23.2099C52.0035 23.0312 51.9181 22.7739 51.9181 22.4379V19.9579H50.0421V23.4139H49.3261V19.9699L48.8781 19.9179C48.8221 19.9046 48.7755 19.8846 48.7381 19.8579C48.7035 19.8286 48.6861 19.7872 48.6861 19.7339V19.4419H49.3261V19.0499C49.3261 18.8179 49.3581 18.6126 49.4221 18.4339C49.4888 18.2526 49.5821 18.1006 49.7021 17.9779C49.8248 17.8526 49.9715 17.7579 50.1421 17.6939C50.3128 17.6299 50.5048 17.5979 50.7181 17.5979C50.8995 17.5979 51.0661 17.6246 51.2181 17.6779L51.2021 18.0339C51.1968 18.0979 51.1608 18.1326 51.0941 18.1379C51.0301 18.1432 50.9435 18.1459 50.8341 18.1459C50.7115 18.1459 50.5995 18.1619 50.4981 18.1939C50.3995 18.2259 50.3141 18.2779 50.2421 18.3499C50.1701 18.4219 50.1141 18.5166 50.0741 18.6339C50.0368 18.7512 50.0181 18.8966 50.0181 19.0699V19.4419H51.9421L52.1021 18.1819C52.1128 18.1419 52.1315 18.1099 52.1581 18.0859C52.1875 18.0592 52.2248 18.0459 52.2701 18.0459H52.6301V19.4419H53.7981V19.9579H52.6301Z" fill="#EEEEEE"/>
<path d="M41.5059 4.57797C41.4819 4.61797 41.4552 4.64864 41.4259 4.66997C41.3992 4.68864 41.3659 4.69797 41.3259 4.69797C41.2806 4.69797 41.2272 4.67531 41.1659 4.62997C41.1046 4.58464 41.0272 4.53531 40.9339 4.48197C40.8432 4.42597 40.7326 4.37531 40.6019 4.32997C40.4739 4.28464 40.3179 4.26197 40.1339 4.26197C39.9606 4.26197 39.8072 4.28597 39.6739 4.33397C39.5432 4.37931 39.4326 4.44197 39.3419 4.52197C39.2539 4.60197 39.1872 4.69664 39.1419 4.80597C39.0966 4.91264 39.0739 5.02864 39.0739 5.15397C39.0739 5.31397 39.1126 5.44731 39.1899 5.55397C39.2699 5.65797 39.3739 5.74731 39.5019 5.82197C39.6326 5.89664 39.7792 5.96197 39.9419 6.01797C40.1072 6.07131 40.2752 6.12731 40.4459 6.18597C40.6192 6.24464 40.7872 6.31131 40.9499 6.38597C41.1152 6.45797 41.2619 6.54997 41.3899 6.66197C41.5206 6.77397 41.6246 6.91131 41.7019 7.07397C41.7819 7.23664 41.8219 7.43664 41.8219 7.67397C41.8219 7.92464 41.7792 8.16064 41.6939 8.38197C41.6086 8.60064 41.4832 8.79131 41.3179 8.95397C41.1552 9.11664 40.9539 9.24464 40.7139 9.33797C40.4766 9.43131 40.2059 9.47797 39.9019 9.47797C39.5286 9.47797 39.1899 9.41131 38.8859 9.27797C38.5819 9.14197 38.3219 8.95931 38.1059 8.72997L38.3299 8.36197C38.3512 8.33264 38.3766 8.30864 38.4059 8.28997C38.4379 8.26864 38.4726 8.25797 38.5099 8.25797C38.5446 8.25797 38.5832 8.27264 38.6259 8.30197C38.6712 8.32864 38.7219 8.36331 38.7779 8.40597C38.8339 8.44864 38.8979 8.49531 38.9699 8.54597C39.0419 8.59664 39.1232 8.64331 39.2139 8.68597C39.3072 8.72864 39.4126 8.76464 39.5299 8.79397C39.6472 8.82064 39.7792 8.83397 39.9259 8.83397C40.1099 8.83397 40.2739 8.80864 40.4179 8.75797C40.5619 8.70731 40.6832 8.63664 40.7819 8.54597C40.8832 8.45264 40.9606 8.34197 41.0139 8.21397C41.0672 8.08597 41.0939 7.94331 41.0939 7.78597C41.0939 7.61264 41.0539 7.47131 40.9739 7.36197C40.8966 7.24997 40.7939 7.15664 40.6659 7.08197C40.5379 7.00731 40.3912 6.94464 40.2259 6.89397C40.0606 6.84064 39.8926 6.78731 39.7219 6.73397C39.5512 6.67797 39.3832 6.61397 39.2179 6.54197C39.0526 6.46997 38.9059 6.37664 38.7779 6.26197C38.6499 6.14731 38.5459 6.00464 38.4659 5.83397C38.3886 5.66064 38.3499 5.44731 38.3499 5.19397C38.3499 4.99131 38.3886 4.79531 38.4659 4.60597C38.5459 4.41664 38.6606 4.24864 38.8099 4.10197C38.9619 3.95531 39.1472 3.83797 39.3659 3.74997C39.5872 3.66197 39.8406 3.61797 40.1259 3.61797C40.4459 3.61797 40.7366 3.66864 40.9979 3.76997C41.2619 3.87131 41.4939 4.01797 41.6939 4.20997L41.5059 4.57797Z" fill="#EEEEEE" fill-opacity="0.5"/>
<path d="M43.3953 5.90197C43.5687 5.71797 43.7607 5.57131 43.9713 5.46197C44.182 5.35264 44.4247 5.29797 44.6993 5.29797C44.9207 5.29797 45.1153 5.33531 45.2833 5.40997C45.454 5.48197 45.5953 5.58597 45.7073 5.72197C45.822 5.85531 45.9087 6.01664 45.9673 6.20597C46.026 6.39531 46.0553 6.60464 46.0553 6.83397V9.41397H45.3393V6.83397C45.3393 6.52731 45.2687 6.28997 45.1273 6.12197C44.9887 5.95131 44.7767 5.86597 44.4913 5.86597C44.2807 5.86597 44.0833 5.91664 43.8993 6.01797C43.718 6.11931 43.55 6.25664 43.3953 6.42997V9.41397H42.6793V3.52197H43.3953V5.90197Z" fill="#EEEEEE" fill-opacity="0.5"/>
<path d="M47.8923 5.36197V9.41397H47.1803V5.36197H47.8923ZM48.0443 4.08997C48.0443 4.15931 48.0296 4.22464 48.0003 4.28597C47.9736 4.34464 47.9363 4.39797 47.8883 4.44597C47.8429 4.49131 47.7883 4.52731 47.7243 4.55397C47.6629 4.58064 47.5976 4.59397 47.5283 4.59397C47.4589 4.59397 47.3936 4.58064 47.3323 4.55397C47.2736 4.52731 47.2216 4.49131 47.1763 4.44597C47.1309 4.39797 47.0949 4.34464 47.0683 4.28597C47.0416 4.22464 47.0283 4.15931 47.0283 4.08997C47.0283 4.02064 47.0416 3.95531 47.0683 3.89397C47.0949 3.82997 47.1309 3.77531 47.1763 3.72997C47.2216 3.68197 47.2736 3.64464 47.3323 3.61797C47.3936 3.59131 47.4589 3.57797 47.5283 3.57797C47.5976 3.57797 47.6629 3.59131 47.7243 3.61797C47.7883 3.64464 47.8429 3.68197 47.8883 3.72997C47.9363 3.77531 47.9736 3.82997 48.0003 3.89397C48.0296 3.95531 48.0443 4.02064 48.0443 4.08997Z" fill="#EEEEEE" fill-opacity="0.5"/>
<path d="M52.6301 5.95797V8.38997C52.6301 8.56064 52.6715 8.68731 52.7541 8.76997C52.8368 8.85264 52.9421 8.89397 53.0701 8.89397C53.1475 8.89397 53.2128 8.88464 53.2661 8.86597C53.3221 8.84464 53.3701 8.82197 53.4101 8.79797C53.4501 8.77397 53.4835 8.75264 53.5101 8.73397C53.5368 8.71264 53.5608 8.70197 53.5821 8.70197C53.6061 8.70197 53.6248 8.70731 53.6381 8.71797C53.6541 8.72864 53.6701 8.74597 53.6861 8.76997L53.8941 9.10997C53.7715 9.22464 53.6235 9.31531 53.4501 9.38197C53.2768 9.44597 53.0968 9.47797 52.9101 9.47797C52.5928 9.47797 52.3475 9.38864 52.1741 9.20997C52.0035 9.03131 51.9181 8.77397 51.9181 8.43797V5.95797H50.0421V9.41397H49.3261V5.96997L48.8781 5.91797C48.8221 5.90464 48.7755 5.88464 48.7381 5.85797C48.7035 5.82864 48.6861 5.78731 48.6861 5.73397V5.44197H49.3261V5.04997C49.3261 4.81797 49.3581 4.61264 49.4221 4.43397C49.4888 4.25264 49.5821 4.10064 49.7021 3.97797C49.8248 3.85264 49.9715 3.75797 50.1421 3.69397C50.3128 3.62997 50.5048 3.59797 50.7181 3.59797C50.8995 3.59797 51.0661 3.62464 51.2181 3.67797L51.2021 4.03397C51.1968 4.09797 51.1608 4.13264 51.0941 4.13797C51.0301 4.14331 50.9435 4.14597 50.8341 4.14597C50.7115 4.14597 50.5995 4.16197 50.4981 4.19397C50.3995 4.22597 50.3141 4.27797 50.2421 4.34997C50.1701 4.42197 50.1141 4.51664 50.0741 4.63397C50.0368 4.75131 50.0181 4.89664 50.0181 5.06997V5.44197H51.9421L52.1021 4.18197C52.1128 4.14197 52.1315 4.10997 52.1581 4.08597C52.1875 4.05931 52.2248 4.04597 52.2701 4.04597H52.6301V5.44197H53.7981V5.95797H52.6301Z" fill="#EEEEEE" fill-opacity="0.5"/>
<path d="M41.5059 32.578C41.4819 32.618 41.4552 32.6486 41.4259 32.67C41.3992 32.6886 41.3659 32.698 41.3259 32.698C41.2806 32.698 41.2272 32.6753 41.1659 32.63C41.1046 32.5846 41.0272 32.5353 40.9339 32.482C40.8432 32.426 40.7326 32.3753 40.6019 32.33C40.4739 32.2846 40.3179 32.262 40.1339 32.262C39.9606 32.262 39.8072 32.286 39.6739 32.334C39.5432 32.3793 39.4326 32.442 39.3419 32.522C39.2539 32.602 39.1872 32.6966 39.1419 32.806C39.0966 32.9126 39.0739 33.0286 39.0739 33.154C39.0739 33.314 39.1126 33.4473 39.1899 33.554C39.2699 33.658 39.3739 33.7473 39.5019 33.822C39.6326 33.8966 39.7792 33.962 39.9419 34.018C40.1072 34.0713 40.2752 34.1273 40.4459 34.186C40.6192 34.2446 40.7872 34.3113 40.9499 34.386C41.1152 34.458 41.2619 34.55 41.3899 34.662C41.5206 34.774 41.6246 34.9113 41.7019 35.074C41.7819 35.2366 41.8219 35.4366 41.8219 35.674C41.8219 35.9246 41.7792 36.1606 41.6939 36.382C41.6086 36.6006 41.4832 36.7913 41.3179 36.954C41.1552 37.1166 40.9539 37.2446 40.7139 37.338C40.4766 37.4313 40.2059 37.478 39.9019 37.478C39.5286 37.478 39.1899 37.4113 38.8859 37.278C38.5819 37.142 38.3219 36.9593 38.1059 36.73L38.3299 36.362C38.3512 36.3326 38.3766 36.3086 38.4059 36.29C38.4379 36.2686 38.4726 36.258 38.5099 36.258C38.5446 36.258 38.5832 36.2726 38.6259 36.302C38.6712 36.3286 38.7219 36.3633 38.7779 36.406C38.8339 36.4486 38.8979 36.4953 38.9699 36.546C39.0419 36.5966 39.1232 36.6433 39.2139 36.686C39.3072 36.7286 39.4126 36.7646 39.5299 36.794C39.6472 36.8206 39.7792 36.834 39.9259 36.834C40.1099 36.834 40.2739 36.8086 40.4179 36.758C40.5619 36.7073 40.6832 36.6366 40.7819 36.546C40.8832 36.4526 40.9606 36.342 41.0139 36.214C41.0672 36.086 41.0939 35.9433 41.0939 35.786C41.0939 35.6126 41.0539 35.4713 40.9739 35.362C40.8966 35.25 40.7939 35.1566 40.6659 35.082C40.5379 35.0073 40.3912 34.9446 40.2259 34.894C40.0606 34.8406 39.8926 34.7873 39.7219 34.734C39.5512 34.678 39.3832 34.614 39.2179 34.542C39.0526 34.47 38.9059 34.3766 38.7779 34.262C38.6499 34.1473 38.5459 34.0046 38.4659 33.834C38.3886 33.6606 38.3499 33.4473 38.3499 33.194C38.3499 32.9913 38.3886 32.7953 38.4659 32.606C38.5459 32.4166 38.6606 32.2486 38.8099 32.102C38.9619 31.9553 39.1472 31.838 39.3659 31.75C39.5872 31.662 39.8406 31.618 40.1259 31.618C40.4459 31.618 40.7366 31.6686 40.9979 31.77C41.2619 31.8713 41.4939 32.018 41.6939 32.21L41.5059 32.578Z" fill="#EEEEEE" fill-opacity="0.5"/>
<path d="M43.3953 33.902C43.5687 33.718 43.7607 33.5713 43.9713 33.462C44.182 33.3526 44.4247 33.298 44.6993 33.298C44.9207 33.298 45.1153 33.3353 45.2833 33.41C45.454 33.482 45.5953 33.586 45.7073 33.722C45.822 33.8553 45.9087 34.0166 45.9673 34.206C46.026 34.3953 46.0553 34.6046 46.0553 34.834V37.414H45.3393V34.834C45.3393 34.5273 45.2687 34.29 45.1273 34.122C44.9887 33.9513 44.7767 33.866 44.4913 33.866C44.2807 33.866 44.0833 33.9166 43.8993 34.018C43.718 34.1193 43.55 34.2566 43.3953 34.43V37.414H42.6793V31.522H43.3953V33.902Z" fill="#EEEEEE" fill-opacity="0.5"/>
<path d="M47.8923 33.362V37.414H47.1803V33.362H47.8923ZM48.0443 32.09C48.0443 32.1593 48.0296 32.2246 48.0003 32.286C47.9736 32.3446 47.9363 32.398 47.8883 32.446C47.8429 32.4913 47.7883 32.5273 47.7243 32.554C47.6629 32.5806 47.5976 32.594 47.5283 32.594C47.4589 32.594 47.3936 32.5806 47.3323 32.554C47.2736 32.5273 47.2216 32.4913 47.1763 32.446C47.1309 32.398 47.0949 32.3446 47.0683 32.286C47.0416 32.2246 47.0283 32.1593 47.0283 32.09C47.0283 32.0206 47.0416 31.9553 47.0683 31.894C47.0949 31.83 47.1309 31.7753 47.1763 31.73C47.2216 31.682 47.2736 31.6446 47.3323 31.618C47.3936 31.5913 47.4589 31.578 47.5283 31.578C47.5976 31.578 47.6629 31.5913 47.7243 31.618C47.7883 31.6446 47.8429 31.682 47.8883 31.73C47.9363 31.7753 47.9736 31.83 48.0003 31.894C48.0296 31.9553 48.0443 32.0206 48.0443 32.09Z" fill="#EEEEEE" fill-opacity="0.5"/>
<path d="M52.6301 33.958V36.39C52.6301 36.5606 52.6715 36.6873 52.7541 36.77C52.8368 36.8526 52.9421 36.894 53.0701 36.894C53.1475 36.894 53.2128 36.8846 53.2661 36.866C53.3221 36.8446 53.3701 36.822 53.4101 36.798C53.4501 36.774 53.4835 36.7526 53.5101 36.734C53.5368 36.7126 53.5608 36.702 53.5821 36.702C53.6061 36.702 53.6248 36.7073 53.6381 36.718C53.6541 36.7286 53.6701 36.746 53.6861 36.77L53.8941 37.11C53.7715 37.2246 53.6235 37.3153 53.4501 37.382C53.2768 37.446 53.0968 37.478 52.9101 37.478C52.5928 37.478 52.3475 37.3886 52.1741 37.21C52.0035 37.0313 51.9181 36.774 51.9181 36.438V33.958H50.0421V37.414H49.3261V33.97L48.8781 33.918C48.8221 33.9046 48.7755 33.8846 48.7381 33.858C48.7035 33.8286 48.6861 33.7873 48.6861 33.734V33.442H49.3261V33.05C49.3261 32.818 49.3581 32.6126 49.4221 32.434C49.4888 32.2526 49.5821 32.1006 49.7021 31.978C49.8248 31.8526 49.9715 31.758 50.1421 31.694C50.3128 31.63 50.5048 31.598 50.7181 31.598C50.8995 31.598 51.0661 31.6246 51.2181 31.678L51.2021 32.034C51.1968 32.098 51.1608 32.1326 51.0941 32.138C51.0301 32.1433 50.9435 32.146 50.8341 32.146C50.7115 32.146 50.5995 32.162 50.4981 32.194C50.3995 32.226 50.3141 32.278 50.2421 32.35C50.1701 32.422 50.1141 32.5166 50.0741 32.634C50.0368 32.7513 50.0181 32.8966 50.0181 33.07V33.442H51.9421L52.1021 32.182C52.1128 32.142 52.1315 32.11 52.1581 32.086C52.1875 32.0593 52.2248 32.046 52.2701 32.046H52.6301V33.442H53.7981V33.958H52.6301Z" fill="#EEEEEE" fill-opacity="0.5"/>
<path d="M72.3557 34.4701C72.3557 34.8994 72.2877 35.2901 72.1517 35.6421C72.0157 35.9941 71.8237 36.2954 71.5757 36.5461C71.3277 36.7967 71.029 36.9914 70.6797 37.1301C70.333 37.2661 69.949 37.3341 69.5277 37.3341H67.3877V31.6021H69.5277C69.949 31.6021 70.333 31.6714 70.6797 31.8101C71.029 31.9461 71.3277 32.1407 71.5757 32.3941C71.8237 32.6447 72.0157 32.9461 72.1517 33.2981C72.2877 33.6501 72.3557 34.0407 72.3557 34.4701ZM71.5597 34.4701C71.5597 34.1181 71.5117 33.8034 71.4157 33.5261C71.3197 33.2487 71.1837 33.0141 71.0077 32.8221C70.8317 32.6301 70.6183 32.4834 70.3677 32.3821C70.117 32.2807 69.837 32.2301 69.5277 32.2301H68.1637V36.7061H69.5277C69.837 36.7061 70.117 36.6554 70.3677 36.5541C70.6183 36.4527 70.8317 36.3074 71.0077 36.1181C71.1837 35.9261 71.3197 35.6914 71.4157 35.4141C71.5117 35.1367 71.5597 34.8221 71.5597 34.4701Z" fill="#EEEEEE"/>
<path d="M73.8957 34.0941C74.0237 33.8167 74.181 33.6007 74.3677 33.4461C74.5543 33.2887 74.7823 33.2101 75.0517 33.2101C75.137 33.2101 75.2183 33.2194 75.2957 33.2381C75.3757 33.2567 75.4463 33.2861 75.5077 33.3261L75.4557 33.8581C75.4397 33.9247 75.3997 33.9581 75.3357 33.9581C75.2983 33.9581 75.2437 33.9501 75.1717 33.9341C75.0997 33.9181 75.0183 33.9101 74.9277 33.9101C74.7997 33.9101 74.685 33.9287 74.5837 33.9661C74.485 34.0034 74.3957 34.0594 74.3157 34.1341C74.2383 34.2061 74.1677 34.2967 74.1037 34.4061C74.0423 34.5127 73.9863 34.6354 73.9357 34.7741V37.3341H73.2197V33.2821H73.6277C73.705 33.2821 73.7583 33.2967 73.7877 33.3261C73.817 33.3554 73.837 33.4061 73.8477 33.4781L73.8957 34.0941Z" fill="#EEEEEE"/>
<path d="M78.2672 35.5101C77.9392 35.5207 77.6592 35.5474 77.4272 35.5901C77.1979 35.6301 77.0099 35.6834 76.8632 35.7501C76.7192 35.8167 76.6139 35.8954 76.5472 35.9861C76.4832 36.0767 76.4512 36.1781 76.4512 36.2901C76.4512 36.3967 76.4686 36.4887 76.5032 36.5661C76.5379 36.6434 76.5846 36.7074 76.6432 36.7581C76.7046 36.8061 76.7752 36.8421 76.8552 36.8661C76.9379 36.8874 77.0259 36.8981 77.1192 36.8981C77.2446 36.8981 77.3592 36.8861 77.4632 36.8621C77.5672 36.8354 77.6646 36.7981 77.7552 36.7501C77.8486 36.7021 77.9366 36.6447 78.0192 36.5781C78.1046 36.5114 78.1872 36.4354 78.2672 36.3501V35.5101ZM75.9672 33.8541C76.1912 33.6381 76.4326 33.4767 76.6912 33.3701C76.9499 33.2634 77.2366 33.2101 77.5512 33.2101C77.7779 33.2101 77.9792 33.2474 78.1552 33.3221C78.3312 33.3967 78.4792 33.5007 78.5992 33.6341C78.7192 33.7674 78.8099 33.9287 78.8712 34.1181C78.9326 34.3074 78.9632 34.5154 78.9632 34.7421V37.3341H78.6472C78.5779 37.3341 78.5246 37.3234 78.4872 37.3021C78.4499 37.2781 78.4206 37.2327 78.3992 37.1661L78.3192 36.7821C78.2126 36.8807 78.1086 36.9687 78.0072 37.0461C77.9059 37.1207 77.7992 37.1847 77.6872 37.2381C77.5752 37.2887 77.4552 37.3274 77.3272 37.3541C77.2019 37.3834 77.0619 37.3981 76.9072 37.3981C76.7499 37.3981 76.6019 37.3767 76.4632 37.3341C76.3246 37.2887 76.2032 37.2221 76.0992 37.1341C75.9979 37.0461 75.9166 36.9354 75.8552 36.8021C75.7966 36.6661 75.7672 36.5061 75.7672 36.3221C75.7672 36.1621 75.8112 36.0087 75.8992 35.8621C75.9872 35.7127 76.1299 35.5807 76.3272 35.4661C76.5246 35.3514 76.7819 35.2581 77.0992 35.1861C77.4166 35.1114 77.8059 35.0687 78.2672 35.0581V34.7421C78.2672 34.4274 78.1992 34.1901 78.0632 34.0301C77.9272 33.8674 77.7286 33.7861 77.4672 33.7861C77.2912 33.7861 77.1432 33.8087 77.0232 33.8541C76.9059 33.8967 76.8032 33.9461 76.7152 34.0021C76.6299 34.0554 76.5552 34.1047 76.4912 34.1501C76.4299 34.1927 76.3686 34.2141 76.3072 34.2141C76.2592 34.2141 76.2179 34.2021 76.1832 34.1781C76.1486 34.1514 76.1192 34.1194 76.0952 34.0821L75.9672 33.8541Z" fill="#EEEEEE"/>
<path d="M85.6124 33.2821L84.3004 37.3341H83.7364C83.667 37.3341 83.619 37.2887 83.5924 37.1981L82.6964 34.4501C82.675 34.3887 82.6577 34.3274 82.6444 34.2661C82.631 34.2021 82.6177 34.1394 82.6044 34.0781C82.591 34.1394 82.5777 34.2021 82.5644 34.2661C82.551 34.3274 82.5337 34.3901 82.5124 34.4541L81.6004 37.1981C81.5764 37.2887 81.523 37.3341 81.4404 37.3341H80.9044L79.5924 33.2821H80.1524C80.2084 33.2821 80.255 33.2967 80.2924 33.3261C80.3324 33.3554 80.359 33.3901 80.3724 33.4301L81.1484 36.0381C81.1937 36.2301 81.2297 36.4114 81.2564 36.5821C81.2804 36.4941 81.3044 36.4047 81.3284 36.3141C81.355 36.2234 81.383 36.1314 81.4124 36.0381L82.2684 33.4141C82.2817 33.3741 82.3044 33.3407 82.3364 33.3141C82.371 33.2874 82.4124 33.2741 82.4604 33.2741H82.7724C82.8257 33.2741 82.8697 33.2874 82.9044 33.3141C82.939 33.3407 82.963 33.3741 82.9764 33.4141L83.8124 36.0381C83.8417 36.1314 83.8684 36.2234 83.8924 36.3141C83.9164 36.4047 83.939 36.4941 83.9604 36.5821C83.9737 36.4941 83.9897 36.4061 84.0084 36.3181C84.0297 36.2274 84.0524 36.1341 84.0764 36.0381L84.8684 33.4301C84.8817 33.3874 84.907 33.3527 84.9444 33.3261C84.9817 33.2967 85.0257 33.2821 85.0764 33.2821H85.6124Z" fill="#EEEEEE"/>
<path d="M72.3557 20.4701C72.3557 20.8994 72.2877 21.2901 72.1517 21.6421C72.0157 21.9941 71.8237 22.2954 71.5757 22.5461C71.3277 22.7967 71.029 22.9914 70.6797 23.1301C70.333 23.2661 69.949 23.3341 69.5277 23.3341H67.3877V17.6021H69.5277C69.949 17.6021 70.333 17.6714 70.6797 17.8101C71.029 17.9461 71.3277 18.1407 71.5757 18.3941C71.8237 18.6447 72.0157 18.9461 72.1517 19.2981C72.2877 19.6501 72.3557 20.0407 72.3557 20.4701ZM71.5597 20.4701C71.5597 20.1181 71.5117 19.8034 71.4157 19.5261C71.3197 19.2487 71.1837 19.0141 71.0077 18.8221C70.8317 18.6301 70.6184 18.4834 70.3677 18.3821C70.117 18.2807 69.837 18.2301 69.5277 18.2301H68.1637V22.7061H69.5277C69.837 22.7061 70.117 22.6554 70.3677 22.5541C70.6184 22.4527 70.8317 22.3074 71.0077 22.1181C71.1837 21.9261 71.3197 21.6914 71.4157 21.4141C71.5117 21.1367 71.5597 20.8221 71.5597 20.4701Z" fill="#EEEEEE" fill-opacity="0.5"/>
<path d="M73.8957 20.0941C74.0237 19.8167 74.181 19.6007 74.3677 19.4461C74.5544 19.2887 74.7824 19.2101 75.0517 19.2101C75.137 19.2101 75.2184 19.2194 75.2957 19.2381C75.3757 19.2567 75.4464 19.2861 75.5077 19.3261L75.4557 19.8581C75.4397 19.9247 75.3997 19.9581 75.3357 19.9581C75.2984 19.9581 75.2437 19.9501 75.1717 19.9341C75.0997 19.9181 75.0184 19.9101 74.9277 19.9101C74.7997 19.9101 74.685 19.9287 74.5837 19.9661C74.485 20.0034 74.3957 20.0594 74.3157 20.1341C74.2384 20.2061 74.1677 20.2967 74.1037 20.4061C74.0424 20.5127 73.9864 20.6354 73.9357 20.7741V23.3341H73.2197V19.2821H73.6277C73.705 19.2821 73.7584 19.2967 73.7877 19.3261C73.817 19.3554 73.837 19.4061 73.8477 19.4781L73.8957 20.0941Z" fill="#EEEEEE" fill-opacity="0.5"/>
<path d="M78.2673 21.5101C77.9393 21.5207 77.6593 21.5474 77.4273 21.5901C77.1979 21.6301 77.0099 21.6834 76.8633 21.7501C76.7193 21.8167 76.6139 21.8954 76.5473 21.9861C76.4833 22.0767 76.4513 22.1781 76.4513 22.2901C76.4513 22.3967 76.4686 22.4887 76.5033 22.5661C76.5379 22.6434 76.5846 22.7074 76.6433 22.7581C76.7046 22.8061 76.7753 22.8421 76.8553 22.8661C76.9379 22.8874 77.0259 22.8981 77.1193 22.8981C77.2446 22.8981 77.3593 22.8861 77.4633 22.8621C77.5673 22.8354 77.6646 22.7981 77.7553 22.7501C77.8486 22.7021 77.9366 22.6447 78.0193 22.5781C78.1046 22.5114 78.1873 22.4354 78.2673 22.3501V21.5101ZM75.9673 19.8541C76.1913 19.6381 76.4326 19.4767 76.6913 19.3701C76.9499 19.2634 77.2366 19.2101 77.5513 19.2101C77.7779 19.2101 77.9793 19.2474 78.1553 19.3221C78.3313 19.3967 78.4793 19.5007 78.5993 19.6341C78.7193 19.7674 78.8099 19.9287 78.8713 20.1181C78.9326 20.3074 78.9633 20.5154 78.9633 20.7421V23.3341H78.6473C78.5779 23.3341 78.5246 23.3234 78.4873 23.3021C78.4499 23.2781 78.4206 23.2327 78.3993 23.1661L78.3193 22.7821C78.2126 22.8807 78.1086 22.9687 78.0073 23.0461C77.9059 23.1207 77.7993 23.1847 77.6873 23.2381C77.5753 23.2887 77.4553 23.3274 77.3273 23.3541C77.2019 23.3834 77.0619 23.3981 76.9073 23.3981C76.7499 23.3981 76.6019 23.3767 76.4633 23.3341C76.3246 23.2887 76.2033 23.2221 76.0993 23.1341C75.9979 23.0461 75.9166 22.9354 75.8553 22.8021C75.7966 22.6661 75.7673 22.5061 75.7673 22.3221C75.7673 22.1621 75.8113 22.0087 75.8993 21.8621C75.9873 21.7127 76.1299 21.5807 76.3273 21.4661C76.5246 21.3514 76.7819 21.2581 77.0993 21.1861C77.4166 21.1114 77.8059 21.0687 78.2673 21.0581V20.7421C78.2673 20.4274 78.1993 20.1901 78.0633 20.0301C77.9273 19.8674 77.7286 19.7861 77.4673 19.7861C77.2913 19.7861 77.1433 19.8087 77.0233 19.8541C76.9059 19.8967 76.8033 19.9461 76.7153 20.0021C76.6299 20.0554 76.5553 20.1047 76.4913 20.1501C76.4299 20.1927 76.3686 20.2141 76.3073 20.2141C76.2593 20.2141 76.2179 20.2021 76.1833 20.1781C76.1486 20.1514 76.1193 20.1194 76.0953 20.0821L75.9673 19.8541Z" fill="#EEEEEE" fill-opacity="0.5"/>
<path d="M85.6124 19.2821L84.3004 23.3341H83.7364C83.6671 23.3341 83.619 23.2887 83.5924 23.1981L82.6964 20.4501C82.675 20.3887 82.6577 20.3274 82.6444 20.2661C82.631 20.2021 82.6177 20.1394 82.6044 20.0781C82.591 20.1394 82.5777 20.2021 82.5644 20.2661C82.551 20.3274 82.5337 20.3901 82.5124 20.4541L81.6004 23.1981C81.5764 23.2887 81.523 23.3341 81.4404 23.3341H80.9044L79.5924 19.2821H80.1524C80.2084 19.2821 80.255 19.2967 80.2924 19.3261C80.3324 19.3554 80.359 19.3901 80.3724 19.4301L81.1484 22.0381C81.1937 22.2301 81.2297 22.4114 81.2564 22.5821C81.2804 22.4941 81.3044 22.4047 81.3284 22.3141C81.355 22.2234 81.383 22.1314 81.4124 22.0381L82.2684 19.4141C82.2817 19.3741 82.3044 19.3407 82.3364 19.3141C82.371 19.2874 82.4124 19.2741 82.4604 19.2741H82.7724C82.8257 19.2741 82.8697 19.2874 82.9044 19.3141C82.939 19.3407 82.963 19.3741 82.9764 19.4141L83.8124 22.0381C83.8417 22.1314 83.8684 22.2234 83.8924 22.3141C83.9164 22.4047 83.939 22.4941 83.9604 22.5821C83.9737 22.4941 83.9897 22.4061 84.0084 22.3181C84.0297 22.2274 84.0524 22.1341 84.0764 22.0381L84.8684 19.4301C84.8817 19.3874 84.9071 19.3527 84.9444 19.3261C84.9817 19.2967 85.0257 19.2821 85.0764 19.2821H85.6124Z" fill="#EEEEEE" fill-opacity="0.5"/>
<path d="M72.3557 6.47005C72.3557 6.89938 72.2877 7.29005 72.1517 7.64205C72.0157 7.99405 71.8237 8.29538 71.5757 8.54605C71.3277 8.79672 71.029 8.99138 70.6797 9.13005C70.333 9.26605 69.949 9.33405 69.5277 9.33405H67.3877V3.60205H69.5277C69.949 3.60205 70.333 3.67138 70.6797 3.81005C71.029 3.94605 71.3277 4.14072 71.5757 4.39405C71.8237 4.64472 72.0157 4.94605 72.1517 5.29805C72.2877 5.65005 72.3557 6.04072 72.3557 6.47005ZM71.5597 6.47005C71.5597 6.11805 71.5117 5.80338 71.4157 5.52605C71.3197 5.24872 71.1837 5.01405 71.0077 4.82205C70.8317 4.63005 70.6184 4.48338 70.3677 4.38205C70.117 4.28072 69.837 4.23005 69.5277 4.23005H68.1637V8.70605H69.5277C69.837 8.70605 70.117 8.65538 70.3677 8.55405C70.6184 8.45272 70.8317 8.30738 71.0077 8.11805C71.1837 7.92605 71.3197 7.69138 71.4157 7.41405C71.5117 7.13672 71.5597 6.82205 71.5597 6.47005Z" fill="#EEEEEE" fill-opacity="0.5"/>
<path d="M73.8957 6.09405C74.0237 5.81672 74.181 5.60072 74.3677 5.44605C74.5544 5.28872 74.7824 5.21005 75.0517 5.21005C75.137 5.21005 75.2184 5.21938 75.2957 5.23805C75.3757 5.25672 75.4464 5.28605 75.5077 5.32605L75.4557 5.85805C75.4397 5.92472 75.3997 5.95805 75.3357 5.95805C75.2984 5.95805 75.2437 5.95005 75.1717 5.93405C75.0997 5.91805 75.0184 5.91005 74.9277 5.91005C74.7997 5.91005 74.685 5.92872 74.5837 5.96605C74.485 6.00338 74.3957 6.05938 74.3157 6.13405C74.2384 6.20605 74.1677 6.29672 74.1037 6.40605C74.0424 6.51272 73.9864 6.63538 73.9357 6.77405V9.33405H73.2197V5.28205H73.6277C73.705 5.28205 73.7584 5.29672 73.7877 5.32605C73.817 5.35538 73.837 5.40605 73.8477 5.47805L73.8957 6.09405Z" fill="#EEEEEE" fill-opacity="0.5"/>
<path d="M78.2673 7.51005C77.9393 7.52072 77.6593 7.54738 77.4273 7.59005C77.1979 7.63005 77.0099 7.68338 76.8633 7.75005C76.7193 7.81672 76.6139 7.89538 76.5473 7.98605C76.4833 8.07672 76.4513 8.17805 76.4513 8.29005C76.4513 8.39672 76.4686 8.48872 76.5033 8.56605C76.5379 8.64338 76.5846 8.70738 76.6433 8.75805C76.7046 8.80605 76.7753 8.84205 76.8553 8.86605C76.9379 8.88738 77.0259 8.89805 77.1193 8.89805C77.2446 8.89805 77.3593 8.88605 77.4633 8.86205C77.5673 8.83538 77.6646 8.79805 77.7553 8.75005C77.8486 8.70205 77.9366 8.64472 78.0193 8.57805C78.1046 8.51138 78.1873 8.43538 78.2673 8.35005V7.51005ZM75.9673 5.85405C76.1913 5.63805 76.4326 5.47672 76.6913 5.37005C76.9499 5.26338 77.2366 5.21005 77.5513 5.21005C77.7779 5.21005 77.9793 5.24738 78.1553 5.32205C78.3313 5.39672 78.4793 5.50072 78.5993 5.63405C78.7193 5.76738 78.8099 5.92872 78.8713 6.11805C78.9326 6.30738 78.9633 6.51538 78.9633 6.74205V9.33405H78.6473C78.5779 9.33405 78.5246 9.32338 78.4873 9.30205C78.4499 9.27805 78.4206 9.23272 78.3993 9.16605L78.3193 8.78205C78.2126 8.88072 78.1086 8.96872 78.0073 9.04605C77.9059 9.12072 77.7993 9.18472 77.6873 9.23805C77.5753 9.28872 77.4553 9.32738 77.3273 9.35405C77.2019 9.38338 77.0619 9.39805 76.9073 9.39805C76.7499 9.39805 76.6019 9.37672 76.4633 9.33405C76.3246 9.28872 76.2033 9.22205 76.0993 9.13405C75.9979 9.04605 75.9166 8.93538 75.8553 8.80205C75.7966 8.66605 75.7673 8.50605 75.7673 8.32205C75.7673 8.16205 75.8113 8.00872 75.8993 7.86205C75.9873 7.71272 76.1299 7.58072 76.3273 7.46605C76.5246 7.35138 76.7819 7.25805 77.0993 7.18605C77.4166 7.11138 77.8059 7.06872 78.2673 7.05805V6.74205C78.2673 6.42738 78.1993 6.19005 78.0633 6.03005C77.9273 5.86738 77.7286 5.78605 77.4673 5.78605C77.2913 5.78605 77.1433 5.80872 77.0233 5.85405C76.9059 5.89672 76.8033 5.94605 76.7153 6.00205C76.6299 6.05538 76.5553 6.10472 76.4913 6.15005C76.4299 6.19272 76.3686 6.21405 76.3073 6.21405C76.2593 6.21405 76.2179 6.20205 76.1833 6.17805C76.1486 6.15138 76.1193 6.11938 76.0953 6.08205L75.9673 5.85405Z" fill="#EEEEEE" fill-opacity="0.5"/>
<path d="M85.6124 5.28205L84.3004 9.33405H83.7364C83.6671 9.33405 83.619 9.28872 83.5924 9.19805L82.6964 6.45005C82.675 6.38872 82.6577 6.32738 82.6444 6.26605C82.631 6.20205 82.6177 6.13938 82.6044 6.07805C82.591 6.13938 82.5777 6.20205 82.5644 6.26605C82.551 6.32738 82.5337 6.39005 82.5124 6.45405L81.6004 9.19805C81.5764 9.28872 81.523 9.33405 81.4404 9.33405H80.9044L79.5924 5.28205H80.1524C80.2084 5.28205 80.255 5.29672 80.2924 5.32605C80.3324 5.35538 80.359 5.39005 80.3724 5.43005L81.1484 8.03805C81.1937 8.23005 81.2297 8.41138 81.2564 8.58205C81.2804 8.49405 81.3044 8.40472 81.3284 8.31405C81.355 8.22338 81.383 8.13138 81.4124 8.03805L82.2684 5.41405C82.2817 5.37405 82.3044 5.34072 82.3364 5.31405C82.371 5.28738 82.4124 5.27405 82.4604 5.27405H82.7724C82.8257 5.27405 82.8697 5.28738 82.9044 5.31405C82.939 5.34072 82.963 5.37405 82.9764 5.41405L83.8124 8.03805C83.8417 8.13138 83.8684 8.22338 83.8924 8.31405C83.9164 8.40472 83.939 8.49405 83.9604 8.58205C83.9737 8.49405 83.9897 8.40605 84.0084 8.31805C84.0297 8.22738 84.0524 8.13405 84.0764 8.03805L84.8684 5.43005C84.8817 5.38738 84.9071 5.35272 84.9444 5.32605C84.9817 5.29672 85.0257 5.28205 85.0764 5.28205H85.6124Z" fill="#EEEEEE" fill-opacity="0.5"/>
</g>
<defs>
<clipPath id="clip0_204_7301">
<rect width="92" height="42" fill="white"/>
</clipPath>
</defs>
</svg>
