<svg width="24" height="24" viewBox="0 0 24 24" fill="none" xmlns="http://www.w3.org/2000/svg">
<g clip-path="url(#clip0_204_7237)">
<rect x="13.25" y="0.75" width="10.5" height="10.5" stroke="white" stroke-opacity="0.25" stroke-width="0.5"/>
<rect x="0.25" y="12.75" width="10.5" height="10.5" stroke="white" stroke-opacity="0.25" stroke-width="0.5"/>
<rect x="0.25" y="0.75" width="10.5" height="10.5" fill="black" fill-opacity="0.1" stroke="#2BD5CA" stroke-width="0.5"/>
<rect x="13.25" y="12.75" width="10.5" height="10.5" fill="black" fill-opacity="0.1" stroke="#2BD5CA" stroke-width="0.5"/>
<path d="M19.572 6.73797L18.672 4.40597C18.6453 4.33664 18.6173 4.25664 18.588 4.16597C18.5587 4.07264 18.5307 3.97397 18.504 3.86997C18.448 4.08597 18.3907 4.26597 18.332 4.40997L17.432 6.73797H19.572ZM21.188 8.86597H20.588C20.5187 8.86597 20.4627 8.84864 20.42 8.81397C20.3773 8.77931 20.3453 8.73531 20.324 8.68197L19.788 7.29797H17.216L16.68 8.68197C16.664 8.72997 16.6333 8.77264 16.588 8.80997C16.5427 8.84731 16.4867 8.86597 16.42 8.86597H15.82L18.112 3.13397H18.896L21.188 8.86597Z" fill="#EEEEEE" fill-opacity="0.5"/>
<path d="M7.98399 6.00203C7.98399 6.43137 7.91599 6.82203 7.77999 7.17403C7.64399 7.52603 7.45199 7.82737 7.20399 8.07803C6.95599 8.3287 6.65732 8.52337 6.30799 8.66203C5.96132 8.79803 5.57732 8.86603 5.15599 8.86603H3.01599V3.13403H5.15599C5.57732 3.13403 5.96132 3.20337 6.30799 3.34203C6.65732 3.47803 6.95599 3.6727 7.20399 3.92603C7.45199 4.1767 7.64399 4.47803 7.77999 4.83003C7.91599 5.18203 7.98399 5.5727 7.98399 6.00203ZM7.18799 6.00203C7.18799 5.65003 7.13999 5.33537 7.04399 5.05803C6.94799 4.7807 6.81199 4.54603 6.63599 4.35403C6.45999 4.16203 6.24666 4.01537 5.99599 3.91403C5.74532 3.8127 5.46532 3.76203 5.15599 3.76203H3.79199V8.23803H5.15599C5.46532 8.23803 5.74532 8.18737 5.99599 8.08603C6.24666 7.9847 6.45999 7.83937 6.63599 7.65003C6.81199 7.45803 6.94799 7.22337 7.04399 6.94603C7.13999 6.6687 7.18799 6.35403 7.18799 6.00203Z" fill="#EEEEEE"/>
<path d="M19.568 18.738L18.668 16.406C18.6413 16.3367 18.6133 16.2567 18.584 16.166C18.5546 16.0727 18.5266 15.974 18.5 15.87C18.444 16.086 18.3866 16.266 18.328 16.41L17.428 18.738H19.568ZM21.184 20.866H20.584C20.5146 20.866 20.4586 20.8487 20.416 20.814C20.3733 20.7794 20.3413 20.7354 20.32 20.682L19.784 19.298H17.212L16.676 20.682C16.66 20.73 16.6293 20.7727 16.584 20.81C16.5386 20.8474 16.4826 20.866 16.416 20.866H15.816L18.108 15.134H18.892L21.184 20.866Z" fill="#EEEEEE"/>
<path d="M7.98802 18.002C7.98802 18.4313 7.92002 18.822 7.78402 19.174C7.64802 19.526 7.45602 19.8273 7.20802 20.078C6.96002 20.3286 6.66135 20.5233 6.31202 20.662C5.96535 20.798 5.58135 20.866 5.16002 20.866H3.02002V15.134H5.16002C5.58135 15.134 5.96535 15.2033 6.31202 15.342C6.66135 15.478 6.96002 15.6726 7.20802 15.926C7.45602 16.1766 7.64802 16.478 7.78402 16.83C7.92002 17.182 7.98802 17.5726 7.98802 18.002ZM7.19202 18.002C7.19202 17.65 7.14402 17.3353 7.04802 17.058C6.95202 16.7806 6.81602 16.546 6.64002 16.354C6.46402 16.162 6.25069 16.0153 6.00002 15.914C5.74935 15.8126 5.46935 15.762 5.16002 15.762H3.79602V20.238H5.16002C5.46935 20.238 5.74935 20.1873 6.00002 20.086C6.25069 19.9846 6.46402 19.8393 6.64002 19.65C6.81602 19.458 6.95202 19.2233 7.04802 18.946C7.14402 18.6686 7.19202 18.354 7.19202 18.002Z" fill="#EEEEEE" fill-opacity="0.5"/>
</g>
<defs>
<clipPath id="clip0_204_7237">
<rect width="24" height="24" fill="white"/>
</clipPath>
</defs>
</svg>
