<svg width="13" height="52" viewBox="0 0 13 52" fill="none" xmlns="http://www.w3.org/2000/svg">
<path fill-rule="evenodd" clip-rule="evenodd" d="M6.49998 51.4021L6.48968 51.409L6.0699 51.1151C3.5066 49.3208 1.96416 47.5765 1.18707 46.005C0.408696 44.431 0.38118 42.9787 0.964633 41.8951C1.54953 40.8089 2.6841 40.2292 3.89145 40.3315C4.81899 40.4101 5.73896 40.8808 6.49998 41.7346C7.26101 40.8808 8.18097 40.4101 9.10852 40.3315C10.3159 40.2292 11.4504 40.8089 12.0353 41.8951C12.6188 42.9787 12.5913 44.431 11.8129 46.005C11.0358 47.5765 9.49337 49.3208 6.93007 51.1151L6.51029 51.409L6.49998 51.4021Z" fill="#885FFF"/>
<path fill-rule="evenodd" clip-rule="evenodd" d="M6.48971 12.4082L6.50001 12.4014L6.51032 12.4082L6.9301 12.1144C9.4934 10.3201 11.0358 8.57575 11.8129 7.0043C12.5913 5.43026 12.6188 3.97796 12.0354 2.89441C11.4505 1.80817 10.3159 1.22848 9.10855 1.3308C8.181 1.40942 7.26104 1.88006 6.50001 2.73386C5.73899 1.88006 4.81902 1.40942 3.89148 1.3308C2.68413 1.22848 1.54956 1.80817 0.964663 2.89441C0.381211 3.97796 0.408726 5.43026 1.1871 7.0043C1.96419 8.57575 3.50663 10.3201 6.06993 12.1144L6.48971 12.4082ZM6.50001 4.00001C6.35636 3.76059 6.20353 3.54524 6.04384 3.35298C2.8686 -0.469839 -3.02113 4.83517 6.50001 11.5C16.0212 4.83517 10.1314 -0.469839 6.95619 3.35298C6.79649 3.54524 6.64367 3.76059 6.50001 4.00001Z" fill="#2BD5CA"/>
<path fill-rule="evenodd" clip-rule="evenodd" d="M6.48968 25.409L6.49998 25.4022L6.51029 25.409L6.93007 25.1152C9.49337 23.3209 11.0358 21.5765 11.8129 20.0051C12.5913 18.4311 12.6188 16.9788 12.0353 15.8952C11.4504 14.809 10.3159 14.2293 9.10852 14.3316C8.18097 14.4102 7.26101 14.8809 6.49998 15.7347C5.73896 14.8809 4.81899 14.4102 3.89145 14.3316C2.6841 14.2293 1.54953 14.809 0.964633 15.8952C0.38118 16.9788 0.408696 18.4311 1.18707 20.0051C1.96416 21.5765 3.5066 23.3209 6.0699 25.1152L6.48968 25.409ZM6.49998 17.0008C6.35633 16.7614 6.2035 16.546 6.04381 16.3538C2.86857 12.531 -3.02116 17.836 6.49998 24.5008C16.0211 17.836 10.1314 12.531 6.95616 16.3538C6.79646 16.546 6.64364 16.7614 6.49998 17.0008Z" fill="#2BD5CA"/>
<path fill-rule="evenodd" clip-rule="evenodd" d="M6.48968 25.409L6.49998 25.4021L6.51029 25.409L6.93007 25.1151C9.49337 23.3208 11.0358 21.5765 11.8129 20.005C12.5913 18.431 12.6188 16.9787 12.0353 15.8951C11.4504 14.8089 10.3159 14.2292 9.10852 14.3315C8.18097 14.4101 7.26101 14.8808 6.49998 15.7346C5.73896 14.8808 4.81899 14.4101 3.89145 14.3315C2.6841 14.2292 1.54953 14.8089 0.964633 15.8951C0.38118 16.9787 0.408696 18.431 1.18707 20.005C1.96416 21.5765 3.5066 23.3208 6.0699 25.1151L6.48968 25.409ZM6.49998 17.0007C6.35633 16.7613 6.2035 16.546 6.04381 16.3537C2.86857 12.5309 -3.02116 17.8359 6.49998 24.5007C16.0211 17.8359 10.1314 12.5309 6.95616 16.3537C6.79646 16.546 6.64364 16.7613 6.49998 17.0007Z" fill="white" fill-opacity="0.2"/>
<path fill-rule="evenodd" clip-rule="evenodd" d="M6.49998 38.4021L6.48968 38.409L6.0699 38.1151C3.5066 36.3208 1.96416 34.5765 1.18707 33.005C0.408696 31.431 0.38118 29.9787 0.964633 28.8951C1.54953 27.8089 2.6841 27.2292 3.89145 27.3315C4.81899 27.4101 5.73896 27.8808 6.49998 28.7346C7.26101 27.8808 8.18097 27.4101 9.10852 27.3315C10.3159 27.2292 11.4504 27.8089 12.0353 28.8951C12.6188 29.9787 12.5913 31.431 11.8129 33.005C11.0358 34.5765 9.49337 36.3208 6.93007 38.1151L6.51029 38.409L6.49998 38.4021Z" fill="#885FFF"/>
<path fill-rule="evenodd" clip-rule="evenodd" d="M6.49998 25.4022L6.48968 25.409L6.0699 25.1152C3.5066 23.3209 1.96416 21.5765 1.18707 20.0051C0.408696 18.4311 0.38118 16.9788 0.964633 15.8952C1.54953 14.809 2.6841 14.2293 3.89145 14.3316C4.81899 14.4102 5.73896 14.8809 6.49998 15.7347C7.26101 14.8809 8.18097 14.4102 9.10852 14.3316C10.3159 14.2293 11.4504 14.809 12.0353 15.8952C12.6188 16.9788 12.5913 18.4311 11.8129 20.0051C11.0358 21.5765 9.49337 23.3209 6.93007 25.1152L6.51029 25.409L6.49998 25.4022Z" fill="white" fill-opacity="0.2"/>
<path fill-rule="evenodd" clip-rule="evenodd" d="M6.49998 51.4022L6.48968 51.409L6.0699 51.1152C3.5066 49.3209 1.96416 47.5765 1.18707 46.0051C0.408696 44.4311 0.38118 42.9788 0.964633 41.8952C1.54953 40.809 2.6841 40.2293 3.89145 40.3316C4.81899 40.4102 5.73896 40.8809 6.49998 41.7347C7.26101 40.8809 8.18097 40.4102 9.10852 40.3316C10.3159 40.2293 11.4504 40.809 12.0353 41.8952C12.6188 42.9788 12.5913 44.4311 11.8129 46.0051C11.0358 47.5765 9.49337 49.3209 6.93007 51.1152L6.51029 51.409L6.49998 51.4022Z" fill="white" fill-opacity="0.2"/>
</svg>
