<svg width="49" height="28" viewBox="0 0 49 28" fill="none" xmlns="http://www.w3.org/2000/svg">
<g clip-path="url(#clip0_204_7275)">
<rect x="0.25" y="1" width="48.5" height="12" stroke="white" stroke-opacity="0.25" stroke-width="0.5"/>
<rect x="0.25" y="15" width="48.5" height="12" fill="black" fill-opacity="0.1" stroke="#B422D9" stroke-width="0.5"/>
<path d="M11.5162 3.68191V9.41391H10.7402V6.80591H7.64823V9.41391H6.87223V3.68191H7.64823V6.23791H10.7402V3.68191H11.5162Z" fill="#EEEEEE" fill-opacity="0.5"/>
<path d="M14.3966 5.29791C14.6926 5.29791 14.9593 5.34724 15.1966 5.44591C15.4339 5.54458 15.6366 5.68458 15.8046 5.86591C15.9726 6.04724 16.1006 6.26724 16.1886 6.52591C16.2793 6.78191 16.3246 7.06858 16.3246 7.38591C16.3246 7.70591 16.2793 7.99391 16.1886 8.24991C16.1006 8.50591 15.9726 8.72458 15.8046 8.90591C15.6366 9.08725 15.4339 9.22725 15.1966 9.32591C14.9593 9.42191 14.6926 9.46991 14.3966 9.46991C14.0979 9.46991 13.8286 9.42191 13.5886 9.32591C13.3513 9.22725 13.1486 9.08725 12.9806 8.90591C12.8126 8.72458 12.6833 8.50591 12.5926 8.24991C12.5046 7.99391 12.4606 7.70591 12.4606 7.38591C12.4606 7.06858 12.5046 6.78191 12.5926 6.52591C12.6833 6.26724 12.8126 6.04724 12.9806 5.86591C13.1486 5.68458 13.3513 5.54458 13.5886 5.44591C13.8286 5.34724 14.0979 5.29791 14.3966 5.29791ZM14.3966 8.91391C14.7966 8.91391 15.0953 8.78058 15.2926 8.51391C15.4899 8.24458 15.5886 7.86991 15.5886 7.38991C15.5886 6.90725 15.4899 6.53124 15.2926 6.26191C15.0953 5.99258 14.7966 5.85791 14.3966 5.85791C14.1939 5.85791 14.0166 5.89258 13.8646 5.96191C13.7153 6.03125 13.5899 6.13125 13.4886 6.26191C13.3899 6.39258 13.3153 6.55391 13.2646 6.74591C13.2166 6.93525 13.1926 7.14991 13.1926 7.38991C13.1926 7.86991 13.2913 8.24458 13.4886 8.51391C13.6886 8.78058 13.9913 8.91391 14.3966 8.91391Z" fill="#EEEEEE" fill-opacity="0.5"/>
<path d="M17.9037 6.17391C18.0317 5.89658 18.189 5.68058 18.3757 5.52591C18.5623 5.36858 18.7903 5.28991 19.0597 5.28991C19.145 5.28991 19.2263 5.29925 19.3037 5.31791C19.3837 5.33658 19.4543 5.36591 19.5157 5.40591L19.4637 5.93791C19.4477 6.00458 19.4077 6.03791 19.3437 6.03791C19.3063 6.03791 19.2517 6.02991 19.1797 6.01391C19.1077 5.99791 19.0263 5.98991 18.9357 5.98991C18.8077 5.98991 18.693 6.00858 18.5917 6.04591C18.493 6.08324 18.4037 6.13924 18.3237 6.21391C18.2463 6.28591 18.1757 6.37658 18.1117 6.48591C18.0503 6.59258 17.9943 6.71525 17.9437 6.85391V9.41391H17.2277V5.36191H17.6357C17.713 5.36191 17.7663 5.37658 17.7957 5.40591C17.825 5.43524 17.845 5.48591 17.8557 5.55791L17.9037 6.17391Z" fill="#EEEEEE" fill-opacity="0.5"/>
<path d="M20.8937 5.36191V9.41391H20.1817V5.36191H20.8937ZM21.0457 4.08991C21.0457 4.15924 21.0311 4.22458 21.0017 4.28591C20.9751 4.34458 20.9377 4.39791 20.8897 4.44591C20.8444 4.49124 20.7897 4.52725 20.7257 4.55391C20.6644 4.58058 20.5991 4.59391 20.5297 4.59391C20.4604 4.59391 20.3951 4.58058 20.3337 4.55391C20.2751 4.52725 20.2231 4.49124 20.1777 4.44591C20.1324 4.39791 20.0964 4.34458 20.0697 4.28591C20.0431 4.22458 20.0297 4.15924 20.0297 4.08991C20.0297 4.02058 20.0431 3.95524 20.0697 3.89391C20.0964 3.82991 20.1324 3.77524 20.1777 3.72991C20.2231 3.68191 20.2751 3.64458 20.3337 3.61791C20.3951 3.59124 20.4604 3.57791 20.5297 3.57791C20.5991 3.57791 20.6644 3.59124 20.7257 3.61791C20.7897 3.64458 20.8444 3.68191 20.8897 3.72991C20.9377 3.77524 20.9751 3.82991 21.0017 3.89391C21.0311 3.95524 21.0457 4.02058 21.0457 4.08991Z" fill="#EEEEEE" fill-opacity="0.5"/>
<path d="M24.8596 5.66591C24.8596 5.71658 24.8503 5.76591 24.8316 5.81391C24.8156 5.86191 24.7929 5.90325 24.7636 5.93791L22.5676 8.85791H24.7836V9.41391H21.7316V9.11791C21.7316 9.08325 21.7396 9.04325 21.7556 8.99791C21.7716 8.94991 21.7956 8.90458 21.8276 8.86191L24.0356 5.92191H21.8556V5.36191H24.8596V5.66591Z" fill="#EEEEEE" fill-opacity="0.5"/>
<path d="M27.3107 5.29791C27.6067 5.29791 27.8733 5.34724 28.1107 5.44591C28.348 5.54458 28.5507 5.68458 28.7187 5.86591C28.8867 6.04724 29.0147 6.26724 29.1027 6.52591C29.1933 6.78191 29.2387 7.06858 29.2387 7.38591C29.2387 7.70591 29.1933 7.99391 29.1027 8.24991C29.0147 8.50591 28.8867 8.72458 28.7187 8.90591C28.5507 9.08725 28.348 9.22725 28.1107 9.32591C27.8733 9.42191 27.6067 9.46991 27.3107 9.46991C27.012 9.46991 26.7427 9.42191 26.5027 9.32591C26.2653 9.22725 26.0627 9.08725 25.8947 8.90591C25.7267 8.72458 25.5973 8.50591 25.5067 8.24991C25.4187 7.99391 25.3747 7.70591 25.3747 7.38591C25.3747 7.06858 25.4187 6.78191 25.5067 6.52591C25.5973 6.26724 25.7267 6.04724 25.8947 5.86591C26.0627 5.68458 26.2653 5.54458 26.5027 5.44591C26.7427 5.34724 27.012 5.29791 27.3107 5.29791ZM27.3107 8.91391C27.7107 8.91391 28.0093 8.78058 28.2067 8.51391C28.404 8.24458 28.5027 7.86991 28.5027 7.38991C28.5027 6.90725 28.404 6.53124 28.2067 6.26191C28.0093 5.99258 27.7107 5.85791 27.3107 5.85791C27.108 5.85791 26.9307 5.89258 26.7787 5.96191C26.6293 6.03125 26.504 6.13125 26.4027 6.26191C26.304 6.39258 26.2293 6.55391 26.1787 6.74591C26.1307 6.93525 26.1067 7.14991 26.1067 7.38991C26.1067 7.86991 26.2053 8.24458 26.4027 8.51391C26.6027 8.78058 26.9053 8.91391 27.3107 8.91391Z" fill="#EEEEEE" fill-opacity="0.5"/>
<path d="M30.8137 5.94991C30.9017 5.85124 30.9951 5.76191 31.0937 5.68191C31.1924 5.60191 31.2964 5.53391 31.4057 5.47791C31.5177 5.41925 31.6351 5.37524 31.7577 5.34591C31.8831 5.31391 32.0177 5.29791 32.1617 5.29791C32.3831 5.29791 32.5777 5.33524 32.7457 5.40991C32.9164 5.48191 33.0577 5.58591 33.1697 5.72191C33.2844 5.85525 33.3711 6.01658 33.4297 6.20591C33.4884 6.39525 33.5177 6.60458 33.5177 6.83391V9.41391H32.8017V6.83391C32.8017 6.52724 32.7311 6.28991 32.5897 6.12191C32.4511 5.95125 32.2391 5.86591 31.9537 5.86591C31.7431 5.86591 31.5457 5.91658 31.3617 6.01791C31.1804 6.11924 31.0124 6.25658 30.8577 6.42991V9.41391H30.1417V5.36191H30.5697C30.6711 5.36191 30.7337 5.41125 30.7577 5.50991L30.8137 5.94991Z" fill="#EEEEEE" fill-opacity="0.5"/>
<path d="M35.792 9.47791C35.472 9.47791 35.2253 9.38858 35.052 9.20991C34.8813 9.03125 34.796 8.77391 34.796 8.43791V5.95791H34.308C34.2653 5.95791 34.2293 5.94591 34.2 5.92191C34.1706 5.89525 34.156 5.85525 34.156 5.80191V5.51791L34.82 5.43391L34.984 4.18191C34.992 4.14191 35.0093 4.10991 35.036 4.08591C35.0653 4.05925 35.1026 4.04591 35.148 4.04591H35.508V5.44191H36.68V5.95791H35.508V8.38991C35.508 8.56058 35.5493 8.68725 35.632 8.76991C35.7146 8.85258 35.8213 8.89391 35.952 8.89391C36.0266 8.89391 36.0906 8.88458 36.144 8.86591C36.2 8.84458 36.248 8.82191 36.288 8.79791C36.328 8.77391 36.3613 8.75258 36.388 8.73391C36.4173 8.71258 36.4426 8.70191 36.464 8.70191C36.5013 8.70191 36.5346 8.72458 36.564 8.76991L36.772 9.10991C36.6493 9.22458 36.5013 9.31525 36.328 9.38191C36.1546 9.44591 35.976 9.47791 35.792 9.47791Z" fill="#EEEEEE" fill-opacity="0.5"/>
<path d="M39.6112 7.58991C39.2832 7.60058 39.0032 7.62725 38.7712 7.66991C38.5418 7.70991 38.3538 7.76325 38.2072 7.82991C38.0632 7.89658 37.9578 7.97525 37.8912 8.06591C37.8272 8.15658 37.7952 8.25791 37.7952 8.36991C37.7952 8.47658 37.8125 8.56858 37.8472 8.64591C37.8818 8.72325 37.9285 8.78724 37.9872 8.83791C38.0485 8.88591 38.1192 8.92191 38.1992 8.94591C38.2818 8.96725 38.3698 8.97791 38.4632 8.97791C38.5885 8.97791 38.7032 8.96591 38.8072 8.94191C38.9112 8.91525 39.0085 8.87791 39.0992 8.82991C39.1925 8.78191 39.2805 8.72458 39.3632 8.65791C39.4485 8.59125 39.5312 8.51524 39.6112 8.42991V7.58991ZM37.3112 5.93391C37.5352 5.71791 37.7765 5.55658 38.0352 5.44991C38.2938 5.34325 38.5805 5.28991 38.8952 5.28991C39.1218 5.28991 39.3232 5.32725 39.4992 5.40191C39.6752 5.47658 39.8232 5.58058 39.9432 5.71391C40.0632 5.84724 40.1538 6.00858 40.2152 6.19791C40.2765 6.38725 40.3072 6.59525 40.3072 6.82191V9.41391H39.9912C39.9218 9.41391 39.8685 9.40325 39.8312 9.38191C39.7938 9.35791 39.7645 9.31258 39.7432 9.24591L39.6632 8.86191C39.5565 8.96058 39.4525 9.04858 39.3512 9.12591C39.2498 9.20058 39.1432 9.26458 39.0312 9.31791C38.9192 9.36858 38.7992 9.40725 38.6712 9.43391C38.5458 9.46325 38.4058 9.47791 38.2512 9.47791C38.0938 9.47791 37.9458 9.45658 37.8072 9.41391C37.6685 9.36858 37.5472 9.30191 37.4432 9.21391C37.3418 9.12591 37.2605 9.01525 37.1992 8.88191C37.1405 8.74591 37.1112 8.58591 37.1112 8.40191C37.1112 8.24191 37.1552 8.08858 37.2432 7.94191C37.3312 7.79258 37.4738 7.66058 37.6712 7.54591C37.8685 7.43125 38.1258 7.33791 38.4432 7.26591C38.7605 7.19125 39.1498 7.14858 39.6112 7.13791V6.82191C39.6112 6.50725 39.5432 6.26991 39.4072 6.10991C39.2712 5.94725 39.0725 5.86591 38.8112 5.86591C38.6352 5.86591 38.4872 5.88858 38.3672 5.93391C38.2498 5.97658 38.1472 6.02591 38.0592 6.08191C37.9738 6.13525 37.8992 6.18458 37.8352 6.22991C37.7738 6.27258 37.7125 6.29391 37.6512 6.29391C37.6032 6.29391 37.5618 6.28191 37.5272 6.25791C37.4925 6.23125 37.4632 6.19925 37.4392 6.16191L37.3112 5.93391Z" fill="#EEEEEE" fill-opacity="0.5"/>
<path d="M42.1277 3.52191V9.41391H41.4157V3.52191H42.1277Z" fill="#EEEEEE" fill-opacity="0.5"/>
<path d="M11.5163 17.682V23.414H10.7403V20.806H7.64825V23.414H6.87225V17.682H7.64825V20.238H10.7403V17.682H11.5163Z" fill="#EEEEEE"/>
<path d="M14.3966 19.298C14.6926 19.298 14.9593 19.3473 15.1966 19.446C15.434 19.5446 15.6366 19.6846 15.8046 19.866C15.9726 20.0473 16.1006 20.2673 16.1886 20.526C16.2793 20.782 16.3246 21.0686 16.3246 21.386C16.3246 21.706 16.2793 21.994 16.1886 22.25C16.1006 22.506 15.9726 22.7246 15.8046 22.906C15.6366 23.0873 15.434 23.2273 15.1966 23.326C14.9593 23.422 14.6926 23.47 14.3966 23.47C14.098 23.47 13.8286 23.422 13.5886 23.326C13.3513 23.2273 13.1486 23.0873 12.9806 22.906C12.8126 22.7246 12.6833 22.506 12.5926 22.25C12.5046 21.994 12.4606 21.706 12.4606 21.386C12.4606 21.0686 12.5046 20.782 12.5926 20.526C12.6833 20.2673 12.8126 20.0473 12.9806 19.866C13.1486 19.6846 13.3513 19.5446 13.5886 19.446C13.8286 19.3473 14.098 19.298 14.3966 19.298ZM14.3966 22.914C14.7966 22.914 15.0953 22.7806 15.2926 22.514C15.49 22.2446 15.5886 21.87 15.5886 21.39C15.5886 20.9073 15.49 20.5313 15.2926 20.262C15.0953 19.9926 14.7966 19.858 14.3966 19.858C14.194 19.858 14.0166 19.8926 13.8646 19.962C13.7153 20.0313 13.59 20.1313 13.4886 20.262C13.39 20.3926 13.3153 20.554 13.2646 20.746C13.2166 20.9353 13.1926 21.15 13.1926 21.39C13.1926 21.87 13.2913 22.2446 13.4886 22.514C13.6886 22.7806 13.9913 22.914 14.3966 22.914Z" fill="#EEEEEE"/>
<path d="M17.9037 20.174C18.0317 19.8966 18.189 19.6806 18.3757 19.526C18.5624 19.3686 18.7904 19.29 19.0597 19.29C19.145 19.29 19.2264 19.2993 19.3037 19.318C19.3837 19.3366 19.4544 19.366 19.5157 19.406L19.4637 19.938C19.4477 20.0046 19.4077 20.038 19.3437 20.038C19.3064 20.038 19.2517 20.03 19.1797 20.014C19.1077 19.998 19.0264 19.99 18.9357 19.99C18.8077 19.99 18.693 20.0086 18.5917 20.046C18.493 20.0833 18.4037 20.1393 18.3237 20.214C18.2464 20.286 18.1757 20.3766 18.1117 20.486C18.0504 20.5926 17.9944 20.7153 17.9437 20.854V23.414H17.2277V19.362H17.6357C17.713 19.362 17.7664 19.3766 17.7957 19.406C17.825 19.4353 17.845 19.486 17.8557 19.558L17.9037 20.174Z" fill="#EEEEEE"/>
<path d="M20.8938 19.362V23.414H20.1818V19.362H20.8938ZM21.0458 18.09C21.0458 18.1593 21.0311 18.2246 21.0018 18.286C20.9751 18.3446 20.9378 18.398 20.8898 18.446C20.8444 18.4913 20.7898 18.5273 20.7258 18.554C20.6644 18.5806 20.5991 18.594 20.5298 18.594C20.4604 18.594 20.3951 18.5806 20.3338 18.554C20.2751 18.5273 20.2231 18.4913 20.1778 18.446C20.1324 18.398 20.0964 18.3446 20.0698 18.286C20.0431 18.2246 20.0298 18.1593 20.0298 18.09C20.0298 18.0206 20.0431 17.9553 20.0698 17.894C20.0964 17.83 20.1324 17.7753 20.1778 17.73C20.2231 17.682 20.2751 17.6446 20.3338 17.618C20.3951 17.5913 20.4604 17.578 20.5298 17.578C20.5991 17.578 20.6644 17.5913 20.7258 17.618C20.7898 17.6446 20.8444 17.682 20.8898 17.73C20.9378 17.7753 20.9751 17.83 21.0018 17.894C21.0311 17.9553 21.0458 18.0206 21.0458 18.09Z" fill="#EEEEEE"/>
<path d="M24.8596 19.666C24.8596 19.7166 24.8503 19.766 24.8316 19.814C24.8156 19.862 24.793 19.9033 24.7636 19.938L22.5676 22.858H24.7836V23.414H21.7316V23.118C21.7316 23.0833 21.7396 23.0433 21.7556 22.998C21.7716 22.95 21.7956 22.9046 21.8276 22.862L24.0356 19.922H21.8556V19.362H24.8596V19.666Z" fill="#EEEEEE"/>
<path d="M27.3107 19.298C27.6067 19.298 27.8734 19.3473 28.1107 19.446C28.348 19.5446 28.5507 19.6846 28.7187 19.866C28.8867 20.0473 29.0147 20.2673 29.1027 20.526C29.1934 20.782 29.2387 21.0686 29.2387 21.386C29.2387 21.706 29.1934 21.994 29.1027 22.25C29.0147 22.506 28.8867 22.7246 28.7187 22.906C28.5507 23.0873 28.348 23.2273 28.1107 23.326C27.8734 23.422 27.6067 23.47 27.3107 23.47C27.012 23.47 26.7427 23.422 26.5027 23.326C26.2654 23.2273 26.0627 23.0873 25.8947 22.906C25.7267 22.7246 25.5974 22.506 25.5067 22.25C25.4187 21.994 25.3747 21.706 25.3747 21.386C25.3747 21.0686 25.4187 20.782 25.5067 20.526C25.5974 20.2673 25.7267 20.0473 25.8947 19.866C26.0627 19.6846 26.2654 19.5446 26.5027 19.446C26.7427 19.3473 27.012 19.298 27.3107 19.298ZM27.3107 22.914C27.7107 22.914 28.0094 22.7806 28.2067 22.514C28.404 22.2446 28.5027 21.87 28.5027 21.39C28.5027 20.9073 28.404 20.5313 28.2067 20.262C28.0094 19.9926 27.7107 19.858 27.3107 19.858C27.108 19.858 26.9307 19.8926 26.7787 19.962C26.6294 20.0313 26.504 20.1313 26.4027 20.262C26.304 20.3926 26.2294 20.554 26.1787 20.746C26.1307 20.9353 26.1067 21.15 26.1067 21.39C26.1067 21.87 26.2054 22.2446 26.4027 22.514C26.6027 22.7806 26.9054 22.914 27.3107 22.914Z" fill="#EEEEEE"/>
<path d="M30.8138 19.95C30.9018 19.8513 30.9951 19.762 31.0938 19.682C31.1924 19.602 31.2964 19.534 31.4058 19.478C31.5178 19.4193 31.6351 19.3753 31.7578 19.346C31.8831 19.314 32.0178 19.298 32.1618 19.298C32.3831 19.298 32.5778 19.3353 32.7458 19.41C32.9164 19.482 33.0578 19.586 33.1698 19.722C33.2844 19.8553 33.3711 20.0166 33.4298 20.206C33.4884 20.3953 33.5178 20.6046 33.5178 20.834V23.414H32.8018V20.834C32.8018 20.5273 32.7311 20.29 32.5898 20.122C32.4511 19.9513 32.2391 19.866 31.9538 19.866C31.7431 19.866 31.5458 19.9166 31.3618 20.018C31.1804 20.1193 31.0124 20.2566 30.8578 20.43V23.414H30.1418V19.362H30.5698C30.6711 19.362 30.7338 19.4113 30.7578 19.51L30.8138 19.95Z" fill="#EEEEEE"/>
<path d="M35.792 23.478C35.472 23.478 35.2253 23.3886 35.052 23.21C34.8813 23.0313 34.796 22.774 34.796 22.438V19.958H34.308C34.2653 19.958 34.2293 19.946 34.2 19.922C34.1707 19.8953 34.156 19.8553 34.156 19.802V19.518L34.82 19.434L34.984 18.182C34.992 18.142 35.0093 18.11 35.036 18.086C35.0653 18.0593 35.1027 18.046 35.148 18.046H35.508V19.442H36.68V19.958H35.508V22.39C35.508 22.5606 35.5493 22.6873 35.632 22.77C35.7147 22.8526 35.8213 22.894 35.952 22.894C36.0267 22.894 36.0907 22.8846 36.144 22.866C36.2 22.8446 36.248 22.822 36.288 22.798C36.328 22.774 36.3613 22.7526 36.388 22.734C36.4173 22.7126 36.4427 22.702 36.464 22.702C36.5013 22.702 36.5347 22.7246 36.564 22.77L36.772 23.11C36.6493 23.2246 36.5013 23.3153 36.328 23.382C36.1547 23.446 35.976 23.478 35.792 23.478Z" fill="#EEEEEE"/>
<path d="M39.6112 21.59C39.2832 21.6006 39.0032 21.6273 38.7712 21.67C38.5419 21.71 38.3539 21.7633 38.2072 21.83C38.0632 21.8966 37.9579 21.9753 37.8912 22.066C37.8272 22.1566 37.7952 22.258 37.7952 22.37C37.7952 22.4766 37.8125 22.5686 37.8472 22.646C37.8819 22.7233 37.9285 22.7873 37.9872 22.838C38.0485 22.886 38.1192 22.922 38.1992 22.946C38.2819 22.9673 38.3699 22.978 38.4632 22.978C38.5885 22.978 38.7032 22.966 38.8072 22.942C38.9112 22.9153 39.0085 22.878 39.0992 22.83C39.1925 22.782 39.2805 22.7246 39.3632 22.658C39.4485 22.5913 39.5312 22.5153 39.6112 22.43V21.59ZM37.3112 19.934C37.5352 19.718 37.7765 19.5566 38.0352 19.45C38.2939 19.3433 38.5805 19.29 38.8952 19.29C39.1219 19.29 39.3232 19.3273 39.4992 19.402C39.6752 19.4766 39.8232 19.5806 39.9432 19.714C40.0632 19.8473 40.1539 20.0086 40.2152 20.198C40.2765 20.3873 40.3072 20.5953 40.3072 20.822V23.414H39.9912C39.9219 23.414 39.8685 23.4033 39.8312 23.382C39.7939 23.358 39.7645 23.3126 39.7432 23.246L39.6632 22.862C39.5565 22.9606 39.4525 23.0486 39.3512 23.126C39.2499 23.2006 39.1432 23.2646 39.0312 23.318C38.9192 23.3686 38.7992 23.4073 38.6712 23.434C38.5459 23.4633 38.4059 23.478 38.2512 23.478C38.0939 23.478 37.9459 23.4566 37.8072 23.414C37.6685 23.3686 37.5472 23.302 37.4432 23.214C37.3419 23.126 37.2605 23.0153 37.1992 22.882C37.1405 22.746 37.1112 22.586 37.1112 22.402C37.1112 22.242 37.1552 22.0886 37.2432 21.942C37.3312 21.7926 37.4739 21.6606 37.6712 21.546C37.8685 21.4313 38.1259 21.338 38.4432 21.266C38.7605 21.1913 39.1499 21.1486 39.6112 21.138V20.822C39.6112 20.5073 39.5432 20.27 39.4072 20.11C39.2712 19.9473 39.0725 19.866 38.8112 19.866C38.6352 19.866 38.4872 19.8886 38.3672 19.934C38.2499 19.9766 38.1472 20.026 38.0592 20.082C37.9739 20.1353 37.8992 20.1846 37.8352 20.23C37.7739 20.2726 37.7125 20.294 37.6512 20.294C37.6032 20.294 37.5619 20.282 37.5272 20.258C37.4925 20.2313 37.4632 20.1993 37.4392 20.162L37.3112 19.934Z" fill="#EEEEEE"/>
<path d="M42.1278 17.522V23.414H41.4158V17.522H42.1278Z" fill="#EEEEEE"/>
</g>
<defs>
<clipPath id="clip0_204_7275">
<rect width="49" height="28" fill="white"/>
</clipPath>
</defs>
</svg>
