<svg width="18" height="28" viewBox="0 0 18 28" fill="none" xmlns="http://www.w3.org/2000/svg">
<rect x="1.25" y="14.75" width="15.5" height="12.5" fill="black" fill-opacity="0.1" stroke="#D4169F" stroke-width="0.5"/>
<rect x="1.25" y="0.75" width="15.5" height="12.5" stroke="white" stroke-opacity="0.25" stroke-width="0.5"/>
<path d="M5.66232 20.6902H5.91782C6.00648 20.6902 6.07765 20.6797 6.13132 20.6587C6.18498 20.6354 6.23398 20.5969 6.27832 20.5432L7.94782 18.6532C7.99448 18.5926 8.04348 18.5506 8.09482 18.5272C8.14615 18.5039 8.20915 18.4922 8.28382 18.4922H8.85782L6.94682 20.6517C6.90015 20.7077 6.85465 20.7544 6.81032 20.7917C6.76832 20.8267 6.72282 20.8559 6.67382 20.8792C6.73682 20.9002 6.79398 20.9317 6.84532 20.9737C6.89665 21.0134 6.94682 21.0659 6.99582 21.1312L8.99082 23.5077H8.40282C8.35848 23.5077 8.31998 23.5054 8.28732 23.5007C8.25698 23.4937 8.23015 23.4844 8.20682 23.4727C8.18348 23.4587 8.16248 23.4436 8.14382 23.4272C8.12748 23.4086 8.11115 23.3876 8.09482 23.3642L6.36582 21.3727C6.31915 21.3144 6.26898 21.2736 6.21532 21.2502C6.16165 21.2246 6.07998 21.2117 5.97032 21.2117H5.66232V23.5077H4.98682V18.4922H5.66232V20.6902Z" fill="#EEEEEE"/>
<path d="M13.0131 19.0627H11.3891V23.5077H10.7136V19.0627H9.08608V18.4922H13.0131V19.0627Z" fill="#EEEEEE"/>
<path d="M5.66232 6.69025H5.91782C6.00648 6.69025 6.07765 6.67975 6.13132 6.65875C6.18498 6.63542 6.23398 6.59692 6.27832 6.54325L7.94782 4.65325C7.99448 4.59258 8.04348 4.55058 8.09482 4.52725C8.14615 4.50392 8.20915 4.49225 8.28382 4.49225H8.85782L6.94682 6.65175C6.90015 6.70775 6.85465 6.75442 6.81032 6.79175C6.76832 6.82675 6.72282 6.85592 6.67382 6.87925C6.73682 6.90025 6.79398 6.93175 6.84532 6.97375C6.89665 7.01342 6.94682 7.06592 6.99582 7.13125L8.99082 9.50775H8.40282C8.35848 9.50775 8.31998 9.50542 8.28732 9.50075C8.25698 9.49375 8.23015 9.48442 8.20682 9.47275C8.18348 9.45875 8.16248 9.44358 8.14382 9.42725C8.12748 9.40858 8.11115 9.38758 8.09482 9.36425L6.36582 7.37275C6.31915 7.31442 6.26898 7.27358 6.21532 7.25025C6.16165 7.22458 6.07998 7.21175 5.97032 7.21175H5.66232V9.50775H4.98682V4.49225H5.66232V6.69025Z" fill="white" fill-opacity="0.5"/>
<path d="M13.0131 5.06275H11.3891V9.50775H10.7136V5.06275H9.08608V4.49225H13.0131V5.06275Z" fill="white" fill-opacity="0.5"/>
</svg>
