<svg width="49" height="28" viewBox="0 0 49 28" fill="none" xmlns="http://www.w3.org/2000/svg">
<rect y="14.75" width="49" height="12.5" fill="white" fill-opacity="0.2"/>
<path d="M11.5163 17.682V23.414H10.7403V20.806H7.64825V23.414H6.87225V17.682H7.64825V20.238H10.7403V17.682H11.5163Z" fill="white"/>
<path d="M14.3966 19.298C14.6926 19.298 14.9593 19.3473 15.1966 19.446C15.434 19.5446 15.6366 19.6846 15.8046 19.866C15.9726 20.0473 16.1006 20.2673 16.1886 20.526C16.2793 20.782 16.3246 21.0686 16.3246 21.386C16.3246 21.706 16.2793 21.994 16.1886 22.25C16.1006 22.506 15.9726 22.7246 15.8046 22.906C15.6366 23.0873 15.434 23.2273 15.1966 23.326C14.9593 23.422 14.6926 23.47 14.3966 23.47C14.098 23.47 13.8286 23.422 13.5886 23.326C13.3513 23.2273 13.1486 23.0873 12.9806 22.906C12.8126 22.7246 12.6833 22.506 12.5926 22.25C12.5046 21.994 12.4606 21.706 12.4606 21.386C12.4606 21.0686 12.5046 20.782 12.5926 20.526C12.6833 20.2673 12.8126 20.0473 12.9806 19.866C13.1486 19.6846 13.3513 19.5446 13.5886 19.446C13.8286 19.3473 14.098 19.298 14.3966 19.298ZM14.3966 22.914C14.7966 22.914 15.0953 22.7806 15.2926 22.514C15.49 22.2446 15.5886 21.87 15.5886 21.39C15.5886 20.9073 15.49 20.5313 15.2926 20.262C15.0953 19.9926 14.7966 19.858 14.3966 19.858C14.194 19.858 14.0166 19.8926 13.8646 19.962C13.7153 20.0313 13.59 20.1313 13.4886 20.262C13.39 20.3926 13.3153 20.554 13.2646 20.746C13.2166 20.9353 13.1926 21.15 13.1926 21.39C13.1926 21.87 13.2913 22.2446 13.4886 22.514C13.6886 22.7806 13.9913 22.914 14.3966 22.914Z" fill="white"/>
<path d="M17.9037 20.174C18.0317 19.8966 18.189 19.6806 18.3757 19.526C18.5624 19.3686 18.7904 19.29 19.0597 19.29C19.145 19.29 19.2264 19.2993 19.3037 19.318C19.3837 19.3366 19.4544 19.366 19.5157 19.406L19.4637 19.938C19.4477 20.0046 19.4077 20.038 19.3437 20.038C19.3064 20.038 19.2517 20.03 19.1797 20.014C19.1077 19.998 19.0264 19.99 18.9357 19.99C18.8077 19.99 18.693 20.0086 18.5917 20.046C18.493 20.0833 18.4037 20.1393 18.3237 20.214C18.2464 20.286 18.1757 20.3766 18.1117 20.486C18.0504 20.5926 17.9944 20.7153 17.9437 20.854V23.414H17.2277V19.362H17.6357C17.713 19.362 17.7664 19.3766 17.7957 19.406C17.825 19.4353 17.845 19.486 17.8557 19.558L17.9037 20.174Z" fill="white"/>
<path d="M20.8938 19.362V23.414H20.1818V19.362H20.8938ZM21.0458 18.09C21.0458 18.1593 21.0311 18.2246 21.0018 18.286C20.9751 18.3446 20.9378 18.398 20.8898 18.446C20.8444 18.4913 20.7898 18.5273 20.7258 18.554C20.6644 18.5806 20.5991 18.594 20.5298 18.594C20.4604 18.594 20.3951 18.5806 20.3338 18.554C20.2751 18.5273 20.2231 18.4913 20.1778 18.446C20.1324 18.398 20.0964 18.3446 20.0698 18.286C20.0431 18.2246 20.0298 18.1593 20.0298 18.09C20.0298 18.0206 20.0431 17.9553 20.0698 17.894C20.0964 17.83 20.1324 17.7753 20.1778 17.73C20.2231 17.682 20.2751 17.6446 20.3338 17.618C20.3951 17.5913 20.4604 17.578 20.5298 17.578C20.5991 17.578 20.6644 17.5913 20.7258 17.618C20.7898 17.6446 20.8444 17.682 20.8898 17.73C20.9378 17.7753 20.9751 17.83 21.0018 17.894C21.0311 17.9553 21.0458 18.0206 21.0458 18.09Z" fill="white"/>
<path d="M24.8596 19.666C24.8596 19.7166 24.8503 19.766 24.8316 19.814C24.8156 19.862 24.793 19.9033 24.7636 19.938L22.5676 22.858H24.7836V23.414H21.7316V23.118C21.7316 23.0833 21.7396 23.0433 21.7556 22.998C21.7716 22.95 21.7956 22.9046 21.8276 22.862L24.0356 19.922H21.8556V19.362H24.8596V19.666Z" fill="white"/>
<path d="M27.3107 19.298C27.6067 19.298 27.8734 19.3473 28.1107 19.446C28.348 19.5446 28.5507 19.6846 28.7187 19.866C28.8867 20.0473 29.0147 20.2673 29.1027 20.526C29.1934 20.782 29.2387 21.0686 29.2387 21.386C29.2387 21.706 29.1934 21.994 29.1027 22.25C29.0147 22.506 28.8867 22.7246 28.7187 22.906C28.5507 23.0873 28.348 23.2273 28.1107 23.326C27.8734 23.422 27.6067 23.47 27.3107 23.47C27.012 23.47 26.7427 23.422 26.5027 23.326C26.2654 23.2273 26.0627 23.0873 25.8947 22.906C25.7267 22.7246 25.5974 22.506 25.5067 22.25C25.4187 21.994 25.3747 21.706 25.3747 21.386C25.3747 21.0686 25.4187 20.782 25.5067 20.526C25.5974 20.2673 25.7267 20.0473 25.8947 19.866C26.0627 19.6846 26.2654 19.5446 26.5027 19.446C26.7427 19.3473 27.012 19.298 27.3107 19.298ZM27.3107 22.914C27.7107 22.914 28.0094 22.7806 28.2067 22.514C28.404 22.2446 28.5027 21.87 28.5027 21.39C28.5027 20.9073 28.404 20.5313 28.2067 20.262C28.0094 19.9926 27.7107 19.858 27.3107 19.858C27.108 19.858 26.9307 19.8926 26.7787 19.962C26.6294 20.0313 26.504 20.1313 26.4027 20.262C26.304 20.3926 26.2294 20.554 26.1787 20.746C26.1307 20.9353 26.1067 21.15 26.1067 21.39C26.1067 21.87 26.2054 22.2446 26.4027 22.514C26.6027 22.7806 26.9054 22.914 27.3107 22.914Z" fill="white"/>
<path d="M30.8138 19.95C30.9018 19.8513 30.9951 19.762 31.0938 19.682C31.1924 19.602 31.2964 19.534 31.4058 19.478C31.5178 19.4193 31.6351 19.3753 31.7578 19.346C31.8831 19.314 32.0178 19.298 32.1618 19.298C32.3831 19.298 32.5778 19.3353 32.7458 19.41C32.9164 19.482 33.0578 19.586 33.1698 19.722C33.2844 19.8553 33.3711 20.0166 33.4298 20.206C33.4884 20.3953 33.5178 20.6046 33.5178 20.834V23.414H32.8018V20.834C32.8018 20.5273 32.7311 20.29 32.5898 20.122C32.4511 19.9513 32.2391 19.866 31.9538 19.866C31.7431 19.866 31.5458 19.9166 31.3618 20.018C31.1804 20.1193 31.0124 20.2566 30.8578 20.43V23.414H30.1418V19.362H30.5698C30.6711 19.362 30.7338 19.4113 30.7578 19.51L30.8138 19.95Z" fill="white"/>
<path d="M35.792 23.478C35.472 23.478 35.2253 23.3886 35.052 23.21C34.8813 23.0313 34.796 22.774 34.796 22.438V19.958H34.308C34.2653 19.958 34.2293 19.946 34.2 19.922C34.1707 19.8953 34.156 19.8553 34.156 19.802V19.518L34.82 19.434L34.984 18.182C34.992 18.142 35.0093 18.11 35.036 18.086C35.0653 18.0593 35.1027 18.046 35.148 18.046H35.508V19.442H36.68V19.958H35.508V22.39C35.508 22.5606 35.5493 22.6873 35.632 22.77C35.7147 22.8526 35.8213 22.894 35.952 22.894C36.0267 22.894 36.0907 22.8846 36.144 22.866C36.2 22.8446 36.248 22.822 36.288 22.798C36.328 22.774 36.3613 22.7526 36.388 22.734C36.4173 22.7126 36.4427 22.702 36.464 22.702C36.5013 22.702 36.5347 22.7246 36.564 22.77L36.772 23.11C36.6493 23.2246 36.5013 23.3153 36.328 23.382C36.1547 23.446 35.976 23.478 35.792 23.478Z" fill="white"/>
<path d="M39.6112 21.59C39.2832 21.6006 39.0032 21.6273 38.7712 21.67C38.5419 21.71 38.3539 21.7633 38.2072 21.83C38.0632 21.8966 37.9579 21.9753 37.8912 22.066C37.8272 22.1566 37.7952 22.258 37.7952 22.37C37.7952 22.4766 37.8125 22.5686 37.8472 22.646C37.8819 22.7233 37.9285 22.7873 37.9872 22.838C38.0485 22.886 38.1192 22.922 38.1992 22.946C38.2819 22.9673 38.3699 22.978 38.4632 22.978C38.5885 22.978 38.7032 22.966 38.8072 22.942C38.9112 22.9153 39.0085 22.878 39.0992 22.83C39.1925 22.782 39.2805 22.7246 39.3632 22.658C39.4485 22.5913 39.5312 22.5153 39.6112 22.43V21.59ZM37.3112 19.934C37.5352 19.718 37.7765 19.5566 38.0352 19.45C38.2939 19.3433 38.5805 19.29 38.8952 19.29C39.1219 19.29 39.3232 19.3273 39.4992 19.402C39.6752 19.4766 39.8232 19.5806 39.9432 19.714C40.0632 19.8473 40.1539 20.0086 40.2152 20.198C40.2765 20.3873 40.3072 20.5953 40.3072 20.822V23.414H39.9912C39.9219 23.414 39.8685 23.4033 39.8312 23.382C39.7939 23.358 39.7645 23.3126 39.7432 23.246L39.6632 22.862C39.5565 22.9606 39.4525 23.0486 39.3512 23.126C39.2499 23.2006 39.1432 23.2646 39.0312 23.318C38.9192 23.3686 38.7992 23.4073 38.6712 23.434C38.5459 23.4633 38.4059 23.478 38.2512 23.478C38.0939 23.478 37.9459 23.4566 37.8072 23.414C37.6685 23.3686 37.5472 23.302 37.4432 23.214C37.3419 23.126 37.2605 23.0153 37.1992 22.882C37.1405 22.746 37.1112 22.586 37.1112 22.402C37.1112 22.242 37.1552 22.0886 37.2432 21.942C37.3312 21.7926 37.4739 21.6606 37.6712 21.546C37.8685 21.4313 38.1259 21.338 38.4432 21.266C38.7605 21.1913 39.1499 21.1486 39.6112 21.138V20.822C39.6112 20.5073 39.5432 20.27 39.4072 20.11C39.2712 19.9473 39.0725 19.866 38.8112 19.866C38.6352 19.866 38.4872 19.8886 38.3672 19.934C38.2499 19.9766 38.1472 20.026 38.0592 20.082C37.9739 20.1353 37.8992 20.1846 37.8352 20.23C37.7739 20.2726 37.7125 20.294 37.6512 20.294C37.6032 20.294 37.5619 20.282 37.5272 20.258C37.4925 20.2313 37.4632 20.1993 37.4392 20.162L37.3112 19.934Z" fill="white"/>
<path d="M42.1278 17.522V23.414H41.4158V17.522H42.1278Z" fill="white"/>
</svg>
