<svg width="40" height="172" viewBox="0 0 40 172" fill="none" xmlns="http://www.w3.org/2000/svg">
<rect y="0.5" width="40" height="10.3896" fill="white" fill-opacity="0.2"/>
<path d="M6.975 3.78911C6.954 3.82411 6.93067 3.85095 6.905 3.86961C6.88167 3.88595 6.8525 3.89411 6.8175 3.89411C6.77783 3.89411 6.73117 3.87428 6.6775 3.83461C6.62383 3.79495 6.55617 3.75178 6.4745 3.70511C6.39517 3.65611 6.29833 3.61178 6.184 3.57211C6.072 3.53245 5.9355 3.51261 5.7745 3.51261C5.62283 3.51261 5.48867 3.53361 5.372 3.57561C5.25767 3.61528 5.16083 3.67011 5.0815 3.74011C5.0045 3.81011 4.94617 3.89295 4.9065 3.98861C4.86683 4.08195 4.847 4.18345 4.847 4.29311C4.847 4.43311 4.88083 4.54978 4.9485 4.64311C5.0185 4.73411 5.1095 4.81228 5.2215 4.87761C5.33583 4.94295 5.46417 5.00011 5.6065 5.04911C5.75117 5.09578 5.89817 5.14478 6.0475 5.19611C6.19917 5.24745 6.34617 5.30578 6.4885 5.37111C6.63317 5.43411 6.7615 5.51461 6.8735 5.61261C6.98783 5.71061 7.07883 5.83078 7.1465 5.97311C7.2165 6.11545 7.2515 6.29045 7.2515 6.49811C7.2515 6.71745 7.21417 6.92395 7.1395 7.11761C7.06483 7.30895 6.95517 7.47578 6.8105 7.61811C6.66817 7.76045 6.492 7.87245 6.282 7.95411C6.07433 8.03578 5.8375 8.07661 5.5715 8.07661C5.24483 8.07661 4.9485 8.01828 4.6825 7.90161C4.4165 7.78261 4.189 7.62278 4 7.42211L4.196 7.10011C4.21467 7.07445 4.23683 7.05345 4.2625 7.03711C4.2905 7.01845 4.32083 7.00911 4.3535 7.00911C4.38383 7.00911 4.41767 7.02195 4.455 7.04761C4.49467 7.07095 4.539 7.10128 4.588 7.13861C4.637 7.17595 4.693 7.21678 4.756 7.26111C4.819 7.30545 4.89017 7.34628 4.9695 7.38361C5.05117 7.42095 5.14333 7.45245 5.246 7.47811C5.34867 7.50145 5.46417 7.51311 5.5925 7.51311C5.7535 7.51311 5.897 7.49095 6.023 7.44661C6.149 7.40228 6.25517 7.34045 6.3415 7.26111C6.43017 7.17945 6.49783 7.08261 6.5445 6.97061C6.59117 6.85861 6.6145 6.73378 6.6145 6.59611C6.6145 6.44445 6.5795 6.32078 6.5095 6.22511C6.44183 6.12711 6.352 6.04545 6.24 5.98011C6.128 5.91478 5.99967 5.85995 5.855 5.81561C5.71033 5.76895 5.56333 5.72228 5.414 5.67561C5.26467 5.62661 5.11767 5.57061 4.973 5.50761C4.82833 5.44461 4.7 5.36295 4.588 5.26261C4.476 5.16228 4.385 5.03745 4.315 4.88811C4.24733 4.73645 4.2135 4.54978 4.2135 4.32811C4.2135 4.15078 4.24733 3.97928 4.315 3.81361C4.385 3.64795 4.48533 3.50095 4.616 3.37261C4.749 3.24428 4.91117 3.14161 5.1025 3.06461C5.29617 2.98761 5.51783 2.94911 5.7675 2.94911C6.0475 2.94911 6.30183 2.99345 6.5305 3.08211C6.7615 3.17078 6.9645 3.29911 7.1395 3.46711L6.975 3.78911Z" fill="white"/>
<path d="M8.6871 4.47511V8.02061H8.0641V4.47511H8.6871ZM8.8201 3.36211C8.8201 3.42278 8.80727 3.47995 8.7816 3.53361C8.75827 3.58495 8.7256 3.63161 8.6836 3.67361C8.64393 3.71328 8.5961 3.74478 8.5401 3.76811C8.48643 3.79145 8.42927 3.80311 8.3686 3.80311C8.30794 3.80311 8.25077 3.79145 8.1971 3.76811C8.14577 3.74478 8.10027 3.71328 8.0606 3.67361C8.02094 3.63161 7.98943 3.58495 7.9661 3.53361C7.94277 3.47995 7.9311 3.42278 7.9311 3.36211C7.9311 3.30145 7.94277 3.24428 7.9661 3.19061C7.98943 3.13461 8.02094 3.08678 8.0606 3.04711C8.10027 3.00511 8.14577 2.97245 8.1971 2.94911C8.25077 2.92578 8.30794 2.91411 8.3686 2.91411C8.42927 2.91411 8.48643 2.92578 8.5401 2.94911C8.5961 2.97245 8.64393 3.00511 8.6836 3.04711C8.7256 3.08678 8.75827 3.13461 8.7816 3.19061C8.80727 3.24428 8.8201 3.30145 8.8201 3.36211Z" fill="white"/>
<path d="M10.2987 4.98961C10.3757 4.90328 10.4574 4.82511 10.5437 4.75511C10.6301 4.68511 10.7211 4.62561 10.8167 4.57661C10.9147 4.52528 11.0174 4.48678 11.1247 4.46111C11.2344 4.43311 11.3522 4.41911 11.4782 4.41911C11.6719 4.41911 11.8422 4.45178 11.9892 4.51711C12.1386 4.58011 12.2622 4.67111 12.3602 4.79011C12.4606 4.90678 12.5364 5.04795 12.5877 5.21361C12.6391 5.37928 12.6647 5.56245 12.6647 5.76311V8.02061H12.0382V5.76311C12.0382 5.49478 11.9764 5.28711 11.8527 5.14011C11.7314 4.99078 11.5459 4.91611 11.2962 4.91611C11.1119 4.91611 10.9392 4.96045 10.7782 5.04911C10.6196 5.13778 10.4726 5.25795 10.3372 5.40961V8.02061H9.71074V4.47511H10.0852C10.1739 4.47511 10.2287 4.51828 10.2497 4.60461L10.2987 4.98961Z" fill="white"/>
<path d="M14.8496 6.28811C14.9756 6.28811 15.0864 6.27061 15.1821 6.23561C15.2777 6.20061 15.3582 6.15161 15.4236 6.08861C15.4889 6.02561 15.5379 5.95095 15.5706 5.86461C15.6032 5.77595 15.6196 5.67911 15.6196 5.57411C15.6196 5.35711 15.5531 5.18445 15.4201 5.05611C15.2894 4.92778 15.0992 4.86361 14.8496 4.86361C14.5976 4.86361 14.4051 4.92778 14.2721 5.05611C14.1414 5.18445 14.0761 5.35711 14.0761 5.57411C14.0761 5.67911 14.0924 5.77595 14.1251 5.86461C14.1601 5.95095 14.2102 6.02561 14.2756 6.08861C14.3409 6.15161 14.4214 6.20061 14.5171 6.23561C14.6127 6.27061 14.7236 6.28811 14.8496 6.28811ZM15.9731 8.21311C15.9731 8.12678 15.9486 8.05678 15.8996 8.00311C15.8506 7.94945 15.7841 7.90745 15.7001 7.87711C15.6184 7.84678 15.5227 7.82578 15.4131 7.81411C15.3034 7.80011 15.1867 7.78961 15.0631 7.78261C14.9417 7.77561 14.8181 7.76861 14.6921 7.76161C14.5661 7.75461 14.4447 7.74295 14.3281 7.72661C14.1974 7.78728 14.0901 7.86428 14.0061 7.95761C13.9244 8.04861 13.8836 8.15595 13.8836 8.27961C13.8836 8.35895 13.9034 8.43245 13.9431 8.50011C13.9851 8.57011 14.0481 8.62961 14.1321 8.67861C14.2161 8.72995 14.3211 8.76961 14.4471 8.79761C14.5754 8.82795 14.7259 8.84311 14.8986 8.84311C15.0666 8.84311 15.2171 8.82795 15.3501 8.79761C15.4831 8.76728 15.5951 8.72411 15.6861 8.66811C15.7794 8.61211 15.8506 8.54561 15.8996 8.46861C15.9486 8.39161 15.9731 8.30645 15.9731 8.21311ZM16.6066 4.61511V4.84611C16.6066 4.92311 16.5576 4.97211 16.4596 4.99311L16.0571 5.04561C16.1364 5.19961 16.1761 5.36995 16.1761 5.55661C16.1761 5.72928 16.1422 5.88678 16.0746 6.02911C16.0092 6.16911 15.9182 6.28928 15.8016 6.38961C15.6849 6.48995 15.5449 6.56695 15.3816 6.62061C15.2182 6.67428 15.0409 6.70111 14.8496 6.70111C14.6839 6.70111 14.5276 6.68128 14.3806 6.64161C14.3059 6.68828 14.2487 6.73845 14.2091 6.79211C14.1694 6.84345 14.1496 6.89595 14.1496 6.94961C14.1496 7.03361 14.1834 7.09778 14.2511 7.14211C14.3211 7.18411 14.4121 7.21445 14.5241 7.23311C14.6361 7.25178 14.7632 7.26345 14.9056 7.26811C15.0502 7.27278 15.1972 7.28095 15.3466 7.29261C15.4982 7.30195 15.6452 7.31945 15.7876 7.34511C15.9322 7.37078 16.0606 7.41278 16.1726 7.47111C16.2846 7.52945 16.3744 7.60995 16.4421 7.71261C16.5121 7.81528 16.5471 7.94828 16.5471 8.11161C16.5471 8.26328 16.5086 8.41028 16.4316 8.55261C16.3569 8.69495 16.2484 8.82095 16.1061 8.93061C15.9637 9.04261 15.7887 9.13128 15.5811 9.19661C15.3757 9.26428 15.1436 9.29811 14.8846 9.29811C14.6256 9.29811 14.3992 9.27245 14.2056 9.22111C14.0119 9.16978 13.8509 9.10095 13.7226 9.01461C13.5942 8.92828 13.4974 8.82795 13.4321 8.71361C13.3691 8.60161 13.3376 8.48378 13.3376 8.36011C13.3376 8.18511 13.3924 8.03695 13.5021 7.91561C13.6117 7.79428 13.7622 7.69745 13.9536 7.62511C13.8486 7.57845 13.7646 7.51661 13.7016 7.43961C13.6409 7.36028 13.6106 7.25411 13.6106 7.12111C13.6106 7.06978 13.6199 7.01728 13.6386 6.96361C13.6572 6.90761 13.6852 6.85278 13.7226 6.79911C13.7622 6.74311 13.8101 6.69061 13.8661 6.64161C13.9221 6.59261 13.9874 6.54945 14.0621 6.51211C13.8871 6.41411 13.7506 6.28461 13.6526 6.12361C13.5546 5.96028 13.5056 5.77128 13.5056 5.55661C13.5056 5.38395 13.5382 5.22761 13.6036 5.08761C13.6712 4.94528 13.7646 4.82511 13.8836 4.72711C14.0026 4.62678 14.1437 4.54978 14.3071 4.49611C14.4727 4.44245 14.6536 4.41561 14.8496 4.41561C15.0036 4.41561 15.1471 4.43311 15.2801 4.46811C15.4131 4.50078 15.5344 4.54978 15.6441 4.61511H16.6066Z" fill="white"/>
<path d="M17.8948 2.86511V8.02061H17.2718V2.86511H17.8948Z" fill="white"/>
<path d="M21.2781 5.86111C21.2781 5.71645 21.2571 5.58461 21.2151 5.46561C21.1754 5.34428 21.1159 5.24045 21.0366 5.15411C20.9596 5.06545 20.8651 4.99778 20.7531 4.95111C20.6411 4.90211 20.5139 4.87761 20.3716 4.87761C20.0729 4.87761 19.8361 4.96511 19.6611 5.14011C19.4884 5.31278 19.3811 5.55311 19.3391 5.86111H21.2781ZM21.7821 7.52361C21.7051 7.61695 21.6129 7.69861 21.5056 7.76861C21.3982 7.83628 21.2827 7.89228 21.1591 7.93661C21.0377 7.98095 20.9117 8.01361 20.7811 8.03461C20.6504 8.05795 20.5209 8.06961 20.3926 8.06961C20.1476 8.06961 19.9212 8.02878 19.7136 7.94711C19.5082 7.86311 19.3297 7.74178 19.1781 7.58311C19.0287 7.42211 18.9121 7.22378 18.8281 6.98811C18.7441 6.75245 18.7021 6.48178 18.7021 6.17611C18.7021 5.92878 18.7394 5.69778 18.8141 5.48311C18.8911 5.26845 19.0007 5.08295 19.1431 4.92661C19.2854 4.76795 19.4592 4.64428 19.6646 4.55561C19.8699 4.46461 20.1009 4.41911 20.3576 4.41911C20.5699 4.41911 20.7659 4.45528 20.9456 4.52761C21.1276 4.59761 21.2839 4.70028 21.4146 4.83561C21.5476 4.96861 21.6514 5.13428 21.7261 5.33261C21.8007 5.52861 21.8381 5.75261 21.8381 6.00461C21.8381 6.10261 21.8276 6.16795 21.8066 6.20061C21.7856 6.23328 21.7459 6.24961 21.6876 6.24961H19.3181C19.3251 6.47361 19.3554 6.66845 19.4091 6.83411C19.4651 6.99978 19.5421 7.13861 19.6401 7.25061C19.7381 7.36028 19.8547 7.44311 19.9901 7.49911C20.1254 7.55278 20.2771 7.57961 20.4451 7.57961C20.6014 7.57961 20.7356 7.56211 20.8476 7.52711C20.9619 7.48978 21.0599 7.45011 21.1416 7.40811C21.2232 7.36611 21.2909 7.32761 21.3446 7.29261C21.4006 7.25528 21.4484 7.23661 21.4881 7.23661C21.5394 7.23661 21.5791 7.25645 21.6071 7.29611L21.7821 7.52361Z" fill="white"/>
<rect y="51.3701" width="40" height="10.3896" fill="white" fill-opacity="0.2"/>
<path d="M4.6755 56.1503H4.931C5.01967 56.1503 5.09083 56.1398 5.1445 56.1188C5.19817 56.0954 5.24717 56.0569 5.2915 56.0033L6.961 54.1133C7.00767 54.0526 7.05667 54.0106 7.108 53.9873C7.15933 53.9639 7.22233 53.9523 7.297 53.9523H7.871L5.96 56.1118C5.91333 56.1678 5.86783 56.2144 5.8235 56.2518C5.7815 56.2868 5.736 56.3159 5.687 56.3393C5.75 56.3603 5.80717 56.3918 5.8585 56.4338C5.90983 56.4734 5.96 56.5259 6.009 56.5913L8.004 58.9678H7.416C7.37167 58.9678 7.33317 58.9654 7.3005 58.9608C7.27017 58.9538 7.24333 58.9444 7.22 58.9328C7.19667 58.9188 7.17567 58.9036 7.157 58.8873C7.14067 58.8686 7.12433 58.8476 7.108 58.8243L5.379 56.8328C5.33233 56.7744 5.28217 56.7336 5.2285 56.7103C5.17483 56.6846 5.09317 56.6718 4.9835 56.6718H4.6755V58.9678H4V53.9523H4.6755V56.1503Z" fill="white"/>
<path d="M10.5942 56.8083C10.5942 56.6636 10.5732 56.5318 10.5312 56.4128C10.4915 56.2914 10.432 56.1876 10.3527 56.1013C10.2757 56.0126 10.1812 55.9449 10.0692 55.8983C9.95716 55.8493 9.83 55.8248 9.68766 55.8248C9.389 55.8248 9.15216 55.9123 8.97716 56.0873C8.8045 56.2599 8.69716 56.5003 8.65516 56.8083H10.5942ZM11.0982 58.4708C11.0212 58.5641 10.929 58.6458 10.8217 58.7158C10.7143 58.7834 10.5988 58.8394 10.4752 58.8838C10.3538 58.9281 10.2278 58.9608 10.0972 58.9818C9.9665 59.0051 9.837 59.0168 9.70866 59.0168C9.46366 59.0168 9.23733 58.9759 9.02966 58.8943C8.82433 58.8103 8.64583 58.6889 8.49416 58.5303C8.34483 58.3693 8.22816 58.1709 8.14416 57.9353C8.06016 57.6996 8.01816 57.4289 8.01816 57.1233C8.01816 56.8759 8.0555 56.6449 8.13016 56.4303C8.20716 56.2156 8.31683 56.0301 8.45916 55.8738C8.6015 55.7151 8.77533 55.5914 8.98066 55.5028C9.186 55.4118 9.417 55.3663 9.67366 55.3663C9.886 55.3663 10.082 55.4024 10.2617 55.4748C10.4437 55.5448 10.6 55.6474 10.7307 55.7828C10.8637 55.9158 10.9675 56.0814 11.0422 56.2798C11.1168 56.4758 11.1542 56.6998 11.1542 56.9518C11.1542 57.0498 11.1437 57.1151 11.1227 57.1478C11.1017 57.1804 11.062 57.1968 11.0037 57.1968H8.63416C8.64116 57.4208 8.6715 57.6156 8.72516 57.7813C8.78116 57.9469 8.85816 58.0858 8.95616 58.1978C9.05416 58.3074 9.17083 58.3903 9.30616 58.4463C9.4415 58.4999 9.59316 58.5268 9.76116 58.5268C9.9175 58.5268 10.0517 58.5093 10.1637 58.4743C10.278 58.4369 10.376 58.3973 10.4577 58.3553C10.5393 58.3133 10.607 58.2748 10.6607 58.2398C10.7167 58.2024 10.7645 58.1838 10.8042 58.1838C10.8555 58.1838 10.8952 58.2036 10.9232 58.2433L11.0982 58.4708Z" fill="white"/>
<path d="M14.8895 55.4223L12.912 60.0143C12.891 60.0609 12.8642 60.0983 12.8315 60.1263C12.8012 60.1543 12.7534 60.1683 12.688 60.1683H12.226L12.8735 58.7613L11.4105 55.4223H11.9495C12.0032 55.4223 12.0452 55.4363 12.0755 55.4643C12.1082 55.4899 12.1304 55.5191 12.142 55.5518L13.0905 57.7848C13.1279 57.8828 13.1594 57.9854 13.185 58.0928C13.2177 57.9831 13.2527 57.8793 13.29 57.7813L14.2105 55.5518C14.2245 55.5144 14.2479 55.4841 14.2805 55.4608C14.3155 55.4351 14.354 55.4223 14.396 55.4223H14.8895Z" fill="white"/>
<path d="M19.7725 54.7363C19.7515 54.7713 19.7282 54.7981 19.7025 54.8168C19.6792 54.8331 19.65 54.8413 19.615 54.8413C19.5754 54.8413 19.5287 54.8214 19.475 54.7818C19.4214 54.7421 19.3537 54.6989 19.272 54.6523C19.1927 54.6033 19.0959 54.5589 18.9815 54.5193C18.8695 54.4796 18.733 54.4598 18.572 54.4598C18.4204 54.4598 18.2862 54.4808 18.1695 54.5228C18.0552 54.5624 17.9584 54.6173 17.879 54.6873C17.802 54.7573 17.7437 54.8401 17.704 54.9358C17.6644 55.0291 17.6445 55.1306 17.6445 55.2403C17.6445 55.3803 17.6784 55.4969 17.746 55.5903C17.816 55.6813 17.907 55.7594 18.019 55.8248C18.1334 55.8901 18.2617 55.9473 18.404 55.9963C18.5487 56.0429 18.6957 56.0919 18.845 56.1433C18.9967 56.1946 19.1437 56.2529 19.286 56.3183C19.4307 56.3813 19.559 56.4618 19.671 56.5598C19.7854 56.6578 19.8764 56.7779 19.944 56.9203C20.014 57.0626 20.049 57.2376 20.049 57.4453C20.049 57.6646 20.0117 57.8711 19.937 58.0648C19.8624 58.2561 19.7527 58.4229 19.608 58.5653C19.4657 58.7076 19.2895 58.8196 19.0795 58.9013C18.8719 58.9829 18.635 59.0238 18.369 59.0238C18.0424 59.0238 17.746 58.9654 17.48 58.8488C17.214 58.7298 16.9865 58.5699 16.7975 58.3693L16.9935 58.0473C17.0122 58.0216 17.0344 58.0006 17.06 57.9843C17.088 57.9656 17.1184 57.9563 17.151 57.9563C17.1814 57.9563 17.2152 57.9691 17.2525 57.9948C17.2922 58.0181 17.3365 58.0484 17.3855 58.0858C17.4345 58.1231 17.4905 58.1639 17.5535 58.2083C17.6165 58.2526 17.6877 58.2934 17.767 58.3308C17.8487 58.3681 17.9409 58.3996 18.0435 58.4253C18.1462 58.4486 18.2617 58.4603 18.39 58.4603C18.551 58.4603 18.6945 58.4381 18.8205 58.3938C18.9465 58.3494 19.0527 58.2876 19.139 58.2083C19.2277 58.1266 19.2954 58.0298 19.342 57.9178C19.3887 57.8058 19.412 57.6809 19.412 57.5433C19.412 57.3916 19.377 57.2679 19.307 57.1723C19.2394 57.0743 19.1495 56.9926 19.0375 56.9273C18.9255 56.8619 18.7972 56.8071 18.6525 56.7628C18.5079 56.7161 18.3609 56.6694 18.2115 56.6228C18.0622 56.5738 17.9152 56.5178 17.7705 56.4548C17.6259 56.3918 17.4975 56.3101 17.3855 56.2098C17.2735 56.1094 17.1825 55.9846 17.1125 55.8353C17.0449 55.6836 17.011 55.4969 17.011 55.2753C17.011 55.0979 17.0449 54.9264 17.1125 54.7608C17.1825 54.5951 17.2829 54.4481 17.4135 54.3198C17.5465 54.1914 17.7087 54.0888 17.9 54.0118C18.0937 53.9348 18.3154 53.8963 18.565 53.8963C18.845 53.8963 19.0994 53.9406 19.328 54.0293C19.559 54.1179 19.762 54.2463 19.937 54.4143L19.7725 54.7363Z" fill="white"/>
<path d="M21.4121 58.1138C21.5265 58.2678 21.6513 58.3763 21.7866 58.4393C21.922 58.5023 22.0736 58.5338 22.2416 58.5338C22.573 58.5338 22.8273 58.4159 23.0046 58.1803C23.182 57.9446 23.2706 57.6086 23.2706 57.1723C23.2706 56.9413 23.2496 56.7429 23.2076 56.5773C23.168 56.4116 23.1096 56.2763 23.0326 56.1713C22.9556 56.0639 22.8611 55.9858 22.7491 55.9368C22.6371 55.8878 22.5099 55.8633 22.3676 55.8633C22.1646 55.8633 21.9861 55.9099 21.8321 56.0033C21.6805 56.0966 21.5405 56.2284 21.4121 56.3988V58.1138ZM21.3806 55.9718C21.53 55.7874 21.7026 55.6393 21.8986 55.5273C22.0946 55.4153 22.3186 55.3593 22.5706 55.3593C22.776 55.3593 22.9615 55.3989 23.1271 55.4783C23.2928 55.5553 23.434 55.6708 23.5506 55.8248C23.6673 55.9764 23.7571 56.1654 23.8201 56.3918C23.8831 56.6181 23.9146 56.8783 23.9146 57.1723C23.9146 57.4336 23.8796 57.6774 23.8096 57.9038C23.7396 58.1278 23.6381 58.3226 23.5051 58.4883C23.3745 58.6516 23.2135 58.7811 23.0221 58.8768C22.8331 58.9701 22.6196 59.0168 22.3816 59.0168C22.1646 59.0168 21.978 58.9806 21.8216 58.9083C21.6676 58.8336 21.5311 58.7309 21.4121 58.6003V60.1683H20.7856V55.4223H21.1601C21.2488 55.4223 21.3036 55.4654 21.3246 55.5518L21.3806 55.9718Z" fill="white"/>
<path d="M25.3534 53.8123V58.9678H24.7304V53.8123H25.3534Z" fill="white"/>
<path d="M27.0217 55.4223V58.9678H26.3987V55.4223H27.0217ZM27.1547 54.3093C27.1547 54.3699 27.1419 54.4271 27.1162 54.4808C27.0929 54.5321 27.0602 54.5788 27.0182 54.6208C26.9786 54.6604 26.9307 54.6919 26.8747 54.7153C26.8211 54.7386 26.7639 54.7503 26.7032 54.7503C26.6426 54.7503 26.5854 54.7386 26.5317 54.7153C26.4804 54.6919 26.4349 54.6604 26.3952 54.6208C26.3556 54.5788 26.3241 54.5321 26.3007 54.4808C26.2774 54.4271 26.2657 54.3699 26.2657 54.3093C26.2657 54.2486 26.2774 54.1914 26.3007 54.1378C26.3241 54.0818 26.3556 54.0339 26.3952 53.9943C26.4349 53.9523 26.4804 53.9196 26.5317 53.8963C26.5854 53.8729 26.6426 53.8613 26.7032 53.8613C26.7639 53.8613 26.8211 53.8729 26.8747 53.8963C26.9307 53.9196 26.9786 53.9523 27.0182 53.9943C27.0602 54.0339 27.0929 54.0818 27.1162 54.1378C27.1419 54.1914 27.1547 54.2486 27.1547 54.3093Z" fill="white"/>
<path d="M29.1339 59.0238C28.8539 59.0238 28.6381 58.9456 28.4864 58.7893C28.3371 58.6329 28.2624 58.4078 28.2624 58.1138V55.9438H27.8354C27.798 55.9438 27.7665 55.9333 27.7409 55.9123C27.7152 55.8889 27.7024 55.8539 27.7024 55.8073V55.5588L28.2834 55.4853L28.4269 54.3898C28.4339 54.3548 28.4491 54.3268 28.4724 54.3058C28.4981 54.2824 28.5307 54.2708 28.5704 54.2708H28.8854V55.4923H29.9109V55.9438H28.8854V58.0718C28.8854 58.2211 28.9215 58.3319 28.9939 58.4043C29.0662 58.4766 29.1595 58.5128 29.2739 58.5128C29.3392 58.5128 29.3952 58.5046 29.4419 58.4883C29.4909 58.4696 29.5329 58.4498 29.5679 58.4288C29.6029 58.4078 29.632 58.3891 29.6554 58.3728C29.681 58.3541 29.7032 58.3448 29.7219 58.3448C29.7545 58.3448 29.7837 58.3646 29.8094 58.4043L29.9914 58.7018C29.884 58.8021 29.7545 58.8814 29.6029 58.9398C29.4512 58.9958 29.2949 59.0238 29.1339 59.0238Z" fill="white"/>
<rect y="102.24" width="40" height="10.3896" fill="white" fill-opacity="0.2"/>
<path d="M7.829 108.942C7.86633 108.942 7.899 108.957 7.927 108.987L8.1965 109.278C7.99117 109.516 7.7415 109.701 7.4475 109.834C7.15583 109.967 6.80233 110.034 6.387 110.034C6.02767 110.034 5.701 109.972 5.407 109.848C5.113 109.722 4.86217 109.547 4.6545 109.323C4.44683 109.097 4.28583 108.826 4.1715 108.511C4.05717 108.196 4 107.85 4 107.472C4 107.094 4.0595 106.747 4.1785 106.432C4.2975 106.117 4.46433 105.846 4.679 105.62C4.896 105.394 5.155 105.219 5.456 105.095C5.757 104.969 6.0895 104.906 6.4535 104.906C6.8105 104.906 7.1255 104.963 7.3985 105.078C7.6715 105.192 7.91183 105.347 8.1195 105.543L7.8955 105.855C7.8815 105.878 7.86283 105.898 7.8395 105.914C7.8185 105.928 7.78933 105.935 7.752 105.935C7.71 105.935 7.65867 105.913 7.598 105.869C7.53733 105.822 7.458 105.771 7.36 105.715C7.262 105.659 7.1395 105.608 6.9925 105.564C6.8455 105.517 6.66467 105.494 6.45 105.494C6.191 105.494 5.95417 105.54 5.7395 105.631C5.52483 105.719 5.33933 105.849 5.183 106.019C5.029 106.189 4.90883 106.397 4.8225 106.642C4.73617 106.887 4.693 107.164 4.693 107.472C4.693 107.784 4.73733 108.063 4.826 108.308C4.917 108.553 5.0395 108.761 5.1935 108.931C5.34983 109.099 5.533 109.227 5.743 109.316C5.95533 109.405 6.184 109.449 6.429 109.449C6.57833 109.449 6.7125 109.441 6.8315 109.425C6.95283 109.406 7.06367 109.378 7.164 109.341C7.26667 109.303 7.36117 109.257 7.4475 109.201C7.53617 109.142 7.62367 109.073 7.71 108.994C7.74967 108.959 7.78933 108.942 7.829 108.942Z" fill="white"/>
<path d="M9.46328 106.905C9.61495 106.744 9.78295 106.615 9.96728 106.52C10.1516 106.424 10.3639 106.376 10.6043 106.376C10.7979 106.376 10.9683 106.409 11.1153 106.474C11.2646 106.537 11.3883 106.628 11.4863 106.747C11.5866 106.864 11.6624 107.005 11.7138 107.171C11.7651 107.336 11.7908 107.519 11.7908 107.72V109.978H11.1643V107.72C11.1643 107.452 11.1024 107.244 10.9788 107.097C10.8574 106.948 10.6719 106.873 10.4223 106.873C10.2379 106.873 10.0653 106.917 9.90428 107.006C9.74561 107.095 9.59861 107.215 9.46328 107.367V109.978H8.83678V104.822H9.46328V106.905Z" fill="white"/>
<path d="M12.6351 109.593C12.6351 109.532 12.6456 109.475 12.6666 109.421C12.6899 109.367 12.7203 109.321 12.7576 109.281C12.7973 109.241 12.8439 109.21 12.8976 109.187C12.9513 109.163 13.0084 109.152 13.0691 109.152C13.1298 109.152 13.1869 109.163 13.2406 109.187C13.2943 109.21 13.3409 109.241 13.3806 109.281C13.4203 109.321 13.4518 109.367 13.4751 109.421C13.4984 109.475 13.5101 109.532 13.5101 109.593C13.5101 109.656 13.4984 109.714 13.4751 109.768C13.4518 109.819 13.4203 109.864 13.3806 109.904C13.3409 109.944 13.2943 109.974 13.2406 109.995C13.1869 110.018 13.1298 110.03 13.0691 110.03C13.0084 110.03 12.9513 110.018 12.8976 109.995C12.8439 109.974 12.7973 109.944 12.7576 109.904C12.7203 109.864 12.6899 109.819 12.6666 109.768C12.6456 109.714 12.6351 109.656 12.6351 109.593Z" fill="white"/>
<path d="M18.8979 105.746C18.8769 105.781 18.8536 105.808 18.8279 105.827C18.8046 105.843 18.7754 105.851 18.7404 105.851C18.7007 105.851 18.6541 105.831 18.6004 105.792C18.5467 105.752 18.4791 105.709 18.3974 105.662C18.3181 105.613 18.2212 105.569 18.1069 105.529C17.9949 105.489 17.8584 105.47 17.6974 105.47C17.5457 105.47 17.4116 105.491 17.2949 105.533C17.1806 105.572 17.0837 105.627 17.0044 105.697C16.9274 105.767 16.8691 105.85 16.8294 105.946C16.7897 106.039 16.7699 106.14 16.7699 106.25C16.7699 106.39 16.8037 106.507 16.8714 106.6C16.9414 106.691 17.0324 106.769 17.1444 106.835C17.2587 106.9 17.3871 106.957 17.5294 107.006C17.6741 107.053 17.8211 107.102 17.9704 107.153C18.1221 107.204 18.2691 107.263 18.4114 107.328C18.5561 107.391 18.6844 107.472 18.7964 107.57C18.9107 107.668 19.0017 107.788 19.0694 107.93C19.1394 108.072 19.1744 108.247 19.1744 108.455C19.1744 108.674 19.1371 108.881 19.0624 109.075C18.9877 109.266 18.8781 109.433 18.7334 109.575C18.5911 109.717 18.4149 109.829 18.2049 109.911C17.9972 109.993 17.7604 110.034 17.4944 110.034C17.1677 110.034 16.8714 109.975 16.6054 109.859C16.3394 109.74 16.1119 109.58 15.9229 109.379L16.1189 109.057C16.1376 109.031 16.1597 109.01 16.1854 108.994C16.2134 108.975 16.2437 108.966 16.2764 108.966C16.3067 108.966 16.3406 108.979 16.3779 109.005C16.4176 109.028 16.4619 109.058 16.5109 109.096C16.5599 109.133 16.6159 109.174 16.6789 109.218C16.7419 109.262 16.8131 109.303 16.8924 109.341C16.9741 109.378 17.0662 109.409 17.1689 109.435C17.2716 109.458 17.3871 109.47 17.5154 109.47C17.6764 109.47 17.8199 109.448 17.9459 109.404C18.0719 109.359 18.1781 109.297 18.2644 109.218C18.3531 109.136 18.4207 109.04 18.4674 108.928C18.5141 108.816 18.5374 108.691 18.5374 108.553C18.5374 108.401 18.5024 108.278 18.4324 108.182C18.3647 108.084 18.2749 108.002 18.1629 107.937C18.0509 107.872 17.9226 107.817 17.7779 107.773C17.6332 107.726 17.4862 107.679 17.3369 107.633C17.1876 107.584 17.0406 107.528 16.8959 107.465C16.7512 107.402 16.6229 107.32 16.5109 107.22C16.3989 107.119 16.3079 106.994 16.2379 106.845C16.1702 106.693 16.1364 106.507 16.1364 106.285C16.1364 106.108 16.1702 105.936 16.2379 105.771C16.3079 105.605 16.4082 105.458 16.5389 105.33C16.6719 105.201 16.8341 105.099 17.0254 105.022C17.2191 104.945 17.4407 104.906 17.6904 104.906C17.9704 104.906 18.2247 104.95 18.4534 105.039C18.6844 105.128 18.8874 105.256 19.0624 105.424L18.8979 105.746Z" fill="white"/>
<path d="M20.5375 109.124C20.6518 109.278 20.7767 109.386 20.912 109.449C21.0473 109.512 21.199 109.544 21.367 109.544C21.6983 109.544 21.9527 109.426 22.13 109.19C22.3073 108.954 22.396 108.618 22.396 108.182C22.396 107.951 22.375 107.753 22.333 107.587C22.2933 107.421 22.235 107.286 22.158 107.181C22.081 107.074 21.9865 106.996 21.8745 106.947C21.7625 106.898 21.6353 106.873 21.493 106.873C21.29 106.873 21.1115 106.92 20.9575 107.013C20.8058 107.106 20.6658 107.238 20.5375 107.409V109.124ZM20.506 106.982C20.6553 106.797 20.828 106.649 21.024 106.537C21.22 106.425 21.444 106.369 21.696 106.369C21.9013 106.369 22.0868 106.409 22.2525 106.488C22.4182 106.565 22.5593 106.681 22.676 106.835C22.7927 106.986 22.8825 107.175 22.9455 107.402C23.0085 107.628 23.04 107.888 23.04 108.182C23.04 108.443 23.005 108.687 22.935 108.914C22.865 109.138 22.7635 109.332 22.6305 109.498C22.4998 109.661 22.3388 109.791 22.1475 109.887C21.9585 109.98 21.745 110.027 21.507 110.027C21.29 110.027 21.1033 109.99 20.947 109.918C20.793 109.843 20.6565 109.741 20.5375 109.61V111.178H19.911V106.432H20.2855C20.3742 106.432 20.429 106.475 20.45 106.562L20.506 106.982Z" fill="white"/>
<path d="M24.4788 104.822V109.978H23.8558V104.822H24.4788Z" fill="white"/>
<path d="M26.1471 106.432V109.978H25.5241V106.432H26.1471ZM26.2801 105.319C26.2801 105.38 26.2673 105.437 26.2416 105.491C26.2183 105.542 26.1856 105.589 26.1436 105.631C26.104 105.67 26.0561 105.702 26.0001 105.725C25.9465 105.748 25.8893 105.76 25.8286 105.76C25.768 105.76 25.7108 105.748 25.6571 105.725C25.6058 105.702 25.5603 105.67 25.5206 105.631C25.481 105.589 25.4495 105.542 25.4261 105.491C25.4028 105.437 25.3911 105.38 25.3911 105.319C25.3911 105.258 25.4028 105.201 25.4261 105.148C25.4495 105.092 25.481 105.044 25.5206 105.004C25.5603 104.962 25.6058 104.929 25.6571 104.906C25.7108 104.883 25.768 104.871 25.8286 104.871C25.8893 104.871 25.9465 104.883 26.0001 104.906C26.0561 104.929 26.104 104.962 26.1436 105.004C26.1856 105.044 26.2183 105.092 26.2416 105.148C26.2673 105.201 26.2801 105.258 26.2801 105.319Z" fill="white"/>
<path d="M28.2593 110.034C27.9793 110.034 27.7634 109.955 27.6118 109.799C27.4624 109.643 27.3878 109.418 27.3878 109.124V106.954H26.9608C26.9234 106.954 26.8919 106.943 26.8663 106.922C26.8406 106.899 26.8278 106.864 26.8278 106.817V106.569L27.4088 106.495L27.5523 105.4C27.5593 105.365 27.5744 105.337 27.5978 105.316C27.6234 105.292 27.6561 105.281 27.6958 105.281H28.0108V106.502H29.0363V106.954H28.0108V109.082C28.0108 109.231 28.0469 109.342 28.1193 109.414C28.1916 109.486 28.2849 109.523 28.3993 109.523C28.4646 109.523 28.5206 109.514 28.5673 109.498C28.6163 109.479 28.6583 109.46 28.6933 109.439C28.7283 109.418 28.7574 109.399 28.7808 109.383C28.8064 109.364 28.8286 109.355 28.8473 109.355C28.8799 109.355 28.9091 109.374 28.9348 109.414L29.1168 109.712C29.0094 109.812 28.8799 109.891 28.7283 109.95C28.5766 110.006 28.4203 110.034 28.2593 110.034Z" fill="white"/>
<rect y="153.11" width="40" height="10.3896" fill="white" fill-opacity="0.2"/>
<path d="M8.347 158.349C8.347 158.725 8.2875 159.066 8.1685 159.374C8.0495 159.682 7.8815 159.946 7.6645 160.165C7.4475 160.385 7.18617 160.555 6.8805 160.676C6.57717 160.795 6.24117 160.855 5.8725 160.855H4V155.839H5.8725C6.24117 155.839 6.57717 155.9 6.8805 156.021C7.18617 156.14 7.4475 156.311 7.6645 156.532C7.8815 156.752 8.0495 157.015 8.1685 157.323C8.2875 157.631 8.347 157.973 8.347 158.349ZM7.6505 158.349C7.6505 158.041 7.6085 157.766 7.5245 157.523C7.4405 157.28 7.3215 157.075 7.1675 156.907C7.0135 156.739 6.82683 156.611 6.6075 156.522C6.38817 156.433 6.14317 156.389 5.8725 156.389H4.679V160.305H5.8725C6.14317 160.305 6.38817 160.261 6.6075 160.172C6.82683 160.084 7.0135 159.957 7.1675 159.791C7.3215 159.623 7.4405 159.418 7.5245 159.175C7.6085 158.932 7.6505 158.657 7.6505 158.349Z" fill="white"/>
<path d="M12.039 157.309V160.855H11.668C11.5793 160.855 11.5233 160.812 11.5 160.725L11.451 160.344C11.297 160.514 11.1243 160.652 10.933 160.757C10.7417 160.86 10.5223 160.911 10.275 160.911C10.0813 160.911 9.90984 160.879 9.76051 160.816C9.61351 160.751 9.48984 160.66 9.38951 160.543C9.28917 160.427 9.21334 160.286 9.16201 160.12C9.11301 159.954 9.08851 159.771 9.08851 159.57V157.309H9.71151V159.57C9.71151 159.839 9.77217 160.046 9.89351 160.193C10.0172 160.34 10.205 160.414 10.457 160.414C10.6413 160.414 10.8128 160.371 10.9715 160.284C11.1325 160.196 11.2807 160.074 11.416 159.92V157.309H12.039Z" fill="white"/>
<path d="M14.9483 159.259C14.6613 159.268 14.4163 159.292 14.2133 159.329C14.0127 159.364 13.8482 159.411 13.7198 159.469C13.5938 159.527 13.5017 159.596 13.4433 159.675C13.3873 159.755 13.3593 159.843 13.3593 159.941C13.3593 160.035 13.3745 160.115 13.4048 160.183C13.4352 160.251 13.476 160.307 13.5273 160.351C13.581 160.393 13.6428 160.424 13.7128 160.445C13.7852 160.464 13.8622 160.473 13.9438 160.473C14.0535 160.473 14.1538 160.463 14.2448 160.442C14.3358 160.419 14.421 160.386 14.5003 160.344C14.582 160.302 14.659 160.252 14.7313 160.193C14.806 160.135 14.8783 160.069 14.9483 159.994V159.259ZM12.9358 157.81C13.1318 157.621 13.343 157.48 13.5693 157.386C13.7957 157.293 14.0465 157.246 14.3218 157.246C14.5202 157.246 14.6963 157.279 14.8503 157.344C15.0043 157.41 15.1338 157.501 15.2388 157.617C15.3438 157.734 15.4232 157.875 15.4768 158.041C15.5305 158.207 15.5573 158.389 15.5573 158.587V160.855H15.2808C15.2202 160.855 15.1735 160.846 15.1408 160.827C15.1082 160.806 15.0825 160.766 15.0638 160.708L14.9938 160.372C14.9005 160.458 14.8095 160.535 14.7208 160.603C14.6322 160.668 14.5388 160.724 14.4408 160.771C14.3428 160.815 14.2378 160.849 14.1258 160.872C14.0162 160.898 13.8937 160.911 13.7583 160.911C13.6207 160.911 13.4912 160.892 13.3698 160.855C13.2485 160.815 13.1423 160.757 13.0513 160.68C12.9627 160.603 12.8915 160.506 12.8378 160.389C12.7865 160.27 12.7608 160.13 12.7608 159.969C12.7608 159.829 12.7993 159.695 12.8763 159.567C12.9533 159.436 13.0782 159.321 13.2508 159.22C13.4235 159.12 13.6487 159.038 13.9263 158.975C14.204 158.91 14.5447 158.873 14.9483 158.863V158.587C14.9483 158.312 14.8888 158.104 14.7698 157.964C14.6508 157.822 14.477 157.75 14.2483 157.75C14.0943 157.75 13.9648 157.77 13.8598 157.81C13.7572 157.847 13.6673 157.89 13.5903 157.939C13.5157 157.986 13.4503 158.029 13.3943 158.069C13.3407 158.106 13.287 158.125 13.2333 158.125C13.1913 158.125 13.1552 158.114 13.1248 158.093C13.0945 158.07 13.0688 158.042 13.0478 158.009L12.9358 157.81Z" fill="white"/>
<path d="M17.1503 155.699V160.855H16.5273V155.699H17.1503Z" fill="white"/>
</svg>
