<svg width="31" height="24" viewBox="0 0 31 24" fill="none" xmlns="http://www.w3.org/2000/svg">
<g clip-path="url(#clip0_204_7979)">
<path d="M13.5787 15.134V20.866H12.8987V16.654C12.8987 16.598 12.9001 16.538 12.9027 16.474C12.9081 16.41 12.9134 16.3446 12.9187 16.278L10.9507 19.862C10.8894 19.982 10.7961 20.042 10.6707 20.042H10.5587C10.4334 20.042 10.3401 19.982 10.2787 19.862L8.27075 16.262C8.28675 16.4033 8.29475 16.534 8.29475 16.654V20.866H7.61475V15.134H8.18675C8.25608 15.134 8.30941 15.1406 8.34675 15.154C8.38408 15.1673 8.42008 15.2046 8.45475 15.266L10.4347 18.794C10.4667 18.858 10.4974 18.9246 10.5267 18.994C10.5587 19.0633 10.5881 19.134 10.6147 19.206C10.6414 19.134 10.6694 19.0633 10.6987 18.994C10.7281 18.922 10.7601 18.854 10.7947 18.79L12.7387 15.266C12.7707 15.2046 12.8054 15.1673 12.8427 15.154C12.8827 15.1406 12.9374 15.134 13.0067 15.134H13.5787Z" fill="white"/>
<path d="M16.7364 18.106C16.9578 18.106 17.1524 18.0766 17.3204 18.018C17.4911 17.9593 17.6338 17.878 17.7484 17.774C17.8658 17.6673 17.9538 17.5406 18.0124 17.394C18.0711 17.2473 18.1004 17.086 18.1004 16.91C18.1004 16.5446 17.9871 16.2593 17.7604 16.054C17.5364 15.8486 17.1951 15.746 16.7364 15.746H15.8164V18.106H16.7364ZM16.7364 15.134C17.0991 15.134 17.4138 15.1766 17.6804 15.262C17.9498 15.3446 18.1724 15.4633 18.3484 15.618C18.5244 15.7726 18.6551 15.9593 18.7404 16.178C18.8284 16.3966 18.8724 16.6406 18.8724 16.91C18.8724 17.1766 18.8258 17.4206 18.7324 17.642C18.6391 17.8633 18.5018 18.054 18.3204 18.214C18.1418 18.374 17.9191 18.4993 17.6524 18.59C17.3884 18.678 17.0831 18.722 16.7364 18.722H15.8164V20.866H15.0444V15.134H16.7364Z" fill="white"/>
<path d="M23.3851 20.234L23.3811 20.866H19.8491V15.134H23.3811V15.766H20.6251V17.67H22.8571V18.278H20.6251V20.234H23.3851Z" fill="white"/>
<rect y="12.5" width="31" height="11" fill="white" fill-opacity="0.2"/>
<path d="M13.5787 3.13397V8.86597H12.8987V4.65397C12.8987 4.59797 12.9001 4.53797 12.9027 4.47397C12.9081 4.40997 12.9134 4.34464 12.9187 4.27797L10.9507 7.86197C10.8894 7.98197 10.7961 8.04197 10.6707 8.04197H10.5587C10.4334 8.04197 10.3401 7.98197 10.2787 7.86197L8.27075 4.26197C8.28675 4.40331 8.29475 4.53397 8.29475 4.65397V8.86597H7.61475V3.13397H8.18675C8.25608 3.13397 8.30941 3.14064 8.34675 3.15397C8.38408 3.16731 8.42008 3.20464 8.45475 3.26597L10.4347 6.79397C10.4667 6.85797 10.4974 6.92464 10.5267 6.99397C10.5587 7.06331 10.5881 7.13397 10.6147 7.20597C10.6414 7.13397 10.6694 7.06331 10.6987 6.99397C10.7281 6.92197 10.7601 6.85397 10.7947 6.78997L12.7387 3.26597C12.7707 3.20464 12.8054 3.16731 12.8427 3.15397C12.8827 3.14064 12.9374 3.13397 13.0067 3.13397H13.5787Z" fill="white"/>
<path d="M16.7364 6.10597C16.9578 6.10597 17.1524 6.07664 17.3204 6.01797C17.4911 5.95931 17.6338 5.87797 17.7484 5.77397C17.8658 5.66731 17.9538 5.54064 18.0124 5.39397C18.0711 5.24731 18.1004 5.08597 18.1004 4.90997C18.1004 4.54464 17.9871 4.25931 17.7604 4.05397C17.5364 3.84864 17.1951 3.74597 16.7364 3.74597H15.8164V6.10597H16.7364ZM16.7364 3.13397C17.0991 3.13397 17.4138 3.17664 17.6804 3.26197C17.9498 3.34464 18.1724 3.46331 18.3484 3.61797C18.5244 3.77264 18.6551 3.95931 18.7404 4.17797C18.8284 4.39664 18.8724 4.64064 18.8724 4.90997C18.8724 5.17664 18.8258 5.42064 18.7324 5.64197C18.6391 5.86331 18.5018 6.05397 18.3204 6.21397C18.1418 6.37397 17.9191 6.49931 17.6524 6.58997C17.3884 6.67797 17.0831 6.72197 16.7364 6.72197H15.8164V8.86597H15.0444V3.13397H16.7364Z" fill="white"/>
<path d="M23.3851 8.23397L23.3811 8.86597H19.8491V3.13397H23.3811V3.76597H20.6251V5.66997H22.8571V6.27797H20.6251V8.23397H23.3851Z" fill="white"/>
<rect y="0.5" width="31" height="11" fill="white" fill-opacity="0.2"/>
</g>
<defs>
<clipPath id="clip0_204_7979">
<rect width="31" height="24" fill="white"/>
</clipPath>
</defs>
</svg>
