<svg width="50" height="28" viewBox="0 0 50 28" fill="none" xmlns="http://www.w3.org/2000/svg">
<rect y="14" width="50" height="13" fill="white" fill-opacity="0.2"/>
<rect width="50" height="13" fill="white" fill-opacity="0.2"/>
<path d="M12.6685 8.87601C12.9058 8.87601 13.1178 8.83601 13.3045 8.75601C13.4911 8.67601 13.6485 8.56401 13.7765 8.42001C13.9071 8.27601 14.0058 8.10401 14.0725 7.90401C14.1418 7.70401 14.1765 7.48401 14.1765 7.24401V3.76001H14.9485V7.24401C14.9485 7.57467 14.8951 7.88134 14.7885 8.16401C14.6845 8.44667 14.5338 8.69201 14.3365 8.90001C14.1418 9.10534 13.9031 9.26667 13.6205 9.38401C13.3378 9.50134 13.0205 9.56001 12.6685 9.56001C12.3165 9.56001 11.9991 9.50134 11.7165 9.38401C11.4338 9.26667 11.1938 9.10534 10.9965 8.90001C10.7991 8.69201 10.6471 8.44667 10.5405 8.16401C10.4365 7.88134 10.3845 7.57467 10.3845 7.24401V3.76001H11.1565V7.24001C11.1565 7.48001 11.1898 7.70001 11.2565 7.90001C11.3258 8.10001 11.4245 8.27201 11.5525 8.41601C11.6831 8.56001 11.8418 8.67334 12.0285 8.75601C12.2178 8.83601 12.4311 8.87601 12.6685 8.87601Z" fill="white"/>
<path d="M16.7261 6.02801C16.8141 5.92934 16.9074 5.84001 17.0061 5.76001C17.1048 5.68001 17.2088 5.61201 17.3181 5.55601C17.4301 5.49734 17.5474 5.45334 17.6701 5.42401C17.7954 5.39201 17.9301 5.37601 18.0741 5.37601C18.2954 5.37601 18.4901 5.41334 18.6581 5.48801C18.8288 5.56001 18.9701 5.66401 19.0821 5.80001C19.1968 5.93334 19.2834 6.09467 19.3421 6.28401C19.4008 6.47334 19.4301 6.68267 19.4301 6.91201V9.49201H18.7141V6.91201C18.7141 6.60534 18.6434 6.36801 18.5021 6.20001C18.3634 6.02934 18.1514 5.94401 17.8661 5.94401C17.6554 5.94401 17.4581 5.99467 17.2741 6.09601C17.0928 6.19734 16.9248 6.33467 16.7701 6.50801V9.49201H16.0541V5.44001H16.4821C16.5834 5.44001 16.6461 5.48934 16.6701 5.58801L16.7261 6.02801Z" fill="white"/>
<path d="M21.267 5.44001V9.49201H20.555V5.44001H21.267ZM21.419 4.16801C21.419 4.23734 21.4044 4.30267 21.375 4.36401C21.3484 4.42267 21.311 4.47601 21.263 4.52401C21.2177 4.56934 21.163 4.60534 21.099 4.63201C21.0377 4.65867 20.9724 4.67201 20.903 4.67201C20.8337 4.67201 20.7684 4.65867 20.707 4.63201C20.6484 4.60534 20.5964 4.56934 20.551 4.52401C20.5057 4.47601 20.4697 4.42267 20.443 4.36401C20.4164 4.30267 20.403 4.23734 20.403 4.16801C20.403 4.09867 20.4164 4.03334 20.443 3.97201C20.4697 3.90801 20.5057 3.85334 20.551 3.80801C20.5964 3.76001 20.6484 3.72267 20.707 3.69601C20.7684 3.66934 20.8337 3.65601 20.903 3.65601C20.9724 3.65601 21.0377 3.66934 21.099 3.69601C21.163 3.72267 21.2177 3.76001 21.263 3.80801C21.311 3.85334 21.3484 3.90801 21.375 3.97201C21.4044 4.03334 21.419 4.09867 21.419 4.16801Z" fill="white"/>
<path d="M23.1529 8.51601C23.2836 8.69201 23.4262 8.81601 23.5809 8.88801C23.7356 8.96001 23.9089 8.99601 24.1009 8.99601C24.4796 8.99601 24.7702 8.86134 24.9729 8.59201C25.1756 8.32267 25.2769 7.93867 25.2769 7.44001C25.2769 7.17601 25.2529 6.94934 25.2049 6.76001C25.1596 6.57067 25.0929 6.41601 25.0049 6.29601C24.9169 6.17334 24.8089 6.08401 24.6809 6.02801C24.5529 5.97201 24.4076 5.94401 24.2449 5.94401C24.0129 5.94401 23.8089 5.99734 23.6329 6.10401C23.4596 6.21067 23.2996 6.36134 23.1529 6.55601V8.51601ZM23.1169 6.06801C23.2876 5.85734 23.4849 5.68801 23.7089 5.56001C23.9329 5.43201 24.1889 5.36801 24.4769 5.36801C24.7116 5.36801 24.9236 5.41334 25.1129 5.50401C25.3022 5.59201 25.4636 5.72401 25.5969 5.90001C25.7302 6.07334 25.8329 6.28934 25.9049 6.54801C25.9769 6.80667 26.0129 7.10401 26.0129 7.44001C26.0129 7.73867 25.9729 8.01734 25.8929 8.27601C25.8129 8.53201 25.6969 8.75467 25.5449 8.94401C25.3956 9.13067 25.2116 9.27867 24.9929 9.38801C24.7769 9.49467 24.5329 9.54801 24.2609 9.54801C24.0129 9.54801 23.7996 9.50667 23.6209 9.42401C23.4449 9.33867 23.2889 9.22134 23.1529 9.07201V10.864H22.4369V5.44001H22.8649C22.9662 5.44001 23.0289 5.48934 23.0529 5.58801L23.1169 6.06801Z" fill="white"/>
<path d="M28.6293 5.37601C28.9253 5.37601 29.192 5.42534 29.4293 5.52401C29.6666 5.62267 29.8693 5.76267 30.0373 5.94401C30.2053 6.12534 30.3333 6.34534 30.4213 6.60401C30.512 6.86001 30.5573 7.14667 30.5573 7.46401C30.5573 7.78401 30.512 8.07201 30.4213 8.32801C30.3333 8.58401 30.2053 8.80267 30.0373 8.98401C29.8693 9.16534 29.6666 9.30534 29.4293 9.40401C29.192 9.50001 28.9253 9.54801 28.6293 9.54801C28.3306 9.54801 28.0613 9.50001 27.8213 9.40401C27.584 9.30534 27.3813 9.16534 27.2133 8.98401C27.0453 8.80267 26.916 8.58401 26.8253 8.32801C26.7373 8.07201 26.6933 7.78401 26.6933 7.46401C26.6933 7.14667 26.7373 6.86001 26.8253 6.60401C26.916 6.34534 27.0453 6.12534 27.2133 5.94401C27.3813 5.76267 27.584 5.62267 27.8213 5.52401C28.0613 5.42534 28.3306 5.37601 28.6293 5.37601ZM28.6293 8.99201C29.0293 8.99201 29.328 8.85867 29.5253 8.59201C29.7226 8.32267 29.8213 7.94801 29.8213 7.46801C29.8213 6.98534 29.7226 6.60934 29.5253 6.34001C29.328 6.07067 29.0293 5.93601 28.6293 5.93601C28.4266 5.93601 28.2493 5.97067 28.0973 6.04001C27.948 6.10934 27.8226 6.20934 27.7213 6.34001C27.6226 6.47067 27.548 6.63201 27.4973 6.82401C27.4493 7.01334 27.4253 7.22801 27.4253 7.46801C27.4253 7.94801 27.524 8.32267 27.7213 8.59201C27.9213 8.85867 28.224 8.99201 28.6293 8.99201Z" fill="white"/>
<path d="M32.1964 3.60001V9.49201H31.4844V3.60001H32.1964Z" fill="white"/>
<path d="M35.547 7.66801C35.219 7.67867 34.939 7.70534 34.707 7.74801C34.4776 7.78801 34.2896 7.84134 34.143 7.90801C33.999 7.97467 33.8936 8.05334 33.827 8.14401C33.763 8.23467 33.731 8.33601 33.731 8.44801C33.731 8.55467 33.7483 8.64667 33.783 8.72401C33.8176 8.80134 33.8643 8.86534 33.923 8.91601C33.9843 8.96401 34.055 9.00001 34.135 9.02401C34.2176 9.04534 34.3056 9.05601 34.399 9.05601C34.5243 9.05601 34.639 9.04401 34.743 9.02001C34.847 8.99334 34.9443 8.95601 35.035 8.90801C35.1283 8.86001 35.2163 8.80267 35.299 8.73601C35.3843 8.66934 35.467 8.59334 35.547 8.50801V7.66801ZM33.247 6.01201C33.471 5.79601 33.7123 5.63467 33.971 5.52801C34.2296 5.42134 34.5163 5.36801 34.831 5.36801C35.0576 5.36801 35.259 5.40534 35.435 5.48001C35.611 5.55467 35.759 5.65867 35.879 5.79201C35.999 5.92534 36.0896 6.08667 36.151 6.27601C36.2123 6.46534 36.243 6.67334 36.243 6.90001V9.49201H35.927C35.8576 9.49201 35.8043 9.48134 35.767 9.46001C35.7296 9.43601 35.7003 9.39067 35.679 9.32401L35.599 8.94001C35.4923 9.03867 35.3883 9.12667 35.287 9.20401C35.1856 9.27867 35.079 9.34267 34.967 9.39601C34.855 9.44667 34.735 9.48534 34.607 9.51201C34.4816 9.54134 34.3416 9.55601 34.187 9.55601C34.0296 9.55601 33.8816 9.53467 33.743 9.49201C33.6043 9.44667 33.483 9.38001 33.379 9.29201C33.2776 9.20401 33.1963 9.09334 33.135 8.96001C33.0763 8.82401 33.047 8.66401 33.047 8.48001C33.047 8.32001 33.091 8.16667 33.179 8.02001C33.267 7.87067 33.4096 7.73867 33.607 7.62401C33.8043 7.50934 34.0616 7.41601 34.379 7.34401C34.6963 7.26934 35.0856 7.22667 35.547 7.21601V6.90001C35.547 6.58534 35.479 6.34801 35.343 6.18801C35.207 6.02534 35.0083 5.94401 34.747 5.94401C34.571 5.94401 34.423 5.96667 34.303 6.01201C34.1856 6.05467 34.083 6.10401 33.995 6.16001C33.9096 6.21334 33.835 6.26267 33.771 6.30801C33.7096 6.35067 33.6483 6.37201 33.587 6.37201C33.539 6.37201 33.4976 6.36001 33.463 6.33601C33.4283 6.30934 33.399 6.27734 33.375 6.24001L33.247 6.01201Z" fill="white"/>
<path d="M38.0035 6.25201C38.1315 5.97467 38.2889 5.75867 38.4755 5.60401C38.6622 5.44667 38.8902 5.36801 39.1595 5.36801C39.2449 5.36801 39.3262 5.37734 39.4035 5.39601C39.4835 5.41467 39.5542 5.44401 39.6155 5.48401L39.5635 6.01601C39.5475 6.08267 39.5075 6.11601 39.4435 6.11601C39.4062 6.11601 39.3515 6.10801 39.2795 6.09201C39.2075 6.07601 39.1262 6.06801 39.0355 6.06801C38.9075 6.06801 38.7929 6.08667 38.6915 6.12401C38.5929 6.16134 38.5035 6.21734 38.4235 6.29201C38.3462 6.36401 38.2755 6.45467 38.2115 6.56401C38.1502 6.67067 38.0942 6.79334 38.0435 6.93201V9.49201H37.3275V5.44001H37.7355C37.8129 5.44001 37.8662 5.45467 37.8955 5.48401C37.9249 5.51334 37.9449 5.56401 37.9555 5.63601L38.0035 6.25201Z" fill="white"/>
<path d="M12.6685 22.876C12.9058 22.876 13.1178 22.836 13.3045 22.756C13.4911 22.676 13.6485 22.564 13.7765 22.42C13.9071 22.276 14.0058 22.104 14.0725 21.904C14.1418 21.704 14.1765 21.484 14.1765 21.244V17.76H14.9485V21.244C14.9485 21.5746 14.8951 21.8813 14.7885 22.164C14.6845 22.4466 14.5338 22.692 14.3365 22.9C14.1418 23.1053 13.9031 23.2666 13.6205 23.384C13.3378 23.5013 13.0205 23.56 12.6685 23.56C12.3165 23.56 11.9991 23.5013 11.7165 23.384C11.4338 23.2666 11.1938 23.1053 10.9965 22.9C10.7991 22.692 10.6471 22.4466 10.5405 22.164C10.4365 21.8813 10.3845 21.5746 10.3845 21.244V17.76H11.1565V21.24C11.1565 21.48 11.1898 21.7 11.2565 21.9C11.3258 22.1 11.4245 22.272 11.5525 22.416C11.6831 22.56 11.8418 22.6733 12.0285 22.756C12.2178 22.836 12.4311 22.876 12.6685 22.876Z" fill="white"/>
<path d="M16.7261 20.028C16.8141 19.9293 16.9074 19.84 17.0061 19.76C17.1048 19.68 17.2088 19.612 17.3181 19.556C17.4301 19.4973 17.5474 19.4533 17.6701 19.424C17.7954 19.392 17.9301 19.376 18.0741 19.376C18.2954 19.376 18.4901 19.4133 18.6581 19.488C18.8288 19.56 18.9701 19.664 19.0821 19.8C19.1968 19.9333 19.2834 20.0946 19.3421 20.284C19.4008 20.4733 19.4301 20.6826 19.4301 20.912V23.492H18.7141V20.912C18.7141 20.6053 18.6434 20.368 18.5021 20.2C18.3634 20.0293 18.1514 19.944 17.8661 19.944C17.6554 19.944 17.4581 19.9946 17.2741 20.096C17.0928 20.1973 16.9248 20.3346 16.7701 20.508V23.492H16.0541V19.44H16.4821C16.5834 19.44 16.6461 19.4893 16.6701 19.588L16.7261 20.028Z" fill="white"/>
<path d="M21.267 19.44V23.492H20.555V19.44H21.267ZM21.419 18.168C21.419 18.2373 21.4044 18.3026 21.375 18.364C21.3484 18.4226 21.311 18.476 21.263 18.524C21.2177 18.5693 21.163 18.6053 21.099 18.632C21.0377 18.6586 20.9724 18.672 20.903 18.672C20.8337 18.672 20.7684 18.6586 20.707 18.632C20.6484 18.6053 20.5964 18.5693 20.551 18.524C20.5057 18.476 20.4697 18.4226 20.443 18.364C20.4164 18.3026 20.403 18.2373 20.403 18.168C20.403 18.0986 20.4164 18.0333 20.443 17.972C20.4697 17.908 20.5057 17.8533 20.551 17.808C20.5964 17.76 20.6484 17.7226 20.707 17.696C20.7684 17.6693 20.8337 17.656 20.903 17.656C20.9724 17.656 21.0377 17.6693 21.099 17.696C21.163 17.7226 21.2177 17.76 21.263 17.808C21.311 17.8533 21.3484 17.908 21.375 17.972C21.4044 18.0333 21.419 18.0986 21.419 18.168Z" fill="white"/>
<path d="M23.1529 22.516C23.2836 22.692 23.4262 22.816 23.5809 22.888C23.7356 22.96 23.9089 22.996 24.1009 22.996C24.4796 22.996 24.7702 22.8613 24.9729 22.592C25.1756 22.3226 25.2769 21.9386 25.2769 21.44C25.2769 21.176 25.2529 20.9493 25.2049 20.76C25.1596 20.5706 25.0929 20.416 25.0049 20.296C24.9169 20.1733 24.8089 20.084 24.6809 20.028C24.5529 19.972 24.4076 19.944 24.2449 19.944C24.0129 19.944 23.8089 19.9973 23.6329 20.104C23.4596 20.2106 23.2996 20.3613 23.1529 20.556V22.516ZM23.1169 20.068C23.2876 19.8573 23.4849 19.688 23.7089 19.56C23.9329 19.432 24.1889 19.368 24.4769 19.368C24.7116 19.368 24.9236 19.4133 25.1129 19.504C25.3022 19.592 25.4636 19.724 25.5969 19.9C25.7302 20.0733 25.8329 20.2893 25.9049 20.548C25.9769 20.8066 26.0129 21.104 26.0129 21.44C26.0129 21.7386 25.9729 22.0173 25.8929 22.276C25.8129 22.532 25.6969 22.7546 25.5449 22.944C25.3956 23.1306 25.2116 23.2786 24.9929 23.388C24.7769 23.4946 24.5329 23.548 24.2609 23.548C24.0129 23.548 23.7996 23.5066 23.6209 23.424C23.4449 23.3386 23.2889 23.2213 23.1529 23.072V24.864H22.4369V19.44H22.8649C22.9662 19.44 23.0289 19.4893 23.0529 19.588L23.1169 20.068Z" fill="white"/>
<path d="M28.6293 19.376C28.9253 19.376 29.192 19.4253 29.4293 19.524C29.6666 19.6226 29.8693 19.7626 30.0373 19.944C30.2053 20.1253 30.3333 20.3453 30.4213 20.604C30.512 20.86 30.5573 21.1466 30.5573 21.464C30.5573 21.784 30.512 22.072 30.4213 22.328C30.3333 22.584 30.2053 22.8026 30.0373 22.984C29.8693 23.1653 29.6666 23.3053 29.4293 23.404C29.192 23.5 28.9253 23.548 28.6293 23.548C28.3306 23.548 28.0613 23.5 27.8213 23.404C27.584 23.3053 27.3813 23.1653 27.2133 22.984C27.0453 22.8026 26.916 22.584 26.8253 22.328C26.7373 22.072 26.6933 21.784 26.6933 21.464C26.6933 21.1466 26.7373 20.86 26.8253 20.604C26.916 20.3453 27.0453 20.1253 27.2133 19.944C27.3813 19.7626 27.584 19.6226 27.8213 19.524C28.0613 19.4253 28.3306 19.376 28.6293 19.376ZM28.6293 22.992C29.0293 22.992 29.328 22.8586 29.5253 22.592C29.7226 22.3226 29.8213 21.948 29.8213 21.468C29.8213 20.9853 29.7226 20.6093 29.5253 20.34C29.328 20.0706 29.0293 19.936 28.6293 19.936C28.4266 19.936 28.2493 19.9706 28.0973 20.04C27.948 20.1093 27.8226 20.2093 27.7213 20.34C27.6226 20.4706 27.548 20.632 27.4973 20.824C27.4493 21.0133 27.4253 21.228 27.4253 21.468C27.4253 21.948 27.524 22.3226 27.7213 22.592C27.9213 22.8586 28.224 22.992 28.6293 22.992Z" fill="white"/>
<path d="M32.1964 17.6V23.492H31.4844V17.6H32.1964Z" fill="white"/>
<path d="M35.547 21.668C35.219 21.6786 34.939 21.7053 34.707 21.748C34.4776 21.788 34.2896 21.8413 34.143 21.908C33.999 21.9746 33.8936 22.0533 33.827 22.144C33.763 22.2346 33.731 22.336 33.731 22.448C33.731 22.5546 33.7483 22.6466 33.783 22.724C33.8176 22.8013 33.8643 22.8653 33.923 22.916C33.9843 22.964 34.055 23 34.135 23.024C34.2176 23.0453 34.3056 23.056 34.399 23.056C34.5243 23.056 34.639 23.044 34.743 23.02C34.847 22.9933 34.9443 22.956 35.035 22.908C35.1283 22.86 35.2163 22.8026 35.299 22.736C35.3843 22.6693 35.467 22.5933 35.547 22.508V21.668ZM33.247 20.012C33.471 19.796 33.7123 19.6346 33.971 19.528C34.2296 19.4213 34.5163 19.368 34.831 19.368C35.0576 19.368 35.259 19.4053 35.435 19.48C35.611 19.5546 35.759 19.6586 35.879 19.792C35.999 19.9253 36.0896 20.0866 36.151 20.276C36.2123 20.4653 36.243 20.6733 36.243 20.9V23.492H35.927C35.8576 23.492 35.8043 23.4813 35.767 23.46C35.7296 23.436 35.7003 23.3906 35.679 23.324L35.599 22.94C35.4923 23.0386 35.3883 23.1266 35.287 23.204C35.1856 23.2786 35.079 23.3426 34.967 23.396C34.855 23.4466 34.735 23.4853 34.607 23.512C34.4816 23.5413 34.3416 23.556 34.187 23.556C34.0296 23.556 33.8816 23.5346 33.743 23.492C33.6043 23.4466 33.483 23.38 33.379 23.292C33.2776 23.204 33.1963 23.0933 33.135 22.96C33.0763 22.824 33.047 22.664 33.047 22.48C33.047 22.32 33.091 22.1666 33.179 22.02C33.267 21.8706 33.4096 21.7386 33.607 21.624C33.8043 21.5093 34.0616 21.416 34.379 21.344C34.6963 21.2693 35.0856 21.2266 35.547 21.216V20.9C35.547 20.5853 35.479 20.348 35.343 20.188C35.207 20.0253 35.0083 19.944 34.747 19.944C34.571 19.944 34.423 19.9666 34.303 20.012C34.1856 20.0546 34.083 20.104 33.995 20.16C33.9096 20.2133 33.835 20.2626 33.771 20.308C33.7096 20.3506 33.6483 20.372 33.587 20.372C33.539 20.372 33.4976 20.36 33.463 20.336C33.4283 20.3093 33.399 20.2773 33.375 20.24L33.247 20.012Z" fill="white"/>
<path d="M38.0035 20.252C38.1315 19.9746 38.2889 19.7586 38.4755 19.604C38.6622 19.4466 38.8902 19.368 39.1595 19.368C39.2449 19.368 39.3262 19.3773 39.4035 19.396C39.4835 19.4146 39.5542 19.444 39.6155 19.484L39.5635 20.016C39.5475 20.0826 39.5075 20.116 39.4435 20.116C39.4062 20.116 39.3515 20.108 39.2795 20.092C39.2075 20.076 39.1262 20.068 39.0355 20.068C38.9075 20.068 38.7929 20.0866 38.6915 20.124C38.5929 20.1613 38.5035 20.2173 38.4235 20.292C38.3462 20.364 38.2755 20.4546 38.2115 20.564C38.1502 20.6706 38.0942 20.7933 38.0435 20.932V23.492H37.3275V19.44H37.7355C37.8129 19.44 37.8662 19.4546 37.8955 19.484C37.9249 19.5133 37.9449 19.564 37.9555 19.636L38.0035 20.252Z" fill="white"/>
</svg>
