<svg width="49" height="28" viewBox="0 0 49 28" fill="none" xmlns="http://www.w3.org/2000/svg">
<rect y="14.75" width="49" height="12.5" fill="white" fill-opacity="0.2"/>
<path d="M16.8902 17.682L14.5542 23.414H13.8582L11.5222 17.682H12.1422C12.2115 17.682 12.2675 17.6993 12.3102 17.734C12.3528 17.7686 12.3848 17.8126 12.4062 17.866L14.0222 21.91C14.0568 22.0006 14.0902 22.0993 14.1222 22.206C14.1568 22.3126 14.1875 22.4246 14.2142 22.542C14.2408 22.4246 14.2688 22.3126 14.2982 22.206C14.3275 22.0993 14.3595 22.0006 14.3942 21.91L16.0062 17.866C16.0222 17.8206 16.0528 17.7793 16.0982 17.742C16.1462 17.702 16.2035 17.682 16.2702 17.682H16.8902Z" fill="white"/>
<path d="M19.5867 20.946C19.5867 20.7806 19.5627 20.63 19.5147 20.494C19.4693 20.3553 19.4013 20.2366 19.3107 20.138C19.2227 20.0366 19.1147 19.9593 18.9867 19.906C18.8587 19.85 18.7133 19.822 18.5507 19.822C18.2093 19.822 17.9387 19.922 17.7387 20.122C17.5413 20.3193 17.4187 20.594 17.3707 20.946H19.5867ZM20.1627 22.846C20.0747 22.9526 19.9693 23.046 19.8467 23.126C19.724 23.2033 19.592 23.2673 19.4507 23.318C19.312 23.3686 19.168 23.406 19.0187 23.43C18.8693 23.4566 18.7213 23.47 18.5747 23.47C18.2947 23.47 18.036 23.4233 17.7987 23.33C17.564 23.234 17.36 23.0953 17.1867 22.914C17.016 22.73 16.8827 22.5033 16.7867 22.234C16.6907 21.9646 16.6427 21.6553 16.6427 21.306C16.6427 21.0233 16.6853 20.7593 16.7707 20.514C16.8587 20.2686 16.984 20.0566 17.1467 19.878C17.3093 19.6966 17.508 19.5553 17.7427 19.454C17.9773 19.35 18.2413 19.298 18.5347 19.298C18.7773 19.298 19.0013 19.3393 19.2067 19.422C19.4147 19.502 19.5933 19.6193 19.7427 19.774C19.8947 19.926 20.0133 20.1153 20.0987 20.342C20.184 20.566 20.2267 20.822 20.2267 21.11C20.2267 21.222 20.2147 21.2966 20.1907 21.334C20.1667 21.3713 20.1213 21.39 20.0547 21.39H17.3467C17.3547 21.646 17.3893 21.8686 17.4507 22.058C17.5147 22.2473 17.6027 22.406 17.7147 22.534C17.8267 22.6593 17.96 22.754 18.1147 22.818C18.2693 22.8793 18.4427 22.91 18.6347 22.91C18.8133 22.91 18.9667 22.89 19.0947 22.85C19.2253 22.8073 19.3373 22.762 19.4307 22.714C19.524 22.666 19.6013 22.622 19.6627 22.582C19.7267 22.5393 19.7813 22.518 19.8267 22.518C19.8853 22.518 19.9307 22.5406 19.9627 22.586L20.1627 22.846Z" fill="white"/>
<path d="M21.7772 20.174C21.9052 19.8966 22.0626 19.6806 22.2492 19.526C22.4359 19.3686 22.6639 19.29 22.9332 19.29C23.0186 19.29 23.0999 19.2993 23.1772 19.318C23.2572 19.3366 23.3279 19.366 23.3892 19.406L23.3372 19.938C23.3212 20.0046 23.2812 20.038 23.2172 20.038C23.1799 20.038 23.1252 20.03 23.0532 20.014C22.9812 19.998 22.8999 19.99 22.8092 19.99C22.6812 19.99 22.5666 20.0086 22.4652 20.046C22.3666 20.0833 22.2772 20.1393 22.1972 20.214C22.1199 20.286 22.0492 20.3766 21.9852 20.486C21.9239 20.5926 21.8679 20.7153 21.8172 20.854V23.414H21.1012V19.362H21.5092C21.5866 19.362 21.6399 19.3766 21.6692 19.406C21.6986 19.4353 21.7186 19.486 21.7292 19.558L21.7772 20.174Z" fill="white"/>
<path d="M27.7753 23.414H27.0633V19.958H24.9753V22.39C24.9753 22.5606 25.0166 22.6873 25.0993 22.77C25.1819 22.8526 25.2886 22.894 25.4193 22.894C25.4939 22.894 25.5579 22.8846 25.6113 22.866C25.6673 22.8446 25.7153 22.822 25.7553 22.798C25.7953 22.774 25.8286 22.7526 25.8553 22.734C25.8846 22.7126 25.9099 22.702 25.9313 22.702C25.9686 22.702 26.0019 22.7246 26.0313 22.77L26.2393 23.11C26.1166 23.2246 25.9686 23.3153 25.7953 23.382C25.6219 23.446 25.4433 23.478 25.2593 23.478C24.9393 23.478 24.6926 23.3886 24.5193 23.21C24.3486 23.0313 24.2633 22.774 24.2633 22.438V19.958H23.7753C23.7326 19.958 23.6966 19.946 23.6673 19.922C23.6379 19.8953 23.6233 19.8553 23.6233 19.802V19.518L24.2873 19.43L24.4513 18.182C24.4593 18.142 24.4766 18.11 24.5033 18.086C24.5326 18.0593 24.5699 18.046 24.6153 18.046H24.9753V19.442H27.7753V23.414ZM27.9513 18.062C27.9513 18.1313 27.9366 18.1966 27.9073 18.258C27.8806 18.3166 27.8433 18.3686 27.7953 18.414C27.7499 18.4593 27.6966 18.4953 27.6353 18.522C27.5739 18.5486 27.5086 18.562 27.4393 18.562C27.3699 18.562 27.3046 18.5486 27.2433 18.522C27.1846 18.4953 27.1326 18.4593 27.0873 18.414C27.0419 18.3686 27.0059 18.3166 26.9793 18.258C26.9526 18.1966 26.9393 18.1313 26.9393 18.062C26.9393 17.9926 26.9526 17.9273 26.9793 17.866C27.0059 17.802 27.0419 17.7473 27.0873 17.702C27.1326 17.654 27.1846 17.6166 27.2433 17.59C27.3046 17.5633 27.3699 17.55 27.4393 17.55C27.5086 17.55 27.5739 17.5633 27.6353 17.59C27.6966 17.6166 27.7499 17.654 27.7953 17.702C27.8433 17.7473 27.8806 17.802 27.9073 17.866C27.9366 17.9273 27.9513 17.9926 27.9513 18.062Z" fill="white"/>
<path d="M31.765 20.082C31.7436 20.1113 31.7223 20.134 31.701 20.15C31.6796 20.166 31.6503 20.174 31.613 20.174C31.573 20.174 31.529 20.158 31.481 20.126C31.433 20.0913 31.373 20.054 31.301 20.014C31.2316 19.974 31.145 19.938 31.041 19.906C30.9396 19.8713 30.8143 19.854 30.665 19.854C30.465 19.854 30.289 19.89 30.137 19.962C29.985 20.0313 29.857 20.1326 29.753 20.266C29.6516 20.3993 29.5743 20.5606 29.521 20.75C29.4703 20.9393 29.445 21.1513 29.445 21.386C29.445 21.6313 29.473 21.85 29.529 22.042C29.585 22.2313 29.6636 22.3913 29.765 22.522C29.869 22.65 29.993 22.7486 30.137 22.818C30.2836 22.8846 30.4476 22.918 30.629 22.918C30.8023 22.918 30.945 22.898 31.057 22.858C31.169 22.8153 31.261 22.7686 31.333 22.718C31.4076 22.6673 31.469 22.622 31.517 22.582C31.5676 22.5393 31.617 22.518 31.665 22.518C31.7236 22.518 31.769 22.5406 31.801 22.586L32.001 22.846C31.913 22.9553 31.813 23.0486 31.701 23.126C31.589 23.2033 31.4676 23.2686 31.337 23.322C31.209 23.3726 31.0743 23.41 30.933 23.434C30.7916 23.458 30.6476 23.47 30.501 23.47C30.2476 23.47 30.0116 23.4233 29.793 23.33C29.577 23.2366 29.389 23.102 29.229 22.926C29.069 22.7473 28.9436 22.5286 28.853 22.27C28.7623 22.0113 28.717 21.7166 28.717 21.386C28.717 21.0846 28.7583 20.806 28.841 20.55C28.9263 20.294 29.049 20.074 29.209 19.89C29.3716 19.7033 29.5703 19.558 29.805 19.454C30.0423 19.35 30.3143 19.298 30.621 19.298C30.9063 19.298 31.157 19.3446 31.373 19.438C31.5916 19.5286 31.785 19.658 31.953 19.826L31.765 20.082Z" fill="white"/>
<path d="M34.9613 21.59C34.6333 21.6006 34.3533 21.6273 34.1213 21.67C33.8919 21.71 33.7039 21.7633 33.5573 21.83C33.4133 21.8966 33.3079 21.9753 33.2413 22.066C33.1773 22.1566 33.1453 22.258 33.1453 22.37C33.1453 22.4766 33.1626 22.5686 33.1973 22.646C33.2319 22.7233 33.2786 22.7873 33.3373 22.838C33.3986 22.886 33.4693 22.922 33.5493 22.946C33.6319 22.9673 33.7199 22.978 33.8133 22.978C33.9386 22.978 34.0533 22.966 34.1573 22.942C34.2613 22.9153 34.3586 22.878 34.4493 22.83C34.5426 22.782 34.6306 22.7246 34.7133 22.658C34.7986 22.5913 34.8813 22.5153 34.9613 22.43V21.59ZM32.6613 19.934C32.8853 19.718 33.1266 19.5566 33.3853 19.45C33.6439 19.3433 33.9306 19.29 34.2453 19.29C34.4719 19.29 34.6733 19.3273 34.8493 19.402C35.0253 19.4766 35.1733 19.5806 35.2933 19.714C35.4133 19.8473 35.5039 20.0086 35.5653 20.198C35.6266 20.3873 35.6573 20.5953 35.6573 20.822V23.414H35.3413C35.2719 23.414 35.2186 23.4033 35.1813 23.382C35.1439 23.358 35.1146 23.3126 35.0933 23.246L35.0133 22.862C34.9066 22.9606 34.8026 23.0486 34.7013 23.126C34.5999 23.2006 34.4933 23.2646 34.3813 23.318C34.2693 23.3686 34.1493 23.4073 34.0213 23.434C33.8959 23.4633 33.7559 23.478 33.6013 23.478C33.4439 23.478 33.2959 23.4566 33.1573 23.414C33.0186 23.3686 32.8973 23.302 32.7933 23.214C32.6919 23.126 32.6106 23.0153 32.5493 22.882C32.4906 22.746 32.4613 22.586 32.4613 22.402C32.4613 22.242 32.5053 22.0886 32.5933 21.942C32.6813 21.7926 32.8239 21.6606 33.0213 21.546C33.2186 21.4313 33.4759 21.338 33.7933 21.266C34.1106 21.1913 34.4999 21.1486 34.9613 21.138V20.822C34.9613 20.5073 34.8933 20.27 34.7573 20.11C34.6213 19.9473 34.4226 19.866 34.1613 19.866C33.9853 19.866 33.8373 19.8886 33.7173 19.934C33.5999 19.9766 33.4973 20.026 33.4093 20.082C33.3239 20.1353 33.2493 20.1846 33.1853 20.23C33.1239 20.2726 33.0626 20.294 33.0013 20.294C32.9533 20.294 32.9119 20.282 32.8773 20.258C32.8426 20.2313 32.8133 20.1993 32.7893 20.162L32.6613 19.934Z" fill="white"/>
<path d="M37.4778 17.522V23.414H36.7658V17.522H37.4778Z" fill="white"/>
</svg>
