<svg width="18" height="28" viewBox="0 0 18 28" fill="none" xmlns="http://www.w3.org/2000/svg">
<rect x="1" y="0.5" width="16" height="13" fill="white" fill-opacity="0.2"/>
<path d="M6.58139 6.92125C6.77739 6.92125 6.95006 6.89792 7.09939 6.85125C7.25106 6.80225 7.37706 6.73458 7.47739 6.64825C7.58006 6.55958 7.65706 6.45458 7.70839 6.33325C7.75973 6.21192 7.78539 6.07775 7.78539 5.93075C7.78539 5.63208 7.68739 5.40692 7.49139 5.25525C7.29539 5.10358 7.00139 5.02775 6.60939 5.02775H5.86739V6.92125H6.58139ZM8.89839 9.50775H8.29639C8.17273 9.50775 8.08173 9.45992 8.02339 9.36425L6.72139 7.57225C6.68173 7.51625 6.63856 7.47658 6.59189 7.45325C6.54756 7.42758 6.47756 7.41475 6.38189 7.41475H5.86739V9.50775H5.19189V4.49225H6.60939C6.92673 4.49225 7.20089 4.52492 7.43189 4.59025C7.66289 4.65325 7.85306 4.74542 8.00239 4.86675C8.15406 4.98808 8.26606 5.13508 8.33839 5.30775C8.41073 5.47808 8.44689 5.66942 8.44689 5.88175C8.44689 6.05908 8.41889 6.22475 8.36289 6.37875C8.30689 6.53275 8.22523 6.67158 8.11789 6.79525C8.01289 6.91658 7.88339 7.02042 7.72939 7.10675C7.57773 7.19308 7.40506 7.25842 7.21139 7.30275C7.29773 7.35175 7.37239 7.42292 7.43539 7.51625L8.89839 9.50775Z" fill="white"/>
<path d="M12.808 5.06275H11.184V9.50775H10.5085V5.06275H8.881V4.49225H12.808V5.06275Z" fill="white"/>
<rect x="1" y="14.5" width="16" height="13" fill="white" fill-opacity="0.2"/>
<path d="M6.58139 20.9212C6.77739 20.9212 6.95006 20.8979 7.09939 20.8512C7.25106 20.8022 7.37706 20.7346 7.47739 20.6482C7.58006 20.5596 7.65706 20.4546 7.70839 20.3332C7.75973 20.2119 7.78539 20.0777 7.78539 19.9307C7.78539 19.6321 7.68739 19.4069 7.49139 19.2552C7.29539 19.1036 7.00139 19.0277 6.60939 19.0277H5.86739V20.9212H6.58139ZM8.89839 23.5077H8.29639C8.17273 23.5077 8.08173 23.4599 8.02339 23.3642L6.72139 21.5722C6.68173 21.5162 6.63856 21.4766 6.59189 21.4532C6.54756 21.4276 6.47756 21.4147 6.38189 21.4147H5.86739V23.5077H5.19189V18.4922H6.60939C6.92673 18.4922 7.20089 18.5249 7.43189 18.5902C7.66289 18.6532 7.85306 18.7454 8.00239 18.8667C8.15406 18.9881 8.26606 19.1351 8.33839 19.3077C8.41073 19.4781 8.44689 19.6694 8.44689 19.8817C8.44689 20.0591 8.41889 20.2247 8.36289 20.3787C8.30689 20.5327 8.22523 20.6716 8.11789 20.7952C8.01289 20.9166 7.88339 21.0204 7.72939 21.1067C7.57773 21.1931 7.40506 21.2584 7.21139 21.3027C7.29773 21.3517 7.37239 21.4229 7.43539 21.5162L8.89839 23.5077Z" fill="white"/>
<path d="M12.808 19.0627H11.184V23.5077H10.5085V19.0627H8.881V18.4922H12.808V19.0627Z" fill="white"/>
</svg>
