<svg width="31" height="24" viewBox="0 0 31 24" fill="none" xmlns="http://www.w3.org/2000/svg">
<g clip-path="url(#clip0_204_7913)">
<rect y="0.5" width="31" height="11" fill="white" fill-opacity="0.2"/>
<rect y="12.5" width="31" height="11" fill="white" fill-opacity="0.2"/>
<path d="M12.0422 3.15799L9.70619 8.88999H9.01019L6.67419 3.15799H7.29419C7.36353 3.15799 7.41953 3.17532 7.46219 3.20999C7.50486 3.24465 7.53686 3.28865 7.55819 3.34199L9.17419 7.38599C9.20886 7.47665 9.24219 7.57532 9.27419 7.68199C9.30886 7.78865 9.33953 7.90065 9.36619 8.01799C9.39286 7.90065 9.42086 7.78865 9.45019 7.68199C9.47953 7.57532 9.51153 7.47665 9.54619 7.38599L11.1582 3.34199C11.1742 3.29665 11.2049 3.25532 11.2502 3.21799C11.2982 3.17799 11.3555 3.15799 11.4222 3.15799H12.0422Z" fill="white"/>
<path d="M13.3803 4.83799V8.88999H12.6683V4.83799H13.3803ZM13.5323 3.56599C13.5323 3.63532 13.5176 3.70065 13.4883 3.76199C13.4616 3.82065 13.4243 3.87399 13.3763 3.92199C13.3309 3.96732 13.2763 4.00332 13.2123 4.02999C13.1509 4.05665 13.0856 4.06999 13.0163 4.06999C12.9469 4.06999 12.8816 4.05665 12.8203 4.02999C12.7616 4.00332 12.7096 3.96732 12.6643 3.92199C12.6189 3.87399 12.5829 3.82065 12.5563 3.76199C12.5296 3.70065 12.5163 3.63532 12.5163 3.56599C12.5163 3.49665 12.5296 3.43132 12.5563 3.36999C12.5829 3.30599 12.6189 3.25132 12.6643 3.20599C12.7096 3.15799 12.7616 3.12065 12.8203 3.09399C12.8816 3.06732 12.9469 3.05399 13.0163 3.05399C13.0856 3.05399 13.1509 3.06732 13.2123 3.09399C13.2763 3.12065 13.3309 3.15799 13.3763 3.20599C13.4243 3.25132 13.4616 3.30599 13.4883 3.36999C13.5176 3.43132 13.5323 3.49665 13.5323 3.56599Z" fill="white"/>
<path d="M17.2621 6.42199C17.2621 6.25665 17.2381 6.10599 17.1901 5.96999C17.1448 5.83132 17.0768 5.71265 16.9861 5.61399C16.8981 5.51265 16.7901 5.43532 16.6621 5.38199C16.5341 5.32599 16.3888 5.29799 16.2261 5.29799C15.8848 5.29799 15.6141 5.39799 15.4141 5.59799C15.2168 5.79532 15.0941 6.06999 15.0461 6.42199H17.2621ZM17.8381 8.32199C17.7501 8.42865 17.6448 8.52199 17.5221 8.60199C17.3995 8.67932 17.2675 8.74332 17.1261 8.79399C16.9875 8.84465 16.8435 8.88199 16.6941 8.90599C16.5448 8.93265 16.3968 8.94599 16.2501 8.94599C15.9701 8.94599 15.7115 8.89932 15.4741 8.80599C15.2395 8.70999 15.0355 8.57132 14.8621 8.38999C14.6915 8.20599 14.5581 7.97932 14.4621 7.70999C14.3661 7.44065 14.3181 7.13132 14.3181 6.78199C14.3181 6.49932 14.3608 6.23532 14.4461 5.98999C14.5341 5.74465 14.6595 5.53265 14.8221 5.35399C14.9848 5.17265 15.1835 5.03132 15.4181 4.92999C15.6528 4.82599 15.9168 4.77399 16.2101 4.77399C16.4528 4.77399 16.6768 4.81532 16.8821 4.89799C17.0901 4.97799 17.2688 5.09532 17.4181 5.24999C17.5701 5.40199 17.6888 5.59132 17.7741 5.81799C17.8595 6.04199 17.9021 6.29799 17.9021 6.58599C17.9021 6.69799 17.8901 6.77265 17.8661 6.80999C17.8421 6.84732 17.7968 6.86599 17.7301 6.86599H15.0221C15.0301 7.12199 15.0648 7.34465 15.1261 7.53399C15.1901 7.72332 15.2781 7.88199 15.3901 8.00999C15.5021 8.13532 15.6355 8.22999 15.7901 8.29399C15.9448 8.35532 16.1181 8.38599 16.3101 8.38599C16.4888 8.38599 16.6421 8.36599 16.7701 8.32599C16.9008 8.28332 17.0128 8.23799 17.1061 8.18999C17.1995 8.14199 17.2768 8.09799 17.3381 8.05799C17.4021 8.01532 17.4568 7.99399 17.5021 7.99399C17.5608 7.99399 17.6061 8.01665 17.6381 8.06199L17.8381 8.32199Z" fill="white"/>
<path d="M24.3256 4.83799L23.0136 8.88999H22.4496C22.3803 8.88999 22.3323 8.84465 22.3056 8.75399L21.4096 6.00599C21.3883 5.94465 21.371 5.88332 21.3576 5.82199C21.3443 5.75799 21.331 5.69532 21.3176 5.63399C21.3043 5.69532 21.291 5.75799 21.2776 5.82199C21.2643 5.88332 21.247 5.94599 21.2256 6.00999L20.3136 8.75399C20.2896 8.84465 20.2363 8.88999 20.1536 8.88999H19.6176L18.3056 4.83799H18.8656C18.9216 4.83799 18.9683 4.85265 19.0056 4.88199C19.0456 4.91132 19.0723 4.94599 19.0856 4.98599L19.8616 7.59399C19.907 7.78599 19.943 7.96732 19.9696 8.13799C19.9936 8.04999 20.0176 7.96065 20.0416 7.86999C20.0683 7.77932 20.0963 7.68732 20.1256 7.59399L20.9816 4.96999C20.995 4.92999 21.0176 4.89665 21.0496 4.86999C21.0843 4.84332 21.1256 4.82999 21.1736 4.82999H21.4856C21.539 4.82999 21.583 4.84332 21.6176 4.86999C21.6523 4.89665 21.6763 4.92999 21.6896 4.96999L22.5256 7.59399C22.555 7.68732 22.5816 7.77932 22.6056 7.86999C22.6296 7.96065 22.6523 8.04999 22.6736 8.13799C22.687 8.04999 22.703 7.96199 22.7216 7.87399C22.743 7.78332 22.7656 7.68999 22.7896 7.59399L23.5816 4.98599C23.595 4.94332 23.6203 4.90865 23.6576 4.88199C23.695 4.85265 23.739 4.83799 23.7896 4.83799H24.3256Z" fill="white"/>
<path d="M12.0422 15.158L9.70619 20.89H9.01019L6.67419 15.158H7.29419C7.36353 15.158 7.41953 15.1753 7.46219 15.21C7.50486 15.2447 7.53686 15.2887 7.55819 15.342L9.17419 19.386C9.20886 19.4767 9.24219 19.5753 9.27419 19.682C9.30886 19.7887 9.33953 19.9007 9.36619 20.018C9.39286 19.9007 9.42086 19.7887 9.45019 19.682C9.47953 19.5753 9.51153 19.4767 9.54619 19.386L11.1582 15.342C11.1742 15.2967 11.2049 15.2553 11.2502 15.218C11.2982 15.178 11.3555 15.158 11.4222 15.158H12.0422Z" fill="white"/>
<path d="M13.3803 16.838V20.89H12.6683V16.838H13.3803ZM13.5323 15.566C13.5323 15.6353 13.5176 15.7007 13.4883 15.762C13.4616 15.8207 13.4243 15.874 13.3763 15.922C13.3309 15.9673 13.2763 16.0033 13.2123 16.03C13.1509 16.0567 13.0856 16.07 13.0163 16.07C12.9469 16.07 12.8816 16.0567 12.8203 16.03C12.7616 16.0033 12.7096 15.9673 12.6643 15.922C12.6189 15.874 12.5829 15.8207 12.5563 15.762C12.5296 15.7007 12.5163 15.6353 12.5163 15.566C12.5163 15.4967 12.5296 15.4313 12.5563 15.37C12.5829 15.306 12.6189 15.2513 12.6643 15.206C12.7096 15.158 12.7616 15.1207 12.8203 15.094C12.8816 15.0673 12.9469 15.054 13.0163 15.054C13.0856 15.054 13.1509 15.0673 13.2123 15.094C13.2763 15.1207 13.3309 15.158 13.3763 15.206C13.4243 15.2513 13.4616 15.306 13.4883 15.37C13.5176 15.4313 13.5323 15.4967 13.5323 15.566Z" fill="white"/>
<path d="M17.2621 18.422C17.2621 18.2567 17.2381 18.106 17.1901 17.97C17.1448 17.8313 17.0768 17.7127 16.9861 17.614C16.8981 17.5127 16.7901 17.4353 16.6621 17.382C16.5341 17.326 16.3888 17.298 16.2261 17.298C15.8848 17.298 15.6141 17.398 15.4141 17.598C15.2168 17.7953 15.0941 18.07 15.0461 18.422H17.2621ZM17.8381 20.322C17.7501 20.4287 17.6448 20.522 17.5221 20.602C17.3995 20.6793 17.2675 20.7433 17.1261 20.794C16.9875 20.8447 16.8435 20.882 16.6941 20.906C16.5448 20.9327 16.3968 20.946 16.2501 20.946C15.9701 20.946 15.7115 20.8993 15.4741 20.806C15.2395 20.71 15.0355 20.5713 14.8621 20.39C14.6915 20.206 14.5581 19.9793 14.4621 19.71C14.3661 19.4407 14.3181 19.1313 14.3181 18.782C14.3181 18.4993 14.3608 18.2353 14.4461 17.99C14.5341 17.7447 14.6595 17.5327 14.8221 17.354C14.9848 17.1727 15.1835 17.0313 15.4181 16.93C15.6528 16.826 15.9168 16.774 16.2101 16.774C16.4528 16.774 16.6768 16.8153 16.8821 16.898C17.0901 16.978 17.2688 17.0953 17.4181 17.25C17.5701 17.402 17.6888 17.5913 17.7741 17.818C17.8595 18.042 17.9021 18.298 17.9021 18.586C17.9021 18.698 17.8901 18.7727 17.8661 18.81C17.8421 18.8473 17.7968 18.866 17.7301 18.866H15.0221C15.0301 19.122 15.0648 19.3447 15.1261 19.534C15.1901 19.7233 15.2781 19.882 15.3901 20.01C15.5021 20.1353 15.6355 20.23 15.7901 20.294C15.9448 20.3553 16.1181 20.386 16.3101 20.386C16.4888 20.386 16.6421 20.366 16.7701 20.326C16.9008 20.2833 17.0128 20.238 17.1061 20.19C17.1995 20.142 17.2768 20.098 17.3381 20.058C17.4021 20.0154 17.4568 19.994 17.5021 19.994C17.5608 19.994 17.6061 20.0167 17.6381 20.062L17.8381 20.322Z" fill="white"/>
<path d="M24.3256 16.838L23.0136 20.89H22.4496C22.3803 20.89 22.3323 20.8447 22.3056 20.754L21.4096 18.006C21.3883 17.9447 21.371 17.8833 21.3576 17.822C21.3443 17.758 21.331 17.6953 21.3176 17.634C21.3043 17.6953 21.291 17.758 21.2776 17.822C21.2643 17.8833 21.247 17.946 21.2256 18.01L20.3136 20.754C20.2896 20.8447 20.2363 20.89 20.1536 20.89H19.6176L18.3056 16.838H18.8656C18.9216 16.838 18.9683 16.8527 19.0056 16.882C19.0456 16.9113 19.0723 16.946 19.0856 16.986L19.8616 19.594C19.907 19.786 19.943 19.9674 19.9696 20.138C19.9936 20.05 20.0176 19.9607 20.0416 19.87C20.0683 19.7793 20.0963 19.6873 20.1256 19.594L20.9816 16.97C20.995 16.93 21.0176 16.8967 21.0496 16.87C21.0843 16.8433 21.1256 16.83 21.1736 16.83H21.4856C21.539 16.83 21.583 16.8433 21.6176 16.87C21.6523 16.8967 21.6763 16.93 21.6896 16.97L22.5256 19.594C22.555 19.6873 22.5816 19.7793 22.6056 19.87C22.6296 19.9607 22.6523 20.05 22.6736 20.138C22.687 20.05 22.703 19.962 22.7216 19.874C22.743 19.7834 22.7656 19.69 22.7896 19.594L23.5816 16.986C23.595 16.9433 23.6203 16.9087 23.6576 16.882C23.695 16.8527 23.739 16.838 23.7896 16.838H24.3256Z" fill="white"/>
</g>
<defs>
<clipPath id="clip0_204_7913">
<rect width="31" height="24" fill="white"/>
</clipPath>
</defs>
</svg>
