<svg width="92" height="42" viewBox="0 0 92 42" fill="none" xmlns="http://www.w3.org/2000/svg">
<g clip-path="url(#clip0_204_7350)">
<rect x="30.5" y="14.75" width="31" height="12.5" fill="white" fill-opacity="0.2"/>
<rect x="61" y="28.75" width="31" height="12.5" fill="white" fill-opacity="0.2"/>
<rect y="0.75" width="31" height="12.5" fill="white" fill-opacity="0.2"/>
<path d="M8.70682 4.556C8.68282 4.596 8.65616 4.62667 8.62682 4.648C8.60016 4.66667 8.56682 4.676 8.52682 4.676C8.48149 4.676 8.42816 4.65333 8.36682 4.608C8.30549 4.56267 8.22816 4.51333 8.13482 4.46C8.04416 4.404 7.93349 4.35333 7.80282 4.308C7.67482 4.26267 7.51882 4.24 7.33482 4.24C7.16149 4.24 7.00816 4.264 6.87482 4.312C6.74416 4.35733 6.63349 4.42 6.54282 4.5C6.45482 4.58 6.38816 4.67467 6.34282 4.784C6.29749 4.89067 6.27482 5.00667 6.27482 5.132C6.27482 5.292 6.31349 5.42533 6.39082 5.532C6.47082 5.636 6.57482 5.72533 6.70282 5.8C6.83349 5.87467 6.98016 5.94 7.14282 5.996C7.30816 6.04933 7.47616 6.10533 7.64682 6.164C7.82016 6.22267 7.98816 6.28933 8.15082 6.364C8.31616 6.436 8.46282 6.528 8.59082 6.64C8.72149 6.752 8.82549 6.88933 8.90282 7.052C8.98282 7.21467 9.02282 7.41467 9.02282 7.652C9.02282 7.90267 8.98016 8.13867 8.89482 8.36C8.80949 8.57867 8.68416 8.76933 8.51882 8.932C8.35616 9.09467 8.15482 9.22267 7.91482 9.316C7.67749 9.40933 7.40682 9.456 7.10282 9.456C6.72949 9.456 6.39082 9.38933 6.08682 9.256C5.78282 9.12 5.52282 8.93733 5.30682 8.708L5.53082 8.34C5.55216 8.31067 5.57749 8.28667 5.60682 8.268C5.63882 8.24667 5.67349 8.236 5.71082 8.236C5.74549 8.236 5.78416 8.25067 5.82682 8.28C5.87216 8.30667 5.92282 8.34133 5.97882 8.384C6.03482 8.42667 6.09882 8.47333 6.17082 8.524C6.24282 8.57467 6.32416 8.62133 6.41482 8.664C6.50816 8.70667 6.61349 8.74267 6.73082 8.772C6.84816 8.79867 6.98016 8.812 7.12682 8.812C7.31082 8.812 7.47482 8.78667 7.61882 8.736C7.76282 8.68533 7.88416 8.61467 7.98282 8.524C8.08416 8.43067 8.16149 8.32 8.21482 8.192C8.26816 8.064 8.29482 7.92133 8.29482 7.764C8.29482 7.59067 8.25482 7.44933 8.17482 7.34C8.09749 7.228 7.99482 7.13467 7.86682 7.06C7.73882 6.98533 7.59216 6.92267 7.42682 6.872C7.26149 6.81867 7.09349 6.76533 6.92282 6.712C6.75216 6.656 6.58416 6.592 6.41882 6.52C6.25349 6.448 6.10682 6.35467 5.97882 6.24C5.85082 6.12533 5.74682 5.98267 5.66682 5.812C5.58949 5.63867 5.55082 5.42533 5.55082 5.172C5.55082 4.96933 5.58949 4.77333 5.66682 4.584C5.74682 4.39467 5.86149 4.22667 6.01082 4.08C6.16282 3.93333 6.34816 3.816 6.56682 3.728C6.78816 3.64 7.04149 3.596 7.32682 3.596C7.64682 3.596 7.93749 3.64667 8.19882 3.748C8.46282 3.84933 8.69482 3.996 8.89482 4.188L8.70682 4.556Z" fill="white"/>
<path d="M10.6635 5.34V9.392H9.95151V5.34H10.6635ZM10.8155 4.068C10.8155 4.13733 10.8008 4.20267 10.7715 4.264C10.7448 4.32267 10.7075 4.376 10.6595 4.424C10.6142 4.46933 10.5595 4.50533 10.4955 4.532C10.4342 4.55867 10.3688 4.572 10.2995 4.572C10.2302 4.572 10.1648 4.55867 10.1035 4.532C10.0448 4.50533 9.99284 4.46933 9.94751 4.424C9.90218 4.376 9.86618 4.32267 9.83951 4.264C9.81284 4.20267 9.79951 4.13733 9.79951 4.068C9.79951 3.99867 9.81284 3.93333 9.83951 3.872C9.86618 3.808 9.90218 3.75333 9.94751 3.708C9.99284 3.66 10.0448 3.62267 10.1035 3.596C10.1648 3.56933 10.2302 3.556 10.2995 3.556C10.3688 3.556 10.4342 3.56933 10.4955 3.596C10.5595 3.62267 10.6142 3.66 10.6595 3.708C10.7075 3.75333 10.7448 3.808 10.7715 3.872C10.8008 3.93333 10.8155 3.99867 10.8155 4.068Z" fill="white"/>
<path d="M12.5054 5.928C12.5934 5.82933 12.6867 5.74 12.7854 5.66C12.8841 5.58 12.9881 5.512 13.0974 5.456C13.2094 5.39733 13.3267 5.35333 13.4494 5.324C13.5747 5.292 13.7094 5.276 13.8534 5.276C14.0747 5.276 14.2694 5.31333 14.4374 5.388C14.6081 5.46 14.7494 5.564 14.8614 5.7C14.9761 5.83333 15.0627 5.99467 15.1214 6.184C15.1801 6.37333 15.2094 6.58267 15.2094 6.812V9.392H14.4934V6.812C14.4934 6.50533 14.4227 6.268 14.2814 6.1C14.1427 5.92933 13.9307 5.844 13.6454 5.844C13.4347 5.844 13.2374 5.89467 13.0534 5.996C12.8721 6.09733 12.7041 6.23467 12.5494 6.408V9.392H11.8334V5.34H12.2614C12.3627 5.34 12.4254 5.38933 12.4494 5.488L12.5054 5.928Z" fill="white"/>
<path d="M17.7063 7.412C17.8503 7.412 17.977 7.392 18.0863 7.352C18.1957 7.312 18.2877 7.256 18.3623 7.184C18.437 7.112 18.493 7.02667 18.5303 6.928C18.5677 6.82667 18.5863 6.716 18.5863 6.596C18.5863 6.348 18.5103 6.15067 18.3583 6.004C18.209 5.85733 17.9917 5.784 17.7063 5.784C17.4183 5.784 17.1983 5.85733 17.0463 6.004C16.897 6.15067 16.8223 6.348 16.8223 6.596C16.8223 6.716 16.841 6.82667 16.8783 6.928C16.9183 7.02667 16.9757 7.112 17.0503 7.184C17.125 7.256 17.217 7.312 17.3263 7.352C17.4357 7.392 17.5623 7.412 17.7063 7.412ZM18.9903 9.612C18.9903 9.51333 18.9623 9.43333 18.9063 9.372C18.8503 9.31067 18.7743 9.26267 18.6783 9.228C18.585 9.19333 18.4757 9.16933 18.3503 9.156C18.225 9.14 18.0917 9.128 17.9503 9.12C17.8117 9.112 17.6703 9.104 17.5263 9.096C17.3823 9.088 17.2437 9.07467 17.1103 9.056C16.961 9.12533 16.8383 9.21333 16.7423 9.32C16.649 9.424 16.6023 9.54667 16.6023 9.688C16.6023 9.77867 16.625 9.86267 16.6703 9.94C16.7183 10.02 16.7903 10.088 16.8863 10.144C16.9823 10.2027 17.1023 10.248 17.2463 10.28C17.393 10.3147 17.565 10.332 17.7623 10.332C17.9543 10.332 18.1263 10.3147 18.2783 10.28C18.4303 10.2453 18.5583 10.196 18.6623 10.132C18.769 10.068 18.8503 9.992 18.9063 9.904C18.9623 9.816 18.9903 9.71867 18.9903 9.612ZM19.7143 5.5V5.764C19.7143 5.852 19.6583 5.908 19.5463 5.932L19.0863 5.992C19.177 6.168 19.2223 6.36267 19.2223 6.576C19.2223 6.77333 19.1837 6.95333 19.1063 7.116C19.0317 7.276 18.9277 7.41333 18.7943 7.528C18.661 7.64267 18.501 7.73067 18.3143 7.792C18.1277 7.85333 17.925 7.884 17.7063 7.884C17.517 7.884 17.3383 7.86133 17.1703 7.816C17.085 7.86933 17.0197 7.92667 16.9743 7.988C16.929 8.04667 16.9063 8.10667 16.9063 8.168C16.9063 8.264 16.945 8.33733 17.0223 8.388C17.1023 8.436 17.2063 8.47067 17.3343 8.492C17.4623 8.51333 17.6077 8.52667 17.7703 8.532C17.9357 8.53733 18.1037 8.54667 18.2743 8.56C18.4477 8.57067 18.6157 8.59067 18.7783 8.62C18.9437 8.64933 19.0903 8.69733 19.2183 8.764C19.3463 8.83067 19.449 8.92267 19.5263 9.04C19.6063 9.15733 19.6463 9.30933 19.6463 9.496C19.6463 9.66933 19.6023 9.83733 19.5143 10C19.429 10.1627 19.305 10.3067 19.1423 10.432C18.9797 10.56 18.7797 10.6613 18.5423 10.736C18.3077 10.8133 18.0423 10.852 17.7463 10.852C17.4503 10.852 17.1917 10.8227 16.9703 10.764C16.749 10.7053 16.565 10.6267 16.4183 10.528C16.2717 10.4293 16.161 10.3147 16.0863 10.184C16.0143 10.056 15.9783 9.92133 15.9783 9.78C15.9783 9.58 16.041 9.41067 16.1663 9.272C16.2917 9.13333 16.4637 9.02267 16.6823 8.94C16.5623 8.88667 16.4663 8.816 16.3943 8.728C16.325 8.63733 16.2903 8.516 16.2903 8.364C16.2903 8.30533 16.301 8.24533 16.3223 8.184C16.3437 8.12 16.3757 8.05733 16.4183 7.996C16.4637 7.932 16.5183 7.872 16.5823 7.816C16.6463 7.76 16.721 7.71067 16.8063 7.668C16.6063 7.556 16.4503 7.408 16.3383 7.224C16.2263 7.03733 16.1703 6.82133 16.1703 6.576C16.1703 6.37867 16.2077 6.2 16.2823 6.04C16.3597 5.87733 16.4663 5.74 16.6023 5.628C16.7383 5.51333 16.8997 5.42533 17.0863 5.364C17.2757 5.30267 17.4823 5.272 17.7063 5.272C17.8823 5.272 18.0463 5.292 18.1983 5.332C18.3503 5.36933 18.489 5.42533 18.6143 5.5H19.7143Z" fill="white"/>
<path d="M21.1866 3.5V9.392H20.4746V3.5H21.1866Z" fill="white"/>
<path d="M25.0532 6.924C25.0532 6.75867 25.0292 6.608 24.9812 6.472C24.9359 6.33333 24.8679 6.21467 24.7772 6.116C24.6892 6.01467 24.5812 5.93733 24.4532 5.884C24.3252 5.828 24.1799 5.8 24.0172 5.8C23.6759 5.8 23.4052 5.9 23.2052 6.1C23.0079 6.29733 22.8852 6.572 22.8372 6.924H25.0532ZM25.6292 8.824C25.5412 8.93067 25.4359 9.024 25.3132 9.104C25.1905 9.18133 25.0585 9.24533 24.9172 9.296C24.7785 9.34667 24.6345 9.384 24.4852 9.408C24.3359 9.43467 24.1879 9.448 24.0412 9.448C23.7612 9.448 23.5025 9.40133 23.2652 9.308C23.0305 9.212 22.8265 9.07333 22.6532 8.892C22.4825 8.708 22.3492 8.48133 22.2532 8.212C22.1572 7.94267 22.1092 7.63333 22.1092 7.284C22.1092 7.00133 22.1519 6.73733 22.2372 6.492C22.3252 6.24667 22.4505 6.03467 22.6132 5.856C22.7759 5.67467 22.9745 5.53333 23.2092 5.432C23.4439 5.328 23.7079 5.276 24.0012 5.276C24.2439 5.276 24.4679 5.31733 24.6732 5.4C24.8812 5.48 25.0599 5.59733 25.2092 5.752C25.3612 5.904 25.4799 6.09333 25.5652 6.32C25.6505 6.544 25.6932 6.8 25.6932 7.088C25.6932 7.2 25.6812 7.27467 25.6572 7.312C25.6332 7.34933 25.5879 7.368 25.5212 7.368H22.8132C22.8212 7.624 22.8559 7.84667 22.9172 8.036C22.9812 8.22533 23.0692 8.384 23.1812 8.512C23.2932 8.63733 23.4265 8.732 23.5812 8.796C23.7359 8.85733 23.9092 8.888 24.1012 8.888C24.2799 8.888 24.4332 8.868 24.5612 8.828C24.6919 8.78533 24.8039 8.74 24.8972 8.692C24.9905 8.644 25.0679 8.6 25.1292 8.56C25.1932 8.51733 25.2479 8.496 25.2932 8.496C25.3519 8.496 25.3972 8.51867 25.4292 8.564L25.6292 8.824Z" fill="white"/>
<path d="M41.5059 18.5779C41.4819 18.6179 41.4552 18.6486 41.4259 18.6699C41.3992 18.6886 41.3659 18.6979 41.3259 18.6979C41.2806 18.6979 41.2272 18.6752 41.1659 18.6299C41.1046 18.5846 41.0272 18.5352 40.9339 18.4819C40.8432 18.4259 40.7326 18.3752 40.6019 18.3299C40.4739 18.2846 40.3179 18.2619 40.1339 18.2619C39.9606 18.2619 39.8072 18.2859 39.6739 18.3339C39.5432 18.3792 39.4326 18.4419 39.3419 18.5219C39.2539 18.6019 39.1872 18.6966 39.1419 18.8059C39.0966 18.9126 39.0739 19.0286 39.0739 19.1539C39.0739 19.3139 39.1126 19.4472 39.1899 19.5539C39.2699 19.6579 39.3739 19.7472 39.5019 19.8219C39.6326 19.8966 39.7792 19.9619 39.9419 20.0179C40.1072 20.0712 40.2752 20.1272 40.4459 20.1859C40.6192 20.2446 40.7872 20.3112 40.9499 20.3859C41.1152 20.4579 41.2619 20.5499 41.3899 20.6619C41.5206 20.7739 41.6246 20.9112 41.7019 21.0739C41.7819 21.2366 41.8219 21.4366 41.8219 21.6739C41.8219 21.9246 41.7792 22.1606 41.6939 22.3819C41.6086 22.6006 41.4832 22.7912 41.3179 22.9539C41.1552 23.1166 40.9539 23.2446 40.7139 23.3379C40.4766 23.4312 40.2059 23.4779 39.9019 23.4779C39.5286 23.4779 39.1899 23.4112 38.8859 23.2779C38.5819 23.1419 38.3219 22.9592 38.1059 22.7299L38.3299 22.3619C38.3512 22.3326 38.3766 22.3086 38.4059 22.2899C38.4379 22.2686 38.4726 22.2579 38.5099 22.2579C38.5446 22.2579 38.5832 22.2726 38.6259 22.3019C38.6712 22.3286 38.7219 22.3632 38.7779 22.4059C38.8339 22.4486 38.8979 22.4952 38.9699 22.5459C39.0419 22.5966 39.1232 22.6432 39.2139 22.6859C39.3072 22.7286 39.4126 22.7646 39.5299 22.7939C39.6472 22.8206 39.7792 22.8339 39.9259 22.8339C40.1099 22.8339 40.2739 22.8086 40.4179 22.7579C40.5619 22.7072 40.6832 22.6366 40.7819 22.5459C40.8832 22.4526 40.9606 22.3419 41.0139 22.2139C41.0672 22.0859 41.0939 21.9432 41.0939 21.7859C41.0939 21.6126 41.0539 21.4712 40.9739 21.3619C40.8966 21.2499 40.7939 21.1566 40.6659 21.0819C40.5379 21.0072 40.3912 20.9446 40.2259 20.8939C40.0606 20.8406 39.8926 20.7872 39.7219 20.7339C39.5512 20.6779 39.3832 20.6139 39.2179 20.5419C39.0526 20.4699 38.9059 20.3766 38.7779 20.2619C38.6499 20.1472 38.5459 20.0046 38.4659 19.8339C38.3886 19.6606 38.3499 19.4472 38.3499 19.1939C38.3499 18.9912 38.3886 18.7952 38.4659 18.6059C38.5459 18.4166 38.6606 18.2486 38.8099 18.1019C38.9619 17.9552 39.1472 17.8379 39.3659 17.7499C39.5872 17.6619 39.8406 17.6179 40.1259 17.6179C40.4459 17.6179 40.7366 17.6686 40.9979 17.7699C41.2619 17.8712 41.4939 18.0179 41.6939 18.2099L41.5059 18.5779Z" fill="white"/>
<path d="M43.3953 19.9019C43.5687 19.7179 43.7607 19.5712 43.9713 19.4619C44.182 19.3526 44.4247 19.2979 44.6993 19.2979C44.9207 19.2979 45.1153 19.3352 45.2833 19.4099C45.454 19.4819 45.5953 19.5859 45.7073 19.7219C45.822 19.8552 45.9087 20.0166 45.9673 20.2059C46.026 20.3952 46.0553 20.6046 46.0553 20.8339V23.4139H45.3393V20.8339C45.3393 20.5272 45.2687 20.2899 45.1273 20.1219C44.9887 19.9512 44.7767 19.8659 44.4913 19.8659C44.2807 19.8659 44.0833 19.9166 43.8993 20.0179C43.718 20.1192 43.55 20.2566 43.3953 20.4299V23.4139H42.6793V17.5219H43.3953V19.9019Z" fill="white"/>
<path d="M47.8923 19.3619V23.4139H47.1803V19.3619H47.8923ZM48.0443 18.0899C48.0443 18.1592 48.0296 18.2246 48.0003 18.2859C47.9736 18.3446 47.9363 18.3979 47.8883 18.4459C47.8429 18.4912 47.7883 18.5272 47.7243 18.5539C47.6629 18.5806 47.5976 18.5939 47.5283 18.5939C47.4589 18.5939 47.3936 18.5806 47.3323 18.5539C47.2736 18.5272 47.2216 18.4912 47.1763 18.4459C47.1309 18.3979 47.0949 18.3446 47.0683 18.2859C47.0416 18.2246 47.0283 18.1592 47.0283 18.0899C47.0283 18.0206 47.0416 17.9552 47.0683 17.8939C47.0949 17.8299 47.1309 17.7752 47.1763 17.7299C47.2216 17.6819 47.2736 17.6446 47.3323 17.6179C47.3936 17.5912 47.4589 17.5779 47.5283 17.5779C47.5976 17.5779 47.6629 17.5912 47.7243 17.6179C47.7883 17.6446 47.8429 17.6819 47.8883 17.7299C47.9363 17.7752 47.9736 17.8299 48.0003 17.8939C48.0296 17.9552 48.0443 18.0206 48.0443 18.0899Z" fill="white"/>
<path d="M52.6301 19.9579V22.3899C52.6301 22.5606 52.6715 22.6872 52.7541 22.7699C52.8368 22.8526 52.9421 22.8939 53.0701 22.8939C53.1475 22.8939 53.2128 22.8846 53.2661 22.8659C53.3221 22.8446 53.3701 22.8219 53.4101 22.7979C53.4501 22.7739 53.4835 22.7526 53.5101 22.7339C53.5368 22.7126 53.5608 22.7019 53.5821 22.7019C53.6061 22.7019 53.6248 22.7072 53.6381 22.7179C53.6541 22.7286 53.6701 22.7459 53.6861 22.7699L53.8941 23.1099C53.7715 23.2246 53.6235 23.3152 53.4501 23.3819C53.2768 23.4459 53.0968 23.4779 52.9101 23.4779C52.5928 23.4779 52.3475 23.3886 52.1741 23.2099C52.0035 23.0312 51.9181 22.7739 51.9181 22.4379V19.9579H50.0421V23.4139H49.3261V19.9699L48.8781 19.9179C48.8221 19.9046 48.7755 19.8846 48.7381 19.8579C48.7035 19.8286 48.6861 19.7872 48.6861 19.7339V19.4419H49.3261V19.0499C49.3261 18.8179 49.3581 18.6126 49.4221 18.4339C49.4888 18.2526 49.5821 18.1006 49.7021 17.9779C49.8248 17.8526 49.9715 17.7579 50.1421 17.6939C50.3128 17.6299 50.5048 17.5979 50.7181 17.5979C50.8995 17.5979 51.0661 17.6246 51.2181 17.6779L51.2021 18.0339C51.1968 18.0979 51.1608 18.1326 51.0941 18.1379C51.0301 18.1432 50.9435 18.1459 50.8341 18.1459C50.7115 18.1459 50.5995 18.1619 50.4981 18.1939C50.3995 18.2259 50.3141 18.2779 50.2421 18.3499C50.1701 18.4219 50.1141 18.5166 50.0741 18.6339C50.0368 18.7512 50.0181 18.8966 50.0181 19.0699V19.4419H51.9421L52.1021 18.1819C52.1128 18.1419 52.1315 18.1099 52.1581 18.0859C52.1875 18.0592 52.2248 18.0459 52.2701 18.0459H52.6301V19.4419H53.7981V19.9579H52.6301Z" fill="white"/>
<path d="M72.3557 34.4701C72.3557 34.8994 72.2877 35.2901 72.1517 35.6421C72.0157 35.9941 71.8237 36.2954 71.5757 36.5461C71.3277 36.7967 71.029 36.9914 70.6797 37.1301C70.333 37.2661 69.949 37.3341 69.5277 37.3341H67.3877V31.6021H69.5277C69.949 31.6021 70.333 31.6714 70.6797 31.8101C71.029 31.9461 71.3277 32.1407 71.5757 32.3941C71.8237 32.6447 72.0157 32.9461 72.1517 33.2981C72.2877 33.6501 72.3557 34.0407 72.3557 34.4701ZM71.5597 34.4701C71.5597 34.1181 71.5117 33.8034 71.4157 33.5261C71.3197 33.2487 71.1837 33.0141 71.0077 32.8221C70.8317 32.6301 70.6183 32.4834 70.3677 32.3821C70.117 32.2807 69.837 32.2301 69.5277 32.2301H68.1637V36.7061H69.5277C69.837 36.7061 70.117 36.6554 70.3677 36.5541C70.6183 36.4527 70.8317 36.3074 71.0077 36.1181C71.1837 35.9261 71.3197 35.6914 71.4157 35.4141C71.5117 35.1367 71.5597 34.8221 71.5597 34.4701Z" fill="white"/>
<path d="M73.8957 34.0941C74.0237 33.8167 74.181 33.6007 74.3677 33.4461C74.5543 33.2887 74.7823 33.2101 75.0517 33.2101C75.137 33.2101 75.2183 33.2194 75.2957 33.2381C75.3757 33.2567 75.4463 33.2861 75.5077 33.3261L75.4557 33.8581C75.4397 33.9247 75.3997 33.9581 75.3357 33.9581C75.2983 33.9581 75.2437 33.9501 75.1717 33.9341C75.0997 33.9181 75.0183 33.9101 74.9277 33.9101C74.7997 33.9101 74.685 33.9287 74.5837 33.9661C74.485 34.0034 74.3957 34.0594 74.3157 34.1341C74.2383 34.2061 74.1677 34.2967 74.1037 34.4061C74.0423 34.5127 73.9863 34.6354 73.9357 34.7741V37.3341H73.2197V33.2821H73.6277C73.705 33.2821 73.7583 33.2967 73.7877 33.3261C73.817 33.3554 73.837 33.4061 73.8477 33.4781L73.8957 34.0941Z" fill="white"/>
<path d="M78.2672 35.5101C77.9392 35.5207 77.6592 35.5474 77.4272 35.5901C77.1979 35.6301 77.0099 35.6834 76.8632 35.7501C76.7192 35.8167 76.6139 35.8954 76.5472 35.9861C76.4832 36.0767 76.4512 36.1781 76.4512 36.2901C76.4512 36.3967 76.4686 36.4887 76.5032 36.5661C76.5379 36.6434 76.5846 36.7074 76.6432 36.7581C76.7046 36.8061 76.7752 36.8421 76.8552 36.8661C76.9379 36.8874 77.0259 36.8981 77.1192 36.8981C77.2446 36.8981 77.3592 36.8861 77.4632 36.8621C77.5672 36.8354 77.6646 36.7981 77.7552 36.7501C77.8486 36.7021 77.9366 36.6447 78.0192 36.5781C78.1046 36.5114 78.1872 36.4354 78.2672 36.3501V35.5101ZM75.9672 33.8541C76.1912 33.6381 76.4326 33.4767 76.6912 33.3701C76.9499 33.2634 77.2366 33.2101 77.5512 33.2101C77.7779 33.2101 77.9792 33.2474 78.1552 33.3221C78.3312 33.3967 78.4792 33.5007 78.5992 33.6341C78.7192 33.7674 78.8099 33.9287 78.8712 34.1181C78.9326 34.3074 78.9632 34.5154 78.9632 34.7421V37.3341H78.6472C78.5779 37.3341 78.5246 37.3234 78.4872 37.3021C78.4499 37.2781 78.4206 37.2327 78.3992 37.1661L78.3192 36.7821C78.2126 36.8807 78.1086 36.9687 78.0072 37.0461C77.9059 37.1207 77.7992 37.1847 77.6872 37.2381C77.5752 37.2887 77.4552 37.3274 77.3272 37.3541C77.2019 37.3834 77.0619 37.3981 76.9072 37.3981C76.7499 37.3981 76.6019 37.3767 76.4632 37.3341C76.3246 37.2887 76.2032 37.2221 76.0992 37.1341C75.9979 37.0461 75.9166 36.9354 75.8552 36.8021C75.7966 36.6661 75.7672 36.5061 75.7672 36.3221C75.7672 36.1621 75.8112 36.0087 75.8992 35.8621C75.9872 35.7127 76.1299 35.5807 76.3272 35.4661C76.5246 35.3514 76.7819 35.2581 77.0992 35.1861C77.4166 35.1114 77.8059 35.0687 78.2672 35.0581V34.7421C78.2672 34.4274 78.1992 34.1901 78.0632 34.0301C77.9272 33.8674 77.7286 33.7861 77.4672 33.7861C77.2912 33.7861 77.1432 33.8087 77.0232 33.8541C76.9059 33.8967 76.8032 33.9461 76.7152 34.0021C76.6299 34.0554 76.5552 34.1047 76.4912 34.1501C76.4299 34.1927 76.3686 34.2141 76.3072 34.2141C76.2592 34.2141 76.2179 34.2021 76.1832 34.1781C76.1486 34.1514 76.1192 34.1194 76.0952 34.0821L75.9672 33.8541Z" fill="white"/>
<path d="M85.6124 33.2821L84.3004 37.3341H83.7364C83.667 37.3341 83.619 37.2887 83.5924 37.1981L82.6964 34.4501C82.675 34.3887 82.6577 34.3274 82.6444 34.2661C82.631 34.2021 82.6177 34.1394 82.6044 34.0781C82.591 34.1394 82.5777 34.2021 82.5644 34.2661C82.551 34.3274 82.5337 34.3901 82.5124 34.4541L81.6004 37.1981C81.5764 37.2887 81.523 37.3341 81.4404 37.3341H80.9044L79.5924 33.2821H80.1524C80.2084 33.2821 80.255 33.2967 80.2924 33.3261C80.3324 33.3554 80.359 33.3901 80.3724 33.4301L81.1484 36.0381C81.1937 36.2301 81.2297 36.4114 81.2564 36.5821C81.2804 36.4941 81.3044 36.4047 81.3284 36.3141C81.355 36.2234 81.383 36.1314 81.4124 36.0381L82.2684 33.4141C82.2817 33.3741 82.3044 33.3407 82.3364 33.3141C82.371 33.2874 82.4124 33.2741 82.4604 33.2741H82.7724C82.8257 33.2741 82.8697 33.2874 82.9044 33.3141C82.939 33.3407 82.963 33.3741 82.9764 33.4141L83.8124 36.0381C83.8417 36.1314 83.8684 36.2234 83.8924 36.3141C83.9164 36.4047 83.939 36.4941 83.9604 36.5821C83.9737 36.4941 83.9897 36.4061 84.0084 36.3181C84.0297 36.2274 84.0524 36.1341 84.0764 36.0381L84.8684 33.4301C84.8817 33.3874 84.907 33.3527 84.9444 33.3261C84.9817 33.2967 85.0257 33.2821 85.0764 33.2821H85.6124Z" fill="white"/>
</g>
<defs>
<clipPath id="clip0_204_7350">
<rect width="92" height="42" fill="white"/>
</clipPath>
</defs>
</svg>
