<svg width="106" height="98" viewBox="0 0 106 98" fill="none" xmlns="http://www.w3.org/2000/svg">
<rect x="1" y="0.5" width="14" height="13" fill="white" fill-opacity="0.2"/>
<path d="M4.35376 7.06401H6.42576V7.88801H4.35376V7.06401Z" fill="white"/>
<path d="M7.31413 5.72001C7.35413 5.44267 7.43147 5.20001 7.54613 4.99201C7.6608 4.78134 7.80347 4.60667 7.97413 4.46801C8.14747 4.32667 8.3448 4.22134 8.56613 4.15201C8.79013 4.08001 9.03013 4.04401 9.28613 4.04401C9.5528 4.04401 9.7928 4.08267 10.0061 4.16001C10.2221 4.23467 10.4061 4.34001 10.5581 4.47601C10.7101 4.60934 10.8261 4.76667 10.9061 4.94801C10.9888 5.12934 11.0301 5.32534 11.0301 5.53601C11.0301 5.72001 11.0088 5.88267 10.9661 6.02401C10.9261 6.16267 10.8675 6.28401 10.7901 6.38801C10.7128 6.49201 10.6168 6.58001 10.5021 6.65201C10.3875 6.72401 10.2581 6.78401 10.1141 6.83201C10.4608 6.94134 10.7195 7.10801 10.8901 7.33201C11.0608 7.55601 11.1461 7.83734 11.1461 8.17601C11.1461 8.46401 11.0928 8.71867 10.9861 8.94001C10.8795 9.16134 10.7355 9.34801 10.5541 9.50001C10.3728 9.64934 10.1621 9.76267 9.92213 9.84001C9.6848 9.91734 9.4328 9.95601 9.16613 9.95601C8.87547 9.95601 8.62213 9.92267 8.40613 9.85601C8.19013 9.78934 8.00213 9.69067 7.84213 9.56001C7.68213 9.42934 7.54613 9.26934 7.43413 9.08001C7.32213 8.89067 7.22613 8.67201 7.14613 8.42401L7.58213 8.24401C7.6968 8.19601 7.80347 8.18401 7.90213 8.20801C8.00347 8.22934 8.0768 8.28267 8.12213 8.36801C8.17013 8.46134 8.22213 8.55334 8.27813 8.64401C8.3368 8.73467 8.40614 8.81601 8.48614 8.88801C8.56614 8.95734 8.65947 9.01467 8.76613 9.06001C8.87547 9.10267 9.0048 9.12401 9.15413 9.12401C9.32213 9.12401 9.4688 9.09734 9.59413 9.04401C9.71947 8.98801 9.82347 8.91601 9.90614 8.82801C9.99147 8.74001 10.0541 8.64267 10.0941 8.53601C10.1368 8.42667 10.1581 8.31734 10.1581 8.20801C10.1581 8.06934 10.1435 7.94401 10.1141 7.83201C10.0848 7.71734 10.0235 7.62001 9.93013 7.54001C9.8368 7.46001 9.70214 7.39734 9.52613 7.35201C9.3528 7.30667 9.11947 7.28401 8.82613 7.28401V6.58001C9.0688 6.57734 9.27013 6.55467 9.43013 6.51201C9.59013 6.46934 9.7168 6.41067 9.81013 6.33601C9.90613 6.25867 9.9728 6.16667 10.0101 6.06001C10.0475 5.95334 10.0661 5.83601 10.0661 5.70801C10.0661 5.43601 9.99013 5.22934 9.83813 5.08801C9.68613 4.94667 9.48347 4.87601 9.23013 4.87601C9.1128 4.87601 9.0048 4.89334 8.90614 4.92801C8.80747 4.96001 8.71813 5.00667 8.63813 5.06801C8.5608 5.12667 8.49547 5.19601 8.44213 5.27601C8.3888 5.35601 8.3488 5.44401 8.32213 5.54001C8.2768 5.66267 8.2168 5.74401 8.14213 5.78401C8.07013 5.82401 7.96747 5.83334 7.83413 5.81201L7.31413 5.72001Z" fill="white"/>
<rect x="16" y="14.5" width="14" height="13" fill="white" fill-opacity="0.2"/>
<path d="M19.3499 21.096H21.4219V21.92H19.3499V21.096Z" fill="white"/>
<path d="M25.8022 23.004C25.9089 23.004 25.9929 23.0347 26.0542 23.096C26.1182 23.1547 26.1502 23.2333 26.1502 23.332V23.924H22.1822V23.596C22.1822 23.5293 22.1956 23.46 22.2222 23.388C22.2516 23.3133 22.2969 23.2467 22.3582 23.188L24.1142 21.428C24.2609 21.2787 24.3916 21.136 24.5062 21C24.6236 20.864 24.7209 20.7293 24.7982 20.596C24.8756 20.4627 24.9342 20.328 24.9742 20.192C25.0169 20.0533 25.0382 19.908 25.0382 19.756C25.0382 19.6173 25.0182 19.496 24.9782 19.392C24.9382 19.2853 24.8809 19.196 24.8062 19.124C24.7342 19.052 24.6462 18.9987 24.5422 18.964C24.4409 18.9267 24.3262 18.908 24.1982 18.908C24.0809 18.908 23.9716 18.9253 23.8702 18.96C23.7716 18.992 23.6836 19.0387 23.6062 19.1C23.5289 19.1587 23.4636 19.228 23.4102 19.308C23.3569 19.388 23.3169 19.476 23.2902 19.572C23.2449 19.6947 23.1862 19.776 23.1142 19.816C23.0422 19.856 22.9382 19.8653 22.8022 19.844L22.2822 19.752C22.3222 19.4747 22.3996 19.232 22.5142 19.024C22.6289 18.8133 22.7716 18.6387 22.9422 18.5C23.1156 18.3587 23.3129 18.2533 23.5342 18.184C23.7582 18.112 23.9982 18.076 24.2542 18.076C24.5209 18.076 24.7649 18.116 24.9862 18.196C25.2076 18.2733 25.3969 18.384 25.5542 18.528C25.7116 18.672 25.8342 18.8453 25.9222 19.048C26.0102 19.2507 26.0542 19.476 26.0542 19.724C26.0542 19.9373 26.0222 20.1347 25.9582 20.316C25.8969 20.4973 25.8129 20.6707 25.7062 20.836C25.6022 21.0013 25.4796 21.1613 25.3382 21.316C25.1969 21.4707 25.0489 21.628 24.8942 21.788L23.5902 23.12C23.7156 23.0827 23.8396 23.0547 23.9622 23.036C24.0876 23.0147 24.2062 23.004 24.3182 23.004H25.8022Z" fill="white"/>
<rect x="46" y="42.5" width="14" height="13" fill="white" fill-opacity="0.2"/>
<path d="M55.12 49C55.12 49.504 55.0653 49.9427 54.956 50.316C54.8493 50.6867 54.7 50.9933 54.508 51.236C54.3187 51.4787 54.0933 51.66 53.832 51.78C53.5733 51.8973 53.2933 51.956 52.992 51.956C52.6907 51.956 52.4107 51.8973 52.152 51.78C51.896 51.66 51.6733 51.4787 51.484 51.236C51.2947 50.9933 51.1467 50.6867 51.04 50.316C50.9333 49.9427 50.88 49.504 50.88 49C50.88 48.4933 50.9333 48.0547 51.04 47.684C51.1467 47.3133 51.2947 47.0067 51.484 46.764C51.6733 46.5213 51.896 46.3413 52.152 46.224C52.4107 46.104 52.6907 46.044 52.992 46.044C53.2933 46.044 53.5733 46.104 53.832 46.224C54.0933 46.3413 54.3187 46.5213 54.508 46.764C54.7 47.0067 54.8493 47.3133 54.956 47.684C55.0653 48.0547 55.12 48.4933 55.12 49ZM54.1 49C54.1 48.5813 54.0693 48.2347 54.008 47.96C53.9467 47.6853 53.864 47.4667 53.76 47.304C53.6587 47.1413 53.5413 47.028 53.408 46.964C53.2747 46.8973 53.136 46.864 52.992 46.864C52.8507 46.864 52.7133 46.8973 52.58 46.964C52.4493 47.028 52.3333 47.1413 52.232 47.304C52.1307 47.4667 52.0493 47.6853 51.988 47.96C51.9293 48.2347 51.9 48.5813 51.9 49C51.9 49.4187 51.9293 49.7653 51.988 50.04C52.0493 50.3147 52.1307 50.5333 52.232 50.696C52.3333 50.8587 52.4493 50.9733 52.58 51.04C52.7133 51.104 52.8507 51.136 52.992 51.136C53.136 51.136 53.2747 51.104 53.408 51.04C53.5413 50.9733 53.6587 50.8587 53.76 50.696C53.864 50.5333 53.9467 50.3147 54.008 50.04C54.0693 49.7653 54.1 49.4187 54.1 49Z" fill="white"/>
<rect x="31" y="28.5" width="14" height="13" fill="white" fill-opacity="0.2"/>
<path d="M34.4158 35.068H36.4878V35.892H34.4158V35.068Z" fill="white"/>
<path d="M41.0841 37.156V37.896H37.8841V37.156H39.0561V33.784C39.0561 33.6507 39.0601 33.5133 39.0681 33.372L38.2361 34.068C38.1881 34.1053 38.1401 34.1293 38.0921 34.14C38.0468 34.148 38.0028 34.148 37.9601 34.14C37.9201 34.132 37.8841 34.1187 37.8521 34.1C37.8201 34.0787 37.7961 34.056 37.7801 34.032L37.4681 33.604L39.2321 32.104H40.0441V37.156H41.0841Z" fill="white"/>
<rect x="61" y="56.5" width="14" height="13" fill="white" fill-opacity="0.2"/>
<path d="M67.4457 63.576H65.8937V65.224H65.0897V63.576H63.5457V62.844H65.0897V61.204H65.8937V62.844H67.4457V63.576Z" fill="white"/>
<path d="M71.9543 65.156V65.896H68.7543V65.156H69.9263V61.784C69.9263 61.6507 69.9303 61.5133 69.9383 61.372L69.1063 62.068C69.0583 62.1053 69.0103 62.1293 68.9623 62.14C68.9169 62.148 68.8729 62.148 68.8303 62.14C68.7903 62.132 68.7543 62.1187 68.7223 62.1C68.6903 62.0787 68.6663 62.056 68.6503 62.032L68.3383 61.604L70.1023 60.104H70.9143V65.156H71.9543Z" fill="white"/>
<rect x="91" y="84.5" width="14" height="13" fill="white" fill-opacity="0.2"/>
<path d="M97.3836 91.572H95.8316V93.22H95.0276V91.572H93.4836V90.84H95.0276V89.2H95.8316V90.84H97.3836V91.572Z" fill="white"/>
<path d="M98.1843 89.72C98.2243 89.4427 98.3016 89.2 98.4163 88.992C98.5309 88.7813 98.6736 88.6067 98.8443 88.468C99.0176 88.3267 99.2149 88.2213 99.4363 88.152C99.6603 88.08 99.9003 88.044 100.156 88.044C100.423 88.044 100.663 88.0827 100.876 88.16C101.092 88.2347 101.276 88.34 101.428 88.476C101.58 88.6093 101.696 88.7667 101.776 88.948C101.859 89.1293 101.9 89.3253 101.9 89.536C101.9 89.72 101.879 89.8827 101.836 90.024C101.796 90.1627 101.738 90.284 101.66 90.388C101.583 90.492 101.487 90.58 101.372 90.652C101.258 90.724 101.128 90.784 100.984 90.832C101.331 90.9413 101.59 91.108 101.76 91.332C101.931 91.556 102.016 91.8373 102.016 92.176C102.016 92.464 101.963 92.7187 101.856 92.94C101.75 93.1613 101.606 93.348 101.424 93.5C101.243 93.6493 101.032 93.7627 100.792 93.84C100.555 93.9173 100.303 93.956 100.036 93.956C99.7456 93.956 99.4923 93.9227 99.2763 93.856C99.0603 93.7893 98.8723 93.6907 98.7123 93.56C98.5523 93.4293 98.4163 93.2693 98.3043 93.08C98.1923 92.8907 98.0963 92.672 98.0163 92.424L98.4523 92.244C98.5669 92.196 98.6736 92.184 98.7723 92.208C98.8736 92.2293 98.9469 92.2827 98.9923 92.368C99.0403 92.4613 99.0923 92.5533 99.1483 92.644C99.2069 92.7347 99.2763 92.816 99.3563 92.888C99.4363 92.9573 99.5296 93.0147 99.6363 93.06C99.7456 93.1027 99.8749 93.124 100.024 93.124C100.192 93.124 100.339 93.0973 100.464 93.044C100.59 92.988 100.694 92.916 100.776 92.828C100.862 92.74 100.924 92.6427 100.964 92.536C101.007 92.4267 101.028 92.3173 101.028 92.208C101.028 92.0693 101.014 91.944 100.984 91.832C100.955 91.7173 100.894 91.62 100.8 91.54C100.707 91.46 100.572 91.3973 100.396 91.352C100.223 91.3067 99.9896 91.284 99.6963 91.284V90.58C99.9389 90.5773 100.14 90.5547 100.3 90.512C100.46 90.4693 100.587 90.4107 100.68 90.336C100.776 90.2587 100.843 90.1667 100.88 90.06C100.918 89.9533 100.936 89.836 100.936 89.708C100.936 89.436 100.86 89.2293 100.708 89.088C100.556 88.9467 100.354 88.876 100.1 88.876C99.9829 88.876 99.8749 88.8933 99.7763 88.928C99.6776 88.96 99.5883 89.0067 99.5083 89.068C99.4309 89.1267 99.3656 89.196 99.3123 89.276C99.2589 89.356 99.2189 89.444 99.1923 89.54C99.1469 89.6627 99.0869 89.744 99.0123 89.784C98.9403 89.824 98.8376 89.8333 98.7043 89.812L98.1843 89.72Z" fill="white"/>
<rect x="76" y="70.5" width="14" height="13" fill="white" fill-opacity="0.2"/>
<path d="M82.3797 77.604H80.8277V79.252H80.0237V77.604H78.4797V76.872H80.0237V75.232H80.8277V76.872H82.3797V77.604Z" fill="white"/>
<path d="M86.6724 79.004C86.779 79.004 86.863 79.0347 86.9244 79.096C86.9884 79.1547 87.0204 79.2333 87.0204 79.332V79.924H83.0524V79.596C83.0524 79.5293 83.0657 79.46 83.0924 79.388C83.1217 79.3133 83.167 79.2467 83.2284 79.188L84.9844 77.428C85.131 77.2787 85.2617 77.136 85.3764 77C85.4937 76.864 85.591 76.7293 85.6684 76.596C85.7457 76.4627 85.8044 76.328 85.8444 76.192C85.887 76.0533 85.9084 75.908 85.9084 75.756C85.9084 75.6173 85.8884 75.496 85.8484 75.392C85.8084 75.2853 85.751 75.196 85.6764 75.124C85.6044 75.052 85.5164 74.9987 85.4124 74.964C85.311 74.9267 85.1964 74.908 85.0684 74.908C84.951 74.908 84.8417 74.9253 84.7404 74.96C84.6417 74.992 84.5537 75.0387 84.4764 75.1C84.399 75.1587 84.3337 75.228 84.2804 75.308C84.227 75.388 84.187 75.476 84.1604 75.572C84.115 75.6947 84.0564 75.776 83.9844 75.816C83.9124 75.856 83.8084 75.8653 83.6724 75.844L83.1524 75.752C83.1924 75.4747 83.2697 75.232 83.3844 75.024C83.499 74.8133 83.6417 74.6387 83.8124 74.5C83.9857 74.3587 84.183 74.2533 84.4044 74.184C84.6284 74.112 84.8684 74.076 85.1244 74.076C85.391 74.076 85.635 74.116 85.8564 74.196C86.0777 74.2733 86.267 74.384 86.4244 74.528C86.5817 74.672 86.7044 74.8453 86.7924 75.048C86.8804 75.2507 86.9244 75.476 86.9244 75.724C86.9244 75.9373 86.8924 76.1347 86.8284 76.316C86.767 76.4973 86.683 76.6707 86.5764 76.836C86.4724 77.0013 86.3497 77.1613 86.2084 77.316C86.067 77.4707 85.919 77.628 85.7644 77.788L84.4604 79.12C84.5857 79.0827 84.7097 79.0547 84.8324 79.036C84.9577 79.0147 85.0764 79.004 85.1884 79.004H86.6724Z" fill="white"/>
</svg>
