<svg width="50" height="117" viewBox="0 0 50 117" fill="none" xmlns="http://www.w3.org/2000/svg">
<g clip-path="url(#clip0_204_6945)">
<rect width="50" height="13" fill="white" fill-opacity="0.2"/>
<path d="M12.7931 4.23405V6.23805H15.1491V6.87005H12.7931V9.33405H12.0171V3.60205H15.5491V4.23405H12.7931Z" fill="white"/>
<path d="M16.7048 6.09405C16.8328 5.81672 16.9901 5.60072 17.1768 5.44605C17.3634 5.28872 17.5914 5.21005 17.8608 5.21005C17.9461 5.21005 18.0274 5.21938 18.1048 5.23805C18.1848 5.25672 18.2554 5.28605 18.3168 5.32605L18.2648 5.85805C18.2488 5.92472 18.2088 5.95805 18.1448 5.95805C18.1074 5.95805 18.0528 5.95005 17.9808 5.93405C17.9088 5.91805 17.8274 5.91005 17.7368 5.91005C17.6088 5.91005 17.4941 5.92872 17.3928 5.96605C17.2941 6.00338 17.2048 6.05938 17.1248 6.13405C17.0474 6.20605 16.9768 6.29672 16.9128 6.40605C16.8514 6.51272 16.7954 6.63538 16.7448 6.77405V9.33405H16.0288V5.28205H16.4368C16.5141 5.28205 16.5674 5.29672 16.5968 5.32605C16.6261 5.35538 16.6461 5.40605 16.6568 5.47805L16.7048 6.09405Z" fill="white"/>
<path d="M21.4908 6.86605C21.4908 6.70072 21.4668 6.55005 21.4188 6.41405C21.3734 6.27538 21.3054 6.15672 21.2148 6.05805C21.1268 5.95672 21.0188 5.87938 20.8908 5.82605C20.7628 5.77005 20.6174 5.74205 20.4548 5.74205C20.1134 5.74205 19.8428 5.84205 19.6428 6.04205C19.4454 6.23938 19.3228 6.51405 19.2748 6.86605H21.4908ZM22.0668 8.76605C21.9788 8.87272 21.8734 8.96605 21.7508 9.04605C21.6281 9.12338 21.4961 9.18738 21.3548 9.23805C21.2161 9.28872 21.0721 9.32605 20.9228 9.35005C20.7734 9.37672 20.6254 9.39005 20.4788 9.39005C20.1988 9.39005 19.9401 9.34338 19.7028 9.25005C19.4681 9.15405 19.2641 9.01538 19.0908 8.83405C18.9201 8.65005 18.7868 8.42338 18.6908 8.15405C18.5948 7.88472 18.5468 7.57538 18.5468 7.22605C18.5468 6.94338 18.5894 6.67938 18.6748 6.43405C18.7628 6.18872 18.8881 5.97672 19.0508 5.79805C19.2134 5.61672 19.4121 5.47538 19.6468 5.37405C19.8814 5.27005 20.1454 5.21805 20.4388 5.21805C20.6814 5.21805 20.9054 5.25938 21.1108 5.34205C21.3188 5.42205 21.4974 5.53938 21.6468 5.69405C21.7988 5.84605 21.9174 6.03538 22.0028 6.26205C22.0881 6.48605 22.1308 6.74205 22.1308 7.03005C22.1308 7.14205 22.1188 7.21672 22.0948 7.25405C22.0708 7.29138 22.0254 7.31005 21.9588 7.31005H19.2508C19.2588 7.56605 19.2934 7.78872 19.3548 7.97805C19.4188 8.16738 19.5068 8.32605 19.6188 8.45405C19.7308 8.57938 19.8641 8.67405 20.0188 8.73805C20.1734 8.79938 20.3468 8.83005 20.5388 8.83005C20.7174 8.83005 20.8708 8.81005 20.9988 8.77005C21.1294 8.72738 21.2414 8.68205 21.3348 8.63405C21.4281 8.58605 21.5054 8.54205 21.5668 8.50205C21.6308 8.45938 21.6854 8.43805 21.7308 8.43805C21.7894 8.43805 21.8348 8.46072 21.8668 8.50605L22.0668 8.76605Z" fill="white"/>
<path d="M25.7173 6.86605C25.7173 6.70072 25.6933 6.55005 25.6453 6.41405C25.6 6.27538 25.532 6.15672 25.4413 6.05805C25.3533 5.95672 25.2453 5.87938 25.1173 5.82605C24.9893 5.77005 24.844 5.74205 24.6813 5.74205C24.34 5.74205 24.0693 5.84205 23.8693 6.04205C23.672 6.23938 23.5493 6.51405 23.5013 6.86605H25.7173ZM26.2933 8.76605C26.2053 8.87272 26.1 8.96605 25.9773 9.04605C25.8547 9.12338 25.7227 9.18738 25.5813 9.23805C25.4427 9.28872 25.2987 9.32605 25.1493 9.35005C25 9.37672 24.852 9.39005 24.7053 9.39005C24.4253 9.39005 24.1667 9.34338 23.9293 9.25005C23.6947 9.15405 23.4907 9.01538 23.3173 8.83405C23.1467 8.65005 23.0133 8.42338 22.9173 8.15405C22.8213 7.88472 22.7733 7.57538 22.7733 7.22605C22.7733 6.94338 22.816 6.67938 22.9013 6.43405C22.9893 6.18872 23.1147 5.97672 23.2773 5.79805C23.44 5.61672 23.6387 5.47538 23.8733 5.37405C24.108 5.27005 24.372 5.21805 24.6653 5.21805C24.908 5.21805 25.132 5.25938 25.3373 5.34205C25.5453 5.42205 25.724 5.53938 25.8733 5.69405C26.0253 5.84605 26.144 6.03538 26.2293 6.26205C26.3147 6.48605 26.3573 6.74205 26.3573 7.03005C26.3573 7.14205 26.3453 7.21672 26.3213 7.25405C26.2973 7.29138 26.252 7.31005 26.1853 7.31005H23.4773C23.4853 7.56605 23.52 7.78872 23.5813 7.97805C23.6453 8.16738 23.7333 8.32605 23.8453 8.45405C23.9573 8.57938 24.0907 8.67405 24.2453 8.73805C24.4 8.79938 24.5733 8.83005 24.7653 8.83005C24.944 8.83005 25.0973 8.81005 25.2253 8.77005C25.356 8.72738 25.468 8.68205 25.5613 8.63405C25.6547 8.58605 25.732 8.54205 25.7933 8.50205C25.8573 8.45938 25.912 8.43805 25.9573 8.43805C26.016 8.43805 26.0613 8.46072 26.0933 8.50605L26.2933 8.76605Z" fill="white"/>
<path d="M27.9079 6.09405C28.0359 5.81672 28.1932 5.60072 28.3799 5.44605C28.5666 5.28872 28.7946 5.21005 29.0639 5.21005C29.1492 5.21005 29.2306 5.21938 29.3079 5.23805C29.3879 5.25672 29.4586 5.28605 29.5199 5.32605L29.4679 5.85805C29.4519 5.92472 29.4119 5.95805 29.3479 5.95805C29.3106 5.95805 29.2559 5.95005 29.1839 5.93405C29.1119 5.91805 29.0306 5.91005 28.9399 5.91005C28.8119 5.91005 28.6972 5.92872 28.5959 5.96605C28.4972 6.00338 28.4079 6.05938 28.3279 6.13405C28.2506 6.20605 28.1799 6.29672 28.1159 6.40605C28.0546 6.51272 27.9986 6.63538 27.9479 6.77405V9.33405H27.2319V5.28205H27.6399C27.7172 5.28205 27.7706 5.29672 27.7999 5.32605C27.8292 5.35538 27.8492 5.40605 27.8599 5.47805L27.9079 6.09405Z" fill="white"/>
<path d="M33.478 5.28205V9.33405H33.054C32.9526 9.33405 32.8886 9.28472 32.862 9.18605L32.806 8.75005C32.63 8.94472 32.4326 9.10205 32.214 9.22205C31.9953 9.33938 31.7446 9.39805 31.462 9.39805C31.2406 9.39805 31.0446 9.36205 30.874 9.29005C30.706 9.21538 30.5646 9.11138 30.45 8.97805C30.3353 8.84472 30.2486 8.68338 30.19 8.49405C30.134 8.30472 30.106 8.09538 30.106 7.86605V5.28205H30.818V7.86605C30.818 8.17272 30.8873 8.41005 31.026 8.57805C31.1673 8.74605 31.382 8.83005 31.67 8.83005C31.8806 8.83005 32.0766 8.78072 32.258 8.68205C32.442 8.58072 32.6113 8.44205 32.766 8.26605V5.28205H33.478Z" fill="white"/>
<path d="M35.2789 5.87005C35.3669 5.77138 35.4602 5.68205 35.5589 5.60205C35.6576 5.52205 35.7616 5.45405 35.8709 5.39805C35.9829 5.33938 36.1002 5.29538 36.2229 5.26605C36.3482 5.23405 36.4829 5.21805 36.6269 5.21805C36.8482 5.21805 37.0429 5.25538 37.2109 5.33005C37.3816 5.40205 37.5229 5.50605 37.6349 5.64205C37.7496 5.77538 37.8362 5.93672 37.8949 6.12605C37.9536 6.31538 37.9829 6.52472 37.9829 6.75405V9.33405H37.2669V6.75405C37.2669 6.44738 37.1962 6.21005 37.0549 6.04205C36.9162 5.87138 36.7042 5.78605 36.4189 5.78605C36.2082 5.78605 36.0109 5.83672 35.8269 5.93805C35.6456 6.03938 35.4776 6.17672 35.3229 6.35005V9.33405H34.6069V5.28205H35.0349C35.1362 5.28205 35.1989 5.33138 35.2229 5.43005L35.2789 5.87005Z" fill="white"/>
<rect y="52" width="50" height="13" fill="white" fill-opacity="0.2"/>
<path d="M8.00888 58.216H8.30088C8.40221 58.216 8.48354 58.204 8.54488 58.18C8.60621 58.1533 8.66221 58.1093 8.71288 58.048L10.6209 55.888C10.6742 55.8186 10.7302 55.7706 10.7889 55.744C10.8475 55.7173 10.9195 55.704 11.0049 55.704H11.6609L9.47688 58.172C9.42354 58.236 9.37154 58.2893 9.32088 58.332C9.27288 58.372 9.22088 58.4053 9.16488 58.432C9.23688 58.456 9.30221 58.492 9.36088 58.54C9.41954 58.5853 9.47688 58.6453 9.53288 58.72L11.8129 61.436H11.1409C11.0902 61.436 11.0462 61.4333 11.0089 61.428C10.9742 61.42 10.9435 61.4093 10.9169 61.396C10.8902 61.38 10.8662 61.3626 10.8449 61.344C10.8262 61.3226 10.8075 61.2986 10.7889 61.272L8.81288 58.996C8.75954 58.9293 8.70221 58.8826 8.64088 58.856C8.57954 58.8266 8.48621 58.812 8.36088 58.812H8.00888V61.436H7.23688V55.704H8.00888V58.216Z" fill="white"/>
<path d="M14.7731 58.968C14.7731 58.8026 14.7491 58.652 14.7011 58.516C14.6557 58.3773 14.5877 58.2586 14.4971 58.16C14.4091 58.0586 14.3011 57.9813 14.1731 57.928C14.0451 57.872 13.8997 57.844 13.7371 57.844C13.3957 57.844 13.1251 57.944 12.9251 58.144C12.7277 58.3413 12.6051 58.616 12.5571 58.968H14.7731ZM15.3491 60.868C15.2611 60.9746 15.1557 61.068 15.0331 61.148C14.9104 61.2253 14.7784 61.2893 14.6371 61.34C14.4984 61.3906 14.3544 61.428 14.2051 61.452C14.0557 61.4786 13.9077 61.492 13.7611 61.492C13.4811 61.492 13.2224 61.4453 12.9851 61.352C12.7504 61.256 12.5464 61.1173 12.3731 60.936C12.2024 60.752 12.0691 60.5253 11.9731 60.256C11.8771 59.9866 11.8291 59.6773 11.8291 59.328C11.8291 59.0453 11.8717 58.7813 11.9571 58.536C12.0451 58.2906 12.1704 58.0786 12.3331 57.9C12.4957 57.7186 12.6944 57.5773 12.9291 57.476C13.1637 57.372 13.4277 57.32 13.7211 57.32C13.9637 57.32 14.1877 57.3613 14.3931 57.444C14.6011 57.524 14.7797 57.6413 14.9291 57.796C15.0811 57.948 15.1997 58.1373 15.2851 58.364C15.3704 58.588 15.4131 58.844 15.4131 59.132C15.4131 59.244 15.4011 59.3186 15.3771 59.356C15.3531 59.3933 15.3077 59.412 15.2411 59.412H12.5331C12.5411 59.668 12.5757 59.8906 12.6371 60.08C12.7011 60.2693 12.7891 60.428 12.9011 60.556C13.0131 60.6813 13.1464 60.776 13.3011 60.84C13.4557 60.9013 13.6291 60.932 13.8211 60.932C13.9997 60.932 14.1531 60.912 14.2811 60.872C14.4117 60.8293 14.5237 60.784 14.6171 60.736C14.7104 60.688 14.7877 60.644 14.8491 60.604C14.9131 60.5613 14.9677 60.54 15.0131 60.54C15.0717 60.54 15.1171 60.5626 15.1491 60.608L15.3491 60.868Z" fill="white"/>
<path d="M19.6821 57.384L17.4221 62.632C17.3981 62.6853 17.3674 62.728 17.3301 62.76C17.2954 62.792 17.2407 62.808 17.1661 62.808H16.6381L17.3781 61.2L15.7061 57.384H16.3221C16.3834 57.384 16.4314 57.4 16.4661 57.432C16.5034 57.4613 16.5287 57.4946 16.5421 57.532L17.6261 60.084C17.6687 60.196 17.7047 60.3133 17.7341 60.436C17.7714 60.3106 17.8114 60.192 17.8541 60.08L18.9061 57.532C18.9221 57.4893 18.9487 57.4546 18.9861 57.428C19.0261 57.3986 19.0701 57.384 19.1181 57.384H19.6821Z" fill="white"/>
<path d="M21.5551 61.5C21.2351 61.5 20.9884 61.4106 20.8151 61.232C20.6444 61.0533 20.5591 60.796 20.5591 60.46V57.98H20.0711C20.0284 57.98 19.9924 57.968 19.9631 57.944C19.9337 57.9173 19.9191 57.8773 19.9191 57.824V57.54L20.5831 57.456L20.7471 56.204C20.7551 56.164 20.7724 56.132 20.7991 56.108C20.8284 56.0813 20.8657 56.068 20.9111 56.068H21.2711V57.464H22.4431V57.98H21.2711V60.412C21.2711 60.5826 21.3124 60.7093 21.3951 60.792C21.4777 60.8746 21.5844 60.916 21.7151 60.916C21.7897 60.916 21.8537 60.9066 21.9071 60.888C21.9631 60.8666 22.0111 60.844 22.0511 60.82C22.0911 60.796 22.1244 60.7746 22.1511 60.756C22.1804 60.7346 22.2057 60.724 22.2271 60.724C22.2644 60.724 22.2977 60.7466 22.3271 60.792L22.5351 61.132C22.4124 61.2466 22.2644 61.3373 22.0911 61.404C21.9177 61.468 21.7391 61.5 21.5551 61.5Z" fill="white"/>
<path d="M23.8543 58.196C23.9823 57.9186 24.1396 57.7026 24.3263 57.548C24.5129 57.3906 24.7409 57.312 25.0103 57.312C25.0956 57.312 25.1769 57.3213 25.2543 57.34C25.3343 57.3586 25.4049 57.388 25.4663 57.428L25.4143 57.96C25.3983 58.0266 25.3583 58.06 25.2943 58.06C25.2569 58.06 25.2023 58.052 25.1303 58.036C25.0583 58.02 24.9769 58.012 24.8863 58.012C24.7583 58.012 24.6436 58.0306 24.5423 58.068C24.4436 58.1053 24.3543 58.1613 24.2743 58.236C24.1969 58.308 24.1263 58.3986 24.0623 58.508C24.0009 58.6146 23.9449 58.7373 23.8943 58.876V61.436H23.1783V57.384H23.5863C23.6636 57.384 23.7169 57.3986 23.7463 57.428C23.7756 57.4573 23.7956 57.508 23.8063 57.58L23.8543 58.196Z" fill="white"/>
<path d="M26.8443 57.384V61.436H26.1323V57.384H26.8443ZM26.9963 56.112C26.9963 56.1813 26.9816 56.2466 26.9523 56.308C26.9256 56.3666 26.8883 56.42 26.8403 56.468C26.795 56.5133 26.7403 56.5493 26.6763 56.576C26.615 56.6026 26.5496 56.616 26.4803 56.616C26.411 56.616 26.3456 56.6026 26.2843 56.576C26.2256 56.5493 26.1736 56.5133 26.1283 56.468C26.083 56.42 26.047 56.3666 26.0203 56.308C25.9936 56.2466 25.9803 56.1813 25.9803 56.112C25.9803 56.0426 25.9936 55.9773 26.0203 55.916C26.047 55.852 26.083 55.7973 26.1283 55.752C26.1736 55.704 26.2256 55.6666 26.2843 55.64C26.3456 55.6133 26.411 55.6 26.4803 55.6C26.5496 55.6 26.615 55.6133 26.6763 55.64C26.7403 55.6666 26.795 55.704 26.8403 55.752C26.8883 55.7973 26.9256 55.852 26.9523 55.916C26.9816 55.9773 26.9963 56.0426 26.9963 56.112Z" fill="white"/>
<path d="M29.4262 59.456C29.5702 59.456 29.6969 59.436 29.8062 59.396C29.9155 59.356 30.0075 59.3 30.0822 59.228C30.1569 59.156 30.2129 59.0706 30.2502 58.972C30.2875 58.8706 30.3062 58.76 30.3062 58.64C30.3062 58.392 30.2302 58.1946 30.0782 58.048C29.9289 57.9013 29.7115 57.828 29.4262 57.828C29.1382 57.828 28.9182 57.9013 28.7662 58.048C28.6169 58.1946 28.5422 58.392 28.5422 58.64C28.5422 58.76 28.5609 58.8706 28.5982 58.972C28.6382 59.0706 28.6955 59.156 28.7702 59.228C28.8449 59.3 28.9369 59.356 29.0462 59.396C29.1555 59.436 29.2822 59.456 29.4262 59.456ZM30.7102 61.656C30.7102 61.5573 30.6822 61.4773 30.6262 61.416C30.5702 61.3546 30.4942 61.3066 30.3982 61.272C30.3049 61.2373 30.1955 61.2133 30.0702 61.2C29.9449 61.184 29.8115 61.172 29.6702 61.164C29.5315 61.156 29.3902 61.148 29.2462 61.14C29.1022 61.132 28.9635 61.1186 28.8302 61.1C28.6809 61.1693 28.5582 61.2573 28.4622 61.364C28.3689 61.468 28.3222 61.5906 28.3222 61.732C28.3222 61.8226 28.3449 61.9066 28.3902 61.984C28.4382 62.064 28.5102 62.132 28.6062 62.188C28.7022 62.2466 28.8222 62.292 28.9662 62.324C29.1129 62.3586 29.2849 62.376 29.4822 62.376C29.6742 62.376 29.8462 62.3586 29.9982 62.324C30.1502 62.2893 30.2782 62.24 30.3822 62.176C30.4889 62.112 30.5702 62.036 30.6262 61.948C30.6822 61.86 30.7102 61.7626 30.7102 61.656ZM31.4342 57.544V57.808C31.4342 57.896 31.3782 57.952 31.2662 57.976L30.8062 58.036C30.8969 58.212 30.9422 58.4066 30.9422 58.62C30.9422 58.8173 30.9035 58.9973 30.8262 59.16C30.7515 59.32 30.6475 59.4573 30.5142 59.572C30.3809 59.6866 30.2209 59.7746 30.0342 59.836C29.8475 59.8973 29.6449 59.928 29.4262 59.928C29.2369 59.928 29.0582 59.9053 28.8902 59.86C28.8049 59.9133 28.7395 59.9706 28.6942 60.032C28.6489 60.0906 28.6262 60.1506 28.6262 60.212C28.6262 60.308 28.6649 60.3813 28.7422 60.432C28.8222 60.48 28.9262 60.5146 29.0542 60.536C29.1822 60.5573 29.3275 60.5706 29.4902 60.576C29.6555 60.5813 29.8235 60.5906 29.9942 60.604C30.1675 60.6146 30.3355 60.6346 30.4982 60.664C30.6635 60.6933 30.8102 60.7413 30.9382 60.808C31.0662 60.8746 31.1689 60.9666 31.2462 61.084C31.3262 61.2013 31.3662 61.3533 31.3662 61.54C31.3662 61.7133 31.3222 61.8813 31.2342 62.044C31.1489 62.2066 31.0249 62.3506 30.8622 62.476C30.6995 62.604 30.4995 62.7053 30.2622 62.78C30.0275 62.8573 29.7622 62.896 29.4662 62.896C29.1702 62.896 28.9115 62.8666 28.6902 62.808C28.4689 62.7493 28.2849 62.6706 28.1382 62.572C27.9915 62.4733 27.8809 62.3586 27.8062 62.228C27.7342 62.1 27.6982 61.9653 27.6982 61.824C27.6982 61.624 27.7609 61.4546 27.8862 61.316C28.0115 61.1773 28.1835 61.0666 28.4022 60.984C28.2822 60.9306 28.1862 60.86 28.1142 60.772C28.0449 60.6813 28.0102 60.56 28.0102 60.408C28.0102 60.3493 28.0209 60.2893 28.0422 60.228C28.0635 60.164 28.0955 60.1013 28.1382 60.04C28.1835 59.976 28.2382 59.916 28.3022 59.86C28.3662 59.804 28.4409 59.7546 28.5262 59.712C28.3262 59.6 28.1702 59.452 28.0582 59.268C27.9462 59.0813 27.8902 58.8653 27.8902 58.62C27.8902 58.4226 27.9275 58.244 28.0022 58.084C28.0795 57.9213 28.1862 57.784 28.3222 57.672C28.4582 57.5573 28.6195 57.4693 28.8062 57.408C28.9955 57.3466 29.2022 57.316 29.4262 57.316C29.6022 57.316 29.7662 57.336 29.9182 57.376C30.0702 57.4133 30.2089 57.4693 30.3342 57.544H31.4342Z" fill="white"/>
<path d="M33.5668 59.456C33.7108 59.456 33.8375 59.436 33.9468 59.396C34.0561 59.356 34.1481 59.3 34.2228 59.228C34.2975 59.156 34.3535 59.0706 34.3908 58.972C34.4281 58.8706 34.4468 58.76 34.4468 58.64C34.4468 58.392 34.3708 58.1946 34.2188 58.048C34.0695 57.9013 33.8521 57.828 33.5668 57.828C33.2788 57.828 33.0588 57.9013 32.9068 58.048C32.7575 58.1946 32.6828 58.392 32.6828 58.64C32.6828 58.76 32.7015 58.8706 32.7388 58.972C32.7788 59.0706 32.8361 59.156 32.9108 59.228C32.9855 59.3 33.0775 59.356 33.1868 59.396C33.2961 59.436 33.4228 59.456 33.5668 59.456ZM34.8508 61.656C34.8508 61.5573 34.8228 61.4773 34.7668 61.416C34.7108 61.3546 34.6348 61.3066 34.5388 61.272C34.4455 61.2373 34.3361 61.2133 34.2108 61.2C34.0855 61.184 33.9521 61.172 33.8108 61.164C33.6721 61.156 33.5308 61.148 33.3868 61.14C33.2428 61.132 33.1041 61.1186 32.9708 61.1C32.8215 61.1693 32.6988 61.2573 32.6028 61.364C32.5095 61.468 32.4628 61.5906 32.4628 61.732C32.4628 61.8226 32.4855 61.9066 32.5308 61.984C32.5788 62.064 32.6508 62.132 32.7468 62.188C32.8428 62.2466 32.9628 62.292 33.1068 62.324C33.2535 62.3586 33.4255 62.376 33.6228 62.376C33.8148 62.376 33.9868 62.3586 34.1388 62.324C34.2908 62.2893 34.4188 62.24 34.5228 62.176C34.6295 62.112 34.7108 62.036 34.7668 61.948C34.8228 61.86 34.8508 61.7626 34.8508 61.656ZM35.5748 57.544V57.808C35.5748 57.896 35.5188 57.952 35.4068 57.976L34.9468 58.036C35.0375 58.212 35.0828 58.4066 35.0828 58.62C35.0828 58.8173 35.0441 58.9973 34.9668 59.16C34.8921 59.32 34.7881 59.4573 34.6548 59.572C34.5215 59.6866 34.3615 59.7746 34.1748 59.836C33.9881 59.8973 33.7855 59.928 33.5668 59.928C33.3775 59.928 33.1988 59.9053 33.0308 59.86C32.9455 59.9133 32.8801 59.9706 32.8348 60.032C32.7895 60.0906 32.7668 60.1506 32.7668 60.212C32.7668 60.308 32.8055 60.3813 32.8828 60.432C32.9628 60.48 33.0668 60.5146 33.1948 60.536C33.3228 60.5573 33.4681 60.5706 33.6308 60.576C33.7961 60.5813 33.9641 60.5906 34.1348 60.604C34.3081 60.6146 34.4761 60.6346 34.6388 60.664C34.8041 60.6933 34.9508 60.7413 35.0788 60.808C35.2068 60.8746 35.3095 60.9666 35.3868 61.084C35.4668 61.2013 35.5068 61.3533 35.5068 61.54C35.5068 61.7133 35.4628 61.8813 35.3748 62.044C35.2895 62.2066 35.1655 62.3506 35.0028 62.476C34.8401 62.604 34.6401 62.7053 34.4028 62.78C34.1681 62.8573 33.9028 62.896 33.6068 62.896C33.3108 62.896 33.0521 62.8666 32.8308 62.808C32.6095 62.7493 32.4255 62.6706 32.2788 62.572C32.1321 62.4733 32.0215 62.3586 31.9468 62.228C31.8748 62.1 31.8388 61.9653 31.8388 61.824C31.8388 61.624 31.9015 61.4546 32.0268 61.316C32.1521 61.1773 32.3241 61.0666 32.5428 60.984C32.4228 60.9306 32.3268 60.86 32.2548 60.772C32.1855 60.6813 32.1508 60.56 32.1508 60.408C32.1508 60.3493 32.1615 60.2893 32.1828 60.228C32.2041 60.164 32.2361 60.1013 32.2788 60.04C32.3241 59.976 32.3788 59.916 32.4428 59.86C32.5068 59.804 32.5815 59.7546 32.6668 59.712C32.4668 59.6 32.3108 59.452 32.1988 59.268C32.0868 59.0813 32.0308 58.8653 32.0308 58.62C32.0308 58.4226 32.0681 58.244 32.1428 58.084C32.2201 57.9213 32.3268 57.784 32.4628 57.672C32.5988 57.5573 32.7601 57.4693 32.9468 57.408C33.1361 57.3466 33.3428 57.316 33.5668 57.316C33.7428 57.316 33.9068 57.336 34.0588 57.376C34.2108 57.4133 34.3495 57.4693 34.4748 57.544H35.5748Z" fill="white"/>
<path d="M38.9606 58.968C38.9606 58.8026 38.9366 58.652 38.8886 58.516C38.8432 58.3773 38.7752 58.2586 38.6846 58.16C38.5966 58.0586 38.4886 57.9813 38.3606 57.928C38.2326 57.872 38.0872 57.844 37.9246 57.844C37.5832 57.844 37.3126 57.944 37.1126 58.144C36.9152 58.3413 36.7926 58.616 36.7446 58.968H38.9606ZM39.5366 60.868C39.4486 60.9746 39.3432 61.068 39.2206 61.148C39.0979 61.2253 38.9659 61.2893 38.8246 61.34C38.6859 61.3906 38.5419 61.428 38.3926 61.452C38.2432 61.4786 38.0952 61.492 37.9486 61.492C37.6686 61.492 37.4099 61.4453 37.1726 61.352C36.9379 61.256 36.7339 61.1173 36.5606 60.936C36.3899 60.752 36.2566 60.5253 36.1606 60.256C36.0646 59.9866 36.0166 59.6773 36.0166 59.328C36.0166 59.0453 36.0592 58.7813 36.1446 58.536C36.2326 58.2906 36.3579 58.0786 36.5206 57.9C36.6832 57.7186 36.8819 57.5773 37.1166 57.476C37.3512 57.372 37.6152 57.32 37.9086 57.32C38.1512 57.32 38.3752 57.3613 38.5806 57.444C38.7886 57.524 38.9672 57.6413 39.1166 57.796C39.2686 57.948 39.3872 58.1373 39.4726 58.364C39.5579 58.588 39.6006 58.844 39.6006 59.132C39.6006 59.244 39.5886 59.3186 39.5646 59.356C39.5406 59.3933 39.4952 59.412 39.4286 59.412H36.7206C36.7286 59.668 36.7632 59.8906 36.8246 60.08C36.8886 60.2693 36.9766 60.428 37.0886 60.556C37.2006 60.6813 37.3339 60.776 37.4886 60.84C37.6432 60.9013 37.8166 60.932 38.0086 60.932C38.1872 60.932 38.3406 60.912 38.4686 60.872C38.5992 60.8293 38.7112 60.784 38.8046 60.736C38.8979 60.688 38.9752 60.644 39.0366 60.604C39.1006 60.5613 39.1552 60.54 39.2006 60.54C39.2592 60.54 39.3046 60.5626 39.3366 60.608L39.5366 60.868Z" fill="white"/>
<path d="M41.1511 58.196C41.2791 57.9186 41.4365 57.7026 41.6231 57.548C41.8098 57.3906 42.0378 57.312 42.3071 57.312C42.3925 57.312 42.4738 57.3213 42.5511 57.34C42.6311 57.3586 42.7018 57.388 42.7631 57.428L42.7111 57.96C42.6951 58.0266 42.6551 58.06 42.5911 58.06C42.5538 58.06 42.4991 58.052 42.4271 58.036C42.3551 58.02 42.2738 58.012 42.1831 58.012C42.0551 58.012 41.9405 58.0306 41.8391 58.068C41.7405 58.1053 41.6511 58.1613 41.5711 58.236C41.4938 58.308 41.4231 58.3986 41.3591 58.508C41.2978 58.6146 41.2418 58.7373 41.1911 58.876V61.436H40.4751V57.384H40.8831C40.9605 57.384 41.0138 57.3986 41.0431 57.428C41.0725 57.4573 41.0925 57.508 41.1031 57.58L41.1511 58.196Z" fill="white"/>
<rect y="104" width="50" height="13" fill="white" fill-opacity="0.2"/>
<path d="M12.7209 110.536C12.9449 110.536 13.1422 110.509 13.3129 110.456C13.4862 110.4 13.6302 110.323 13.7449 110.224C13.8622 110.123 13.9502 110.003 14.0089 109.864C14.0675 109.725 14.0969 109.572 14.0969 109.404C14.0969 109.063 13.9849 108.805 13.7609 108.632C13.5369 108.459 13.2009 108.372 12.7529 108.372H11.9049V110.536H12.7209ZM15.3689 113.492H14.6809C14.5395 113.492 14.4355 113.437 14.3689 113.328L12.8809 111.28C12.8355 111.216 12.7862 111.171 12.7329 111.144C12.6822 111.115 12.6022 111.1 12.4929 111.1H11.9049V113.492H11.1329V107.76H12.7529C13.1155 107.76 13.4289 107.797 13.6929 107.872C13.9569 107.944 14.1742 108.049 14.3449 108.188C14.5182 108.327 14.6462 108.495 14.7289 108.692C14.8115 108.887 14.8529 109.105 14.8529 109.348C14.8529 109.551 14.8209 109.74 14.7569 109.916C14.6929 110.092 14.5995 110.251 14.4769 110.392C14.3569 110.531 14.2089 110.649 14.0329 110.748C13.8595 110.847 13.6622 110.921 13.4409 110.972C13.5395 111.028 13.6249 111.109 13.6969 111.216L15.3689 113.492Z" fill="white"/>
<path d="M18.114 111.668C17.786 111.679 17.506 111.705 17.274 111.748C17.0447 111.788 16.8567 111.841 16.71 111.908C16.566 111.975 16.4607 112.053 16.394 112.144C16.33 112.235 16.298 112.336 16.298 112.448C16.298 112.555 16.3153 112.647 16.35 112.724C16.3847 112.801 16.4313 112.865 16.49 112.916C16.5513 112.964 16.622 113 16.702 113.024C16.7847 113.045 16.8727 113.056 16.966 113.056C17.0913 113.056 17.206 113.044 17.31 113.02C17.414 112.993 17.5113 112.956 17.602 112.908C17.6953 112.86 17.7833 112.803 17.866 112.736C17.9513 112.669 18.034 112.593 18.114 112.508V111.668ZM15.814 110.012C16.038 109.796 16.2793 109.635 16.538 109.528C16.7967 109.421 17.0833 109.368 17.398 109.368C17.6247 109.368 17.826 109.405 18.002 109.48C18.178 109.555 18.326 109.659 18.446 109.792C18.566 109.925 18.6567 110.087 18.718 110.276C18.7793 110.465 18.81 110.673 18.81 110.9V113.492H18.494C18.4247 113.492 18.3713 113.481 18.334 113.46C18.2967 113.436 18.2673 113.391 18.246 113.324L18.166 112.94C18.0593 113.039 17.9553 113.127 17.854 113.204C17.7527 113.279 17.646 113.343 17.534 113.396C17.422 113.447 17.302 113.485 17.174 113.512C17.0487 113.541 16.9087 113.556 16.754 113.556C16.5967 113.556 16.4487 113.535 16.31 113.492C16.1713 113.447 16.05 113.38 15.946 113.292C15.8447 113.204 15.7633 113.093 15.702 112.96C15.6433 112.824 15.614 112.664 15.614 112.48C15.614 112.32 15.658 112.167 15.746 112.02C15.834 111.871 15.9767 111.739 16.174 111.624C16.3713 111.509 16.6287 111.416 16.946 111.344C17.2633 111.269 17.6527 111.227 18.114 111.216V110.9C18.114 110.585 18.046 110.348 17.91 110.188C17.774 110.025 17.5753 109.944 17.314 109.944C17.138 109.944 16.99 109.967 16.87 110.012C16.7527 110.055 16.65 110.104 16.562 110.16C16.4767 110.213 16.402 110.263 16.338 110.308C16.2767 110.351 16.2153 110.372 16.154 110.372C16.106 110.372 16.0647 110.36 16.03 110.336C15.9953 110.309 15.966 110.277 15.942 110.24L15.814 110.012Z" fill="white"/>
<path d="M20.5666 110.028C20.6546 109.929 20.7479 109.84 20.8466 109.76C20.9452 109.68 21.0492 109.612 21.1586 109.556C21.2706 109.497 21.3879 109.453 21.5106 109.424C21.6359 109.392 21.7706 109.376 21.9146 109.376C22.1359 109.376 22.3306 109.413 22.4986 109.488C22.6692 109.56 22.8106 109.664 22.9226 109.8C23.0372 109.933 23.1239 110.095 23.1826 110.284C23.2412 110.473 23.2706 110.683 23.2706 110.912V113.492H22.5546V110.912C22.5546 110.605 22.4839 110.368 22.3426 110.2C22.2039 110.029 21.9919 109.944 21.7066 109.944C21.4959 109.944 21.2986 109.995 21.1146 110.096C20.9332 110.197 20.7652 110.335 20.6106 110.508V113.492H19.8946V109.44H20.3226C20.4239 109.44 20.4866 109.489 20.5106 109.588L20.5666 110.028Z" fill="white"/>
<path d="M26.9955 110.404C26.8622 110.225 26.7182 110.101 26.5635 110.032C26.4088 109.96 26.2355 109.924 26.0435 109.924C25.6675 109.924 25.3782 110.059 25.1755 110.328C24.9728 110.597 24.8715 110.981 24.8715 111.48C24.8715 111.744 24.8942 111.971 24.9395 112.16C24.9848 112.347 25.0515 112.501 25.1395 112.624C25.2275 112.744 25.3355 112.832 25.4635 112.888C25.5915 112.944 25.7368 112.972 25.8995 112.972C26.1342 112.972 26.3382 112.919 26.5115 112.812C26.6875 112.705 26.8488 112.555 26.9955 112.36V110.404ZM27.7075 107.6V113.492H27.2835C27.1822 113.492 27.1182 113.443 27.0915 113.344L27.0275 112.852C26.8542 113.06 26.6568 113.228 26.4355 113.356C26.2142 113.484 25.9582 113.548 25.6675 113.548C25.4355 113.548 25.2248 113.504 25.0355 113.416C24.8462 113.325 24.6848 113.193 24.5515 113.02C24.4182 112.847 24.3155 112.631 24.2435 112.372C24.1715 112.113 24.1355 111.816 24.1355 111.48C24.1355 111.181 24.1755 110.904 24.2555 110.648C24.3355 110.389 24.4502 110.165 24.5995 109.976C24.7488 109.787 24.9315 109.639 25.1475 109.532C25.3662 109.423 25.6115 109.368 25.8835 109.368C26.1315 109.368 26.3435 109.411 26.5195 109.496C26.6982 109.579 26.8568 109.695 26.9955 109.844V107.6H27.7075Z" fill="white"/>
<path d="M30.5401 109.376C30.8361 109.376 31.1027 109.425 31.3401 109.524C31.5774 109.623 31.7801 109.763 31.9481 109.944C32.1161 110.125 32.2441 110.345 32.3321 110.604C32.4227 110.86 32.4681 111.147 32.4681 111.464C32.4681 111.784 32.4227 112.072 32.3321 112.328C32.2441 112.584 32.1161 112.803 31.9481 112.984C31.7801 113.165 31.5774 113.305 31.3401 113.404C31.1027 113.5 30.8361 113.548 30.5401 113.548C30.2414 113.548 29.9721 113.5 29.7321 113.404C29.4947 113.305 29.2921 113.165 29.1241 112.984C28.9561 112.803 28.8267 112.584 28.7361 112.328C28.6481 112.072 28.6041 111.784 28.6041 111.464C28.6041 111.147 28.6481 110.86 28.7361 110.604C28.8267 110.345 28.9561 110.125 29.1241 109.944C29.2921 109.763 29.4947 109.623 29.7321 109.524C29.9721 109.425 30.2414 109.376 30.5401 109.376ZM30.5401 112.992C30.9401 112.992 31.2387 112.859 31.4361 112.592C31.6334 112.323 31.7321 111.948 31.7321 111.468C31.7321 110.985 31.6334 110.609 31.4361 110.34C31.2387 110.071 30.9401 109.936 30.5401 109.936C30.3374 109.936 30.1601 109.971 30.0081 110.04C29.8587 110.109 29.7334 110.209 29.6321 110.34C29.5334 110.471 29.4587 110.632 29.4081 110.824C29.3601 111.013 29.3361 111.228 29.3361 111.468C29.3361 111.948 29.4347 112.323 29.6321 112.592C29.8321 112.859 30.1347 112.992 30.5401 112.992Z" fill="white"/>
<path d="M33.3711 113.492V109.44H33.7991C33.9005 109.44 33.9631 109.489 33.9871 109.588L34.0391 110.004C34.1885 109.82 34.3565 109.669 34.5431 109.552C34.7298 109.435 34.9458 109.376 35.1911 109.376C35.4631 109.376 35.6831 109.452 35.8511 109.604C36.0218 109.756 36.1445 109.961 36.2191 110.22C36.2778 110.073 36.3525 109.947 36.4431 109.84C36.5365 109.733 36.6405 109.645 36.7551 109.576C36.8698 109.507 36.9911 109.456 37.1191 109.424C37.2498 109.392 37.3818 109.376 37.5151 109.376C37.7285 109.376 37.9178 109.411 38.0831 109.48C38.2511 109.547 38.3925 109.645 38.5071 109.776C38.6245 109.907 38.7138 110.068 38.7751 110.26C38.8365 110.449 38.8671 110.667 38.8671 110.912V113.492H38.1511V110.912C38.1511 110.595 38.0818 110.355 37.9431 110.192C37.8045 110.027 37.6045 109.944 37.3431 109.944C37.2258 109.944 37.1138 109.965 37.0071 110.008C36.9031 110.048 36.8111 110.108 36.7311 110.188C36.6511 110.268 36.5871 110.369 36.5391 110.492C36.4938 110.612 36.4711 110.752 36.4711 110.912V113.492H35.7551V110.912C35.7551 110.587 35.6898 110.344 35.5591 110.184C35.4285 110.024 35.2378 109.944 34.9871 109.944C34.8111 109.944 34.6485 109.992 34.4991 110.088C34.3498 110.181 34.2125 110.309 34.0871 110.472V113.492H33.3711Z" fill="white"/>
</g>
<defs>
<clipPath id="clip0_204_6945">
<rect width="50" height="117" fill="white"/>
</clipPath>
</defs>
</svg>
