<svg width="134" height="591" viewBox="0 0 134 591" fill="none" xmlns="http://www.w3.org/2000/svg">
<rect x="119" y="540" width="14" height="11" fill="white" fill-opacity="0.2"/>
<rect x="98" y="471" width="19" height="11" fill="white" fill-opacity="0.2"/>
<rect x="81" y="402" width="15" height="11" fill="white" fill-opacity="0.2"/>
<rect x="65" y="333" width="14" height="11" fill="white" fill-opacity="0.2"/>
<rect x="49" y="264" width="14" height="11" fill="white" fill-opacity="0.2"/>
<rect x="33" y="195" width="14" height="11" fill="white" fill-opacity="0.2"/>
<rect x="17" y="126" width="14" height="11" fill="white" fill-opacity="0.2"/>
<rect x="1" y="57" width="14" height="11" fill="white" fill-opacity="0.2"/>
<path d="M7.34844 60.604C7.3191 60.652 7.28844 60.688 7.25644 60.712C7.22444 60.7334 7.18444 60.744 7.13644 60.744C7.08577 60.744 7.02844 60.7227 6.96444 60.68C6.9031 60.6374 6.82577 60.5907 6.73244 60.54C6.64177 60.4867 6.53377 60.4387 6.40844 60.396C6.2831 60.3507 6.13377 60.328 5.96044 60.328C5.80044 60.328 5.6591 60.348 5.53644 60.388C5.41644 60.428 5.3151 60.484 5.23244 60.556C5.14977 60.628 5.0871 60.7134 5.04444 60.812C5.00444 60.908 4.98444 61.0134 4.98444 61.128C4.98444 61.2747 5.0231 61.3974 5.10044 61.496C5.17777 61.592 5.2791 61.6747 5.40444 61.744C5.53244 61.8134 5.67777 61.8747 5.84044 61.928C6.0031 61.9787 6.16844 62.0334 6.33644 62.092C6.5071 62.1507 6.67377 62.2174 6.83644 62.292C6.9991 62.3667 7.1431 62.4614 7.26844 62.576C7.39644 62.6907 7.4991 62.8307 7.57644 62.996C7.65377 63.1614 7.69244 63.3627 7.69244 63.6C7.69244 63.856 7.64844 64.096 7.56044 64.32C7.47244 64.544 7.34444 64.74 7.17644 64.908C7.0111 65.0734 6.80577 65.204 6.56044 65.3C6.31777 65.396 6.04044 65.444 5.72844 65.444C5.54444 65.444 5.36444 65.4254 5.18844 65.388C5.0151 65.3534 4.84844 65.304 4.68844 65.24C4.5311 65.1734 4.3831 65.0934 4.24444 65C4.10577 64.9067 3.98177 64.8027 3.87244 64.688L4.14444 64.24C4.16844 64.2027 4.1991 64.1734 4.23644 64.152C4.27377 64.1307 4.3151 64.12 4.36044 64.12C4.42177 64.12 4.48977 64.1494 4.56444 64.208C4.6391 64.264 4.72844 64.3267 4.83244 64.396C4.9391 64.4627 5.0671 64.5254 5.21644 64.584C5.36577 64.64 5.54444 64.668 5.75244 64.668C6.0911 64.668 6.35244 64.5854 6.53644 64.42C6.7231 64.2547 6.81644 64.0267 6.81644 63.736C6.81644 63.5734 6.77777 63.4414 6.70044 63.34C6.6231 63.236 6.52044 63.1494 6.39244 63.08C6.2671 63.0107 6.1231 62.952 5.96044 62.904C5.79777 62.856 5.63244 62.8054 5.46444 62.752C5.29644 62.696 5.1311 62.632 4.96844 62.56C4.80577 62.4854 4.66044 62.3894 4.53244 62.272C4.4071 62.152 4.30577 62.0054 4.22844 61.832C4.1511 61.656 4.11244 61.4374 4.11244 61.176C4.11244 60.968 4.15244 60.7667 4.23244 60.572C4.3151 60.3774 4.43377 60.2054 4.58844 60.056C4.74577 59.904 4.9391 59.7827 5.16844 59.692C5.39777 59.6014 5.6591 59.556 5.95244 59.556C6.2831 59.556 6.58577 59.608 6.86044 59.712C7.13777 59.816 7.37644 59.964 7.57644 60.156L7.34844 60.604Z" fill="white"/>
<path d="M12.1276 64.728V65.38H8.98762V64.728H10.1876V61.12C10.1876 60.992 10.1916 60.8614 10.1996 60.728L9.27562 61.508C9.23562 61.54 9.19429 61.5614 9.15162 61.572C9.11162 61.58 9.07296 61.58 9.03562 61.572C9.00096 61.564 8.96896 61.552 8.93962 61.536C8.91296 61.5174 8.89162 61.4974 8.87562 61.476L8.60762 61.1L10.3436 59.608H11.0436V64.728H12.1276Z" fill="white"/>
<path d="M23.2844 129.604C23.2551 129.652 23.2244 129.688 23.1924 129.712C23.1604 129.733 23.1204 129.744 23.0724 129.744C23.0217 129.744 22.9644 129.723 22.9004 129.68C22.8391 129.637 22.7617 129.591 22.6684 129.54C22.5777 129.487 22.4697 129.439 22.3444 129.396C22.2191 129.351 22.0697 129.328 21.8964 129.328C21.7364 129.328 21.5951 129.348 21.4724 129.388C21.3524 129.428 21.2511 129.484 21.1684 129.556C21.0857 129.628 21.0231 129.713 20.9804 129.812C20.9404 129.908 20.9204 130.013 20.9204 130.128C20.9204 130.275 20.9591 130.397 21.0364 130.496C21.1137 130.592 21.2151 130.675 21.3404 130.744C21.4684 130.813 21.6137 130.875 21.7764 130.928C21.9391 130.979 22.1044 131.033 22.2724 131.092C22.4431 131.151 22.6097 131.217 22.7724 131.292C22.9351 131.367 23.0791 131.461 23.2044 131.576C23.3324 131.691 23.4351 131.831 23.5124 131.996C23.5897 132.161 23.6284 132.363 23.6284 132.6C23.6284 132.856 23.5844 133.096 23.4964 133.32C23.4084 133.544 23.2804 133.74 23.1124 133.908C22.9471 134.073 22.7417 134.204 22.4964 134.3C22.2537 134.396 21.9764 134.444 21.6644 134.444C21.4804 134.444 21.3004 134.425 21.1244 134.388C20.9511 134.353 20.7844 134.304 20.6244 134.24C20.4671 134.173 20.3191 134.093 20.1804 134C20.0417 133.907 19.9177 133.803 19.8084 133.688L20.0804 133.24C20.1044 133.203 20.1351 133.173 20.1724 133.152C20.2097 133.131 20.2511 133.12 20.2964 133.12C20.3577 133.12 20.4257 133.149 20.5004 133.208C20.5751 133.264 20.6644 133.327 20.7684 133.396C20.8751 133.463 21.0031 133.525 21.1524 133.584C21.3017 133.64 21.4804 133.668 21.6884 133.668C22.0271 133.668 22.2884 133.585 22.4724 133.42C22.6591 133.255 22.7524 133.027 22.7524 132.736C22.7524 132.573 22.7137 132.441 22.6364 132.34C22.5591 132.236 22.4564 132.149 22.3284 132.08C22.2031 132.011 22.0591 131.952 21.8964 131.904C21.7337 131.856 21.5684 131.805 21.4004 131.752C21.2324 131.696 21.0671 131.632 20.9044 131.56C20.7417 131.485 20.5964 131.389 20.4684 131.272C20.3431 131.152 20.2417 131.005 20.1644 130.832C20.0871 130.656 20.0484 130.437 20.0484 130.176C20.0484 129.968 20.0884 129.767 20.1684 129.572C20.2511 129.377 20.3697 129.205 20.5244 129.056C20.6817 128.904 20.8751 128.783 21.1044 128.692C21.3337 128.601 21.5951 128.556 21.8884 128.556C22.2191 128.556 22.5217 128.608 22.7964 128.712C23.0737 128.816 23.3124 128.964 23.5124 129.156L23.2844 129.604Z" fill="white"/>
<path d="M27.8916 133.568C27.9849 133.568 28.0583 133.596 28.1116 133.652C28.1649 133.705 28.1916 133.775 28.1916 133.86V134.38H24.2956V134.088C24.2956 134.029 24.3076 133.968 24.3316 133.904C24.3556 133.84 24.3943 133.781 24.4476 133.728L26.2396 131.932C26.3916 131.78 26.5263 131.635 26.6436 131.496C26.7636 131.357 26.8649 131.219 26.9476 131.08C27.0329 130.941 27.0969 130.801 27.1396 130.66C27.1849 130.516 27.2076 130.365 27.2076 130.208C27.2076 130.056 27.1836 129.923 27.1356 129.808C27.0903 129.691 27.0263 129.595 26.9436 129.52C26.8636 129.443 26.7663 129.385 26.6516 129.348C26.5396 129.308 26.4156 129.288 26.2796 129.288C26.1489 129.288 26.0276 129.307 25.9156 129.344C25.8063 129.381 25.7076 129.433 25.6196 129.5C25.5343 129.567 25.4623 129.647 25.4036 129.74C25.3476 129.831 25.3063 129.931 25.2796 130.04C25.2396 130.149 25.1876 130.223 25.1236 130.26C25.0623 130.297 24.9716 130.305 24.8516 130.284L24.3996 130.204C24.4396 129.932 24.5143 129.693 24.6236 129.488C24.7356 129.283 24.8756 129.112 25.0436 128.976C25.2116 128.837 25.4036 128.733 25.6196 128.664C25.8383 128.592 26.0743 128.556 26.3276 128.556C26.5836 128.556 26.8183 128.595 27.0316 128.672C27.2476 128.747 27.4329 128.855 27.5876 128.996C27.7449 129.135 27.8676 129.304 27.9556 129.504C28.0436 129.704 28.0876 129.929 28.0876 130.18C28.0876 130.393 28.0556 130.591 27.9916 130.772C27.9303 130.953 27.8463 131.127 27.7396 131.292C27.6329 131.457 27.5076 131.619 27.3636 131.776C27.2223 131.931 27.0729 132.088 26.9156 132.248L25.5236 133.672C25.6383 133.64 25.7529 133.615 25.8676 133.596C25.9849 133.577 26.0956 133.568 26.1996 133.568H27.8916Z" fill="white"/>
<path d="M39.2864 198.604C39.2571 198.652 39.2264 198.688 39.1944 198.712C39.1624 198.733 39.1224 198.744 39.0744 198.744C39.0238 198.744 38.9664 198.723 38.9024 198.68C38.8411 198.637 38.7638 198.591 38.6704 198.54C38.5798 198.487 38.4718 198.439 38.3464 198.396C38.2211 198.351 38.0718 198.328 37.8984 198.328C37.7384 198.328 37.5971 198.348 37.4744 198.388C37.3544 198.428 37.2531 198.484 37.1704 198.556C37.0878 198.628 37.0251 198.713 36.9824 198.812C36.9424 198.908 36.9224 199.013 36.9224 199.128C36.9224 199.275 36.9611 199.397 37.0384 199.496C37.1158 199.592 37.2171 199.675 37.3424 199.744C37.4704 199.813 37.6158 199.875 37.7784 199.928C37.9411 199.979 38.1064 200.033 38.2744 200.092C38.4451 200.151 38.6118 200.217 38.7744 200.292C38.9371 200.367 39.0811 200.461 39.2064 200.576C39.3344 200.691 39.4371 200.831 39.5144 200.996C39.5918 201.161 39.6304 201.363 39.6304 201.6C39.6304 201.856 39.5864 202.096 39.4984 202.32C39.4104 202.544 39.2824 202.74 39.1144 202.908C38.9491 203.073 38.7438 203.204 38.4984 203.3C38.2558 203.396 37.9784 203.444 37.6664 203.444C37.4824 203.444 37.3024 203.425 37.1264 203.388C36.9531 203.353 36.7864 203.304 36.6264 203.24C36.4691 203.173 36.3211 203.093 36.1824 203C36.0438 202.907 35.9198 202.803 35.8104 202.688L36.0824 202.24C36.1064 202.203 36.1371 202.173 36.1744 202.152C36.2118 202.131 36.2531 202.12 36.2984 202.12C36.3598 202.12 36.4278 202.149 36.5024 202.208C36.5771 202.264 36.6664 202.327 36.7704 202.396C36.8771 202.463 37.0051 202.525 37.1544 202.584C37.3038 202.64 37.4824 202.668 37.6904 202.668C38.0291 202.668 38.2904 202.585 38.4744 202.42C38.6611 202.255 38.7544 202.027 38.7544 201.736C38.7544 201.573 38.7158 201.441 38.6384 201.34C38.5611 201.236 38.4584 201.149 38.3304 201.08C38.2051 201.011 38.0611 200.952 37.8984 200.904C37.7358 200.856 37.5704 200.805 37.4024 200.752C37.2344 200.696 37.0691 200.632 36.9064 200.56C36.7438 200.485 36.5984 200.389 36.4704 200.272C36.3451 200.152 36.2438 200.005 36.1664 199.832C36.0891 199.656 36.0504 199.437 36.0504 199.176C36.0504 198.968 36.0904 198.767 36.1704 198.572C36.2531 198.377 36.3718 198.205 36.5264 198.056C36.6838 197.904 36.8771 197.783 37.1064 197.692C37.3358 197.601 37.5971 197.556 37.8904 197.556C38.2211 197.556 38.5238 197.608 38.7984 197.712C39.0758 197.816 39.3144 197.964 39.5144 198.156L39.2864 198.604Z" fill="white"/>
<path d="M40.4296 199.204C40.4696 198.932 40.5443 198.693 40.6536 198.488C40.7656 198.283 40.9056 198.112 41.0736 197.976C41.2416 197.837 41.4336 197.733 41.6496 197.664C41.8683 197.592 42.1043 197.556 42.3576 197.556C42.6136 197.556 42.8456 197.593 43.0536 197.668C43.2643 197.74 43.4443 197.841 43.5936 197.972C43.7456 198.103 43.8616 198.259 43.9416 198.44C44.0243 198.621 44.0656 198.82 44.0656 199.036C44.0656 199.22 44.0429 199.383 43.9976 199.524C43.9549 199.663 43.8923 199.785 43.8096 199.892C43.7296 199.999 43.6309 200.088 43.5136 200.16C43.3963 200.232 43.2643 200.292 43.1176 200.34C43.4749 200.444 43.7429 200.611 43.9216 200.84C44.1003 201.067 44.1896 201.352 44.1896 201.696C44.1896 201.973 44.1376 202.22 44.0336 202.436C43.9296 202.652 43.7883 202.835 43.6096 202.984C43.4336 203.133 43.2269 203.248 42.9896 203.328C42.7549 203.405 42.5056 203.444 42.2416 203.444C41.9456 203.444 41.6896 203.409 41.4736 203.34C41.2576 203.268 41.0709 203.167 40.9136 203.036C40.7589 202.903 40.6296 202.743 40.5256 202.556C40.4216 202.369 40.3336 202.16 40.2616 201.928L40.6336 201.772C40.7323 201.729 40.8256 201.717 40.9136 201.736C41.0043 201.755 41.0696 201.804 41.1096 201.884C41.1523 201.969 41.2003 202.061 41.2536 202.16C41.3069 202.256 41.3749 202.345 41.4576 202.428C41.5429 202.508 41.6469 202.576 41.7696 202.632C41.8949 202.685 42.0483 202.712 42.2296 202.712C42.4136 202.712 42.5736 202.683 42.7096 202.624C42.8483 202.563 42.9629 202.485 43.0536 202.392C43.1469 202.296 43.2163 202.189 43.2616 202.072C43.3069 201.955 43.3296 201.839 43.3296 201.724C43.3296 201.58 43.3123 201.448 43.2776 201.328C43.2429 201.205 43.1749 201.101 43.0736 201.016C42.9749 200.931 42.8336 200.864 42.6496 200.816C42.4683 200.765 42.2296 200.74 41.9336 200.74V200.12C42.1763 200.117 42.3803 200.093 42.5456 200.048C42.7136 200 42.8469 199.936 42.9456 199.856C43.0469 199.773 43.1189 199.675 43.1616 199.56C43.2069 199.445 43.2296 199.32 43.2296 199.184C43.2296 199.037 43.2069 198.908 43.1616 198.796C43.1163 198.684 43.0523 198.591 42.9696 198.516C42.8896 198.439 42.7936 198.381 42.6816 198.344C42.5696 198.307 42.4456 198.288 42.3096 198.288C42.1789 198.288 42.0576 198.307 41.9456 198.344C41.8363 198.381 41.7376 198.433 41.6496 198.5C41.5643 198.567 41.4923 198.647 41.4336 198.74C41.3749 198.831 41.3323 198.931 41.3056 199.04C41.2683 199.149 41.2176 199.223 41.1536 199.26C41.0923 199.297 41.0016 199.305 40.8816 199.284L40.4296 199.204Z" fill="white"/>
<path d="M56.3011 269.506C56.3011 269.933 56.2317 270.323 56.0931 270.678C55.9544 271.03 55.7584 271.333 55.5051 271.586C55.2544 271.839 54.9517 272.037 54.5971 272.178C54.2451 272.317 53.8531 272.386 53.4211 272.386H51.2451V266.626H53.4211C53.8531 266.626 54.2451 266.697 54.5971 266.838C54.9517 266.977 55.2544 267.173 55.5051 267.426C55.7584 267.679 55.9544 267.983 56.0931 268.338C56.2317 268.69 56.3011 269.079 56.3011 269.506ZM55.3451 269.506C55.3451 269.175 55.2997 268.878 55.2091 268.614C55.1211 268.35 54.9931 268.127 54.8251 267.946C54.6597 267.765 54.4584 267.626 54.2211 267.53C53.9837 267.431 53.7171 267.382 53.4211 267.382H52.1851V271.63H53.4211C53.7171 271.63 53.9837 271.582 54.2211 271.486C54.4584 271.39 54.6597 271.251 54.8251 271.07C54.9931 270.886 55.1211 270.663 55.2091 270.402C55.2997 270.138 55.3451 269.839 55.3451 269.506Z" fill="white"/>
<path d="M60.755 271.734V272.386H57.615V271.734H58.815V268.126C58.815 267.998 58.819 267.867 58.827 267.734L57.903 268.514C57.863 268.546 57.8217 268.567 57.779 268.578C57.739 268.586 57.7003 268.586 57.663 268.578C57.6283 268.57 57.5963 268.558 57.567 268.542C57.5403 268.523 57.519 268.503 57.503 268.482L57.235 268.106L58.971 266.614H59.671V271.734H60.755Z" fill="white"/>
<path d="M72.237 338.532C72.237 338.959 72.1677 339.349 72.029 339.704C71.8904 340.056 71.6944 340.359 71.441 340.612C71.1904 340.865 70.8877 341.063 70.533 341.204C70.181 341.343 69.789 341.412 69.357 341.412H67.181V335.652H69.357C69.789 335.652 70.181 335.723 70.533 335.864C70.8877 336.003 71.1904 336.199 71.441 336.452C71.6944 336.705 71.8904 337.009 72.029 337.364C72.1677 337.716 72.237 338.105 72.237 338.532ZM71.281 338.532C71.281 338.201 71.2357 337.904 71.145 337.64C71.057 337.376 70.929 337.153 70.761 336.972C70.5957 336.791 70.3944 336.652 70.157 336.556C69.9197 336.457 69.653 336.408 69.357 336.408H68.121V340.656H69.357C69.653 340.656 69.9197 340.608 70.157 340.512C70.3944 340.416 70.5957 340.277 70.761 340.096C70.929 339.912 71.057 339.689 71.145 339.428C71.2357 339.164 71.281 338.865 71.281 338.532Z" fill="white"/>
<path d="M76.519 340.6C76.6123 340.6 76.6856 340.628 76.739 340.684C76.7923 340.737 76.819 340.807 76.819 340.892V341.412H72.923V341.12C72.923 341.061 72.935 341 72.959 340.936C72.983 340.872 73.0216 340.813 73.075 340.76L74.867 338.964C75.019 338.812 75.1536 338.667 75.271 338.528C75.391 338.389 75.4923 338.251 75.575 338.112C75.6603 337.973 75.7243 337.833 75.767 337.692C75.8123 337.548 75.835 337.397 75.835 337.24C75.835 337.088 75.811 336.955 75.763 336.84C75.7176 336.723 75.6536 336.627 75.571 336.552C75.491 336.475 75.3936 336.417 75.279 336.38C75.167 336.34 75.043 336.32 74.907 336.32C74.7763 336.32 74.655 336.339 74.543 336.376C74.4336 336.413 74.335 336.465 74.247 336.532C74.1616 336.599 74.0896 336.679 74.031 336.772C73.975 336.863 73.9336 336.963 73.907 337.072C73.867 337.181 73.815 337.255 73.751 337.292C73.6896 337.329 73.599 337.337 73.479 337.316L73.027 337.236C73.067 336.964 73.1416 336.725 73.251 336.52C73.363 336.315 73.503 336.144 73.671 336.008C73.839 335.869 74.031 335.765 74.247 335.696C74.4656 335.624 74.7016 335.588 74.955 335.588C75.211 335.588 75.4456 335.627 75.659 335.704C75.875 335.779 76.0603 335.887 76.215 336.028C76.3723 336.167 76.495 336.336 76.583 336.536C76.671 336.736 76.715 336.961 76.715 337.212C76.715 337.425 76.683 337.623 76.619 337.804C76.5576 337.985 76.4736 338.159 76.367 338.324C76.2603 338.489 76.135 338.651 75.991 338.808C75.8496 338.963 75.7003 339.12 75.543 339.28L74.151 340.704C74.2656 340.672 74.3803 340.647 74.495 340.628C74.6123 340.609 74.723 340.6 74.827 340.6H76.519Z" fill="white"/>
<path d="M86.3547 409.596V410.38H83.0267V404.62H83.9627V409.596H86.3547Z" fill="white"/>
<path d="M86.4047 407.608H88.4327V408.336H86.4047V407.608Z" fill="white"/>
<path d="M91.2612 407.38C91.4746 407.38 91.6612 407.355 91.8212 407.304C91.9812 407.251 92.1146 407.177 92.2212 407.084C92.3279 406.991 92.4079 406.88 92.4612 406.752C92.5146 406.621 92.5412 406.477 92.5412 406.32C92.5412 406.005 92.4372 405.765 92.2292 405.6C92.0212 405.435 91.7066 405.352 91.2852 405.352H90.5252V407.38H91.2612ZM93.9732 410.38H93.1372C92.9719 410.38 92.8519 410.316 92.7772 410.188L91.4332 408.248C91.3879 408.181 91.3386 408.133 91.2852 408.104C91.2319 408.075 91.1519 408.06 91.0452 408.06H90.5252V410.38H89.5892V404.62H91.2852C91.6639 404.62 91.9892 404.659 92.2612 404.736C92.5359 404.813 92.7612 404.924 92.9372 405.068C93.1132 405.209 93.2426 405.38 93.3252 405.58C93.4106 405.78 93.4532 406.003 93.4532 406.248C93.4532 406.448 93.4226 406.635 93.3612 406.808C93.3026 406.981 93.2159 407.139 93.1012 407.28C92.9892 407.421 92.8506 407.544 92.6852 407.648C92.5199 407.752 92.3319 407.833 92.1212 407.892C92.2359 407.961 92.3346 408.059 92.4172 408.184L93.9732 410.38Z" fill="white"/>
<path d="M101.752 476.218C101.965 476.218 102.152 476.193 102.312 476.142C102.472 476.089 102.605 476.015 102.712 475.922C102.819 475.829 102.899 475.718 102.952 475.59C103.005 475.459 103.032 475.315 103.032 475.158C103.032 474.843 102.928 474.603 102.72 474.438C102.512 474.273 102.197 474.19 101.776 474.19H101.016V476.218H101.752ZM104.464 479.218H103.628C103.463 479.218 103.343 479.154 103.268 479.026L101.924 477.086C101.879 477.019 101.829 476.971 101.776 476.942C101.723 476.913 101.643 476.898 101.536 476.898H101.016V479.218H100.08V473.458H101.776C102.155 473.458 102.48 473.497 102.752 473.574C103.027 473.651 103.252 473.762 103.428 473.906C103.604 474.047 103.733 474.218 103.816 474.418C103.901 474.618 103.944 474.841 103.944 475.086C103.944 475.286 103.913 475.473 103.852 475.646C103.793 475.819 103.707 475.977 103.592 476.118C103.48 476.259 103.341 476.382 103.176 476.486C103.011 476.59 102.823 476.671 102.612 476.73C102.727 476.799 102.825 476.897 102.908 477.022L104.464 479.218Z" fill="white"/>
<path d="M105.839 475.138V479.218H104.979V475.138H105.839ZM105.983 473.906C105.983 473.983 105.967 474.057 105.935 474.126C105.906 474.195 105.865 474.257 105.811 474.31C105.758 474.361 105.695 474.402 105.623 474.434C105.554 474.463 105.479 474.478 105.399 474.478C105.322 474.478 105.249 474.463 105.179 474.434C105.113 474.402 105.054 474.361 105.003 474.31C104.953 474.257 104.911 474.195 104.879 474.126C104.85 474.057 104.835 473.983 104.835 473.906C104.835 473.826 104.85 473.751 104.879 473.682C104.911 473.613 104.953 473.553 105.003 473.502C105.054 473.449 105.113 473.407 105.179 473.378C105.249 473.346 105.322 473.33 105.399 473.33C105.479 473.33 105.554 473.346 105.623 473.378C105.695 473.407 105.758 473.449 105.811 473.502C105.865 473.553 105.906 473.613 105.935 473.682C105.967 473.751 105.983 473.826 105.983 473.906Z" fill="white"/>
<path d="M107.724 475.678C107.812 475.587 107.903 475.506 107.996 475.434C108.092 475.359 108.193 475.295 108.3 475.242C108.407 475.189 108.52 475.147 108.64 475.118C108.76 475.089 108.891 475.074 109.032 475.074C109.256 475.074 109.452 475.111 109.62 475.186C109.791 475.261 109.933 475.366 110.048 475.502C110.165 475.638 110.253 475.802 110.312 475.994C110.371 476.183 110.4 476.393 110.4 476.622V479.218H109.544V476.622C109.544 476.347 109.48 476.134 109.352 475.982C109.227 475.83 109.035 475.754 108.776 475.754C108.584 475.754 108.405 475.798 108.24 475.886C108.077 475.974 107.924 476.094 107.78 476.246V479.218H106.92V475.138H107.44C107.557 475.138 107.632 475.193 107.664 475.302L107.724 475.678Z" fill="white"/>
<path d="M112.86 477.142C113.127 477.142 113.327 477.074 113.46 476.938C113.594 476.802 113.66 476.625 113.66 476.406C113.66 476.182 113.594 476.005 113.46 475.874C113.327 475.743 113.127 475.678 112.86 475.678C112.596 475.678 112.396 475.743 112.26 475.874C112.127 476.005 112.06 476.182 112.06 476.406C112.06 476.513 112.078 476.611 112.112 476.702C112.147 476.793 112.198 476.871 112.264 476.938C112.331 477.002 112.414 477.053 112.512 477.09C112.614 477.125 112.73 477.142 112.86 477.142ZM114.056 479.418C114.056 479.327 114.03 479.255 113.976 479.202C113.926 479.146 113.856 479.103 113.768 479.074C113.68 479.042 113.578 479.019 113.46 479.006C113.343 478.99 113.218 478.979 113.084 478.974C112.954 478.966 112.819 478.959 112.68 478.954C112.544 478.946 112.412 478.933 112.284 478.914C112.156 478.981 112.051 479.061 111.968 479.154C111.888 479.247 111.848 479.355 111.848 479.478C111.848 479.558 111.868 479.633 111.908 479.702C111.951 479.771 112.015 479.831 112.1 479.882C112.188 479.933 112.299 479.973 112.432 480.002C112.568 480.031 112.731 480.046 112.92 480.046C113.299 480.046 113.583 479.987 113.772 479.87C113.962 479.753 114.056 479.602 114.056 479.418ZM114.92 475.286V475.606C114.92 475.713 114.856 475.778 114.728 475.802L114.32 475.87C114.39 476.025 114.424 476.197 114.424 476.386C114.424 476.586 114.384 476.767 114.304 476.93C114.227 477.093 114.119 477.231 113.98 477.346C113.842 477.461 113.676 477.549 113.484 477.61C113.292 477.671 113.084 477.702 112.86 477.702C112.775 477.702 112.691 477.698 112.608 477.69C112.528 477.679 112.45 477.666 112.372 477.65C112.295 477.695 112.238 477.743 112.2 477.794C112.163 477.845 112.144 477.897 112.144 477.95C112.144 478.038 112.183 478.103 112.26 478.146C112.338 478.189 112.439 478.219 112.564 478.238C112.692 478.257 112.838 478.269 113 478.274C113.163 478.279 113.328 478.289 113.496 478.302C113.664 478.315 113.83 478.338 113.992 478.37C114.155 478.399 114.299 478.45 114.424 478.522C114.552 478.591 114.655 478.686 114.732 478.806C114.81 478.926 114.848 479.082 114.848 479.274C114.848 479.45 114.804 479.622 114.716 479.79C114.628 479.958 114.5 480.107 114.332 480.238C114.167 480.369 113.964 480.473 113.724 480.55C113.484 480.63 113.211 480.67 112.904 480.67C112.6 480.67 112.335 480.641 112.108 480.582C111.884 480.523 111.696 480.443 111.544 480.342C111.395 480.243 111.283 480.129 111.208 479.998C111.136 479.867 111.1 479.731 111.1 479.59C111.1 479.398 111.16 479.234 111.28 479.098C111.403 478.962 111.568 478.855 111.776 478.778C111.664 478.725 111.574 478.651 111.504 478.558C111.438 478.465 111.404 478.342 111.404 478.19C111.404 478.07 111.448 477.945 111.536 477.814C111.624 477.683 111.756 477.573 111.932 477.482C111.73 477.37 111.57 477.222 111.452 477.038C111.335 476.851 111.276 476.634 111.276 476.386C111.276 476.183 111.315 476.001 111.392 475.838C111.472 475.675 111.583 475.537 111.724 475.422C111.866 475.307 112.032 475.219 112.224 475.158C112.419 475.097 112.631 475.066 112.86 475.066C113.212 475.066 113.519 475.139 113.78 475.286H114.92Z" fill="white"/>
<path fill-rule="evenodd" clip-rule="evenodd" d="M125.542 547.773C125.225 547.919 124.872 548 124.5 548C123.119 548 122 546.881 122 545.5C122 544.119 123.119 543 124.5 543C124.872 543 125.225 543.081 125.542 543.227C124.904 543.777 124.5 544.591 124.5 545.5C124.5 546.409 124.904 547.223 125.542 547.773ZM126 547.5C125.393 547.044 125 546.318 125 545.5C125 544.682 125.393 543.956 126 543.5C126.607 543.956 127 544.682 127 545.5C127 546.318 126.607 547.044 126 547.5ZM126 548.099C125.559 548.354 125.046 548.5 124.5 548.5C122.843 548.5 121.5 547.157 121.5 545.5C121.5 543.843 122.843 542.5 124.5 542.5C125.046 542.5 125.559 542.646 126 542.901C126.441 542.646 126.954 542.5 127.5 542.5C129.157 542.5 130.5 543.843 130.5 545.5C130.5 547.157 129.157 548.5 127.5 548.5C126.954 548.5 126.441 548.354 126 548.099ZM126.458 543.227C126.775 543.081 127.128 543 127.5 543C128.881 543 130 544.119 130 545.5C130 546.881 128.881 548 127.5 548C127.128 548 126.775 547.919 126.458 547.773C127.096 547.223 127.5 546.409 127.5 545.5C127.5 544.591 127.096 543.777 126.458 543.227Z" fill="white"/>
</svg>
