<svg width="40" height="82" viewBox="0 0 40 82" fill="none" xmlns="http://www.w3.org/2000/svg">
<g clip-path="url(#clip0_204_6492)">
<path d="M0 0.5H40V20.75H0V0.5Z" fill="white" fill-opacity="0.2"/>
<path d="M21.844 12.041L20.436 8.193C20.3667 8.02234 20.2947 7.81967 20.22 7.585C20.1453 7.35034 20.0707 7.097 19.996 6.825C19.9267 7.097 19.8547 7.353 19.78 7.593C19.7053 7.82767 19.6333 8.033 19.564 8.209L18.164 12.041H21.844ZM25.644 16.409H23.98C23.7933 16.409 23.6413 16.3637 23.524 16.273C23.4067 16.177 23.3187 16.0597 23.26 15.921L22.396 13.561H17.604L16.74 15.921C16.6973 16.0437 16.6147 16.1557 16.492 16.257C16.3693 16.3583 16.2173 16.409 16.036 16.409H14.356L18.908 4.841H21.1L25.644 16.409Z" fill="white"/>
<path d="M0 61.25H40V81.5H0V61.25Z" fill="white" fill-opacity="0.2"/>
<path d="M20.04 75.479C20.44 75.479 20.776 75.431 21.048 75.335C21.32 75.239 21.536 75.111 21.696 74.951C21.8613 74.791 21.9786 74.6043 22.048 74.391C22.1226 74.1777 22.16 73.951 22.16 73.711C22.16 73.4603 22.12 73.2363 22.04 73.039C21.96 72.8363 21.8346 72.6657 21.664 72.527C21.4933 72.383 21.272 72.2737 21 72.199C20.7333 72.1243 20.4106 72.087 20.032 72.087H17.864V75.479H20.04ZM17.864 67.255V70.599H19.576C20.312 70.599 20.8666 70.4657 21.24 70.199C21.6186 69.9323 21.808 69.5083 21.808 68.927C21.808 68.3243 21.6373 67.895 21.296 67.639C20.9546 67.383 20.4213 67.255 19.696 67.255H17.864ZM19.696 65.591C20.4533 65.591 21.1013 65.663 21.64 65.807C22.1786 65.951 22.6186 66.1563 22.96 66.423C23.3066 66.6897 23.56 67.0123 23.72 67.391C23.88 67.7697 23.96 68.1963 23.96 68.671C23.96 68.943 23.92 69.2043 23.84 69.455C23.76 69.7003 23.6346 69.9323 23.464 70.151C23.2986 70.3643 23.0853 70.559 22.824 70.735C22.568 70.911 22.2613 71.0603 21.904 71.183C23.4933 71.5403 24.288 72.399 24.288 73.759C24.288 74.2497 24.1946 74.703 24.008 75.119C23.8213 75.535 23.5493 75.895 23.192 76.199C22.8346 76.4977 22.3946 76.7323 21.872 76.903C21.3493 77.0737 20.752 77.159 20.08 77.159H15.712V65.591H19.696Z" fill="#EEEEEE" fill-opacity="0.5"/>
</g>
<defs>
<clipPath id="clip0_204_6492">
<rect width="40" height="82" fill="white"/>
</clipPath>
</defs>
</svg>
