<svg width="50" height="342" viewBox="0 0 50 342" fill="none" xmlns="http://www.w3.org/2000/svg">
<path d="M0 1H50V10.5276H0V1Z" fill="white" fill-opacity="0.2"/>
<path d="M0 67.0945H50V76.622H0V67.0945Z" fill="white" fill-opacity="0.2"/>
<path d="M0 133.189H50V142.717H0V133.189Z" fill="white" fill-opacity="0.2"/>
<path d="M0 199.283H50V208.811H0V199.283Z" fill="white" fill-opacity="0.2"/>
<path d="M0 265.378H50V274.905H0V265.378Z" fill="white" fill-opacity="0.2"/>
<path d="M0 331.43H50V340.958H0V331.43Z" fill="white" fill-opacity="0.2"/>
<path d="M5.8455 338.215V338.786H3V333.77H3.6755V338.215H5.8455Z" fill="white"/>
<path d="M8.3702 337.19C8.0832 337.199 7.8382 337.223 7.6352 337.26C7.43454 337.295 7.27004 337.342 7.1417 337.4C7.0157 337.458 6.92354 337.527 6.8652 337.606C6.8092 337.686 6.7812 337.774 6.7812 337.872C6.7812 337.966 6.79637 338.046 6.8267 338.114C6.85704 338.182 6.89787 338.238 6.9492 338.282C7.00287 338.324 7.0647 338.355 7.1347 338.376C7.20704 338.395 7.28404 338.404 7.3657 338.404C7.47537 338.404 7.5757 338.394 7.6667 338.373C7.7577 338.35 7.84287 338.317 7.9222 338.275C8.00387 338.233 8.08087 338.183 8.1532 338.124C8.22787 338.066 8.3002 338 8.3702 337.925V337.19ZM6.3577 335.741C6.5537 335.552 6.76487 335.411 6.9912 335.317C7.21754 335.224 7.46837 335.177 7.7437 335.177C7.94204 335.177 8.1182 335.21 8.2722 335.275C8.4262 335.341 8.5557 335.432 8.6607 335.548C8.7657 335.665 8.84504 335.806 8.8987 335.972C8.95237 336.138 8.9792 336.32 8.9792 336.518V338.786H8.7027C8.64204 338.786 8.59537 338.777 8.5627 338.758C8.53004 338.737 8.50437 338.697 8.4857 338.639L8.4157 338.303C8.32237 338.389 8.23137 338.466 8.1427 338.534C8.05404 338.599 7.9607 338.655 7.8627 338.702C7.7647 338.746 7.6597 338.78 7.5477 338.803C7.43804 338.829 7.31554 338.842 7.1802 338.842C7.04254 338.842 6.91304 338.823 6.7917 338.786C6.67037 338.746 6.5642 338.688 6.4732 338.611C6.38454 338.534 6.31337 338.437 6.2597 338.32C6.20837 338.201 6.1827 338.061 6.1827 337.9C6.1827 337.76 6.2212 337.626 6.2982 337.498C6.3752 337.367 6.50004 337.252 6.6727 337.151C6.84537 337.051 7.07054 336.969 7.3482 336.906C7.62587 336.841 7.96654 336.804 8.3702 336.794V336.518C8.3702 336.243 8.3107 336.035 8.1917 335.895C8.0727 335.753 7.89887 335.681 7.6702 335.681C7.5162 335.681 7.3867 335.701 7.2817 335.741C7.17904 335.778 7.0892 335.821 7.0122 335.87C6.93754 335.917 6.8722 335.96 6.8162 336C6.76254 336.037 6.70887 336.056 6.6552 336.056C6.6132 336.056 6.57704 336.045 6.5467 336.024C6.51637 336.001 6.4907 335.973 6.4697 335.94L6.3577 335.741Z" fill="white"/>
<path d="M10.9688 338.842C10.6888 338.842 10.473 338.764 10.3213 338.607C10.172 338.451 10.0973 338.226 10.0973 337.932V335.762H9.67034C9.63301 335.762 9.60151 335.751 9.57584 335.73C9.55018 335.707 9.53734 335.672 9.53734 335.625V335.377L10.1183 335.303L10.2618 334.208C10.2688 334.173 10.284 334.145 10.3073 334.124C10.333 334.101 10.3657 334.089 10.4053 334.089H10.7203V335.31H11.7458V335.762H10.7203V337.89C10.7203 338.039 10.7565 338.15 10.8288 338.222C10.9012 338.295 10.9945 338.331 11.1088 338.331C11.1742 338.331 11.2302 338.323 11.2768 338.306C11.3258 338.288 11.3678 338.268 11.4028 338.247C11.4378 338.226 11.467 338.207 11.4903 338.191C11.516 338.172 11.5382 338.163 11.5568 338.163C11.5895 338.163 11.6187 338.183 11.6443 338.222L11.8263 338.52C11.719 338.62 11.5895 338.7 11.4378 338.758C11.2862 338.814 11.1298 338.842 10.9688 338.842Z" fill="white"/>
<path d="M14.8361 335.87C14.8175 335.896 14.7988 335.916 14.7801 335.93C14.7615 335.944 14.7358 335.951 14.7031 335.951C14.6681 335.951 14.6296 335.937 14.5876 335.909C14.5456 335.879 14.4931 335.846 14.4301 335.811C14.3695 335.776 14.2936 335.744 14.2026 335.716C14.114 335.686 14.0043 335.671 13.8736 335.671C13.6986 335.671 13.5446 335.702 13.4116 335.765C13.2786 335.826 13.1666 335.915 13.0756 336.031C12.987 336.148 12.9193 336.289 12.8726 336.455C12.8283 336.621 12.8061 336.806 12.8061 337.011C12.8061 337.226 12.8306 337.417 12.8796 337.585C12.9286 337.751 12.9975 337.891 13.0861 338.005C13.1771 338.117 13.2856 338.204 13.4116 338.264C13.54 338.323 13.6835 338.352 13.8421 338.352C13.9938 338.352 14.1186 338.334 14.2166 338.299C14.3146 338.262 14.3951 338.221 14.4581 338.177C14.5235 338.133 14.5771 338.093 14.6191 338.058C14.6635 338.021 14.7066 338.002 14.7486 338.002C14.8 338.002 14.8396 338.022 14.8676 338.061L15.0426 338.289C14.9656 338.385 14.8781 338.466 14.7801 338.534C14.6821 338.602 14.576 338.659 14.4616 338.705C14.3496 338.75 14.2318 338.782 14.1081 338.803C13.9845 338.824 13.8585 338.835 13.7301 338.835C13.5085 338.835 13.302 338.794 13.1106 338.712C12.9216 338.631 12.7571 338.513 12.6171 338.359C12.4771 338.203 12.3675 338.011 12.2881 337.785C12.2088 337.559 12.1691 337.301 12.1691 337.011C12.1691 336.748 12.2053 336.504 12.2776 336.28C12.3523 336.056 12.4596 335.863 12.5996 335.702C12.742 335.539 12.9158 335.412 13.1211 335.321C13.3288 335.23 13.5668 335.184 13.8351 335.184C14.0848 335.184 14.3041 335.225 14.4931 335.307C14.6845 335.386 14.8536 335.499 15.0006 335.646L14.8361 335.87Z" fill="white"/>
<path d="M16.3379 335.713C16.4896 335.552 16.6576 335.424 16.8419 335.328C17.0262 335.232 17.2386 335.184 17.4789 335.184C17.6726 335.184 17.8429 335.217 17.9899 335.282C18.1392 335.345 18.2629 335.436 18.3609 335.555C18.4612 335.672 18.5371 335.813 18.5884 335.979C18.6397 336.145 18.6654 336.328 18.6654 336.528V338.786H18.0389V336.528C18.0389 336.26 17.9771 336.052 17.8534 335.905C17.7321 335.756 17.5466 335.681 17.2969 335.681C17.1126 335.681 16.9399 335.726 16.7789 335.814C16.6202 335.903 16.4732 336.023 16.3379 336.175V338.786H15.7114V333.63H16.3379V335.713Z" fill="white"/>
<path d="M8.2185 267.634V272.65H7.6235V268.964C7.6235 268.915 7.62467 268.863 7.627 268.807C7.63167 268.751 7.63633 268.693 7.641 268.635L5.919 271.771C5.86533 271.876 5.78367 271.929 5.674 271.929H5.576C5.46633 271.929 5.38467 271.876 5.331 271.771L3.574 268.621C3.588 268.745 3.595 268.859 3.595 268.964V272.65H3V267.634H3.5005C3.56117 267.634 3.60783 267.64 3.6405 267.652C3.67317 267.663 3.70467 267.696 3.735 267.75L5.4675 270.837C5.4955 270.893 5.52233 270.951 5.548 271.012C5.576 271.072 5.60167 271.134 5.625 271.197C5.64833 271.134 5.67283 271.072 5.6985 271.012C5.72417 270.949 5.75217 270.889 5.7825 270.833L7.4835 267.75C7.5115 267.696 7.54183 267.663 7.5745 267.652C7.6095 267.64 7.65733 267.634 7.718 267.634H8.2185Z" fill="white"/>
<path d="M10.7391 269.048C10.9981 269.048 11.2314 269.091 11.4391 269.178C11.6468 269.264 11.8241 269.386 11.9711 269.545C12.1181 269.704 12.2301 269.896 12.3071 270.123C12.3864 270.347 12.4261 270.597 12.4261 270.875C12.4261 271.155 12.3864 271.407 12.3071 271.631C12.2301 271.855 12.1181 272.046 11.9711 272.205C11.8241 272.364 11.6468 272.486 11.4391 272.573C11.2314 272.657 10.9981 272.699 10.7391 272.699C10.4778 272.699 10.2421 272.657 10.0321 272.573C9.82443 272.486 9.6471 272.364 9.5001 272.205C9.3531 272.046 9.23993 271.855 9.1606 271.631C9.0836 271.407 9.0451 271.155 9.0451 270.875C9.0451 270.597 9.0836 270.347 9.1606 270.123C9.23993 269.896 9.3531 269.704 9.5001 269.545C9.6471 269.386 9.82443 269.264 10.0321 269.178C10.2421 269.091 10.4778 269.048 10.7391 269.048ZM10.7391 272.212C11.0891 272.212 11.3504 272.095 11.5231 271.862C11.6958 271.626 11.7821 271.299 11.7821 270.879C11.7821 270.456 11.6958 270.127 11.5231 269.892C11.3504 269.656 11.0891 269.538 10.7391 269.538C10.5618 269.538 10.4066 269.568 10.2736 269.629C10.1429 269.69 10.0333 269.777 9.9446 269.892C9.85827 270.006 9.79293 270.147 9.7486 270.315C9.7066 270.481 9.6856 270.669 9.6856 270.879C9.6856 271.299 9.77193 271.626 9.9446 271.862C10.1196 272.095 10.3844 272.212 10.7391 272.212Z" fill="white"/>
<path d="M13.8043 269.619C13.8813 269.532 13.9629 269.454 14.0493 269.384C14.1356 269.314 14.2266 269.255 14.3223 269.206C14.4203 269.154 14.5229 269.116 14.6303 269.09C14.7399 269.062 14.8578 269.048 14.9838 269.048C15.1774 269.048 15.3478 269.081 15.4948 269.146C15.6441 269.209 15.7678 269.3 15.8658 269.419C15.9661 269.536 16.0419 269.677 16.0933 269.843C16.1446 270.008 16.1703 270.191 16.1703 270.392V272.65H15.5438V270.392C15.5438 270.124 15.4819 269.916 15.3583 269.769C15.2369 269.62 15.0514 269.545 14.8018 269.545C14.6174 269.545 14.4448 269.589 14.2838 269.678C14.1251 269.767 13.9781 269.887 13.8428 270.039V272.65H13.2163V269.104H13.5908C13.6794 269.104 13.7343 269.147 13.7553 269.234L13.8043 269.619Z" fill="white"/>
<path d="M18.6141 269.048C18.8731 269.048 19.1064 269.091 19.3141 269.178C19.5218 269.264 19.6991 269.386 19.8461 269.545C19.9931 269.704 20.1051 269.896 20.1821 270.123C20.2614 270.347 20.3011 270.597 20.3011 270.875C20.3011 271.155 20.2614 271.407 20.1821 271.631C20.1051 271.855 19.9931 272.046 19.8461 272.205C19.6991 272.364 19.5218 272.486 19.3141 272.573C19.1064 272.657 18.8731 272.699 18.6141 272.699C18.3528 272.699 18.1171 272.657 17.9071 272.573C17.6994 272.486 17.5221 272.364 17.3751 272.205C17.2281 272.046 17.1149 271.855 17.0356 271.631C16.9586 271.407 16.9201 271.155 16.9201 270.875C16.9201 270.597 16.9586 270.347 17.0356 270.123C17.1149 269.896 17.2281 269.704 17.3751 269.545C17.5221 269.386 17.6994 269.264 17.9071 269.178C18.1171 269.091 18.3528 269.048 18.6141 269.048ZM18.6141 272.212C18.9641 272.212 19.2254 272.095 19.3981 271.862C19.5708 271.626 19.6571 271.299 19.6571 270.879C19.6571 270.456 19.5708 270.127 19.3981 269.892C19.2254 269.656 18.9641 269.538 18.6141 269.538C18.4368 269.538 18.2816 269.568 18.1486 269.629C18.0179 269.69 17.9083 269.777 17.8196 269.892C17.7333 270.006 17.6679 270.147 17.6236 270.315C17.5816 270.481 17.5606 270.669 17.5606 270.879C17.5606 271.299 17.6469 271.626 17.8196 271.862C17.9946 272.095 18.2594 272.212 18.6141 272.212Z" fill="white"/>
<path d="M25.5948 268.418C25.5738 268.453 25.5505 268.48 25.5248 268.499C25.5015 268.515 25.4723 268.523 25.4373 268.523C25.3976 268.523 25.351 268.503 25.2973 268.464C25.2436 268.424 25.176 268.381 25.0943 268.334C25.015 268.285 24.9181 268.241 24.8038 268.201C24.6918 268.161 24.5553 268.142 24.3943 268.142C24.2426 268.142 24.1085 268.163 23.9918 268.205C23.8775 268.244 23.7806 268.299 23.7013 268.369C23.6243 268.439 23.566 268.522 23.5263 268.618C23.4866 268.711 23.4668 268.812 23.4668 268.922C23.4668 269.062 23.5006 269.179 23.5683 269.272C23.6383 269.363 23.7293 269.441 23.8413 269.507C23.9556 269.572 24.084 269.629 24.2263 269.678C24.371 269.725 24.518 269.774 24.6673 269.825C24.819 269.876 24.966 269.935 25.1083 270C25.253 270.063 25.3813 270.144 25.4933 270.242C25.6076 270.34 25.6986 270.46 25.7663 270.602C25.8363 270.744 25.8713 270.919 25.8713 271.127C25.8713 271.346 25.834 271.553 25.7593 271.747C25.6846 271.938 25.575 272.105 25.4303 272.247C25.288 272.389 25.1118 272.501 24.9018 272.583C24.6941 272.665 24.4573 272.706 24.1913 272.706C23.8646 272.706 23.5683 272.647 23.3023 272.531C23.0363 272.412 22.8088 272.252 22.6198 272.051L22.8158 271.729C22.8345 271.703 22.8566 271.682 22.8823 271.666C22.9103 271.647 22.9406 271.638 22.9733 271.638C23.0036 271.638 23.0375 271.651 23.0748 271.677C23.1145 271.7 23.1588 271.73 23.2078 271.768C23.2568 271.805 23.3128 271.846 23.3758 271.89C23.4388 271.934 23.51 271.975 23.5893 272.013C23.671 272.05 23.7631 272.081 23.8658 272.107C23.9685 272.13 24.084 272.142 24.2123 272.142C24.3733 272.142 24.5168 272.12 24.6428 272.076C24.7688 272.031 24.875 271.969 24.9613 271.89C25.05 271.808 25.1176 271.712 25.1643 271.6C25.211 271.488 25.2343 271.363 25.2343 271.225C25.2343 271.073 25.1993 270.95 25.1293 270.854C25.0616 270.756 24.9718 270.674 24.8598 270.609C24.7478 270.544 24.6195 270.489 24.4748 270.445C24.3301 270.398 24.1831 270.351 24.0338 270.305C23.8845 270.256 23.7375 270.2 23.5928 270.137C23.4481 270.074 23.3198 269.992 23.2078 269.892C23.0958 269.791 23.0048 269.666 22.9348 269.517C22.8671 269.365 22.8333 269.179 22.8333 268.957C22.8333 268.78 22.8671 268.608 22.9348 268.443C23.0048 268.277 23.1051 268.13 23.2358 268.002C23.3688 267.873 23.531 267.771 23.7223 267.694C23.916 267.617 24.1376 267.578 24.3873 267.578C24.6673 267.578 24.9216 267.622 25.1503 267.711C25.3813 267.8 25.5843 267.928 25.7593 268.096L25.5948 268.418Z" fill="white"/>
<path d="M30.2216 268.205H28.5976V272.65H27.9221V268.205H26.2946V267.634H30.2216V268.205Z" fill="white"/>
<path d="M34.0353 270.536H32.6073V272.041H32.0998V270.536H30.6788V270.063H32.0998V268.569H32.6073V270.063H34.0353V270.536Z" fill="white"/>
<path d="M35.7054 268.187V269.941H37.7669V270.494H35.7054V272.65H35.0264V267.634H38.1169V268.187H35.7054Z" fill="white"/>
<path d="M40.4649 270.235C40.6585 270.235 40.8289 270.209 40.9759 270.158C41.1252 270.106 41.25 270.035 41.3504 269.944C41.453 269.851 41.53 269.74 41.5814 269.612C41.6327 269.483 41.6584 269.342 41.6584 269.188C41.6584 268.868 41.5592 268.619 41.3609 268.439C41.1649 268.259 40.8662 268.17 40.4649 268.17H39.6599V270.235H40.4649ZM40.4649 267.634C40.7822 267.634 41.0575 267.671 41.2909 267.746C41.5265 267.818 41.7214 267.922 41.8754 268.058C42.0294 268.193 42.1437 268.356 42.2184 268.548C42.2954 268.739 42.3339 268.952 42.3339 269.188C42.3339 269.421 42.293 269.635 42.2114 269.829C42.1297 270.022 42.0095 270.189 41.8509 270.329C41.6945 270.469 41.4997 270.579 41.2664 270.658C41.0354 270.735 40.7682 270.774 40.4649 270.774H39.6599V272.65H38.9844V267.634H40.4649Z" fill="white"/>
<path d="M8.2185 201.515V206.531H7.6235V202.845C7.6235 202.796 7.62467 202.744 7.627 202.688C7.63167 202.632 7.63633 202.574 7.641 202.516L5.919 205.652C5.86533 205.757 5.78367 205.81 5.674 205.81H5.576C5.46633 205.81 5.38467 205.757 5.331 205.652L3.574 202.502C3.588 202.626 3.595 202.74 3.595 202.845V206.531H3V201.515H3.5005C3.56117 201.515 3.60783 201.521 3.6405 201.533C3.67317 201.544 3.70467 201.577 3.735 201.631L5.4675 204.718C5.4955 204.774 5.52233 204.832 5.548 204.893C5.576 204.953 5.60167 205.015 5.625 205.078C5.64833 205.015 5.67283 204.953 5.6985 204.893C5.72417 204.83 5.75217 204.77 5.7825 204.714L7.4835 201.631C7.5115 201.577 7.54183 201.544 7.5745 201.533C7.6095 201.521 7.65733 201.515 7.718 201.515H8.2185Z" fill="white"/>
<path d="M10.7391 202.929C10.9981 202.929 11.2314 202.972 11.4391 203.059C11.6468 203.145 11.8241 203.267 11.9711 203.426C12.1181 203.585 12.2301 203.777 12.3071 204.004C12.3864 204.228 12.4261 204.478 12.4261 204.756C12.4261 205.036 12.3864 205.288 12.3071 205.512C12.2301 205.736 12.1181 205.927 11.9711 206.086C11.8241 206.245 11.6468 206.367 11.4391 206.454C11.2314 206.538 10.9981 206.58 10.7391 206.58C10.4778 206.58 10.2421 206.538 10.0321 206.454C9.82443 206.367 9.6471 206.245 9.5001 206.086C9.3531 205.927 9.23993 205.736 9.1606 205.512C9.0836 205.288 9.0451 205.036 9.0451 204.756C9.0451 204.478 9.0836 204.228 9.1606 204.004C9.23993 203.777 9.3531 203.585 9.5001 203.426C9.6471 203.267 9.82443 203.145 10.0321 203.059C10.2421 202.972 10.4778 202.929 10.7391 202.929ZM10.7391 206.093C11.0891 206.093 11.3504 205.976 11.5231 205.743C11.6958 205.507 11.7821 205.18 11.7821 204.76C11.7821 204.337 11.6958 204.008 11.5231 203.773C11.3504 203.537 11.0891 203.419 10.7391 203.419C10.5618 203.419 10.4066 203.449 10.2736 203.51C10.1429 203.571 10.0333 203.658 9.9446 203.773C9.85827 203.887 9.79293 204.028 9.7486 204.196C9.7066 204.362 9.6856 204.55 9.6856 204.76C9.6856 205.18 9.77193 205.507 9.9446 205.743C10.1196 205.976 10.3844 206.093 10.7391 206.093Z" fill="white"/>
<path d="M13.8043 203.5C13.8813 203.413 13.9629 203.335 14.0493 203.265C14.1356 203.195 14.2266 203.136 14.3223 203.087C14.4203 203.035 14.5229 202.997 14.6303 202.971C14.7399 202.943 14.8578 202.929 14.9838 202.929C15.1774 202.929 15.3478 202.962 15.4948 203.027C15.6441 203.09 15.7678 203.181 15.8658 203.3C15.9661 203.417 16.0419 203.558 16.0933 203.724C16.1446 203.889 16.1703 204.072 16.1703 204.273V206.531H15.5438V204.273C15.5438 204.005 15.4819 203.797 15.3583 203.65C15.2369 203.501 15.0514 203.426 14.8018 203.426C14.6174 203.426 14.4448 203.47 14.2838 203.559C14.1251 203.648 13.9781 203.768 13.8428 203.92V206.531H13.2163V202.985H13.5908C13.6794 202.985 13.7343 203.028 13.7553 203.115L13.8043 203.5Z" fill="white"/>
<path d="M18.6141 202.929C18.8731 202.929 19.1064 202.972 19.3141 203.059C19.5218 203.145 19.6991 203.267 19.8461 203.426C19.9931 203.585 20.1051 203.777 20.1821 204.004C20.2614 204.228 20.3011 204.478 20.3011 204.756C20.3011 205.036 20.2614 205.288 20.1821 205.512C20.1051 205.736 19.9931 205.927 19.8461 206.086C19.6991 206.245 19.5218 206.367 19.3141 206.454C19.1064 206.538 18.8731 206.58 18.6141 206.58C18.3528 206.58 18.1171 206.538 17.9071 206.454C17.6994 206.367 17.5221 206.245 17.3751 206.086C17.2281 205.927 17.1149 205.736 17.0356 205.512C16.9586 205.288 16.9201 205.036 16.9201 204.756C16.9201 204.478 16.9586 204.228 17.0356 204.004C17.1149 203.777 17.2281 203.585 17.3751 203.426C17.5221 203.267 17.6994 203.145 17.9071 203.059C18.1171 202.972 18.3528 202.929 18.6141 202.929ZM18.6141 206.093C18.9641 206.093 19.2254 205.976 19.3981 205.743C19.5708 205.507 19.6571 205.18 19.6571 204.76C19.6571 204.337 19.5708 204.008 19.3981 203.773C19.2254 203.537 18.9641 203.419 18.6141 203.419C18.4368 203.419 18.2816 203.449 18.1486 203.51C18.0179 203.571 17.9083 203.658 17.8196 203.773C17.7333 203.887 17.6679 204.028 17.6236 204.196C17.5816 204.362 17.5606 204.55 17.5606 204.76C17.5606 205.18 17.6469 205.507 17.8196 205.743C17.9946 205.976 18.2594 206.093 18.6141 206.093Z" fill="white"/>
<path d="M23.7083 202.068V203.822H25.7698V204.375H23.7083V206.531H23.0293V201.515H26.1198V202.068H23.7083Z" fill="white"/>
<path d="M28.4678 204.116C28.6615 204.116 28.8318 204.09 28.9788 204.039C29.1281 203.987 29.253 203.916 29.3533 203.825C29.456 203.732 29.533 203.621 29.5843 203.493C29.6356 203.364 29.6613 203.223 29.6613 203.069C29.6613 202.749 29.5621 202.5 29.3638 202.32C29.1678 202.14 28.8691 202.051 28.4678 202.051H27.6628V204.116H28.4678ZM28.4678 201.515C28.7851 201.515 29.0605 201.552 29.2938 201.627C29.5295 201.699 29.7243 201.803 29.8783 201.939C30.0323 202.074 30.1466 202.237 30.2213 202.429C30.2983 202.62 30.3368 202.833 30.3368 203.069C30.3368 203.302 30.296 203.516 30.2143 203.71C30.1326 203.903 30.0125 204.07 29.8538 204.21C29.6975 204.35 29.5026 204.46 29.2693 204.539C29.0383 204.616 28.7711 204.655 28.4678 204.655H27.6628V206.531H26.9873V201.515H28.4678Z" fill="white"/>
<path d="M8.2185 135.445V140.461H7.6235V136.775C7.6235 136.726 7.62467 136.674 7.627 136.618C7.63167 136.562 7.63633 136.504 7.641 136.446L5.919 139.582C5.86533 139.687 5.78367 139.74 5.674 139.74H5.576C5.46633 139.74 5.38467 139.687 5.331 139.582L3.574 136.432C3.588 136.556 3.595 136.67 3.595 136.775V140.461H3V135.445H3.5005C3.56117 135.445 3.60783 135.451 3.6405 135.463C3.67317 135.474 3.70467 135.507 3.735 135.561L5.4675 138.648C5.4955 138.704 5.52233 138.762 5.548 138.823C5.576 138.883 5.60167 138.945 5.625 139.008C5.64833 138.945 5.67283 138.883 5.6985 138.823C5.72417 138.76 5.75217 138.7 5.7825 138.644L7.4835 135.561C7.5115 135.507 7.54183 135.474 7.5745 135.463C7.6095 135.451 7.65733 135.445 7.718 135.445H8.2185Z" fill="white"/>
<path d="M10.7391 136.859C10.9981 136.859 11.2314 136.902 11.4391 136.989C11.6468 137.075 11.8241 137.197 11.9711 137.356C12.1181 137.515 12.2301 137.707 12.3071 137.934C12.3864 138.158 12.4261 138.408 12.4261 138.686C12.4261 138.966 12.3864 139.218 12.3071 139.442C12.2301 139.666 12.1181 139.857 11.9711 140.016C11.8241 140.175 11.6468 140.297 11.4391 140.384C11.2314 140.468 10.9981 140.51 10.7391 140.51C10.4778 140.51 10.2421 140.468 10.0321 140.384C9.82443 140.297 9.6471 140.175 9.5001 140.016C9.3531 139.857 9.23993 139.666 9.1606 139.442C9.0836 139.218 9.0451 138.966 9.0451 138.686C9.0451 138.408 9.0836 138.158 9.1606 137.934C9.23993 137.707 9.3531 137.515 9.5001 137.356C9.6471 137.197 9.82443 137.075 10.0321 136.989C10.2421 136.902 10.4778 136.859 10.7391 136.859ZM10.7391 140.023C11.0891 140.023 11.3504 139.906 11.5231 139.673C11.6958 139.437 11.7821 139.11 11.7821 138.69C11.7821 138.267 11.6958 137.938 11.5231 137.703C11.3504 137.467 11.0891 137.349 10.7391 137.349C10.5618 137.349 10.4066 137.379 10.2736 137.44C10.1429 137.501 10.0333 137.588 9.9446 137.703C9.85827 137.817 9.79293 137.958 9.7486 138.126C9.7066 138.292 9.6856 138.48 9.6856 138.69C9.6856 139.11 9.77193 139.437 9.9446 139.673C10.1196 139.906 10.3844 140.023 10.7391 140.023Z" fill="white"/>
<path d="M13.8043 137.43C13.8813 137.343 13.9629 137.265 14.0493 137.195C14.1356 137.125 14.2266 137.066 14.3223 137.017C14.4203 136.965 14.5229 136.927 14.6303 136.901C14.7399 136.873 14.8578 136.859 14.9838 136.859C15.1774 136.859 15.3478 136.892 15.4948 136.957C15.6441 137.02 15.7678 137.111 15.8658 137.23C15.9661 137.347 16.0419 137.488 16.0933 137.654C16.1446 137.819 16.1703 138.002 16.1703 138.203V140.461H15.5438V138.203C15.5438 137.935 15.4819 137.727 15.3583 137.58C15.2369 137.431 15.0514 137.356 14.8018 137.356C14.6174 137.356 14.4448 137.4 14.2838 137.489C14.1251 137.578 13.9781 137.698 13.8428 137.85V140.461H13.2163V136.915H13.5908C13.6794 136.915 13.7343 136.958 13.7553 137.045L13.8043 137.43Z" fill="white"/>
<path d="M18.6141 136.859C18.8731 136.859 19.1064 136.902 19.3141 136.989C19.5218 137.075 19.6991 137.197 19.8461 137.356C19.9931 137.515 20.1051 137.707 20.1821 137.934C20.2614 138.158 20.3011 138.408 20.3011 138.686C20.3011 138.966 20.2614 139.218 20.1821 139.442C20.1051 139.666 19.9931 139.857 19.8461 140.016C19.6991 140.175 19.5218 140.297 19.3141 140.384C19.1064 140.468 18.8731 140.51 18.6141 140.51C18.3528 140.51 18.1171 140.468 17.9071 140.384C17.6994 140.297 17.5221 140.175 17.3751 140.016C17.2281 139.857 17.1149 139.666 17.0356 139.442C16.9586 139.218 16.9201 138.966 16.9201 138.686C16.9201 138.408 16.9586 138.158 17.0356 137.934C17.1149 137.707 17.2281 137.515 17.3751 137.356C17.5221 137.197 17.6994 137.075 17.9071 136.989C18.1171 136.902 18.3528 136.859 18.6141 136.859ZM18.6141 140.023C18.9641 140.023 19.2254 139.906 19.3981 139.673C19.5708 139.437 19.6571 139.11 19.6571 138.69C19.6571 138.267 19.5708 137.938 19.3981 137.703C19.2254 137.467 18.9641 137.349 18.6141 137.349C18.4368 137.349 18.2816 137.379 18.1486 137.44C18.0179 137.501 17.9083 137.588 17.8196 137.703C17.7333 137.817 17.6679 137.958 17.6236 138.126C17.5816 138.292 17.5606 138.48 17.5606 138.69C17.5606 139.11 17.6469 139.437 17.8196 139.673C17.9946 139.906 18.2594 140.023 18.6141 140.023Z" fill="white"/>
<path d="M25.5948 136.229C25.5738 136.264 25.5505 136.291 25.5248 136.31C25.5015 136.326 25.4723 136.334 25.4373 136.334C25.3976 136.334 25.351 136.314 25.2973 136.275C25.2436 136.235 25.176 136.192 25.0943 136.145C25.015 136.096 24.9181 136.052 24.8038 136.012C24.6918 135.972 24.5553 135.953 24.3943 135.953C24.2426 135.953 24.1085 135.974 23.9918 136.016C23.8775 136.055 23.7806 136.11 23.7013 136.18C23.6243 136.25 23.566 136.333 23.5263 136.429C23.4866 136.522 23.4668 136.623 23.4668 136.733C23.4668 136.873 23.5006 136.99 23.5683 137.083C23.6383 137.174 23.7293 137.252 23.8413 137.318C23.9556 137.383 24.084 137.44 24.2263 137.489C24.371 137.536 24.518 137.585 24.6673 137.636C24.819 137.687 24.966 137.746 25.1083 137.811C25.253 137.874 25.3813 137.955 25.4933 138.053C25.6076 138.151 25.6986 138.271 25.7663 138.413C25.8363 138.555 25.8713 138.73 25.8713 138.938C25.8713 139.157 25.834 139.364 25.7593 139.558C25.6846 139.749 25.575 139.916 25.4303 140.058C25.288 140.2 25.1118 140.312 24.9018 140.394C24.6941 140.476 24.4573 140.517 24.1913 140.517C23.8646 140.517 23.5683 140.458 23.3023 140.342C23.0363 140.223 22.8088 140.063 22.6198 139.862L22.8158 139.54C22.8345 139.514 22.8566 139.493 22.8823 139.477C22.9103 139.458 22.9406 139.449 22.9733 139.449C23.0036 139.449 23.0375 139.462 23.0748 139.488C23.1145 139.511 23.1588 139.541 23.2078 139.579C23.2568 139.616 23.3128 139.657 23.3758 139.701C23.4388 139.745 23.51 139.786 23.5893 139.824C23.671 139.861 23.7631 139.892 23.8658 139.918C23.9685 139.941 24.084 139.953 24.2123 139.953C24.3733 139.953 24.5168 139.931 24.6428 139.887C24.7688 139.842 24.875 139.78 24.9613 139.701C25.05 139.619 25.1176 139.523 25.1643 139.411C25.211 139.299 25.2343 139.174 25.2343 139.036C25.2343 138.884 25.1993 138.761 25.1293 138.665C25.0616 138.567 24.9718 138.485 24.8598 138.42C24.7478 138.355 24.6195 138.3 24.4748 138.256C24.3301 138.209 24.1831 138.162 24.0338 138.116C23.8845 138.067 23.7375 138.011 23.5928 137.948C23.4481 137.885 23.3198 137.803 23.2078 137.703C23.0958 137.602 23.0048 137.477 22.9348 137.328C22.8671 137.176 22.8333 136.99 22.8333 136.768C22.8333 136.591 22.8671 136.419 22.9348 136.254C23.0048 136.088 23.1051 135.941 23.2358 135.813C23.3688 135.684 23.531 135.582 23.7223 135.505C23.916 135.428 24.1376 135.389 24.3873 135.389C24.6673 135.389 24.9216 135.433 25.1503 135.522C25.3813 135.611 25.5843 135.739 25.7593 135.907L25.5948 136.229Z" fill="white"/>
<path d="M30.2216 136.016H28.5976V140.461H27.9221V136.016H26.2946V135.445H30.2216V136.016Z" fill="white"/>
<path d="M4.4805 5.82632C4.67417 5.82632 4.8445 5.80065 4.9915 5.74932C5.14083 5.69798 5.26567 5.62682 5.366 5.53582C5.46867 5.44248 5.54567 5.33165 5.597 5.20332C5.64833 5.07498 5.674 4.93382 5.674 4.77982C5.674 4.46015 5.57483 4.21048 5.3765 4.03082C5.1805 3.85115 4.88183 3.76132 4.4805 3.76132H3.6755V5.82632H4.4805ZM4.4805 3.22582C4.79783 3.22582 5.07317 3.26315 5.3065 3.33782C5.54217 3.41015 5.737 3.51398 5.891 3.64932C6.045 3.78465 6.15933 3.94798 6.234 4.13932C6.311 4.33065 6.3495 4.54415 6.3495 4.77982C6.3495 5.01315 6.30867 5.22665 6.227 5.42032C6.14533 5.61398 6.02517 5.78082 5.8665 5.92082C5.71017 6.06082 5.51533 6.17048 5.282 6.24982C5.051 6.32682 4.78383 6.36532 4.4805 6.36532H3.6755V8.24132H3V3.22582H4.4805Z" fill="white"/>
<path d="M8.36703 4.63982C8.62603 4.63982 8.85936 4.68298 9.06703 4.76932C9.2747 4.85565 9.45203 4.97815 9.59903 5.13682C9.74603 5.29548 9.85803 5.48798 9.93503 5.71432C10.0144 5.93832 10.054 6.18915 10.054 6.46682C10.054 6.74682 10.0144 6.99882 9.93503 7.22282C9.85803 7.44682 9.74603 7.63815 9.59903 7.79682C9.45203 7.95548 9.2747 8.07798 9.06703 8.16432C8.85936 8.24832 8.62603 8.29032 8.36703 8.29032C8.1057 8.29032 7.87003 8.24832 7.66003 8.16432C7.45236 8.07798 7.27503 7.95548 7.12803 7.79682C6.98103 7.63815 6.86786 7.44682 6.78853 7.22282C6.71153 6.99882 6.67303 6.74682 6.67303 6.46682C6.67303 6.18915 6.71153 5.93832 6.78853 5.71432C6.86786 5.48798 6.98103 5.29548 7.12803 5.13682C7.27503 4.97815 7.45236 4.85565 7.66003 4.76932C7.87003 4.68298 8.1057 4.63982 8.36703 4.63982ZM8.36703 7.80382C8.71703 7.80382 8.97836 7.68715 9.15103 7.45382C9.3237 7.21815 9.41003 6.89032 9.41003 6.47032C9.41003 6.04798 9.3237 5.71898 9.15103 5.48332C8.97836 5.24765 8.71703 5.12982 8.36703 5.12982C8.1897 5.12982 8.03453 5.16015 7.90153 5.22082C7.77086 5.28148 7.6612 5.36898 7.57253 5.48332C7.4862 5.59765 7.42086 5.73882 7.37653 5.90682C7.33453 6.07248 7.31353 6.26032 7.31353 6.47032C7.31353 6.89032 7.39986 7.21815 7.57253 7.45382C7.74753 7.68715 8.01236 7.80382 8.36703 7.80382Z" fill="white"/>
<path d="M11.4882 3.08582V8.24132H10.8652V3.08582H11.4882Z" fill="white"/>
<path d="M15.5575 4.69582L13.58 9.28782C13.559 9.33448 13.5322 9.37182 13.4995 9.39982C13.4692 9.42782 13.4213 9.44182 13.356 9.44182H12.894L13.5415 8.03482L12.0785 4.69582H12.6175C12.6712 4.69582 12.7132 4.70982 12.7435 4.73782C12.7762 4.76348 12.7983 4.79265 12.81 4.82532L13.7585 7.05832C13.7958 7.15632 13.8273 7.25898 13.853 7.36632C13.8857 7.25665 13.9207 7.15282 13.958 7.05482L14.8785 4.82532C14.8925 4.78798 14.9158 4.75765 14.9485 4.73432C14.9835 4.70865 15.022 4.69582 15.064 4.69582H15.5575Z" fill="white"/>
<path d="M8.2185 69.326V74.3415H7.6235V70.656C7.6235 70.607 7.62467 70.5546 7.627 70.4985C7.63167 70.4425 7.63633 70.3854 7.641 70.327L5.919 73.463C5.86533 73.568 5.78367 73.6206 5.674 73.6206H5.576C5.46633 73.6206 5.38467 73.568 5.331 73.463L3.574 70.3131C3.588 70.4367 3.595 70.551 3.595 70.656V74.3415H3V69.326H3.5005C3.56117 69.326 3.60783 69.3319 3.6405 69.3435C3.67317 69.3552 3.70467 69.3879 3.735 69.4415L5.4675 72.5286C5.4955 72.5846 5.52233 72.6429 5.548 72.7036C5.576 72.7642 5.60167 72.826 5.625 72.8891C5.64833 72.826 5.67283 72.7642 5.6985 72.7036C5.72417 72.6406 5.75217 72.581 5.7825 72.525L7.4835 69.4415C7.5115 69.3879 7.54183 69.3552 7.5745 69.3435C7.6095 69.3319 7.65733 69.326 7.718 69.326H8.2185Z" fill="white"/>
<path d="M10.7391 70.74C10.9981 70.74 11.2314 70.7832 11.4391 70.8695C11.6468 70.9559 11.8241 71.0784 11.9711 71.2371C12.1181 71.3957 12.2301 71.5882 12.3071 71.8145C12.3864 72.0385 12.4261 72.2894 12.4261 72.567C12.4261 72.847 12.3864 73.099 12.3071 73.3231C12.2301 73.5471 12.1181 73.7384 11.9711 73.897C11.8241 74.0557 11.6468 74.1782 11.4391 74.2646C11.2314 74.3486 10.9981 74.3906 10.7391 74.3906C10.4778 74.3906 10.2421 74.3486 10.0321 74.2646C9.82443 74.1782 9.6471 74.0557 9.5001 73.897C9.3531 73.7384 9.23993 73.5471 9.1606 73.3231C9.0836 73.099 9.0451 72.847 9.0451 72.567C9.0451 72.2894 9.0836 72.0385 9.1606 71.8145C9.23993 71.5882 9.3531 71.3957 9.5001 71.2371C9.6471 71.0784 9.82443 70.9559 10.0321 70.8695C10.2421 70.7832 10.4778 70.74 10.7391 70.74ZM10.7391 73.904C11.0891 73.904 11.3504 73.7874 11.5231 73.554C11.6958 73.3184 11.7821 72.9906 11.7821 72.5705C11.7821 72.1482 11.6958 71.8192 11.5231 71.5835C11.3504 71.3479 11.0891 71.23 10.7391 71.23C10.5618 71.23 10.4066 71.2604 10.2736 71.321C10.1429 71.3817 10.0333 71.4692 9.9446 71.5835C9.85827 71.6979 9.79293 71.8391 9.7486 72.0071C9.7066 72.1727 9.6856 72.3606 9.6856 72.5705C9.6856 72.9906 9.77193 73.3184 9.9446 73.554C10.1196 73.7874 10.3844 73.904 10.7391 73.904Z" fill="white"/>
<path d="M13.8043 71.3105C13.8813 71.2242 13.9629 71.146 14.0493 71.0761C14.1356 71.006 14.2266 70.9465 14.3223 70.8975C14.4203 70.8462 14.5229 70.8077 14.6303 70.782C14.7399 70.754 14.8578 70.74 14.9838 70.74C15.1774 70.74 15.3478 70.7727 15.4948 70.838C15.6441 70.901 15.7678 70.9921 15.8658 71.1111C15.9661 71.2277 16.0419 71.3689 16.0933 71.5345C16.1446 71.7002 16.1703 71.8834 16.1703 72.084V74.3415H15.5438V72.084C15.5438 71.8157 15.4819 71.608 15.3583 71.4611C15.2369 71.3117 15.0514 71.2371 14.8018 71.2371C14.6174 71.2371 14.4448 71.2814 14.2838 71.37C14.1251 71.4587 13.9781 71.5789 13.8428 71.7305V74.3415H13.2163V70.7961H13.5908C13.6794 70.7961 13.7343 70.8392 13.7553 70.9255L13.8043 71.3105Z" fill="white"/>
<path d="M18.6141 70.74C18.8731 70.74 19.1064 70.7832 19.3141 70.8695C19.5218 70.9559 19.6991 71.0784 19.8461 71.2371C19.9931 71.3957 20.1051 71.5882 20.1821 71.8145C20.2614 72.0385 20.3011 72.2894 20.3011 72.567C20.3011 72.847 20.2614 73.099 20.1821 73.3231C20.1051 73.5471 19.9931 73.7384 19.8461 73.897C19.6991 74.0557 19.5218 74.1782 19.3141 74.2646C19.1064 74.3486 18.8731 74.3906 18.6141 74.3906C18.3528 74.3906 18.1171 74.3486 17.9071 74.2646C17.6994 74.1782 17.5221 74.0557 17.3751 73.897C17.2281 73.7384 17.1149 73.5471 17.0356 73.3231C16.9586 73.099 16.9201 72.847 16.9201 72.567C16.9201 72.2894 16.9586 72.0385 17.0356 71.8145C17.1149 71.5882 17.2281 71.3957 17.3751 71.2371C17.5221 71.0784 17.6994 70.9559 17.9071 70.8695C18.1171 70.7832 18.3528 70.74 18.6141 70.74ZM18.6141 73.904C18.9641 73.904 19.2254 73.7874 19.3981 73.554C19.5708 73.3184 19.6571 72.9906 19.6571 72.5705C19.6571 72.1482 19.5708 71.8192 19.3981 71.5835C19.2254 71.3479 18.9641 71.23 18.6141 71.23C18.4368 71.23 18.2816 71.2604 18.1486 71.321C18.0179 71.3817 17.9083 71.4692 17.8196 71.5835C17.7333 71.6979 17.6679 71.8391 17.6236 72.0071C17.5816 72.1727 17.5606 72.3606 17.5606 72.5705C17.5606 72.9906 17.6469 73.3184 17.8196 73.554C17.9946 73.7874 18.2594 73.904 18.6141 73.904Z" fill="white"/>
</svg>
