<svg width="134" height="290" viewBox="0 0 134 290" fill="none" xmlns="http://www.w3.org/2000/svg">
<rect x="101" y="264" width="32" height="11" fill="white" fill-opacity="0.2"/>
<rect x="67" y="195" width="32" height="11" fill="white" fill-opacity="0.2"/>
<rect x="37" y="126" width="28" height="11" fill="white" fill-opacity="0.2"/>
<rect x="1" y="57" width="34" height="11" fill="white" fill-opacity="0.2"/>
<path d="M10.1572 59.622V65.382H9.68116C9.60916 65.382 9.54783 65.37 9.49716 65.346C9.44649 65.3193 9.39849 65.2767 9.35316 65.218L6.18916 61.154C6.19716 61.2313 6.20249 61.3087 6.20516 61.386C6.21049 61.4607 6.21316 61.53 6.21316 61.594V65.382H5.38916V59.622H5.87716C5.91716 59.622 5.95049 59.6247 5.97716 59.63C6.00649 59.6327 6.03316 59.6393 6.05716 59.65C6.08116 59.6607 6.10383 59.6767 6.12516 59.698C6.14649 59.7193 6.16916 59.746 6.19316 59.778L9.36116 63.846C9.35316 63.7633 9.34649 63.682 9.34116 63.602C9.33849 63.522 9.33716 63.4473 9.33716 63.378V59.622H10.1572Z" fill="white"/>
<path d="M16.9418 62.502C16.9418 62.9287 16.8725 63.322 16.7338 63.682C16.5951 64.042 16.3991 64.3527 16.1458 64.614C15.8951 64.8727 15.5925 65.0753 15.2378 65.222C14.8858 65.3687 14.4938 65.442 14.0618 65.442C13.6325 65.442 13.2405 65.3687 12.8858 65.222C12.5338 65.0753 12.2311 64.8727 11.9778 64.614C11.7245 64.3527 11.5285 64.042 11.3898 63.682C11.2511 63.322 11.1818 62.9287 11.1818 62.502C11.1818 62.0753 11.2511 61.682 11.3898 61.322C11.5285 60.962 11.7245 60.6513 11.9778 60.39C12.2311 60.1287 12.5338 59.9247 12.8858 59.778C13.2405 59.6313 13.6325 59.558 14.0618 59.558C14.4938 59.558 14.8858 59.6313 15.2378 59.778C15.5925 59.9247 15.8951 60.1287 16.1458 60.39C16.3991 60.6513 16.5951 60.962 16.7338 61.322C16.8725 61.682 16.9418 62.0753 16.9418 62.502ZM15.9858 62.502C15.9858 62.1713 15.9405 61.874 15.8498 61.61C15.7618 61.346 15.6338 61.122 15.4658 60.938C15.3005 60.754 15.0991 60.6127 14.8618 60.514C14.6245 60.4153 14.3578 60.366 14.0618 60.366C13.7685 60.366 13.5031 60.4153 13.2658 60.514C13.0285 60.6127 12.8258 60.754 12.6578 60.938C12.4898 61.122 12.3605 61.346 12.2698 61.61C12.1791 61.874 12.1338 62.1713 12.1338 62.502C12.1338 62.8353 12.1791 63.134 12.2698 63.398C12.3605 63.662 12.4898 63.886 12.6578 64.07C12.8258 64.2513 13.0285 64.3913 13.2658 64.49C13.5031 64.586 13.7685 64.634 14.0618 64.634C14.3578 64.634 14.6245 64.586 14.8618 64.49C15.0991 64.3913 15.3005 64.2513 15.4658 64.07C15.6338 63.886 15.7618 63.662 15.8498 63.398C15.9405 63.134 15.9858 62.8353 15.9858 62.502Z" fill="white"/>
<path d="M20.8995 60.378V62.222H23.1515V62.978H20.8995V65.382H19.9595V59.622H23.5515V60.378H20.8995Z" fill="white"/>
<path d="M30.6109 59.622V65.382H29.7869V61.434C29.7869 61.37 29.7882 61.3007 29.7909 61.226C29.7962 61.1487 29.8029 61.0713 29.8109 60.994L27.9589 64.414C27.8869 64.5553 27.7762 64.626 27.6269 64.626H27.4949C27.3429 64.626 27.2322 64.5553 27.1629 64.414L25.2829 60.986C25.2909 61.0633 25.2962 61.1407 25.2989 61.218C25.3042 61.2953 25.3069 61.3673 25.3069 61.434V65.382H24.4829V59.622H25.1829C25.2656 59.622 25.3296 59.63 25.3749 59.646C25.4202 59.6593 25.4616 59.7033 25.4989 59.778L27.3469 63.126C27.3869 63.2033 27.4242 63.2833 27.4589 63.366C27.4962 63.446 27.5296 63.5287 27.5589 63.614C27.5909 63.5287 27.6242 63.4447 27.6589 63.362C27.6962 63.2767 27.7349 63.1953 27.7749 63.118L29.5949 59.778C29.6322 59.7033 29.6736 59.6593 29.7189 59.646C29.7642 59.63 29.8282 59.622 29.9109 59.622H30.6109Z" fill="white"/>
<path d="M52.8125 131.5L50 132.75V130.25L52.8125 131.5Z" fill="white"/>
<path d="M48.0484 133.574C48.1417 133.574 48.2151 133.602 48.2684 133.658C48.3217 133.711 48.3484 133.781 48.3484 133.866V134.386H44.4524V134.094C44.4524 134.035 44.4644 133.974 44.4884 133.91C44.5124 133.846 44.5511 133.787 44.6044 133.734L46.3964 131.938C46.5484 131.786 46.6831 131.641 46.8004 131.502C46.9204 131.363 47.0217 131.225 47.1044 131.086C47.1897 130.947 47.2537 130.807 47.2964 130.666C47.3417 130.522 47.3644 130.371 47.3644 130.214C47.3644 130.062 47.3404 129.929 47.2924 129.814C47.2471 129.697 47.1831 129.601 47.1004 129.526C47.0204 129.449 46.9231 129.391 46.8084 129.354C46.6964 129.314 46.5724 129.294 46.4364 129.294C46.3057 129.294 46.1844 129.313 46.0724 129.35C45.9631 129.387 45.8644 129.439 45.7764 129.506C45.6911 129.573 45.6191 129.653 45.5604 129.746C45.5044 129.837 45.4631 129.937 45.4364 130.046C45.3964 130.155 45.3444 130.229 45.2804 130.266C45.2191 130.303 45.1284 130.311 45.0084 130.29L44.5564 130.21C44.5964 129.938 44.6711 129.699 44.7804 129.494C44.8924 129.289 45.0324 129.118 45.2004 128.982C45.3684 128.843 45.5604 128.739 45.7764 128.67C45.9951 128.598 46.2311 128.562 46.4844 128.562C46.7404 128.562 46.9751 128.601 47.1884 128.678C47.4044 128.753 47.5897 128.861 47.7444 129.002C47.9017 129.141 48.0244 129.31 48.1124 129.51C48.2004 129.71 48.2444 129.935 48.2444 130.186C48.2444 130.399 48.2124 130.597 48.1484 130.778C48.0871 130.959 48.0031 131.133 47.8964 131.298C47.7897 131.463 47.6644 131.625 47.5204 131.782C47.3791 131.937 47.2297 132.094 47.0724 132.254L45.6804 133.678C45.7951 133.646 45.9097 133.621 46.0244 133.602C46.1417 133.583 46.2524 133.574 46.3564 133.574H48.0484Z" fill="white"/>
<path d="M57.6101 133.734V134.386H54.4701V133.734H55.6701V130.126C55.6701 129.998 55.6741 129.867 55.6821 129.734L54.7581 130.514C54.7181 130.546 54.6768 130.567 54.6341 130.578C54.5941 130.586 54.5554 130.586 54.5181 130.578C54.4834 130.57 54.4514 130.558 54.4221 130.542C54.3954 130.523 54.3741 130.503 54.3581 130.482L54.0901 130.106L55.8261 128.614H56.5261V133.734H57.6101Z" fill="white"/>
<path d="M79.8329 200.5L77.0204 201.75V199.25L79.8329 200.5Z" fill="white"/>
<path d="M89.8329 200.5L87.0204 201.75V199.25L89.8329 200.5Z" fill="white"/>
<path d="M85.1684 202.6C85.2617 202.6 85.3351 202.628 85.3884 202.684C85.4417 202.737 85.4684 202.807 85.4684 202.892V203.412H81.5724V203.12C81.5724 203.061 81.5844 203 81.6084 202.936C81.6324 202.872 81.6711 202.813 81.7244 202.76L83.5164 200.964C83.6684 200.812 83.8031 200.667 83.9204 200.528C84.0404 200.389 84.1417 200.251 84.2244 200.112C84.3097 199.973 84.3737 199.833 84.4164 199.692C84.4617 199.548 84.4844 199.397 84.4844 199.24C84.4844 199.088 84.4604 198.955 84.4124 198.84C84.3671 198.723 84.3031 198.627 84.2204 198.552C84.1404 198.475 84.0431 198.417 83.9284 198.38C83.8164 198.34 83.6924 198.32 83.5564 198.32C83.4257 198.32 83.3044 198.339 83.1924 198.376C83.0831 198.413 82.9844 198.465 82.8964 198.532C82.8111 198.599 82.7391 198.679 82.6804 198.772C82.6244 198.863 82.5831 198.963 82.5564 199.072C82.5164 199.181 82.4644 199.255 82.4004 199.292C82.3391 199.329 82.2484 199.337 82.1284 199.316L81.6764 199.236C81.7164 198.964 81.7911 198.725 81.9004 198.52C82.0124 198.315 82.1524 198.144 82.3204 198.008C82.4884 197.869 82.6804 197.765 82.8964 197.696C83.1151 197.624 83.3511 197.588 83.6044 197.588C83.8604 197.588 84.0951 197.627 84.3084 197.704C84.5244 197.779 84.7097 197.887 84.8644 198.028C85.0217 198.167 85.1444 198.336 85.2324 198.536C85.3204 198.736 85.3644 198.961 85.3644 199.212C85.3644 199.425 85.3324 199.623 85.2684 199.804C85.2071 199.985 85.1231 200.159 85.0164 200.324C84.9097 200.489 84.7844 200.651 84.6404 200.808C84.4991 200.963 84.3497 201.12 84.1924 201.28L82.8004 202.704C82.9151 202.672 83.0297 202.647 83.1444 202.628C83.2617 202.609 83.3724 202.6 83.4764 202.6H85.1684Z" fill="white"/>
<path d="M94.4175 202.792V203.444H91.2775V202.792H92.4775V199.184C92.4775 199.056 92.4815 198.925 92.4895 198.792L91.5655 199.572C91.5255 199.604 91.4842 199.625 91.4415 199.636C91.4015 199.644 91.3629 199.644 91.3255 199.636C91.2909 199.628 91.2589 199.616 91.2295 199.6C91.2029 199.581 91.1815 199.561 91.1655 199.54L90.8975 199.164L92.6335 197.672H93.3335V202.792H94.4175Z" fill="white"/>
<path d="M71.7504 199.172C71.7904 198.9 71.8651 198.661 71.9744 198.456C72.0864 198.251 72.2264 198.08 72.3944 197.944C72.5624 197.805 72.7544 197.701 72.9704 197.632C73.1891 197.56 73.4251 197.524 73.6784 197.524C73.9344 197.524 74.1664 197.561 74.3744 197.636C74.5851 197.708 74.7651 197.809 74.9144 197.94C75.0664 198.071 75.1824 198.227 75.2624 198.408C75.3451 198.589 75.3864 198.788 75.3864 199.004C75.3864 199.188 75.3637 199.351 75.3184 199.492C75.2757 199.631 75.2131 199.753 75.1304 199.86C75.0504 199.967 74.9517 200.056 74.8344 200.128C74.7171 200.2 74.5851 200.26 74.4384 200.308C74.7957 200.412 75.0637 200.579 75.2424 200.808C75.4211 201.035 75.5104 201.32 75.5104 201.664C75.5104 201.941 75.4584 202.188 75.3544 202.404C75.2504 202.62 75.1091 202.803 74.9304 202.952C74.7544 203.101 74.5477 203.216 74.3104 203.296C74.0757 203.373 73.8264 203.412 73.5624 203.412C73.2664 203.412 73.0104 203.377 72.7944 203.308C72.5784 203.236 72.3917 203.135 72.2344 203.004C72.0797 202.871 71.9504 202.711 71.8464 202.524C71.7424 202.337 71.6544 202.128 71.5824 201.896L71.9544 201.74C72.0531 201.697 72.1464 201.685 72.2344 201.704C72.3251 201.723 72.3904 201.772 72.4304 201.852C72.4731 201.937 72.5211 202.029 72.5744 202.128C72.6277 202.224 72.6957 202.313 72.7784 202.396C72.8637 202.476 72.9677 202.544 73.0904 202.6C73.2157 202.653 73.3691 202.68 73.5504 202.68C73.7344 202.68 73.8944 202.651 74.0304 202.592C74.1691 202.531 74.2837 202.453 74.3744 202.36C74.4677 202.264 74.5371 202.157 74.5824 202.04C74.6277 201.923 74.6504 201.807 74.6504 201.692C74.6504 201.548 74.6331 201.416 74.5984 201.296C74.5637 201.173 74.4957 201.069 74.3944 200.984C74.2957 200.899 74.1544 200.832 73.9704 200.784C73.7891 200.733 73.5504 200.708 73.2544 200.708V200.088C73.4971 200.085 73.7011 200.061 73.8664 200.016C74.0344 199.968 74.1677 199.904 74.2664 199.824C74.3677 199.741 74.4397 199.643 74.4824 199.528C74.5277 199.413 74.5504 199.288 74.5504 199.152C74.5504 199.005 74.5277 198.876 74.4824 198.764C74.4371 198.652 74.3731 198.559 74.2904 198.484C74.2104 198.407 74.1144 198.349 74.0024 198.312C73.8904 198.275 73.7664 198.256 73.6304 198.256C73.4997 198.256 73.3784 198.275 73.2664 198.312C73.1571 198.349 73.0584 198.401 72.9704 198.468C72.8851 198.535 72.8131 198.615 72.7544 198.708C72.6957 198.799 72.6531 198.899 72.6264 199.008C72.5891 199.117 72.5384 199.191 72.4744 199.228C72.4131 199.265 72.3224 199.273 72.2024 199.252L71.7504 199.172Z" fill="white"/>
<path d="M113.566 269.442L110.754 270.692V268.192L113.566 269.442Z" fill="white"/>
<path d="M123.566 269.442L120.754 270.692V268.192L123.566 269.442Z" fill="white"/>
<path d="M108.928 271.574C109.021 271.574 109.094 271.602 109.148 271.658C109.201 271.711 109.228 271.781 109.228 271.866V272.386H105.332V272.094C105.332 272.035 105.344 271.974 105.368 271.91C105.392 271.846 105.43 271.787 105.484 271.734L107.276 269.938C107.428 269.786 107.562 269.641 107.68 269.502C107.8 269.363 107.901 269.225 107.984 269.086C108.069 268.947 108.133 268.807 108.176 268.666C108.221 268.522 108.244 268.371 108.244 268.214C108.244 268.062 108.22 267.929 108.172 267.814C108.126 267.697 108.062 267.601 107.98 267.526C107.9 267.449 107.802 267.391 107.688 267.354C107.576 267.314 107.452 267.294 107.316 267.294C107.185 267.294 107.064 267.313 106.952 267.35C106.842 267.387 106.744 267.439 106.656 267.506C106.57 267.573 106.498 267.653 106.44 267.746C106.384 267.837 106.342 267.937 106.316 268.046C106.276 268.155 106.224 268.229 106.16 268.266C106.098 268.303 106.008 268.311 105.888 268.29L105.436 268.21C105.476 267.938 105.55 267.699 105.66 267.494C105.772 267.289 105.912 267.118 106.08 266.982C106.248 266.843 106.44 266.739 106.656 266.67C106.874 266.598 107.11 266.562 107.364 266.562C107.62 266.562 107.854 266.601 108.068 266.678C108.284 266.753 108.469 266.861 108.624 267.002C108.781 267.141 108.904 267.31 108.992 267.51C109.08 267.71 109.124 267.935 109.124 268.186C109.124 268.399 109.092 268.597 109.028 268.778C108.966 268.959 108.882 269.133 108.776 269.298C108.669 269.463 108.544 269.625 108.4 269.782C108.258 269.937 108.109 270.094 107.952 270.254L106.56 271.678C106.674 271.646 106.789 271.621 106.904 271.602C107.021 271.583 107.132 271.574 107.236 271.574H108.928Z" fill="white"/>
<path d="M119.014 271.676V272.328H115.874V271.676H117.074V268.068C117.074 267.94 117.078 267.809 117.086 267.676L116.162 268.456C116.122 268.488 116.08 268.509 116.038 268.52C115.998 268.528 115.959 268.528 115.922 268.52C115.887 268.512 115.855 268.5 115.826 268.484C115.799 268.465 115.778 268.445 115.762 268.424L115.494 268.048L117.23 266.556H117.93V271.676H119.014Z" fill="white"/>
<path d="M124.908 268.088C124.948 267.816 125.023 267.577 125.132 267.372C125.244 267.167 125.384 266.996 125.552 266.86C125.72 266.721 125.912 266.617 126.128 266.548C126.347 266.476 126.583 266.44 126.836 266.44C127.092 266.44 127.324 266.477 127.532 266.552C127.743 266.624 127.923 266.725 128.072 266.856C128.224 266.987 128.34 267.143 128.42 267.324C128.503 267.505 128.544 267.704 128.544 267.92C128.544 268.104 128.521 268.267 128.476 268.408C128.433 268.547 128.371 268.669 128.288 268.776C128.208 268.883 128.109 268.972 127.992 269.044C127.875 269.116 127.743 269.176 127.596 269.224C127.953 269.328 128.221 269.495 128.4 269.724C128.579 269.951 128.668 270.236 128.668 270.58C128.668 270.857 128.616 271.104 128.512 271.32C128.408 271.536 128.267 271.719 128.088 271.868C127.912 272.017 127.705 272.132 127.468 272.212C127.233 272.289 126.984 272.328 126.72 272.328C126.424 272.328 126.168 272.293 125.952 272.224C125.736 272.152 125.549 272.051 125.392 271.92C125.237 271.787 125.108 271.627 125.004 271.44C124.9 271.253 124.812 271.044 124.74 270.812L125.112 270.656C125.211 270.613 125.304 270.601 125.392 270.62C125.483 270.639 125.548 270.688 125.588 270.768C125.631 270.853 125.679 270.945 125.732 271.044C125.785 271.14 125.853 271.229 125.936 271.312C126.021 271.392 126.125 271.46 126.248 271.516C126.373 271.569 126.527 271.596 126.708 271.596C126.892 271.596 127.052 271.567 127.188 271.508C127.327 271.447 127.441 271.369 127.532 271.276C127.625 271.18 127.695 271.073 127.74 270.956C127.785 270.839 127.808 270.723 127.808 270.608C127.808 270.464 127.791 270.332 127.756 270.212C127.721 270.089 127.653 269.985 127.552 269.9C127.453 269.815 127.312 269.748 127.128 269.7C126.947 269.649 126.708 269.624 126.412 269.624V269.004C126.655 269.001 126.859 268.977 127.024 268.932C127.192 268.884 127.325 268.82 127.424 268.74C127.525 268.657 127.597 268.559 127.64 268.444C127.685 268.329 127.708 268.204 127.708 268.068C127.708 267.921 127.685 267.792 127.64 267.68C127.595 267.568 127.531 267.475 127.448 267.4C127.368 267.323 127.272 267.265 127.16 267.228C127.048 267.191 126.924 267.172 126.788 267.172C126.657 267.172 126.536 267.191 126.424 267.228C126.315 267.265 126.216 267.317 126.128 267.384C126.043 267.451 125.971 267.531 125.912 267.624C125.853 267.715 125.811 267.815 125.784 267.924C125.747 268.033 125.696 268.107 125.632 268.144C125.571 268.181 125.48 268.189 125.36 268.168L124.908 268.088Z" fill="white"/>
</svg>
