<svg width="56" height="48" viewBox="0 0 56 48" fill="none" xmlns="http://www.w3.org/2000/svg">
<rect x="8" y="35.5" width="2" height="2.5" fill="black"/>
<rect x="8.5" y="35" width="1" height="3" fill="#EEEEEE"/>
<rect width="2" height="2.5" transform="matrix(1 0 0 -1 8 33.5)" fill="black"/>
<rect width="1" height="3" transform="matrix(1 0 0 -1 8.5 34)" fill="#EEEEEE"/>
<rect x="8" y="11.5" width="2" height="2.5" fill="black"/>
<rect x="8.5" y="11" width="1" height="3" fill="#EEEEEE"/>
<rect width="2" height="2.5" transform="matrix(1 0 0 -1 8 9.5)" fill="black"/>
<rect width="1" height="3" transform="matrix(1 0 0 -1 8.5 10)" fill="#EEEEEE"/>
<rect x="32" y="35.5" width="2" height="2.5" fill="black"/>
<rect x="32.5" y="35" width="1" height="3" fill="#EEEEEE"/>
<rect width="2" height="2.5" transform="matrix(1 0 0 -1 32 33.5)" fill="black"/>
<rect width="1" height="3" transform="matrix(1 0 0 -1 32.5 34)" fill="#EEEEEE"/>
<rect x="32" y="11.5" width="2" height="2.5" fill="black"/>
<rect x="32.5" y="11" width="1" height="3" fill="#EEEEEE"/>
<rect width="2" height="2.5" transform="matrix(1 0 0 -1 32 9.5)" fill="black"/>
<rect width="1" height="3" transform="matrix(1 0 0 -1 32.5 10)" fill="#EEEEEE"/>
</svg>
