<svg width="50" height="28" viewBox="0 0 50 28" fill="none" xmlns="http://www.w3.org/2000/svg">
<rect x="0.25" y="0.25" width="49.5" height="12.5" stroke="white" stroke-opacity="0.25" stroke-width="0.5"/>
<rect x="0.25" y="14.25" width="49.5" height="12.5" fill="black" fill-opacity="0.1" stroke="#FBC401" stroke-width="0.5"/>
<path d="M12.6685 8.87601C12.9059 8.87601 13.1179 8.83601 13.3045 8.75601C13.4912 8.67601 13.6485 8.56401 13.7765 8.42001C13.9072 8.27601 14.0059 8.10401 14.0725 7.90401C14.1419 7.70401 14.1765 7.48401 14.1765 7.24401V3.76001H14.9485V7.24401C14.9485 7.57467 14.8952 7.88134 14.7885 8.16401C14.6845 8.44667 14.5339 8.69201 14.3365 8.90001C14.1419 9.10534 13.9032 9.26667 13.6205 9.38401C13.3379 9.50134 13.0205 9.56001 12.6685 9.56001C12.3165 9.56001 11.9992 9.50134 11.7165 9.38401C11.4339 9.26667 11.1939 9.10534 10.9965 8.90001C10.7992 8.69201 10.6472 8.44667 10.5405 8.16401C10.4365 7.88134 10.3845 7.57467 10.3845 7.24401V3.76001H11.1565V7.24001C11.1565 7.48001 11.1899 7.70001 11.2565 7.90001C11.3259 8.10001 11.4245 8.27201 11.5525 8.41601C11.6832 8.56001 11.8419 8.67334 12.0285 8.75601C12.2179 8.83601 12.4312 8.87601 12.6685 8.87601Z" fill="#EEEEEE" fill-opacity="0.5"/>
<path d="M16.7261 6.02801C16.8141 5.92934 16.9075 5.84001 17.0061 5.76001C17.1048 5.68001 17.2088 5.61201 17.3181 5.55601C17.4301 5.49734 17.5475 5.45334 17.6701 5.42401C17.7955 5.39201 17.9301 5.37601 18.0741 5.37601C18.2955 5.37601 18.4901 5.41334 18.6581 5.48801C18.8288 5.56001 18.9701 5.66401 19.0821 5.80001C19.1968 5.93334 19.2835 6.09467 19.3421 6.28401C19.4008 6.47334 19.4301 6.68267 19.4301 6.91201V9.49201H18.7141V6.91201C18.7141 6.60534 18.6435 6.36801 18.5021 6.20001C18.3635 6.02934 18.1515 5.94401 17.8661 5.94401C17.6555 5.94401 17.4581 5.99467 17.2741 6.09601C17.0928 6.19734 16.9248 6.33467 16.7701 6.50801V9.49201H16.0541V5.44001H16.4821C16.5835 5.44001 16.6461 5.48934 16.6701 5.58801L16.7261 6.02801Z" fill="#EEEEEE" fill-opacity="0.5"/>
<path d="M21.2671 5.44001V9.49201H20.5551V5.44001H21.2671ZM21.4191 4.16801C21.4191 4.23734 21.4044 4.30267 21.3751 4.36401C21.3484 4.42267 21.3111 4.47601 21.2631 4.52401C21.2178 4.56934 21.1631 4.60534 21.0991 4.63201C21.0378 4.65867 20.9724 4.67201 20.9031 4.67201C20.8338 4.67201 20.7684 4.65867 20.7071 4.63201C20.6484 4.60534 20.5964 4.56934 20.5511 4.52401C20.5058 4.47601 20.4698 4.42267 20.4431 4.36401C20.4164 4.30267 20.4031 4.23734 20.4031 4.16801C20.4031 4.09867 20.4164 4.03334 20.4431 3.97201C20.4698 3.90801 20.5058 3.85334 20.5511 3.80801C20.5964 3.76001 20.6484 3.72267 20.7071 3.69601C20.7684 3.66934 20.8338 3.65601 20.9031 3.65601C20.9724 3.65601 21.0378 3.66934 21.0991 3.69601C21.1631 3.72267 21.2178 3.76001 21.2631 3.80801C21.3111 3.85334 21.3484 3.90801 21.3751 3.97201C21.4044 4.03334 21.4191 4.09867 21.4191 4.16801Z" fill="#EEEEEE" fill-opacity="0.5"/>
<path d="M23.153 8.51601C23.2836 8.69201 23.4263 8.81601 23.581 8.88801C23.7356 8.96001 23.909 8.99601 24.101 8.99601C24.4796 8.99601 24.7703 8.86134 24.973 8.59201C25.1756 8.32267 25.277 7.93867 25.277 7.44001C25.277 7.17601 25.253 6.94934 25.205 6.76001C25.1596 6.57067 25.093 6.41601 25.005 6.29601C24.917 6.17334 24.809 6.08401 24.681 6.02801C24.553 5.97201 24.4076 5.94401 24.245 5.94401C24.013 5.94401 23.809 5.99734 23.633 6.10401C23.4596 6.21067 23.2996 6.36134 23.153 6.55601V8.51601ZM23.117 6.06801C23.2876 5.85734 23.485 5.68801 23.709 5.56001C23.933 5.43201 24.189 5.36801 24.477 5.36801C24.7116 5.36801 24.9236 5.41334 25.113 5.50401C25.3023 5.59201 25.4636 5.72401 25.597 5.90001C25.7303 6.07334 25.833 6.28934 25.905 6.54801C25.977 6.80667 26.013 7.10401 26.013 7.44001C26.013 7.73867 25.973 8.01734 25.893 8.27601C25.813 8.53201 25.697 8.75467 25.545 8.94401C25.3956 9.13067 25.2116 9.27867 24.993 9.38801C24.777 9.49467 24.533 9.54801 24.261 9.54801C24.013 9.54801 23.7996 9.50667 23.621 9.42401C23.445 9.33867 23.289 9.22134 23.153 9.07201V10.864H22.437V5.44001H22.865C22.9663 5.44001 23.029 5.48934 23.053 5.58801L23.117 6.06801Z" fill="#EEEEEE" fill-opacity="0.5"/>
<path d="M28.6293 5.37601C28.9253 5.37601 29.192 5.42534 29.4293 5.52401C29.6667 5.62267 29.8693 5.76267 30.0373 5.94401C30.2053 6.12534 30.3333 6.34534 30.4213 6.60401C30.512 6.86001 30.5573 7.14667 30.5573 7.46401C30.5573 7.78401 30.512 8.07201 30.4213 8.32801C30.3333 8.58401 30.2053 8.80267 30.0373 8.98401C29.8693 9.16534 29.6667 9.30534 29.4293 9.40401C29.192 9.50001 28.9253 9.54801 28.6293 9.54801C28.3307 9.54801 28.0613 9.50001 27.8213 9.40401C27.584 9.30534 27.3813 9.16534 27.2133 8.98401C27.0453 8.80267 26.916 8.58401 26.8253 8.32801C26.7373 8.07201 26.6933 7.78401 26.6933 7.46401C26.6933 7.14667 26.7373 6.86001 26.8253 6.60401C26.916 6.34534 27.0453 6.12534 27.2133 5.94401C27.3813 5.76267 27.584 5.62267 27.8213 5.52401C28.0613 5.42534 28.3307 5.37601 28.6293 5.37601ZM28.6293 8.99201C29.0293 8.99201 29.328 8.85867 29.5253 8.59201C29.7227 8.32267 29.8213 7.94801 29.8213 7.46801C29.8213 6.98534 29.7227 6.60934 29.5253 6.34001C29.328 6.07067 29.0293 5.93601 28.6293 5.93601C28.4267 5.93601 28.2493 5.97067 28.0973 6.04001C27.948 6.10934 27.8227 6.20934 27.7213 6.34001C27.6227 6.47067 27.548 6.63201 27.4973 6.82401C27.4493 7.01334 27.4253 7.22801 27.4253 7.46801C27.4253 7.94801 27.524 8.32267 27.7213 8.59201C27.9213 8.85867 28.224 8.99201 28.6293 8.99201Z" fill="#EEEEEE" fill-opacity="0.5"/>
<path d="M32.1964 3.60001V9.49201H31.4844V3.60001H32.1964Z" fill="#EEEEEE" fill-opacity="0.5"/>
<path d="M35.547 7.66801C35.219 7.67867 34.939 7.70534 34.707 7.74801C34.4777 7.78801 34.2897 7.84134 34.143 7.90801C33.999 7.97467 33.8937 8.05334 33.827 8.14401C33.763 8.23467 33.731 8.33601 33.731 8.44801C33.731 8.55467 33.7484 8.64667 33.783 8.72401C33.8177 8.80134 33.8644 8.86534 33.923 8.91601C33.9844 8.96401 34.055 9.00001 34.135 9.02401C34.2177 9.04534 34.3057 9.05601 34.399 9.05601C34.5244 9.05601 34.639 9.04401 34.743 9.02001C34.847 8.99334 34.9444 8.95601 35.035 8.90801C35.1284 8.86001 35.2164 8.80267 35.299 8.73601C35.3844 8.66934 35.467 8.59334 35.547 8.50801V7.66801ZM33.247 6.01201C33.471 5.79601 33.7124 5.63467 33.971 5.52801C34.2297 5.42134 34.5164 5.36801 34.831 5.36801C35.0577 5.36801 35.259 5.40534 35.435 5.48001C35.611 5.55467 35.759 5.65867 35.879 5.79201C35.999 5.92534 36.0897 6.08667 36.151 6.27601C36.2124 6.46534 36.243 6.67334 36.243 6.90001V9.49201H35.927C35.8577 9.49201 35.8044 9.48134 35.767 9.46001C35.7297 9.43601 35.7004 9.39067 35.679 9.32401L35.599 8.94001C35.4924 9.03867 35.3884 9.12667 35.287 9.20401C35.1857 9.27867 35.079 9.34267 34.967 9.39601C34.855 9.44667 34.735 9.48534 34.607 9.51201C34.4817 9.54134 34.3417 9.55601 34.187 9.55601C34.0297 9.55601 33.8817 9.53467 33.743 9.49201C33.6044 9.44667 33.483 9.38001 33.379 9.29201C33.2777 9.20401 33.1964 9.09334 33.135 8.96001C33.0764 8.82401 33.047 8.66401 33.047 8.48001C33.047 8.32001 33.091 8.16667 33.179 8.02001C33.267 7.87067 33.4097 7.73867 33.607 7.62401C33.8044 7.50934 34.0617 7.41601 34.379 7.34401C34.6964 7.26934 35.0857 7.22667 35.547 7.21601V6.90001C35.547 6.58534 35.479 6.34801 35.343 6.18801C35.207 6.02534 35.0084 5.94401 34.747 5.94401C34.571 5.94401 34.423 5.96667 34.303 6.01201C34.1857 6.05467 34.083 6.10401 33.995 6.16001C33.9097 6.21334 33.835 6.26267 33.771 6.30801C33.7097 6.35067 33.6484 6.37201 33.587 6.37201C33.539 6.37201 33.4977 6.36001 33.463 6.33601C33.4284 6.30934 33.399 6.27734 33.375 6.24001L33.247 6.01201Z" fill="#EEEEEE" fill-opacity="0.5"/>
<path d="M38.0036 6.25201C38.1316 5.97467 38.2889 5.75867 38.4756 5.60401C38.6623 5.44667 38.8903 5.36801 39.1596 5.36801C39.2449 5.36801 39.3263 5.37734 39.4036 5.39601C39.4836 5.41467 39.5543 5.44401 39.6156 5.48401L39.5636 6.01601C39.5476 6.08267 39.5076 6.11601 39.4436 6.11601C39.4063 6.11601 39.3516 6.10801 39.2796 6.09201C39.2076 6.07601 39.1263 6.06801 39.0356 6.06801C38.9076 6.06801 38.7929 6.08667 38.6916 6.12401C38.5929 6.16134 38.5036 6.21734 38.4236 6.29201C38.3463 6.36401 38.2756 6.45467 38.2116 6.56401C38.1503 6.67067 38.0943 6.79334 38.0436 6.93201V9.49201H37.3276V5.44001H37.7356C37.8129 5.44001 37.8663 5.45467 37.8956 5.48401C37.9249 5.51334 37.9449 5.56401 37.9556 5.63601L38.0036 6.25201Z" fill="#EEEEEE" fill-opacity="0.5"/>
<path d="M12.6685 22.876C12.9059 22.876 13.1179 22.836 13.3045 22.756C13.4912 22.676 13.6485 22.564 13.7765 22.42C13.9072 22.276 14.0059 22.104 14.0725 21.904C14.1419 21.704 14.1765 21.484 14.1765 21.244V17.76H14.9485V21.244C14.9485 21.5746 14.8952 21.8813 14.7885 22.164C14.6845 22.4466 14.5339 22.692 14.3365 22.9C14.1419 23.1053 13.9032 23.2666 13.6205 23.384C13.3379 23.5013 13.0205 23.56 12.6685 23.56C12.3165 23.56 11.9992 23.5013 11.7165 23.384C11.4339 23.2666 11.1939 23.1053 10.9965 22.9C10.7992 22.692 10.6472 22.4466 10.5405 22.164C10.4365 21.8813 10.3845 21.5746 10.3845 21.244V17.76H11.1565V21.24C11.1565 21.48 11.1899 21.7 11.2565 21.9C11.3259 22.1 11.4245 22.272 11.5525 22.416C11.6832 22.56 11.8419 22.6733 12.0285 22.756C12.2179 22.836 12.4312 22.876 12.6685 22.876Z" fill="#EEEEEE"/>
<path d="M16.7261 20.028C16.8141 19.9293 16.9075 19.84 17.0061 19.76C17.1048 19.68 17.2088 19.612 17.3181 19.556C17.4301 19.4973 17.5475 19.4533 17.6701 19.424C17.7955 19.392 17.9301 19.376 18.0741 19.376C18.2955 19.376 18.4901 19.4133 18.6581 19.488C18.8288 19.56 18.9701 19.664 19.0821 19.8C19.1968 19.9333 19.2835 20.0946 19.3421 20.284C19.4008 20.4733 19.4301 20.6826 19.4301 20.912V23.492H18.7141V20.912C18.7141 20.6053 18.6435 20.368 18.5021 20.2C18.3635 20.0293 18.1515 19.944 17.8661 19.944C17.6555 19.944 17.4581 19.9946 17.2741 20.096C17.0928 20.1973 16.9248 20.3346 16.7701 20.508V23.492H16.0541V19.44H16.4821C16.5835 19.44 16.6461 19.4893 16.6701 19.588L16.7261 20.028Z" fill="#EEEEEE"/>
<path d="M21.2671 19.44V23.492H20.5551V19.44H21.2671ZM21.4191 18.168C21.4191 18.2373 21.4044 18.3026 21.3751 18.364C21.3484 18.4226 21.3111 18.476 21.2631 18.524C21.2178 18.5693 21.1631 18.6053 21.0991 18.632C21.0378 18.6586 20.9724 18.672 20.9031 18.672C20.8338 18.672 20.7684 18.6586 20.7071 18.632C20.6484 18.6053 20.5964 18.5693 20.5511 18.524C20.5058 18.476 20.4698 18.4226 20.4431 18.364C20.4164 18.3026 20.4031 18.2373 20.4031 18.168C20.4031 18.0986 20.4164 18.0333 20.4431 17.972C20.4698 17.908 20.5058 17.8533 20.5511 17.808C20.5964 17.76 20.6484 17.7226 20.7071 17.696C20.7684 17.6693 20.8338 17.656 20.9031 17.656C20.9724 17.656 21.0378 17.6693 21.0991 17.696C21.1631 17.7226 21.2178 17.76 21.2631 17.808C21.3111 17.8533 21.3484 17.908 21.3751 17.972C21.4044 18.0333 21.4191 18.0986 21.4191 18.168Z" fill="#EEEEEE"/>
<path d="M23.153 22.516C23.2836 22.692 23.4263 22.816 23.581 22.888C23.7356 22.96 23.909 22.996 24.101 22.996C24.4796 22.996 24.7703 22.8613 24.973 22.592C25.1756 22.3226 25.277 21.9386 25.277 21.44C25.277 21.176 25.253 20.9493 25.205 20.76C25.1596 20.5706 25.093 20.416 25.005 20.296C24.917 20.1733 24.809 20.084 24.681 20.028C24.553 19.972 24.4076 19.944 24.245 19.944C24.013 19.944 23.809 19.9973 23.633 20.104C23.4596 20.2106 23.2996 20.3613 23.153 20.556V22.516ZM23.117 20.068C23.2876 19.8573 23.485 19.688 23.709 19.56C23.933 19.432 24.189 19.368 24.477 19.368C24.7116 19.368 24.9236 19.4133 25.113 19.504C25.3023 19.592 25.4636 19.724 25.597 19.9C25.7303 20.0733 25.833 20.2893 25.905 20.548C25.977 20.8066 26.013 21.104 26.013 21.44C26.013 21.7386 25.973 22.0173 25.893 22.276C25.813 22.532 25.697 22.7546 25.545 22.944C25.3956 23.1306 25.2116 23.2786 24.993 23.388C24.777 23.4946 24.533 23.548 24.261 23.548C24.013 23.548 23.7996 23.5066 23.621 23.424C23.445 23.3386 23.289 23.2213 23.153 23.072V24.864H22.437V19.44H22.865C22.9663 19.44 23.029 19.4893 23.053 19.588L23.117 20.068Z" fill="#EEEEEE"/>
<path d="M28.6293 19.376C28.9253 19.376 29.192 19.4253 29.4293 19.524C29.6667 19.6226 29.8693 19.7626 30.0373 19.944C30.2053 20.1253 30.3333 20.3453 30.4213 20.604C30.512 20.86 30.5573 21.1466 30.5573 21.464C30.5573 21.784 30.512 22.072 30.4213 22.328C30.3333 22.584 30.2053 22.8026 30.0373 22.984C29.8693 23.1653 29.6667 23.3053 29.4293 23.404C29.192 23.5 28.9253 23.548 28.6293 23.548C28.3307 23.548 28.0613 23.5 27.8213 23.404C27.584 23.3053 27.3813 23.1653 27.2133 22.984C27.0453 22.8026 26.916 22.584 26.8253 22.328C26.7373 22.072 26.6933 21.784 26.6933 21.464C26.6933 21.1466 26.7373 20.86 26.8253 20.604C26.916 20.3453 27.0453 20.1253 27.2133 19.944C27.3813 19.7626 27.584 19.6226 27.8213 19.524C28.0613 19.4253 28.3307 19.376 28.6293 19.376ZM28.6293 22.992C29.0293 22.992 29.328 22.8586 29.5253 22.592C29.7227 22.3226 29.8213 21.948 29.8213 21.468C29.8213 20.9853 29.7227 20.6093 29.5253 20.34C29.328 20.0706 29.0293 19.936 28.6293 19.936C28.4267 19.936 28.2493 19.9706 28.0973 20.04C27.948 20.1093 27.8227 20.2093 27.7213 20.34C27.6227 20.4706 27.548 20.632 27.4973 20.824C27.4493 21.0133 27.4253 21.228 27.4253 21.468C27.4253 21.948 27.524 22.3226 27.7213 22.592C27.9213 22.8586 28.224 22.992 28.6293 22.992Z" fill="#EEEEEE"/>
<path d="M32.1964 17.6V23.492H31.4844V17.6H32.1964Z" fill="#EEEEEE"/>
<path d="M35.547 21.668C35.219 21.6786 34.939 21.7053 34.707 21.748C34.4777 21.788 34.2897 21.8413 34.143 21.908C33.999 21.9746 33.8937 22.0533 33.827 22.144C33.763 22.2346 33.731 22.336 33.731 22.448C33.731 22.5546 33.7484 22.6466 33.783 22.724C33.8177 22.8013 33.8644 22.8653 33.923 22.916C33.9844 22.964 34.055 23 34.135 23.024C34.2177 23.0453 34.3057 23.056 34.399 23.056C34.5244 23.056 34.639 23.044 34.743 23.02C34.847 22.9933 34.9444 22.956 35.035 22.908C35.1284 22.86 35.2164 22.8026 35.299 22.736C35.3844 22.6693 35.467 22.5933 35.547 22.508V21.668ZM33.247 20.012C33.471 19.796 33.7124 19.6346 33.971 19.528C34.2297 19.4213 34.5164 19.368 34.831 19.368C35.0577 19.368 35.259 19.4053 35.435 19.48C35.611 19.5546 35.759 19.6586 35.879 19.792C35.999 19.9253 36.0897 20.0866 36.151 20.276C36.2124 20.4653 36.243 20.6733 36.243 20.9V23.492H35.927C35.8577 23.492 35.8044 23.4813 35.767 23.46C35.7297 23.436 35.7004 23.3906 35.679 23.324L35.599 22.94C35.4924 23.0386 35.3884 23.1266 35.287 23.204C35.1857 23.2786 35.079 23.3426 34.967 23.396C34.855 23.4466 34.735 23.4853 34.607 23.512C34.4817 23.5413 34.3417 23.556 34.187 23.556C34.0297 23.556 33.8817 23.5346 33.743 23.492C33.6044 23.4466 33.483 23.38 33.379 23.292C33.2777 23.204 33.1964 23.0933 33.135 22.96C33.0764 22.824 33.047 22.664 33.047 22.48C33.047 22.32 33.091 22.1666 33.179 22.02C33.267 21.8706 33.4097 21.7386 33.607 21.624C33.8044 21.5093 34.0617 21.416 34.379 21.344C34.6964 21.2693 35.0857 21.2266 35.547 21.216V20.9C35.547 20.5853 35.479 20.348 35.343 20.188C35.207 20.0253 35.0084 19.944 34.747 19.944C34.571 19.944 34.423 19.9666 34.303 20.012C34.1857 20.0546 34.083 20.104 33.995 20.16C33.9097 20.2133 33.835 20.2626 33.771 20.308C33.7097 20.3506 33.6484 20.372 33.587 20.372C33.539 20.372 33.4977 20.36 33.463 20.336C33.4284 20.3093 33.399 20.2773 33.375 20.24L33.247 20.012Z" fill="#EEEEEE"/>
<path d="M38.0036 20.252C38.1316 19.9746 38.2889 19.7586 38.4756 19.604C38.6623 19.4466 38.8903 19.368 39.1596 19.368C39.2449 19.368 39.3263 19.3773 39.4036 19.396C39.4836 19.4146 39.5543 19.444 39.6156 19.484L39.5636 20.016C39.5476 20.0826 39.5076 20.116 39.4436 20.116C39.4063 20.116 39.3516 20.108 39.2796 20.092C39.2076 20.076 39.1263 20.068 39.0356 20.068C38.9076 20.068 38.7929 20.0866 38.6916 20.124C38.5929 20.1613 38.5036 20.2173 38.4236 20.292C38.3463 20.364 38.2756 20.4546 38.2116 20.564C38.1503 20.6706 38.0943 20.7933 38.0436 20.932V23.492H37.3276V19.44H37.7356C37.8129 19.44 37.8663 19.4546 37.8956 19.484C37.9249 19.5133 37.9449 19.564 37.9556 19.636L38.0036 20.252Z" fill="#EEEEEE"/>
</svg>
