<svg width="13" height="26" viewBox="0 0 13 26" fill="none" xmlns="http://www.w3.org/2000/svg">
<path fill-rule="evenodd" clip-rule="evenodd" d="M9.23735 8.39185L8.38318 9.24603L6.88806 7.75091L7.74224 6.89674L9.23735 8.39185Z" fill="#9AAAB4"/>
<path fill-rule="evenodd" clip-rule="evenodd" d="M11.4408 9.74138L9.66506 7.96567C9.42917 7.72977 9.04678 7.72977 8.81089 7.96567L7.95671 8.81984C7.72081 9.05574 7.72081 9.43813 7.95671 9.67402L9.73242 11.4497C10.2042 11.9218 10.9696 11.9218 11.4414 11.4497C11.9125 10.9782 11.9122 10.2132 11.4408 9.74138Z" fill="#66757F"/>
<path fill-rule="evenodd" clip-rule="evenodd" d="M0.990967 5.07753C0.990967 2.82555 2.81656 0.999954 5.06854 0.999954C7.32052 0.999954 9.14611 2.82555 9.14611 5.07753C9.14611 7.32952 7.32052 9.15511 5.06854 9.15511C2.81656 9.15511 0.990967 7.32952 0.990967 5.07753Z" fill="#8899A6"/>
<path fill-rule="evenodd" clip-rule="evenodd" d="M2.1991 5.07754C2.1991 3.49281 3.48377 2.20813 5.0685 2.20813C6.65323 2.20813 7.9379 3.49281 7.9379 5.07754C7.9379 6.66227 6.65323 7.94695 5.0685 7.94695C3.48377 7.94695 2.1991 6.66227 2.1991 5.07754Z" fill="#BBDDF5"/>
<path fill-rule="evenodd" clip-rule="evenodd" d="M9.24284 21.3919L8.38867 22.246L6.89355 20.7509L7.74773 19.8967L9.24284 21.3919Z" fill="#9AAAB4"/>
<path fill-rule="evenodd" clip-rule="evenodd" d="M11.4463 22.7414L9.67055 20.9657C9.43466 20.7298 9.05227 20.7298 8.81638 20.9657L7.9622 21.8198C7.7263 22.0557 7.7263 22.4381 7.9622 22.674L9.73791 24.4497C10.2097 24.9218 10.9751 24.9218 11.4469 24.4497C11.918 23.9782 11.9177 23.2132 11.4463 22.7414Z" fill="#66757F"/>
<path fill-rule="evenodd" clip-rule="evenodd" d="M0.99646 18.0775C0.99646 15.8256 2.82205 14 5.07403 14C7.32601 14 9.1516 15.8256 9.1516 18.0775C9.1516 20.3295 7.32601 22.1551 5.07403 22.1551C2.82205 22.1551 0.99646 20.3295 0.99646 18.0775Z" fill="#8899A6"/>
<path fill-rule="evenodd" clip-rule="evenodd" d="M2.20459 18.0775C2.20459 16.4928 3.48926 15.2081 5.07399 15.2081C6.65872 15.2081 7.94339 16.4928 7.94339 18.0775C7.94339 19.6623 6.65872 20.9469 5.07399 20.9469C3.48926 20.9469 2.20459 19.6623 2.20459 18.0775Z" fill="#FBC401"/>
<path fill-rule="evenodd" clip-rule="evenodd" d="M0.99646 18.0775C0.99646 15.8256 2.82205 14 5.07403 14C7.32601 14 9.1516 15.8256 9.1516 18.0775C9.1516 18.9856 8.8548 19.8243 8.35293 20.5019L8.81652 20.9655C9.05243 20.7298 9.43468 20.7299 9.67051 20.9657L11.4463 22.7414C11.9177 23.2132 11.918 23.9783 11.4469 24.4498C10.975 24.9219 10.2097 24.9219 9.73787 24.4498L7.96216 22.6741C7.72626 22.4382 7.72626 22.0558 7.96216 21.8199L7.96235 21.8197L7.49881 21.3561C6.82108 21.8582 5.98223 22.1551 5.07403 22.1551C2.82205 22.1551 0.99646 20.3295 0.99646 18.0775Z" fill="white" fill-opacity="0.2"/>
</svg>
