<svg width="135" height="36" viewBox="0 0 135 36" fill="none" xmlns="http://www.w3.org/2000/svg">
<g clip-path="url(#clip0_205_20206)">
<rect y="0.5" width="45.3358" height="11" fill="white" fill-opacity="0.2"/>
<rect x="44.832" y="12.5" width="45.3358" height="11" fill="white" fill-opacity="0.2"/>
<rect x="89.6641" y="24.5" width="45.3358" height="11" fill="white" fill-opacity="0.2"/>
<path d="M20.3765 3.10199L18.5885 8.83399H17.8925L16.4405 4.46199C16.4271 4.41932 16.4138 4.37399 16.4005 4.32599C16.3898 4.27799 16.3778 4.22732 16.3645 4.17399C16.3511 4.22732 16.3378 4.27799 16.3245 4.32599C16.3111 4.37399 16.2978 4.41932 16.2845 4.46199L14.8245 8.83399H14.1285L12.3405 3.10199H12.9845C13.0538 3.10199 13.1111 3.11932 13.1565 3.15399C13.2045 3.18866 13.2351 3.23266 13.2485 3.28599L14.4325 7.26999C14.4511 7.34199 14.4685 7.41932 14.4845 7.50199C14.5031 7.58466 14.5205 7.67266 14.5365 7.76599C14.5551 7.67266 14.5738 7.58466 14.5925 7.50199C14.6138 7.41666 14.6365 7.33932 14.6605 7.26999L16.0085 3.28599C16.0245 3.24066 16.0551 3.19932 16.1005 3.16199C16.1485 3.12199 16.2058 3.10199 16.2725 3.10199H16.4965C16.5658 3.10199 16.6218 3.11932 16.6645 3.15399C16.7071 3.18866 16.7391 3.23266 16.7605 3.28599L18.1045 7.26999C18.1285 7.33932 18.1498 7.41399 18.1685 7.49399C18.1898 7.57399 18.2098 7.65799 18.2285 7.74599C18.2418 7.65799 18.2565 7.57399 18.2725 7.49399C18.2885 7.41399 18.3058 7.33932 18.3245 7.26999L19.5125 3.28599C19.5258 3.23799 19.5551 3.19532 19.6005 3.15799C19.6485 3.12066 19.7058 3.10199 19.7725 3.10199H20.3765Z" fill="white"/>
<path d="M22.8046 7.00999C22.4766 7.02066 22.1966 7.04732 21.9646 7.08999C21.7352 7.12999 21.5472 7.18332 21.4006 7.24999C21.2566 7.31666 21.1512 7.39532 21.0846 7.48599C21.0206 7.57666 20.9886 7.67799 20.9886 7.78999C20.9886 7.89666 21.0059 7.98866 21.0406 8.06599C21.0752 8.14332 21.1219 8.20732 21.1806 8.25799C21.2419 8.30599 21.3126 8.34199 21.3926 8.36599C21.4752 8.38732 21.5632 8.39799 21.6566 8.39799C21.7819 8.39799 21.8966 8.38599 22.0006 8.36199C22.1046 8.33532 22.2019 8.29799 22.2926 8.24999C22.3859 8.20199 22.4739 8.14466 22.5566 8.07799C22.6419 8.01132 22.7246 7.93532 22.8046 7.84999V7.00999ZM20.5046 5.35399C20.7286 5.13799 20.9699 4.97666 21.2286 4.86999C21.4872 4.76332 21.7739 4.70999 22.0886 4.70999C22.3152 4.70999 22.5166 4.74732 22.6926 4.82199C22.8686 4.89666 23.0166 5.00066 23.1366 5.13399C23.2566 5.26732 23.3472 5.42866 23.4086 5.61799C23.4699 5.80732 23.5006 6.01532 23.5006 6.24199V8.83399H23.1846C23.1152 8.83399 23.0619 8.82332 23.0246 8.80199C22.9872 8.77799 22.9579 8.73266 22.9366 8.66599L22.8566 8.28199C22.7499 8.38066 22.6459 8.46866 22.5446 8.54599C22.4432 8.62066 22.3366 8.68466 22.2246 8.73799C22.1126 8.78866 21.9926 8.82732 21.8646 8.85399C21.7392 8.88332 21.5992 8.89799 21.4446 8.89799C21.2872 8.89799 21.1392 8.87666 21.0006 8.83399C20.8619 8.78866 20.7406 8.72199 20.6366 8.63399C20.5352 8.54599 20.4539 8.43532 20.3926 8.30199C20.3339 8.16599 20.3046 8.00599 20.3046 7.82199C20.3046 7.66199 20.3486 7.50866 20.4366 7.36199C20.5246 7.21266 20.6672 7.08066 20.8646 6.96599C21.0619 6.85132 21.3192 6.75799 21.6366 6.68599C21.9539 6.61132 22.3432 6.56866 22.8046 6.55799V6.24199C22.8046 5.92732 22.7366 5.68999 22.6006 5.52999C22.4646 5.36732 22.2659 5.28599 22.0046 5.28599C21.8286 5.28599 21.6806 5.30866 21.5606 5.35399C21.4432 5.39666 21.3406 5.44599 21.2526 5.50199C21.1672 5.55532 21.0926 5.60466 21.0286 5.64999C20.9672 5.69266 20.9059 5.71399 20.8446 5.71399C20.7966 5.71399 20.7552 5.70199 20.7206 5.67799C20.6859 5.65132 20.6566 5.61932 20.6326 5.58199L20.5046 5.35399Z" fill="white"/>
<path d="M25.2611 5.59399C25.3891 5.31666 25.5465 5.10066 25.7331 4.94599C25.9198 4.78866 26.1478 4.70999 26.4171 4.70999C26.5025 4.70999 26.5838 4.71932 26.6611 4.73799C26.7411 4.75666 26.8118 4.78599 26.8731 4.82599L26.8211 5.35799C26.8051 5.42466 26.7651 5.45799 26.7011 5.45799C26.6638 5.45799 26.6091 5.44999 26.5371 5.43399C26.4651 5.41799 26.3838 5.40999 26.2931 5.40999C26.1651 5.40999 26.0505 5.42866 25.9491 5.46599C25.8505 5.50332 25.7611 5.55932 25.6811 5.63399C25.6038 5.70599 25.5331 5.79666 25.4691 5.90599C25.4078 6.01266 25.3518 6.13532 25.3011 6.27399V8.83399H24.5851V4.78199H24.9931C25.0705 4.78199 25.1238 4.79666 25.1531 4.82599C25.1825 4.85532 25.2025 4.90599 25.2131 4.97799L25.2611 5.59399Z" fill="white"/>
<path d="M27.4992 8.83399V4.78199H27.9272C28.0285 4.78199 28.0912 4.83132 28.1152 4.92999L28.1672 5.34599C28.3165 5.16199 28.4845 5.01132 28.6712 4.89399C28.8579 4.77666 29.0739 4.71799 29.3192 4.71799C29.5912 4.71799 29.8112 4.79399 29.9792 4.94599C30.1499 5.09799 30.2725 5.30332 30.3472 5.56199C30.4059 5.41532 30.4805 5.28866 30.5712 5.18199C30.6645 5.07532 30.7685 4.98732 30.8832 4.91799C30.9979 4.84866 31.1192 4.79799 31.2472 4.76599C31.3779 4.73399 31.5099 4.71799 31.6432 4.71799C31.8565 4.71799 32.0459 4.75266 32.2112 4.82199C32.3792 4.88866 32.5205 4.98732 32.6352 5.11799C32.7525 5.24866 32.8419 5.40999 32.9032 5.60199C32.9645 5.79132 32.9952 6.00866 32.9952 6.25399V8.83399H32.2792V6.25399C32.2792 5.93666 32.2099 5.69666 32.0712 5.53399C31.9325 5.36866 31.7325 5.28599 31.4712 5.28599C31.3539 5.28599 31.2419 5.30732 31.1352 5.34999C31.0312 5.38999 30.9392 5.44999 30.8592 5.52999C30.7792 5.60999 30.7152 5.71132 30.6672 5.83399C30.6219 5.95399 30.5992 6.09399 30.5992 6.25399V8.83399H29.8832V6.25399C29.8832 5.92866 29.8179 5.68599 29.6872 5.52599C29.5565 5.36599 29.3659 5.28599 29.1152 5.28599C28.9392 5.28599 28.7765 5.33399 28.6272 5.42999C28.4779 5.52332 28.3405 5.65132 28.2152 5.81399V8.83399H27.4992Z" fill="white"/>
<path d="M59.6763 15.182V20.914H59.2883C59.227 20.914 59.175 20.9033 59.1323 20.882C59.0923 20.8606 59.0523 20.8246 59.0123 20.774L55.6963 16.454C55.7017 16.5206 55.7057 16.586 55.7083 16.65C55.711 16.714 55.7123 16.774 55.7123 16.83V20.914H55.0323V15.182H55.4323C55.467 15.182 55.4963 15.1846 55.5203 15.19C55.5443 15.1926 55.5657 15.1993 55.5843 15.21C55.603 15.218 55.6217 15.2313 55.6403 15.25C55.659 15.266 55.679 15.2873 55.7003 15.314L59.0163 19.63C59.011 19.5606 59.0057 19.494 59.0003 19.43C58.9977 19.3633 58.9963 19.3006 58.9963 19.242V15.182H59.6763Z" fill="white"/>
<path d="M63.5607 18.446C63.5607 18.2806 63.5367 18.13 63.4887 17.994C63.4434 17.8553 63.3754 17.7366 63.2847 17.638C63.1967 17.5366 63.0887 17.4593 62.9607 17.406C62.8327 17.35 62.6874 17.322 62.5247 17.322C62.1834 17.322 61.9127 17.422 61.7127 17.622C61.5154 17.8193 61.3927 18.094 61.3447 18.446H63.5607ZM64.1367 20.346C64.0487 20.4526 63.9434 20.546 63.8207 20.626C63.6981 20.7033 63.5661 20.7673 63.4247 20.818C63.2861 20.8686 63.1421 20.906 62.9927 20.93C62.8434 20.9566 62.6954 20.97 62.5487 20.97C62.2687 20.97 62.0101 20.9233 61.7727 20.83C61.5381 20.734 61.3341 20.5953 61.1607 20.414C60.9901 20.23 60.8567 20.0033 60.7607 19.734C60.6647 19.4646 60.6167 19.1553 60.6167 18.806C60.6167 18.5233 60.6594 18.2593 60.7447 18.014C60.8327 17.7686 60.9581 17.5566 61.1207 17.378C61.2834 17.1966 61.4821 17.0553 61.7167 16.954C61.9514 16.85 62.2154 16.798 62.5087 16.798C62.7514 16.798 62.9754 16.8393 63.1807 16.922C63.3887 17.002 63.5674 17.1193 63.7167 17.274C63.8687 17.426 63.9874 17.6153 64.0727 17.842C64.1581 18.066 64.2007 18.322 64.2007 18.61C64.2007 18.722 64.1887 18.7966 64.1647 18.834C64.1407 18.8713 64.0954 18.89 64.0287 18.89H61.3207C61.3287 19.146 61.3634 19.3686 61.4247 19.558C61.4887 19.7473 61.5767 19.906 61.6887 20.034C61.8007 20.1593 61.9341 20.254 62.0887 20.318C62.2434 20.3793 62.4167 20.41 62.6087 20.41C62.7874 20.41 62.9407 20.39 63.0687 20.35C63.1994 20.3073 63.3114 20.262 63.4047 20.214C63.4981 20.166 63.5754 20.122 63.6367 20.082C63.7007 20.0393 63.7554 20.018 63.8007 20.018C63.8594 20.018 63.9047 20.0406 63.9367 20.086L64.1367 20.346Z" fill="white"/>
<path d="M68.4073 16.862V20.914H67.9833C67.882 20.914 67.818 20.8646 67.7913 20.766L67.7353 20.33C67.5593 20.5246 67.362 20.682 67.1433 20.802C66.9246 20.9193 66.674 20.978 66.3913 20.978C66.17 20.978 65.974 20.942 65.8033 20.87C65.6353 20.7953 65.494 20.6913 65.3793 20.558C65.2646 20.4246 65.178 20.2633 65.1193 20.074C65.0633 19.8846 65.0353 19.6753 65.0353 19.446V16.862H65.7473V19.446C65.7473 19.7526 65.8166 19.99 65.9553 20.158C66.0966 20.326 66.3113 20.41 66.5993 20.41C66.81 20.41 67.006 20.3606 67.1873 20.262C67.3713 20.1606 67.5406 20.022 67.6953 19.846V16.862H68.4073Z" fill="white"/>
<path d="M70.7802 20.978C70.4602 20.978 70.2136 20.8886 70.0402 20.71C69.8696 20.5313 69.7842 20.274 69.7842 19.938V17.458H69.2962C69.2536 17.458 69.2176 17.446 69.1882 17.422C69.1589 17.3953 69.1442 17.3553 69.1442 17.302V17.018L69.8082 16.934L69.9722 15.682C69.9802 15.642 69.9976 15.61 70.0242 15.586C70.0536 15.5593 70.0909 15.546 70.1362 15.546H70.4962V16.942H71.6682V17.458H70.4962V19.89C70.4962 20.0606 70.5376 20.1873 70.6202 20.27C70.7029 20.3526 70.8096 20.394 70.9402 20.394C71.0149 20.394 71.0789 20.3846 71.1322 20.366C71.1882 20.3446 71.2362 20.322 71.2762 20.298C71.3162 20.274 71.3496 20.2526 71.3762 20.234C71.4056 20.2126 71.4309 20.202 71.4522 20.202C71.4896 20.202 71.5229 20.2246 71.5522 20.27L71.7602 20.61C71.6376 20.7246 71.4896 20.8153 71.3162 20.882C71.1429 20.946 70.9642 20.978 70.7802 20.978Z" fill="white"/>
<path d="M73.0794 17.674C73.2074 17.3966 73.3647 17.1806 73.5514 17.026C73.7381 16.8686 73.9661 16.79 74.2354 16.79C74.3207 16.79 74.4021 16.7993 74.4794 16.818C74.5594 16.8366 74.6301 16.866 74.6914 16.906L74.6394 17.438C74.6234 17.5046 74.5834 17.538 74.5194 17.538C74.4821 17.538 74.4274 17.53 74.3554 17.514C74.2834 17.498 74.2021 17.49 74.1114 17.49C73.9834 17.49 73.8687 17.5086 73.7674 17.546C73.6687 17.5833 73.5794 17.6393 73.4994 17.714C73.4221 17.786 73.3514 17.8766 73.2874 17.986C73.2261 18.0926 73.1701 18.2153 73.1194 18.354V20.914H72.4034V16.862H72.8114C72.8887 16.862 72.9421 16.8766 72.9714 16.906C73.0007 16.9353 73.0207 16.986 73.0314 17.058L73.0794 17.674Z" fill="white"/>
<path d="M77.451 19.09C77.123 19.1006 76.843 19.1273 76.611 19.17C76.3816 19.21 76.1936 19.2633 76.047 19.33C75.903 19.3966 75.7976 19.4753 75.731 19.566C75.667 19.6566 75.635 19.758 75.635 19.87C75.635 19.9766 75.6523 20.0686 75.687 20.146C75.7216 20.2233 75.7683 20.2873 75.827 20.338C75.8883 20.386 75.959 20.422 76.039 20.446C76.1216 20.4673 76.2096 20.478 76.303 20.478C76.4283 20.478 76.543 20.466 76.647 20.442C76.751 20.4153 76.8483 20.378 76.939 20.33C77.0323 20.282 77.1203 20.2246 77.203 20.158C77.2883 20.0913 77.371 20.0153 77.451 19.93V19.09ZM75.151 17.434C75.375 17.218 75.6163 17.0566 75.875 16.95C76.1336 16.8433 76.4203 16.79 76.735 16.79C76.9616 16.79 77.163 16.8273 77.339 16.902C77.515 16.9766 77.663 17.0806 77.783 17.214C77.903 17.3473 77.9936 17.5086 78.055 17.698C78.1163 17.8873 78.147 18.0953 78.147 18.322V20.914H77.831C77.7616 20.914 77.7083 20.9033 77.671 20.882C77.6336 20.858 77.6043 20.8126 77.583 20.746L77.503 20.362C77.3963 20.4606 77.2923 20.5486 77.191 20.626C77.0896 20.7006 76.983 20.7646 76.871 20.818C76.759 20.8686 76.639 20.9073 76.511 20.934C76.3856 20.9633 76.2456 20.978 76.091 20.978C75.9336 20.978 75.7856 20.9566 75.647 20.914C75.5083 20.8686 75.387 20.802 75.283 20.714C75.1816 20.626 75.1003 20.5153 75.039 20.382C74.9803 20.246 74.951 20.086 74.951 19.902C74.951 19.742 74.995 19.5886 75.083 19.442C75.171 19.2926 75.3136 19.1606 75.511 19.046C75.7083 18.9313 75.9656 18.838 76.283 18.766C76.6003 18.6913 76.9896 18.6486 77.451 18.638V18.322C77.451 18.0073 77.383 17.77 77.247 17.61C77.111 17.4473 76.9123 17.366 76.651 17.366C76.475 17.366 76.327 17.3886 76.207 17.434C76.0896 17.4766 75.987 17.526 75.899 17.582C75.8136 17.6353 75.739 17.6846 75.675 17.73C75.6136 17.7726 75.5523 17.794 75.491 17.794C75.443 17.794 75.4016 17.782 75.367 17.758C75.3323 17.7313 75.303 17.6993 75.279 17.662L75.151 17.434Z" fill="white"/>
<path d="M79.9675 15.022V20.914H79.2555V15.022H79.9675Z" fill="white"/>
<path d="M104.074 32.35C104.295 32.35 104.486 32.3246 104.646 32.274C104.806 32.2233 104.936 32.1526 105.038 32.062C105.142 31.9686 105.218 31.8593 105.266 31.734C105.314 31.606 105.338 31.466 105.338 31.314C105.338 31.018 105.232 30.7846 105.022 30.614C104.811 30.4406 104.495 30.354 104.074 30.354H102.834V32.35H104.074ZM102.834 27.846V29.802H103.858C104.076 29.802 104.266 29.778 104.426 29.73C104.588 29.682 104.722 29.6153 104.826 29.53C104.932 29.4446 105.011 29.342 105.062 29.222C105.112 29.0993 105.138 28.966 105.138 28.822C105.138 28.4833 105.036 28.2366 104.834 28.082C104.631 27.9246 104.316 27.846 103.89 27.846H102.834ZM103.89 27.234C104.242 27.234 104.544 27.2686 104.798 27.338C105.054 27.4073 105.263 27.506 105.426 27.634C105.591 27.762 105.712 27.9193 105.79 28.106C105.867 28.29 105.906 28.498 105.906 28.73C105.906 28.8713 105.883 29.0073 105.838 29.138C105.795 29.266 105.73 29.386 105.642 29.498C105.554 29.61 105.442 29.7113 105.306 29.802C105.172 29.89 105.015 29.962 104.834 30.018C105.255 30.098 105.571 30.2486 105.782 30.47C105.995 30.6886 106.102 30.9766 106.102 31.334C106.102 31.5766 106.056 31.798 105.966 31.998C105.878 32.198 105.747 32.37 105.574 32.514C105.403 32.658 105.192 32.77 104.942 32.85C104.691 32.9273 104.406 32.966 104.086 32.966H102.062V27.234H103.89Z" fill="white"/>
<path d="M107.656 29.726C107.784 29.4486 107.941 29.2326 108.128 29.078C108.314 28.9206 108.542 28.842 108.812 28.842C108.897 28.842 108.978 28.8513 109.056 28.87C109.136 28.8886 109.206 28.918 109.268 28.958L109.216 29.49C109.2 29.5566 109.16 29.59 109.096 29.59C109.058 29.59 109.004 29.582 108.932 29.566C108.86 29.55 108.778 29.542 108.688 29.542C108.56 29.542 108.445 29.5606 108.344 29.598C108.245 29.6353 108.156 29.6913 108.076 29.766C107.998 29.838 107.928 29.9286 107.864 30.038C107.802 30.1446 107.746 30.2673 107.696 30.406V32.966H106.98V28.914H107.388C107.465 28.914 107.518 28.9286 107.548 28.958C107.577 28.9873 107.597 29.038 107.608 29.11L107.656 29.726Z" fill="white"/>
<path d="M110.646 28.914V32.966H109.934V28.914H110.646ZM110.798 27.642C110.798 27.7113 110.783 27.7766 110.754 27.838C110.727 27.8966 110.69 27.95 110.642 27.998C110.596 28.0433 110.542 28.0793 110.478 28.106C110.416 28.1326 110.351 28.146 110.282 28.146C110.212 28.146 110.147 28.1326 110.086 28.106C110.027 28.0793 109.975 28.0433 109.93 27.998C109.884 27.95 109.848 27.8966 109.822 27.838C109.795 27.7766 109.782 27.7113 109.782 27.642C109.782 27.5726 109.795 27.5073 109.822 27.446C109.848 27.382 109.884 27.3273 109.93 27.282C109.975 27.234 110.027 27.1966 110.086 27.17C110.147 27.1433 110.212 27.13 110.282 27.13C110.351 27.13 110.416 27.1433 110.478 27.17C110.542 27.1966 110.596 27.234 110.642 27.282C110.69 27.3273 110.727 27.382 110.754 27.446C110.783 27.5073 110.798 27.5726 110.798 27.642Z" fill="white"/>
<path d="M113.228 30.986C113.372 30.986 113.498 30.966 113.608 30.926C113.717 30.886 113.809 30.83 113.884 30.758C113.958 30.686 114.014 30.6006 114.052 30.502C114.089 30.4006 114.108 30.29 114.108 30.17C114.108 29.922 114.032 29.7246 113.88 29.578C113.73 29.4313 113.513 29.358 113.228 29.358C112.94 29.358 112.72 29.4313 112.568 29.578C112.418 29.7246 112.344 29.922 112.344 30.17C112.344 30.29 112.362 30.4006 112.4 30.502C112.44 30.6006 112.497 30.686 112.572 30.758C112.646 30.83 112.738 30.886 112.848 30.926C112.957 30.966 113.084 30.986 113.228 30.986ZM114.512 33.186C114.512 33.0873 114.484 33.0073 114.428 32.946C114.372 32.8846 114.296 32.8366 114.2 32.802C114.106 32.7673 113.997 32.7433 113.872 32.73C113.746 32.714 113.613 32.702 113.472 32.694C113.333 32.686 113.192 32.678 113.048 32.67C112.904 32.662 112.765 32.6486 112.632 32.63C112.482 32.6993 112.36 32.7873 112.264 32.894C112.17 32.998 112.124 33.1206 112.124 33.262C112.124 33.3526 112.146 33.4366 112.192 33.514C112.24 33.594 112.312 33.662 112.408 33.718C112.504 33.7766 112.624 33.822 112.768 33.854C112.914 33.8886 113.086 33.906 113.284 33.906C113.476 33.906 113.648 33.8886 113.8 33.854C113.952 33.8193 114.08 33.77 114.184 33.706C114.29 33.642 114.372 33.566 114.428 33.478C114.484 33.39 114.512 33.2926 114.512 33.186ZM115.236 29.074V29.338C115.236 29.426 115.18 29.482 115.068 29.506L114.608 29.566C114.698 29.742 114.744 29.9366 114.744 30.15C114.744 30.3473 114.705 30.5273 114.628 30.69C114.553 30.85 114.449 30.9873 114.316 31.102C114.182 31.2166 114.022 31.3046 113.836 31.366C113.649 31.4273 113.446 31.458 113.228 31.458C113.038 31.458 112.86 31.4353 112.692 31.39C112.606 31.4433 112.541 31.5006 112.496 31.562C112.45 31.6206 112.428 31.6806 112.428 31.742C112.428 31.838 112.466 31.9113 112.544 31.962C112.624 32.01 112.728 32.0446 112.856 32.066C112.984 32.0873 113.129 32.1006 113.292 32.106C113.457 32.1113 113.625 32.1206 113.796 32.134C113.969 32.1446 114.137 32.1646 114.3 32.194C114.465 32.2233 114.612 32.2713 114.74 32.338C114.868 32.4046 114.97 32.4966 115.048 32.614C115.128 32.7313 115.168 32.8833 115.168 33.07C115.168 33.2433 115.124 33.4113 115.036 33.574C114.95 33.7366 114.826 33.8806 114.664 34.006C114.501 34.134 114.301 34.2353 114.064 34.31C113.829 34.3873 113.564 34.426 113.268 34.426C112.972 34.426 112.713 34.3966 112.492 34.338C112.27 34.2793 112.086 34.2006 111.94 34.102C111.793 34.0033 111.682 33.8886 111.608 33.758C111.536 33.63 111.5 33.4953 111.5 33.354C111.5 33.154 111.562 32.9846 111.688 32.846C111.813 32.7073 111.985 32.5966 112.204 32.514C112.084 32.4606 111.988 32.39 111.916 32.302C111.846 32.2113 111.812 32.09 111.812 31.938C111.812 31.8793 111.822 31.8193 111.844 31.758C111.865 31.694 111.897 31.6313 111.94 31.57C111.985 31.506 112.04 31.446 112.104 31.39C112.168 31.334 112.242 31.2846 112.328 31.242C112.128 31.13 111.972 30.982 111.86 30.798C111.748 30.6113 111.692 30.3953 111.692 30.15C111.692 29.9526 111.729 29.774 111.804 29.614C111.881 29.4513 111.988 29.314 112.124 29.202C112.26 29.0873 112.421 28.9993 112.608 28.938C112.797 28.8766 113.004 28.846 113.228 28.846C113.404 28.846 113.568 28.866 113.72 28.906C113.872 28.9433 114.01 28.9993 114.136 29.074H115.236Z" fill="white"/>
<path d="M116.688 29.454C116.861 29.27 117.053 29.1233 117.264 29.014C117.475 28.9046 117.717 28.85 117.992 28.85C118.213 28.85 118.408 28.8873 118.576 28.962C118.747 29.034 118.888 29.138 119 29.274C119.115 29.4073 119.201 29.5686 119.26 29.758C119.319 29.9473 119.348 30.1566 119.348 30.386V32.966H118.632V30.386C118.632 30.0793 118.561 29.842 118.42 29.674C118.281 29.5033 118.069 29.418 117.784 29.418C117.573 29.418 117.376 29.4686 117.192 29.57C117.011 29.6713 116.843 29.8086 116.688 29.982V32.966H115.972V27.074H116.688V29.454Z" fill="white"/>
<path d="M121.622 33.03C121.302 33.03 121.055 32.9406 120.882 32.762C120.711 32.5833 120.626 32.326 120.626 31.99V29.51H120.138C120.095 29.51 120.059 29.498 120.03 29.474C120.001 29.4473 119.986 29.4073 119.986 29.354V29.07L120.65 28.986L120.814 27.734C120.822 27.694 120.839 27.662 120.866 27.638C120.895 27.6113 120.933 27.598 120.978 27.598H121.338V28.994H122.51V29.51H121.338V31.942C121.338 32.1126 121.379 32.2393 121.462 32.322C121.545 32.4046 121.651 32.446 121.782 32.446C121.857 32.446 121.921 32.4366 121.974 32.418C122.03 32.3966 122.078 32.374 122.118 32.35C122.158 32.326 122.191 32.3046 122.218 32.286C122.247 32.2646 122.273 32.254 122.294 32.254C122.331 32.254 122.365 32.2766 122.394 32.322L122.602 32.662C122.479 32.7766 122.331 32.8673 122.158 32.934C121.985 32.998 121.806 33.03 121.622 33.03Z" fill="white"/>
</g>
<defs>
<clipPath id="clip0_205_20206">
<rect width="135" height="36" fill="white"/>
</clipPath>
</defs>
</svg>
