<svg width="92" height="42" viewBox="0 0 92 42" fill="none" xmlns="http://www.w3.org/2000/svg">
<g clip-path="url(#clip0_205_19797)">
<rect x="30.5" y="14.75" width="31" height="12.5" fill="white" fill-opacity="0.2"/>
<rect x="61" y="28.75" width="31" height="12.5" fill="white" fill-opacity="0.2"/>
<rect y="0.75" width="31" height="12.5" fill="white" fill-opacity="0.2"/>
<path d="M15.5325 6.53598C15.5325 6.96531 15.4645 7.35998 15.3285 7.71998C15.1925 8.07731 15.0005 8.38531 14.7525 8.64398C14.5045 8.90264 14.2058 9.10398 13.8565 9.24798C13.5098 9.38931 13.1258 9.45998 12.7045 9.45998C12.2832 9.45998 11.8992 9.38931 11.5525 9.24798C11.2058 9.10398 10.9085 8.90264 10.6605 8.64398C10.4125 8.38531 10.2205 8.07731 10.0845 7.71998C9.94849 7.35998 9.88049 6.96531 9.88049 6.53598C9.88049 6.10664 9.94849 5.71331 10.0845 5.35598C10.2205 4.99598 10.4125 4.68664 10.6605 4.42798C10.9085 4.16664 11.2058 3.96398 11.5525 3.81998C11.8992 3.67598 12.2832 3.60398 12.7045 3.60398C13.1258 3.60398 13.5098 3.67598 13.8565 3.81998C14.2058 3.96398 14.5045 4.16664 14.7525 4.42798C15.0005 4.68664 15.1925 4.99598 15.3285 5.35598C15.4645 5.71331 15.5325 6.10664 15.5325 6.53598ZM14.7365 6.53598C14.7365 6.18398 14.6885 5.86798 14.5925 5.58798C14.4965 5.30798 14.3605 5.07198 14.1845 4.87998C14.0085 4.68531 13.7952 4.53598 13.5445 4.43198C13.2938 4.32798 13.0138 4.27598 12.7045 4.27598C12.3978 4.27598 12.1192 4.32798 11.8685 4.43198C11.6178 4.53598 11.4032 4.68531 11.2245 4.87998C11.0485 5.07198 10.9125 5.30798 10.8165 5.58798C10.7205 5.86798 10.6725 6.18398 10.6725 6.53598C10.6725 6.88798 10.7205 7.20398 10.8165 7.48398C10.9125 7.76131 11.0485 7.99731 11.2245 8.19198C11.4032 8.38398 11.6178 8.53198 11.8685 8.63598C12.1192 8.73731 12.3978 8.78798 12.7045 8.78798C13.0138 8.78798 13.2938 8.73731 13.5445 8.63598C13.7952 8.53198 14.0085 8.38398 14.1845 8.19198C14.3605 7.99731 14.4965 7.76131 14.5925 7.48398C14.6885 7.20398 14.7365 6.88798 14.7365 6.53598Z" fill="white"/>
<path d="M16.7075 9.39998V5.95598L16.2595 5.90398C16.2035 5.89064 16.1568 5.87064 16.1195 5.84398C16.0848 5.81464 16.0675 5.77331 16.0675 5.71998V5.42798H16.7075V5.09598C16.7075 4.86398 16.7395 4.65864 16.8035 4.47998C16.8702 4.29864 16.9635 4.14664 17.0835 4.02398C17.2062 3.89864 17.3528 3.80398 17.5235 3.73998C17.6942 3.67598 17.8862 3.64398 18.0995 3.64398C18.2808 3.64398 18.4475 3.67064 18.5995 3.72398L18.5835 4.08398C18.5782 4.14798 18.5422 4.18264 18.4755 4.18798C18.4115 4.19331 18.3248 4.19598 18.2155 4.19598C18.0928 4.19598 17.9808 4.21198 17.8795 4.24398C17.7808 4.27331 17.6955 4.32398 17.6235 4.39598C17.5515 4.46798 17.4955 4.56398 17.4555 4.68398C17.4182 4.80131 17.3995 4.94664 17.3995 5.11998V5.42798H19.2275V4.99198C19.2275 4.75998 19.2595 4.55464 19.3235 4.37598C19.3902 4.19464 19.4835 4.04264 19.6035 3.91998C19.7262 3.79464 19.8728 3.69998 20.0435 3.63598C20.2142 3.57198 20.4062 3.53998 20.6195 3.53998C20.7982 3.53998 20.9648 3.56664 21.1195 3.61998L21.1035 3.97598C21.0982 4.03998 21.0622 4.07464 20.9955 4.07998C20.9315 4.08531 20.8448 4.08798 20.7355 4.08798C20.6128 4.08798 20.5008 4.10398 20.3995 4.13598C20.3008 4.16798 20.2155 4.21998 20.1435 4.29198C20.0715 4.36398 20.0155 4.45864 19.9755 4.57598C19.9382 4.69331 19.9195 4.83864 19.9195 5.01198V5.42798H21.0875V5.94398H19.9435V9.39998H19.2275V5.94398H17.4235V9.39998H16.7075Z" fill="white"/>
<path d="M46.706 20.504C46.706 20.9334 46.638 21.328 46.502 21.688C46.366 22.0454 46.174 22.3534 45.926 22.612C45.678 22.8707 45.3793 23.072 45.03 23.216C44.6833 23.3574 44.2993 23.428 43.878 23.428C43.4566 23.428 43.0726 23.3574 42.726 23.216C42.3793 23.072 42.082 22.8707 41.834 22.612C41.586 22.3534 41.394 22.0454 41.258 21.688C41.122 21.328 41.054 20.9334 41.054 20.504C41.054 20.0747 41.122 19.6814 41.258 19.324C41.394 18.964 41.586 18.6547 41.834 18.396C42.082 18.1347 42.3793 17.932 42.726 17.788C43.0726 17.644 43.4566 17.572 43.878 17.572C44.2993 17.572 44.6833 17.644 45.03 17.788C45.3793 17.932 45.678 18.1347 45.926 18.396C46.174 18.6547 46.366 18.964 46.502 19.324C46.638 19.6814 46.706 20.0747 46.706 20.504ZM45.91 20.504C45.91 20.152 45.862 19.836 45.766 19.556C45.67 19.276 45.534 19.04 45.358 18.848C45.182 18.6534 44.9686 18.504 44.718 18.4C44.4673 18.296 44.1873 18.244 43.878 18.244C43.5713 18.244 43.2926 18.296 43.042 18.4C42.7913 18.504 42.5766 18.6534 42.398 18.848C42.222 19.04 42.086 19.276 41.99 19.556C41.894 19.836 41.846 20.152 41.846 20.504C41.846 20.856 41.894 21.172 41.99 21.452C42.086 21.7294 42.222 21.9654 42.398 22.16C42.5766 22.352 42.7913 22.5 43.042 22.604C43.2926 22.7054 43.5713 22.756 43.878 22.756C44.1873 22.756 44.4673 22.7054 44.718 22.604C44.9686 22.5 45.182 22.352 45.358 22.16C45.534 21.9654 45.67 21.7294 45.766 21.452C45.862 21.172 45.91 20.856 45.91 20.504Z" fill="white"/>
<path d="M48.2421 19.904C48.3301 19.8054 48.4234 19.716 48.5221 19.636C48.6207 19.556 48.7247 19.488 48.8341 19.432C48.9461 19.3734 49.0634 19.3294 49.1861 19.3C49.3114 19.268 49.4461 19.252 49.5901 19.252C49.8114 19.252 50.0061 19.2894 50.1741 19.364C50.3447 19.436 50.4861 19.54 50.5981 19.676C50.7127 19.8094 50.7994 19.9707 50.8581 20.16C50.9167 20.3494 50.9461 20.5587 50.9461 20.788V23.368H50.2301V20.788C50.2301 20.4814 50.1594 20.244 50.0181 20.076C49.8794 19.9054 49.6674 19.82 49.3821 19.82C49.1714 19.82 48.9741 19.8707 48.7901 19.972C48.6087 20.0734 48.4407 20.2107 48.2861 20.384V23.368H47.5701V19.316H47.9981C48.0994 19.316 48.1621 19.3654 48.1861 19.464L48.2421 19.904Z" fill="white"/>
<path d="M73.449 34.6099V36.8099C73.161 37.0179 72.853 37.1739 72.525 37.2779C72.1997 37.3793 71.8423 37.4299 71.453 37.4299C70.9917 37.4299 70.5757 37.3593 70.205 37.2179C69.8343 37.0739 69.517 36.8739 69.253 36.6179C68.9917 36.3593 68.7903 36.0499 68.649 35.6899C68.5077 35.3299 68.437 34.9339 68.437 34.5019C68.437 34.0646 68.505 33.6659 68.641 33.3059C68.7797 32.9459 68.9757 32.6379 69.229 32.3819C69.4823 32.1233 69.7903 31.9233 70.153 31.7819C70.5157 31.6406 70.921 31.5699 71.369 31.5699C71.5957 31.5699 71.8063 31.5873 72.001 31.6219C72.1957 31.6539 72.3757 31.7019 72.541 31.7659C72.7063 31.8273 72.8597 31.9033 73.001 31.9939C73.1423 32.0819 73.2743 32.1819 73.397 32.2939L73.177 32.6459C73.1423 32.6993 73.097 32.7339 73.041 32.7499C72.9877 32.7633 72.9277 32.7499 72.861 32.7099C72.797 32.6726 72.7237 32.6273 72.641 32.5739C72.5583 32.5206 72.457 32.4699 72.337 32.4219C72.2197 32.3713 72.0797 32.3286 71.917 32.2939C71.757 32.2593 71.5663 32.2419 71.345 32.2419C71.0223 32.2419 70.7303 32.2953 70.469 32.4019C70.2077 32.5059 69.985 32.6566 69.801 32.8539C69.617 33.0486 69.4757 33.2859 69.377 33.5659C69.2783 33.8433 69.229 34.1553 69.229 34.5019C69.229 34.8619 69.2797 35.1846 69.381 35.4699C69.485 35.7526 69.6317 35.9939 69.821 36.1939C70.013 36.3913 70.245 36.5419 70.517 36.6459C70.789 36.7499 71.0943 36.8019 71.433 36.8019C71.6997 36.8019 71.9357 36.7726 72.141 36.7139C72.349 36.6526 72.5517 36.5686 72.749 36.4619V35.2019H71.857C71.8063 35.2019 71.765 35.1873 71.733 35.1579C71.7037 35.1286 71.689 35.0926 71.689 35.0499V34.6099H73.449Z" fill="white"/>
<path d="M76.6413 35.5419C76.3133 35.5526 76.0333 35.5793 75.8013 35.6219C75.572 35.6619 75.384 35.7153 75.2373 35.7819C75.0933 35.8486 74.988 35.9273 74.9213 36.0179C74.8573 36.1086 74.8253 36.2099 74.8253 36.3219C74.8253 36.4286 74.8427 36.5206 74.8773 36.5979C74.912 36.6753 74.9587 36.7393 75.0173 36.7899C75.0787 36.8379 75.1493 36.8739 75.2293 36.8979C75.312 36.9193 75.4 36.9299 75.4933 36.9299C75.6187 36.9299 75.7333 36.9179 75.8373 36.8939C75.9413 36.8673 76.0387 36.8299 76.1293 36.7819C76.2227 36.7339 76.3107 36.6766 76.3933 36.6099C76.4787 36.5433 76.5613 36.4673 76.6413 36.3819V35.5419ZM74.3413 33.8859C74.5653 33.6699 74.8067 33.5086 75.0653 33.4019C75.324 33.2953 75.6107 33.2419 75.9253 33.2419C76.152 33.2419 76.3533 33.2793 76.5293 33.3539C76.7053 33.4286 76.8533 33.5326 76.9733 33.6659C77.0933 33.7993 77.184 33.9606 77.2453 34.1499C77.3067 34.3393 77.3373 34.5473 77.3373 34.7739V37.3659H77.0213C76.952 37.3659 76.8987 37.3553 76.8613 37.3339C76.824 37.3099 76.7947 37.2646 76.7733 37.1979L76.6933 36.8139C76.5867 36.9126 76.4827 37.0006 76.3813 37.0779C76.28 37.1526 76.1733 37.2166 76.0613 37.2699C75.9493 37.3206 75.8293 37.3593 75.7013 37.3859C75.576 37.4153 75.436 37.4299 75.2813 37.4299C75.124 37.4299 74.976 37.4086 74.8373 37.3659C74.6987 37.3206 74.5773 37.2539 74.4733 37.1659C74.372 37.0779 74.2907 36.9673 74.2293 36.8339C74.1707 36.6979 74.1413 36.5379 74.1413 36.3539C74.1413 36.1939 74.1853 36.0406 74.2733 35.8939C74.3613 35.7446 74.504 35.6126 74.7013 35.4979C74.8987 35.3833 75.156 35.2899 75.4733 35.2179C75.7907 35.1433 76.18 35.1006 76.6413 35.0899V34.7739C76.6413 34.4593 76.5733 34.2219 76.4373 34.0619C76.3013 33.8993 76.1027 33.8179 75.8413 33.8179C75.6653 33.8179 75.5173 33.8406 75.3973 33.8859C75.28 33.9286 75.1773 33.9779 75.0893 34.0339C75.004 34.0873 74.9293 34.1366 74.8653 34.1819C74.804 34.2246 74.7427 34.2459 74.6813 34.2459C74.6333 34.2459 74.592 34.2339 74.5573 34.2099C74.5227 34.1833 74.4933 34.1513 74.4693 34.1139L74.3413 33.8859Z" fill="white"/>
<path d="M79.6112 37.4299C79.2912 37.4299 79.0445 37.3406 78.8712 37.1619C78.7005 36.9833 78.6152 36.7259 78.6152 36.3899V33.9099H78.1272C78.0845 33.9099 78.0485 33.8979 78.0192 33.8739C77.9899 33.8473 77.9752 33.8073 77.9752 33.7539V33.4699L78.6392 33.3859L78.8032 32.1339C78.8112 32.0939 78.8285 32.0619 78.8552 32.0379C78.8845 32.0113 78.9219 31.9979 78.9672 31.9979H79.3272V33.3939H80.4992V33.9099H79.3272V36.3419C79.3272 36.5126 79.3685 36.6393 79.4512 36.7219C79.5339 36.8046 79.6405 36.8459 79.7712 36.8459C79.8459 36.8459 79.9099 36.8366 79.9632 36.8179C80.0192 36.7966 80.0672 36.7739 80.1072 36.7499C80.1472 36.7259 80.1805 36.7046 80.2072 36.6859C80.2365 36.6646 80.2619 36.6539 80.2832 36.6539C80.3205 36.6539 80.3539 36.6766 80.3832 36.7219L80.5912 37.0619C80.4685 37.1766 80.3205 37.2673 80.1472 37.3339C79.9739 37.3979 79.7952 37.4299 79.6112 37.4299Z" fill="white"/>
<path d="M83.9229 34.8979C83.9229 34.7326 83.8989 34.5819 83.8509 34.4459C83.8056 34.3073 83.7376 34.1886 83.6469 34.0899C83.5589 33.9886 83.4509 33.9113 83.3229 33.8579C83.1949 33.8019 83.0496 33.7739 82.8869 33.7739C82.5456 33.7739 82.2749 33.8739 82.0749 34.0739C81.8776 34.2713 81.7549 34.5459 81.7069 34.8979H83.9229ZM84.4989 36.7979C84.4109 36.9046 84.3056 36.9979 84.1829 37.0779C84.0603 37.1553 83.9283 37.2193 83.7869 37.2699C83.6483 37.3206 83.5043 37.3579 83.3549 37.3819C83.2056 37.4086 83.0576 37.4219 82.9109 37.4219C82.6309 37.4219 82.3723 37.3753 82.1349 37.2819C81.9003 37.1859 81.6963 37.0473 81.5229 36.8659C81.3523 36.6819 81.2189 36.4553 81.1229 36.1859C81.0269 35.9166 80.9789 35.6073 80.9789 35.2579C80.9789 34.9753 81.0216 34.7113 81.1069 34.4659C81.1949 34.2206 81.3203 34.0086 81.4829 33.8299C81.6456 33.6486 81.8443 33.5073 82.0789 33.4059C82.3136 33.3019 82.5776 33.2499 82.8709 33.2499C83.1136 33.2499 83.3376 33.2913 83.5429 33.3739C83.7509 33.4539 83.9296 33.5713 84.0789 33.7259C84.2309 33.8779 84.3496 34.0673 84.4349 34.2939C84.5203 34.5179 84.563 34.7739 84.563 35.0619C84.563 35.1739 84.5509 35.2486 84.5269 35.2859C84.5029 35.3233 84.4576 35.3419 84.3909 35.3419H81.6829C81.6909 35.5979 81.7256 35.8206 81.7869 36.0099C81.8509 36.1993 81.9389 36.3579 82.0509 36.4859C82.1629 36.6113 82.2963 36.7059 82.4509 36.7699C82.6056 36.8313 82.7789 36.8619 82.9709 36.8619C83.1496 36.8619 83.3029 36.8419 83.4309 36.8019C83.5616 36.7593 83.6736 36.7139 83.7669 36.6659C83.8603 36.6179 83.9376 36.5739 83.9989 36.5339C84.0629 36.4913 84.1176 36.4699 84.1629 36.4699C84.2216 36.4699 84.2669 36.4926 84.2989 36.5379L84.4989 36.7979Z" fill="white"/>
</g>
<defs>
<clipPath id="clip0_205_19797">
<rect width="92" height="42" fill="white"/>
</clipPath>
</defs>
</svg>
