<svg width="16" height="24" viewBox="0 0 16 24" fill="none" xmlns="http://www.w3.org/2000/svg">
<g clip-path="url(#clip0_205_27148)">
<rect x="0.25" y="0.75" width="15.5" height="10.5" stroke="white" stroke-opacity="0.25" stroke-width="0.5"/>
<rect x="0.25" y="12.8029" width="15.5" height="10.5" fill="black" fill-opacity="0.1" stroke="#33FFAC" stroke-width="0.5"/>
<path d="M9.38601 4.39001C9.35801 4.43901 9.32768 4.47518 9.29501 4.49851C9.26468 4.51951 9.22618 4.53001 9.17951 4.53001C9.13051 4.53001 9.07685 4.51251 9.01851 4.47751C8.96251 4.44018 8.89485 4.39935 8.81551 4.35501C8.73618 4.31068 8.64285 4.27101 8.53551 4.23601C8.43051 4.19868 8.30568 4.18001 8.16101 4.18001C8.03035 4.18001 7.91601 4.19635 7.81801 4.22901C7.72001 4.25935 7.63718 4.30251 7.56951 4.35851C7.50418 4.41451 7.45518 4.48218 7.42251 4.56151C7.38985 4.63851 7.37351 4.72368 7.37351 4.81701C7.37351 4.93601 7.40618 5.03518 7.47151 5.11451C7.53918 5.19385 7.62785 5.26151 7.73751 5.31751C7.84718 5.37351 7.97201 5.42368 8.11201 5.46801C8.25201 5.51235 8.39551 5.56018 8.54251 5.61151C8.68951 5.66051 8.83301 5.71885 8.97301 5.78651C9.11301 5.85185 9.23785 5.93585 9.34751 6.03851C9.45718 6.13885 9.54468 6.26251 9.61001 6.40951C9.67768 6.55651 9.71151 6.73501 9.71151 6.94501C9.71151 7.17368 9.67185 7.38835 9.59251 7.58901C9.51551 7.78735 9.40118 7.96118 9.24951 8.11051C9.10018 8.25751 8.91701 8.37418 8.70001 8.46051C8.48301 8.54451 8.23451 8.58651 7.95451 8.58651C7.79351 8.58651 7.63485 8.57018 7.47851 8.53751C7.32218 8.50718 7.17168 8.46285 7.02701 8.40451C6.88468 8.34618 6.75051 8.27618 6.62451 8.19451C6.49851 8.11285 6.38651 8.02185 6.28851 7.92151L6.56501 7.47001C6.58835 7.43735 6.61868 7.41051 6.65601 7.38951C6.69335 7.36618 6.73301 7.35451 6.77501 7.35451C6.83335 7.35451 6.89635 7.37901 6.96401 7.42801C7.03168 7.47468 7.11218 7.52718 7.20551 7.58551C7.29885 7.64385 7.40735 7.69751 7.53101 7.74651C7.65701 7.79318 7.80751 7.81651 7.98251 7.81651C8.25085 7.81651 8.45851 7.75351 8.60551 7.62751C8.75251 7.49918 8.82601 7.31601 8.82601 7.07801C8.82601 6.94501 8.79218 6.83651 8.72451 6.75251C8.65918 6.66851 8.57168 6.59851 8.46201 6.54251C8.35235 6.48418 8.22751 6.43518 8.08751 6.39551C7.94751 6.35585 7.80518 6.31268 7.66051 6.26601C7.51585 6.21935 7.37351 6.16335 7.23351 6.09801C7.09351 6.03268 6.96868 5.94751 6.85901 5.84251C6.74935 5.73751 6.66068 5.60685 6.59301 5.45051C6.52768 5.29185 6.49501 5.09701 6.49501 4.86601C6.49501 4.68168 6.53118 4.50201 6.60351 4.32701C6.67818 4.15201 6.78551 3.99685 6.92551 3.86151C7.06551 3.72618 7.23818 3.61768 7.44351 3.53601C7.64885 3.45435 7.88451 3.41351 8.15051 3.41351C8.44918 3.41351 8.72451 3.46018 8.97651 3.55351C9.22851 3.64685 9.44318 3.77751 9.62051 3.94551L9.38601 4.39001Z" fill="#EEEEEE" fill-opacity="0.5"/>
<path d="M9.38601 16.39C9.35801 16.439 9.32768 16.4752 9.29501 16.4985C9.26468 16.5195 9.22618 16.53 9.17951 16.53C9.13051 16.53 9.07685 16.5125 9.01851 16.4775C8.96251 16.4402 8.89485 16.3993 8.81551 16.355C8.73618 16.3107 8.64285 16.271 8.53551 16.236C8.43051 16.1987 8.30568 16.18 8.16101 16.18C8.03035 16.18 7.91601 16.1963 7.81801 16.229C7.72001 16.2593 7.63718 16.3025 7.56951 16.3585C7.50418 16.4145 7.45518 16.4822 7.42251 16.5615C7.38985 16.6385 7.37351 16.7237 7.37351 16.817C7.37351 16.936 7.40618 17.0352 7.47151 17.1145C7.53918 17.1938 7.62785 17.2615 7.73751 17.3175C7.84718 17.3735 7.97201 17.4237 8.11201 17.468C8.25201 17.5123 8.39551 17.5602 8.54251 17.6115C8.68951 17.6605 8.83301 17.7188 8.97301 17.7865C9.11301 17.8518 9.23785 17.9358 9.34751 18.0385C9.45718 18.1388 9.54468 18.2625 9.61001 18.4095C9.67768 18.5565 9.71151 18.735 9.71151 18.945C9.71151 19.1737 9.67185 19.3883 9.59251 19.589C9.51551 19.7873 9.40118 19.9612 9.24951 20.1105C9.10018 20.2575 8.91701 20.3742 8.70001 20.4605C8.48301 20.5445 8.23451 20.5865 7.95451 20.5865C7.79351 20.5865 7.63485 20.5702 7.47851 20.5375C7.32218 20.5072 7.17168 20.4628 7.02701 20.4045C6.88468 20.3462 6.75051 20.2762 6.62451 20.1945C6.49851 20.1128 6.38651 20.0218 6.28851 19.9215L6.56501 19.47C6.58835 19.4373 6.61868 19.4105 6.65601 19.3895C6.69335 19.3662 6.73301 19.3545 6.77501 19.3545C6.83335 19.3545 6.89635 19.379 6.96401 19.428C7.03168 19.4747 7.11218 19.5272 7.20551 19.5855C7.29885 19.6438 7.40735 19.6975 7.53101 19.7465C7.65701 19.7932 7.80751 19.8165 7.98251 19.8165C8.25085 19.8165 8.45851 19.7535 8.60551 19.6275C8.75251 19.4992 8.82601 19.316 8.82601 19.078C8.82601 18.945 8.79218 18.8365 8.72451 18.7525C8.65918 18.6685 8.57168 18.5985 8.46201 18.5425C8.35235 18.4842 8.22751 18.4352 8.08751 18.3955C7.94751 18.3558 7.80518 18.3127 7.66051 18.266C7.51585 18.2193 7.37351 18.1633 7.23351 18.098C7.09351 18.0327 6.96868 17.9475 6.85901 17.8425C6.74935 17.7375 6.66068 17.6068 6.59301 17.4505C6.52768 17.2918 6.49501 17.097 6.49501 16.866C6.49501 16.6817 6.53118 16.502 6.60351 16.327C6.67818 16.152 6.78551 15.9968 6.92551 15.8615C7.06551 15.7262 7.23818 15.6177 7.44351 15.536C7.64885 15.4543 7.88451 15.4135 8.15051 15.4135C8.44918 15.4135 8.72451 15.4602 8.97651 15.5535C9.22851 15.6468 9.44318 15.7775 9.62051 15.9455L9.38601 16.39Z" fill="#EEEEEE"/>
</g>
<defs>
<clipPath id="clip0_205_27148">
<rect width="16" height="24" fill="white"/>
</clipPath>
</defs>
</svg>
