<svg width="81" height="45" viewBox="0 0 81 45" fill="none" xmlns="http://www.w3.org/2000/svg">
<rect x="1.25" y="1.25" width="24.5" height="12.5" fill="black" fill-opacity="0.1" stroke="#3ABA2F" stroke-width="0.5"/>
<rect x="28.25" y="16.25" width="24.5" height="12.5" fill="black" fill-opacity="0.1" stroke="#3ABA2F" stroke-width="0.5"/>
<rect x="28.25" y="1.25" width="24.5" height="12.5" stroke="white" stroke-opacity="0.25" stroke-width="0.5"/>
<rect x="55.25" y="1.25" width="24.5" height="12.5" stroke="white" stroke-opacity="0.25" stroke-width="0.5"/>
<rect x="1.25" y="16.25" width="24.5" height="12.5" stroke="white" stroke-opacity="0.25" stroke-width="0.5"/>
<rect x="28.25" y="31.25" width="24.5" height="12.5" stroke="white" stroke-opacity="0.25" stroke-width="0.5"/>
<rect x="1.25" y="31.25" width="24.5" height="12.5" stroke="white" stroke-opacity="0.25" stroke-width="0.5"/>
<rect x="55.25" y="16.25" width="24.5" height="12.5" stroke="white" stroke-opacity="0.25" stroke-width="0.5"/>
<rect x="55.25" y="31.25" width="24.5" height="12.5" fill="black" fill-opacity="0.1" stroke="#3ABA2F" stroke-width="0.5"/>
<path d="M42.136 24.504C42.2427 24.504 42.3267 24.5347 42.388 24.596C42.452 24.6547 42.484 24.7333 42.484 24.832V25.424H38.516V25.096C38.516 25.0293 38.5293 24.96 38.556 24.888C38.5853 24.8133 38.6307 24.7467 38.692 24.688L40.448 22.928C40.5947 22.7787 40.7253 22.636 40.84 22.5C40.9573 22.364 41.0547 22.2293 41.132 22.096C41.2093 21.9627 41.268 21.828 41.308 21.692C41.3507 21.5533 41.372 21.408 41.372 21.256C41.372 21.1173 41.352 20.996 41.312 20.892C41.272 20.7853 41.2147 20.696 41.14 20.624C41.068 20.552 40.98 20.4987 40.876 20.464C40.7747 20.4267 40.66 20.408 40.532 20.408C40.4147 20.408 40.3053 20.4253 40.204 20.46C40.1053 20.492 40.0173 20.5387 39.94 20.6C39.8627 20.6587 39.7973 20.728 39.744 20.808C39.6907 20.888 39.6507 20.976 39.624 21.072C39.5787 21.1947 39.52 21.276 39.448 21.316C39.376 21.356 39.272 21.3653 39.136 21.344L38.616 21.252C38.656 20.9747 38.7333 20.732 38.848 20.524C38.9627 20.3133 39.1053 20.1387 39.276 20C39.4493 19.8587 39.6467 19.7533 39.868 19.684C40.092 19.612 40.332 19.576 40.588 19.576C40.8547 19.576 41.0987 19.616 41.32 19.696C41.5413 19.7733 41.7307 19.884 41.888 20.028C42.0453 20.172 42.168 20.3453 42.256 20.548C42.344 20.7507 42.388 20.976 42.388 21.224C42.388 21.4373 42.356 21.6347 42.292 21.816C42.2307 21.9973 42.1467 22.1707 42.04 22.336C41.936 22.5013 41.8133 22.6613 41.672 22.816C41.5307 22.9707 41.3827 23.128 41.228 23.288L39.924 24.62C40.0493 24.5827 40.1733 24.5547 40.296 24.536C40.4213 24.5147 40.54 24.504 40.652 24.504H42.136Z" fill="#EEEEEE"/>
<path d="M42.136 9.50399C42.2427 9.50399 42.3267 9.53466 42.388 9.59599C42.452 9.65466 42.484 9.73332 42.484 9.83199V10.424H38.516V10.096C38.516 10.0293 38.5293 9.95999 38.556 9.88799C38.5853 9.81332 38.6307 9.74666 38.692 9.68799L40.448 7.92799C40.5947 7.77866 40.7253 7.63599 40.84 7.49999C40.9573 7.36399 41.0547 7.22932 41.132 7.09599C41.2093 6.96266 41.268 6.82799 41.308 6.69199C41.3507 6.55332 41.372 6.40799 41.372 6.25599C41.372 6.11732 41.352 5.99599 41.312 5.89199C41.272 5.78532 41.2147 5.69599 41.14 5.62399C41.068 5.55199 40.98 5.49866 40.876 5.46399C40.7747 5.42666 40.66 5.40799 40.532 5.40799C40.4147 5.40799 40.3053 5.42532 40.204 5.45999C40.1053 5.49199 40.0173 5.53866 39.94 5.59999C39.8627 5.65866 39.7973 5.72799 39.744 5.80799C39.6907 5.88799 39.6507 5.97599 39.624 6.07199C39.5787 6.19466 39.52 6.27599 39.448 6.31599C39.376 6.35599 39.272 6.36532 39.136 6.34399L38.616 6.25199C38.656 5.97466 38.7333 5.73199 38.848 5.52399C38.9627 5.31332 39.1053 5.13866 39.276 4.99999C39.4493 4.85866 39.6467 4.75332 39.868 4.68399C40.092 4.61199 40.332 4.57599 40.588 4.57599C40.8547 4.57599 41.0987 4.61599 41.32 4.69599C41.5413 4.77332 41.7307 4.88399 41.888 5.02799C42.0453 5.17199 42.168 5.34532 42.256 5.54799C42.344 5.75066 42.388 5.97599 42.388 6.22399C42.388 6.43732 42.356 6.63466 42.292 6.81599C42.2307 6.99732 42.1467 7.17066 42.04 7.33599C41.936 7.50132 41.8133 7.66132 41.672 7.81599C41.5307 7.97066 41.3827 8.12799 41.228 8.28799L39.924 9.61999C40.0493 9.58266 40.1733 9.55466 40.296 9.53599C40.4213 9.51466 40.54 9.50399 40.652 9.50399H42.136Z" fill="#EEEEEE" fill-opacity="0.5"/>
<path d="M65.668 36.7009C65.708 36.4195 65.7853 36.1732 65.9 35.9621C66.0147 35.7483 66.1573 35.571 66.328 35.4303C66.5013 35.2869 66.6987 35.18 66.92 35.1096C67.144 35.0365 67.384 35 67.64 35C67.9067 35 68.1467 35.0392 68.36 35.1177C68.576 35.1935 68.76 35.3004 68.912 35.4384C69.064 35.5737 69.18 35.7334 69.26 35.9175C69.3427 36.1015 69.384 36.3004 69.384 36.5142C69.384 36.7009 69.3627 36.866 69.32 37.0095C69.28 37.1502 69.2213 37.2733 69.144 37.3789C69.0667 37.4844 68.9707 37.5737 68.856 37.6468C68.7413 37.7199 68.612 37.7808 68.468 37.8295C68.8147 37.9405 69.0733 38.1096 69.244 38.3369C69.4147 38.5643 69.5 38.8498 69.5 39.1935C69.5 39.4858 69.4467 39.7442 69.34 39.9689C69.2333 40.1935 69.0893 40.3829 68.908 40.5372C68.7267 40.6888 68.516 40.8038 68.276 40.8823C68.0387 40.9608 67.7867 41 67.52 41C67.2293 41 66.976 40.9662 66.76 40.8985C66.544 40.8309 66.356 40.7307 66.196 40.5981C66.036 40.4655 65.9 40.3031 65.788 40.111C65.676 39.9188 65.58 39.6969 65.5 39.4452L65.936 39.2625C66.0507 39.2138 66.1573 39.2016 66.256 39.226C66.3573 39.2476 66.4307 39.3018 66.476 39.3884C66.524 39.4831 66.576 39.5765 66.632 39.6685C66.6907 39.7605 66.76 39.843 66.84 39.9161C66.92 39.9865 67.0133 40.0447 67.12 40.0907C67.2293 40.134 67.3587 40.1556 67.508 40.1556C67.676 40.1556 67.8227 40.1286 67.948 40.0744C68.0733 40.0176 68.1773 39.9445 68.26 39.8552C68.3453 39.7659 68.408 39.6671 68.448 39.5589C68.4907 39.4479 68.512 39.3369 68.512 39.226C68.512 39.0853 68.4973 38.9581 68.468 38.8444C68.4387 38.728 68.3773 38.6292 68.284 38.548C68.1907 38.4668 68.056 38.4032 67.88 38.3572C67.7067 38.3112 67.4733 38.2882 67.18 38.2882V37.5737C67.4227 37.571 67.624 37.548 67.784 37.5047C67.944 37.4614 68.0707 37.4019 68.164 37.3261C68.26 37.2476 68.3267 37.1543 68.364 37.046C68.4013 36.9378 68.42 36.8187 68.42 36.6888C68.42 36.4127 68.344 36.203 68.192 36.0595C68.04 35.9161 67.8373 35.8444 67.584 35.8444C67.4667 35.8444 67.3587 35.862 67.26 35.8972C67.1613 35.9296 67.072 35.977 66.992 36.0392C66.9147 36.0988 66.8493 36.1691 66.796 36.2503C66.7427 36.3315 66.7027 36.4208 66.676 36.5183C66.6307 36.6428 66.5707 36.7253 66.496 36.7659C66.424 36.8065 66.3213 36.816 66.188 36.7943L65.668 36.7009Z" fill="#EEEEEE"/>
<path d="M65.668 6.72001C65.708 6.44267 65.7853 6.20001 65.9 5.99201C66.0147 5.78134 66.1573 5.60667 66.328 5.46801C66.5013 5.32667 66.6987 5.22134 66.92 5.15201C67.144 5.08001 67.384 5.04401 67.64 5.04401C67.9067 5.04401 68.1467 5.08267 68.36 5.16001C68.576 5.23467 68.76 5.34001 68.912 5.47601C69.064 5.60934 69.18 5.76667 69.26 5.94801C69.3427 6.12934 69.384 6.32534 69.384 6.53601C69.384 6.72001 69.3627 6.88267 69.32 7.02401C69.28 7.16267 69.2213 7.28401 69.144 7.38801C69.0667 7.49201 68.9707 7.58001 68.856 7.65201C68.7413 7.72401 68.612 7.78401 68.468 7.83201C68.8147 7.94134 69.0733 8.10801 69.244 8.33201C69.4147 8.55601 69.5 8.83734 69.5 9.17601C69.5 9.46401 69.4467 9.71867 69.34 9.94001C69.2333 10.1613 69.0893 10.348 68.908 10.5C68.7267 10.6493 68.516 10.7627 68.276 10.84C68.0387 10.9173 67.7867 10.956 67.52 10.956C67.2293 10.956 66.976 10.9227 66.76 10.856C66.544 10.7893 66.356 10.6907 66.196 10.56C66.036 10.4293 65.9 10.2693 65.788 10.08C65.676 9.89067 65.58 9.67201 65.5 9.42401L65.936 9.24401C66.0507 9.19601 66.1573 9.18401 66.256 9.20801C66.3573 9.22934 66.4307 9.28267 66.476 9.36801C66.524 9.46134 66.576 9.55334 66.632 9.64401C66.6907 9.73467 66.76 9.81601 66.84 9.88801C66.92 9.95734 67.0133 10.0147 67.12 10.06C67.2293 10.1027 67.3587 10.124 67.508 10.124C67.676 10.124 67.8227 10.0973 67.948 10.044C68.0733 9.98801 68.1773 9.91601 68.26 9.82801C68.3453 9.74001 68.408 9.64267 68.448 9.53601C68.4907 9.42667 68.512 9.31734 68.512 9.20801C68.512 9.06934 68.4973 8.94401 68.468 8.83201C68.4387 8.71734 68.3773 8.62001 68.284 8.54001C68.1907 8.46001 68.056 8.39734 67.88 8.35201C67.7067 8.30667 67.4733 8.28401 67.18 8.28401V7.58001C67.4227 7.57734 67.624 7.55467 67.784 7.51201C67.944 7.46934 68.0707 7.41067 68.164 7.33601C68.26 7.25867 68.3267 7.16667 68.364 7.06001C68.4013 6.95334 68.42 6.83601 68.42 6.70801C68.42 6.43601 68.344 6.22934 68.192 6.08801C68.04 5.94667 67.8373 5.87601 67.584 5.87601C67.4667 5.87601 67.3587 5.89334 67.26 5.92801C67.1613 5.96001 67.072 6.00667 66.992 6.06801C66.9147 6.12667 66.8493 6.19601 66.796 6.27601C66.7427 6.35601 66.7027 6.44401 66.676 6.54001C66.6307 6.66267 66.5707 6.74401 66.496 6.78401C66.424 6.82401 66.3213 6.83334 66.188 6.81201L65.668 6.72001Z" fill="#EEEEEE" fill-opacity="0.5"/>
<path d="M15.308 9.656V10.396H12.108V9.656H13.28V6.284C13.28 6.15067 13.284 6.01334 13.292 5.872L12.46 6.568C12.412 6.60534 12.364 6.62934 12.316 6.64C12.2707 6.648 12.2267 6.648 12.184 6.64C12.144 6.632 12.108 6.61867 12.076 6.6C12.044 6.57867 12.02 6.556 12.004 6.532L11.692 6.104L13.456 4.604H14.268V9.656H15.308Z" fill="#EEEEEE"/>
<path d="M65.668 21.72C65.708 21.4427 65.7853 21.2 65.9 20.992C66.0147 20.7813 66.1573 20.6067 66.328 20.468C66.5013 20.3267 66.6987 20.2213 66.92 20.152C67.144 20.08 67.384 20.044 67.64 20.044C67.9067 20.044 68.1467 20.0827 68.36 20.16C68.576 20.2347 68.76 20.34 68.912 20.476C69.064 20.6093 69.18 20.7667 69.26 20.948C69.3427 21.1293 69.384 21.3253 69.384 21.536C69.384 21.72 69.3627 21.8827 69.32 22.024C69.28 22.1627 69.2213 22.284 69.144 22.388C69.0667 22.492 68.9707 22.58 68.856 22.652C68.7413 22.724 68.612 22.784 68.468 22.832C68.8147 22.9413 69.0733 23.108 69.244 23.332C69.4147 23.556 69.5 23.8373 69.5 24.176C69.5 24.464 69.4467 24.7187 69.34 24.94C69.2333 25.1613 69.0893 25.348 68.908 25.5C68.7267 25.6493 68.516 25.7627 68.276 25.84C68.0387 25.9173 67.7867 25.956 67.52 25.956C67.2293 25.956 66.976 25.9227 66.76 25.856C66.544 25.7893 66.356 25.6907 66.196 25.56C66.036 25.4293 65.9 25.2693 65.788 25.08C65.676 24.8907 65.58 24.672 65.5 24.424L65.936 24.244C66.0507 24.196 66.1573 24.184 66.256 24.208C66.3573 24.2293 66.4307 24.2827 66.476 24.368C66.524 24.4613 66.576 24.5533 66.632 24.644C66.6907 24.7347 66.76 24.816 66.84 24.888C66.92 24.9573 67.0133 25.0147 67.12 25.06C67.2293 25.1027 67.3587 25.124 67.508 25.124C67.676 25.124 67.8227 25.0973 67.948 25.044C68.0733 24.988 68.1773 24.916 68.26 24.828C68.3453 24.74 68.408 24.6427 68.448 24.536C68.4907 24.4267 68.512 24.3173 68.512 24.208C68.512 24.0693 68.4973 23.944 68.468 23.832C68.4387 23.7173 68.3773 23.62 68.284 23.54C68.1907 23.46 68.056 23.3973 67.88 23.352C67.7067 23.3067 67.4733 23.284 67.18 23.284V22.58C67.4227 22.5773 67.624 22.5547 67.784 22.512C67.944 22.4693 68.0707 22.4107 68.164 22.336C68.26 22.2587 68.3267 22.1667 68.364 22.06C68.4013 21.9533 68.42 21.836 68.42 21.708C68.42 21.436 68.344 21.2293 68.192 21.088C68.04 20.9467 67.8373 20.876 67.584 20.876C67.4667 20.876 67.3587 20.8933 67.26 20.928C67.1613 20.96 67.072 21.0067 66.992 21.068C66.9147 21.1267 66.8493 21.196 66.796 21.276C66.7427 21.356 66.7027 21.444 66.676 21.54C66.6307 21.6627 66.5707 21.744 66.496 21.784C66.424 21.824 66.3213 21.8333 66.188 21.812L65.668 21.72Z" fill="#EEEEEE" fill-opacity="0.5"/>
<path d="M15.308 24.656V25.396H12.108V24.656H13.28V21.284C13.28 21.1507 13.284 21.0133 13.292 20.872L12.46 21.568C12.412 21.6053 12.364 21.6293 12.316 21.64C12.2707 21.648 12.2267 21.648 12.184 21.64C12.144 21.632 12.108 21.6187 12.076 21.6C12.044 21.5787 12.02 21.556 12.004 21.532L11.692 21.104L13.456 19.604H14.268V24.656H15.308Z" fill="#EEEEEE" fill-opacity="0.5"/>
<path d="M42.136 39.504C42.2427 39.504 42.3267 39.5347 42.388 39.596C42.452 39.6547 42.484 39.7333 42.484 39.832V40.424H38.516V40.096C38.516 40.0293 38.5293 39.96 38.556 39.888C38.5853 39.8133 38.6307 39.7467 38.692 39.688L40.448 37.928C40.5947 37.7787 40.7253 37.636 40.84 37.5C40.9573 37.364 41.0547 37.2293 41.132 37.096C41.2093 36.9627 41.268 36.828 41.308 36.692C41.3507 36.5533 41.372 36.408 41.372 36.256C41.372 36.1173 41.352 35.996 41.312 35.892C41.272 35.7853 41.2147 35.696 41.14 35.624C41.068 35.552 40.98 35.4987 40.876 35.464C40.7747 35.4267 40.66 35.408 40.532 35.408C40.4147 35.408 40.3053 35.4253 40.204 35.46C40.1053 35.492 40.0173 35.5387 39.94 35.6C39.8627 35.6587 39.7973 35.728 39.744 35.808C39.6907 35.888 39.6507 35.976 39.624 36.072C39.5787 36.1947 39.52 36.276 39.448 36.316C39.376 36.356 39.272 36.3653 39.136 36.344L38.616 36.252C38.656 35.9747 38.7333 35.732 38.848 35.524C38.9627 35.3133 39.1053 35.1387 39.276 35C39.4493 34.8587 39.6467 34.7533 39.868 34.684C40.092 34.612 40.332 34.576 40.588 34.576C40.8547 34.576 41.0987 34.616 41.32 34.696C41.5413 34.7733 41.7307 34.884 41.888 35.028C42.0453 35.172 42.168 35.3453 42.256 35.548C42.344 35.7507 42.388 35.976 42.388 36.224C42.388 36.4373 42.356 36.6347 42.292 36.816C42.2307 36.9973 42.1467 37.1707 42.04 37.336C41.936 37.5013 41.8133 37.6613 41.672 37.816C41.5307 37.9707 41.3827 38.128 41.228 38.288L39.924 39.62C40.0493 39.5827 40.1733 39.5547 40.296 39.536C40.4213 39.5147 40.54 39.504 40.652 39.504H42.136Z" fill="#EEEEEE" fill-opacity="0.5"/>
<path d="M15.308 39.656V40.396H12.108V39.656H13.28V36.284C13.28 36.1507 13.284 36.0133 13.292 35.872L12.46 36.568C12.412 36.6053 12.364 36.6293 12.316 36.64C12.2707 36.648 12.2267 36.648 12.184 36.64C12.144 36.632 12.108 36.6187 12.076 36.6C12.044 36.5787 12.02 36.556 12.004 36.532L11.692 36.104L13.456 34.604H14.268V39.656H15.308Z" fill="#EEEEEE" fill-opacity="0.5"/>
</svg>
