<svg width="20" height="180" viewBox="0 0 20 180" fill="none" xmlns="http://www.w3.org/2000/svg">
<g clip-path="url(#clip0_205_25134)">
<path d="M20 1H0V17H20V1Z" fill="#2E2E2E"/>
<path d="M20 91H0V107H20V91Z" fill="#2E2E2E"/>
<path d="M20 145H0V161H20V145Z" fill="#2E2E2E"/>
<path d="M20 37H0V53H20V37Z" fill="#2E2E2E"/>
<path d="M20 73H0V89H20V73Z" fill="#2E2E2E"/>
<path d="M20 127H0V143H20V127Z" fill="#2E2E2E"/>
<path d="M20 163H0V179H20V163Z" fill="#2E2E2E"/>
<path d="M20 19H0V35H20V19Z" fill="#2E2E2E"/>
<path d="M20 55H0V71H20V55Z" fill="#2E2E2E"/>
<path d="M20 109H0V125H20V109Z" fill="#2E2E2E"/>
<path d="M20 91H0V107H20V91Z" fill="black" fill-opacity="0.1"/>
<path d="M20 145H0V161H20V145Z" fill="black" fill-opacity="0.1"/>
<path d="M20 37H0V53H20V37Z" fill="black" fill-opacity="0.1"/>
<path d="M20 73H0V89H20V73Z" fill="black" fill-opacity="0.1"/>
<path d="M20 127H0V143H20V127Z" fill="black" fill-opacity="0.1"/>
<path d="M20 163H0V179H20V163Z" fill="black" fill-opacity="0.1"/>
<path d="M20 19H0V35H20V19Z" fill="black" fill-opacity="0.1"/>
<path d="M18.6545 125L0 117.539V125H18.6545Z" fill="#3ABA2F" fill-opacity="0.6"/>
<path d="M0 55.6403V71H20V63.5H19.9037L0.0848408 55.5724L0 55.6403Z" fill="#3ABA2F" fill-opacity="0.6"/>
<path d="M20 19.6395L0.800354 35H20V19.6395Z" fill="#3ABA2F" fill-opacity="0.6"/>
<path d="M16.5408 161C15.4341 160.819 14.2774 160.608 13.1108 160.364C10.1049 159.736 7.00885 158.883 4.52795 157.735C2.55255 156.821 0.872112 155.676 0 154.23V161H16.5408Z" fill="#3ABA2F" fill-opacity="0.6"/>
<path d="M0 92.6805V107H20V99.5H19.9909C17.9903 99.5 13.3195 99.5 8.95061 98.4871C5.1924 97.6158 1.44891 95.9436 0 92.6805Z" fill="#3ABA2F" fill-opacity="0.6"/>
<path d="M20 171.729C19.9228 171.653 19.8473 171.577 19.7736 171.5H0V179H20V171.729Z" fill="#3ABA2F" fill-opacity="0.6"/>
<path d="M20 38.0262C19.7972 38.377 19.5227 38.83 19.1733 39.3608C18.3214 40.655 17.0227 42.4141 15.2304 44.2835C12.2005 47.4437 7.7534 50.9251 1.66675 53H20V38.0262Z" fill="#3ABA2F" fill-opacity="0.6"/>
<path d="M20 2.68054C19.8367 2.31287 19.7026 1.92499 19.6009 1.51575C19.5352 1.51971 19.4619 1.5246 19.3815 1.53076C18.9739 1.56195 18.3817 1.62457 17.6535 1.75049C16.1962 2.0025 14.1995 2.5069 12.0476 3.51526C7.87177 5.47198 3.09068 9.33392 0.526733 17H20V2.68054Z" fill="#3ABA2F" fill-opacity="0.6"/>
<path d="M17.5236 143C16.2593 142.723 14.8459 142.384 13.3737 141.982C10.8418 141.291 8.12561 140.408 5.69017 139.316C3.46181 138.316 1.43312 137.126 0 135.719V143H17.5236Z" fill="#3ABA2F" fill-opacity="0.6"/>
<path d="M20 81.5C17.9418 81.5 14.1388 80.9896 10.2205 79.7259C6.54462 78.5403 2.69653 76.6694 0.0993881 73.8698C0.068367 73.9245 0.0352478 73.9824 0 74.0432V89H20V81.5Z" fill="#3ABA2F" fill-opacity="0.6"/>
<rect x="19.8125" y="1.5625" width="0.125" height="15.375" stroke="#3ABA2F" stroke-opacity="0.9" stroke-width="0.125"/>
<rect x="19.8125" y="99.4625" width="0.125" height="7.475" stroke="#3ABA2F" stroke-opacity="0.9" stroke-width="0.125"/>
<rect x="19.8125" y="19.5625" width="0.125" height="15.375" stroke="#3ABA2F" stroke-opacity="0.9" stroke-width="0.125"/>
<rect x="19.8125" y="63.4625" width="0.125" height="7.475" stroke="#3ABA2F" stroke-opacity="0.9" stroke-width="0.125"/>
<rect x="19.8125" y="37.5625" width="0.125" height="15.375" stroke="#3ABA2F" stroke-opacity="0.9" stroke-width="0.125"/>
<rect x="19.8125" y="81.4625" width="0.125" height="7.475" stroke="#3ABA2F" stroke-opacity="0.9" stroke-width="0.125"/>
<rect x="19.8125" y="171.463" width="0.125" height="7.475" stroke="#3ABA2F" stroke-opacity="0.9" stroke-width="0.125"/>
<path d="M20 55H0V71H20V55Z" fill="black" fill-opacity="0.1"/>
<path d="M20 109H0V125H20V109Z" fill="black" fill-opacity="0.22"/>
<path d="M0 117V117.539L18.6545 125H20.0008L0 117Z" fill="#3ABA2F"/>
<path d="M0.0848408 55.5725L0 55.6403L3.8147e-06 55L20 63V63.5H19.9037L0.0848408 55.5725Z" fill="#3ABA2F"/>
<path d="M19.9989 19L20 19.0004V19.6395L0.800365 35H0L19.9989 19Z" fill="#3ABA2F"/>
<path d="M0 154.23C0.872112 155.676 2.55255 156.821 4.52795 157.735C7.00885 158.883 10.1049 159.736 13.1108 160.364C14.2774 160.608 15.4341 160.819 16.5408 161H20.0224C13.1694 160.127 1.40559 157.924 0 153V154.23Z" fill="#3ABA2F"/>
<path d="M8.95061 98.4871C5.1924 97.6157 1.44891 95.9436 0 92.6805L0.0001297 91C1.49866 98.9999 16.0037 99 20 99V99.5H19.9909C17.9903 99.5 13.3195 99.5 8.95061 98.4871Z" fill="#3ABA2F"/>
<path d="M19.7736 171.5H0V171H19.9902L20 171.011V171.729C19.9228 171.653 19.8473 171.577 19.7736 171.5Z" fill="#3ABA2F"/>
<path d="M19.9902 37L20 37.0118V38.0262C19.7972 38.3769 19.5227 38.83 19.1733 39.3608C18.3214 40.655 17.0227 42.4141 15.2304 44.2835C12.2005 47.4437 7.75339 50.9251 1.66675 53H0C12.4881 49.3988 18.484 39.7319 19.7375 37.4755C19.9074 37.1697 19.9902 37 19.9902 37Z" fill="#3ABA2F"/>
<path d="M20 1C19.9496 1.00005 5.24406 1.02741 0 17H0.526737C3.09069 9.33391 7.87178 5.47198 12.0476 3.51526C14.1995 2.50687 16.1962 2.00249 17.6535 1.7505C18.3818 1.62458 18.9739 1.56193 19.3815 1.53077C19.4619 1.52462 19.5352 1.5197 19.6009 1.51576C19.7026 1.92497 19.8367 2.31285 20 2.68054V1Z" fill="#3ABA2F"/>
<path d="M3.8147e-06 135.719C1.43312 137.126 3.46181 138.316 5.69017 139.316C8.12561 140.408 10.8418 141.291 13.3737 141.982C14.8459 142.384 16.2593 142.723 17.5236 143H20.0042C14.8227 142.005 4.09986 139.476 0 135L3.8147e-06 135.719Z" fill="#3ABA2F"/>
<path d="M0.0993881 73.8698C0.0683689 73.9245 0.0352449 73.9824 0 74.0432V73C0.114637 73.1377 0.232438 73.2733 0.353247 73.4068C5.49697 79.0907 16.0935 81 20 81V81.5C17.9418 81.5 14.1388 80.9896 10.2205 79.7259C6.54462 78.5403 2.69653 76.6695 0.0993881 73.8698Z" fill="#3ABA2F"/>
<path d="M6.67 1H0V17H6.67V1Z" fill="white" fill-opacity="0.4"/>
<path d="M20 145H13.33V161H20V145Z" fill="white" fill-opacity="0.4"/>
<path d="M20 91H13.33V107H20V91Z" fill="white" fill-opacity="0.4"/>
<path d="M13.3367 19H6.66669V35H13.3367V19Z" fill="white" fill-opacity="0.4"/>
<path d="M6.67 109H0V125H6.67V109Z" fill="white" fill-opacity="0.4"/>
<path d="M6.67 55H0V71H6.67V55Z" fill="white" fill-opacity="0.4"/>
<path d="M20 37H13.33V53H20V37Z" fill="white" fill-opacity="0.4"/>
<path d="M13.3367 127H6.66669V143H13.3367V127Z" fill="white" fill-opacity="0.4"/>
<path d="M13.3367 73H6.66669V89H13.3367V73Z" fill="white" fill-opacity="0.4"/>
</g>
<defs>
<clipPath id="clip0_205_25134">
<rect width="20" height="180" fill="white"/>
</clipPath>
</defs>
</svg>
