<svg width="399" height="84" viewBox="0 0 399 84" fill="none" xmlns="http://www.w3.org/2000/svg">
<rect x="7.5" y="6" width="118" height="2" fill="#282828" stroke="#151515"/>
<path d="M12.8347 3.5H11.8678V5.5H12.8347V3.5Z" fill="#151515"/>
<path d="M12.8347 8.5H11.8678V10.5H12.8347V8.5Z" fill="#151515"/>
<path d="M121.132 3.5H120.165V5.5H121.132V3.5Z" fill="#151515"/>
<path d="M121.132 8.5H120.165V10.5H121.132V8.5Z" fill="#151515"/>
<rect x="7.5" y="20" width="118" height="2" fill="#282828" stroke="#151515"/>
<path d="M12.8347 17.5H11.8678V19.5H12.8347V17.5Z" fill="#151515"/>
<path d="M12.8347 22.5H11.8678V24.5H12.8347V22.5Z" fill="#151515"/>
<path d="M121.132 17.5H120.165V19.5H121.132V17.5Z" fill="#151515"/>
<path d="M121.132 22.5H120.165V24.5H121.132V22.5Z" fill="#151515"/>
<path d="M66.9834 22.5H66.0165V23.5H66.9834V22.5Z" fill="#151515"/>
<path d="M66.9834 18.5H66.0165V19.5H66.9834V18.5Z" fill="#151515"/>
<rect x="7.5" y="34" width="118" height="2" fill="#282828" stroke="#151515"/>
<path d="M12.8347 31.5H11.8678V33.5H12.8347V31.5Z" fill="#151515"/>
<path d="M12.8347 36.5H11.8678V38.5H12.8347V36.5Z" fill="#151515"/>
<path d="M26.3718 36.5H25.4049V38.16H26.3718V36.5Z" fill="#151515"/>
<path d="M39.9091 36.5H38.9421V37.83H39.9091V36.5Z" fill="#151515"/>
<path d="M53.4463 36.5H52.4794V37.5H53.4463V36.5Z" fill="#151515"/>
<path d="M80.5207 32.5H79.5537V33.5H80.5207V32.5Z" fill="#151515"/>
<path d="M94.0579 32.17H93.0909V33.5H94.0579V32.17Z" fill="#151515"/>
<path d="M107.595 31.84H106.628V33.5H107.595V31.84Z" fill="#151515"/>
<path d="M121.132 31.5H120.165V33.5H121.132V31.5Z" fill="#151515"/>
<path d="M121.132 36.5H120.165V38.5H121.132V36.5Z" fill="#151515"/>
<path d="M66.9834 36.5H66.0165V38.5H66.9834V36.5Z" fill="#151515"/>
<path d="M66.9834 31.5H66.0165V33.5H66.9834V31.5Z" fill="#151515"/>
<rect x="7.5" y="48" width="118" height="2" fill="#282828" stroke="#151515"/>
<path d="M12.8347 45.5H11.8678V47.5H12.8347V45.5Z" fill="#151515"/>
<path d="M12.8347 50.5H11.8678V52.5H12.8347V50.5Z" fill="#151515"/>
<path d="M121.132 45.5H120.165V47.5H121.132V45.5Z" fill="#151515"/>
<path d="M121.132 50.5H120.165V52.5H121.132V50.5Z" fill="#151515"/>
<rect x="7.5" y="62" width="118" height="2" fill="#282828" stroke="#151515"/>
<path d="M12.8347 59.5H11.8678V61.5H12.8347V59.5Z" fill="#151515"/>
<path d="M12.8347 64.5H11.8678V66.5H12.8347V64.5Z" fill="#151515"/>
<path d="M121.132 59.5H120.165V61.5H121.132V59.5Z" fill="#151515"/>
<path d="M121.132 64.5H120.165V66.5H121.132V64.5Z" fill="#151515"/>
<path d="M66.9834 64.5H66.0165V65.5H66.9834V64.5Z" fill="#151515"/>
<path d="M66.9834 60.5H66.0165V61.5H66.9834V60.5Z" fill="#151515"/>
<rect x="7.5" y="76" width="118" height="2" fill="#282828" stroke="#151515"/>
<path d="M12.8347 73.5H11.8678V75.5H12.8347V73.5Z" fill="#151515"/>
<path d="M12.8347 78.5H11.8678V80.5H12.8347V78.5Z" fill="#151515"/>
<path d="M26.3718 78.5H25.4049V80.16H26.3718V78.5Z" fill="#151515"/>
<path d="M39.9091 78.5H38.9421V79.83H39.9091V78.5Z" fill="#151515"/>
<path d="M53.4463 78.5H52.4794V79.5H53.4463V78.5Z" fill="#151515"/>
<path d="M80.5207 74.5H79.5537V75.5H80.5207V74.5Z" fill="#151515"/>
<path d="M94.0579 74.17H93.0909V75.5H94.0579V74.17Z" fill="#151515"/>
<path d="M107.595 73.84H106.628V75.5H107.595V73.84Z" fill="#151515"/>
<path d="M121.132 73.5H120.165V75.5H121.132V73.5Z" fill="#151515"/>
<path d="M121.132 78.5H120.165V80.5H121.132V78.5Z" fill="#151515"/>
<path d="M66.9834 78.5H66.0165V80.5H66.9834V78.5Z" fill="#151515"/>
<path d="M66.9834 73.5H66.0165V75.5H66.9834V73.5Z" fill="#151515"/>
<rect x="140.5" y="6" width="118" height="2" fill="#7A7A7A" stroke="#151515"/>
<path d="M145.835 3.5H144.868V5.5H145.835V3.5Z" fill="#151515"/>
<path d="M145.835 8.5H144.868V10.5H145.835V8.5Z" fill="#151515"/>
<path d="M254.132 3.5H253.165V5.5H254.132V3.5Z" fill="#151515"/>
<path d="M254.132 8.5H253.165V10.5H254.132V8.5Z" fill="#151515"/>
<rect x="140.5" y="20" width="118" height="2" fill="#7A7A7A" stroke="#151515"/>
<path d="M145.835 17.5H144.868V19.5H145.835V17.5Z" fill="#151515"/>
<path d="M145.835 22.5H144.868V24.5H145.835V22.5Z" fill="#151515"/>
<path d="M254.132 17.5H253.165V19.5H254.132V17.5Z" fill="#151515"/>
<path d="M254.132 22.5H253.165V24.5H254.132V22.5Z" fill="#151515"/>
<path d="M199.983 22.5H199.016V23.5H199.983V22.5Z" fill="#151515"/>
<path d="M199.983 18.5H199.016V19.5H199.983V18.5Z" fill="#151515"/>
<rect x="140.5" y="34" width="118" height="2" fill="#7A7A7A" stroke="#151515"/>
<path d="M145.835 31.5H144.868V33.5H145.835V31.5Z" fill="#151515"/>
<path d="M145.835 36.5H144.868V38.5H145.835V36.5Z" fill="#151515"/>
<path d="M159.372 36.5H158.405V38.16H159.372V36.5Z" fill="#151515"/>
<path d="M172.909 36.5H171.942V37.83H172.909V36.5Z" fill="#151515"/>
<path d="M186.446 36.5H185.479V37.5H186.446V36.5Z" fill="#151515"/>
<path d="M213.521 32.5H212.554V33.5H213.521V32.5Z" fill="#151515"/>
<path d="M227.058 32.17H226.091V33.5H227.058V32.17Z" fill="#151515"/>
<path d="M240.595 31.84H239.628V33.5H240.595V31.84Z" fill="#151515"/>
<path d="M254.132 31.5H253.165V33.5H254.132V31.5Z" fill="#151515"/>
<path d="M254.132 36.5H253.165V38.5H254.132V36.5Z" fill="#151515"/>
<path d="M199.983 36.5H199.016V38.5H199.983V36.5Z" fill="#151515"/>
<path d="M199.983 31.5H199.016V33.5H199.983V31.5Z" fill="#151515"/>
<rect x="140.5" y="48" width="118" height="2" fill="#7A7A7A" stroke="#151515"/>
<path d="M145.835 45.5H144.868V47.5H145.835V45.5Z" fill="#151515"/>
<path d="M145.835 50.5H144.868V52.5H145.835V50.5Z" fill="#151515"/>
<path d="M254.132 45.5H253.165V47.5H254.132V45.5Z" fill="#151515"/>
<path d="M254.132 50.5H253.165V52.5H254.132V50.5Z" fill="#151515"/>
<rect x="140.5" y="62" width="118" height="2" fill="#7A7A7A" stroke="#151515"/>
<path d="M145.835 59.5H144.868V61.5H145.835V59.5Z" fill="#151515"/>
<path d="M145.835 64.5H144.868V66.5H145.835V64.5Z" fill="#151515"/>
<path d="M254.132 59.5H253.165V61.5H254.132V59.5Z" fill="#151515"/>
<path d="M254.132 64.5H253.165V66.5H254.132V64.5Z" fill="#151515"/>
<path d="M199.983 64.5H199.016V65.5H199.983V64.5Z" fill="#151515"/>
<path d="M199.983 60.5H199.016V61.5H199.983V60.5Z" fill="#151515"/>
<rect x="140.5" y="76" width="118" height="2" fill="#7A7A7A" stroke="#151515"/>
<path d="M145.835 73.5H144.868V75.5H145.835V73.5Z" fill="#151515"/>
<path d="M145.835 78.5H144.868V80.5H145.835V78.5Z" fill="#151515"/>
<path d="M159.372 78.5H158.405V80.16H159.372V78.5Z" fill="#151515"/>
<path d="M172.909 78.5H171.942V79.83H172.909V78.5Z" fill="#151515"/>
<path d="M186.446 78.5H185.479V79.5H186.446V78.5Z" fill="#151515"/>
<path d="M213.521 74.5H212.554V75.5H213.521V74.5Z" fill="#151515"/>
<path d="M227.058 74.17H226.091V75.5H227.058V74.17Z" fill="#151515"/>
<path d="M240.595 73.84H239.628V75.5H240.595V73.84Z" fill="#151515"/>
<path d="M254.132 73.5H253.165V75.5H254.132V73.5Z" fill="#151515"/>
<path d="M254.132 78.5H253.165V80.5H254.132V78.5Z" fill="#151515"/>
<path d="M199.983 78.5H199.016V80.5H199.983V78.5Z" fill="#151515"/>
<path d="M199.983 73.5H199.016V75.5H199.983V73.5Z" fill="#151515"/>
<rect x="273.5" y="6" width="118" height="2" fill="#11708E" stroke="#151515"/>
<path d="M278.835 3.5H277.868V5.5H278.835V3.5Z" fill="#151515"/>
<path d="M278.835 8.5H277.868V10.5H278.835V8.5Z" fill="#151515"/>
<path d="M387.132 3.5H386.165V5.5H387.132V3.5Z" fill="#151515"/>
<path d="M387.132 8.5H386.165V10.5H387.132V8.5Z" fill="#151515"/>
<rect x="273.5" y="20" width="118" height="2" fill="#11708E" stroke="#151515"/>
<path d="M278.835 17.5H277.868V19.5H278.835V17.5Z" fill="#151515"/>
<path d="M278.835 22.5H277.868V24.5H278.835V22.5Z" fill="#151515"/>
<path d="M387.132 17.5H386.165V19.5H387.132V17.5Z" fill="#151515"/>
<path d="M387.132 22.5H386.165V24.5H387.132V22.5Z" fill="#151515"/>
<path d="M332.983 22.5H332.016V23.5H332.983V22.5Z" fill="#151515"/>
<path d="M332.983 18.5H332.016V19.5H332.983V18.5Z" fill="#151515"/>
<rect x="273.5" y="34" width="118" height="2" fill="#11708E" stroke="#151515"/>
<path d="M278.835 31.5H277.868V33.5H278.835V31.5Z" fill="#151515"/>
<path d="M278.835 36.5H277.868V38.5H278.835V36.5Z" fill="#151515"/>
<path d="M292.372 36.5H291.405V38.16H292.372V36.5Z" fill="#151515"/>
<path d="M305.909 36.5H304.942V37.83H305.909V36.5Z" fill="#151515"/>
<path d="M319.446 36.5H318.479V37.5H319.446V36.5Z" fill="#151515"/>
<path d="M346.521 32.5H345.554V33.5H346.521V32.5Z" fill="#151515"/>
<path d="M360.058 32.17H359.091V33.5H360.058V32.17Z" fill="#151515"/>
<path d="M373.595 31.84H372.628V33.5H373.595V31.84Z" fill="#151515"/>
<path d="M387.132 31.5H386.165V33.5H387.132V31.5Z" fill="#151515"/>
<path d="M387.132 36.5H386.165V38.5H387.132V36.5Z" fill="#151515"/>
<path d="M332.983 36.5H332.016V38.5H332.983V36.5Z" fill="#151515"/>
<path d="M332.983 31.5H332.016V33.5H332.983V31.5Z" fill="#151515"/>
<rect x="273.5" y="48" width="118" height="2" fill="#11708E" stroke="#151515"/>
<path d="M278.835 45.5H277.868V47.5H278.835V45.5Z" fill="#151515"/>
<path d="M278.835 50.5H277.868V52.5H278.835V50.5Z" fill="#151515"/>
<path d="M387.132 45.5H386.165V47.5H387.132V45.5Z" fill="#151515"/>
<path d="M387.132 50.5H386.165V52.5H387.132V50.5Z" fill="#151515"/>
<rect x="273.5" y="62" width="118" height="2" fill="#11708E" stroke="#151515"/>
<path d="M278.835 59.5H277.868V61.5H278.835V59.5Z" fill="#151515"/>
<path d="M278.835 64.5H277.868V66.5H278.835V64.5Z" fill="#151515"/>
<path d="M387.132 59.5H386.165V61.5H387.132V59.5Z" fill="#151515"/>
<path d="M387.132 64.5H386.165V66.5H387.132V64.5Z" fill="#151515"/>
<path d="M332.983 64.5H332.016V65.5H332.983V64.5Z" fill="#151515"/>
<path d="M332.983 60.5H332.016V61.5H332.983V60.5Z" fill="#151515"/>
<rect x="273.5" y="76" width="118" height="2" fill="#11708E" stroke="#151515"/>
<path d="M278.835 73.5H277.868V75.5H278.835V73.5Z" fill="#151515"/>
<path d="M278.835 78.5H277.868V80.5H278.835V78.5Z" fill="#151515"/>
<path d="M292.372 78.5H291.405V80.16H292.372V78.5Z" fill="#151515"/>
<path d="M305.909 78.5H304.942V79.83H305.909V78.5Z" fill="#151515"/>
<path d="M319.446 78.5H318.479V79.5H319.446V78.5Z" fill="#151515"/>
<path d="M346.521 74.5H345.554V75.5H346.521V74.5Z" fill="#151515"/>
<path d="M360.058 74.17H359.091V75.5H360.058V74.17Z" fill="#151515"/>
<path d="M373.595 73.84H372.628V75.5H373.595V73.84Z" fill="#151515"/>
<path d="M387.132 73.5H386.165V75.5H387.132V73.5Z" fill="#151515"/>
<path d="M387.132 78.5H386.165V80.5H387.132V78.5Z" fill="#151515"/>
<path d="M332.983 78.5H332.016V80.5H332.983V78.5Z" fill="#151515"/>
<path d="M332.983 73.5H332.016V75.5H332.983V73.5Z" fill="#151515"/>
</svg>
