<svg width="180" height="126" viewBox="0 0 180 126" fill="none" xmlns="http://www.w3.org/2000/svg">
<path fill-rule="evenodd" clip-rule="evenodd" d="M3 10H15V9H3V10Z" fill="#20C9B5"/>
<path d="M7.53782 27.0874C12.3895 27.1067 13.9887 30.6776 13.9916 32L15 31.9974C14.9956 30.0171 12.8547 25.8931 7.28155 26.0021H3V27.0894H7.24682C7.26152 27.089 7.27622 27.0897 7.29087 27.0894H7.53782V27.0874Z" fill="#20C9B5"/>
<path fill-rule="evenodd" clip-rule="evenodd" d="M28 27H21V26H28C29.3139 26 30.5974 26.2883 31.5437 27.2492C32.4867 28.2067 33 29.736 33 32H32C32 29.864 31.5133 28.6433 30.8313 27.9508C30.1526 27.2617 29.1861 27 28 27Z" fill="#20C9B5"/>
<path d="M43.5378 27.0874C48.3895 27.1067 49.9887 30.6776 49.9916 32L51 31.9974C50.9956 30.0171 48.8547 25.8931 43.2815 26.0021H39V27.0894H43.2468C43.2615 27.089 43.2762 27.0897 43.2909 27.0894H43.5378V27.0874Z" fill="#20C9B5"/>
<path d="M41.4606 22.9H41.6181C41.6815 22.9 41.734 22.8917 41.7756 22.875C41.8173 22.8567 41.8531 22.8283 41.8831 22.79L42.8806 21.5275C42.9223 21.4742 42.9656 21.4375 43.0106 21.4175C43.0573 21.3958 43.1156 21.385 43.1856 21.385H43.7656L42.5481 22.8875C42.4765 22.9792 42.4023 23.0442 42.3256 23.0825C42.3806 23.1025 42.4298 23.1308 42.4731 23.1675C42.5181 23.2025 42.5606 23.2492 42.6006 23.3075L43.8556 25H43.2631C43.1831 25 43.1231 24.9892 43.0831 24.9675C43.0448 24.9442 43.0123 24.9108 42.9856 24.8675L41.9631 23.5325C41.9315 23.4875 41.8948 23.4558 41.8531 23.4375C41.8115 23.4192 41.7515 23.41 41.6731 23.41H41.4606V25H40.7881V21.385H41.4606V22.9ZM44.0834 22.3925C44.1084 22.2192 44.1567 22.0675 44.2284 21.9375C44.3 21.8058 44.3892 21.6967 44.4959 21.61C44.6042 21.5217 44.7275 21.4558 44.8659 21.4125C45.0059 21.3675 45.1559 21.345 45.3159 21.345C45.4825 21.345 45.6325 21.3692 45.7659 21.4175C45.9009 21.4642 46.0159 21.53 46.1109 21.615C46.2059 21.6983 46.2784 21.7967 46.3284 21.91C46.38 22.0233 46.4059 22.1458 46.4059 22.2775C46.4059 22.3925 46.3925 22.4942 46.3659 22.5825C46.3409 22.6692 46.3042 22.745 46.2559 22.81C46.2075 22.875 46.1475 22.93 46.0759 22.975C46.0042 23.02 45.9234 23.0575 45.8334 23.0875C46.05 23.1558 46.2117 23.26 46.3184 23.4C46.425 23.54 46.4784 23.7158 46.4784 23.9275C46.4784 24.1075 46.445 24.2667 46.3784 24.405C46.3117 24.5433 46.2217 24.66 46.1084 24.755C45.995 24.8483 45.8634 24.9192 45.7134 24.9675C45.565 25.0158 45.4075 25.04 45.2409 25.04C45.0592 25.04 44.9009 25.0192 44.7659 24.9775C44.6309 24.9358 44.5134 24.8742 44.4134 24.7925C44.3134 24.7108 44.2284 24.6108 44.1584 24.4925C44.0884 24.3742 44.0284 24.2375 43.9784 24.0825L44.2509 23.97C44.3225 23.94 44.3892 23.9325 44.4509 23.9475C44.5142 23.9608 44.56 23.9942 44.5884 24.0475C44.6184 24.1058 44.6509 24.1633 44.6859 24.22C44.7225 24.2767 44.7659 24.3275 44.8159 24.3725C44.8659 24.4158 44.9242 24.4517 44.9909 24.48C45.0592 24.5067 45.14 24.52 45.2334 24.52C45.3384 24.52 45.43 24.5033 45.5084 24.47C45.5867 24.435 45.6517 24.39 45.7034 24.335C45.7567 24.28 45.7959 24.2192 45.8209 24.1525C45.8475 24.0842 45.8609 24.0158 45.8609 23.9475C45.8609 23.8608 45.8517 23.7825 45.8334 23.7125C45.815 23.6408 45.7767 23.58 45.7184 23.53C45.66 23.48 45.5759 23.4408 45.4659 23.4125C45.3575 23.3842 45.2117 23.37 45.0284 23.37V22.93C45.18 22.9283 45.3059 22.9142 45.4059 22.8875C45.5059 22.8608 45.585 22.8242 45.6434 22.7775C45.7034 22.7292 45.745 22.6717 45.7684 22.605C45.7917 22.5383 45.8034 22.465 45.8034 22.385C45.8034 22.215 45.7559 22.0858 45.6609 21.9975C45.5659 21.9092 45.4392 21.865 45.2809 21.865C45.2075 21.865 45.14 21.8758 45.0784 21.8975C45.0167 21.9175 44.9609 21.9467 44.9109 21.985C44.8625 22.0217 44.8217 22.065 44.7884 22.115C44.755 22.165 44.73 22.22 44.7134 22.28C44.685 22.3567 44.6475 22.4075 44.6009 22.4325C44.5559 22.4575 44.4917 22.4633 44.4084 22.45L44.0834 22.3925ZM47.7288 22.6975C47.8088 22.6808 47.8854 22.6692 47.9588 22.6625C48.0321 22.6542 48.1029 22.65 48.1713 22.65C48.3613 22.65 48.5288 22.6783 48.6738 22.735C48.8188 22.7917 48.9404 22.87 49.0388 22.97C49.1371 23.07 49.2113 23.1875 49.2613 23.3225C49.3113 23.4558 49.3363 23.6 49.3363 23.755C49.3363 23.9467 49.3021 24.1217 49.2338 24.28C49.1671 24.4383 49.0738 24.5742 48.9538 24.6875C48.8338 24.7992 48.6913 24.8858 48.5263 24.9475C48.3629 25.0092 48.1846 25.04 47.9913 25.04C47.8779 25.04 47.7704 25.0283 47.6688 25.005C47.5671 24.9817 47.4713 24.9508 47.3813 24.9125C47.2929 24.8725 47.2104 24.8275 47.1338 24.7775C47.0588 24.7258 46.9913 24.6717 46.9313 24.615L47.1213 24.3525C47.1613 24.2958 47.2138 24.2675 47.2788 24.2675C47.3204 24.2675 47.3629 24.2808 47.4063 24.3075C47.4496 24.3342 47.4988 24.3633 47.5538 24.395C47.6104 24.4267 47.6763 24.4558 47.7513 24.4825C47.8279 24.5092 47.9196 24.5225 48.0263 24.5225C48.1396 24.5225 48.2396 24.5042 48.3263 24.4675C48.4129 24.4308 48.4846 24.38 48.5413 24.315C48.5996 24.2483 48.6429 24.17 48.6713 24.08C48.7013 23.9883 48.7163 23.8892 48.7163 23.7825C48.7163 23.5858 48.6588 23.4325 48.5438 23.3225C48.4304 23.2108 48.2621 23.155 48.0388 23.155C47.8671 23.155 47.6913 23.1867 47.5113 23.25L47.1263 23.14L47.4263 21.385H49.2113V21.6475C49.2113 21.7358 49.1838 21.8075 49.1288 21.8625C49.0738 21.9175 48.9804 21.945 48.8488 21.945H47.8563L47.7288 22.6975Z" fill="#20C9B5"/>
<path fill-rule="evenodd" clip-rule="evenodd" d="M63.0692 25.4795L63.4293 24.5282L66.5256 26.1864L66.1609 27.1352L63.0692 25.4795ZM62.7122 26.4226L62.2749 27.5777L65.3564 29.228L65.7992 28.076L62.7122 26.4226ZM61.5111 29.5955L61.9179 28.5209L64.9947 30.1687L64.5827 31.2405L61.5111 29.5955ZM61.1541 30.5387L60.4674 32.3524L59.5322 31.9984L63.4144 21.7429L64.3497 22.0969L63.7864 23.585L66.8873 25.2457L67.5331 23.5657L68.4665 23.9245L64.5317 34.1599L63.5983 33.8011L64.2211 32.1812L61.1541 30.5387Z" fill="#20C9B5"/>
<path d="M60.2213 24.445V25H58.1038V21.385H58.7763V24.445H60.2213Z" fill="#20C9B5"/>
<path fill-rule="evenodd" clip-rule="evenodd" d="M81.0692 25.4795L81.4293 24.5282L84.5256 26.1864L84.1609 27.1352L81.0692 25.4795ZM80.7122 26.4226L80.2749 27.5777L83.3564 29.228L83.7992 28.076L80.7122 26.4226ZM79.5111 29.5955L79.9179 28.5209L82.9947 30.1687L82.5827 31.2405L79.5111 29.5955ZM79.1541 30.5387L78.4674 32.3524L77.5322 31.9984L81.4144 21.7429L82.3497 22.0969L81.7864 23.585L84.8873 25.2457L85.5331 23.5657L86.4665 23.9245L82.5317 34.1599L81.5983 33.8011L82.2211 32.1812L79.1541 30.5387Z" fill="#20C9B5"/>
<path d="M78.7643 21.385L77.3043 25H76.6968L75.2368 21.385H75.7768C75.8351 21.385 75.8826 21.3992 75.9193 21.4275C75.9559 21.4558 75.9834 21.4925 76.0018 21.5375L76.8543 23.7425C76.8826 23.8142 76.9093 23.8933 76.9343 23.98C76.9609 24.065 76.9859 24.1542 77.0093 24.2475C77.0293 24.1542 77.0509 24.065 77.0743 23.98C77.0976 23.8933 77.1234 23.8142 77.1518 23.7425L77.9993 21.5375C78.0126 21.4992 78.0384 21.4642 78.0768 21.4325C78.1168 21.4008 78.1651 21.385 78.2218 21.385H78.7643Z" fill="#20C9B5"/>
<path fill-rule="evenodd" clip-rule="evenodd" d="M99.0692 25.4795L99.4293 24.5282L102.526 26.1864L102.161 27.1352L99.0692 25.4795ZM98.7122 26.4226L98.2749 27.5777L101.357 29.228L101.799 28.076L98.7122 26.4226ZM97.5111 29.5955L97.9179 28.5209L100.995 30.1687L100.583 31.2405L97.5111 29.5955ZM97.1541 30.5387L96.4674 32.3524L95.5322 31.9984L99.4144 21.7429L100.35 22.0969L99.7864 23.585L102.887 25.2457L103.533 23.5657L104.467 23.9245L100.532 34.1599L99.5983 33.8011L100.221 32.1812L97.1541 30.5387Z" fill="#20C9B5"/>
<path d="M96.7105 23.1925C96.7105 23.4575 96.6664 23.7008 96.578 23.9225C96.4897 24.1442 96.3655 24.335 96.2055 24.495C96.0455 24.655 95.853 24.7792 95.628 24.8675C95.403 24.9558 95.153 25 94.878 25H93.5005V21.385H94.878C95.153 21.385 95.403 21.43 95.628 21.52C95.853 21.6083 96.0455 21.7325 96.2055 21.8925C96.3655 22.0508 96.4897 22.2408 96.578 22.4625C96.6664 22.6842 96.7105 22.9275 96.7105 23.1925ZM96.0205 23.1925C96.0205 22.9942 95.9939 22.8167 95.9405 22.66C95.8889 22.5017 95.813 22.3683 95.713 22.26C95.6147 22.15 95.4947 22.0658 95.353 22.0075C95.213 21.9492 95.0547 21.92 94.878 21.92H94.1755V24.465H94.878C95.0547 24.465 95.213 24.4358 95.353 24.3775C95.4947 24.3192 95.6147 24.2358 95.713 24.1275C95.813 24.0175 95.8889 23.8842 95.9405 23.7275C95.9939 23.5692 96.0205 23.3908 96.0205 23.1925Z" fill="#20C9B5"/>
<path d="M115.538 27.0874C120.39 27.1067 121.989 30.6776 121.992 32L123 31.9974C122.996 30.0171 120.855 25.8931 115.282 26.0021H111V27.0894H115.247C115.262 27.089 115.276 27.0897 115.291 27.0894H115.538V27.0874Z" fill="#20C9B5"/>
<path d="M113.296 23.1925C113.296 23.4575 113.252 23.7033 113.164 23.93C113.077 24.155 112.954 24.35 112.794 24.515C112.634 24.68 112.441 24.8092 112.216 24.9025C111.991 24.9942 111.741 25.04 111.466 25.04C111.193 25.04 110.944 24.9942 110.719 24.9025C110.494 24.8092 110.3 24.68 110.139 24.515C109.979 24.35 109.855 24.155 109.766 23.93C109.678 23.7033 109.634 23.4575 109.634 23.1925C109.634 22.9275 109.678 22.6825 109.766 22.4575C109.855 22.2308 109.979 22.035 110.139 21.87C110.3 21.705 110.494 21.5767 110.719 21.485C110.944 21.3917 111.193 21.345 111.466 21.345C111.65 21.345 111.822 21.3667 111.984 21.41C112.145 21.4517 112.294 21.5117 112.429 21.59C112.564 21.6667 112.685 21.7608 112.791 21.8725C112.9 21.9825 112.991 22.1058 113.066 22.2425C113.141 22.3792 113.198 22.5275 113.236 22.6875C113.276 22.8475 113.296 23.0158 113.296 23.1925ZM112.609 23.1925C112.609 22.9942 112.582 22.8167 112.529 22.66C112.475 22.5017 112.4 22.3675 112.301 22.2575C112.203 22.1475 112.083 22.0633 111.941 22.005C111.801 21.9467 111.643 21.9175 111.466 21.9175C111.29 21.9175 111.13 21.9467 110.989 22.005C110.849 22.0633 110.729 22.1475 110.629 22.2575C110.53 22.3675 110.455 22.5017 110.401 22.66C110.348 22.8167 110.321 22.9942 110.321 23.1925C110.321 23.3908 110.348 23.5692 110.401 23.7275C110.455 23.8842 110.53 24.0175 110.629 24.1275C110.729 24.2358 110.849 24.3192 110.989 24.3775C111.13 24.4358 111.29 24.465 111.466 24.465C111.643 24.465 111.801 24.4358 111.941 24.3775C112.083 24.3192 112.203 24.2358 112.301 24.1275C112.4 24.0175 112.475 23.8842 112.529 23.7275C112.582 23.5692 112.609 23.3908 112.609 23.1925ZM115.239 24.475C115.364 24.475 115.469 24.46 115.554 24.43C115.639 24.4 115.707 24.36 115.757 24.31C115.809 24.26 115.845 24.2017 115.867 24.135C115.89 24.0683 115.902 23.9975 115.902 23.9225C115.902 23.8442 115.889 23.7742 115.864 23.7125C115.839 23.6492 115.8 23.5958 115.747 23.5525C115.694 23.5075 115.624 23.4733 115.539 23.45C115.456 23.4267 115.355 23.415 115.237 23.415H114.559V24.475H115.239ZM114.559 21.905V22.95H115.094C115.324 22.95 115.498 22.9083 115.614 22.825C115.733 22.7417 115.792 22.6092 115.792 22.4275C115.792 22.2392 115.739 22.105 115.632 22.025C115.525 21.945 115.359 21.905 115.132 21.905H114.559ZM115.132 21.385C115.369 21.385 115.571 21.4075 115.739 21.4525C115.908 21.4975 116.045 21.5617 116.152 21.645C116.26 21.7283 116.339 21.8292 116.389 21.9475C116.439 22.0658 116.464 22.1992 116.464 22.3475C116.464 22.4325 116.452 22.5142 116.427 22.5925C116.402 22.6692 116.363 22.7417 116.309 22.81C116.258 22.8767 116.191 22.9375 116.109 22.9925C116.029 23.0475 115.934 23.0942 115.822 23.1325C116.319 23.2442 116.567 23.5125 116.567 23.9375C116.567 24.0908 116.538 24.2325 116.479 24.3625C116.421 24.4925 116.336 24.605 116.224 24.7C116.113 24.7933 115.975 24.8667 115.812 24.92C115.649 24.9733 115.462 25 115.252 25H113.887V21.385H115.132ZM117.06 23.2325H118.355V23.7475H117.06V23.2325ZM121.863 25H121.193C121.147 25 121.109 24.9883 121.081 24.965C121.054 24.9417 121.033 24.915 121.016 24.885L120.178 23.4975C120.165 23.5392 120.149 23.575 120.131 23.605L119.328 24.885C119.308 24.9133 119.285 24.94 119.258 24.965C119.233 24.9883 119.2 25 119.158 25H118.531L119.731 23.14L118.578 21.385H119.248C119.295 21.385 119.328 21.3917 119.348 21.405C119.37 21.4167 119.39 21.4367 119.408 21.465L120.231 22.79C120.248 22.7483 120.268 22.7067 120.291 22.665L121.046 21.4775C121.064 21.4458 121.084 21.4225 121.106 21.4075C121.128 21.3925 121.155 21.385 121.188 21.385H121.831L120.668 23.1125L121.863 25ZM123.632 23.09C123.562 23.005 123.485 22.945 123.402 22.91C123.32 22.875 123.232 22.8575 123.137 22.8575C123.043 22.8575 122.959 22.875 122.884 22.91C122.809 22.945 122.745 22.9983 122.692 23.07C122.638 23.14 122.598 23.23 122.569 23.34C122.541 23.4483 122.527 23.5767 122.527 23.725C122.527 23.875 122.538 24.0025 122.562 24.1075C122.587 24.2108 122.622 24.2958 122.667 24.3625C122.712 24.4275 122.767 24.475 122.832 24.505C122.897 24.5333 122.969 24.5475 123.049 24.5475C123.178 24.5475 123.287 24.5208 123.377 24.4675C123.467 24.4142 123.552 24.3383 123.632 24.24V23.09ZM124.249 21.285V25H123.872C123.79 25 123.738 24.9625 123.717 24.8875L123.664 24.64C123.561 24.7583 123.442 24.8542 123.307 24.9275C123.173 25.0008 123.018 25.0375 122.839 25.0375C122.699 25.0375 122.571 25.0083 122.454 24.95C122.338 24.8917 122.237 24.8075 122.152 24.6975C122.068 24.5858 122.003 24.4483 121.957 24.285C121.912 24.1217 121.889 23.935 121.889 23.725C121.889 23.535 121.915 23.3583 121.967 23.195C122.018 23.0317 122.093 22.89 122.189 22.77C122.286 22.65 122.402 22.5567 122.537 22.49C122.672 22.4217 122.823 22.3875 122.992 22.3875C123.135 22.3875 123.258 22.41 123.359 22.455C123.461 22.5 123.552 22.5608 123.632 22.6375V21.285H124.249Z" fill="#20C9B5"/>
<path fill-rule="evenodd" clip-rule="evenodd" d="M136 27H129V26H136C137.314 26 138.597 26.2883 139.544 27.2492C140.487 28.2067 141 29.736 141 32H140C140 29.864 139.513 28.6433 138.831 27.9508C138.153 27.2617 137.186 27 136 27Z" fill="#20C9B5"/>
<path d="M131.296 23.1925C131.296 23.4575 131.252 23.7033 131.164 23.93C131.077 24.155 130.954 24.35 130.794 24.515C130.634 24.68 130.441 24.8092 130.216 24.9025C129.991 24.9942 129.741 25.04 129.466 25.04C129.193 25.04 128.944 24.9942 128.719 24.9025C128.494 24.8092 128.3 24.68 128.139 24.515C127.979 24.35 127.855 24.155 127.766 23.93C127.678 23.7033 127.634 23.4575 127.634 23.1925C127.634 22.9275 127.678 22.6825 127.766 22.4575C127.855 22.2308 127.979 22.035 128.139 21.87C128.3 21.705 128.494 21.5767 128.719 21.485C128.944 21.3917 129.193 21.345 129.466 21.345C129.65 21.345 129.822 21.3667 129.984 21.41C130.145 21.4517 130.294 21.5117 130.429 21.59C130.564 21.6667 130.685 21.7608 130.791 21.8725C130.9 21.9825 130.991 22.1058 131.066 22.2425C131.141 22.3792 131.198 22.5275 131.236 22.6875C131.276 22.8475 131.296 23.0158 131.296 23.1925ZM130.609 23.1925C130.609 22.9942 130.582 22.8167 130.529 22.66C130.475 22.5017 130.4 22.3675 130.301 22.2575C130.203 22.1475 130.083 22.0633 129.941 22.005C129.801 21.9467 129.643 21.9175 129.466 21.9175C129.29 21.9175 129.13 21.9467 128.989 22.005C128.849 22.0633 128.729 22.1475 128.629 22.2575C128.53 22.3675 128.455 22.5017 128.401 22.66C128.348 22.8167 128.321 22.9942 128.321 23.1925C128.321 23.3908 128.348 23.5692 128.401 23.7275C128.455 23.8842 128.53 24.0175 128.629 24.1275C128.729 24.2358 128.849 24.3192 128.989 24.3775C129.13 24.4358 129.29 24.465 129.466 24.465C129.643 24.465 129.801 24.4358 129.941 24.3775C130.083 24.3192 130.203 24.2358 130.301 24.1275C130.4 24.0175 130.475 23.8842 130.529 23.7275C130.582 23.5692 130.609 23.3908 130.609 23.1925ZM133.239 24.475C133.364 24.475 133.469 24.46 133.554 24.43C133.639 24.4 133.707 24.36 133.757 24.31C133.809 24.26 133.845 24.2017 133.867 24.135C133.89 24.0683 133.902 23.9975 133.902 23.9225C133.902 23.8442 133.889 23.7742 133.864 23.7125C133.839 23.6492 133.8 23.5958 133.747 23.5525C133.694 23.5075 133.624 23.4733 133.539 23.45C133.456 23.4267 133.355 23.415 133.237 23.415H132.559V24.475H133.239ZM132.559 21.905V22.95H133.094C133.324 22.95 133.498 22.9083 133.614 22.825C133.733 22.7417 133.792 22.6092 133.792 22.4275C133.792 22.2392 133.739 22.105 133.632 22.025C133.525 21.945 133.359 21.905 133.132 21.905H132.559ZM133.132 21.385C133.369 21.385 133.571 21.4075 133.739 21.4525C133.908 21.4975 134.045 21.5617 134.152 21.645C134.26 21.7283 134.339 21.8292 134.389 21.9475C134.439 22.0658 134.464 22.1992 134.464 22.3475C134.464 22.4325 134.452 22.5142 134.427 22.5925C134.402 22.6692 134.363 22.7417 134.309 22.81C134.258 22.8767 134.191 22.9375 134.109 22.9925C134.029 23.0475 133.934 23.0942 133.822 23.1325C134.319 23.2442 134.567 23.5125 134.567 23.9375C134.567 24.0908 134.538 24.2325 134.479 24.3625C134.421 24.4925 134.336 24.605 134.224 24.7C134.113 24.7933 133.975 24.8667 133.812 24.92C133.649 24.9733 133.462 25 133.252 25H131.887V21.385H133.132ZM135.06 23.2325H136.355V23.7475H135.06V23.2325ZM139.863 25H139.193C139.147 25 139.109 24.9883 139.081 24.965C139.054 24.9417 139.033 24.915 139.016 24.885L138.178 23.4975C138.165 23.5392 138.149 23.575 138.131 23.605L137.328 24.885C137.308 24.9133 137.285 24.94 137.258 24.965C137.233 24.9883 137.2 25 137.158 25H136.531L137.731 23.14L136.578 21.385H137.248C137.295 21.385 137.328 21.3917 137.348 21.405C137.37 21.4167 137.39 21.4367 137.408 21.465L138.231 22.79C138.248 22.7483 138.268 22.7067 138.291 22.665L139.046 21.4775C139.064 21.4458 139.084 21.4225 139.106 21.4075C139.128 21.3925 139.155 21.385 139.188 21.385H139.831L138.668 23.1125L139.863 25ZM141.632 23.09C141.562 23.005 141.485 22.945 141.402 22.91C141.32 22.875 141.232 22.8575 141.137 22.8575C141.043 22.8575 140.959 22.875 140.884 22.91C140.809 22.945 140.745 22.9983 140.692 23.07C140.638 23.14 140.598 23.23 140.569 23.34C140.541 23.4483 140.527 23.5767 140.527 23.725C140.527 23.875 140.538 24.0025 140.562 24.1075C140.587 24.2108 140.622 24.2958 140.667 24.3625C140.712 24.4275 140.767 24.475 140.832 24.505C140.897 24.5333 140.969 24.5475 141.049 24.5475C141.178 24.5475 141.287 24.5208 141.377 24.4675C141.467 24.4142 141.552 24.3383 141.632 24.24V23.09ZM142.249 21.285V25H141.872C141.79 25 141.738 24.9625 141.717 24.8875L141.664 24.64C141.561 24.7583 141.442 24.8542 141.307 24.9275C141.173 25.0008 141.018 25.0375 140.839 25.0375C140.699 25.0375 140.571 25.0083 140.454 24.95C140.338 24.8917 140.237 24.8075 140.152 24.6975C140.068 24.5858 140.003 24.4483 139.957 24.285C139.912 24.1217 139.889 23.935 139.889 23.725C139.889 23.535 139.915 23.3583 139.967 23.195C140.018 23.0317 140.093 22.89 140.189 22.77C140.286 22.65 140.402 22.5567 140.537 22.49C140.672 22.4217 140.823 22.3875 140.992 22.3875C141.135 22.3875 141.258 22.41 141.359 22.455C141.461 22.5 141.552 22.5608 141.632 22.6375V21.285H142.249Z" fill="#20C9B5"/>
<path d="M151.605 24.1475C151.642 24.1475 151.674 24.1617 151.703 24.19L151.968 24.4775C151.821 24.6592 151.64 24.7983 151.425 24.895C151.212 24.9917 150.955 25.04 150.655 25.04C150.387 25.04 150.145 24.9942 149.93 24.9025C149.717 24.8108 149.534 24.6833 149.383 24.52C149.231 24.3567 149.114 24.1617 149.033 23.935C148.953 23.7083 148.913 23.4608 148.913 23.1925C148.913 22.9208 148.956 22.6725 149.043 22.4475C149.129 22.2208 149.251 22.0258 149.408 21.8625C149.566 21.6992 149.754 21.5725 149.973 21.4825C150.191 21.3908 150.433 21.345 150.698 21.345C150.961 21.345 151.194 21.3883 151.398 21.475C151.603 21.5617 151.777 21.675 151.92 21.815L151.695 22.1275C151.682 22.1475 151.664 22.165 151.643 22.18C151.623 22.195 151.594 22.2025 151.558 22.2025C151.533 22.2025 151.507 22.1958 151.48 22.1825C151.454 22.1675 151.424 22.15 151.393 22.13C151.361 22.1083 151.324 22.085 151.283 22.06C151.241 22.035 151.193 22.0125 151.138 21.9925C151.083 21.9708 151.019 21.9533 150.945 21.94C150.874 21.925 150.79 21.9175 150.695 21.9175C150.534 21.9175 150.385 21.9467 150.25 22.005C150.117 22.0617 150.002 22.145 149.905 22.255C149.809 22.3633 149.734 22.4967 149.68 22.655C149.627 22.8117 149.6 22.9908 149.6 23.1925C149.6 23.3958 149.629 23.5767 149.685 23.735C149.744 23.8933 149.822 24.0267 149.92 24.135C150.019 24.2433 150.134 24.3267 150.268 24.385C150.401 24.4417 150.544 24.47 150.698 24.47C150.789 24.47 150.872 24.465 150.945 24.455C151.02 24.445 151.089 24.4292 151.15 24.4075C151.214 24.3858 151.273 24.3583 151.328 24.325C151.384 24.29 151.44 24.2475 151.495 24.1975C151.512 24.1825 151.529 24.1708 151.548 24.1625C151.566 24.1525 151.585 24.1475 151.605 24.1475ZM157.238 21.385L156.116 25H155.508L154.718 22.53C154.697 22.47 154.677 22.3967 154.658 22.31C154.648 22.3517 154.638 22.3908 154.628 22.4275C154.618 22.4642 154.608 22.4983 154.596 22.53L153.798 25H153.188L152.068 21.385H152.631C152.689 21.385 152.738 21.3992 152.776 21.4275C152.816 21.4542 152.843 21.4908 152.856 21.5375L153.471 23.7C153.484 23.7533 153.497 23.8117 153.508 23.875C153.522 23.9367 153.535 24.0017 153.548 24.07C153.562 24 153.576 23.9342 153.591 23.8725C153.608 23.8108 153.625 23.7533 153.643 23.7L154.353 21.5375C154.367 21.4992 154.393 21.4642 154.431 21.4325C154.471 21.4008 154.519 21.385 154.576 21.385H154.773C154.832 21.385 154.879 21.3992 154.916 21.4275C154.953 21.4558 154.98 21.4925 154.998 21.5375L155.706 23.7C155.741 23.8033 155.773 23.9225 155.801 24.0575C155.823 23.9258 155.847 23.8067 155.873 23.7L156.488 21.5375C156.498 21.4958 156.523 21.46 156.563 21.43C156.605 21.4 156.654 21.385 156.711 21.385H157.238Z" fill="#20C9B5"/>
<path d="M159 32C159 30.7633 158 29.4996 158 28C158 26.5004 157.5 25.5 157 25.5C156.5 25.5 156 26.5 155 26.5C154 26.5 154 27 153.5 27C153 27 153 26.5 152 26.5C151 26.5 147 26.5 147 26.5" stroke="#20C9B5"/>
<path d="M168.301 23.105C168.427 23.105 168.537 23.0892 168.631 23.0575C168.726 23.0258 168.803 22.9825 168.863 22.9275C168.925 22.8708 168.971 22.8042 169.001 22.7275C169.031 22.6508 169.046 22.5667 169.046 22.475C169.046 22.2917 168.985 22.1508 168.863 22.0525C168.743 21.9542 168.559 21.905 168.311 21.905H167.881V23.105H168.301ZM170.031 25H169.423C169.308 25 169.225 24.955 169.173 24.865L168.413 23.7075C168.385 23.6642 168.353 23.6333 168.318 23.615C168.285 23.5967 168.235 23.5875 168.168 23.5875H167.881V25H167.208V21.385H168.311C168.556 21.385 168.766 21.4108 168.941 21.4625C169.117 21.5125 169.261 21.5833 169.373 21.675C169.486 21.7667 169.57 21.8767 169.623 22.005C169.676 22.1317 169.703 22.2717 169.703 22.425C169.703 22.5467 169.685 22.6617 169.648 22.77C169.613 22.8783 169.561 22.9767 169.493 23.065C169.426 23.1533 169.343 23.2308 169.243 23.2975C169.145 23.3642 169.032 23.4167 168.906 23.455C168.949 23.48 168.989 23.51 169.026 23.545C169.062 23.5783 169.096 23.6183 169.126 23.665L170.031 25ZM175.153 21.385L174.03 25H173.423L172.633 22.53C172.611 22.47 172.591 22.3967 172.573 22.31C172.563 22.3517 172.553 22.3908 172.543 22.4275C172.533 22.4642 172.522 22.4983 172.51 22.53L171.713 25H171.103L169.983 21.385H170.545C170.604 21.385 170.652 21.3992 170.69 21.4275C170.73 21.4542 170.757 21.4908 170.77 21.5375L171.385 23.7C171.399 23.7533 171.411 23.8117 171.423 23.875C171.436 23.9367 171.45 24.0017 171.463 24.07C171.476 24 171.49 23.9342 171.505 23.8725C171.522 23.8108 171.54 23.7533 171.558 23.7L172.268 21.5375C172.281 21.4992 172.307 21.4642 172.345 21.4325C172.385 21.4008 172.434 21.385 172.49 21.385H172.688C172.746 21.385 172.794 21.3992 172.83 21.4275C172.867 21.4558 172.895 21.4925 172.913 21.5375L173.62 23.7C173.655 23.8033 173.687 23.9225 173.715 24.0575C173.737 23.9258 173.761 23.8067 173.788 23.7L174.403 21.5375C174.413 21.4958 174.438 21.46 174.478 21.43C174.52 21.4 174.569 21.385 174.625 21.385H175.153Z" fill="#20C9B5"/>
<path d="M177 32C177 30.7633 176 29.4996 176 28C176 26.5004 175.5 25.5 175 25.5C174.5 25.5 174 26.5 173 26.5C172 26.5 172 27 171.5 27C171 27 171 26.5 170 26.5C169 26.5 165 26.5 165 26.5" stroke="#20C9B5"/>
<path fill-rule="evenodd" clip-rule="evenodd" d="M5.00577 46.8547C4.25511 47.8972 4 49.1633 4 50H3C3 49.0033 3.29489 47.5194 4.19423 46.2703C5.11193 44.9958 6.63704 44 9 44C11.363 44 12.8881 44.9958 13.8058 46.2703C14.7051 47.5194 15 49.0033 15 50H14C14 49.1633 13.7449 47.8972 12.9942 46.8547C12.2619 45.8376 11.037 45 9 45C6.96296 45 5.73807 45.8376 5.00577 46.8547Z" fill="#20C9B5"/>
<path d="M23 50C23 47 24 44 27 44C30 44 31 47 31 50" stroke="#20C9B5"/>
<path fill-rule="evenodd" clip-rule="evenodd" d="M41.0058 46.8547C40.2551 47.8972 40 49.1633 40 50H39C39 49.0033 39.2949 47.5194 40.1942 46.2703C41.1119 44.9958 42.637 44 45 44C47.363 44 48.8881 44.9958 49.8058 46.2703C50.7051 47.5194 51 49.0033 51 50H50C50 49.1633 49.7449 47.8972 48.9942 46.8547C48.2619 45.8376 47.037 45 45 45C42.963 45 41.7381 45.8376 41.0058 46.8547Z" fill="#20C9B5"/>
<path d="M41.2963 41.1925C41.2963 41.4575 41.2521 41.7033 41.1638 41.93C41.0771 42.155 40.9538 42.35 40.7938 42.515C40.6338 42.68 40.4413 42.8092 40.2163 42.9025C39.9913 42.9942 39.7413 43.04 39.4663 43.04C39.193 43.04 38.9438 42.9942 38.7188 42.9025C38.4938 42.8092 38.3005 42.68 38.1388 42.515C37.9788 42.35 37.8546 42.155 37.7663 41.93C37.678 41.7033 37.6338 41.4575 37.6338 41.1925C37.6338 40.9275 37.678 40.6825 37.7663 40.4575C37.8546 40.2308 37.9788 40.035 38.1388 39.87C38.3005 39.705 38.4938 39.5767 38.7188 39.485C38.9438 39.3917 39.193 39.345 39.4663 39.345C39.6496 39.345 39.8221 39.3667 39.9838 39.41C40.1455 39.4517 40.2938 39.5117 40.4288 39.59C40.5638 39.6667 40.6846 39.7608 40.7913 39.8725C40.8996 39.9825 40.9913 40.1058 41.0663 40.2425C41.1413 40.3792 41.198 40.5275 41.2363 40.6875C41.2763 40.8475 41.2963 41.0158 41.2963 41.1925ZM40.6088 41.1925C40.6088 40.9942 40.5821 40.8167 40.5288 40.66C40.4755 40.5017 40.3996 40.3675 40.3013 40.2575C40.203 40.1475 40.083 40.0633 39.9413 40.005C39.8013 39.9467 39.643 39.9175 39.4663 39.9175C39.2896 39.9175 39.1305 39.9467 38.9888 40.005C38.8488 40.0633 38.7288 40.1475 38.6288 40.2575C38.5305 40.3675 38.4546 40.5017 38.4013 40.66C38.348 40.8167 38.3213 40.9942 38.3213 41.1925C38.3213 41.3908 38.348 41.5692 38.4013 41.7275C38.4546 41.8842 38.5305 42.0175 38.6288 42.1275C38.7288 42.2358 38.8488 42.3192 38.9888 42.3775C39.1305 42.4358 39.2896 42.465 39.4663 42.465C39.643 42.465 39.8013 42.4358 39.9413 42.3775C40.083 42.3192 40.203 42.2358 40.3013 42.1275C40.3996 42.0175 40.4755 41.8842 40.5288 41.7275C40.5821 41.5692 40.6088 41.3908 40.6088 41.1925ZM43.2394 42.475C43.3644 42.475 43.4694 42.46 43.5544 42.43C43.6394 42.4 43.7069 42.36 43.7569 42.31C43.8085 42.26 43.8452 42.2017 43.8669 42.135C43.8902 42.0683 43.9019 41.9975 43.9019 41.9225C43.9019 41.8442 43.8894 41.7742 43.8644 41.7125C43.8394 41.6492 43.8002 41.5958 43.7469 41.5525C43.6935 41.5075 43.6244 41.4733 43.5394 41.45C43.456 41.4267 43.3552 41.415 43.2369 41.415H42.5594V42.475H43.2394ZM42.5594 39.905V40.95H43.0944C43.3244 40.95 43.4977 40.9083 43.6144 40.825C43.7327 40.7417 43.7919 40.6092 43.7919 40.4275C43.7919 40.2392 43.7385 40.105 43.6319 40.025C43.5252 39.945 43.3585 39.905 43.1319 39.905H42.5594ZM43.1319 39.385C43.3685 39.385 43.571 39.4075 43.7394 39.4525C43.9077 39.4975 44.0452 39.5617 44.1519 39.645C44.2602 39.7283 44.3394 39.8292 44.3894 39.9475C44.4394 40.0658 44.4644 40.1992 44.4644 40.3475C44.4644 40.4325 44.4519 40.5142 44.4269 40.5925C44.4019 40.6692 44.3627 40.7417 44.3094 40.81C44.2577 40.8767 44.191 40.9375 44.1094 40.9925C44.0294 41.0475 43.9335 41.0942 43.8219 41.1325C44.3185 41.2442 44.5669 41.5125 44.5669 41.9375C44.5669 42.0908 44.5377 42.2325 44.4794 42.3625C44.421 42.4925 44.336 42.605 44.2244 42.7C44.1127 42.7933 43.9752 42.8667 43.8119 42.92C43.6485 42.9733 43.4619 43 43.2519 43H41.8869V39.385H43.1319ZM45.0604 41.2325H46.3554V41.7475H45.0604V41.2325ZM49.8634 43H49.1934C49.1468 43 49.1093 42.9883 49.0809 42.965C49.0543 42.9417 49.0326 42.915 49.0159 42.885L48.1784 41.4975C48.1651 41.5392 48.1493 41.575 48.1309 41.605L47.3284 42.885C47.3084 42.9133 47.2851 42.94 47.2584 42.965C47.2334 42.9883 47.2001 43 47.1584 43H46.5309L47.7309 41.14L46.5784 39.385H47.2484C47.2951 39.385 47.3284 39.3917 47.3484 39.405C47.3701 39.4167 47.3901 39.4367 47.4084 39.465L48.2309 40.79C48.2476 40.7483 48.2676 40.7067 48.2909 40.665L49.0459 39.4775C49.0643 39.4458 49.0843 39.4225 49.1059 39.4075C49.1276 39.3925 49.1551 39.385 49.1884 39.385H49.8309L48.6684 41.1125L49.8634 43ZM51.6318 41.09C51.5618 41.005 51.4851 40.945 51.4018 40.91C51.3201 40.875 51.2318 40.8575 51.1368 40.8575C51.0435 40.8575 50.9593 40.875 50.8843 40.91C50.8093 40.945 50.7451 40.9983 50.6918 41.07C50.6385 41.14 50.5976 41.23 50.5693 41.34C50.541 41.4483 50.5268 41.5767 50.5268 41.725C50.5268 41.875 50.5385 42.0025 50.5618 42.1075C50.5868 42.2108 50.6218 42.2958 50.6668 42.3625C50.7118 42.4275 50.7668 42.475 50.8318 42.505C50.8968 42.5333 50.9693 42.5475 51.0493 42.5475C51.1776 42.5475 51.2868 42.5208 51.3768 42.4675C51.4668 42.4142 51.5518 42.3383 51.6318 42.24V41.09ZM52.2493 39.285V43H51.8718C51.7901 43 51.7385 42.9625 51.7168 42.8875L51.6643 42.64C51.561 42.7583 51.4418 42.8542 51.3068 42.9275C51.1735 43.0008 51.0176 43.0375 50.8393 43.0375C50.6993 43.0375 50.571 43.0083 50.4543 42.95C50.3376 42.8917 50.2368 42.8075 50.1518 42.6975C50.0685 42.5858 50.0035 42.4483 49.9568 42.285C49.9118 42.1217 49.8893 41.935 49.8893 41.725C49.8893 41.535 49.9151 41.3583 49.9668 41.195C50.0185 41.0317 50.0926 40.89 50.1893 40.77C50.286 40.65 50.4018 40.5567 50.5368 40.49C50.6718 40.4217 50.8235 40.3875 50.9918 40.3875C51.1351 40.3875 51.2576 40.41 51.3593 40.455C51.461 40.5 51.5518 40.5608 51.6318 40.6375V39.285H52.2493Z" fill="#20C9B5"/>
<path d="M59 49.9998C59 48 60.5 48.4992 60.5 46.4996C60.5 44.5 61.5 44.5 62 44.5C62.5 44.5 62.5 45.5 63 45.5C63.5 45.5 63.5001 44.5 64 44.5C64.4999 44.5 65.5 44.4992 65.5 46.4996C65.5 48.5 67 48 67 49.9998" stroke="#20C9B5"/>
<path d="M61.6051 42.1475C61.6418 42.1475 61.6743 42.1617 61.7026 42.19L61.9676 42.4775C61.8209 42.6592 61.6401 42.7983 61.4251 42.895C61.2118 42.9917 60.9551 43.04 60.6551 43.04C60.3868 43.04 60.1451 42.9942 59.9301 42.9025C59.7168 42.8108 59.5343 42.6833 59.3826 42.52C59.2309 42.3567 59.1143 42.1617 59.0326 41.935C58.9526 41.7083 58.9126 41.4608 58.9126 41.1925C58.9126 40.9208 58.9559 40.6725 59.0426 40.4475C59.1293 40.2208 59.2509 40.0258 59.4076 39.8625C59.5659 39.6992 59.7543 39.5725 59.9726 39.4825C60.1909 39.3908 60.4326 39.345 60.6976 39.345C60.9609 39.345 61.1943 39.3883 61.3976 39.475C61.6026 39.5617 61.7768 39.675 61.9201 39.815L61.6951 40.1275C61.6818 40.1475 61.6643 40.165 61.6426 40.18C61.6226 40.195 61.5943 40.2025 61.5576 40.2025C61.5326 40.2025 61.5068 40.1958 61.4801 40.1825C61.4534 40.1675 61.4243 40.15 61.3926 40.13C61.3609 40.1083 61.3243 40.085 61.2826 40.06C61.2409 40.035 61.1926 40.0125 61.1376 39.9925C61.0826 39.9708 61.0184 39.9533 60.9451 39.94C60.8734 39.925 60.7901 39.9175 60.6951 39.9175C60.5334 39.9175 60.3851 39.9467 60.2501 40.005C60.1168 40.0617 60.0018 40.145 59.9051 40.255C59.8084 40.3633 59.7334 40.4967 59.6801 40.655C59.6268 40.8117 59.6001 40.9908 59.6001 41.1925C59.6001 41.3958 59.6284 41.5767 59.6851 41.735C59.7434 41.8933 59.8218 42.0267 59.9201 42.135C60.0184 42.2433 60.1343 42.3267 60.2676 42.385C60.4009 42.4417 60.5443 42.47 60.6976 42.47C60.7893 42.47 60.8718 42.465 60.9451 42.455C61.0201 42.445 61.0884 42.4292 61.1501 42.4075C61.2134 42.3858 61.2726 42.3583 61.3276 42.325C61.3843 42.29 61.4401 42.2475 61.4951 42.1975C61.5118 42.1825 61.5293 42.1708 61.5476 42.1625C61.5659 42.1525 61.5851 42.1475 61.6051 42.1475ZM67.2383 39.385L66.1158 43H65.5083L64.7183 40.53C64.6966 40.47 64.6766 40.3967 64.6583 40.31C64.6483 40.3517 64.6383 40.3908 64.6283 40.4275C64.6183 40.4642 64.6074 40.4983 64.5958 40.53L63.7983 43H63.1883L62.0683 39.385H62.6308C62.6891 39.385 62.7374 39.3992 62.7758 39.4275C62.8158 39.4542 62.8424 39.4908 62.8558 39.5375L63.4708 41.7C63.4841 41.7533 63.4966 41.8117 63.5083 41.875C63.5216 41.9367 63.5349 42.0017 63.5483 42.07C63.5616 42 63.5758 41.9342 63.5908 41.8725C63.6074 41.8108 63.6249 41.7533 63.6433 41.7L64.3533 39.5375C64.3666 39.4992 64.3924 39.4642 64.4308 39.4325C64.4708 39.4008 64.5191 39.385 64.5758 39.385H64.7733C64.8316 39.385 64.8791 39.3992 64.9158 39.4275C64.9524 39.4558 64.9799 39.4925 64.9983 39.5375L65.7058 41.7C65.7408 41.8033 65.7724 41.9225 65.8008 42.0575C65.8224 41.9258 65.8466 41.8067 65.8733 41.7L66.4883 39.5375C66.4983 39.4958 66.5233 39.46 66.5633 39.43C66.6049 39.4 66.6541 39.385 66.7108 39.385H67.2383Z" fill="#20C9B5"/>
<path d="M77 49.9998C77 48 78.5 48.4992 78.5 46.4996C78.5 44.5 79.5 44.5 80 44.5C80.5 44.5 80.5 45.5 81 45.5C81.5 45.5 81.5001 44.5 82 44.5C82.4999 44.5 83.5 44.4992 83.5 46.4996C83.5 48.5 85 48 85 49.9998" stroke="#20C9B5"/>
<path d="M78.3008 41.105C78.4274 41.105 78.5374 41.0892 78.6308 41.0575C78.7258 41.0258 78.8033 40.9825 78.8633 40.9275C78.9249 40.8708 78.9708 40.8042 79.0008 40.7275C79.0308 40.6508 79.0458 40.5667 79.0458 40.475C79.0458 40.2917 78.9849 40.1508 78.8633 40.0525C78.7433 39.9542 78.5591 39.905 78.3108 39.905H77.8808V41.105H78.3008ZM80.0308 43H79.4233C79.3083 43 79.2249 42.955 79.1733 42.865L78.4133 41.7075C78.3849 41.6642 78.3533 41.6333 78.3183 41.615C78.2849 41.5967 78.2349 41.5875 78.1683 41.5875H77.8808V43H77.2083V39.385H78.3108C78.5558 39.385 78.7658 39.4108 78.9408 39.4625C79.1174 39.5125 79.2616 39.5833 79.3733 39.675C79.4866 39.7667 79.5699 39.8767 79.6233 40.005C79.6766 40.1317 79.7033 40.2717 79.7033 40.425C79.7033 40.5467 79.6849 40.6617 79.6483 40.77C79.6133 40.8783 79.5616 40.9767 79.4933 41.065C79.4266 41.1533 79.3433 41.2308 79.2433 41.2975C79.1449 41.3642 79.0324 41.4167 78.9058 41.455C78.9491 41.48 78.9891 41.51 79.0258 41.545C79.0624 41.5783 79.0958 41.6183 79.1258 41.665L80.0308 43ZM85.153 39.385L84.0305 43H83.423L82.6329 40.53C82.6113 40.47 82.5914 40.3967 82.573 40.31C82.563 40.3517 82.553 40.3908 82.543 40.4275C82.533 40.4642 82.5222 40.4983 82.5105 40.53L81.713 43H81.103L79.983 39.385H80.5455C80.6039 39.385 80.6522 39.3992 80.6905 39.4275C80.7305 39.4542 80.7572 39.4908 80.7705 39.5375L81.3855 41.7C81.3989 41.7533 81.4114 41.8117 81.423 41.875C81.4364 41.9367 81.4497 42.0017 81.463 42.07C81.4764 42 81.4905 41.9342 81.5055 41.8725C81.5222 41.8108 81.5397 41.7533 81.558 41.7L82.268 39.5375C82.2814 39.4992 82.3072 39.4642 82.3455 39.4325C82.3855 39.4008 82.4339 39.385 82.4905 39.385H82.688C82.7464 39.385 82.7939 39.3992 82.8305 39.4275C82.8672 39.4558 82.8947 39.4925 82.913 39.5375L83.6205 41.7C83.6555 41.8033 83.6872 41.9225 83.7155 42.0575C83.7372 41.9258 83.7614 41.8067 83.788 41.7L84.403 39.5375C84.413 39.4958 84.438 39.46 84.478 39.43C84.5197 39.4 84.5689 39.385 84.6255 39.385H85.153Z" fill="#20C9B5"/>
<path d="M10.4622 63.0874C5.61047 63.1067 4.01134 66.6776 4.0084 68L3 67.9974C3.0044 66.0171 5.14529 61.8931 10.7185 62.0021H15V63.0894H10.7532C10.7385 63.089 10.7238 63.0897 10.7091 63.0894H10.4622V63.0874Z" fill="#20C9B5"/>
<path fill-rule="evenodd" clip-rule="evenodd" d="M26 63H33V62H26C24.6861 62 23.4026 62.2883 22.4563 63.2492C21.5133 64.2067 21 65.736 21 68H22C22 65.864 22.4867 64.6433 23.1687 63.9508C23.8474 63.2617 24.8139 63 26 63Z" fill="#20C9B5"/>
<path d="M46.4622 63.0874C41.6105 63.1067 40.0113 66.6776 40.0084 68L39 67.9974C39.0044 66.0171 41.1453 61.8931 46.7185 62.0021H51V63.0894H46.7532C46.7385 63.089 46.7238 63.0897 46.7091 63.0894H46.4622V63.0874Z" fill="#20C9B5"/>
<path d="M41.4606 58.9H41.6181C41.6815 58.9 41.734 58.8917 41.7756 58.875C41.8173 58.8567 41.8531 58.8283 41.8831 58.79L42.8806 57.5275C42.9223 57.4742 42.9656 57.4375 43.0106 57.4175C43.0573 57.3958 43.1156 57.385 43.1856 57.385H43.7656L42.5481 58.8875C42.4765 58.9792 42.4023 59.0442 42.3256 59.0825C42.3806 59.1025 42.4298 59.1308 42.4731 59.1675C42.5181 59.2025 42.5606 59.2492 42.6006 59.3075L43.8556 61H43.2631C43.1831 61 43.1231 60.9892 43.0831 60.9675C43.0448 60.9442 43.0123 60.9108 42.9856 60.8675L41.9631 59.5325C41.9315 59.4875 41.8948 59.4558 41.8531 59.4375C41.8115 59.4192 41.7515 59.41 41.6731 59.41H41.4606V61H40.7881V57.385H41.4606V58.9ZM44.0834 58.3925C44.1084 58.2192 44.1567 58.0675 44.2284 57.9375C44.3 57.8058 44.3892 57.6967 44.4959 57.61C44.6042 57.5217 44.7275 57.4558 44.8659 57.4125C45.0059 57.3675 45.1559 57.345 45.3159 57.345C45.4825 57.345 45.6325 57.3692 45.7659 57.4175C45.9009 57.4642 46.0159 57.53 46.1109 57.615C46.2059 57.6983 46.2784 57.7967 46.3284 57.91C46.38 58.0233 46.4059 58.1458 46.4059 58.2775C46.4059 58.3925 46.3925 58.4942 46.3659 58.5825C46.3409 58.6692 46.3042 58.745 46.2559 58.81C46.2075 58.875 46.1475 58.93 46.0759 58.975C46.0042 59.02 45.9234 59.0575 45.8334 59.0875C46.05 59.1558 46.2117 59.26 46.3184 59.4C46.425 59.54 46.4784 59.7158 46.4784 59.9275C46.4784 60.1075 46.445 60.2667 46.3784 60.405C46.3117 60.5433 46.2217 60.66 46.1084 60.755C45.995 60.8483 45.8634 60.9192 45.7134 60.9675C45.565 61.0158 45.4075 61.04 45.2409 61.04C45.0592 61.04 44.9009 61.0192 44.7659 60.9775C44.6309 60.9358 44.5134 60.8742 44.4134 60.7925C44.3134 60.7108 44.2284 60.6108 44.1584 60.4925C44.0884 60.3742 44.0284 60.2375 43.9784 60.0825L44.2509 59.97C44.3225 59.94 44.3892 59.9325 44.4509 59.9475C44.5142 59.9608 44.56 59.9942 44.5884 60.0475C44.6184 60.1058 44.6509 60.1633 44.6859 60.22C44.7225 60.2767 44.7659 60.3275 44.8159 60.3725C44.8659 60.4158 44.9242 60.4517 44.9909 60.48C45.0592 60.5067 45.14 60.52 45.2334 60.52C45.3384 60.52 45.43 60.5033 45.5084 60.47C45.5867 60.435 45.6517 60.39 45.7034 60.335C45.7567 60.28 45.7959 60.2192 45.8209 60.1525C45.8475 60.0842 45.8609 60.0158 45.8609 59.9475C45.8609 59.8608 45.8517 59.7825 45.8334 59.7125C45.815 59.6408 45.7767 59.58 45.7184 59.53C45.66 59.48 45.5759 59.4408 45.4659 59.4125C45.3575 59.3842 45.2117 59.37 45.0284 59.37V58.93C45.18 58.9283 45.3059 58.9142 45.4059 58.8875C45.5059 58.8608 45.585 58.8242 45.6434 58.7775C45.7034 58.7292 45.745 58.6717 45.7684 58.605C45.7917 58.5383 45.8034 58.465 45.8034 58.385C45.8034 58.215 45.7559 58.0858 45.6609 57.9975C45.5659 57.9092 45.4392 57.865 45.2809 57.865C45.2075 57.865 45.14 57.8758 45.0784 57.8975C45.0167 57.9175 44.9609 57.9467 44.9109 57.985C44.8625 58.0217 44.8217 58.065 44.7884 58.115C44.755 58.165 44.73 58.22 44.7134 58.28C44.685 58.3567 44.6475 58.4075 44.6009 58.4325C44.5559 58.4575 44.4917 58.4633 44.4084 58.45L44.0834 58.3925ZM47.7288 58.6975C47.8088 58.6808 47.8854 58.6692 47.9588 58.6625C48.0321 58.6542 48.1029 58.65 48.1713 58.65C48.3613 58.65 48.5288 58.6783 48.6738 58.735C48.8188 58.7917 48.9404 58.87 49.0388 58.97C49.1371 59.07 49.2113 59.1875 49.2613 59.3225C49.3113 59.4558 49.3363 59.6 49.3363 59.755C49.3363 59.9467 49.3021 60.1217 49.2338 60.28C49.1671 60.4383 49.0738 60.5742 48.9538 60.6875C48.8338 60.7992 48.6913 60.8858 48.5263 60.9475C48.3629 61.0092 48.1846 61.04 47.9913 61.04C47.8779 61.04 47.7704 61.0283 47.6688 61.005C47.5671 60.9817 47.4713 60.9508 47.3813 60.9125C47.2929 60.8725 47.2104 60.8275 47.1338 60.7775C47.0588 60.7258 46.9913 60.6717 46.9313 60.615L47.1213 60.3525C47.1613 60.2958 47.2138 60.2675 47.2788 60.2675C47.3204 60.2675 47.3629 60.2808 47.4063 60.3075C47.4496 60.3342 47.4988 60.3633 47.5538 60.395C47.6104 60.4267 47.6763 60.4558 47.7513 60.4825C47.8279 60.5092 47.9196 60.5225 48.0263 60.5225C48.1396 60.5225 48.2396 60.5042 48.3263 60.4675C48.4129 60.4308 48.4846 60.38 48.5413 60.315C48.5996 60.2483 48.6429 60.17 48.6713 60.08C48.7013 59.9883 48.7163 59.8892 48.7163 59.7825C48.7163 59.5858 48.6588 59.4325 48.5438 59.3225C48.4304 59.2108 48.2621 59.155 48.0388 59.155C47.8671 59.155 47.6913 59.1867 47.5113 59.25L47.1263 59.14L47.4263 57.385H49.2113V57.6475C49.2113 57.7358 49.1838 57.8075 49.1288 57.8625C49.0738 57.9175 48.9804 57.945 48.8488 57.945H47.8563L47.7288 58.6975Z" fill="#20C9B5"/>
<path d="M64.4622 63.0874C59.6105 63.1067 58.0113 66.6776 58.0084 68L57 67.9974C57.0044 66.0171 59.1453 61.8931 64.7185 62.0021H69V63.0894H64.7532C64.7385 63.089 64.7238 63.0897 64.7091 63.0894H64.4622V63.0874Z" fill="#20C9B5"/>
<path d="M59.2963 59.1925C59.2963 59.4575 59.2521 59.7033 59.1638 59.93C59.0771 60.155 58.9538 60.35 58.7938 60.515C58.6338 60.68 58.4413 60.8092 58.2163 60.9025C57.9913 60.9942 57.7413 61.04 57.4663 61.04C57.193 61.04 56.9438 60.9942 56.7188 60.9025C56.4938 60.8092 56.3005 60.68 56.1388 60.515C55.9788 60.35 55.8546 60.155 55.7663 59.93C55.678 59.7033 55.6338 59.4575 55.6338 59.1925C55.6338 58.9275 55.678 58.6825 55.7663 58.4575C55.8546 58.2308 55.9788 58.035 56.1388 57.87C56.3005 57.705 56.4938 57.5767 56.7188 57.485C56.9438 57.3917 57.193 57.345 57.4663 57.345C57.6496 57.345 57.8221 57.3667 57.9838 57.41C58.1455 57.4517 58.2938 57.5117 58.4288 57.59C58.5638 57.6667 58.6846 57.7608 58.7913 57.8725C58.8996 57.9825 58.9913 58.1058 59.0663 58.2425C59.1413 58.3792 59.198 58.5275 59.2363 58.6875C59.2763 58.8475 59.2963 59.0158 59.2963 59.1925ZM58.6088 59.1925C58.6088 58.9942 58.5821 58.8167 58.5288 58.66C58.4755 58.5017 58.3996 58.3675 58.3013 58.2575C58.203 58.1475 58.083 58.0633 57.9413 58.005C57.8013 57.9467 57.643 57.9175 57.4663 57.9175C57.2896 57.9175 57.1305 57.9467 56.9888 58.005C56.8488 58.0633 56.7288 58.1475 56.6288 58.2575C56.5305 58.3675 56.4546 58.5017 56.4013 58.66C56.348 58.8167 56.3213 58.9942 56.3213 59.1925C56.3213 59.3908 56.348 59.5692 56.4013 59.7275C56.4546 59.8842 56.5305 60.0175 56.6288 60.1275C56.7288 60.2358 56.8488 60.3192 56.9888 60.3775C57.1305 60.4358 57.2896 60.465 57.4663 60.465C57.643 60.465 57.8013 60.4358 57.9413 60.3775C58.083 60.3192 58.203 60.2358 58.3013 60.1275C58.3996 60.0175 58.4755 59.8842 58.5288 59.7275C58.5821 59.5692 58.6088 59.3908 58.6088 59.1925ZM61.2394 60.475C61.3644 60.475 61.4694 60.46 61.5544 60.43C61.6394 60.4 61.7069 60.36 61.7569 60.31C61.8085 60.26 61.8452 60.2017 61.8669 60.135C61.8902 60.0683 61.9019 59.9975 61.9019 59.9225C61.9019 59.8442 61.8894 59.7742 61.8644 59.7125C61.8394 59.6492 61.8002 59.5958 61.7469 59.5525C61.6935 59.5075 61.6244 59.4733 61.5394 59.45C61.456 59.4267 61.3552 59.415 61.2369 59.415H60.5594V60.475H61.2394ZM60.5594 57.905V58.95H61.0944C61.3244 58.95 61.4977 58.9083 61.6144 58.825C61.7327 58.7417 61.7919 58.6092 61.7919 58.4275C61.7919 58.2392 61.7385 58.105 61.6319 58.025C61.5252 57.945 61.3585 57.905 61.1319 57.905H60.5594ZM61.1319 57.385C61.3685 57.385 61.571 57.4075 61.7394 57.4525C61.9077 57.4975 62.0452 57.5617 62.1519 57.645C62.2602 57.7283 62.3394 57.8292 62.3894 57.9475C62.4394 58.0658 62.4644 58.1992 62.4644 58.3475C62.4644 58.4325 62.4519 58.5142 62.4269 58.5925C62.4019 58.6692 62.3627 58.7417 62.3094 58.81C62.2577 58.8767 62.191 58.9375 62.1094 58.9925C62.0294 59.0475 61.9335 59.0942 61.8219 59.1325C62.3185 59.2442 62.5669 59.5125 62.5669 59.9375C62.5669 60.0908 62.5377 60.2325 62.4794 60.3625C62.421 60.4925 62.336 60.605 62.2244 60.7C62.1127 60.7933 61.9752 60.8667 61.8119 60.92C61.6485 60.9733 61.4619 61 61.2519 61H59.8869V57.385H61.1319ZM63.0604 59.2325H64.3554V59.7475H63.0604V59.2325ZM67.8634 61H67.1934C67.1468 61 67.1093 60.9883 67.0809 60.965C67.0543 60.9417 67.0326 60.915 67.0159 60.885L66.1784 59.4975C66.1651 59.5392 66.1493 59.575 66.1309 59.605L65.3284 60.885C65.3084 60.9133 65.2851 60.94 65.2584 60.965C65.2334 60.9883 65.2001 61 65.1584 61H64.5309L65.7309 59.14L64.5784 57.385H65.2484C65.2951 57.385 65.3284 57.3917 65.3484 57.405C65.3701 57.4167 65.3901 57.4367 65.4084 57.465L66.2309 58.79C66.2476 58.7483 66.2676 58.7067 66.2909 58.665L67.0459 57.4775C67.0643 57.4458 67.0843 57.4225 67.1059 57.4075C67.1276 57.3925 67.1551 57.385 67.1884 57.385H67.8309L66.6684 59.1125L67.8634 61ZM69.6318 59.09C69.5618 59.005 69.4851 58.945 69.4018 58.91C69.3201 58.875 69.2318 58.8575 69.1368 58.8575C69.0435 58.8575 68.9593 58.875 68.8843 58.91C68.8093 58.945 68.7451 58.9983 68.6918 59.07C68.6385 59.14 68.5976 59.23 68.5693 59.34C68.541 59.4483 68.5268 59.5767 68.5268 59.725C68.5268 59.875 68.5385 60.0025 68.5618 60.1075C68.5868 60.2108 68.6218 60.2958 68.6668 60.3625C68.7118 60.4275 68.7668 60.475 68.8318 60.505C68.8968 60.5333 68.9693 60.5475 69.0493 60.5475C69.1776 60.5475 69.2868 60.5208 69.3768 60.4675C69.4668 60.4142 69.5518 60.3383 69.6318 60.24V59.09ZM70.2493 57.285V61H69.8718C69.7901 61 69.7385 60.9625 69.7168 60.8875L69.6643 60.64C69.561 60.7583 69.4418 60.8542 69.3068 60.9275C69.1735 61.0008 69.0176 61.0375 68.8393 61.0375C68.6993 61.0375 68.571 61.0083 68.4543 60.95C68.3376 60.8917 68.2368 60.8075 68.1518 60.6975C68.0685 60.5858 68.0035 60.4483 67.9568 60.285C67.9118 60.1217 67.8893 59.935 67.8893 59.725C67.8893 59.535 67.9151 59.3583 67.9668 59.195C68.0185 59.0317 68.0926 58.89 68.1893 58.77C68.286 58.65 68.4018 58.5567 68.5368 58.49C68.6718 58.4217 68.8235 58.3875 68.9918 58.3875C69.1351 58.3875 69.2576 58.41 69.3593 58.455C69.461 58.5 69.5518 58.5608 69.6318 58.6375V57.285H70.2493Z" fill="#20C9B5"/>
<path d="M75 68C75 66.7633 76 65.4996 76 64C76 62.5004 76.5001 61.5 77 61.5C77.4999 61.5 78 62.5 79 62.5C80 62.5 80 63 80.5 63C81 63 81 62.5 82 62.5C83 62.5 87 62.5 87 62.5" stroke="#20C9B5"/>
<path d="M79.6051 60.1475C79.6418 60.1475 79.6743 60.1617 79.7026 60.19L79.9676 60.4775C79.8209 60.6592 79.6401 60.7983 79.4251 60.895C79.2118 60.9917 78.9551 61.04 78.6551 61.04C78.3868 61.04 78.1451 60.9942 77.9301 60.9025C77.7168 60.8108 77.5343 60.6833 77.3826 60.52C77.2309 60.3567 77.1143 60.1617 77.0326 59.935C76.9526 59.7083 76.9126 59.4608 76.9126 59.1925C76.9126 58.9208 76.9559 58.6725 77.0426 58.4475C77.1293 58.2208 77.2509 58.0258 77.4076 57.8625C77.5659 57.6992 77.7543 57.5725 77.9726 57.4825C78.1909 57.3908 78.4326 57.345 78.6976 57.345C78.9609 57.345 79.1943 57.3883 79.3976 57.475C79.6026 57.5617 79.7768 57.675 79.9201 57.815L79.6951 58.1275C79.6818 58.1475 79.6643 58.165 79.6426 58.18C79.6226 58.195 79.5943 58.2025 79.5576 58.2025C79.5326 58.2025 79.5068 58.1958 79.4801 58.1825C79.4534 58.1675 79.4243 58.15 79.3926 58.13C79.3609 58.1083 79.3243 58.085 79.2826 58.06C79.2409 58.035 79.1926 58.0125 79.1376 57.9925C79.0826 57.9708 79.0184 57.9533 78.9451 57.94C78.8734 57.925 78.7901 57.9175 78.6951 57.9175C78.5334 57.9175 78.3851 57.9467 78.2501 58.005C78.1168 58.0617 78.0018 58.145 77.9051 58.255C77.8084 58.3633 77.7334 58.4967 77.6801 58.655C77.6268 58.8117 77.6001 58.9908 77.6001 59.1925C77.6001 59.3958 77.6284 59.5767 77.6851 59.735C77.7434 59.8933 77.8218 60.0267 77.9201 60.135C78.0184 60.2433 78.1343 60.3267 78.2676 60.385C78.4009 60.4417 78.5443 60.47 78.6976 60.47C78.7893 60.47 78.8718 60.465 78.9451 60.455C79.0201 60.445 79.0884 60.4292 79.1501 60.4075C79.2134 60.3858 79.2726 60.3583 79.3276 60.325C79.3843 60.29 79.4401 60.2475 79.4951 60.1975C79.5118 60.1825 79.5293 60.1708 79.5476 60.1625C79.5659 60.1525 79.5851 60.1475 79.6051 60.1475ZM85.2383 57.385L84.1158 61H83.5083L82.7183 58.53C82.6966 58.47 82.6766 58.3967 82.6583 58.31C82.6483 58.3517 82.6383 58.3908 82.6283 58.4275C82.6183 58.4642 82.6074 58.4983 82.5958 58.53L81.7983 61H81.1883L80.0683 57.385H80.6308C80.6891 57.385 80.7374 57.3992 80.7758 57.4275C80.8158 57.4542 80.8424 57.4908 80.8558 57.5375L81.4708 59.7C81.4841 59.7533 81.4966 59.8117 81.5083 59.875C81.5216 59.9367 81.5349 60.0017 81.5483 60.07C81.5616 60 81.5758 59.9342 81.5908 59.8725C81.6074 59.8108 81.6249 59.7533 81.6433 59.7L82.3533 57.5375C82.3666 57.4992 82.3924 57.4642 82.4308 57.4325C82.4708 57.4008 82.5191 57.385 82.5758 57.385H82.7733C82.8316 57.385 82.8791 57.3992 82.9158 57.4275C82.9524 57.4558 82.9799 57.4925 82.9983 57.5375L83.7058 59.7C83.7408 59.8033 83.7724 59.9225 83.8008 60.0575C83.8224 59.9258 83.8466 59.8067 83.8733 59.7L84.4883 57.5375C84.4983 57.4958 84.5233 57.46 84.5633 57.43C84.6049 57.4 84.6541 57.385 84.7108 57.385H85.2383Z" fill="#20C9B5"/>
<path d="M93 68C93 66.7633 94 65.4996 94 64C94 62.5004 94.5001 61.5 95 61.5C95.4999 61.5 96 62.5 97 62.5C98 62.5 98 63 98.5 63C99 63 99 62.5 100 62.5C101 62.5 105 62.5 105 62.5" stroke="#20C9B5"/>
<path d="M96.3008 59.105C96.4274 59.105 96.5374 59.0892 96.6308 59.0575C96.7258 59.0258 96.8033 58.9825 96.8633 58.9275C96.9249 58.8708 96.9708 58.8042 97.0008 58.7275C97.0308 58.6508 97.0458 58.5667 97.0458 58.475C97.0458 58.2917 96.9849 58.1508 96.8633 58.0525C96.7433 57.9542 96.5591 57.905 96.3108 57.905H95.8808V59.105H96.3008ZM98.0308 61H97.4233C97.3083 61 97.2249 60.955 97.1733 60.865L96.4133 59.7075C96.3849 59.6642 96.3533 59.6333 96.3183 59.615C96.2849 59.5967 96.2349 59.5875 96.1683 59.5875H95.8808V61H95.2083V57.385H96.3108C96.5558 57.385 96.7658 57.4108 96.9408 57.4625C97.1174 57.5125 97.2616 57.5833 97.3733 57.675C97.4866 57.7667 97.5699 57.8767 97.6233 58.005C97.6766 58.1317 97.7033 58.2717 97.7033 58.425C97.7033 58.5467 97.6849 58.6617 97.6483 58.77C97.6133 58.8783 97.5616 58.9767 97.4933 59.065C97.4266 59.1533 97.3433 59.2308 97.2433 59.2975C97.1449 59.3642 97.0324 59.4167 96.9058 59.455C96.9491 59.48 96.9891 59.51 97.0258 59.545C97.0624 59.5783 97.0958 59.6183 97.1258 59.665L98.0308 61ZM103.153 57.385L102.03 61H101.423L100.633 58.53C100.611 58.47 100.591 58.3967 100.573 58.31C100.563 58.3517 100.553 58.3908 100.543 58.4275C100.533 58.4642 100.522 58.4983 100.51 58.53L99.713 61H99.103L97.983 57.385H98.5455C98.6039 57.385 98.6522 57.3992 98.6905 57.4275C98.7305 57.4542 98.7572 57.4908 98.7705 57.5375L99.3855 59.7C99.3989 59.7533 99.4114 59.8117 99.423 59.875C99.4364 59.9367 99.4497 60.0017 99.463 60.07C99.4764 60 99.4905 59.9342 99.5055 59.8725C99.5222 59.8108 99.5397 59.7533 99.558 59.7L100.268 57.5375C100.281 57.4992 100.307 57.4642 100.345 57.4325C100.385 57.4008 100.434 57.385 100.49 57.385H100.688C100.746 57.385 100.794 57.3992 100.83 57.4275C100.867 57.4558 100.895 57.4925 100.913 57.5375L101.62 59.7C101.655 59.8033 101.687 59.9225 101.715 60.0575C101.737 59.9258 101.761 59.8067 101.788 59.7L102.403 57.5375C102.413 57.4958 102.438 57.46 102.478 57.43C102.52 57.4 102.569 57.385 102.625 57.385H103.153Z" fill="#20C9B5"/>
<path fill-rule="evenodd" clip-rule="evenodd" d="M6.61327 81.6973C6.00115 81.2892 5.16251 81 4 81V80C5.33749 80 6.37385 80.3358 7.16798 80.8652C7.95897 81.3926 8.48006 82.0921 8.82221 82.7764C8.88763 82.9072 8.94669 83.0378 9 83.167C9.05332 83.0378 9.11237 82.9072 9.17779 82.7764C9.51994 82.0921 10.041 81.3926 10.832 80.8652C11.6261 80.3358 12.6625 80 14 80V81C12.8375 81 11.9989 81.2892 11.3867 81.6973C10.7715 82.1074 10.3551 82.6579 10.0722 83.2236C9.78839 83.7912 9.64399 84.3649 9.57132 84.8009C9.53519 85.0178 9.51731 85.1974 9.50849 85.3208C9.50409 85.3824 9.50197 85.4298 9.50094 85.4605C9.50043 85.4759 9.5002 85.487 9.50009 85.4937L9.5 85.4995V85.5V85.5003C9.5 85.5007 9.5 85.5009 9.5 85.501V85.5008V85.5004C9.49977 85.7764 9.276 86 9 86C8.72412 86 8.50043 85.7766 8.5 85.5008V85.501C8.5 85.5009 8.5 85.5007 8.5 85.5003L8.49991 85.4937C8.4998 85.487 8.49957 85.4759 8.49906 85.4605C8.49803 85.4298 8.49591 85.3824 8.49151 85.3208C8.48269 85.1974 8.46481 85.0178 8.42868 84.8009C8.35601 84.3649 8.21161 83.7912 7.92779 83.2236C7.64494 82.6579 7.22853 82.1074 6.61327 81.6973Z" fill="#20C9B5"/>
<path d="M25 80C25.3375 80 25.6864 80.0858 26.0117 80.3027C26.334 80.5176 26.6051 80.8421 26.8222 81.2764C26.905 81.442 26.9812 81.6261 27.0502 81.8299C27.1942 81.4277 27.3787 81.0483 27.6174 80.7405C27.9423 80.3215 28.3995 80 29 80H32V81H29C28.8005 81 28.6077 81.0952 28.4076 81.3533C28.2006 81.6203 28.0224 82.0204 27.8805 82.5134C27.5979 83.4946 27.5 84.694 27.5 85.5C27.5 85.7761 27.2761 86 27 86C26.7239 86 26.5 85.7761 26.5 85.5C26.5 83.5255 26.2505 82.3691 25.9278 81.7236C25.7699 81.4079 25.6035 81.2324 25.457 81.1348C25.3136 81.0392 25.1625 81 25 81H22V80H25Z" fill="#20C9B5"/>
<path fill-rule="evenodd" clip-rule="evenodd" d="M42.6133 81.6973C42.0011 81.2892 41.1625 81 40 81V80C41.3375 80 42.3739 80.3358 43.168 80.8652C43.959 81.3926 44.4801 82.0921 44.8222 82.7764C44.8876 82.9072 44.9467 83.0378 45 83.167C45.0533 83.0378 45.1124 82.9072 45.1778 82.7764C45.5199 82.0921 46.041 81.3926 46.832 80.8652C47.6261 80.3358 48.6625 80 50 80V81C48.8375 81 47.9989 81.2892 47.3867 81.6973C46.7715 82.1074 46.3551 82.6579 46.0722 83.2236C45.7884 83.7912 45.644 84.3649 45.5713 84.8009C45.5352 85.0178 45.5173 85.1974 45.5085 85.3208C45.5041 85.3824 45.502 85.4298 45.5009 85.4605C45.5004 85.4759 45.5002 85.487 45.5001 85.4937L45.5 85.4995V85.5V85.5003C45.5 85.5007 45.5 85.5009 45.5 85.501V85.5008V85.5004C45.4998 85.7764 45.276 86 45 86C44.7241 86 44.5004 85.7766 44.5 85.5008V85.501C44.5 85.5009 44.5 85.5007 44.5 85.5003L44.4999 85.4937C44.4998 85.487 44.4996 85.4759 44.4991 85.4605C44.498 85.4298 44.4959 85.3824 44.4915 85.3208C44.4827 85.1974 44.4648 85.0178 44.4287 84.8009C44.356 84.3649 44.2116 83.7912 43.9278 83.2236C43.6449 82.6579 43.2285 82.1074 42.6133 81.6973Z" fill="#20C9B5"/>
<path d="M41.2963 77.1925C41.2963 77.4575 41.2521 77.7033 41.1638 77.93C41.0771 78.155 40.9538 78.35 40.7938 78.515C40.6338 78.68 40.4413 78.8092 40.2163 78.9025C39.9913 78.9942 39.7413 79.04 39.4663 79.04C39.193 79.04 38.9438 78.9942 38.7188 78.9025C38.4938 78.8092 38.3005 78.68 38.1388 78.515C37.9788 78.35 37.8546 78.155 37.7663 77.93C37.678 77.7033 37.6338 77.4575 37.6338 77.1925C37.6338 76.9275 37.678 76.6825 37.7663 76.4575C37.8546 76.2308 37.9788 76.035 38.1388 75.87C38.3005 75.705 38.4938 75.5767 38.7188 75.485C38.9438 75.3917 39.193 75.345 39.4663 75.345C39.6496 75.345 39.8221 75.3667 39.9838 75.41C40.1455 75.4517 40.2938 75.5117 40.4288 75.59C40.5638 75.6667 40.6846 75.7608 40.7913 75.8725C40.8996 75.9825 40.9913 76.1058 41.0663 76.2425C41.1413 76.3792 41.198 76.5275 41.2363 76.6875C41.2763 76.8475 41.2963 77.0158 41.2963 77.1925ZM40.6088 77.1925C40.6088 76.9942 40.5821 76.8167 40.5288 76.66C40.4755 76.5017 40.3996 76.3675 40.3013 76.2575C40.203 76.1475 40.083 76.0633 39.9413 76.005C39.8013 75.9467 39.643 75.9175 39.4663 75.9175C39.2896 75.9175 39.1305 75.9467 38.9888 76.005C38.8488 76.0633 38.7288 76.1475 38.6288 76.2575C38.5305 76.3675 38.4546 76.5017 38.4013 76.66C38.348 76.8167 38.3213 76.9942 38.3213 77.1925C38.3213 77.3908 38.348 77.5692 38.4013 77.7275C38.4546 77.8842 38.5305 78.0175 38.6288 78.1275C38.7288 78.2358 38.8488 78.3192 38.9888 78.3775C39.1305 78.4358 39.2896 78.465 39.4663 78.465C39.643 78.465 39.8013 78.4358 39.9413 78.3775C40.083 78.3192 40.203 78.2358 40.3013 78.1275C40.3996 78.0175 40.4755 77.8842 40.5288 77.7275C40.5821 77.5692 40.6088 77.3908 40.6088 77.1925ZM43.2394 78.475C43.3644 78.475 43.4694 78.46 43.5544 78.43C43.6394 78.4 43.7069 78.36 43.7569 78.31C43.8085 78.26 43.8452 78.2017 43.8669 78.135C43.8902 78.0683 43.9019 77.9975 43.9019 77.9225C43.9019 77.8442 43.8894 77.7742 43.8644 77.7125C43.8394 77.6492 43.8002 77.5958 43.7469 77.5525C43.6935 77.5075 43.6244 77.4733 43.5394 77.45C43.456 77.4267 43.3552 77.415 43.2369 77.415H42.5594V78.475H43.2394ZM42.5594 75.905V76.95H43.0944C43.3244 76.95 43.4977 76.9083 43.6144 76.825C43.7327 76.7417 43.7919 76.6092 43.7919 76.4275C43.7919 76.2392 43.7385 76.105 43.6319 76.025C43.5252 75.945 43.3585 75.905 43.1319 75.905H42.5594ZM43.1319 75.385C43.3685 75.385 43.571 75.4075 43.7394 75.4525C43.9077 75.4975 44.0452 75.5617 44.1519 75.645C44.2602 75.7283 44.3394 75.8292 44.3894 75.9475C44.4394 76.0658 44.4644 76.1992 44.4644 76.3475C44.4644 76.4325 44.4519 76.5142 44.4269 76.5925C44.4019 76.6692 44.3627 76.7417 44.3094 76.81C44.2577 76.8767 44.191 76.9375 44.1094 76.9925C44.0294 77.0475 43.9335 77.0942 43.8219 77.1325C44.3185 77.2442 44.5669 77.5125 44.5669 77.9375C44.5669 78.0908 44.5377 78.2325 44.4794 78.3625C44.421 78.4925 44.336 78.605 44.2244 78.7C44.1127 78.7933 43.9752 78.8667 43.8119 78.92C43.6485 78.9733 43.4619 79 43.2519 79H41.8869V75.385H43.1319ZM45.0604 77.2325H46.3554V77.7475H45.0604V77.2325ZM49.8634 79H49.1934C49.1468 79 49.1093 78.9883 49.0809 78.965C49.0543 78.9417 49.0326 78.915 49.0159 78.885L48.1784 77.4975C48.1651 77.5392 48.1493 77.575 48.1309 77.605L47.3284 78.885C47.3084 78.9133 47.2851 78.94 47.2584 78.965C47.2334 78.9883 47.2001 79 47.1584 79H46.5309L47.7309 77.14L46.5784 75.385H47.2484C47.2951 75.385 47.3284 75.3917 47.3484 75.405C47.3701 75.4167 47.3901 75.4367 47.4084 75.465L48.2309 76.79C48.2476 76.7483 48.2676 76.7067 48.2909 76.665L49.0459 75.4775C49.0643 75.4458 49.0843 75.4225 49.1059 75.4075C49.1276 75.3925 49.1551 75.385 49.1884 75.385H49.8309L48.6684 77.1125L49.8634 79ZM51.6318 77.09C51.5618 77.005 51.4851 76.945 51.4018 76.91C51.3201 76.875 51.2318 76.8575 51.1368 76.8575C51.0435 76.8575 50.9593 76.875 50.8843 76.91C50.8093 76.945 50.7451 76.9983 50.6918 77.07C50.6385 77.14 50.5976 77.23 50.5693 77.34C50.541 77.4483 50.5268 77.5767 50.5268 77.725C50.5268 77.875 50.5385 78.0025 50.5618 78.1075C50.5868 78.2108 50.6218 78.2958 50.6668 78.3625C50.7118 78.4275 50.7668 78.475 50.8318 78.505C50.8968 78.5333 50.9693 78.5475 51.0493 78.5475C51.1776 78.5475 51.2868 78.5208 51.3768 78.4675C51.4668 78.4142 51.5518 78.3383 51.6318 78.24V77.09ZM52.2493 75.285V79H51.8718C51.7901 79 51.7385 78.9625 51.7168 78.8875L51.6643 78.64C51.561 78.7583 51.4418 78.8542 51.3068 78.9275C51.1735 79.0008 51.0176 79.0375 50.8393 79.0375C50.6993 79.0375 50.571 79.0083 50.4543 78.95C50.3376 78.8917 50.2368 78.8075 50.1518 78.6975C50.0685 78.5858 50.0035 78.4483 49.9568 78.285C49.9118 78.1217 49.8893 77.935 49.8893 77.725C49.8893 77.535 49.9151 77.3583 49.9668 77.195C50.0185 77.0317 50.0926 76.89 50.1893 76.77C50.286 76.65 50.4018 76.5567 50.5368 76.49C50.6718 76.4217 50.8235 76.3875 50.9918 76.3875C51.1351 76.3875 51.2576 76.41 51.3593 76.455C51.461 76.5 51.5518 76.5608 51.6318 76.6375V75.285H52.2493Z" fill="#20C9B5"/>
<path d="M68 80.5C68 80.5 67.5 80.5 66.5 80.5C65.5 80.5 64.5 81.5004 64.5 83C64.5 84.4996 64.4999 85.5 64 85.5C63.5001 85.5 64 84 63 84C62 84 62.5 85.5 62 85.5C61.5 85.5 61.5 84.4998 61.5 83C61.5 81.5002 60.5 80.4998 59.5 80.5C58.5 80.5002 58 80.5 58 80.5" stroke="#20C9B5"/>
<path d="M61.6051 78.1475C61.6418 78.1475 61.6743 78.1617 61.7026 78.19L61.9676 78.4775C61.8209 78.6592 61.6401 78.7983 61.4251 78.895C61.2118 78.9917 60.9551 79.04 60.6551 79.04C60.3868 79.04 60.1451 78.9942 59.9301 78.9025C59.7168 78.8108 59.5343 78.6833 59.3826 78.52C59.2309 78.3567 59.1143 78.1617 59.0326 77.935C58.9526 77.7083 58.9126 77.4608 58.9126 77.1925C58.9126 76.9208 58.9559 76.6725 59.0426 76.4475C59.1293 76.2208 59.2509 76.0258 59.4076 75.8625C59.5659 75.6992 59.7543 75.5725 59.9726 75.4825C60.1909 75.3908 60.4326 75.345 60.6976 75.345C60.9609 75.345 61.1943 75.3883 61.3976 75.475C61.6026 75.5617 61.7768 75.675 61.9201 75.815L61.6951 76.1275C61.6818 76.1475 61.6643 76.165 61.6426 76.18C61.6226 76.195 61.5943 76.2025 61.5576 76.2025C61.5326 76.2025 61.5068 76.1958 61.4801 76.1825C61.4534 76.1675 61.4243 76.15 61.3926 76.13C61.3609 76.1083 61.3243 76.085 61.2826 76.06C61.2409 76.035 61.1926 76.0125 61.1376 75.9925C61.0826 75.9708 61.0184 75.9533 60.9451 75.94C60.8734 75.925 60.7901 75.9175 60.6951 75.9175C60.5334 75.9175 60.3851 75.9467 60.2501 76.005C60.1168 76.0617 60.0018 76.145 59.9051 76.255C59.8084 76.3633 59.7334 76.4967 59.6801 76.655C59.6268 76.8117 59.6001 76.9908 59.6001 77.1925C59.6001 77.3958 59.6284 77.5767 59.6851 77.735C59.7434 77.8933 59.8218 78.0267 59.9201 78.135C60.0184 78.2433 60.1343 78.3267 60.2676 78.385C60.4009 78.4417 60.5443 78.47 60.6976 78.47C60.7893 78.47 60.8718 78.465 60.9451 78.455C61.0201 78.445 61.0884 78.4292 61.1501 78.4075C61.2134 78.3858 61.2726 78.3583 61.3276 78.325C61.3843 78.29 61.4401 78.2475 61.4951 78.1975C61.5118 78.1825 61.5293 78.1708 61.5476 78.1625C61.5659 78.1525 61.5851 78.1475 61.6051 78.1475ZM67.2383 75.385L66.1158 79H65.5083L64.7183 76.53C64.6966 76.47 64.6766 76.3967 64.6583 76.31C64.6483 76.3517 64.6383 76.3908 64.6283 76.4275C64.6183 76.4642 64.6074 76.4983 64.5958 76.53L63.7983 79H63.1883L62.0683 75.385H62.6308C62.6891 75.385 62.7374 75.3992 62.7758 75.4275C62.8158 75.4542 62.8424 75.4908 62.8558 75.5375L63.4708 77.7C63.4841 77.7533 63.4966 77.8117 63.5083 77.875C63.5216 77.9367 63.5349 78.0017 63.5483 78.07C63.5616 78 63.5758 77.9342 63.5908 77.8725C63.6074 77.8108 63.6249 77.7533 63.6433 77.7L64.3533 75.5375C64.3666 75.4992 64.3924 75.4642 64.4308 75.4325C64.4708 75.4008 64.5191 75.385 64.5758 75.385H64.7733C64.8316 75.385 64.8791 75.3992 64.9158 75.4275C64.9524 75.4558 64.9799 75.4925 64.9983 75.5375L65.7058 77.7C65.7408 77.8033 65.7724 77.9225 65.8008 78.0575C65.8224 77.9258 65.8466 77.8067 65.8733 77.7L66.4883 75.5375C66.4983 75.4958 66.5233 75.46 66.5633 75.43C66.6049 75.4 66.6541 75.385 66.7108 75.385H67.2383Z" fill="#20C9B5"/>
<path d="M86 80.5C86 80.5 85.5 80.5 84.5 80.5C83.5 80.5 82.5 81.5004 82.5 83C82.5 84.4996 82.4999 85.5 82 85.5C81.5001 85.5 82 84 81 84C80 84 80.5 85.5 80 85.5C79.5 85.5 79.5 84.4998 79.5 83C79.5 81.5002 78.5 80.4998 77.5 80.5C76.5 80.5002 76 80.5 76 80.5" stroke="#20C9B5"/>
<path d="M78.3008 77.105C78.4274 77.105 78.5374 77.0892 78.6308 77.0575C78.7258 77.0258 78.8033 76.9825 78.8633 76.9275C78.9249 76.8708 78.9708 76.8042 79.0008 76.7275C79.0308 76.6508 79.0458 76.5667 79.0458 76.475C79.0458 76.2917 78.9849 76.1508 78.8633 76.0525C78.7433 75.9542 78.5591 75.905 78.3108 75.905H77.8808V77.105H78.3008ZM80.0308 79H79.4233C79.3083 79 79.2249 78.955 79.1733 78.865L78.4133 77.7075C78.3849 77.6642 78.3533 77.6333 78.3183 77.615C78.2849 77.5967 78.2349 77.5875 78.1683 77.5875H77.8808V79H77.2083V75.385H78.3108C78.5558 75.385 78.7658 75.4108 78.9408 75.4625C79.1174 75.5125 79.2616 75.5833 79.3733 75.675C79.4866 75.7667 79.5699 75.8767 79.6233 76.005C79.6766 76.1317 79.7033 76.2717 79.7033 76.425C79.7033 76.5467 79.6849 76.6617 79.6483 76.77C79.6133 76.8783 79.5616 76.9767 79.4933 77.065C79.4266 77.1533 79.3433 77.2308 79.2433 77.2975C79.1449 77.3642 79.0324 77.4167 78.9058 77.455C78.9491 77.48 78.9891 77.51 79.0258 77.545C79.0624 77.5783 79.0958 77.6183 79.1258 77.665L80.0308 79ZM85.153 75.385L84.0305 79H83.423L82.6329 76.53C82.6113 76.47 82.5914 76.3967 82.573 76.31C82.563 76.3517 82.553 76.3908 82.543 76.4275C82.533 76.4642 82.5222 76.4983 82.5105 76.53L81.713 79H81.103L79.983 75.385H80.5455C80.6039 75.385 80.6522 75.3992 80.6905 75.4275C80.7305 75.4542 80.7572 75.4908 80.7705 75.5375L81.3855 77.7C81.3989 77.7533 81.4114 77.8117 81.423 77.875C81.4364 77.9367 81.4497 78.0017 81.463 78.07C81.4764 78 81.4905 77.9342 81.5055 77.8725C81.5222 77.8108 81.5397 77.7533 81.558 77.7L82.268 75.5375C82.2814 75.4992 82.3072 75.4642 82.3455 75.4325C82.3855 75.4008 82.4339 75.385 82.4905 75.385H82.688C82.7464 75.385 82.7939 75.3992 82.8305 75.4275C82.8672 75.4558 82.8947 75.4925 82.913 75.5375L83.6205 77.7C83.6555 77.8033 83.6872 77.9225 83.7155 78.0575C83.7372 77.9258 83.7614 77.8067 83.788 77.7L84.403 75.5375C84.413 75.4958 84.438 75.46 84.478 75.43C84.5197 75.4 84.5689 75.385 84.6255 75.385H85.153Z" fill="#20C9B5"/>
<path d="M5 104C5 102 6.5 102.499 6.5 100.5C6.5 98.5 7.5 98.5 8 98.5C8.5 98.5 8.5 99.5 9 99.5C9.5 99.5 9.50007 98.5 10 98.5C10.4999 98.5 11.5 98.4992 11.5 100.5C11.5 102.5 13 102 13 104" stroke="#20C9B5"/>
<path d="M8.07979 93.9375H6.98979V97H6.31729V93.9375H5.22729V93.385H8.07979V93.9375ZM9.64534 95.105C9.77201 95.105 9.88202 95.0892 9.97535 95.0575C10.0704 95.0258 10.1479 94.9825 10.2079 94.9275C10.2696 94.8708 10.3154 94.8042 10.3454 94.7275C10.3754 94.6508 10.3904 94.5667 10.3904 94.475C10.3904 94.2917 10.3296 94.1508 10.2079 94.0525C10.0879 93.9542 9.90367 93.905 9.65534 93.905H9.22535V95.105H9.64534ZM11.3754 97H10.7679C10.6529 97 10.5696 96.955 10.5179 96.865L9.75784 95.7075C9.72951 95.6642 9.69785 95.6333 9.66285 95.615C9.62952 95.5967 9.57951 95.5875 9.51284 95.5875H9.22535V97H8.55284V93.385H9.65534C9.90034 93.385 10.1104 93.4108 10.2854 93.4625C10.4621 93.5125 10.6062 93.5833 10.7179 93.675C10.8312 93.7667 10.9146 93.8767 10.9679 94.005C11.0212 94.1317 11.0479 94.2717 11.0479 94.425C11.0479 94.5467 11.0296 94.6617 10.9929 94.77C10.9579 94.8783 10.9062 94.9767 10.8379 95.065C10.7712 95.1533 10.6879 95.2308 10.5879 95.2975C10.4896 95.3642 10.3771 95.4167 10.2504 95.455C10.2937 95.48 10.3337 95.51 10.3704 95.545C10.4071 95.5783 10.4404 95.6183 10.4704 95.665L11.3754 97ZM12.4408 97H11.7658V93.385H12.4408V97Z" fill="#20C9B5"/>
<path d="M7.64026 118.089L7.02426 116.405C6.99393 116.331 6.96243 116.242 6.92976 116.139C6.8971 116.037 6.86443 115.926 6.83176 115.807C6.80143 115.926 6.76993 116.038 6.73726 116.143C6.7046 116.246 6.6731 116.335 6.64276 116.412L6.03026 118.089H7.64026ZM9.30276 120H8.57476C8.4931 120 8.4266 119.98 8.37526 119.94C8.32393 119.898 8.28543 119.847 8.25976 119.786L7.88176 118.754H5.78526L5.40726 119.786C5.3886 119.84 5.35243 119.889 5.29876 119.933C5.2451 119.978 5.1786 120 5.09926 120H4.36426L6.35576 114.939H7.31476L9.30276 120ZM11.4716 117.483C11.6443 117.483 11.7948 117.462 11.9231 117.42C12.0514 117.376 12.1576 117.314 12.2416 117.235C12.3279 117.153 12.3921 117.055 12.4341 116.941C12.4761 116.824 12.4971 116.695 12.4971 116.552C12.4971 116.417 12.4761 116.295 12.4341 116.185C12.3921 116.075 12.3291 115.982 12.2451 115.905C12.1611 115.828 12.0549 115.77 11.9266 115.73C11.7983 115.688 11.6466 115.667 11.4716 115.667H10.7681V117.483H11.4716ZM11.4716 114.939C11.8099 114.939 12.1028 114.979 12.3501 115.058C12.5974 115.137 12.8016 115.248 12.9626 115.39C13.1236 115.533 13.2426 115.703 13.3196 115.901C13.3989 116.1 13.4386 116.317 13.4386 116.552C13.4386 116.797 13.3978 117.023 13.3161 117.228C13.2344 117.431 13.1119 117.606 12.9486 117.753C12.7853 117.9 12.5799 118.014 12.3326 118.096C12.0876 118.178 11.8006 118.218 11.4716 118.218H10.7681V120H9.82661V114.939H11.4716Z" fill="#20C9B5"/>
<path fill-rule="evenodd" clip-rule="evenodd" d="M21.9223 116.862C21.5902 116.154 21.2278 116 21 116V115C21.7722 115 22.4098 115.546 22.8277 116.438C22.8888 116.568 22.9463 116.707 23 116.857C23.0537 116.707 23.1112 116.568 23.1723 116.438C23.5902 115.546 24.2278 115 25 115C25.3375 115 25.6864 115.086 26.0117 115.303C26.334 115.518 26.6051 115.842 26.8222 116.276C26.905 116.442 26.9812 116.626 27.0502 116.83C27.1942 116.428 27.3787 116.048 27.6174 115.74C27.9423 115.321 28.3995 115 29 115C29.6005 115 30.0577 115.321 30.3826 115.74C30.65 116.085 30.8494 116.52 31 116.976C31.1506 116.52 31.35 116.085 31.6174 115.74C31.9423 115.321 32.3995 115 33 115V116C32.8005 116 32.6077 116.095 32.4076 116.353C32.2006 116.62 32.0224 117.02 31.8805 117.513C31.5979 118.495 31.5 119.694 31.5 120.5C31.5 120.776 31.2761 121 31 121C30.7239 121 30.5 120.776 30.5 120.5C30.5 119.694 30.4021 118.495 30.1195 117.513C29.9776 117.02 29.7994 116.62 29.5924 116.353C29.3923 116.095 29.1995 116 29 116C28.8005 116 28.6077 116.095 28.4076 116.353C28.2006 116.62 28.0224 117.02 27.8805 117.513C27.5979 118.495 27.5 119.694 27.5 120.5C27.5 120.776 27.2761 121 27 121C26.7239 121 26.5 120.776 26.5 120.5C26.5 118.526 26.2505 117.369 25.9278 116.724C25.7699 116.408 25.6035 116.232 25.457 116.135C25.3136 116.039 25.1625 116 25 116C24.7722 116 24.4098 116.154 24.0777 116.862C23.7466 117.569 23.5 118.736 23.5 120.5C23.5 120.776 23.2761 121 23 121C22.7239 121 22.5 120.776 22.5 120.5C22.5 118.736 22.2534 117.569 21.9223 116.862Z" fill="#20C9B5"/>
<path fill-rule="evenodd" clip-rule="evenodd" d="M39.9223 119.138C39.5902 119.846 39.2278 120 39 120V121C39.7722 121 40.4098 120.454 40.8277 119.562C40.8888 119.432 40.9463 119.293 41 119.143C41.0537 119.293 41.1112 119.432 41.1723 119.562C41.5902 120.454 42.2278 121 43 121C43.3375 121 43.6864 120.914 44.0117 120.697C44.334 120.482 44.6051 120.158 44.8222 119.724C44.905 119.558 44.9812 119.374 45.0502 119.17C45.1942 119.572 45.3787 119.952 45.6174 120.26C45.9423 120.679 46.3995 121 47 121C47.6005 121 48.0577 120.679 48.3826 120.26C48.65 119.915 48.8494 119.48 49 119.024C49.1506 119.48 49.35 119.915 49.6174 120.26C49.9423 120.679 50.3995 121 51 121V120C50.8005 120 50.6077 119.905 50.4076 119.647C50.2006 119.38 50.0224 118.98 49.8805 118.487C49.5979 117.505 49.5 116.306 49.5 115.5C49.5 115.224 49.2761 115 49 115C48.7239 115 48.5 115.224 48.5 115.5C48.5 116.306 48.4021 117.505 48.1195 118.487C47.9776 118.98 47.7994 119.38 47.5924 119.647C47.3923 119.905 47.1995 120 47 120C46.8005 120 46.6077 119.905 46.4076 119.647C46.2006 119.38 46.0224 118.98 45.8805 118.487C45.5979 117.505 45.5 116.306 45.5 115.5C45.5 115.224 45.2761 115 45 115C44.7239 115 44.5 115.224 44.5 115.5C44.5 117.474 44.2505 118.631 43.9278 119.276C43.7699 119.592 43.6035 119.768 43.457 119.865C43.3136 119.961 43.1625 120 43 120C42.7722 120 42.4098 119.846 42.0777 119.138C41.7466 118.431 41.5 117.264 41.5 115.5C41.5 115.224 41.2761 115 41 115C40.7239 115 40.5 115.224 40.5 115.5C40.5 117.264 40.2534 118.431 39.9223 119.138Z" fill="#20C9B5"/>
<path d="M59.1082 115.859C59.0802 115.908 59.0499 115.945 59.0172 115.968C58.9869 115.989 58.9484 115.999 58.9017 115.999C58.8527 115.999 58.799 115.982 58.7407 115.947C58.6847 115.91 58.617 115.869 58.5377 115.824C58.4584 115.78 58.365 115.74 58.2577 115.705C58.1527 115.668 58.0279 115.649 57.8832 115.649C57.7525 115.649 57.6382 115.666 57.5402 115.698C57.4422 115.729 57.3594 115.772 57.2917 115.828C57.2264 115.884 57.1774 115.952 57.1447 116.031C57.112 116.108 57.0957 116.193 57.0957 116.286C57.0957 116.405 57.1284 116.505 57.1937 116.584C57.2614 116.663 57.35 116.731 57.4597 116.787C57.5694 116.843 57.6942 116.893 57.8342 116.937C57.9742 116.982 58.1177 117.03 58.2647 117.081C58.4117 117.13 58.5552 117.188 58.6952 117.256C58.8352 117.321 58.96 117.405 59.0697 117.508C59.1794 117.608 59.2669 117.732 59.3322 117.879C59.3999 118.026 59.4337 118.204 59.4337 118.414C59.4337 118.643 59.394 118.858 59.3147 119.058C59.2377 119.257 59.1234 119.431 58.9717 119.58C58.8224 119.727 58.6392 119.844 58.4222 119.93C58.2052 120.014 57.9567 120.056 57.6767 120.056C57.5157 120.056 57.357 120.04 57.2007 120.007C57.0444 119.977 56.8939 119.932 56.7492 119.874C56.6069 119.816 56.4727 119.746 56.3467 119.664C56.2207 119.582 56.1087 119.491 56.0107 119.391L56.2872 118.939C56.3105 118.907 56.3409 118.88 56.3782 118.859C56.4155 118.836 56.4552 118.824 56.4972 118.824C56.5555 118.824 56.6185 118.848 56.6862 118.897C56.7539 118.944 56.8344 118.997 56.9277 119.055C57.021 119.113 57.1295 119.167 57.2532 119.216C57.3792 119.263 57.5297 119.286 57.7047 119.286C57.973 119.286 58.1807 119.223 58.3277 119.097C58.4747 118.969 58.5482 118.785 58.5482 118.547C58.5482 118.414 58.5144 118.306 58.4467 118.222C58.3814 118.138 58.2939 118.068 58.1842 118.012C58.0745 117.954 57.9497 117.905 57.8097 117.865C57.6697 117.825 57.5274 117.782 57.3827 117.735C57.238 117.689 57.0957 117.633 56.9557 117.567C56.8157 117.502 56.6909 117.417 56.5812 117.312C56.4715 117.207 56.3829 117.076 56.3152 116.92C56.2499 116.761 56.2172 116.566 56.2172 116.335C56.2172 116.151 56.2534 115.971 56.3257 115.796C56.4004 115.621 56.5077 115.466 56.6477 115.331C56.7877 115.196 56.9604 115.087 57.1657 115.005C57.371 114.924 57.6067 114.883 57.8727 114.883C58.1714 114.883 58.4467 114.93 58.6987 115.023C58.9507 115.116 59.1654 115.247 59.3427 115.415L59.1082 115.859ZM61.3645 117.634C61.1778 117.755 61.0413 117.893 60.955 118.047C60.871 118.199 60.829 118.362 60.829 118.537C60.829 118.665 60.8512 118.781 60.8955 118.883C60.9398 118.986 60.9993 119.074 61.074 119.146C61.151 119.216 61.2397 119.271 61.34 119.31C61.4427 119.348 61.5512 119.366 61.6655 119.366C61.8708 119.366 62.0587 119.335 62.229 119.272C62.3993 119.207 62.5533 119.117 62.691 119.002L61.3645 117.634ZM64.735 120H63.888C63.7993 120 63.727 119.989 63.671 119.968C63.6173 119.947 63.5602 119.903 63.4995 119.835L63.1495 119.475C62.9278 119.657 62.6793 119.799 62.404 119.902C62.1287 120.005 61.8312 120.056 61.5115 120.056C61.3178 120.056 61.1265 120.023 60.9375 119.958C60.7508 119.89 60.584 119.793 60.437 119.667C60.29 119.541 60.171 119.39 60.08 119.212C59.9913 119.033 59.947 118.831 59.947 118.607C59.947 118.448 59.9727 118.299 60.024 118.159C60.0753 118.017 60.1465 117.885 60.2375 117.763C60.3285 117.642 60.437 117.534 60.563 117.438C60.689 117.34 60.8267 117.256 60.976 117.186C60.85 117.011 60.759 116.841 60.703 116.675C60.647 116.507 60.619 116.34 60.619 116.174C60.619 115.999 60.6505 115.834 60.7135 115.677C60.7788 115.519 60.8722 115.381 60.9935 115.264C61.1148 115.148 61.2642 115.056 61.4415 114.988C61.6188 114.918 61.8195 114.883 62.0435 114.883C62.2488 114.883 62.432 114.914 62.593 114.977C62.7563 115.04 62.8952 115.124 63.0095 115.229C63.1262 115.334 63.2172 115.455 63.2825 115.59C63.3502 115.725 63.3898 115.865 63.4015 116.01L62.852 116.126C62.7493 116.146 62.6747 116.102 62.628 115.992C62.607 115.932 62.579 115.875 62.544 115.821C62.5113 115.765 62.4717 115.717 62.425 115.677C62.3783 115.635 62.3235 115.603 62.2605 115.579C62.1975 115.554 62.1252 115.541 62.0435 115.541C61.9455 115.541 61.858 115.558 61.781 115.593C61.704 115.626 61.6387 115.672 61.585 115.73C61.5337 115.786 61.494 115.852 61.466 115.929C61.438 116.004 61.424 116.083 61.424 116.167C61.424 116.237 61.431 116.305 61.445 116.37C61.459 116.436 61.4823 116.501 61.515 116.566C61.5477 116.632 61.5897 116.699 61.641 116.769C61.6947 116.837 61.76 116.911 61.837 116.99L63.181 118.386C63.258 118.239 63.3198 118.084 63.3665 117.921C63.4132 117.758 63.4435 117.592 63.4575 117.424C63.4645 117.37 63.4832 117.327 63.5135 117.294C63.5438 117.262 63.5858 117.245 63.6395 117.245H64.1785C64.1762 117.553 64.1318 117.847 64.0455 118.127C63.9592 118.407 63.8355 118.665 63.6745 118.901L64.735 120ZM69.5869 114.939V120H68.6419V117.788H66.2654V120H65.3204V114.939H66.2654V117.116H68.6419V114.939H69.5869Z" fill="#20C9B5"/>
</svg>
