<svg width="18" height="28" viewBox="0 0 18 28" fill="none" xmlns="http://www.w3.org/2000/svg">
<rect x="1.25" y="14.75" width="15.5" height="12.5" fill="black" fill-opacity="0.1" stroke="#20C9B5" stroke-width="0.5"/>
<path d="M6.58146 6.92125C6.77746 6.92125 6.95012 6.89792 7.09946 6.85125C7.25112 6.80225 7.37712 6.73458 7.47746 6.64825C7.58012 6.55958 7.65712 6.45458 7.70846 6.33325C7.75979 6.21192 7.78546 6.07775 7.78546 5.93075C7.78546 5.63208 7.68746 5.40692 7.49146 5.25525C7.29546 5.10358 7.00146 5.02775 6.60946 5.02775H5.86746V6.92125H6.58146ZM8.89846 9.50775H8.29646C8.17279 9.50775 8.08179 9.45992 8.02346 9.36425L6.72146 7.57225C6.68179 7.51625 6.63862 7.47658 6.59196 7.45325C6.54762 7.42758 6.47762 7.41475 6.38196 7.41475H5.86746V9.50775H5.19196V4.49225H6.60946C6.92679 4.49225 7.20096 4.52492 7.43196 4.59025C7.66296 4.65325 7.85312 4.74542 8.00246 4.86675C8.15412 4.98808 8.26612 5.13508 8.33846 5.30775C8.41079 5.47808 8.44696 5.66942 8.44696 5.88175C8.44696 6.05908 8.41896 6.22475 8.36296 6.37875C8.30696 6.53275 8.22529 6.67158 8.11796 6.79525C8.01296 6.91658 7.88346 7.02042 7.72946 7.10675C7.57779 7.19308 7.40512 7.25842 7.21146 7.30275C7.29779 7.35175 7.37246 7.42292 7.43546 7.51625L8.89846 9.50775Z" fill="white" fill-opacity="0.5"/>
<path d="M12.8081 5.06275H11.1841V9.50775H10.5086V5.06275H8.88106V4.49225H12.8081V5.06275Z" fill="white" fill-opacity="0.5"/>
<rect x="1.25" y="0.757751" width="15.5" height="12.5" stroke="white" stroke-opacity="0.25" stroke-width="0.5"/>
<path d="M6.58146 20.9212C6.77746 20.9212 6.95012 20.8979 7.09946 20.8512C7.25112 20.8022 7.37712 20.7346 7.47746 20.6482C7.58012 20.5596 7.65712 20.4546 7.70846 20.3332C7.75979 20.2119 7.78546 20.0777 7.78546 19.9307C7.78546 19.6321 7.68746 19.4069 7.49146 19.2552C7.29546 19.1036 7.00146 19.0277 6.60946 19.0277H5.86746V20.9212H6.58146ZM8.89846 23.5077H8.29646C8.17279 23.5077 8.08179 23.4599 8.02346 23.3642L6.72146 21.5722C6.68179 21.5162 6.63862 21.4766 6.59196 21.4532C6.54762 21.4276 6.47762 21.4147 6.38196 21.4147H5.86746V23.5077H5.19196V18.4922H6.60946C6.92679 18.4922 7.20096 18.5249 7.43196 18.5902C7.66296 18.6532 7.85312 18.7454 8.00246 18.8667C8.15412 18.9881 8.26612 19.1351 8.33846 19.3077C8.41079 19.4781 8.44696 19.6694 8.44696 19.8817C8.44696 20.0591 8.41896 20.2247 8.36296 20.3787C8.30696 20.5327 8.22529 20.6716 8.11796 20.7952C8.01296 20.9166 7.88346 21.0204 7.72946 21.1067C7.57779 21.1931 7.40512 21.2584 7.21146 21.3027C7.29779 21.3517 7.37246 21.4229 7.43546 21.5162L8.89846 23.5077Z" fill="#EEEEEE"/>
<path d="M12.8081 19.0627H11.1841V23.5077H10.5086V19.0627H8.88106V18.4922H12.8081V19.0627Z" fill="#EEEEEE"/>
</svg>
