<svg width="37" height="12" viewBox="0 0 37 12" fill="none" xmlns="http://www.w3.org/2000/svg">
<g clip-path="url(#clip0_210_3755)">
<path d="M13.9763 4.03001C13.9523 4.07001 13.9256 4.10067 13.8963 4.12201C13.8696 4.14067 13.8363 4.15001 13.7963 4.15001C13.751 4.15001 13.6976 4.12734 13.6363 4.08201C13.575 4.03667 13.4976 3.98734 13.4043 3.93401C13.3136 3.87801 13.203 3.82734 13.0723 3.78201C12.9443 3.73667 12.7883 3.71401 12.6043 3.71401C12.431 3.71401 12.2776 3.73801 12.1443 3.78601C12.0136 3.83134 11.903 3.89401 11.8123 3.97401C11.7243 4.05401 11.6576 4.14867 11.6123 4.25801C11.567 4.36467 11.5443 4.48067 11.5443 4.60601C11.5443 4.76601 11.583 4.89934 11.6603 5.00601C11.7403 5.11001 11.8443 5.19934 11.9723 5.27401C12.103 5.34867 12.2496 5.41401 12.4123 5.47001C12.5776 5.52334 12.7456 5.57934 12.9163 5.63801C13.0896 5.69667 13.2576 5.76334 13.4203 5.83801C13.5856 5.91001 13.7323 6.00201 13.8603 6.11401C13.991 6.22601 14.095 6.36334 14.1723 6.52601C14.2523 6.68867 14.2923 6.88867 14.2923 7.12601C14.2923 7.37667 14.2496 7.61267 14.1643 7.83401C14.079 8.05267 13.9536 8.24334 13.7883 8.40601C13.6256 8.56867 13.4243 8.69667 13.1843 8.79001C12.947 8.88334 12.6763 8.93001 12.3723 8.93001C11.999 8.93001 11.6603 8.86334 11.3563 8.73001C11.0523 8.59401 10.7923 8.41134 10.5763 8.18201L10.8003 7.81401C10.8216 7.78467 10.847 7.76067 10.8763 7.74201C10.9083 7.72067 10.943 7.71001 10.9803 7.71001C11.015 7.71001 11.0536 7.72467 11.0963 7.75401C11.1416 7.78067 11.1923 7.81534 11.2483 7.85801C11.3043 7.90067 11.3683 7.94734 11.4403 7.99801C11.5123 8.04867 11.5936 8.09534 11.6843 8.13801C11.7776 8.18067 11.883 8.21667 12.0003 8.24601C12.1176 8.27267 12.2496 8.28601 12.3963 8.28601C12.5803 8.28601 12.7443 8.26067 12.8883 8.21001C13.0323 8.15934 13.1536 8.08867 13.2523 7.99801C13.3536 7.90467 13.431 7.79401 13.4843 7.66601C13.5376 7.53801 13.5643 7.39534 13.5643 7.23801C13.5643 7.06467 13.5243 6.92334 13.4443 6.81401C13.367 6.70201 13.2643 6.60867 13.1363 6.53401C13.0083 6.45934 12.8616 6.39667 12.6963 6.34601C12.531 6.29267 12.363 6.23934 12.1923 6.18601C12.0216 6.13001 11.8536 6.06601 11.6883 5.99401C11.523 5.92201 11.3763 5.82867 11.2483 5.71401C11.1203 5.59934 11.0163 5.45667 10.9363 5.28601C10.859 5.11267 10.8203 4.89934 10.8203 4.64601C10.8203 4.44334 10.859 4.24734 10.9363 4.05801C11.0163 3.86867 11.131 3.70067 11.2803 3.55401C11.4323 3.40734 11.6176 3.29001 11.8363 3.20201C12.0576 3.11401 12.311 3.07001 12.5963 3.07001C12.9163 3.07001 13.207 3.12067 13.4683 3.22201C13.7323 3.32334 13.9643 3.47001 14.1643 3.66201L13.9763 4.03001Z" fill="white"/>
<path d="M17.3614 7.04201C17.0334 7.05267 16.7534 7.07934 16.5214 7.12201C16.292 7.16201 16.104 7.21534 15.9574 7.28201C15.8134 7.34867 15.708 7.42734 15.6414 7.51801C15.5774 7.60867 15.5454 7.71001 15.5454 7.82201C15.5454 7.92867 15.5627 8.02067 15.5974 8.09801C15.632 8.17534 15.6787 8.23934 15.7374 8.29001C15.7987 8.33801 15.8694 8.37401 15.9494 8.39801C16.032 8.41934 16.12 8.43001 16.2134 8.43001C16.3387 8.43001 16.4534 8.41801 16.5574 8.39401C16.6614 8.36734 16.7587 8.33001 16.8494 8.28201C16.9427 8.23401 17.0307 8.17667 17.1134 8.11001C17.1987 8.04334 17.2814 7.96734 17.3614 7.88201V7.04201ZM15.0614 5.38601C15.2854 5.17001 15.5267 5.00867 15.7854 4.90201C16.044 4.79534 16.3307 4.74201 16.6454 4.74201C16.872 4.74201 17.0734 4.77934 17.2494 4.85401C17.4254 4.92867 17.5734 5.03267 17.6934 5.16601C17.8134 5.29934 17.904 5.46067 17.9654 5.65001C18.0267 5.83934 18.0574 6.04734 18.0574 6.27401V8.86601H17.7414C17.672 8.86601 17.6187 8.85534 17.5814 8.83401C17.544 8.81001 17.5147 8.76467 17.4934 8.69801L17.4134 8.31401C17.3067 8.41267 17.2027 8.50067 17.1014 8.57801C17 8.65267 16.8934 8.71667 16.7814 8.77001C16.6694 8.82067 16.5494 8.85934 16.4214 8.88601C16.296 8.91534 16.156 8.93001 16.0014 8.93001C15.844 8.93001 15.696 8.90867 15.5574 8.86601C15.4187 8.82067 15.2974 8.75401 15.1934 8.66601C15.092 8.57801 15.0107 8.46734 14.9494 8.33401C14.8907 8.19801 14.8614 8.03801 14.8614 7.85401C14.8614 7.69401 14.9054 7.54067 14.9934 7.39401C15.0814 7.24467 15.224 7.11267 15.4214 6.99801C15.6187 6.88334 15.876 6.79001 16.1934 6.71801C16.5107 6.64334 16.9 6.60067 17.3614 6.59001V6.27401C17.3614 5.95934 17.2934 5.72201 17.1574 5.56201C17.0214 5.39934 16.8227 5.31801 16.5614 5.31801C16.3854 5.31801 16.2374 5.34067 16.1174 5.38601C16 5.42867 15.8974 5.47801 15.8094 5.53401C15.724 5.58734 15.6494 5.63667 15.5854 5.68201C15.524 5.72467 15.4627 5.74601 15.4014 5.74601C15.3534 5.74601 15.312 5.73401 15.2774 5.71001C15.2427 5.68334 15.2134 5.65134 15.1894 5.61401L15.0614 5.38601Z" fill="white"/>
<path d="M22.528 4.81401L20.876 8.86601H20.236L18.584 4.81401H19.164C19.2226 4.81401 19.2706 4.82867 19.308 4.85801C19.3453 4.88734 19.3706 4.92201 19.384 4.96201L20.412 7.57001C20.444 7.66867 20.472 7.76467 20.496 7.85801C20.52 7.95134 20.5426 8.04467 20.564 8.13801C20.5853 8.04467 20.608 7.95134 20.632 7.85801C20.656 7.76467 20.6853 7.66867 20.72 7.57001L21.76 4.96201C21.776 4.91934 21.8026 4.88467 21.84 4.85801C21.8773 4.82867 21.9213 4.81401 21.972 4.81401H22.528Z" fill="white"/>
<path d="M25.7836 6.39801C25.7836 6.23267 25.7596 6.08201 25.7116 5.94601C25.6663 5.80734 25.5983 5.68867 25.5076 5.59001C25.4196 5.48867 25.3116 5.41134 25.1836 5.35801C25.0556 5.30201 24.9103 5.27401 24.7476 5.27401C24.4063 5.27401 24.1356 5.37401 23.9356 5.57401C23.7383 5.77134 23.6156 6.04601 23.5676 6.39801H25.7836ZM26.3596 8.29801C26.2716 8.40467 26.1663 8.49801 26.0436 8.57801C25.9209 8.65534 25.7889 8.71934 25.6476 8.77001C25.5089 8.82067 25.3649 8.85801 25.2156 8.88201C25.0663 8.90867 24.9183 8.92201 24.7716 8.92201C24.4916 8.92201 24.2329 8.87534 23.9956 8.78201C23.7609 8.68601 23.5569 8.54734 23.3836 8.36601C23.2129 8.18201 23.0796 7.95534 22.9836 7.68601C22.8876 7.41667 22.8396 7.10734 22.8396 6.75801C22.8396 6.47534 22.8823 6.21134 22.9676 5.96601C23.0556 5.72067 23.1809 5.50867 23.3436 5.33001C23.5063 5.14867 23.7049 5.00734 23.9396 4.90601C24.1743 4.80201 24.4383 4.75001 24.7316 4.75001C24.9743 4.75001 25.1983 4.79134 25.4036 4.87401C25.6116 4.95401 25.7903 5.07134 25.9396 5.22601C26.0916 5.37801 26.2103 5.56734 26.2956 5.79401C26.3809 6.01801 26.4236 6.27401 26.4236 6.56201C26.4236 6.67401 26.4116 6.74867 26.3876 6.78601C26.3636 6.82334 26.3183 6.84201 26.2516 6.84201H23.5436C23.5516 7.09801 23.5863 7.32067 23.6476 7.51001C23.7116 7.69934 23.7996 7.85801 23.9116 7.98601C24.0236 8.11134 24.1569 8.20601 24.3116 8.27001C24.4663 8.33134 24.6396 8.36201 24.8316 8.36201C25.0103 8.36201 25.1636 8.34201 25.2916 8.30201C25.4223 8.25934 25.5343 8.21401 25.6276 8.16601C25.7209 8.11801 25.7983 8.07401 25.8596 8.03401C25.9236 7.99134 25.9783 7.97001 26.0236 7.97001C26.0823 7.97001 26.1276 7.99267 26.1596 8.03801L26.3596 8.29801Z" fill="white"/>
<rect y="0.5" width="37" height="11" fill="white" fill-opacity="0.1"/>
</g>
<defs>
<clipPath id="clip0_210_3755">
<rect width="37" height="12" fill="white"/>
</clipPath>
</defs>
</svg>
