<svg width="40" height="82" viewBox="0 0 40 82" fill="none" xmlns="http://www.w3.org/2000/svg">
<g clip-path="url(#clip0_210_2361)">
<path d="M0 0.5H40V20.75H0V0.5Z" fill="white" fill-opacity="0.2"/>
<path d="M21.844 12.0411L20.436 8.19306C20.3666 8.0224 20.2946 7.81973 20.22 7.58506C20.1453 7.3504 20.0706 7.09706 19.996 6.82506C19.9266 7.09706 19.8546 7.35306 19.78 7.59307C19.7053 7.82773 19.6333 8.03306 19.564 8.20906L18.164 12.0411H21.844ZM25.644 16.4091H23.98C23.7933 16.4091 23.6413 16.3637 23.524 16.2731C23.4066 16.1771 23.3186 16.0597 23.26 15.9211L22.396 13.5611H17.604L16.74 15.9211C16.6973 16.0437 16.6146 16.1557 16.492 16.2571C16.3693 16.3584 16.2173 16.4091 16.036 16.4091H14.356L18.908 4.84106H21.1L25.644 16.4091Z" fill="white"/>
<path d="M0 61.25H40V81.5H0V61.25Z" fill="white" fill-opacity="0.2"/>
<path d="M20.04 75.479C20.44 75.479 20.776 75.431 21.048 75.335C21.32 75.239 21.536 75.111 21.696 74.951C21.8614 74.791 21.9787 74.6043 22.048 74.391C22.1227 74.1777 22.16 73.951 22.16 73.711C22.16 73.4603 22.12 73.2363 22.04 73.039C21.96 72.8363 21.8347 72.6657 21.664 72.527C21.4934 72.383 21.272 72.2737 21 72.199C20.7334 72.1243 20.4107 72.087 20.032 72.087H17.864V75.479H20.04ZM17.864 67.255V70.599H19.576C20.312 70.599 20.8667 70.4657 21.24 70.199C21.6187 69.9323 21.808 69.5083 21.808 68.927C21.808 68.3243 21.6374 67.895 21.296 67.639C20.9547 67.383 20.4214 67.255 19.696 67.255H17.864ZM19.696 65.591C20.4534 65.591 21.1014 65.663 21.64 65.807C22.1787 65.951 22.6187 66.1563 22.96 66.423C23.3067 66.6897 23.56 67.0123 23.72 67.391C23.88 67.7697 23.96 68.1963 23.96 68.671C23.96 68.943 23.92 69.2043 23.84 69.455C23.76 69.7003 23.6347 69.9323 23.464 70.151C23.2987 70.3643 23.0854 70.559 22.824 70.735C22.568 70.911 22.2614 71.0603 21.904 71.183C23.4934 71.5403 24.288 72.399 24.288 73.759C24.288 74.2497 24.1947 74.703 24.008 75.119C23.8214 75.535 23.5494 75.895 23.192 76.199C22.8347 76.4977 22.3947 76.7323 21.872 76.903C21.3494 77.0737 20.752 77.159 20.08 77.159H15.712V65.591H19.696Z" fill="#EEEEEE" fill-opacity="0.5"/>
</g>
<defs>
<clipPath id="clip0_210_2361">
<rect width="40" height="82" fill="white"/>
</clipPath>
</defs>
</svg>
