<svg width="48" height="282" viewBox="0 0 48 282" fill="none" xmlns="http://www.w3.org/2000/svg">
<rect x="23" y="6" width="2" height="61" fill="#7A7A7A" stroke="#151515"/>
<path d="M25.5 9.5V10.5H27.5V9.5H25.5Z" fill="#151515"/>
<path d="M20.5 9.5V10.5H22.5V9.5H20.5Z" fill="#151515"/>
<path d="M25.5 62.5V63.5H27.5V62.5H25.5Z" fill="#151515"/>
<path d="M20.5 62.5V63.5H22.5V62.5H20.5Z" fill="#151515"/>
<rect x="39" y="6" width="2" height="61" fill="#11708E" stroke="#151515"/>
<path d="M41.5 9.5V10.5H43.5V9.5H41.5Z" fill="#151515"/>
<path d="M36.5 9.5V10.5H38.5V9.5H36.5Z" fill="#151515"/>
<path d="M41.5 62.5V63.5H43.5V62.5H41.5Z" fill="#151515"/>
<path d="M36.5 62.5V63.5H38.5V62.5H36.5Z" fill="#151515"/>
<path d="M4.5 62.5V63.5H6.5V62.5H4.5Z" fill="#151515"/>
<path d="M9.5 62.5V63.5H11.5V62.5H9.5Z" fill="#151515"/>
<path d="M4.5 9.5V10.5H6.5V9.5H4.5Z" fill="#151515"/>
<path d="M9.5 9.5V10.5H11.5V9.5H9.5Z" fill="#151515"/>
<rect x="7" y="6" width="2" height="61" fill="#282828" stroke="#151515"/>
<rect x="23" y="80.5" width="2" height="61" fill="#7A7A7A" stroke="#151515"/>
<path d="M25.5 84V85H27.5V84H25.5Z" fill="#151515"/>
<path d="M20.5 84V85H22.5V84H20.5Z" fill="#151515"/>
<path d="M25.5 137V138H27.5V137H25.5Z" fill="#151515"/>
<path d="M20.5 137V138H22.5V137H20.5Z" fill="#151515"/>
<rect x="39" y="80.5" width="2" height="61" fill="#11708E" stroke="#151515"/>
<path d="M41.5 84V85H43.5V84H41.5Z" fill="#151515"/>
<path d="M36.5 84V85H38.5V84H36.5Z" fill="#151515"/>
<path d="M41.5 137V138H43.5V137H41.5Z" fill="#151515"/>
<path d="M36.5 137V138H38.5V137H36.5Z" fill="#151515"/>
<path d="M4.5 137V138H6.5V137H4.5Z" fill="#151515"/>
<path d="M9.5 137V138H11.5V137H9.5Z" fill="#151515"/>
<path d="M4.5 84V85H6.5V84H4.5Z" fill="#151515"/>
<path d="M9.5 84V85H11.5V84H9.5Z" fill="#151515"/>
<rect x="7" y="80.5" width="2" height="61" fill="#282828" stroke="#151515"/>
<rect x="23" y="155.5" width="2" height="45" fill="#7A7A7A" stroke="#151515"/>
<path d="M25.5 158V159H27.5V158H25.5Z" fill="#151515"/>
<path d="M20.5 158V159H22.5V158H20.5Z" fill="#151515"/>
<path d="M25.5 197V198H27.5V197H25.5Z" fill="#151515"/>
<path d="M20.5 197V198H22.5V197H20.5Z" fill="#151515"/>
<rect x="39" y="155.5" width="2" height="45" fill="#11708E" stroke="#151515"/>
<path d="M41.5 158V159H43.5V158H41.5Z" fill="#151515"/>
<path d="M36.5 158V159H38.5V158H36.5Z" fill="#151515"/>
<path d="M41.5 197V198H43.5V197H41.5Z" fill="#151515"/>
<path d="M36.5 197V198H38.5V197H36.5Z" fill="#151515"/>
<path d="M4.5 197V198H6.5V197H4.5Z" fill="#151515"/>
<path d="M9.5 197V198H11.5V197H9.5Z" fill="#151515"/>
<path d="M4.5 158V159H6.5V158H4.5Z" fill="#151515"/>
<path d="M9.5 158V159H11.5V158H9.5Z" fill="#151515"/>
<rect x="7" y="155.5" width="2" height="45" fill="#282828" stroke="#151515"/>
<rect x="23" y="230.5" width="2" height="45" fill="#7A7A7A" stroke="#151515"/>
<path d="M25.5 233V234H27.5V233H25.5Z" fill="#151515"/>
<path d="M20.5 233V234H22.5V233H20.5Z" fill="#151515"/>
<path d="M25.5 272V273H27.5V272H25.5Z" fill="#151515"/>
<path d="M20.5 272V273H22.5V272H20.5Z" fill="#151515"/>
<rect x="39" y="230.5" width="2" height="45" fill="#11708E" stroke="#151515"/>
<path d="M41.5 233V234H43.5V233H41.5Z" fill="#151515"/>
<path d="M36.5 233V234H38.5V233H36.5Z" fill="#151515"/>
<path d="M41.5 272V273H43.5V272H41.5Z" fill="#151515"/>
<path d="M36.5 272V273H38.5V272H36.5Z" fill="#151515"/>
<path d="M4.5 272V273H6.5V272H4.5Z" fill="#151515"/>
<path d="M9.5 272V273H11.5V272H9.5Z" fill="#151515"/>
<path d="M4.5 233V234H6.5V233H4.5Z" fill="#151515"/>
<path d="M9.5 233V234H11.5V233H9.5Z" fill="#151515"/>
<rect x="7" y="230.5" width="2" height="45" fill="#282828" stroke="#151515"/>
</svg>
