<svg width="49" height="28" viewBox="0 0 49 28" fill="none" xmlns="http://www.w3.org/2000/svg">
<g clip-path="url(#clip0_206_40036)">
<rect x="0.25" y="1" width="48.5" height="12" stroke="white" stroke-opacity="0.25" stroke-width="0.5"/>
<rect x="0.25" y="15" width="48.5" height="12" fill="black" fill-opacity="0.1" stroke="#FF9000" stroke-width="0.5"/>
<path d="M11.5162 3.68191V9.41391H10.7402V6.80591H7.64819V9.41391H6.87219V3.68191H7.64819V6.23791H10.7402V3.68191H11.5162Z" fill="#EEEEEE" fill-opacity="0.5"/>
<path d="M14.3966 5.29791C14.6926 5.29791 14.9592 5.34724 15.1966 5.44591C15.4339 5.54458 15.6366 5.68458 15.8046 5.86591C15.9726 6.04724 16.1006 6.26724 16.1886 6.52591C16.2792 6.78191 16.3246 7.06858 16.3246 7.38591C16.3246 7.70591 16.2792 7.99391 16.1886 8.24991C16.1006 8.50591 15.9726 8.72458 15.8046 8.90591C15.6366 9.08725 15.4339 9.22725 15.1966 9.32591C14.9592 9.42191 14.6926 9.46991 14.3966 9.46991C14.0979 9.46991 13.8286 9.42191 13.5886 9.32591C13.3512 9.22725 13.1486 9.08725 12.9806 8.90591C12.8126 8.72458 12.6832 8.50591 12.5926 8.24991C12.5046 7.99391 12.4606 7.70591 12.4606 7.38591C12.4606 7.06858 12.5046 6.78191 12.5926 6.52591C12.6832 6.26724 12.8126 6.04724 12.9806 5.86591C13.1486 5.68458 13.3512 5.54458 13.5886 5.44591C13.8286 5.34724 14.0979 5.29791 14.3966 5.29791ZM14.3966 8.91391C14.7966 8.91391 15.0952 8.78058 15.2926 8.51391C15.4899 8.24458 15.5886 7.86991 15.5886 7.38991C15.5886 6.90725 15.4899 6.53124 15.2926 6.26191C15.0952 5.99258 14.7966 5.85791 14.3966 5.85791C14.1939 5.85791 14.0166 5.89258 13.8646 5.96191C13.7152 6.03125 13.5899 6.13125 13.4886 6.26191C13.3899 6.39258 13.3152 6.55391 13.2646 6.74591C13.2166 6.93525 13.1926 7.14991 13.1926 7.38991C13.1926 7.86991 13.2912 8.24458 13.4886 8.51391C13.6886 8.78058 13.9912 8.91391 14.3966 8.91391Z" fill="#EEEEEE" fill-opacity="0.5"/>
<path d="M17.9036 6.17391C18.0316 5.89658 18.189 5.68058 18.3756 5.52591C18.5623 5.36858 18.7903 5.28991 19.0596 5.28991C19.145 5.28991 19.2263 5.29925 19.3036 5.31791C19.3836 5.33658 19.4543 5.36591 19.5156 5.40591L19.4636 5.93791C19.4476 6.00458 19.4076 6.03791 19.3436 6.03791C19.3063 6.03791 19.2516 6.02991 19.1796 6.01391C19.1076 5.99791 19.0263 5.98991 18.9356 5.98991C18.8076 5.98991 18.693 6.00858 18.5916 6.04591C18.493 6.08324 18.4036 6.13924 18.3236 6.21391C18.2463 6.28591 18.1756 6.37658 18.1116 6.48591C18.0503 6.59258 17.9943 6.71525 17.9436 6.85391V9.41391H17.2276V5.36191H17.6356C17.713 5.36191 17.7663 5.37658 17.7956 5.40591C17.825 5.43524 17.845 5.48591 17.8556 5.55791L17.9036 6.17391Z" fill="#EEEEEE" fill-opacity="0.5"/>
<path d="M20.8937 5.36191V9.41391H20.1817V5.36191H20.8937ZM21.0457 4.08991C21.0457 4.15924 21.031 4.22458 21.0017 4.28591C20.975 4.34458 20.9377 4.39791 20.8897 4.44591C20.8444 4.49124 20.7897 4.52725 20.7257 4.55391C20.6644 4.58058 20.599 4.59391 20.5297 4.59391C20.4604 4.59391 20.395 4.58058 20.3337 4.55391C20.275 4.52725 20.223 4.49124 20.1777 4.44591C20.1324 4.39791 20.0964 4.34458 20.0697 4.28591C20.043 4.22458 20.0297 4.15924 20.0297 4.08991C20.0297 4.02058 20.043 3.95524 20.0697 3.89391C20.0964 3.82991 20.1324 3.77524 20.1777 3.72991C20.223 3.68191 20.275 3.64458 20.3337 3.61791C20.395 3.59124 20.4604 3.57791 20.5297 3.57791C20.599 3.57791 20.6644 3.59124 20.7257 3.61791C20.7897 3.64458 20.8444 3.68191 20.8897 3.72991C20.9377 3.77524 20.975 3.82991 21.0017 3.89391C21.031 3.95524 21.0457 4.02058 21.0457 4.08991Z" fill="#EEEEEE" fill-opacity="0.5"/>
<path d="M24.8596 5.66591C24.8596 5.71658 24.8502 5.76591 24.8316 5.81391C24.8156 5.86191 24.7929 5.90325 24.7636 5.93791L22.5676 8.85791H24.7836V9.41391H21.7316V9.11791C21.7316 9.08325 21.7396 9.04325 21.7556 8.99791C21.7716 8.94991 21.7956 8.90458 21.8276 8.86191L24.0356 5.92191H21.8556V5.36191H24.8596V5.66591Z" fill="#EEEEEE" fill-opacity="0.5"/>
<path d="M27.3106 5.29791C27.6066 5.29791 27.8733 5.34724 28.1106 5.44591C28.348 5.54458 28.5506 5.68458 28.7186 5.86591C28.8866 6.04724 29.0146 6.26724 29.1026 6.52591C29.1933 6.78191 29.2386 7.06858 29.2386 7.38591C29.2386 7.70591 29.1933 7.99391 29.1026 8.24991C29.0146 8.50591 28.8866 8.72458 28.7186 8.90591C28.5506 9.08725 28.348 9.22725 28.1106 9.32591C27.8733 9.42191 27.6066 9.46991 27.3106 9.46991C27.012 9.46991 26.7426 9.42191 26.5026 9.32591C26.2653 9.22725 26.0626 9.08725 25.8946 8.90591C25.7266 8.72458 25.5973 8.50591 25.5066 8.24991C25.4186 7.99391 25.3746 7.70591 25.3746 7.38591C25.3746 7.06858 25.4186 6.78191 25.5066 6.52591C25.5973 6.26724 25.7266 6.04724 25.8946 5.86591C26.0626 5.68458 26.2653 5.54458 26.5026 5.44591C26.7426 5.34724 27.012 5.29791 27.3106 5.29791ZM27.3106 8.91391C27.7106 8.91391 28.0093 8.78058 28.2066 8.51391C28.404 8.24458 28.5026 7.86991 28.5026 7.38991C28.5026 6.90725 28.404 6.53124 28.2066 6.26191C28.0093 5.99258 27.7106 5.85791 27.3106 5.85791C27.108 5.85791 26.9306 5.89258 26.7786 5.96191C26.6293 6.03125 26.504 6.13125 26.4026 6.26191C26.304 6.39258 26.2293 6.55391 26.1786 6.74591C26.1306 6.93525 26.1066 7.14991 26.1066 7.38991C26.1066 7.86991 26.2053 8.24458 26.4026 8.51391C26.6026 8.78058 26.9053 8.91391 27.3106 8.91391Z" fill="#EEEEEE" fill-opacity="0.5"/>
<path d="M30.8137 5.94991C30.9017 5.85124 30.995 5.76191 31.0937 5.68191C31.1924 5.60191 31.2964 5.53391 31.4057 5.47791C31.5177 5.41925 31.635 5.37524 31.7577 5.34591C31.883 5.31391 32.0177 5.29791 32.1617 5.29791C32.383 5.29791 32.5777 5.33524 32.7457 5.40991C32.9164 5.48191 33.0577 5.58591 33.1697 5.72191C33.2844 5.85525 33.371 6.01658 33.4297 6.20591C33.4884 6.39525 33.5177 6.60458 33.5177 6.83391V9.41391H32.8017V6.83391C32.8017 6.52724 32.731 6.28991 32.5897 6.12191C32.451 5.95125 32.239 5.86591 31.9537 5.86591C31.743 5.86591 31.5457 5.91658 31.3617 6.01791C31.1804 6.11924 31.0124 6.25658 30.8577 6.42991V9.41391H30.1417V5.36191H30.5697C30.671 5.36191 30.7337 5.41125 30.7577 5.50991L30.8137 5.94991Z" fill="#EEEEEE" fill-opacity="0.5"/>
<path d="M35.7919 9.47791C35.4719 9.47791 35.2253 9.38858 35.0519 9.20991C34.8813 9.03125 34.7959 8.77391 34.7959 8.43791V5.95791H34.3079C34.2653 5.95791 34.2293 5.94591 34.1999 5.92191C34.1706 5.89525 34.1559 5.85525 34.1559 5.80191V5.51791L34.8199 5.43391L34.9839 4.18191C34.9919 4.14191 35.0093 4.10991 35.0359 4.08591C35.0653 4.05925 35.1026 4.04591 35.1479 4.04591H35.5079V5.44191H36.6799V5.95791H35.5079V8.38991C35.5079 8.56058 35.5493 8.68725 35.6319 8.76991C35.7146 8.85258 35.8213 8.89391 35.9519 8.89391C36.0266 8.89391 36.0906 8.88458 36.1439 8.86591C36.1999 8.84458 36.2479 8.82191 36.2879 8.79791C36.3279 8.77391 36.3613 8.75258 36.3879 8.73391C36.4173 8.71258 36.4426 8.70191 36.4639 8.70191C36.5013 8.70191 36.5346 8.72458 36.5639 8.76991L36.7719 9.10991C36.6493 9.22458 36.5013 9.31525 36.3279 9.38191C36.1546 9.44591 35.9759 9.47791 35.7919 9.47791Z" fill="#EEEEEE" fill-opacity="0.5"/>
<path d="M39.6111 7.58991C39.2831 7.60058 39.0031 7.62725 38.7711 7.66991C38.5418 7.70991 38.3538 7.76325 38.2071 7.82991C38.0631 7.89658 37.9578 7.97525 37.8911 8.06591C37.8271 8.15658 37.7951 8.25791 37.7951 8.36991C37.7951 8.47658 37.8125 8.56858 37.8471 8.64591C37.8818 8.72325 37.9285 8.78724 37.9871 8.83791C38.0485 8.88591 38.1191 8.92191 38.1991 8.94591C38.2818 8.96725 38.3698 8.97791 38.4631 8.97791C38.5885 8.97791 38.7031 8.96591 38.8071 8.94191C38.9111 8.91525 39.0085 8.87791 39.0991 8.82991C39.1925 8.78191 39.2805 8.72458 39.3631 8.65791C39.4485 8.59125 39.5311 8.51524 39.6111 8.42991V7.58991ZM37.3111 5.93391C37.5351 5.71791 37.7765 5.55658 38.0351 5.44991C38.2938 5.34325 38.5805 5.28991 38.8951 5.28991C39.1218 5.28991 39.3231 5.32725 39.4991 5.40191C39.6751 5.47658 39.8231 5.58058 39.9431 5.71391C40.0631 5.84724 40.1538 6.00858 40.2151 6.19791C40.2765 6.38725 40.3071 6.59525 40.3071 6.82191V9.41391H39.9911C39.9218 9.41391 39.8685 9.40325 39.8311 9.38191C39.7938 9.35791 39.7645 9.31258 39.7431 9.24591L39.6631 8.86191C39.5565 8.96058 39.4525 9.04858 39.3511 9.12591C39.2498 9.20058 39.1431 9.26458 39.0311 9.31791C38.9191 9.36858 38.7991 9.40725 38.6711 9.43391C38.5458 9.46325 38.4058 9.47791 38.2511 9.47791C38.0938 9.47791 37.9458 9.45658 37.8071 9.41391C37.6685 9.36858 37.5471 9.30191 37.4431 9.21391C37.3418 9.12591 37.2605 9.01525 37.1991 8.88191C37.1405 8.74591 37.1111 8.58591 37.1111 8.40191C37.1111 8.24191 37.1551 8.08858 37.2431 7.94191C37.3311 7.79258 37.4738 7.66058 37.6711 7.54591C37.8685 7.43125 38.1258 7.33791 38.4431 7.26591C38.7605 7.19125 39.1498 7.14858 39.6111 7.13791V6.82191C39.6111 6.50725 39.5431 6.26991 39.4071 6.10991C39.2711 5.94725 39.0725 5.86591 38.8111 5.86591C38.6351 5.86591 38.4871 5.88858 38.3671 5.93391C38.2498 5.97658 38.1471 6.02591 38.0591 6.08191C37.9738 6.13525 37.8991 6.18458 37.8351 6.22991C37.7738 6.27258 37.7125 6.29391 37.6511 6.29391C37.6031 6.29391 37.5618 6.28191 37.5271 6.25791C37.4925 6.23125 37.4631 6.19925 37.4391 6.16191L37.3111 5.93391Z" fill="#EEEEEE" fill-opacity="0.5"/>
<path d="M42.1277 3.52191V9.41391H41.4157V3.52191H42.1277Z" fill="#EEEEEE" fill-opacity="0.5"/>
<path d="M11.5163 17.682V23.414H10.7403V20.806H7.64831V23.414H6.87231V17.682H7.64831V20.238H10.7403V17.682H11.5163Z" fill="#EEEEEE"/>
<path d="M14.3967 19.298C14.6927 19.298 14.9594 19.3473 15.1967 19.446C15.434 19.5446 15.6367 19.6846 15.8047 19.866C15.9727 20.0473 16.1007 20.2673 16.1887 20.526C16.2794 20.782 16.3247 21.0686 16.3247 21.386C16.3247 21.706 16.2794 21.994 16.1887 22.25C16.1007 22.506 15.9727 22.7246 15.8047 22.906C15.6367 23.0873 15.434 23.2273 15.1967 23.326C14.9594 23.422 14.6927 23.47 14.3967 23.47C14.098 23.47 13.8287 23.422 13.5887 23.326C13.3514 23.2273 13.1487 23.0873 12.9807 22.906C12.8127 22.7246 12.6834 22.506 12.5927 22.25C12.5047 21.994 12.4607 21.706 12.4607 21.386C12.4607 21.0686 12.5047 20.782 12.5927 20.526C12.6834 20.2673 12.8127 20.0473 12.9807 19.866C13.1487 19.6846 13.3514 19.5446 13.5887 19.446C13.8287 19.3473 14.098 19.298 14.3967 19.298ZM14.3967 22.914C14.7967 22.914 15.0954 22.7806 15.2927 22.514C15.49 22.2446 15.5887 21.87 15.5887 21.39C15.5887 20.9073 15.49 20.5313 15.2927 20.262C15.0954 19.9926 14.7967 19.858 14.3967 19.858C14.194 19.858 14.0167 19.8926 13.8647 19.962C13.7154 20.0313 13.59 20.1313 13.4887 20.262C13.39 20.3926 13.3154 20.554 13.2647 20.746C13.2167 20.9353 13.1927 21.15 13.1927 21.39C13.1927 21.87 13.2914 22.2446 13.4887 22.514C13.6887 22.7806 13.9914 22.914 14.3967 22.914Z" fill="#EEEEEE"/>
<path d="M17.9038 20.174C18.0318 19.8966 18.1891 19.6806 18.3758 19.526C18.5624 19.3686 18.7904 19.29 19.0598 19.29C19.1451 19.29 19.2264 19.2993 19.3038 19.318C19.3838 19.3366 19.4544 19.366 19.5158 19.406L19.4638 19.938C19.4478 20.0046 19.4078 20.038 19.3438 20.038C19.3064 20.038 19.2518 20.03 19.1798 20.014C19.1078 19.998 19.0264 19.99 18.9358 19.99C18.8078 19.99 18.6931 20.0086 18.5918 20.046C18.4931 20.0833 18.4038 20.1393 18.3238 20.214C18.2464 20.286 18.1758 20.3766 18.1118 20.486C18.0504 20.5926 17.9944 20.7153 17.9438 20.854V23.414H17.2278V19.362H17.6358C17.7131 19.362 17.7664 19.3766 17.7958 19.406C17.8251 19.4353 17.8451 19.486 17.8558 19.558L17.9038 20.174Z" fill="#EEEEEE"/>
<path d="M20.8938 19.362V23.414H20.1818V19.362H20.8938ZM21.0458 18.09C21.0458 18.1593 21.0311 18.2246 21.0018 18.286C20.9751 18.3446 20.9378 18.398 20.8898 18.446C20.8445 18.4913 20.7898 18.5273 20.7258 18.554C20.6645 18.5806 20.5991 18.594 20.5298 18.594C20.4605 18.594 20.3951 18.5806 20.3338 18.554C20.2751 18.5273 20.2231 18.4913 20.1778 18.446C20.1325 18.398 20.0965 18.3446 20.0698 18.286C20.0431 18.2246 20.0298 18.1593 20.0298 18.09C20.0298 18.0206 20.0431 17.9553 20.0698 17.894C20.0965 17.83 20.1325 17.7753 20.1778 17.73C20.2231 17.682 20.2751 17.6446 20.3338 17.618C20.3951 17.5913 20.4605 17.578 20.5298 17.578C20.5991 17.578 20.6645 17.5913 20.7258 17.618C20.7898 17.6446 20.8445 17.682 20.8898 17.73C20.9378 17.7753 20.9751 17.83 21.0018 17.894C21.0311 17.9553 21.0458 18.0206 21.0458 18.09Z" fill="#EEEEEE"/>
<path d="M24.8597 19.666C24.8597 19.7166 24.8504 19.766 24.8317 19.814C24.8157 19.862 24.793 19.9033 24.7637 19.938L22.5677 22.858H24.7837V23.414H21.7317V23.118C21.7317 23.0833 21.7397 23.0433 21.7557 22.998C21.7717 22.95 21.7957 22.9046 21.8277 22.862L24.0357 19.922H21.8557V19.362H24.8597V19.666Z" fill="#EEEEEE"/>
<path d="M27.3108 19.298C27.6068 19.298 27.8734 19.3473 28.1108 19.446C28.3481 19.5446 28.5508 19.6846 28.7188 19.866C28.8868 20.0473 29.0148 20.2673 29.1028 20.526C29.1934 20.782 29.2388 21.0686 29.2388 21.386C29.2388 21.706 29.1934 21.994 29.1028 22.25C29.0148 22.506 28.8868 22.7246 28.7188 22.906C28.5508 23.0873 28.3481 23.2273 28.1108 23.326C27.8734 23.422 27.6068 23.47 27.3108 23.47C27.0121 23.47 26.7428 23.422 26.5028 23.326C26.2654 23.2273 26.0628 23.0873 25.8948 22.906C25.7268 22.7246 25.5974 22.506 25.5068 22.25C25.4188 21.994 25.3748 21.706 25.3748 21.386C25.3748 21.0686 25.4188 20.782 25.5068 20.526C25.5974 20.2673 25.7268 20.0473 25.8948 19.866C26.0628 19.6846 26.2654 19.5446 26.5028 19.446C26.7428 19.3473 27.0121 19.298 27.3108 19.298ZM27.3108 22.914C27.7108 22.914 28.0094 22.7806 28.2068 22.514C28.4041 22.2446 28.5028 21.87 28.5028 21.39C28.5028 20.9073 28.4041 20.5313 28.2068 20.262C28.0094 19.9926 27.7108 19.858 27.3108 19.858C27.1081 19.858 26.9308 19.8926 26.7788 19.962C26.6294 20.0313 26.5041 20.1313 26.4028 20.262C26.3041 20.3926 26.2294 20.554 26.1788 20.746C26.1308 20.9353 26.1068 21.15 26.1068 21.39C26.1068 21.87 26.2054 22.2446 26.4028 22.514C26.6028 22.7806 26.9054 22.914 27.3108 22.914Z" fill="#EEEEEE"/>
<path d="M30.8138 19.95C30.9018 19.8513 30.9951 19.762 31.0938 19.682C31.1925 19.602 31.2965 19.534 31.4058 19.478C31.5178 19.4193 31.6351 19.3753 31.7578 19.346C31.8831 19.314 32.0178 19.298 32.1618 19.298C32.3831 19.298 32.5778 19.3353 32.7458 19.41C32.9165 19.482 33.0578 19.586 33.1698 19.722C33.2845 19.8553 33.3711 20.0166 33.4298 20.206C33.4885 20.3953 33.5178 20.6046 33.5178 20.834V23.414H32.8018V20.834C32.8018 20.5273 32.7311 20.29 32.5898 20.122C32.4511 19.9513 32.2391 19.866 31.9538 19.866C31.7431 19.866 31.5458 19.9166 31.3618 20.018C31.1805 20.1193 31.0125 20.2566 30.8578 20.43V23.414H30.1418V19.362H30.5698C30.6711 19.362 30.7338 19.4113 30.7578 19.51L30.8138 19.95Z" fill="#EEEEEE"/>
<path d="M35.7921 23.478C35.4721 23.478 35.2254 23.3886 35.0521 23.21C34.8814 23.0313 34.7961 22.774 34.7961 22.438V19.958H34.3081C34.2654 19.958 34.2294 19.946 34.2001 19.922C34.1707 19.8953 34.1561 19.8553 34.1561 19.802V19.518L34.8201 19.434L34.9841 18.182C34.9921 18.142 35.0094 18.11 35.0361 18.086C35.0654 18.0593 35.1027 18.046 35.1481 18.046H35.5081V19.442H36.6801V19.958H35.5081V22.39C35.5081 22.5606 35.5494 22.6873 35.6321 22.77C35.7147 22.8526 35.8214 22.894 35.9521 22.894C36.0267 22.894 36.0907 22.8846 36.1441 22.866C36.2001 22.8446 36.2481 22.822 36.2881 22.798C36.3281 22.774 36.3614 22.7526 36.3881 22.734C36.4174 22.7126 36.4427 22.702 36.4641 22.702C36.5014 22.702 36.5347 22.7246 36.5641 22.77L36.7721 23.11C36.6494 23.2246 36.5014 23.3153 36.3281 23.382C36.1547 23.446 35.9761 23.478 35.7921 23.478Z" fill="#EEEEEE"/>
<path d="M39.6113 21.59C39.2833 21.6006 39.0033 21.6273 38.7713 21.67C38.5419 21.71 38.3539 21.7633 38.2073 21.83C38.0633 21.8966 37.9579 21.9753 37.8913 22.066C37.8273 22.1566 37.7953 22.258 37.7953 22.37C37.7953 22.4766 37.8126 22.5686 37.8473 22.646C37.8819 22.7233 37.9286 22.7873 37.9873 22.838C38.0486 22.886 38.1193 22.922 38.1993 22.946C38.2819 22.9673 38.3699 22.978 38.4633 22.978C38.5886 22.978 38.7033 22.966 38.8073 22.942C38.9113 22.9153 39.0086 22.878 39.0993 22.83C39.1926 22.782 39.2806 22.7246 39.3633 22.658C39.4486 22.5913 39.5313 22.5153 39.6113 22.43V21.59ZM37.3113 19.934C37.5353 19.718 37.7766 19.5566 38.0353 19.45C38.2939 19.3433 38.5806 19.29 38.8953 19.29C39.1219 19.29 39.3233 19.3273 39.4993 19.402C39.6753 19.4766 39.8233 19.5806 39.9433 19.714C40.0633 19.8473 40.1539 20.0086 40.2153 20.198C40.2766 20.3873 40.3073 20.5953 40.3073 20.822V23.414H39.9913C39.9219 23.414 39.8686 23.4033 39.8313 23.382C39.7939 23.358 39.7646 23.3126 39.7433 23.246L39.6633 22.862C39.5566 22.9606 39.4526 23.0486 39.3513 23.126C39.2499 23.2006 39.1433 23.2646 39.0313 23.318C38.9193 23.3686 38.7993 23.4073 38.6713 23.434C38.5459 23.4633 38.4059 23.478 38.2513 23.478C38.0939 23.478 37.9459 23.4566 37.8073 23.414C37.6686 23.3686 37.5473 23.302 37.4433 23.214C37.3419 23.126 37.2606 23.0153 37.1993 22.882C37.1406 22.746 37.1113 22.586 37.1113 22.402C37.1113 22.242 37.1553 22.0886 37.2433 21.942C37.3313 21.7926 37.4739 21.6606 37.6713 21.546C37.8686 21.4313 38.1259 21.338 38.4433 21.266C38.7606 21.1913 39.1499 21.1486 39.6113 21.138V20.822C39.6113 20.5073 39.5433 20.27 39.4073 20.11C39.2713 19.9473 39.0726 19.866 38.8113 19.866C38.6353 19.866 38.4873 19.8886 38.3673 19.934C38.2499 19.9766 38.1473 20.026 38.0593 20.082C37.9739 20.1353 37.8993 20.1846 37.8353 20.23C37.7739 20.2726 37.7126 20.294 37.6513 20.294C37.6033 20.294 37.5619 20.282 37.5273 20.258C37.4926 20.2313 37.4633 20.1993 37.4393 20.162L37.3113 19.934Z" fill="#EEEEEE"/>
<path d="M42.1278 17.522V23.414H41.4158V17.522H42.1278Z" fill="#EEEEEE"/>
</g>
<defs>
<clipPath id="clip0_206_40036">
<rect width="49" height="28" fill="white"/>
</clipPath>
</defs>
</svg>
