<svg width="18" height="28" viewBox="0 0 18 28" fill="none" xmlns="http://www.w3.org/2000/svg">
<rect x="1.25" y="14.75" width="15.5" height="12.5" fill="black" fill-opacity="0.1" stroke="#FF9000" stroke-width="0.5"/>
<rect x="1.25" y="0.75" width="15.5" height="12.5" stroke="white" stroke-opacity="0.25" stroke-width="0.5"/>
<path d="M5.66238 20.6902H5.91788C6.00654 20.6902 6.07771 20.6797 6.13138 20.6587C6.18504 20.6354 6.23404 20.5969 6.27838 20.5432L7.94788 18.6532C7.99454 18.5926 8.04354 18.5506 8.09488 18.5272C8.14621 18.5039 8.20921 18.4922 8.28388 18.4922H8.85788L6.94688 20.6517C6.90021 20.7077 6.85471 20.7544 6.81038 20.7917C6.76838 20.8267 6.72288 20.8559 6.67388 20.8792C6.73688 20.9002 6.79404 20.9317 6.84538 20.9737C6.89671 21.0134 6.94688 21.0659 6.99588 21.1312L8.99088 23.5077H8.40288C8.35854 23.5077 8.32004 23.5054 8.28738 23.5007C8.25704 23.4937 8.23021 23.4844 8.20688 23.4727C8.18354 23.4587 8.16254 23.4436 8.14388 23.4272C8.12754 23.4086 8.11121 23.3876 8.09488 23.3642L6.36588 21.3727C6.31921 21.3144 6.26904 21.2736 6.21538 21.2502C6.16171 21.2246 6.08004 21.2117 5.97038 21.2117H5.66238V23.5077H4.98688V18.4922H5.66238V20.6902Z" fill="#EEEEEE"/>
<path d="M13.0131 19.0627H11.3891V23.5077H10.7136V19.0627H9.08614V18.4922H13.0131V19.0627Z" fill="#EEEEEE"/>
<path d="M5.66238 6.69025H5.91788C6.00654 6.69025 6.07771 6.67975 6.13138 6.65875C6.18504 6.63542 6.23404 6.59692 6.27838 6.54325L7.94788 4.65325C7.99454 4.59258 8.04354 4.55058 8.09488 4.52725C8.14621 4.50392 8.20921 4.49225 8.28388 4.49225H8.85788L6.94688 6.65175C6.90021 6.70775 6.85471 6.75442 6.81038 6.79175C6.76838 6.82675 6.72288 6.85592 6.67388 6.87925C6.73688 6.90025 6.79404 6.93175 6.84538 6.97375C6.89671 7.01342 6.94688 7.06592 6.99588 7.13125L8.99088 9.50775H8.40288C8.35854 9.50775 8.32004 9.50542 8.28738 9.50075C8.25704 9.49375 8.23021 9.48442 8.20688 9.47275C8.18354 9.45875 8.16254 9.44358 8.14388 9.42725C8.12754 9.40858 8.11121 9.38758 8.09488 9.36425L6.36588 7.37275C6.31921 7.31442 6.26904 7.27358 6.21538 7.25025C6.16171 7.22458 6.08004 7.21175 5.97038 7.21175H5.66238V9.50775H4.98688V4.49225H5.66238V6.69025Z" fill="white" fill-opacity="0.5"/>
<path d="M13.0131 5.06275H11.3891V9.50775H10.7136V5.06275H9.08614V4.49225H13.0131V5.06275Z" fill="white" fill-opacity="0.5"/>
</svg>
