<svg width="40" height="82" viewBox="0 0 40 82" fill="none" xmlns="http://www.w3.org/2000/svg">
<g clip-path="url(#clip0_206_39206)">
<path d="M0 0.5H40V20.75H0V0.5Z" fill="white" fill-opacity="0.2"/>
<path d="M21.844 12.0411L20.436 8.19306C20.3666 8.0224 20.2946 7.81973 20.22 7.58506C20.1453 7.3504 20.0706 7.09706 19.996 6.82506C19.9266 7.09706 19.8546 7.35306 19.78 7.59307C19.7053 7.82773 19.6333 8.03306 19.564 8.20906L18.164 12.0411H21.844ZM25.644 16.4091H23.98C23.7933 16.4091 23.6413 16.3637 23.524 16.2731C23.4066 16.1771 23.3186 16.0597 23.26 15.9211L22.396 13.5611H17.604L16.74 15.9211C16.6973 16.0437 16.6146 16.1557 16.492 16.2571C16.3693 16.3584 16.2173 16.4091 16.036 16.4091H14.356L18.908 4.84106H21.1L25.644 16.4091Z" fill="white"/>
<path d="M0 61.25H40V81.5H0V61.25Z" fill="white" fill-opacity="0.2"/>
<path d="M20.04 75.4791C20.44 75.4791 20.776 75.4311 21.048 75.3351C21.32 75.2391 21.536 75.1111 21.696 74.9511C21.8614 74.7911 21.9787 74.6044 22.048 74.3911C22.1227 74.1777 22.16 73.9511 22.16 73.7111C22.16 73.4604 22.12 73.2364 22.04 73.0391C21.96 72.8364 21.8347 72.6657 21.664 72.5271C21.4934 72.3831 21.272 72.2737 21 72.1991C20.7334 72.1244 20.4107 72.0871 20.032 72.0871H17.864V75.4791H20.04ZM17.864 67.2551V70.5991H19.576C20.312 70.5991 20.8667 70.4657 21.24 70.1991C21.6187 69.9324 21.808 69.5084 21.808 68.9271C21.808 68.3244 21.6374 67.8951 21.296 67.6391C20.9547 67.3831 20.4214 67.2551 19.696 67.2551H17.864ZM19.696 65.5911C20.4534 65.5911 21.1014 65.6631 21.64 65.8071C22.1787 65.9511 22.6187 66.1564 22.96 66.4231C23.3067 66.6897 23.56 67.0124 23.72 67.3911C23.88 67.7697 23.96 68.1964 23.96 68.6711C23.96 68.9431 23.92 69.2044 23.84 69.4551C23.76 69.7004 23.6347 69.9324 23.464 70.1511C23.2987 70.3644 23.0854 70.5591 22.824 70.7351C22.568 70.9111 22.2614 71.0604 21.904 71.1831C23.4934 71.5404 24.288 72.3991 24.288 73.7591C24.288 74.2497 24.1947 74.7031 24.008 75.1191C23.8214 75.5351 23.5494 75.8951 23.192 76.1991C22.8347 76.4977 22.3947 76.7324 21.872 76.9031C21.3494 77.0737 20.752 77.1591 20.08 77.1591H15.712V65.5911H19.696Z" fill="#EEEEEE" fill-opacity="0.5"/>
</g>
<defs>
<clipPath id="clip0_206_39206">
<rect width="40" height="82" fill="white"/>
</clipPath>
</defs>
</svg>
