<svg width="49" height="28" viewBox="0 0 49 28" fill="none" xmlns="http://www.w3.org/2000/svg">
<rect y="14.75" width="49" height="12.5" fill="white" fill-opacity="0.2"/>
<path d="M16.8902 17.682L14.5542 23.414H13.8582L11.5222 17.682H12.1422C12.2116 17.682 12.2676 17.6993 12.3102 17.734C12.3529 17.7686 12.3849 17.8126 12.4062 17.866L14.0222 21.91C14.0569 22.0006 14.0902 22.0993 14.1222 22.206C14.1569 22.3126 14.1876 22.4246 14.2142 22.542C14.2409 22.4246 14.2689 22.3126 14.2982 22.206C14.3276 22.0993 14.3596 22.0006 14.3942 21.91L16.0062 17.866C16.0222 17.8206 16.0529 17.7793 16.0982 17.742C16.1462 17.702 16.2036 17.682 16.2702 17.682H16.8902Z" fill="white"/>
<path d="M19.5867 20.946C19.5867 20.7806 19.5627 20.63 19.5147 20.494C19.4694 20.3553 19.4014 20.2366 19.3107 20.138C19.2227 20.0366 19.1147 19.9593 18.9867 19.906C18.8587 19.85 18.7134 19.822 18.5507 19.822C18.2094 19.822 17.9387 19.922 17.7387 20.122C17.5414 20.3193 17.4187 20.594 17.3707 20.946H19.5867ZM20.1627 22.846C20.0747 22.9526 19.9694 23.046 19.8467 23.126C19.7241 23.2033 19.5921 23.2673 19.4507 23.318C19.3121 23.3686 19.1681 23.406 19.0187 23.43C18.8694 23.4566 18.7214 23.47 18.5747 23.47C18.2947 23.47 18.0361 23.4233 17.7987 23.33C17.5641 23.234 17.3601 23.0953 17.1867 22.914C17.0161 22.73 16.8827 22.5033 16.7867 22.234C16.6907 21.9646 16.6427 21.6553 16.6427 21.306C16.6427 21.0233 16.6854 20.7593 16.7707 20.514C16.8587 20.2686 16.984 20.0566 17.1467 19.878C17.3094 19.6966 17.5081 19.5553 17.7427 19.454C17.9774 19.35 18.2414 19.298 18.5347 19.298C18.7774 19.298 19.0014 19.3393 19.2067 19.422C19.4147 19.502 19.5934 19.6193 19.7427 19.774C19.8947 19.926 20.0134 20.1153 20.0987 20.342C20.1841 20.566 20.2267 20.822 20.2267 21.11C20.2267 21.222 20.2147 21.2966 20.1907 21.334C20.1667 21.3713 20.1214 21.39 20.0547 21.39H17.3467C17.3547 21.646 17.3894 21.8686 17.4507 22.058C17.5147 22.2473 17.6027 22.406 17.7147 22.534C17.8267 22.6593 17.9601 22.754 18.1147 22.818C18.2694 22.8793 18.4427 22.91 18.6347 22.91C18.8134 22.91 18.9667 22.89 19.0947 22.85C19.2254 22.8073 19.3374 22.762 19.4307 22.714C19.5241 22.666 19.6014 22.622 19.6627 22.582C19.7267 22.5393 19.7814 22.518 19.8267 22.518C19.8854 22.518 19.9307 22.5406 19.9627 22.586L20.1627 22.846Z" fill="white"/>
<path d="M21.7773 20.174C21.9053 19.8966 22.0626 19.6806 22.2493 19.526C22.4359 19.3686 22.6639 19.29 22.9333 19.29C23.0186 19.29 23.0999 19.2993 23.1773 19.318C23.2573 19.3366 23.3279 19.366 23.3893 19.406L23.3373 19.938C23.3213 20.0046 23.2813 20.038 23.2173 20.038C23.1799 20.038 23.1253 20.03 23.0533 20.014C22.9813 19.998 22.8999 19.99 22.8093 19.99C22.6813 19.99 22.5666 20.0086 22.4653 20.046C22.3666 20.0833 22.2773 20.1393 22.1973 20.214C22.1199 20.286 22.0493 20.3766 21.9853 20.486C21.9239 20.5926 21.8679 20.7153 21.8173 20.854V23.414H21.1013V19.362H21.5093C21.5866 19.362 21.6399 19.3766 21.6693 19.406C21.6986 19.4353 21.7186 19.486 21.7293 19.558L21.7773 20.174Z" fill="white"/>
<path d="M27.7753 23.414H27.0633V19.958H24.9753V22.39C24.9753 22.5606 25.0167 22.6873 25.0993 22.77C25.182 22.8526 25.2887 22.894 25.4193 22.894C25.494 22.894 25.558 22.8846 25.6113 22.866C25.6673 22.8446 25.7153 22.822 25.7553 22.798C25.7953 22.774 25.8287 22.7526 25.8553 22.734C25.8847 22.7126 25.91 22.702 25.9313 22.702C25.9687 22.702 26.002 22.7246 26.0313 22.77L26.2393 23.11C26.1167 23.2246 25.9687 23.3153 25.7953 23.382C25.622 23.446 25.4433 23.478 25.2593 23.478C24.9393 23.478 24.6927 23.3886 24.5193 23.21C24.3487 23.0313 24.2633 22.774 24.2633 22.438V19.958H23.7753C23.7327 19.958 23.6967 19.946 23.6673 19.922C23.638 19.8953 23.6233 19.8553 23.6233 19.802V19.518L24.2873 19.43L24.4513 18.182C24.4593 18.142 24.4767 18.11 24.5033 18.086C24.5327 18.0593 24.57 18.046 24.6153 18.046H24.9753V19.442H27.7753V23.414ZM27.9513 18.062C27.9513 18.1313 27.9367 18.1966 27.9073 18.258C27.8807 18.3166 27.8433 18.3686 27.7953 18.414C27.75 18.4593 27.6967 18.4953 27.6353 18.522C27.574 18.5486 27.5087 18.562 27.4393 18.562C27.37 18.562 27.3047 18.5486 27.2433 18.522C27.1847 18.4953 27.1327 18.4593 27.0873 18.414C27.042 18.3686 27.006 18.3166 26.9793 18.258C26.9527 18.1966 26.9393 18.1313 26.9393 18.062C26.9393 17.9926 26.9527 17.9273 26.9793 17.866C27.006 17.802 27.042 17.7473 27.0873 17.702C27.1327 17.654 27.1847 17.6166 27.2433 17.59C27.3047 17.5633 27.37 17.55 27.4393 17.55C27.5087 17.55 27.574 17.5633 27.6353 17.59C27.6967 17.6166 27.75 17.654 27.7953 17.702C27.8433 17.7473 27.8807 17.802 27.9073 17.866C27.9367 17.9273 27.9513 17.9926 27.9513 18.062Z" fill="white"/>
<path d="M31.765 20.082C31.7437 20.1113 31.7224 20.134 31.701 20.15C31.6797 20.166 31.6504 20.174 31.613 20.174C31.573 20.174 31.529 20.158 31.481 20.126C31.433 20.0913 31.373 20.054 31.301 20.014C31.2317 19.974 31.145 19.938 31.041 19.906C30.9397 19.8713 30.8144 19.854 30.665 19.854C30.465 19.854 30.289 19.89 30.137 19.962C29.985 20.0313 29.857 20.1326 29.753 20.266C29.6517 20.3993 29.5744 20.5606 29.521 20.75C29.4704 20.9393 29.445 21.1513 29.445 21.386C29.445 21.6313 29.473 21.85 29.529 22.042C29.585 22.2313 29.6637 22.3913 29.765 22.522C29.869 22.65 29.993 22.7486 30.137 22.818C30.2837 22.8846 30.4477 22.918 30.629 22.918C30.8024 22.918 30.945 22.898 31.057 22.858C31.169 22.8153 31.261 22.7686 31.333 22.718C31.4077 22.6673 31.469 22.622 31.517 22.582C31.5677 22.5393 31.617 22.518 31.665 22.518C31.7237 22.518 31.769 22.5406 31.801 22.586L32.001 22.846C31.913 22.9553 31.813 23.0486 31.701 23.126C31.589 23.2033 31.4677 23.2686 31.337 23.322C31.209 23.3726 31.0744 23.41 30.933 23.434C30.7917 23.458 30.6477 23.47 30.501 23.47C30.2477 23.47 30.0117 23.4233 29.793 23.33C29.577 23.2366 29.389 23.102 29.229 22.926C29.069 22.7473 28.9437 22.5286 28.853 22.27C28.7624 22.0113 28.717 21.7166 28.717 21.386C28.717 21.0846 28.7584 20.806 28.841 20.55C28.9264 20.294 29.049 20.074 29.209 19.89C29.3717 19.7033 29.5704 19.558 29.805 19.454C30.0424 19.35 30.3144 19.298 30.621 19.298C30.9064 19.298 31.157 19.3446 31.373 19.438C31.5917 19.5286 31.785 19.658 31.953 19.826L31.765 20.082Z" fill="white"/>
<path d="M34.9613 21.59C34.6333 21.6006 34.3533 21.6273 34.1213 21.67C33.892 21.71 33.704 21.7633 33.5573 21.83C33.4133 21.8966 33.308 21.9753 33.2413 22.066C33.1773 22.1566 33.1453 22.258 33.1453 22.37C33.1453 22.4766 33.1627 22.5686 33.1973 22.646C33.232 22.7233 33.2787 22.7873 33.3373 22.838C33.3987 22.886 33.4693 22.922 33.5493 22.946C33.632 22.9673 33.72 22.978 33.8133 22.978C33.9387 22.978 34.0533 22.966 34.1573 22.942C34.2613 22.9153 34.3587 22.878 34.4493 22.83C34.5427 22.782 34.6307 22.7246 34.7133 22.658C34.7987 22.5913 34.8813 22.5153 34.9613 22.43V21.59ZM32.6613 19.934C32.8853 19.718 33.1267 19.5566 33.3853 19.45C33.644 19.3433 33.9307 19.29 34.2453 19.29C34.472 19.29 34.6733 19.3273 34.8493 19.402C35.0253 19.4766 35.1733 19.5806 35.2933 19.714C35.4133 19.8473 35.504 20.0086 35.5653 20.198C35.6267 20.3873 35.6573 20.5953 35.6573 20.822V23.414H35.3413C35.272 23.414 35.2187 23.4033 35.1813 23.382C35.144 23.358 35.1147 23.3126 35.0933 23.246L35.0133 22.862C34.9067 22.9606 34.8027 23.0486 34.7013 23.126C34.6 23.2006 34.4933 23.2646 34.3813 23.318C34.2693 23.3686 34.1493 23.4073 34.0213 23.434C33.896 23.4633 33.756 23.478 33.6013 23.478C33.444 23.478 33.296 23.4566 33.1573 23.414C33.0187 23.3686 32.8973 23.302 32.7933 23.214C32.692 23.126 32.6107 23.0153 32.5493 22.882C32.4907 22.746 32.4613 22.586 32.4613 22.402C32.4613 22.242 32.5053 22.0886 32.5933 21.942C32.6813 21.7926 32.824 21.6606 33.0213 21.546C33.2187 21.4313 33.476 21.338 33.7933 21.266C34.1107 21.1913 34.5 21.1486 34.9613 21.138V20.822C34.9613 20.5073 34.8933 20.27 34.7573 20.11C34.6213 19.9473 34.4227 19.866 34.1613 19.866C33.9853 19.866 33.8373 19.8886 33.7173 19.934C33.6 19.9766 33.4973 20.026 33.4093 20.082C33.324 20.1353 33.2493 20.1846 33.1853 20.23C33.124 20.2726 33.0627 20.294 33.0013 20.294C32.9533 20.294 32.912 20.282 32.8773 20.258C32.8427 20.2313 32.8133 20.1993 32.7893 20.162L32.6613 19.934Z" fill="white"/>
<path d="M37.4779 17.522V23.414H36.7659V17.522H37.4779Z" fill="white"/>
</svg>
