<svg width="50" height="760" viewBox="0 0 50 760" fill="none" xmlns="http://www.w3.org/2000/svg">
<rect width="25.25" height="15.25" fill="white" fill-opacity="0.2"/>
<rect x="24.75" y="76" width="25.25" height="15.25" fill="white" fill-opacity="0.2"/>
<rect y="166.75" width="25.25" height="15.5" fill="white" fill-opacity="0.2"/>
<rect x="24.75" y="242.75" width="25.25" height="15.5" fill="white" fill-opacity="0.2"/>
<rect y="333.75" width="25.25" height="15.5" fill="white" fill-opacity="0.2"/>
<rect x="24.75" y="409.75" width="25.25" height="15.5" fill="white" fill-opacity="0.2"/>
<rect y="500.75" width="25.25" height="15.5" fill="white" fill-opacity="0.2"/>
<rect x="24.75" y="576.75" width="25.25" height="15.5" fill="white" fill-opacity="0.2"/>
<rect y="667.75" width="25.25" height="15.25" fill="white" fill-opacity="0.2"/>
<rect x="24.75" y="743.75" width="25.25" height="15.25" fill="white" fill-opacity="0.2"/>
<path d="M28.4353 750.615L28.0818 753.527L27.9173 754.251C27.8917 754.335 27.8532 754.399 27.8018 754.444C27.7528 754.49 27.684 754.514 27.5953 754.514H27.3538L27.8228 750.625L27.4728 750.58C27.4308 750.568 27.397 750.55 27.3713 750.527C27.348 750.504 27.3387 750.468 27.3433 750.419L27.3748 750.167H27.8788L27.9208 749.824C27.9465 749.621 27.9967 749.441 28.0713 749.285C28.1483 749.126 28.244 748.993 28.3583 748.886C28.475 748.776 28.6068 748.693 28.7538 748.637C28.9032 748.581 29.0642 748.553 29.2368 748.553C29.3792 748.553 29.511 748.576 29.6323 748.623L29.5728 748.945C29.5635 748.992 29.532 749.015 29.4783 749.015C29.4247 749.015 29.357 749.015 29.2753 749.015C29.175 749.015 29.0817 749.03 28.9953 749.061C28.9113 749.089 28.8367 749.135 28.7713 749.201C28.706 749.266 28.65 749.351 28.6033 749.456C28.559 749.561 28.5275 749.689 28.5088 749.841L28.4703 750.167H29.3558L29.2963 750.615H28.4353Z" fill="white"/>
<path d="M29.799 751.637H32.7985L32.7425 752.095H29.743L29.799 751.637ZM29.946 750.471H32.942L32.8895 750.93H29.89L29.946 750.471Z" fill="white"/>
<path d="M35.9911 750.531C35.9397 750.519 35.8884 750.512 35.8371 750.51C35.7881 750.505 35.7391 750.503 35.6901 750.503C35.5501 750.503 35.4147 750.526 35.2841 750.573C35.1534 750.617 35.0309 750.68 34.9166 750.762C34.8022 750.843 34.6984 750.941 34.6051 751.056C34.5117 751.168 34.4312 751.291 34.3636 751.427C34.2982 751.562 34.2469 751.707 34.2096 751.861C34.1722 752.012 34.1536 752.169 34.1536 752.33C34.1536 752.892 34.3332 753.173 34.6926 753.173C34.8069 753.173 34.9189 753.138 35.0286 753.068C35.1382 752.996 35.2421 752.897 35.3401 752.771C35.4404 752.642 35.5326 752.492 35.6166 752.319C35.7006 752.144 35.7752 751.953 35.8406 751.745L35.9911 750.531ZM35.7531 752.708C35.6691 752.857 35.5781 752.992 35.4801 753.114C35.3844 753.235 35.2817 753.339 35.1721 753.425C35.0647 753.509 34.9504 753.574 34.8291 753.621C34.7101 753.668 34.5864 753.691 34.4581 753.691C34.3181 753.691 34.1909 753.664 34.0766 753.611C33.9622 753.555 33.8642 753.474 33.7826 753.369C33.7032 753.262 33.6414 753.131 33.5971 752.977C33.5527 752.821 33.5306 752.642 33.5306 752.442C33.5306 752.232 33.5562 752.027 33.6076 751.829C33.6612 751.628 33.7359 751.439 33.8316 751.262C33.9296 751.085 34.0462 750.923 34.1816 750.776C34.3169 750.626 34.4674 750.498 34.6331 750.391C34.8011 750.281 34.9807 750.197 35.1721 750.139C35.3634 750.078 35.5641 750.048 35.7741 750.048C35.9257 750.048 36.0727 750.06 36.2151 750.086C36.3597 750.109 36.5021 750.151 36.6421 750.212L36.2186 753.642H35.8966C35.8149 753.642 35.7589 753.621 35.7286 753.579C35.7006 753.537 35.6866 753.486 35.6866 753.425L35.7531 752.708Z" fill="white"/>
<path d="M38.9293 751.738L39.8708 753.642H39.3178C39.2711 753.642 39.2338 753.63 39.2058 753.607C39.1801 753.584 39.1591 753.555 39.1428 753.52L38.4778 752.099C38.4568 752.148 38.4323 752.193 38.4043 752.235L37.4383 753.523C37.4126 753.556 37.3858 753.584 37.3578 753.607C37.3298 753.63 37.2948 753.642 37.2528 753.642H36.7103L38.1418 751.735L37.2913 750.097H37.8478C37.8944 750.097 37.9283 750.104 37.9493 750.118C37.9703 750.129 37.9878 750.151 38.0018 750.184L38.5968 751.406C38.6224 751.354 38.6516 751.304 38.6843 751.255L39.4858 750.195C39.5231 750.129 39.5721 750.097 39.6328 750.097H40.1928L38.9293 751.738Z" fill="white"/>
<path d="M43.8843 751.521H42.4528L42.2673 753.03H41.7738L41.9593 751.521H40.5348L40.5908 751.066H42.0153L42.2008 749.565H42.6908L42.5088 751.066H43.9403L43.8843 751.521Z" fill="white"/>
<path d="M45.1449 752.865C45.2335 752.989 45.3397 753.077 45.4634 753.131C45.5894 753.182 45.7154 753.208 45.8414 753.208C45.9627 753.208 46.077 753.182 46.1844 753.131C46.2917 753.08 46.3897 753.011 46.4784 752.925C46.567 752.836 46.6452 752.733 46.7129 752.617C46.7829 752.498 46.8424 752.372 46.8914 752.239C46.9404 752.103 46.9765 751.964 46.9999 751.822C47.0255 751.677 47.0384 751.535 47.0384 751.395C47.0384 751.117 46.9882 750.906 46.8879 750.762C46.7899 750.617 46.6499 750.545 46.4679 750.545C46.3559 750.545 46.2427 750.58 46.1284 750.65C46.014 750.72 45.9032 750.818 45.7959 750.944C45.6885 751.067 45.5882 751.215 45.4949 751.388C45.4039 751.558 45.3245 751.745 45.2569 751.948L45.1449 752.865ZM45.3724 750.996C45.461 750.851 45.5555 750.721 45.6559 750.604C45.7585 750.487 45.8659 750.388 45.9779 750.307C46.0899 750.223 46.2065 750.158 46.3279 750.114C46.4492 750.067 46.5729 750.044 46.6989 750.044C47.0022 750.044 47.2379 750.154 47.4059 750.373C47.5739 750.592 47.6579 750.913 47.6579 751.336C47.6579 751.527 47.638 751.718 47.5984 751.91C47.5587 752.101 47.5015 752.284 47.4269 752.459C47.3545 752.632 47.2659 752.794 47.1609 752.946C47.0582 753.095 46.9427 753.226 46.8144 753.338C46.6884 753.447 46.5507 753.534 46.4014 753.597C46.252 753.66 46.0957 753.691 45.9324 753.691C45.7434 753.691 45.573 753.651 45.4214 753.572C45.2697 753.493 45.1437 753.38 45.0434 753.233L44.9944 753.46C44.9757 753.521 44.9524 753.566 44.9244 753.597C44.8964 753.627 44.8462 753.642 44.7739 753.642H44.4449L45.0679 748.487H45.6769L45.3724 750.996Z" fill="white"/>
<path fill-rule="evenodd" clip-rule="evenodd" d="M11.6034 672.81C11.9605 672.81 12.25 672.521 12.25 672.164C12.25 671.807 11.9605 671.517 11.6034 671.517C11.2463 671.517 10.9569 671.807 10.9569 672.164C10.9569 672.521 11.2463 672.81 11.6034 672.81ZM11.6034 673.06C11.7121 673.06 11.8162 673.041 11.9126 673.006C12.2815 674.321 12.9113 675.351 13.4594 676.061C13.7485 676.435 14.0158 676.722 14.2118 676.916C14.2896 676.993 14.3562 677.055 14.4086 677.103C14.3351 677.233 14.2931 677.383 14.2931 677.543C14.2931 678.038 14.6945 678.44 15.1897 678.44C15.6848 678.44 16.0862 678.038 16.0862 677.543C16.0862 677.395 16.0504 677.255 15.9868 677.132C15.9988 677.137 15.9988 677.137 15.9988 677.137L15.9988 677.137L15.9991 677.136L16.001 677.132L16.0094 677.112C16.0171 677.095 16.029 677.068 16.045 677.033C16.077 676.963 16.1256 676.861 16.191 676.735C16.322 676.484 16.5195 676.137 16.7845 675.76C17.2998 675.028 18.058 674.199 19.0628 673.718C19.2228 673.866 19.4371 673.957 19.6725 673.957C20.1676 673.957 20.569 673.555 20.569 673.06C20.569 672.565 20.1676 672.164 19.6725 672.164C19.1773 672.164 18.7759 672.565 18.7759 673.06C18.7759 673.139 18.786 673.215 18.8049 673.287C17.7131 673.823 16.9087 674.715 16.3756 675.473C16.0952 675.871 15.8864 676.238 15.7474 676.505C15.6962 676.603 15.6543 676.689 15.6218 676.757C15.4936 676.687 15.3463 676.647 15.1897 676.647C15.0368 676.647 14.8928 676.685 14.7668 676.752C14.7171 676.708 14.6477 676.644 14.5633 676.56C14.3808 676.38 14.1287 676.11 13.8551 675.755C13.3083 675.047 12.6788 674.007 12.3413 672.673C12.4414 672.528 12.5 672.353 12.5 672.164C12.5 671.669 12.0986 671.267 11.6034 671.267C11.1299 671.267 10.7421 671.634 10.7091 672.099C10.6697 672.106 10.6245 672.116 10.5742 672.131C10.4087 672.181 10.1945 672.286 9.95173 672.499C9.46939 672.924 8.87464 673.774 8.30706 675.476C7.75524 677.132 7.16373 677.912 6.73837 678.277C6.5265 678.459 6.35439 678.54 6.245 678.576C6.22474 678.583 6.20646 678.588 6.1903 678.592C6.08387 678.215 5.73788 677.94 5.32747 677.94C4.83231 677.94 4.43091 678.341 4.43091 678.836C4.43091 679.331 4.83231 679.733 5.32747 679.733C5.73053 679.733 6.07146 679.467 6.18435 679.101L6.18953 679.1C6.24325 679.093 6.31508 679.079 6.40173 679.051C6.57573 678.993 6.80483 678.879 7.06421 678.656C7.58136 678.212 8.21252 677.341 8.78141 675.635C9.33454 673.975 9.8921 673.218 10.2819 672.875C10.4753 672.705 10.6271 672.637 10.7185 672.609C10.7647 672.596 10.7972 672.591 10.8142 672.59L10.8145 672.59C10.9662 672.87 11.2626 673.06 11.6034 673.06ZM5.32747 679.483C5.68456 679.483 5.97403 679.193 5.97403 678.836C5.97403 678.479 5.68456 678.19 5.32747 678.19C4.97038 678.19 4.68091 678.479 4.68091 678.836C4.68091 679.193 4.97038 679.483 5.32747 679.483ZM15.8362 677.543C15.8362 677.9 15.5468 678.19 15.1897 678.19C14.8326 678.19 14.5431 677.9 14.5431 677.543C14.5431 677.186 14.8326 676.897 15.1897 676.897C15.5468 676.897 15.8362 677.186 15.8362 677.543ZM19.6725 673.707C20.0296 673.707 20.319 673.417 20.319 673.06C20.319 672.703 20.0296 672.414 19.6725 672.414C19.3154 672.414 19.0259 672.703 19.0259 673.06C19.0259 673.417 19.3154 673.707 19.6725 673.707Z" fill="white"/>
<path d="M4.5 512.5L7.5 504.5L10.5 508.5H17.5L20.5 512.5" stroke="white" stroke-width="0.5" stroke-linecap="round"/>
<path d="M46.5 415.9H43.5V413.5H40.5V419.1H37.5V421.5H34.5V415.1H31.5V419.9H28.5V418.3" stroke="white" stroke-width="0.5"/>
<path d="M3.49707 341.56C3.49707 344.459 5.10645 344.885 5.77441 343.29C6.17988 342.323 6.13769 341.859 6.53613 339.25C6.79588 337.549 8.422 338.077 8.73145 339.726C9.31213 342.819 9.5166 343.689 9.5166 343.689C10.0998 346.652 11.4968 345.411 12.0361 343.843C12.2073 343.345 12.2399 343.314 12.4971 342.14C13.0917 339.424 14.317 342.14 14.9816 342.14C16.3369 342.14 16.6015 338.871 16.6015 338.871C16.7676 337.401 17.6507 337.1 18.4971 338.081C20.293 340.489 21.5028 340.436 21.5028 340.436" stroke="white" stroke-width="0.5" stroke-linecap="round"/>
<path d="M30 254.5V246.5L38 254.5V246.5L45 254.5" stroke="white" stroke-width="0.5" stroke-linecap="round"/>
<path d="M4.5 178V171H12.5V178H20.5V171" stroke="white" stroke-width="0.5" stroke-linecap="round"/>
<path d="M29.5 83.5L33.5 79.5L41.5 87.5L45.5 83.5" stroke="white" stroke-width="0.5" stroke-linecap="round"/>
<path d="M4 7.5235C4.5 1.71103 12.0107 1.83601 12.5 7.5235C12.9893 13.211 20.5 13.211 21 7.5235" stroke="white" stroke-width="0.5" stroke-linecap="round"/>
<rect x="27.625" y="584.5" width="3.5" height="5.5" fill="white"/>
<rect x="31.625" y="584.5" width="3.5" height="3" fill="white"/>
<rect x="43.625" y="584.5" width="3.5" height="4" fill="white"/>
<rect x="35.625" y="579.5" width="3.5" height="5" fill="white"/>
<rect x="39.625" y="582" width="3.5" height="2.5" fill="white"/>
</svg>
