<svg width="50" height="117" viewBox="0 0 50 117" fill="none" xmlns="http://www.w3.org/2000/svg">
<g clip-path="url(#clip0_206_39706)">
<rect width="50" height="13" fill="white" fill-opacity="0.2"/>
<path d="M12.7931 4.23405V6.23805H15.1491V6.87005H12.7931V9.33405H12.0171V3.60205H15.5491V4.23405H12.7931Z" fill="white"/>
<path d="M16.7048 6.09405C16.8328 5.81672 16.9901 5.60072 17.1768 5.44605C17.3634 5.28872 17.5914 5.21005 17.8608 5.21005C17.9461 5.21005 18.0274 5.21938 18.1048 5.23805C18.1848 5.25672 18.2554 5.28605 18.3168 5.32605L18.2648 5.85805C18.2488 5.92472 18.2088 5.95805 18.1448 5.95805C18.1074 5.95805 18.0528 5.95005 17.9808 5.93405C17.9088 5.91805 17.8274 5.91005 17.7368 5.91005C17.6088 5.91005 17.4941 5.92872 17.3928 5.96605C17.2941 6.00338 17.2048 6.05938 17.1248 6.13405C17.0474 6.20605 16.9768 6.29672 16.9128 6.40605C16.8514 6.51272 16.7954 6.63538 16.7448 6.77405V9.33405H16.0288V5.28205H16.4368C16.5141 5.28205 16.5674 5.29672 16.5968 5.32605C16.6261 5.35538 16.6461 5.40605 16.6568 5.47805L16.7048 6.09405Z" fill="white"/>
<path d="M21.4908 6.86605C21.4908 6.70072 21.4668 6.55005 21.4188 6.41405C21.3734 6.27538 21.3054 6.15672 21.2148 6.05805C21.1268 5.95672 21.0188 5.87938 20.8908 5.82605C20.7628 5.77005 20.6174 5.74205 20.4548 5.74205C20.1134 5.74205 19.8428 5.84205 19.6428 6.04205C19.4454 6.23938 19.3228 6.51405 19.2748 6.86605H21.4908ZM22.0668 8.76605C21.9788 8.87272 21.8734 8.96605 21.7508 9.04605C21.6281 9.12338 21.4961 9.18738 21.3548 9.23805C21.2161 9.28872 21.0721 9.32605 20.9228 9.35005C20.7734 9.37672 20.6254 9.39005 20.4788 9.39005C20.1988 9.39005 19.9401 9.34338 19.7028 9.25005C19.4681 9.15405 19.2641 9.01538 19.0908 8.83405C18.9201 8.65005 18.7868 8.42338 18.6908 8.15405C18.5948 7.88472 18.5468 7.57538 18.5468 7.22605C18.5468 6.94338 18.5894 6.67938 18.6748 6.43405C18.7628 6.18872 18.8881 5.97672 19.0508 5.79805C19.2134 5.61672 19.4121 5.47538 19.6468 5.37405C19.8814 5.27005 20.1454 5.21805 20.4388 5.21805C20.6814 5.21805 20.9054 5.25938 21.1108 5.34205C21.3188 5.42205 21.4974 5.53938 21.6468 5.69405C21.7988 5.84605 21.9174 6.03538 22.0028 6.26205C22.0881 6.48605 22.1308 6.74205 22.1308 7.03005C22.1308 7.14205 22.1188 7.21672 22.0948 7.25405C22.0708 7.29138 22.0254 7.31005 21.9588 7.31005H19.2508C19.2588 7.56605 19.2934 7.78872 19.3548 7.97805C19.4188 8.16738 19.5068 8.32605 19.6188 8.45405C19.7308 8.57938 19.8641 8.67405 20.0188 8.73805C20.1734 8.79938 20.3468 8.83005 20.5388 8.83005C20.7174 8.83005 20.8708 8.81005 20.9988 8.77005C21.1294 8.72738 21.2414 8.68205 21.3348 8.63405C21.4281 8.58605 21.5054 8.54205 21.5668 8.50205C21.6308 8.45938 21.6854 8.43805 21.7308 8.43805C21.7894 8.43805 21.8348 8.46072 21.8668 8.50605L22.0668 8.76605Z" fill="white"/>
<path d="M25.7173 6.86605C25.7173 6.70072 25.6933 6.55005 25.6453 6.41405C25.6 6.27538 25.532 6.15672 25.4413 6.05805C25.3533 5.95672 25.2453 5.87938 25.1173 5.82605C24.9893 5.77005 24.844 5.74205 24.6813 5.74205C24.34 5.74205 24.0693 5.84205 23.8693 6.04205C23.672 6.23938 23.5493 6.51405 23.5013 6.86605H25.7173ZM26.2933 8.76605C26.2053 8.87272 26.1 8.96605 25.9773 9.04605C25.8547 9.12338 25.7227 9.18738 25.5813 9.23805C25.4427 9.28872 25.2987 9.32605 25.1493 9.35005C25 9.37672 24.852 9.39005 24.7053 9.39005C24.4253 9.39005 24.1667 9.34338 23.9293 9.25005C23.6947 9.15405 23.4907 9.01538 23.3173 8.83405C23.1467 8.65005 23.0133 8.42338 22.9173 8.15405C22.8213 7.88472 22.7733 7.57538 22.7733 7.22605C22.7733 6.94338 22.816 6.67938 22.9013 6.43405C22.9893 6.18872 23.1147 5.97672 23.2773 5.79805C23.44 5.61672 23.6387 5.47538 23.8733 5.37405C24.108 5.27005 24.372 5.21805 24.6653 5.21805C24.908 5.21805 25.132 5.25938 25.3373 5.34205C25.5453 5.42205 25.724 5.53938 25.8733 5.69405C26.0253 5.84605 26.144 6.03538 26.2293 6.26205C26.3147 6.48605 26.3573 6.74205 26.3573 7.03005C26.3573 7.14205 26.3453 7.21672 26.3213 7.25405C26.2973 7.29138 26.252 7.31005 26.1853 7.31005H23.4773C23.4853 7.56605 23.52 7.78872 23.5813 7.97805C23.6453 8.16738 23.7333 8.32605 23.8453 8.45405C23.9573 8.57938 24.0907 8.67405 24.2453 8.73805C24.4 8.79938 24.5733 8.83005 24.7653 8.83005C24.944 8.83005 25.0973 8.81005 25.2253 8.77005C25.356 8.72738 25.468 8.68205 25.5613 8.63405C25.6547 8.58605 25.732 8.54205 25.7933 8.50205C25.8573 8.45938 25.912 8.43805 25.9573 8.43805C26.016 8.43805 26.0613 8.46072 26.0933 8.50605L26.2933 8.76605Z" fill="white"/>
<path d="M27.9079 6.09405C28.0359 5.81672 28.1932 5.60072 28.3799 5.44605C28.5666 5.28872 28.7946 5.21005 29.0639 5.21005C29.1492 5.21005 29.2306 5.21938 29.3079 5.23805C29.3879 5.25672 29.4586 5.28605 29.5199 5.32605L29.4679 5.85805C29.4519 5.92472 29.4119 5.95805 29.3479 5.95805C29.3106 5.95805 29.2559 5.95005 29.1839 5.93405C29.1119 5.91805 29.0306 5.91005 28.9399 5.91005C28.8119 5.91005 28.6972 5.92872 28.5959 5.96605C28.4972 6.00338 28.4079 6.05938 28.3279 6.13405C28.2506 6.20605 28.1799 6.29672 28.1159 6.40605C28.0546 6.51272 27.9986 6.63538 27.9479 6.77405V9.33405H27.2319V5.28205H27.6399C27.7172 5.28205 27.7706 5.29672 27.7999 5.32605C27.8292 5.35538 27.8492 5.40605 27.8599 5.47805L27.9079 6.09405Z" fill="white"/>
<path d="M33.478 5.28205V9.33405H33.054C32.9526 9.33405 32.8886 9.28472 32.862 9.18605L32.806 8.75005C32.63 8.94472 32.4326 9.10205 32.214 9.22205C31.9953 9.33938 31.7446 9.39805 31.462 9.39805C31.2406 9.39805 31.0446 9.36205 30.874 9.29005C30.706 9.21538 30.5646 9.11138 30.45 8.97805C30.3353 8.84472 30.2486 8.68338 30.19 8.49405C30.134 8.30472 30.106 8.09538 30.106 7.86605V5.28205H30.818V7.86605C30.818 8.17272 30.8873 8.41005 31.026 8.57805C31.1673 8.74605 31.382 8.83005 31.67 8.83005C31.8806 8.83005 32.0766 8.78072 32.258 8.68205C32.442 8.58072 32.6113 8.44205 32.766 8.26605V5.28205H33.478Z" fill="white"/>
<path d="M35.2789 5.87005C35.3669 5.77138 35.4602 5.68205 35.5589 5.60205C35.6576 5.52205 35.7616 5.45405 35.8709 5.39805C35.9829 5.33938 36.1002 5.29538 36.2229 5.26605C36.3482 5.23405 36.4829 5.21805 36.6269 5.21805C36.8482 5.21805 37.0429 5.25538 37.2109 5.33005C37.3816 5.40205 37.5229 5.50605 37.6349 5.64205C37.7496 5.77538 37.8362 5.93672 37.8949 6.12605C37.9536 6.31538 37.9829 6.52472 37.9829 6.75405V9.33405H37.2669V6.75405C37.2669 6.44738 37.1962 6.21005 37.0549 6.04205C36.9162 5.87138 36.7042 5.78605 36.4189 5.78605C36.2082 5.78605 36.0109 5.83672 35.8269 5.93805C35.6456 6.03938 35.4776 6.17672 35.3229 6.35005V9.33405H34.6069V5.28205H35.0349C35.1362 5.28205 35.1989 5.33138 35.2229 5.43005L35.2789 5.87005Z" fill="white"/>
<rect y="52" width="50" height="13" fill="white" fill-opacity="0.2"/>
<path d="M8.00882 58.216H8.30082C8.40215 58.216 8.48348 58.204 8.54482 58.18C8.60615 58.1533 8.66215 58.1093 8.71282 58.048L10.6208 55.888C10.6741 55.8186 10.7301 55.7706 10.7888 55.744C10.8475 55.7173 10.9195 55.704 11.0048 55.704H11.6608L9.47682 58.172C9.42348 58.236 9.37148 58.2893 9.32082 58.332C9.27282 58.372 9.22082 58.4053 9.16482 58.432C9.23682 58.456 9.30215 58.492 9.36082 58.54C9.41948 58.5853 9.47682 58.6453 9.53282 58.72L11.8128 61.436H11.1408C11.0901 61.436 11.0461 61.4333 11.0088 61.428C10.9741 61.42 10.9435 61.4093 10.9168 61.396C10.8901 61.38 10.8661 61.3626 10.8448 61.344C10.8261 61.3226 10.8075 61.2986 10.7888 61.272L8.81282 58.996C8.75948 58.9293 8.70215 58.8826 8.64082 58.856C8.57948 58.8266 8.48615 58.812 8.36082 58.812H8.00882V61.436H7.23682V55.704H8.00882V58.216Z" fill="white"/>
<path d="M14.773 58.968C14.773 58.8026 14.749 58.652 14.701 58.516C14.6557 58.3773 14.5877 58.2586 14.497 58.16C14.409 58.0586 14.301 57.9813 14.173 57.928C14.045 57.872 13.8997 57.844 13.737 57.844C13.3957 57.844 13.125 57.944 12.925 58.144C12.7277 58.3413 12.605 58.616 12.557 58.968H14.773ZM15.349 60.868C15.261 60.9746 15.1557 61.068 15.033 61.148C14.9103 61.2253 14.7783 61.2893 14.637 61.34C14.4983 61.3906 14.3543 61.428 14.205 61.452C14.0557 61.4786 13.9077 61.492 13.761 61.492C13.481 61.492 13.2223 61.4453 12.985 61.352C12.7503 61.256 12.5463 61.1173 12.373 60.936C12.2023 60.752 12.069 60.5253 11.973 60.256C11.877 59.9866 11.829 59.6773 11.829 59.328C11.829 59.0453 11.8717 58.7813 11.957 58.536C12.045 58.2906 12.1703 58.0786 12.333 57.9C12.4957 57.7186 12.6943 57.5773 12.929 57.476C13.1637 57.372 13.4277 57.32 13.721 57.32C13.9637 57.32 14.1877 57.3613 14.393 57.444C14.601 57.524 14.7797 57.6413 14.929 57.796C15.081 57.948 15.1997 58.1373 15.285 58.364C15.3703 58.588 15.413 58.844 15.413 59.132C15.413 59.244 15.401 59.3186 15.377 59.356C15.353 59.3933 15.3077 59.412 15.241 59.412H12.533C12.541 59.668 12.5757 59.8906 12.637 60.08C12.701 60.2693 12.789 60.428 12.901 60.556C13.013 60.6813 13.1463 60.776 13.301 60.84C13.4557 60.9013 13.629 60.932 13.821 60.932C13.9997 60.932 14.153 60.912 14.281 60.872C14.4117 60.8293 14.5237 60.784 14.617 60.736C14.7103 60.688 14.7877 60.644 14.849 60.604C14.913 60.5613 14.9677 60.54 15.013 60.54C15.0717 60.54 15.117 60.5626 15.149 60.608L15.349 60.868Z" fill="white"/>
<path d="M19.682 57.384L17.422 62.632C17.398 62.6853 17.3673 62.728 17.33 62.76C17.2953 62.792 17.2407 62.808 17.166 62.808H16.638L17.378 61.2L15.706 57.384H16.322C16.3833 57.384 16.4313 57.4 16.466 57.432C16.5033 57.4613 16.5287 57.4946 16.542 57.532L17.626 60.084C17.6687 60.196 17.7047 60.3133 17.734 60.436C17.7713 60.3106 17.8113 60.192 17.854 60.08L18.906 57.532C18.922 57.4893 18.9487 57.4546 18.986 57.428C19.026 57.3986 19.07 57.384 19.118 57.384H19.682Z" fill="white"/>
<path d="M21.555 61.5C21.235 61.5 20.9883 61.4106 20.815 61.232C20.6443 61.0533 20.559 60.796 20.559 60.46V57.98H20.071C20.0283 57.98 19.9923 57.968 19.963 57.944C19.9337 57.9173 19.919 57.8773 19.919 57.824V57.54L20.583 57.456L20.747 56.204C20.755 56.164 20.7723 56.132 20.799 56.108C20.8283 56.0813 20.8657 56.068 20.911 56.068H21.271V57.464H22.443V57.98H21.271V60.412C21.271 60.5826 21.3123 60.7093 21.395 60.792C21.4777 60.8746 21.5843 60.916 21.715 60.916C21.7897 60.916 21.8537 60.9066 21.907 60.888C21.963 60.8666 22.011 60.844 22.051 60.82C22.091 60.796 22.1243 60.7746 22.151 60.756C22.1803 60.7346 22.2057 60.724 22.227 60.724C22.2643 60.724 22.2977 60.7466 22.327 60.792L22.535 61.132C22.4123 61.2466 22.2643 61.3373 22.091 61.404C21.9177 61.468 21.739 61.5 21.555 61.5Z" fill="white"/>
<path d="M23.8542 58.196C23.9822 57.9186 24.1395 57.7026 24.3262 57.548C24.5129 57.3906 24.7409 57.312 25.0102 57.312C25.0955 57.312 25.1769 57.3213 25.2542 57.34C25.3342 57.3586 25.4049 57.388 25.4662 57.428L25.4142 57.96C25.3982 58.0266 25.3582 58.06 25.2942 58.06C25.2569 58.06 25.2022 58.052 25.1302 58.036C25.0582 58.02 24.9769 58.012 24.8862 58.012C24.7582 58.012 24.6435 58.0306 24.5422 58.068C24.4435 58.1053 24.3542 58.1613 24.2742 58.236C24.1969 58.308 24.1262 58.3986 24.0622 58.508C24.0009 58.6146 23.9449 58.7373 23.8942 58.876V61.436H23.1782V57.384H23.5862C23.6635 57.384 23.7169 57.3986 23.7462 57.428C23.7755 57.4573 23.7955 57.508 23.8062 57.58L23.8542 58.196Z" fill="white"/>
<path d="M26.8443 57.384V61.436H26.1323V57.384H26.8443ZM26.9963 56.112C26.9963 56.1813 26.9816 56.2466 26.9523 56.308C26.9256 56.3666 26.8883 56.42 26.8403 56.468C26.7949 56.5133 26.7403 56.5493 26.6763 56.576C26.6149 56.6026 26.5496 56.616 26.4803 56.616C26.4109 56.616 26.3456 56.6026 26.2843 56.576C26.2256 56.5493 26.1736 56.5133 26.1283 56.468C26.0829 56.42 26.0469 56.3666 26.0203 56.308C25.9936 56.2466 25.9803 56.1813 25.9803 56.112C25.9803 56.0426 25.9936 55.9773 26.0203 55.916C26.0469 55.852 26.0829 55.7973 26.1283 55.752C26.1736 55.704 26.2256 55.6666 26.2843 55.64C26.3456 55.6133 26.4109 55.6 26.4803 55.6C26.5496 55.6 26.6149 55.6133 26.6763 55.64C26.7403 55.6666 26.7949 55.704 26.8403 55.752C26.8883 55.7973 26.9256 55.852 26.9523 55.916C26.9816 55.9773 26.9963 56.0426 26.9963 56.112Z" fill="white"/>
<path d="M29.4261 59.456C29.5701 59.456 29.6968 59.436 29.8061 59.396C29.9155 59.356 30.0075 59.3 30.0821 59.228C30.1568 59.156 30.2128 59.0706 30.2501 58.972C30.2875 58.8706 30.3061 58.76 30.3061 58.64C30.3061 58.392 30.2301 58.1946 30.0781 58.048C29.9288 57.9013 29.7115 57.828 29.4261 57.828C29.1381 57.828 28.9181 57.9013 28.7661 58.048C28.6168 58.1946 28.5421 58.392 28.5421 58.64C28.5421 58.76 28.5608 58.8706 28.5981 58.972C28.6381 59.0706 28.6955 59.156 28.7701 59.228C28.8448 59.3 28.9368 59.356 29.0461 59.396C29.1555 59.436 29.2821 59.456 29.4261 59.456ZM30.7101 61.656C30.7101 61.5573 30.6821 61.4773 30.6261 61.416C30.5701 61.3546 30.4941 61.3066 30.3981 61.272C30.3048 61.2373 30.1955 61.2133 30.0701 61.2C29.9448 61.184 29.8115 61.172 29.6701 61.164C29.5315 61.156 29.3901 61.148 29.2461 61.14C29.1021 61.132 28.9635 61.1186 28.8301 61.1C28.6808 61.1693 28.5581 61.2573 28.4621 61.364C28.3688 61.468 28.3221 61.5906 28.3221 61.732C28.3221 61.8226 28.3448 61.9066 28.3901 61.984C28.4381 62.064 28.5101 62.132 28.6061 62.188C28.7021 62.2466 28.8221 62.292 28.9661 62.324C29.1128 62.3586 29.2848 62.376 29.4821 62.376C29.6741 62.376 29.8461 62.3586 29.9981 62.324C30.1501 62.2893 30.2781 62.24 30.3821 62.176C30.4888 62.112 30.5701 62.036 30.6261 61.948C30.6821 61.86 30.7101 61.7626 30.7101 61.656ZM31.4341 57.544V57.808C31.4341 57.896 31.3781 57.952 31.2661 57.976L30.8061 58.036C30.8968 58.212 30.9421 58.4066 30.9421 58.62C30.9421 58.8173 30.9035 58.9973 30.8261 59.16C30.7515 59.32 30.6475 59.4573 30.5141 59.572C30.3808 59.6866 30.2208 59.7746 30.0341 59.836C29.8475 59.8973 29.6448 59.928 29.4261 59.928C29.2368 59.928 29.0581 59.9053 28.8901 59.86C28.8048 59.9133 28.7395 59.9706 28.6941 60.032C28.6488 60.0906 28.6261 60.1506 28.6261 60.212C28.6261 60.308 28.6648 60.3813 28.7421 60.432C28.8221 60.48 28.9261 60.5146 29.0541 60.536C29.1821 60.5573 29.3275 60.5706 29.4901 60.576C29.6555 60.5813 29.8235 60.5906 29.9941 60.604C30.1675 60.6146 30.3355 60.6346 30.4981 60.664C30.6635 60.6933 30.8101 60.7413 30.9381 60.808C31.0661 60.8746 31.1688 60.9666 31.2461 61.084C31.3261 61.2013 31.3661 61.3533 31.3661 61.54C31.3661 61.7133 31.3221 61.8813 31.2341 62.044C31.1488 62.2066 31.0248 62.3506 30.8621 62.476C30.6995 62.604 30.4995 62.7053 30.2621 62.78C30.0275 62.8573 29.7621 62.896 29.4661 62.896C29.1701 62.896 28.9115 62.8666 28.6901 62.808C28.4688 62.7493 28.2848 62.6706 28.1381 62.572C27.9915 62.4733 27.8808 62.3586 27.8061 62.228C27.7341 62.1 27.6981 61.9653 27.6981 61.824C27.6981 61.624 27.7608 61.4546 27.8861 61.316C28.0115 61.1773 28.1835 61.0666 28.4021 60.984C28.2821 60.9306 28.1861 60.86 28.1141 60.772C28.0448 60.6813 28.0101 60.56 28.0101 60.408C28.0101 60.3493 28.0208 60.2893 28.0421 60.228C28.0635 60.164 28.0955 60.1013 28.1381 60.04C28.1835 59.976 28.2381 59.916 28.3021 59.86C28.3661 59.804 28.4408 59.7546 28.5261 59.712C28.3261 59.6 28.1701 59.452 28.0581 59.268C27.9461 59.0813 27.8901 58.8653 27.8901 58.62C27.8901 58.4226 27.9275 58.244 28.0021 58.084C28.0795 57.9213 28.1861 57.784 28.3221 57.672C28.4581 57.5573 28.6195 57.4693 28.8061 57.408C28.9955 57.3466 29.2021 57.316 29.4261 57.316C29.6021 57.316 29.7661 57.336 29.9181 57.376C30.0701 57.4133 30.2088 57.4693 30.3341 57.544H31.4341Z" fill="white"/>
<path d="M33.5668 59.456C33.7108 59.456 33.8374 59.436 33.9468 59.396C34.0561 59.356 34.1481 59.3 34.2228 59.228C34.2974 59.156 34.3534 59.0706 34.3908 58.972C34.4281 58.8706 34.4468 58.76 34.4468 58.64C34.4468 58.392 34.3708 58.1946 34.2188 58.048C34.0694 57.9013 33.8521 57.828 33.5668 57.828C33.2788 57.828 33.0588 57.9013 32.9068 58.048C32.7574 58.1946 32.6828 58.392 32.6828 58.64C32.6828 58.76 32.7014 58.8706 32.7388 58.972C32.7788 59.0706 32.8361 59.156 32.9108 59.228C32.9854 59.3 33.0774 59.356 33.1868 59.396C33.2961 59.436 33.4228 59.456 33.5668 59.456ZM34.8508 61.656C34.8508 61.5573 34.8228 61.4773 34.7668 61.416C34.7108 61.3546 34.6348 61.3066 34.5388 61.272C34.4454 61.2373 34.3361 61.2133 34.2108 61.2C34.0854 61.184 33.9521 61.172 33.8108 61.164C33.6721 61.156 33.5308 61.148 33.3868 61.14C33.2428 61.132 33.1041 61.1186 32.9708 61.1C32.8214 61.1693 32.6988 61.2573 32.6028 61.364C32.5094 61.468 32.4628 61.5906 32.4628 61.732C32.4628 61.8226 32.4854 61.9066 32.5308 61.984C32.5788 62.064 32.6508 62.132 32.7468 62.188C32.8428 62.2466 32.9628 62.292 33.1068 62.324C33.2534 62.3586 33.4254 62.376 33.6228 62.376C33.8148 62.376 33.9868 62.3586 34.1388 62.324C34.2908 62.2893 34.4188 62.24 34.5228 62.176C34.6294 62.112 34.7108 62.036 34.7668 61.948C34.8228 61.86 34.8508 61.7626 34.8508 61.656ZM35.5748 57.544V57.808C35.5748 57.896 35.5188 57.952 35.4068 57.976L34.9468 58.036C35.0374 58.212 35.0828 58.4066 35.0828 58.62C35.0828 58.8173 35.0441 58.9973 34.9668 59.16C34.8921 59.32 34.7881 59.4573 34.6548 59.572C34.5214 59.6866 34.3614 59.7746 34.1748 59.836C33.9881 59.8973 33.7854 59.928 33.5668 59.928C33.3774 59.928 33.1988 59.9053 33.0308 59.86C32.9454 59.9133 32.8801 59.9706 32.8348 60.032C32.7894 60.0906 32.7668 60.1506 32.7668 60.212C32.7668 60.308 32.8054 60.3813 32.8828 60.432C32.9628 60.48 33.0668 60.5146 33.1948 60.536C33.3228 60.5573 33.4681 60.5706 33.6308 60.576C33.7961 60.5813 33.9641 60.5906 34.1348 60.604C34.3081 60.6146 34.4761 60.6346 34.6388 60.664C34.8041 60.6933 34.9508 60.7413 35.0788 60.808C35.2068 60.8746 35.3094 60.9666 35.3868 61.084C35.4668 61.2013 35.5068 61.3533 35.5068 61.54C35.5068 61.7133 35.4628 61.8813 35.3748 62.044C35.2894 62.2066 35.1654 62.3506 35.0028 62.476C34.8401 62.604 34.6401 62.7053 34.4028 62.78C34.1681 62.8573 33.9028 62.896 33.6068 62.896C33.3108 62.896 33.0521 62.8666 32.8308 62.808C32.6094 62.7493 32.4254 62.6706 32.2788 62.572C32.1321 62.4733 32.0214 62.3586 31.9468 62.228C31.8748 62.1 31.8388 61.9653 31.8388 61.824C31.8388 61.624 31.9014 61.4546 32.0268 61.316C32.1521 61.1773 32.3241 61.0666 32.5428 60.984C32.4228 60.9306 32.3268 60.86 32.2548 60.772C32.1854 60.6813 32.1508 60.56 32.1508 60.408C32.1508 60.3493 32.1614 60.2893 32.1828 60.228C32.2041 60.164 32.2361 60.1013 32.2788 60.04C32.3241 59.976 32.3788 59.916 32.4428 59.86C32.5068 59.804 32.5814 59.7546 32.6668 59.712C32.4668 59.6 32.3108 59.452 32.1988 59.268C32.0868 59.0813 32.0308 58.8653 32.0308 58.62C32.0308 58.4226 32.0681 58.244 32.1428 58.084C32.2201 57.9213 32.3268 57.784 32.4628 57.672C32.5988 57.5573 32.7601 57.4693 32.9468 57.408C33.1361 57.3466 33.3428 57.316 33.5668 57.316C33.7428 57.316 33.9068 57.336 34.0588 57.376C34.2108 57.4133 34.3494 57.4693 34.4748 57.544H35.5748Z" fill="white"/>
<path d="M38.9605 58.968C38.9605 58.8026 38.9365 58.652 38.8885 58.516C38.8432 58.3773 38.7752 58.2586 38.6845 58.16C38.5965 58.0586 38.4885 57.9813 38.3605 57.928C38.2325 57.872 38.0872 57.844 37.9245 57.844C37.5832 57.844 37.3125 57.944 37.1125 58.144C36.9152 58.3413 36.7925 58.616 36.7445 58.968H38.9605ZM39.5365 60.868C39.4485 60.9746 39.3432 61.068 39.2205 61.148C39.0978 61.2253 38.9658 61.2893 38.8245 61.34C38.6858 61.3906 38.5418 61.428 38.3925 61.452C38.2432 61.4786 38.0952 61.492 37.9485 61.492C37.6685 61.492 37.4098 61.4453 37.1725 61.352C36.9378 61.256 36.7338 61.1173 36.5605 60.936C36.3898 60.752 36.2565 60.5253 36.1605 60.256C36.0645 59.9866 36.0165 59.6773 36.0165 59.328C36.0165 59.0453 36.0592 58.7813 36.1445 58.536C36.2325 58.2906 36.3578 58.0786 36.5205 57.9C36.6832 57.7186 36.8818 57.5773 37.1165 57.476C37.3512 57.372 37.6152 57.32 37.9085 57.32C38.1512 57.32 38.3752 57.3613 38.5805 57.444C38.7885 57.524 38.9672 57.6413 39.1165 57.796C39.2685 57.948 39.3872 58.1373 39.4725 58.364C39.5578 58.588 39.6005 58.844 39.6005 59.132C39.6005 59.244 39.5885 59.3186 39.5645 59.356C39.5405 59.3933 39.4952 59.412 39.4285 59.412H36.7205C36.7285 59.668 36.7632 59.8906 36.8245 60.08C36.8885 60.2693 36.9765 60.428 37.0885 60.556C37.2005 60.6813 37.3338 60.776 37.4885 60.84C37.6432 60.9013 37.8165 60.932 38.0085 60.932C38.1872 60.932 38.3405 60.912 38.4685 60.872C38.5992 60.8293 38.7112 60.784 38.8045 60.736C38.8978 60.688 38.9752 60.644 39.0365 60.604C39.1005 60.5613 39.1552 60.54 39.2005 60.54C39.2592 60.54 39.3045 60.5626 39.3365 60.608L39.5365 60.868Z" fill="white"/>
<path d="M41.1511 58.196C41.2791 57.9186 41.4364 57.7026 41.6231 57.548C41.8097 57.3906 42.0377 57.312 42.3071 57.312C42.3924 57.312 42.4737 57.3213 42.5511 57.34C42.6311 57.3586 42.7017 57.388 42.7631 57.428L42.7111 57.96C42.6951 58.0266 42.6551 58.06 42.5911 58.06C42.5537 58.06 42.4991 58.052 42.4271 58.036C42.3551 58.02 42.2737 58.012 42.1831 58.012C42.0551 58.012 41.9404 58.0306 41.8391 58.068C41.7404 58.1053 41.6511 58.1613 41.5711 58.236C41.4937 58.308 41.4231 58.3986 41.3591 58.508C41.2977 58.6146 41.2417 58.7373 41.1911 58.876V61.436H40.4751V57.384H40.8831C40.9604 57.384 41.0137 57.3986 41.0431 57.428C41.0724 57.4573 41.0924 57.508 41.1031 57.58L41.1511 58.196Z" fill="white"/>
<rect y="104" width="50" height="13" fill="white" fill-opacity="0.2"/>
<path d="M12.7208 110.536C12.9448 110.536 13.1421 110.509 13.3128 110.456C13.4861 110.4 13.6301 110.323 13.7448 110.224C13.8621 110.123 13.9501 110.003 14.0088 109.864C14.0675 109.725 14.0968 109.572 14.0968 109.404C14.0968 109.063 13.9848 108.805 13.7608 108.632C13.5368 108.459 13.2008 108.372 12.7528 108.372H11.9048V110.536H12.7208ZM15.3688 113.492H14.6808C14.5395 113.492 14.4355 113.437 14.3688 113.328L12.8808 111.28C12.8355 111.216 12.7861 111.171 12.7328 111.144C12.6821 111.115 12.6021 111.1 12.4928 111.1H11.9048V113.492H11.1328V107.76H12.7528C13.1155 107.76 13.4288 107.797 13.6928 107.872C13.9568 107.944 14.1741 108.049 14.3448 108.188C14.5181 108.327 14.6461 108.495 14.7288 108.692C14.8115 108.887 14.8528 109.105 14.8528 109.348C14.8528 109.551 14.8208 109.74 14.7568 109.916C14.6928 110.092 14.5995 110.251 14.4768 110.392C14.3568 110.531 14.2088 110.649 14.0328 110.748C13.8595 110.847 13.6621 110.921 13.4408 110.972C13.5395 111.028 13.6248 111.109 13.6968 111.216L15.3688 113.492Z" fill="white"/>
<path d="M18.1139 111.668C17.7859 111.679 17.5059 111.705 17.2739 111.748C17.0446 111.788 16.8566 111.841 16.7099 111.908C16.5659 111.975 16.4606 112.053 16.3939 112.144C16.3299 112.235 16.2979 112.336 16.2979 112.448C16.2979 112.555 16.3153 112.647 16.3499 112.724C16.3846 112.801 16.4313 112.865 16.4899 112.916C16.5513 112.964 16.6219 113 16.7019 113.024C16.7846 113.045 16.8726 113.056 16.9659 113.056C17.0913 113.056 17.2059 113.044 17.3099 113.02C17.4139 112.993 17.5113 112.956 17.6019 112.908C17.6953 112.86 17.7833 112.803 17.8659 112.736C17.9513 112.669 18.0339 112.593 18.1139 112.508V111.668ZM15.8139 110.012C16.0379 109.796 16.2793 109.635 16.5379 109.528C16.7966 109.421 17.0833 109.368 17.3979 109.368C17.6246 109.368 17.8259 109.405 18.0019 109.48C18.1779 109.555 18.3259 109.659 18.4459 109.792C18.5659 109.925 18.6566 110.087 18.7179 110.276C18.7793 110.465 18.8099 110.673 18.8099 110.9V113.492H18.4939C18.4246 113.492 18.3713 113.481 18.3339 113.46C18.2966 113.436 18.2673 113.391 18.2459 113.324L18.1659 112.94C18.0593 113.039 17.9553 113.127 17.8539 113.204C17.7526 113.279 17.6459 113.343 17.5339 113.396C17.4219 113.447 17.3019 113.485 17.1739 113.512C17.0486 113.541 16.9086 113.556 16.7539 113.556C16.5966 113.556 16.4486 113.535 16.3099 113.492C16.1713 113.447 16.0499 113.38 15.9459 113.292C15.8446 113.204 15.7633 113.093 15.7019 112.96C15.6433 112.824 15.6139 112.664 15.6139 112.48C15.6139 112.32 15.6579 112.167 15.7459 112.02C15.8339 111.871 15.9766 111.739 16.1739 111.624C16.3713 111.509 16.6286 111.416 16.9459 111.344C17.2633 111.269 17.6526 111.227 18.1139 111.216V110.9C18.1139 110.585 18.0459 110.348 17.9099 110.188C17.7739 110.025 17.5753 109.944 17.3139 109.944C17.1379 109.944 16.9899 109.967 16.8699 110.012C16.7526 110.055 16.6499 110.104 16.5619 110.16C16.4766 110.213 16.4019 110.263 16.3379 110.308C16.2766 110.351 16.2153 110.372 16.1539 110.372C16.1059 110.372 16.0646 110.36 16.0299 110.336C15.9953 110.309 15.9659 110.277 15.9419 110.24L15.8139 110.012Z" fill="white"/>
<path d="M20.5665 110.028C20.6545 109.929 20.7478 109.84 20.8465 109.76C20.9452 109.68 21.0492 109.612 21.1585 109.556C21.2705 109.497 21.3878 109.453 21.5105 109.424C21.6358 109.392 21.7705 109.376 21.9145 109.376C22.1358 109.376 22.3305 109.413 22.4985 109.488C22.6692 109.56 22.8105 109.664 22.9225 109.8C23.0372 109.933 23.1238 110.095 23.1825 110.284C23.2412 110.473 23.2705 110.683 23.2705 110.912V113.492H22.5545V110.912C22.5545 110.605 22.4838 110.368 22.3425 110.2C22.2038 110.029 21.9918 109.944 21.7065 109.944C21.4958 109.944 21.2985 109.995 21.1145 110.096C20.9332 110.197 20.7652 110.335 20.6105 110.508V113.492H19.8945V109.44H20.3225C20.4238 109.44 20.4865 109.489 20.5105 109.588L20.5665 110.028Z" fill="white"/>
<path d="M26.9954 110.404C26.8621 110.225 26.7181 110.101 26.5634 110.032C26.4088 109.96 26.2354 109.924 26.0434 109.924C25.6674 109.924 25.3781 110.059 25.1754 110.328C24.9728 110.597 24.8714 110.981 24.8714 111.48C24.8714 111.744 24.8941 111.971 24.9394 112.16C24.9848 112.347 25.0514 112.501 25.1394 112.624C25.2274 112.744 25.3354 112.832 25.4634 112.888C25.5914 112.944 25.7368 112.972 25.8994 112.972C26.1341 112.972 26.3381 112.919 26.5114 112.812C26.6874 112.705 26.8488 112.555 26.9954 112.36V110.404ZM27.7074 107.6V113.492H27.2834C27.1821 113.492 27.1181 113.443 27.0914 113.344L27.0274 112.852C26.8541 113.06 26.6568 113.228 26.4354 113.356C26.2141 113.484 25.9581 113.548 25.6674 113.548C25.4354 113.548 25.2248 113.504 25.0354 113.416C24.8461 113.325 24.6848 113.193 24.5514 113.02C24.4181 112.847 24.3154 112.631 24.2434 112.372C24.1714 112.113 24.1354 111.816 24.1354 111.48C24.1354 111.181 24.1754 110.904 24.2554 110.648C24.3354 110.389 24.4501 110.165 24.5994 109.976C24.7488 109.787 24.9314 109.639 25.1474 109.532C25.3661 109.423 25.6114 109.368 25.8834 109.368C26.1314 109.368 26.3434 109.411 26.5194 109.496C26.6981 109.579 26.8568 109.695 26.9954 109.844V107.6H27.7074Z" fill="white"/>
<path d="M30.54 109.376C30.836 109.376 31.1027 109.425 31.34 109.524C31.5773 109.623 31.78 109.763 31.948 109.944C32.116 110.125 32.244 110.345 32.332 110.604C32.4227 110.86 32.468 111.147 32.468 111.464C32.468 111.784 32.4227 112.072 32.332 112.328C32.244 112.584 32.116 112.803 31.948 112.984C31.78 113.165 31.5773 113.305 31.34 113.404C31.1027 113.5 30.836 113.548 30.54 113.548C30.2413 113.548 29.972 113.5 29.732 113.404C29.4947 113.305 29.292 113.165 29.124 112.984C28.956 112.803 28.8267 112.584 28.736 112.328C28.648 112.072 28.604 111.784 28.604 111.464C28.604 111.147 28.648 110.86 28.736 110.604C28.8267 110.345 28.956 110.125 29.124 109.944C29.292 109.763 29.4947 109.623 29.732 109.524C29.972 109.425 30.2413 109.376 30.54 109.376ZM30.54 112.992C30.94 112.992 31.2387 112.859 31.436 112.592C31.6333 112.323 31.732 111.948 31.732 111.468C31.732 110.985 31.6333 110.609 31.436 110.34C31.2387 110.071 30.94 109.936 30.54 109.936C30.3373 109.936 30.16 109.971 30.008 110.04C29.8587 110.109 29.7333 110.209 29.632 110.34C29.5333 110.471 29.4587 110.632 29.408 110.824C29.36 111.013 29.336 111.228 29.336 111.468C29.336 111.948 29.4347 112.323 29.632 112.592C29.832 112.859 30.1347 112.992 30.54 112.992Z" fill="white"/>
<path d="M33.3711 113.492V109.44H33.7991C33.9004 109.44 33.9631 109.489 33.9871 109.588L34.0391 110.004C34.1884 109.82 34.3564 109.669 34.5431 109.552C34.7297 109.435 34.9457 109.376 35.1911 109.376C35.4631 109.376 35.6831 109.452 35.8511 109.604C36.0217 109.756 36.1444 109.961 36.2191 110.22C36.2777 110.073 36.3524 109.947 36.4431 109.84C36.5364 109.733 36.6404 109.645 36.7551 109.576C36.8697 109.507 36.9911 109.456 37.1191 109.424C37.2497 109.392 37.3817 109.376 37.5151 109.376C37.7284 109.376 37.9177 109.411 38.0831 109.48C38.2511 109.547 38.3924 109.645 38.5071 109.776C38.6244 109.907 38.7137 110.068 38.7751 110.26C38.8364 110.449 38.8671 110.667 38.8671 110.912V113.492H38.1511V110.912C38.1511 110.595 38.0817 110.355 37.9431 110.192C37.8044 110.027 37.6044 109.944 37.3431 109.944C37.2257 109.944 37.1137 109.965 37.0071 110.008C36.9031 110.048 36.8111 110.108 36.7311 110.188C36.6511 110.268 36.5871 110.369 36.5391 110.492C36.4937 110.612 36.4711 110.752 36.4711 110.912V113.492H35.7551V110.912C35.7551 110.587 35.6897 110.344 35.5591 110.184C35.4284 110.024 35.2377 109.944 34.9871 109.944C34.8111 109.944 34.6484 109.992 34.4991 110.088C34.3497 110.181 34.2124 110.309 34.0871 110.472V113.492H33.3711Z" fill="white"/>
</g>
<defs>
<clipPath id="clip0_206_39706">
<rect width="50" height="117" fill="white"/>
</clipPath>
</defs>
</svg>
