<svg width="56" height="48" viewBox="0 0 56 48" fill="none" xmlns="http://www.w3.org/2000/svg">
<path d="M10 4C8.89543 4 8 4.89543 8 6V11C8 12.1046 8.89543 13 10 13H13C14.1046 13 15 12.1046 15 11V6C15 4.89543 14.1046 4 13 4H10Z" fill="white" fill-opacity="0.4"/>
<path d="M36 6C36 4.89543 36.8954 4 38 4H41C42.1046 4 43 4.89543 43 6V11C43 12.1046 42.1046 13 41 13H38C36.8954 13 36 12.1046 36 11V6Z" fill="white" fill-opacity="0.4"/>
<path d="M36 30C36 28.8954 36.8954 28 38 28H41C42.1046 28 43 28.8954 43 30V35C43 36.1046 42.1046 37 41 37H38C36.8954 37 36 36.1046 36 35V30Z" fill="white" fill-opacity="0.4"/>
<path d="M8 30C8 28.8954 8.89543 28 10 28H13C14.1046 28 15 28.8954 15 30V35C15 36.1046 14.1046 37 13 37H10C8.89543 37 8 36.1046 8 35V30Z" fill="white" fill-opacity="0.4"/>
</svg>
