<svg width="56" height="48" viewBox="0 0 56 48" fill="none" xmlns="http://www.w3.org/2000/svg">
<path d="M4.5 9C4.5 7.89543 5.39543 7 6.5 7H11.5C12.6046 7 13.5 7.89543 13.5 9V12C13.5 13.1046 12.6046 14 11.5 14H6.5C5.39543 14 4.5 13.1046 4.5 12V9Z" fill="white" fill-opacity="0.4"/>
<path d="M37.5 12C37.5 13.1046 36.6046 14 35.5 14H30.5C29.3954 14 28.5 13.1046 28.5 12V9C28.5 7.89543 29.3954 7 30.5 7H35.5C36.6046 7 37.5 7.89543 37.5 9V12Z" fill="white" fill-opacity="0.4"/>
<path d="M13.5 36C13.5 37.1046 12.6046 38 11.5 38H6.5C5.39543 38 4.5 37.1046 4.5 36V33C4.5 31.8954 5.39543 31 6.5 31H11.5C12.6046 31 13.5 31.8954 13.5 33V36Z" fill="white" fill-opacity="0.4"/>
<path d="M37.5 36C37.5 37.1046 36.6046 38 35.5 38H30.5C29.3954 38 28.5 37.1046 28.5 36V33C28.5 31.8954 29.3954 31 30.5 31H35.5C36.6046 31 37.5 31.8954 37.5 33V36Z" fill="white" fill-opacity="0.4"/>
</svg>
