<svg width="92" height="42" viewBox="0 0 92 42" fill="none" xmlns="http://www.w3.org/2000/svg">
<path fill-rule="evenodd" clip-rule="evenodd" d="M31 0.5H61V12.5H31V0.5ZM61 13H31H30.5V12.5V0.5V0H31H61H61.5H91.5H92V0.5V12.5V13H91.5H61.5H61ZM61.5 0.5V12.5H91.5V0.5H61.5Z" fill="white" fill-opacity="0.25"/>
<rect x="0.25" y="14.25" width="30.5" height="12.5" stroke="white" stroke-opacity="0.25" stroke-width="0.5"/>
<rect x="61.25" y="14.25" width="30.5" height="12.5" stroke="white" stroke-opacity="0.25" stroke-width="0.5"/>
<path fill-rule="evenodd" clip-rule="evenodd" d="M0.5 28.5H30.5V40.5H0.5V28.5ZM30.5 41H0.5H0V40.5V28.5V28H0.5H30.5H31H61H61.5V28.5V40.5V41H61H31H30.5ZM31 28.5V40.5H61V28.5H31Z" fill="white" fill-opacity="0.25"/>
<rect x="30.75" y="14.25" width="30.5" height="12.5" fill="white" fill-opacity="0.1" stroke="#0D99FF" stroke-width="0.5"/>
<rect x="61.25" y="28.25" width="30.5" height="12.5" fill="white" fill-opacity="0.1" stroke="#0D99FF" stroke-width="0.5"/>
<rect x="0.25" y="0.25" width="30.5" height="12.5" fill="white" fill-opacity="0.1" stroke="#0D99FF" stroke-width="0.5"/>
<path d="M15.5325 6.53592C15.5325 6.96525 15.4645 7.35992 15.3285 7.71992C15.1925 8.07725 15.0005 8.38525 14.7525 8.64392C14.5045 8.90258 14.2058 9.10392 13.8565 9.24792C13.5098 9.38925 13.1258 9.45992 12.7045 9.45992C12.2832 9.45992 11.8992 9.38925 11.5525 9.24792C11.2058 9.10392 10.9085 8.90258 10.6605 8.64392C10.4125 8.38525 10.2205 8.07725 10.0845 7.71992C9.94849 7.35992 9.88049 6.96525 9.88049 6.53592C9.88049 6.10658 9.94849 5.71325 10.0845 5.35592C10.2205 4.99592 10.4125 4.68658 10.6605 4.42792C10.9085 4.16658 11.2058 3.96392 11.5525 3.81992C11.8992 3.67592 12.2832 3.60392 12.7045 3.60392C13.1258 3.60392 13.5098 3.67592 13.8565 3.81992C14.2058 3.96392 14.5045 4.16658 14.7525 4.42792C15.0005 4.68658 15.1925 4.99592 15.3285 5.35592C15.4645 5.71325 15.5325 6.10658 15.5325 6.53592ZM14.7365 6.53592C14.7365 6.18392 14.6885 5.86792 14.5925 5.58792C14.4965 5.30792 14.3605 5.07192 14.1845 4.87992C14.0085 4.68525 13.7952 4.53592 13.5445 4.43192C13.2938 4.32792 13.0138 4.27592 12.7045 4.27592C12.3978 4.27592 12.1192 4.32792 11.8685 4.43192C11.6178 4.53592 11.4032 4.68525 11.2245 4.87992C11.0485 5.07192 10.9125 5.30792 10.8165 5.58792C10.7205 5.86792 10.6725 6.18392 10.6725 6.53592C10.6725 6.88792 10.7205 7.20392 10.8165 7.48392C10.9125 7.76125 11.0485 7.99725 11.2245 8.19192C11.4032 8.38392 11.6178 8.53192 11.8685 8.63592C12.1192 8.73725 12.3978 8.78792 12.7045 8.78792C13.0138 8.78792 13.2938 8.73725 13.5445 8.63592C13.7952 8.53192 14.0085 8.38392 14.1845 8.19192C14.3605 7.99725 14.4965 7.76125 14.5925 7.48392C14.6885 7.20392 14.7365 6.88792 14.7365 6.53592Z" fill="white"/>
<path d="M16.7075 9.39992V5.95592L16.2595 5.90392C16.2035 5.89058 16.1568 5.87058 16.1195 5.84392C16.0848 5.81458 16.0675 5.77325 16.0675 5.71992V5.42792H16.7075V5.09592C16.7075 4.86392 16.7395 4.65858 16.8035 4.47992C16.8702 4.29858 16.9635 4.14658 17.0835 4.02392C17.2062 3.89858 17.3528 3.80392 17.5235 3.73992C17.6942 3.67592 17.8862 3.64392 18.0995 3.64392C18.2808 3.64392 18.4475 3.67058 18.5995 3.72392L18.5835 4.08392C18.5782 4.14792 18.5422 4.18258 18.4755 4.18792C18.4115 4.19325 18.3248 4.19592 18.2155 4.19592C18.0928 4.19592 17.9808 4.21192 17.8795 4.24392C17.7808 4.27325 17.6955 4.32392 17.6235 4.39592C17.5515 4.46792 17.4955 4.56392 17.4555 4.68392C17.4182 4.80125 17.3995 4.94658 17.3995 5.11992V5.42792H19.2275V4.99192C19.2275 4.75992 19.2595 4.55458 19.3235 4.37592C19.3902 4.19458 19.4835 4.04258 19.6035 3.91992C19.7262 3.79458 19.8728 3.69992 20.0435 3.63592C20.2142 3.57192 20.4062 3.53992 20.6195 3.53992C20.7982 3.53992 20.9648 3.56658 21.1195 3.61992L21.1035 3.97592C21.0982 4.03992 21.0622 4.07458 20.9955 4.07992C20.9315 4.08525 20.8448 4.08792 20.7355 4.08792C20.6128 4.08792 20.5008 4.10392 20.3995 4.13592C20.3008 4.16792 20.2155 4.21992 20.1435 4.29192C20.0715 4.36392 20.0155 4.45858 19.9755 4.57592C19.9382 4.69325 19.9195 4.83858 19.9195 5.01192V5.42792H21.0875V5.94392H19.9435V9.39992H19.2275V5.94392H17.4235V9.39992H16.7075Z" fill="white"/>
<path d="M46.706 6.50402C46.706 6.93336 46.638 7.32802 46.502 7.68802C46.366 8.04535 46.174 8.35336 45.926 8.61202C45.678 8.87069 45.3793 9.07202 45.03 9.21602C44.6833 9.35736 44.2993 9.42802 43.878 9.42802C43.4566 9.42802 43.0726 9.35736 42.726 9.21602C42.3793 9.07202 42.082 8.87069 41.834 8.61202C41.586 8.35336 41.394 8.04535 41.258 7.68802C41.122 7.32802 41.054 6.93336 41.054 6.50402C41.054 6.07469 41.122 5.68136 41.258 5.32402C41.394 4.96402 41.586 4.65469 41.834 4.39602C42.082 4.13469 42.3793 3.93202 42.726 3.78802C43.0726 3.64402 43.4566 3.57202 43.878 3.57202C44.2993 3.57202 44.6833 3.64402 45.03 3.78802C45.3793 3.93202 45.678 4.13469 45.926 4.39602C46.174 4.65469 46.366 4.96402 46.502 5.32402C46.638 5.68136 46.706 6.07469 46.706 6.50402ZM45.91 6.50402C45.91 6.15202 45.862 5.83602 45.766 5.55602C45.67 5.27602 45.534 5.04002 45.358 4.84802C45.182 4.65336 44.9686 4.50402 44.718 4.40002C44.4673 4.29602 44.1873 4.24402 43.878 4.24402C43.5713 4.24402 43.2926 4.29602 43.042 4.40002C42.7913 4.50402 42.5766 4.65336 42.398 4.84802C42.222 5.04002 42.086 5.27602 41.99 5.55602C41.894 5.83602 41.846 6.15202 41.846 6.50402C41.846 6.85602 41.894 7.17202 41.99 7.45202C42.086 7.72936 42.222 7.96536 42.398 8.16002C42.5766 8.35202 42.7913 8.50002 43.042 8.60402C43.2926 8.70536 43.5713 8.75602 43.878 8.75602C44.1873 8.75602 44.4673 8.70536 44.718 8.60402C44.9686 8.50002 45.182 8.35202 45.358 8.16002C45.534 7.96536 45.67 7.72936 45.766 7.45202C45.862 7.17202 45.91 6.85602 45.91 6.50402Z" fill="white" fill-opacity="0.25"/>
<path d="M48.2421 5.90402C48.3301 5.80536 48.4234 5.71602 48.5221 5.63602C48.6207 5.55602 48.7247 5.48802 48.8341 5.43202C48.9461 5.37336 49.0634 5.32936 49.1861 5.30002C49.3114 5.26802 49.4461 5.25202 49.5901 5.25202C49.8114 5.25202 50.0061 5.28936 50.1741 5.36402C50.3447 5.43602 50.4861 5.54002 50.5981 5.67602C50.7127 5.80936 50.7994 5.97069 50.8581 6.16002C50.9167 6.34936 50.9461 6.55869 50.9461 6.78802V9.36802H50.2301V6.78802C50.2301 6.48136 50.1594 6.24402 50.0181 6.07602C49.8794 5.90536 49.6674 5.82002 49.3821 5.82002C49.1714 5.82002 48.9741 5.87069 48.7901 5.97202C48.6087 6.07336 48.4407 6.21069 48.2861 6.38402V9.36802H47.5701V5.31602H47.9981C48.0994 5.31602 48.1621 5.36536 48.1861 5.46402L48.2421 5.90402Z" fill="white" fill-opacity="0.25"/>
<path d="M73.449 6.60995V8.80995C73.161 9.01795 72.853 9.17395 72.525 9.27795C72.1997 9.37928 71.8423 9.42995 71.453 9.42995C70.9917 9.42995 70.5757 9.35928 70.205 9.21795C69.8343 9.07395 69.517 8.87395 69.253 8.61795C68.9917 8.35928 68.7903 8.04995 68.649 7.68995C68.5077 7.32995 68.437 6.93395 68.437 6.50195C68.437 6.06461 68.505 5.66595 68.641 5.30595C68.7797 4.94595 68.9757 4.63795 69.229 4.38195C69.4823 4.12328 69.7903 3.92328 70.153 3.78195C70.5157 3.64061 70.921 3.56995 71.369 3.56995C71.5957 3.56995 71.8063 3.58728 72.001 3.62195C72.1957 3.65395 72.3757 3.70195 72.541 3.76595C72.7063 3.82728 72.8597 3.90328 73.001 3.99395C73.1423 4.08195 73.2743 4.18195 73.397 4.29395L73.177 4.64595C73.1423 4.69928 73.097 4.73395 73.041 4.74995C72.9877 4.76328 72.9277 4.74995 72.861 4.70995C72.797 4.67261 72.7237 4.62728 72.641 4.57395C72.5583 4.52061 72.457 4.46995 72.337 4.42195C72.2197 4.37128 72.0797 4.32861 71.917 4.29395C71.757 4.25928 71.5663 4.24195 71.345 4.24195C71.0223 4.24195 70.7303 4.29528 70.469 4.40195C70.2077 4.50595 69.985 4.65661 69.801 4.85395C69.617 5.04861 69.4757 5.28595 69.377 5.56595C69.2783 5.84328 69.229 6.15528 69.229 6.50195C69.229 6.86195 69.2797 7.18461 69.381 7.46995C69.485 7.75261 69.6317 7.99395 69.821 8.19395C70.013 8.39128 70.245 8.54195 70.517 8.64595C70.789 8.74995 71.0943 8.80195 71.433 8.80195C71.6997 8.80195 71.9357 8.77261 72.141 8.71395C72.349 8.65261 72.5517 8.56861 72.749 8.46195V7.20195H71.857C71.8063 7.20195 71.765 7.18728 71.733 7.15795C71.7037 7.12861 71.689 7.09261 71.689 7.04995V6.60995H73.449Z" fill="white" fill-opacity="0.25"/>
<path d="M76.6413 7.54195C76.3133 7.55261 76.0333 7.57928 75.8013 7.62195C75.572 7.66195 75.384 7.71528 75.2373 7.78195C75.0933 7.84861 74.988 7.92728 74.9213 8.01795C74.8573 8.10861 74.8253 8.20995 74.8253 8.32195C74.8253 8.42861 74.8427 8.52061 74.8773 8.59795C74.912 8.67528 74.9587 8.73928 75.0173 8.78995C75.0787 8.83795 75.1493 8.87395 75.2293 8.89795C75.312 8.91928 75.4 8.92995 75.4933 8.92995C75.6187 8.92995 75.7333 8.91795 75.8373 8.89395C75.9413 8.86728 76.0387 8.82995 76.1293 8.78195C76.2227 8.73395 76.3107 8.67661 76.3933 8.60995C76.4787 8.54328 76.5613 8.46728 76.6413 8.38195V7.54195ZM74.3413 5.88595C74.5653 5.66995 74.8067 5.50861 75.0653 5.40195C75.324 5.29528 75.6107 5.24195 75.9253 5.24195C76.152 5.24195 76.3533 5.27928 76.5293 5.35395C76.7053 5.42861 76.8533 5.53261 76.9733 5.66595C77.0933 5.79928 77.184 5.96061 77.2453 6.14995C77.3067 6.33928 77.3373 6.54728 77.3373 6.77395V9.36595H77.0213C76.952 9.36595 76.8987 9.35528 76.8613 9.33395C76.824 9.30995 76.7947 9.26461 76.7733 9.19795L76.6933 8.81395C76.5867 8.91261 76.4827 9.00061 76.3813 9.07795C76.28 9.15261 76.1733 9.21661 76.0613 9.26995C75.9493 9.32061 75.8293 9.35928 75.7013 9.38595C75.576 9.41528 75.436 9.42995 75.2813 9.42995C75.124 9.42995 74.976 9.40861 74.8373 9.36595C74.6987 9.32061 74.5773 9.25395 74.4733 9.16595C74.372 9.07795 74.2907 8.96728 74.2293 8.83395C74.1707 8.69795 74.1413 8.53795 74.1413 8.35395C74.1413 8.19395 74.1853 8.04061 74.2733 7.89395C74.3613 7.74461 74.504 7.61261 74.7013 7.49795C74.8987 7.38328 75.156 7.28995 75.4733 7.21795C75.7907 7.14328 76.18 7.10061 76.6413 7.08995V6.77395C76.6413 6.45928 76.5733 6.22195 76.4373 6.06195C76.3013 5.89928 76.1027 5.81795 75.8413 5.81795C75.6653 5.81795 75.5173 5.84061 75.3973 5.88595C75.28 5.92861 75.1773 5.97795 75.0893 6.03395C75.004 6.08728 74.9293 6.13661 74.8653 6.18195C74.804 6.22461 74.7427 6.24595 74.6813 6.24595C74.6333 6.24595 74.592 6.23395 74.5573 6.20995C74.5227 6.18328 74.4933 6.15128 74.4693 6.11395L74.3413 5.88595Z" fill="white" fill-opacity="0.25"/>
<path d="M79.6112 9.42995C79.2912 9.42995 79.0445 9.34061 78.8712 9.16195C78.7005 8.98328 78.6152 8.72595 78.6152 8.38995V5.90995H78.1272C78.0845 5.90995 78.0485 5.89795 78.0192 5.87395C77.9899 5.84728 77.9752 5.80728 77.9752 5.75395V5.46995L78.6392 5.38595L78.8032 4.13395C78.8112 4.09395 78.8285 4.06195 78.8552 4.03795C78.8845 4.01128 78.9219 3.99795 78.9672 3.99795H79.3272V5.39395H80.4992V5.90995H79.3272V8.34195C79.3272 8.51261 79.3685 8.63928 79.4512 8.72195C79.5339 8.80461 79.6405 8.84595 79.7712 8.84595C79.8459 8.84595 79.9099 8.83661 79.9632 8.81795C80.0192 8.79661 80.0672 8.77395 80.1072 8.74995C80.1472 8.72595 80.1805 8.70461 80.2072 8.68595C80.2365 8.66461 80.2619 8.65395 80.2832 8.65395C80.3205 8.65395 80.3539 8.67661 80.3832 8.72195L80.5912 9.06195C80.4685 9.17661 80.3205 9.26728 80.1472 9.33395C79.9739 9.39795 79.7952 9.42995 79.6112 9.42995Z" fill="white" fill-opacity="0.25"/>
<path d="M83.9229 6.89795C83.9229 6.73261 83.8989 6.58195 83.8509 6.44595C83.8056 6.30728 83.7376 6.18861 83.6469 6.08995C83.5589 5.98861 83.4509 5.91128 83.3229 5.85795C83.1949 5.80195 83.0496 5.77395 82.8869 5.77395C82.5456 5.77395 82.2749 5.87395 82.0749 6.07395C81.8776 6.27128 81.7549 6.54595 81.7069 6.89795H83.9229ZM84.4989 8.79795C84.4109 8.90461 84.3056 8.99795 84.1829 9.07795C84.0603 9.15528 83.9283 9.21928 83.7869 9.26995C83.6483 9.32061 83.5043 9.35795 83.3549 9.38195C83.2056 9.40861 83.0576 9.42195 82.9109 9.42195C82.6309 9.42195 82.3723 9.37528 82.1349 9.28195C81.9003 9.18595 81.6963 9.04728 81.5229 8.86595C81.3523 8.68195 81.2189 8.45528 81.1229 8.18595C81.0269 7.91661 80.9789 7.60728 80.9789 7.25795C80.9789 6.97528 81.0216 6.71128 81.1069 6.46595C81.1949 6.22061 81.3203 6.00861 81.4829 5.82995C81.6456 5.64861 81.8443 5.50728 82.0789 5.40595C82.3136 5.30195 82.5776 5.24995 82.8709 5.24995C83.1136 5.24995 83.3376 5.29128 83.5429 5.37395C83.7509 5.45395 83.9296 5.57128 84.0789 5.72595C84.2309 5.87795 84.3496 6.06728 84.4349 6.29395C84.5203 6.51795 84.563 6.77395 84.563 7.06195C84.563 7.17395 84.5509 7.24861 84.5269 7.28595C84.5029 7.32328 84.4576 7.34195 84.3909 7.34195H81.6829C81.6909 7.59795 81.7256 7.82061 81.7869 8.00995C81.8509 8.19928 81.9389 8.35795 82.0509 8.48595C82.1629 8.61128 82.2963 8.70595 82.4509 8.76995C82.6056 8.83128 82.7789 8.86195 82.9709 8.86195C83.1496 8.86195 83.3029 8.84195 83.4309 8.80195C83.5616 8.75928 83.6736 8.71395 83.7669 8.66595C83.8603 8.61795 83.9376 8.57395 83.9989 8.53395C84.0629 8.49128 84.1176 8.46995 84.1629 8.46995C84.2216 8.46995 84.2669 8.49261 84.2989 8.53795L84.4989 8.79795Z" fill="white" fill-opacity="0.25"/>
<path d="M15.5325 20.5359C15.5325 20.9653 15.4645 21.3599 15.3285 21.7199C15.1925 22.0773 15.0005 22.3853 14.7525 22.6439C14.5045 22.9026 14.2058 23.1039 13.8565 23.2479C13.5098 23.3893 13.1258 23.4599 12.7045 23.4599C12.2832 23.4599 11.8992 23.3893 11.5525 23.2479C11.2058 23.1039 10.9085 22.9026 10.6605 22.6439C10.4125 22.3853 10.2205 22.0773 10.0845 21.7199C9.94849 21.3599 9.88049 20.9653 9.88049 20.5359C9.88049 20.1066 9.94849 19.7133 10.0845 19.3559C10.2205 18.9959 10.4125 18.6866 10.6605 18.4279C10.9085 18.1666 11.2058 17.9639 11.5525 17.8199C11.8992 17.6759 12.2832 17.6039 12.7045 17.6039C13.1258 17.6039 13.5098 17.6759 13.8565 17.8199C14.2058 17.9639 14.5045 18.1666 14.7525 18.4279C15.0005 18.6866 15.1925 18.9959 15.3285 19.3559C15.4645 19.7133 15.5325 20.1066 15.5325 20.5359ZM14.7365 20.5359C14.7365 20.1839 14.6885 19.8679 14.5925 19.5879C14.4965 19.3079 14.3605 19.0719 14.1845 18.8799C14.0085 18.6853 13.7952 18.5359 13.5445 18.4319C13.2938 18.3279 13.0138 18.2759 12.7045 18.2759C12.3978 18.2759 12.1192 18.3279 11.8685 18.4319C11.6178 18.5359 11.4032 18.6853 11.2245 18.8799C11.0485 19.0719 10.9125 19.3079 10.8165 19.5879C10.7205 19.8679 10.6725 20.1839 10.6725 20.5359C10.6725 20.8879 10.7205 21.2039 10.8165 21.4839C10.9125 21.7613 11.0485 21.9973 11.2245 22.1919C11.4032 22.3839 11.6178 22.5319 11.8685 22.6359C12.1192 22.7373 12.3978 22.7879 12.7045 22.7879C13.0138 22.7879 13.2938 22.7373 13.5445 22.6359C13.7952 22.5319 14.0085 22.3839 14.1845 22.1919C14.3605 21.9973 14.4965 21.7613 14.5925 21.4839C14.6885 21.2039 14.7365 20.8879 14.7365 20.5359Z" fill="white" fill-opacity="0.25"/>
<path d="M16.7075 23.3999V19.9559L16.2595 19.9039C16.2035 19.8906 16.1568 19.8706 16.1195 19.8439C16.0848 19.8146 16.0675 19.7733 16.0675 19.7199V19.4279H16.7075V19.0959C16.7075 18.8639 16.7395 18.6586 16.8035 18.4799C16.8702 18.2986 16.9635 18.1466 17.0835 18.0239C17.2062 17.8986 17.3528 17.8039 17.5235 17.7399C17.6942 17.6759 17.8862 17.6439 18.0995 17.6439C18.2808 17.6439 18.4475 17.6706 18.5995 17.7239L18.5835 18.0839C18.5782 18.1479 18.5422 18.1826 18.4755 18.1879C18.4115 18.1933 18.3248 18.1959 18.2155 18.1959C18.0928 18.1959 17.9808 18.2119 17.8795 18.2439C17.7808 18.2733 17.6955 18.3239 17.6235 18.3959C17.5515 18.4679 17.4955 18.5639 17.4555 18.6839C17.4182 18.8013 17.3995 18.9466 17.3995 19.1199V19.4279H19.2275V18.9919C19.2275 18.7599 19.2595 18.5546 19.3235 18.3759C19.3902 18.1946 19.4835 18.0426 19.6035 17.9199C19.7262 17.7946 19.8728 17.6999 20.0435 17.6359C20.2142 17.5719 20.4062 17.5399 20.6195 17.5399C20.7982 17.5399 20.9648 17.5666 21.1195 17.6199L21.1035 17.9759C21.0982 18.0399 21.0622 18.0746 20.9955 18.0799C20.9315 18.0853 20.8448 18.0879 20.7355 18.0879C20.6128 18.0879 20.5008 18.1039 20.3995 18.1359C20.3008 18.1679 20.2155 18.2199 20.1435 18.2919C20.0715 18.3639 20.0155 18.4586 19.9755 18.5759C19.9382 18.6933 19.9195 18.8386 19.9195 19.0119V19.4279H21.0875V19.9439H19.9435V23.3999H19.2275V19.9439H17.4235V23.3999H16.7075Z" fill="white" fill-opacity="0.25"/>
<path d="M46.706 20.504C46.706 20.9334 46.638 21.328 46.502 21.688C46.366 22.0454 46.174 22.3534 45.926 22.612C45.678 22.8707 45.3793 23.072 45.03 23.216C44.6833 23.3574 44.2993 23.428 43.878 23.428C43.4566 23.428 43.0726 23.3574 42.726 23.216C42.3793 23.072 42.082 22.8707 41.834 22.612C41.586 22.3534 41.394 22.0454 41.258 21.688C41.122 21.328 41.054 20.9334 41.054 20.504C41.054 20.0747 41.122 19.6814 41.258 19.324C41.394 18.964 41.586 18.6547 41.834 18.396C42.082 18.1347 42.3793 17.932 42.726 17.788C43.0726 17.644 43.4566 17.572 43.878 17.572C44.2993 17.572 44.6833 17.644 45.03 17.788C45.3793 17.932 45.678 18.1347 45.926 18.396C46.174 18.6547 46.366 18.964 46.502 19.324C46.638 19.6814 46.706 20.0747 46.706 20.504ZM45.91 20.504C45.91 20.152 45.862 19.836 45.766 19.556C45.67 19.276 45.534 19.04 45.358 18.848C45.182 18.6534 44.9686 18.504 44.718 18.4C44.4673 18.296 44.1873 18.244 43.878 18.244C43.5713 18.244 43.2926 18.296 43.042 18.4C42.7913 18.504 42.5766 18.6534 42.398 18.848C42.222 19.04 42.086 19.276 41.99 19.556C41.894 19.836 41.846 20.152 41.846 20.504C41.846 20.856 41.894 21.172 41.99 21.452C42.086 21.7294 42.222 21.9654 42.398 22.16C42.5766 22.352 42.7913 22.5 43.042 22.604C43.2926 22.7054 43.5713 22.756 43.878 22.756C44.1873 22.756 44.4673 22.7054 44.718 22.604C44.9686 22.5 45.182 22.352 45.358 22.16C45.534 21.9654 45.67 21.7294 45.766 21.452C45.862 21.172 45.91 20.856 45.91 20.504Z" fill="white"/>
<path d="M48.2421 19.904C48.3301 19.8054 48.4234 19.716 48.5221 19.636C48.6207 19.556 48.7247 19.488 48.8341 19.432C48.9461 19.3734 49.0634 19.3294 49.1861 19.3C49.3114 19.268 49.4461 19.252 49.5901 19.252C49.8114 19.252 50.0061 19.2894 50.1741 19.364C50.3447 19.436 50.4861 19.54 50.5981 19.676C50.7127 19.8094 50.7994 19.9707 50.8581 20.16C50.9167 20.3494 50.9461 20.5587 50.9461 20.788V23.368H50.2301V20.788C50.2301 20.4814 50.1594 20.244 50.0181 20.076C49.8794 19.9054 49.6674 19.82 49.3821 19.82C49.1714 19.82 48.9741 19.8707 48.7901 19.972C48.6087 20.0734 48.4407 20.2107 48.2861 20.384V23.368H47.5701V19.316H47.9981C48.0994 19.316 48.1621 19.3654 48.1861 19.464L48.2421 19.904Z" fill="white"/>
<path d="M73.449 20.6099V22.8099C73.161 23.0179 72.853 23.1739 72.525 23.2779C72.1997 23.3793 71.8423 23.4299 71.453 23.4299C70.9917 23.4299 70.5757 23.3593 70.205 23.2179C69.8343 23.0739 69.517 22.8739 69.253 22.6179C68.9917 22.3593 68.7903 22.0499 68.649 21.6899C68.5077 21.3299 68.437 20.9339 68.437 20.5019C68.437 20.0646 68.505 19.6659 68.641 19.3059C68.7797 18.9459 68.9757 18.6379 69.229 18.3819C69.4823 18.1233 69.7903 17.9233 70.153 17.7819C70.5157 17.6406 70.921 17.5699 71.369 17.5699C71.5957 17.5699 71.8063 17.5873 72.001 17.6219C72.1957 17.6539 72.3757 17.7019 72.541 17.7659C72.7063 17.8273 72.8597 17.9033 73.001 17.9939C73.1423 18.0819 73.2743 18.1819 73.397 18.2939L73.177 18.6459C73.1423 18.6993 73.097 18.7339 73.041 18.7499C72.9877 18.7633 72.9277 18.7499 72.861 18.7099C72.797 18.6726 72.7237 18.6273 72.641 18.5739C72.5583 18.5206 72.457 18.4699 72.337 18.4219C72.2197 18.3713 72.0797 18.3286 71.917 18.2939C71.757 18.2593 71.5663 18.2419 71.345 18.2419C71.0223 18.2419 70.7303 18.2953 70.469 18.4019C70.2077 18.5059 69.985 18.6566 69.801 18.8539C69.617 19.0486 69.4757 19.2859 69.377 19.5659C69.2783 19.8433 69.229 20.1553 69.229 20.5019C69.229 20.8619 69.2797 21.1846 69.381 21.4699C69.485 21.7526 69.6317 21.9939 69.821 22.1939C70.013 22.3913 70.245 22.5419 70.517 22.6459C70.789 22.7499 71.0943 22.8019 71.433 22.8019C71.6997 22.8019 71.9357 22.7726 72.141 22.7139C72.349 22.6526 72.5517 22.5686 72.749 22.4619V21.2019H71.857C71.8063 21.2019 71.765 21.1873 71.733 21.1579C71.7037 21.1286 71.689 21.0926 71.689 21.0499V20.6099H73.449Z" fill="white" fill-opacity="0.25"/>
<path d="M76.6413 21.5419C76.3133 21.5526 76.0333 21.5793 75.8013 21.6219C75.572 21.6619 75.384 21.7153 75.2373 21.7819C75.0933 21.8486 74.988 21.9273 74.9213 22.0179C74.8573 22.1086 74.8253 22.2099 74.8253 22.3219C74.8253 22.4286 74.8427 22.5206 74.8773 22.5979C74.912 22.6753 74.9587 22.7393 75.0173 22.7899C75.0787 22.8379 75.1493 22.8739 75.2293 22.8979C75.312 22.9193 75.4 22.9299 75.4933 22.9299C75.6187 22.9299 75.7333 22.9179 75.8373 22.8939C75.9413 22.8673 76.0387 22.8299 76.1293 22.7819C76.2227 22.7339 76.3107 22.6766 76.3933 22.6099C76.4787 22.5433 76.5613 22.4673 76.6413 22.3819V21.5419ZM74.3413 19.8859C74.5653 19.6699 74.8067 19.5086 75.0653 19.4019C75.324 19.2953 75.6107 19.2419 75.9253 19.2419C76.152 19.2419 76.3533 19.2793 76.5293 19.3539C76.7053 19.4286 76.8533 19.5326 76.9733 19.6659C77.0933 19.7993 77.184 19.9606 77.2453 20.1499C77.3067 20.3393 77.3373 20.5473 77.3373 20.7739V23.3659H77.0213C76.952 23.3659 76.8987 23.3553 76.8613 23.3339C76.824 23.3099 76.7947 23.2646 76.7733 23.1979L76.6933 22.8139C76.5867 22.9126 76.4827 23.0006 76.3813 23.0779C76.28 23.1526 76.1733 23.2166 76.0613 23.2699C75.9493 23.3206 75.8293 23.3593 75.7013 23.3859C75.576 23.4153 75.436 23.4299 75.2813 23.4299C75.124 23.4299 74.976 23.4086 74.8373 23.3659C74.6987 23.3206 74.5773 23.2539 74.4733 23.1659C74.372 23.0779 74.2907 22.9673 74.2293 22.8339C74.1707 22.6979 74.1413 22.5379 74.1413 22.3539C74.1413 22.1939 74.1853 22.0406 74.2733 21.8939C74.3613 21.7446 74.504 21.6126 74.7013 21.4979C74.8987 21.3833 75.156 21.2899 75.4733 21.2179C75.7907 21.1433 76.18 21.1006 76.6413 21.0899V20.7739C76.6413 20.4593 76.5733 20.2219 76.4373 20.0619C76.3013 19.8993 76.1027 19.8179 75.8413 19.8179C75.6653 19.8179 75.5173 19.8406 75.3973 19.8859C75.28 19.9286 75.1773 19.9779 75.0893 20.0339C75.004 20.0873 74.9293 20.1366 74.8653 20.1819C74.804 20.2246 74.7427 20.2459 74.6813 20.2459C74.6333 20.2459 74.592 20.2339 74.5573 20.2099C74.5227 20.1833 74.4933 20.1513 74.4693 20.1139L74.3413 19.8859Z" fill="white" fill-opacity="0.25"/>
<path d="M79.6112 23.4299C79.2912 23.4299 79.0445 23.3406 78.8712 23.1619C78.7005 22.9833 78.6152 22.7259 78.6152 22.3899V19.9099H78.1272C78.0845 19.9099 78.0485 19.8979 78.0192 19.8739C77.9899 19.8473 77.9752 19.8073 77.9752 19.7539V19.4699L78.6392 19.3859L78.8032 18.1339C78.8112 18.0939 78.8285 18.0619 78.8552 18.0379C78.8845 18.0113 78.9219 17.9979 78.9672 17.9979H79.3272V19.3939H80.4992V19.9099H79.3272V22.3419C79.3272 22.5126 79.3685 22.6393 79.4512 22.7219C79.5339 22.8046 79.6405 22.8459 79.7712 22.8459C79.8459 22.8459 79.9099 22.8366 79.9632 22.8179C80.0192 22.7966 80.0672 22.7739 80.1072 22.7499C80.1472 22.7259 80.1805 22.7046 80.2072 22.6859C80.2365 22.6646 80.2619 22.6539 80.2832 22.6539C80.3205 22.6539 80.3539 22.6766 80.3832 22.7219L80.5912 23.0619C80.4685 23.1766 80.3205 23.2673 80.1472 23.3339C79.9739 23.3979 79.7952 23.4299 79.6112 23.4299Z" fill="white" fill-opacity="0.25"/>
<path d="M83.9229 20.8979C83.9229 20.7326 83.8989 20.5819 83.8509 20.4459C83.8056 20.3073 83.7376 20.1886 83.6469 20.0899C83.5589 19.9886 83.4509 19.9113 83.3229 19.8579C83.1949 19.8019 83.0496 19.7739 82.8869 19.7739C82.5456 19.7739 82.2749 19.8739 82.0749 20.0739C81.8776 20.2713 81.7549 20.5459 81.7069 20.8979H83.9229ZM84.4989 22.7979C84.4109 22.9046 84.3056 22.9979 84.1829 23.0779C84.0603 23.1553 83.9283 23.2193 83.7869 23.2699C83.6483 23.3206 83.5043 23.3579 83.3549 23.3819C83.2056 23.4086 83.0576 23.4219 82.9109 23.4219C82.6309 23.4219 82.3723 23.3753 82.1349 23.2819C81.9003 23.1859 81.6963 23.0473 81.5229 22.8659C81.3523 22.6819 81.2189 22.4553 81.1229 22.1859C81.0269 21.9166 80.9789 21.6073 80.9789 21.2579C80.9789 20.9753 81.0216 20.7113 81.1069 20.4659C81.1949 20.2206 81.3203 20.0086 81.4829 19.8299C81.6456 19.6486 81.8443 19.5073 82.0789 19.4059C82.3136 19.3019 82.5776 19.2499 82.8709 19.2499C83.1136 19.2499 83.3376 19.2913 83.5429 19.3739C83.7509 19.4539 83.9296 19.5713 84.0789 19.7259C84.2309 19.8779 84.3496 20.0673 84.4349 20.2939C84.5203 20.5179 84.563 20.7739 84.563 21.0619C84.563 21.1739 84.5509 21.2486 84.5269 21.2859C84.5029 21.3233 84.4576 21.3419 84.3909 21.3419H81.6829C81.6909 21.5979 81.7256 21.8206 81.7869 22.0099C81.8509 22.1993 81.9389 22.3579 82.0509 22.4859C82.1629 22.6113 82.2963 22.7059 82.4509 22.7699C82.6056 22.8313 82.7789 22.8619 82.9709 22.8619C83.1496 22.8619 83.3029 22.8419 83.4309 22.8019C83.5616 22.7593 83.6736 22.7139 83.7669 22.6659C83.8603 22.6179 83.9376 22.5739 83.9989 22.5339C84.0629 22.4913 84.1176 22.4699 84.1629 22.4699C84.2216 22.4699 84.2669 22.4926 84.2989 22.5379L84.4989 22.7979Z" fill="white" fill-opacity="0.25"/>
<path d="M15.5325 34.5359C15.5325 34.9653 15.4645 35.3599 15.3285 35.7199C15.1925 36.0773 15.0005 36.3853 14.7525 36.6439C14.5045 36.9026 14.2058 37.1039 13.8565 37.2479C13.5098 37.3893 13.1258 37.4599 12.7045 37.4599C12.2832 37.4599 11.8992 37.3893 11.5525 37.2479C11.2058 37.1039 10.9085 36.9026 10.6605 36.6439C10.4125 36.3853 10.2205 36.0773 10.0845 35.7199C9.94849 35.3599 9.88049 34.9653 9.88049 34.5359C9.88049 34.1066 9.94849 33.7133 10.0845 33.3559C10.2205 32.9959 10.4125 32.6866 10.6605 32.4279C10.9085 32.1666 11.2058 31.9639 11.5525 31.8199C11.8992 31.6759 12.2832 31.6039 12.7045 31.6039C13.1258 31.6039 13.5098 31.6759 13.8565 31.8199C14.2058 31.9639 14.5045 32.1666 14.7525 32.4279C15.0005 32.6866 15.1925 32.9959 15.3285 33.3559C15.4645 33.7133 15.5325 34.1066 15.5325 34.5359ZM14.7365 34.5359C14.7365 34.1839 14.6885 33.8679 14.5925 33.5879C14.4965 33.3079 14.3605 33.0719 14.1845 32.8799C14.0085 32.6853 13.7952 32.5359 13.5445 32.4319C13.2938 32.3279 13.0138 32.2759 12.7045 32.2759C12.3978 32.2759 12.1192 32.3279 11.8685 32.4319C11.6178 32.5359 11.4032 32.6853 11.2245 32.8799C11.0485 33.0719 10.9125 33.3079 10.8165 33.5879C10.7205 33.8679 10.6725 34.1839 10.6725 34.5359C10.6725 34.8879 10.7205 35.2039 10.8165 35.4839C10.9125 35.7613 11.0485 35.9973 11.2245 36.1919C11.4032 36.3839 11.6178 36.5319 11.8685 36.6359C12.1192 36.7373 12.3978 36.7879 12.7045 36.7879C13.0138 36.7879 13.2938 36.7373 13.5445 36.6359C13.7952 36.5319 14.0085 36.3839 14.1845 36.1919C14.3605 35.9973 14.4965 35.7613 14.5925 35.4839C14.6885 35.2039 14.7365 34.8879 14.7365 34.5359Z" fill="white" fill-opacity="0.25"/>
<path d="M16.7075 37.3999V33.9559L16.2595 33.9039C16.2035 33.8906 16.1568 33.8706 16.1195 33.8439C16.0848 33.8146 16.0675 33.7733 16.0675 33.7199V33.4279H16.7075V33.0959C16.7075 32.8639 16.7395 32.6586 16.8035 32.4799C16.8702 32.2986 16.9635 32.1466 17.0835 32.0239C17.2062 31.8986 17.3528 31.8039 17.5235 31.7399C17.6942 31.6759 17.8862 31.6439 18.0995 31.6439C18.2808 31.6439 18.4475 31.6706 18.5995 31.7239L18.5835 32.0839C18.5782 32.1479 18.5422 32.1826 18.4755 32.1879C18.4115 32.1933 18.3248 32.1959 18.2155 32.1959C18.0928 32.1959 17.9808 32.2119 17.8795 32.2439C17.7808 32.2733 17.6955 32.3239 17.6235 32.3959C17.5515 32.4679 17.4955 32.5639 17.4555 32.6839C17.4182 32.8013 17.3995 32.9466 17.3995 33.1199V33.4279H19.2275V32.9919C19.2275 32.7599 19.2595 32.5546 19.3235 32.3759C19.3902 32.1946 19.4835 32.0426 19.6035 31.9199C19.7262 31.7946 19.8728 31.6999 20.0435 31.6359C20.2142 31.5719 20.4062 31.5399 20.6195 31.5399C20.7982 31.5399 20.9648 31.5666 21.1195 31.6199L21.1035 31.9759C21.0982 32.0399 21.0622 32.0746 20.9955 32.0799C20.9315 32.0853 20.8448 32.0879 20.7355 32.0879C20.6128 32.0879 20.5008 32.1039 20.3995 32.1359C20.3008 32.1679 20.2155 32.2199 20.1435 32.2919C20.0715 32.3639 20.0155 32.4586 19.9755 32.5759C19.9382 32.6933 19.9195 32.8386 19.9195 33.0119V33.4279H21.0875V33.9439H19.9435V37.3999H19.2275V33.9439H17.4235V37.3999H16.7075Z" fill="white" fill-opacity="0.25"/>
<path d="M46.706 34.504C46.706 34.9334 46.638 35.328 46.502 35.688C46.366 36.0454 46.174 36.3534 45.926 36.612C45.678 36.8707 45.3793 37.072 45.03 37.216C44.6833 37.3574 44.2993 37.428 43.878 37.428C43.4566 37.428 43.0726 37.3574 42.726 37.216C42.3793 37.072 42.082 36.8707 41.834 36.612C41.586 36.3534 41.394 36.0454 41.258 35.688C41.122 35.328 41.054 34.9334 41.054 34.504C41.054 34.0747 41.122 33.6814 41.258 33.324C41.394 32.964 41.586 32.6547 41.834 32.396C42.082 32.1347 42.3793 31.932 42.726 31.788C43.0726 31.644 43.4566 31.572 43.878 31.572C44.2993 31.572 44.6833 31.644 45.03 31.788C45.3793 31.932 45.678 32.1347 45.926 32.396C46.174 32.6547 46.366 32.964 46.502 33.324C46.638 33.6814 46.706 34.0747 46.706 34.504ZM45.91 34.504C45.91 34.152 45.862 33.836 45.766 33.556C45.67 33.276 45.534 33.04 45.358 32.848C45.182 32.6534 44.9686 32.504 44.718 32.4C44.4673 32.296 44.1873 32.244 43.878 32.244C43.5713 32.244 43.2926 32.296 43.042 32.4C42.7913 32.504 42.5766 32.6534 42.398 32.848C42.222 33.04 42.086 33.276 41.99 33.556C41.894 33.836 41.846 34.152 41.846 34.504C41.846 34.856 41.894 35.172 41.99 35.452C42.086 35.7294 42.222 35.9654 42.398 36.16C42.5766 36.352 42.7913 36.5 43.042 36.604C43.2926 36.7054 43.5713 36.756 43.878 36.756C44.1873 36.756 44.4673 36.7054 44.718 36.604C44.9686 36.5 45.182 36.352 45.358 36.16C45.534 35.9654 45.67 35.7294 45.766 35.452C45.862 35.172 45.91 34.856 45.91 34.504Z" fill="white" fill-opacity="0.25"/>
<path d="M48.2421 33.904C48.3301 33.8054 48.4234 33.716 48.5221 33.636C48.6207 33.556 48.7247 33.488 48.8341 33.432C48.9461 33.3734 49.0634 33.3294 49.1861 33.3C49.3114 33.268 49.4461 33.252 49.5901 33.252C49.8114 33.252 50.0061 33.2894 50.1741 33.364C50.3447 33.436 50.4861 33.54 50.5981 33.676C50.7127 33.8094 50.7994 33.9707 50.8581 34.16C50.9167 34.3494 50.9461 34.5587 50.9461 34.788V37.368H50.2301V34.788C50.2301 34.4814 50.1594 34.244 50.0181 34.076C49.8794 33.9054 49.6674 33.82 49.3821 33.82C49.1714 33.82 48.9741 33.8707 48.7901 33.972C48.6087 34.0734 48.4407 34.2107 48.2861 34.384V37.368H47.5701V33.316H47.9981C48.0994 33.316 48.1621 33.3654 48.1861 33.464L48.2421 33.904Z" fill="white" fill-opacity="0.25"/>
<path d="M73.449 34.6099V36.8099C73.161 37.0179 72.853 37.1739 72.525 37.2779C72.1997 37.3793 71.8423 37.4299 71.453 37.4299C70.9917 37.4299 70.5757 37.3593 70.205 37.2179C69.8343 37.0739 69.517 36.8739 69.253 36.6179C68.9917 36.3593 68.7903 36.0499 68.649 35.6899C68.5077 35.3299 68.437 34.9339 68.437 34.5019C68.437 34.0646 68.505 33.6659 68.641 33.3059C68.7797 32.9459 68.9757 32.6379 69.229 32.3819C69.4823 32.1233 69.7903 31.9233 70.153 31.7819C70.5157 31.6406 70.921 31.5699 71.369 31.5699C71.5957 31.5699 71.8063 31.5873 72.001 31.6219C72.1957 31.6539 72.3757 31.7019 72.541 31.7659C72.7063 31.8273 72.8597 31.9033 73.001 31.9939C73.1423 32.0819 73.2743 32.1819 73.397 32.2939L73.177 32.6459C73.1423 32.6993 73.097 32.7339 73.041 32.7499C72.9877 32.7633 72.9277 32.7499 72.861 32.7099C72.797 32.6726 72.7237 32.6273 72.641 32.5739C72.5583 32.5206 72.457 32.4699 72.337 32.4219C72.2197 32.3713 72.0797 32.3286 71.917 32.2939C71.757 32.2593 71.5663 32.2419 71.345 32.2419C71.0223 32.2419 70.7303 32.2953 70.469 32.4019C70.2077 32.5059 69.985 32.6566 69.801 32.8539C69.617 33.0486 69.4757 33.2859 69.377 33.5659C69.2783 33.8433 69.229 34.1553 69.229 34.5019C69.229 34.8619 69.2797 35.1846 69.381 35.4699C69.485 35.7526 69.6317 35.9939 69.821 36.1939C70.013 36.3913 70.245 36.5419 70.517 36.6459C70.789 36.7499 71.0943 36.8019 71.433 36.8019C71.6997 36.8019 71.9357 36.7726 72.141 36.7139C72.349 36.6526 72.5517 36.5686 72.749 36.4619V35.2019H71.857C71.8063 35.2019 71.765 35.1873 71.733 35.1579C71.7037 35.1286 71.689 35.0926 71.689 35.0499V34.6099H73.449Z" fill="white"/>
<path d="M76.6413 35.5419C76.3133 35.5526 76.0333 35.5793 75.8013 35.6219C75.572 35.6619 75.384 35.7153 75.2373 35.7819C75.0933 35.8486 74.988 35.9273 74.9213 36.0179C74.8573 36.1086 74.8253 36.2099 74.8253 36.3219C74.8253 36.4286 74.8427 36.5206 74.8773 36.5979C74.912 36.6753 74.9587 36.7393 75.0173 36.7899C75.0787 36.8379 75.1493 36.8739 75.2293 36.8979C75.312 36.9193 75.4 36.9299 75.4933 36.9299C75.6187 36.9299 75.7333 36.9179 75.8373 36.8939C75.9413 36.8673 76.0387 36.8299 76.1293 36.7819C76.2227 36.7339 76.3107 36.6766 76.3933 36.6099C76.4787 36.5433 76.5613 36.4673 76.6413 36.3819V35.5419ZM74.3413 33.8859C74.5653 33.6699 74.8067 33.5086 75.0653 33.4019C75.324 33.2953 75.6107 33.2419 75.9253 33.2419C76.152 33.2419 76.3533 33.2793 76.5293 33.3539C76.7053 33.4286 76.8533 33.5326 76.9733 33.6659C77.0933 33.7993 77.184 33.9606 77.2453 34.1499C77.3067 34.3393 77.3373 34.5473 77.3373 34.7739V37.3659H77.0213C76.952 37.3659 76.8987 37.3553 76.8613 37.3339C76.824 37.3099 76.7947 37.2646 76.7733 37.1979L76.6933 36.8139C76.5867 36.9126 76.4827 37.0006 76.3813 37.0779C76.28 37.1526 76.1733 37.2166 76.0613 37.2699C75.9493 37.3206 75.8293 37.3593 75.7013 37.3859C75.576 37.4153 75.436 37.4299 75.2813 37.4299C75.124 37.4299 74.976 37.4086 74.8373 37.3659C74.6987 37.3206 74.5773 37.2539 74.4733 37.1659C74.372 37.0779 74.2907 36.9673 74.2293 36.8339C74.1707 36.6979 74.1413 36.5379 74.1413 36.3539C74.1413 36.1939 74.1853 36.0406 74.2733 35.8939C74.3613 35.7446 74.504 35.6126 74.7013 35.4979C74.8987 35.3833 75.156 35.2899 75.4733 35.2179C75.7907 35.1433 76.18 35.1006 76.6413 35.0899V34.7739C76.6413 34.4593 76.5733 34.2219 76.4373 34.0619C76.3013 33.8993 76.1027 33.8179 75.8413 33.8179C75.6653 33.8179 75.5173 33.8406 75.3973 33.8859C75.28 33.9286 75.1773 33.9779 75.0893 34.0339C75.004 34.0873 74.9293 34.1366 74.8653 34.1819C74.804 34.2246 74.7427 34.2459 74.6813 34.2459C74.6333 34.2459 74.592 34.2339 74.5573 34.2099C74.5227 34.1833 74.4933 34.1513 74.4693 34.1139L74.3413 33.8859Z" fill="white"/>
<path d="M79.6112 37.4299C79.2912 37.4299 79.0445 37.3406 78.8712 37.1619C78.7005 36.9833 78.6152 36.7259 78.6152 36.3899V33.9099H78.1272C78.0845 33.9099 78.0485 33.8979 78.0192 33.8739C77.9899 33.8473 77.9752 33.8073 77.9752 33.7539V33.4699L78.6392 33.3859L78.8032 32.1339C78.8112 32.0939 78.8285 32.0619 78.8552 32.0379C78.8845 32.0113 78.9219 31.9979 78.9672 31.9979H79.3272V33.3939H80.4992V33.9099H79.3272V36.3419C79.3272 36.5126 79.3685 36.6393 79.4512 36.7219C79.5339 36.8046 79.6405 36.8459 79.7712 36.8459C79.8459 36.8459 79.9099 36.8366 79.9632 36.8179C80.0192 36.7966 80.0672 36.7739 80.1072 36.7499C80.1472 36.7259 80.1805 36.7046 80.2072 36.6859C80.2365 36.6646 80.2619 36.6539 80.2832 36.6539C80.3205 36.6539 80.3539 36.6766 80.3832 36.7219L80.5912 37.0619C80.4685 37.1766 80.3205 37.2673 80.1472 37.3339C79.9739 37.3979 79.7952 37.4299 79.6112 37.4299Z" fill="white"/>
<path d="M83.9229 34.8979C83.9229 34.7326 83.8989 34.5819 83.8509 34.4459C83.8056 34.3073 83.7376 34.1886 83.6469 34.0899C83.5589 33.9886 83.4509 33.9113 83.3229 33.8579C83.1949 33.8019 83.0496 33.7739 82.8869 33.7739C82.5456 33.7739 82.2749 33.8739 82.0749 34.0739C81.8776 34.2713 81.7549 34.5459 81.7069 34.8979H83.9229ZM84.4989 36.7979C84.4109 36.9046 84.3056 36.9979 84.1829 37.0779C84.0603 37.1553 83.9283 37.2193 83.7869 37.2699C83.6483 37.3206 83.5043 37.3579 83.3549 37.3819C83.2056 37.4086 83.0576 37.4219 82.9109 37.4219C82.6309 37.4219 82.3723 37.3753 82.1349 37.2819C81.9003 37.1859 81.6963 37.0473 81.5229 36.8659C81.3523 36.6819 81.2189 36.4553 81.1229 36.1859C81.0269 35.9166 80.9789 35.6073 80.9789 35.2579C80.9789 34.9753 81.0216 34.7113 81.1069 34.4659C81.1949 34.2206 81.3203 34.0086 81.4829 33.8299C81.6456 33.6486 81.8443 33.5073 82.0789 33.4059C82.3136 33.3019 82.5776 33.2499 82.8709 33.2499C83.1136 33.2499 83.3376 33.2913 83.5429 33.3739C83.7509 33.4539 83.9296 33.5713 84.0789 33.7259C84.2309 33.8779 84.3496 34.0673 84.4349 34.2939C84.5203 34.5179 84.563 34.7739 84.563 35.0619C84.563 35.1739 84.5509 35.2486 84.5269 35.2859C84.5029 35.3233 84.4576 35.3419 84.3909 35.3419H81.6829C81.6909 35.5979 81.7256 35.8206 81.7869 36.0099C81.8509 36.1993 81.9389 36.3579 82.0509 36.4859C82.1629 36.6113 82.2963 36.7059 82.4509 36.7699C82.6056 36.8313 82.7789 36.8619 82.9709 36.8619C83.1496 36.8619 83.3029 36.8419 83.4309 36.8019C83.5616 36.7593 83.6736 36.7139 83.7669 36.6659C83.8603 36.6179 83.9376 36.5739 83.9989 36.5339C84.0629 36.4913 84.1176 36.4699 84.1629 36.4699C84.2216 36.4699 84.2669 36.4926 84.2989 36.5379L84.4989 36.7979Z" fill="white"/>
</svg>
