<svg width="31" height="12" viewBox="0 0 31 12" fill="none" xmlns="http://www.w3.org/2000/svg">
<g clip-path="url(#clip0_134_440)">
<rect x="0.25" y="0.75" width="30.5" height="10.5" stroke="white" stroke-opacity="0.25" stroke-width="0.5"/>
<path d="M10.0724 3.39399C10.0724 3.48199 10.0457 3.56732 9.99239 3.64999L6.74839 8.20599H10.0244V8.83799H5.72839V8.53399C5.72839 8.49132 5.73506 8.45132 5.74839 8.41399C5.76439 8.37665 5.78306 8.34065 5.80439 8.30599L9.05639 3.73799H5.88039V3.10599H10.0724V3.39399Z" fill="#EEEEEE" fill-opacity="0.5"/>
<path d="M12.4056 4.72199C12.7016 4.72199 12.9682 4.77132 13.2056 4.86999C13.4429 4.96865 13.6456 5.10865 13.8136 5.28999C13.9816 5.47132 14.1096 5.69132 14.1976 5.94999C14.2882 6.20599 14.3336 6.49265 14.3336 6.80999C14.3336 7.12999 14.2882 7.41799 14.1976 7.67399C14.1096 7.92999 13.9816 8.14865 13.8136 8.32999C13.6456 8.51132 13.4429 8.65132 13.2056 8.74999C12.9682 8.84599 12.7016 8.89399 12.4056 8.89399C12.1069 8.89399 11.8376 8.84599 11.5976 8.74999C11.3602 8.65132 11.1576 8.51132 10.9896 8.32999C10.8216 8.14865 10.6922 7.92999 10.6016 7.67399C10.5136 7.41799 10.4696 7.12999 10.4696 6.80999C10.4696 6.49265 10.5136 6.20599 10.6016 5.94999C10.6922 5.69132 10.8216 5.47132 10.9896 5.28999C11.1576 5.10865 11.3602 4.96865 11.5976 4.86999C11.8376 4.77132 12.1069 4.72199 12.4056 4.72199ZM12.4056 8.33799C12.8056 8.33799 13.1042 8.20465 13.3016 7.93799C13.4989 7.66865 13.5976 7.29399 13.5976 6.81399C13.5976 6.33132 13.4989 5.95532 13.3016 5.68599C13.1042 5.41665 12.8056 5.28199 12.4056 5.28199C12.2029 5.28199 12.0256 5.31665 11.8736 5.38599C11.7242 5.45532 11.5989 5.55532 11.4976 5.68599C11.3989 5.81665 11.3242 5.97799 11.2736 6.16999C11.2256 6.35932 11.2016 6.57399 11.2016 6.81399C11.2016 7.29399 11.3002 7.66865 11.4976 7.93799C11.6976 8.20465 12.0002 8.33799 12.4056 8.33799Z" fill="#EEEEEE" fill-opacity="0.5"/>
<path d="M16.9446 4.72199C17.2406 4.72199 17.5073 4.77132 17.7446 4.86999C17.982 4.96865 18.1846 5.10865 18.3526 5.28999C18.5206 5.47132 18.6486 5.69132 18.7366 5.94999C18.8273 6.20599 18.8726 6.49265 18.8726 6.80999C18.8726 7.12999 18.8273 7.41799 18.7366 7.67399C18.6486 7.92999 18.5206 8.14865 18.3526 8.32999C18.1846 8.51132 17.982 8.65132 17.7446 8.74999C17.5073 8.84599 17.2406 8.89399 16.9446 8.89399C16.646 8.89399 16.3766 8.84599 16.1366 8.74999C15.8993 8.65132 15.6966 8.51132 15.5286 8.32999C15.3606 8.14865 15.2313 7.92999 15.1406 7.67399C15.0526 7.41799 15.0086 7.12999 15.0086 6.80999C15.0086 6.49265 15.0526 6.20599 15.1406 5.94999C15.2313 5.69132 15.3606 5.47132 15.5286 5.28999C15.6966 5.10865 15.8993 4.96865 16.1366 4.86999C16.3766 4.77132 16.646 4.72199 16.9446 4.72199ZM16.9446 8.33799C17.3446 8.33799 17.6433 8.20465 17.8406 7.93799C18.038 7.66865 18.1366 7.29399 18.1366 6.81399C18.1366 6.33132 18.038 5.95532 17.8406 5.68599C17.6433 5.41665 17.3446 5.28199 16.9446 5.28199C16.742 5.28199 16.5646 5.31665 16.4126 5.38599C16.2633 5.45532 16.138 5.55532 16.0366 5.68599C15.938 5.81665 15.8633 5.97799 15.8126 6.16999C15.7646 6.35932 15.7406 6.57399 15.7406 6.81399C15.7406 7.29399 15.8393 7.66865 16.0366 7.93799C16.2366 8.20465 16.5393 8.33799 16.9446 8.33799Z" fill="#EEEEEE" fill-opacity="0.5"/>
<path d="M19.7757 8.83799V4.78599H20.2037C20.305 4.78599 20.3677 4.83532 20.3917 4.93399L20.4437 5.34999C20.593 5.16599 20.761 5.01532 20.9477 4.89799C21.1344 4.78065 21.3504 4.72199 21.5957 4.72199C21.8677 4.72199 22.0877 4.79799 22.2557 4.94999C22.4264 5.10199 22.549 5.30732 22.6237 5.56599C22.6824 5.41932 22.757 5.29265 22.8477 5.18599C22.941 5.07932 23.045 4.99132 23.1597 4.92199C23.2744 4.85265 23.3957 4.80199 23.5237 4.76999C23.6544 4.73799 23.7864 4.72199 23.9197 4.72199C24.133 4.72199 24.3224 4.75665 24.4877 4.82599C24.6557 4.89265 24.797 4.99132 24.9117 5.12199C25.029 5.25265 25.1184 5.41399 25.1797 5.60599C25.241 5.79532 25.2717 6.01265 25.2717 6.25799V8.83799H24.5557V6.25799C24.5557 5.94065 24.4864 5.70065 24.3477 5.53799C24.209 5.37265 24.009 5.28999 23.7477 5.28999C23.6304 5.28999 23.5184 5.31132 23.4117 5.35399C23.3077 5.39399 23.2157 5.45399 23.1357 5.53399C23.0557 5.61399 22.9917 5.71532 22.9437 5.83799C22.8984 5.95799 22.8757 6.09799 22.8757 6.25799V8.83799H22.1597V6.25799C22.1597 5.93265 22.0944 5.68999 21.9637 5.52999C21.833 5.36999 21.6424 5.28999 21.3917 5.28999C21.2157 5.28999 21.053 5.33799 20.9037 5.43399C20.7544 5.52732 20.617 5.65532 20.4917 5.81799V8.83799H19.7757Z" fill="#EEEEEE" fill-opacity="0.5"/>
</g>
<defs>
<clipPath id="clip0_134_440">
<rect width="31" height="12" fill="white"/>
</clipPath>
</defs>
</svg>
