<svg width="37" height="12" viewBox="0 0 37 12" fill="none" xmlns="http://www.w3.org/2000/svg">
<g clip-path="url(#clip0_134_433)">
<rect x="0.25" y="0.75" width="36.5" height="10.5" stroke="white" stroke-opacity="0.25" stroke-width="0.5"/>
<path d="M13.9763 4.03003C13.9523 4.07003 13.9256 4.1007 13.8963 4.12203C13.8696 4.1407 13.8363 4.15003 13.7963 4.15003C13.751 4.15003 13.6976 4.12736 13.6363 4.08203C13.575 4.0367 13.4976 3.98736 13.4043 3.93403C13.3136 3.87803 13.203 3.82736 13.0723 3.78203C12.9443 3.7367 12.7883 3.71403 12.6043 3.71403C12.431 3.71403 12.2776 3.73803 12.1443 3.78603C12.0136 3.83136 11.903 3.89403 11.8123 3.97403C11.7243 4.05403 11.6576 4.1487 11.6123 4.25803C11.567 4.3647 11.5443 4.4807 11.5443 4.60603C11.5443 4.76603 11.583 4.89936 11.6603 5.00603C11.7403 5.11003 11.8443 5.19936 11.9723 5.27403C12.103 5.3487 12.2496 5.41403 12.4123 5.47003C12.5776 5.52336 12.7456 5.57936 12.9163 5.63803C13.0896 5.6967 13.2576 5.76336 13.4203 5.83803C13.5856 5.91003 13.7323 6.00203 13.8603 6.11403C13.991 6.22603 14.095 6.36336 14.1723 6.52603C14.2523 6.6887 14.2923 6.8887 14.2923 7.12603C14.2923 7.3767 14.2496 7.6127 14.1643 7.83403C14.079 8.0527 13.9536 8.24336 13.7883 8.40603C13.6256 8.5687 13.4243 8.6967 13.1843 8.79003C12.947 8.88336 12.6763 8.93003 12.3723 8.93003C11.999 8.93003 11.6603 8.86336 11.3563 8.73003C11.0523 8.59403 10.7923 8.41136 10.5763 8.18203L10.8003 7.81403C10.8216 7.7847 10.847 7.7607 10.8763 7.74203C10.9083 7.7207 10.943 7.71003 10.9803 7.71003C11.015 7.71003 11.0536 7.7247 11.0963 7.75403C11.1416 7.7807 11.1923 7.81536 11.2483 7.85803C11.3043 7.9007 11.3683 7.94736 11.4403 7.99803C11.5123 8.0487 11.5936 8.09536 11.6843 8.13803C11.7776 8.1807 11.883 8.2167 12.0003 8.24603C12.1176 8.2727 12.2496 8.28603 12.3963 8.28603C12.5803 8.28603 12.7443 8.2607 12.8883 8.21003C13.0323 8.15936 13.1536 8.0887 13.2523 7.99803C13.3536 7.9047 13.431 7.79403 13.4843 7.66603C13.5376 7.53803 13.5643 7.39536 13.5643 7.23803C13.5643 7.0647 13.5243 6.92336 13.4443 6.81403C13.367 6.70203 13.2643 6.6087 13.1363 6.53403C13.0083 6.45936 12.8616 6.3967 12.6963 6.34603C12.531 6.2927 12.363 6.23936 12.1923 6.18603C12.0216 6.13003 11.8536 6.06603 11.6883 5.99403C11.523 5.92203 11.3763 5.8287 11.2483 5.71403C11.1203 5.59936 11.0163 5.4567 10.9363 5.28603C10.859 5.1127 10.8203 4.89936 10.8203 4.64603C10.8203 4.44336 10.859 4.24736 10.9363 4.05803C11.0163 3.8687 11.131 3.7007 11.2803 3.55403C11.4323 3.40736 11.6176 3.29003 11.8363 3.20203C12.0576 3.11403 12.311 3.07003 12.5963 3.07003C12.9163 3.07003 13.207 3.1207 13.4683 3.22203C13.7323 3.32336 13.9643 3.47003 14.1643 3.66203L13.9763 4.03003Z" fill="#EEEEEE" fill-opacity="0.5"/>
<path d="M17.3614 7.04203C17.0334 7.0527 16.7534 7.07936 16.5214 7.12203C16.292 7.16203 16.104 7.21536 15.9574 7.28203C15.8134 7.3487 15.708 7.42736 15.6414 7.51803C15.5774 7.6087 15.5454 7.71003 15.5454 7.82203C15.5454 7.9287 15.5627 8.0207 15.5974 8.09803C15.632 8.17536 15.6787 8.23936 15.7374 8.29003C15.7987 8.33803 15.8694 8.37403 15.9494 8.39803C16.032 8.41936 16.12 8.43003 16.2134 8.43003C16.3387 8.43003 16.4534 8.41803 16.5574 8.39403C16.6614 8.36736 16.7587 8.33003 16.8494 8.28203C16.9427 8.23403 17.0307 8.1767 17.1134 8.11003C17.1987 8.04336 17.2814 7.96736 17.3614 7.88203V7.04203ZM15.0614 5.38603C15.2854 5.17003 15.5267 5.0087 15.7854 4.90203C16.044 4.79536 16.3307 4.74203 16.6454 4.74203C16.872 4.74203 17.0734 4.77936 17.2494 4.85403C17.4254 4.9287 17.5734 5.0327 17.6934 5.16603C17.8134 5.29936 17.904 5.4607 17.9654 5.65003C18.0267 5.83936 18.0574 6.04736 18.0574 6.27403V8.86603H17.7414C17.672 8.86603 17.6187 8.85536 17.5814 8.83403C17.544 8.81003 17.5147 8.7647 17.4934 8.69803L17.4134 8.31403C17.3067 8.4127 17.2027 8.5007 17.1014 8.57803C17 8.6527 16.8934 8.7167 16.7814 8.77003C16.6694 8.8207 16.5494 8.85936 16.4214 8.88603C16.296 8.91536 16.156 8.93003 16.0014 8.93003C15.844 8.93003 15.696 8.9087 15.5574 8.86603C15.4187 8.8207 15.2974 8.75403 15.1934 8.66603C15.092 8.57803 15.0107 8.46736 14.9494 8.33403C14.8907 8.19803 14.8614 8.03803 14.8614 7.85403C14.8614 7.69403 14.9054 7.5407 14.9934 7.39403C15.0814 7.2447 15.224 7.1127 15.4214 6.99803C15.6187 6.88336 15.876 6.79003 16.1934 6.71803C16.5107 6.64336 16.9 6.6007 17.3614 6.59003V6.27403C17.3614 5.95936 17.2934 5.72203 17.1574 5.56203C17.0214 5.39936 16.8227 5.31803 16.5614 5.31803C16.3854 5.31803 16.2374 5.3407 16.1174 5.38603C16 5.4287 15.8974 5.47803 15.8094 5.53403C15.724 5.58736 15.6494 5.6367 15.5854 5.68203C15.524 5.7247 15.4627 5.74603 15.4014 5.74603C15.3534 5.74603 15.312 5.73403 15.2774 5.71003C15.2427 5.68336 15.2134 5.65136 15.1894 5.61403L15.0614 5.38603Z" fill="#EEEEEE" fill-opacity="0.5"/>
<path d="M22.528 4.81403L20.876 8.86603H20.236L18.584 4.81403H19.164C19.2226 4.81403 19.2706 4.8287 19.308 4.85803C19.3453 4.88736 19.3706 4.92203 19.384 4.96203L20.412 7.57003C20.444 7.6687 20.472 7.7647 20.496 7.85803C20.52 7.95136 20.5426 8.0447 20.564 8.13803C20.5853 8.0447 20.608 7.95136 20.632 7.85803C20.656 7.7647 20.6853 7.6687 20.72 7.57003L21.76 4.96203C21.776 4.91936 21.8026 4.8847 21.84 4.85803C21.8773 4.8287 21.9213 4.81403 21.972 4.81403H22.528Z" fill="#EEEEEE" fill-opacity="0.5"/>
<path d="M25.7836 6.39803C25.7836 6.2327 25.7596 6.08203 25.7116 5.94603C25.6663 5.80736 25.5983 5.6887 25.5076 5.59003C25.4196 5.4887 25.3116 5.41136 25.1836 5.35803C25.0556 5.30203 24.9103 5.27403 24.7476 5.27403C24.4063 5.27403 24.1356 5.37403 23.9356 5.57403C23.7383 5.77136 23.6156 6.04603 23.5676 6.39803H25.7836ZM26.3596 8.29803C26.2716 8.4047 26.1663 8.49803 26.0436 8.57803C25.9209 8.65536 25.7889 8.71936 25.6476 8.77003C25.5089 8.8207 25.3649 8.85803 25.2156 8.88203C25.0663 8.9087 24.9183 8.92203 24.7716 8.92203C24.4916 8.92203 24.2329 8.87536 23.9956 8.78203C23.7609 8.68603 23.5569 8.54736 23.3836 8.36603C23.2129 8.18203 23.0796 7.95536 22.9836 7.68603C22.8876 7.4167 22.8396 7.10736 22.8396 6.75803C22.8396 6.47536 22.8823 6.21136 22.9676 5.96603C23.0556 5.7207 23.1809 5.5087 23.3436 5.33003C23.5063 5.1487 23.7049 5.00736 23.9396 4.90603C24.1743 4.80203 24.4383 4.75003 24.7316 4.75003C24.9743 4.75003 25.1983 4.79136 25.4036 4.87403C25.6116 4.95403 25.7903 5.07136 25.9396 5.22603C26.0916 5.37803 26.2103 5.56736 26.2956 5.79403C26.3809 6.01803 26.4236 6.27403 26.4236 6.56203C26.4236 6.67403 26.4116 6.7487 26.3876 6.78603C26.3636 6.82336 26.3183 6.84203 26.2516 6.84203H23.5436C23.5516 7.09803 23.5863 7.3207 23.6476 7.51003C23.7116 7.69936 23.7996 7.85803 23.9116 7.98603C24.0236 8.11136 24.1569 8.20603 24.3116 8.27003C24.4663 8.33136 24.6396 8.36203 24.8316 8.36203C25.0103 8.36203 25.1636 8.34203 25.2916 8.30203C25.4223 8.25936 25.5343 8.21403 25.6276 8.16603C25.7209 8.11803 25.7983 8.07403 25.8596 8.03403C25.9236 7.99136 25.9783 7.97003 26.0236 7.97003C26.0823 7.97003 26.1276 7.9927 26.1596 8.03803L26.3596 8.29803Z" fill="#EEEEEE" fill-opacity="0.5"/>
</g>
<defs>
<clipPath id="clip0_134_433">
<rect width="37" height="12" fill="white"/>
</clipPath>
</defs>
</svg>
