<svg width="50" height="117" viewBox="0 0 50 117" fill="none" xmlns="http://www.w3.org/2000/svg">
<g clip-path="url(#clip0_108_441)">
<rect x="0.25" y="0.25" width="49.5" height="12.5" fill="black" fill-opacity="0.1" stroke="#B422D9" stroke-width="0.5"/>
<path d="M12.7931 4.23405V6.23805H15.1491V6.87005H12.7931V9.33405H12.0171V3.60205H15.5491V4.23405H12.7931Z" fill="#EEEEEE"/>
<path d="M16.7048 6.09405C16.8328 5.81672 16.9901 5.60072 17.1768 5.44605C17.3634 5.28872 17.5914 5.21005 17.8608 5.21005C17.9461 5.21005 18.0274 5.21938 18.1048 5.23805C18.1848 5.25672 18.2554 5.28605 18.3168 5.32605L18.2648 5.85805C18.2488 5.92472 18.2088 5.95805 18.1448 5.95805C18.1074 5.95805 18.0528 5.95005 17.9808 5.93405C17.9088 5.91805 17.8274 5.91005 17.7368 5.91005C17.6088 5.91005 17.4941 5.92872 17.3928 5.96605C17.2941 6.00338 17.2048 6.05938 17.1248 6.13405C17.0474 6.20605 16.9768 6.29672 16.9128 6.40605C16.8514 6.51272 16.7954 6.63538 16.7448 6.77405V9.33405H16.0288V5.28205H16.4368C16.5141 5.28205 16.5674 5.29672 16.5968 5.32605C16.6261 5.35538 16.6461 5.40605 16.6568 5.47805L16.7048 6.09405Z" fill="#EEEEEE"/>
<path d="M21.4908 6.86605C21.4908 6.70072 21.4668 6.55005 21.4188 6.41405C21.3734 6.27538 21.3054 6.15672 21.2148 6.05805C21.1268 5.95672 21.0188 5.87938 20.8908 5.82605C20.7628 5.77005 20.6174 5.74205 20.4548 5.74205C20.1134 5.74205 19.8428 5.84205 19.6428 6.04205C19.4454 6.23938 19.3228 6.51405 19.2748 6.86605H21.4908ZM22.0668 8.76605C21.9788 8.87272 21.8734 8.96605 21.7508 9.04605C21.6281 9.12338 21.4961 9.18738 21.3548 9.23805C21.2161 9.28872 21.0721 9.32605 20.9228 9.35005C20.7734 9.37672 20.6254 9.39005 20.4788 9.39005C20.1988 9.39005 19.9401 9.34338 19.7028 9.25005C19.4681 9.15405 19.2641 9.01538 19.0908 8.83405C18.9201 8.65005 18.7868 8.42338 18.6908 8.15405C18.5948 7.88472 18.5468 7.57538 18.5468 7.22605C18.5468 6.94338 18.5894 6.67938 18.6748 6.43405C18.7628 6.18872 18.8881 5.97672 19.0508 5.79805C19.2134 5.61672 19.4121 5.47538 19.6468 5.37405C19.8814 5.27005 20.1454 5.21805 20.4388 5.21805C20.6814 5.21805 20.9054 5.25938 21.1108 5.34205C21.3188 5.42205 21.4974 5.53938 21.6468 5.69405C21.7988 5.84605 21.9174 6.03538 22.0028 6.26205C22.0881 6.48605 22.1308 6.74205 22.1308 7.03005C22.1308 7.14205 22.1188 7.21672 22.0948 7.25405C22.0708 7.29138 22.0254 7.31005 21.9588 7.31005H19.2508C19.2588 7.56605 19.2934 7.78872 19.3548 7.97805C19.4188 8.16738 19.5068 8.32605 19.6188 8.45405C19.7308 8.57938 19.8641 8.67405 20.0188 8.73805C20.1734 8.79938 20.3468 8.83005 20.5388 8.83005C20.7174 8.83005 20.8708 8.81005 20.9988 8.77005C21.1294 8.72738 21.2414 8.68205 21.3348 8.63405C21.4281 8.58605 21.5054 8.54205 21.5668 8.50205C21.6308 8.45938 21.6854 8.43805 21.7308 8.43805C21.7894 8.43805 21.8348 8.46072 21.8668 8.50605L22.0668 8.76605Z" fill="#EEEEEE"/>
<path d="M25.7173 6.86605C25.7173 6.70072 25.6933 6.55005 25.6453 6.41405C25.6 6.27538 25.532 6.15672 25.4413 6.05805C25.3533 5.95672 25.2453 5.87938 25.1173 5.82605C24.9893 5.77005 24.844 5.74205 24.6813 5.74205C24.34 5.74205 24.0693 5.84205 23.8693 6.04205C23.672 6.23938 23.5493 6.51405 23.5013 6.86605H25.7173ZM26.2933 8.76605C26.2053 8.87272 26.1 8.96605 25.9773 9.04605C25.8547 9.12338 25.7227 9.18738 25.5813 9.23805C25.4427 9.28872 25.2987 9.32605 25.1493 9.35005C25 9.37672 24.852 9.39005 24.7053 9.39005C24.4253 9.39005 24.1667 9.34338 23.9293 9.25005C23.6947 9.15405 23.4907 9.01538 23.3173 8.83405C23.1467 8.65005 23.0133 8.42338 22.9173 8.15405C22.8213 7.88472 22.7733 7.57538 22.7733 7.22605C22.7733 6.94338 22.816 6.67938 22.9013 6.43405C22.9893 6.18872 23.1147 5.97672 23.2773 5.79805C23.44 5.61672 23.6387 5.47538 23.8733 5.37405C24.108 5.27005 24.372 5.21805 24.6653 5.21805C24.908 5.21805 25.132 5.25938 25.3373 5.34205C25.5453 5.42205 25.724 5.53938 25.8733 5.69405C26.0253 5.84605 26.144 6.03538 26.2293 6.26205C26.3147 6.48605 26.3573 6.74205 26.3573 7.03005C26.3573 7.14205 26.3453 7.21672 26.3213 7.25405C26.2973 7.29138 26.252 7.31005 26.1853 7.31005H23.4773C23.4853 7.56605 23.52 7.78872 23.5813 7.97805C23.6453 8.16738 23.7333 8.32605 23.8453 8.45405C23.9573 8.57938 24.0907 8.67405 24.2453 8.73805C24.4 8.79938 24.5733 8.83005 24.7653 8.83005C24.944 8.83005 25.0973 8.81005 25.2253 8.77005C25.356 8.72738 25.468 8.68205 25.5613 8.63405C25.6547 8.58605 25.732 8.54205 25.7933 8.50205C25.8573 8.45938 25.912 8.43805 25.9573 8.43805C26.016 8.43805 26.0613 8.46072 26.0933 8.50605L26.2933 8.76605Z" fill="#EEEEEE"/>
<path d="M27.9079 6.09405C28.0359 5.81672 28.1932 5.60072 28.3799 5.44605C28.5666 5.28872 28.7946 5.21005 29.0639 5.21005C29.1492 5.21005 29.2306 5.21938 29.3079 5.23805C29.3879 5.25672 29.4586 5.28605 29.5199 5.32605L29.4679 5.85805C29.4519 5.92472 29.4119 5.95805 29.3479 5.95805C29.3106 5.95805 29.2559 5.95005 29.1839 5.93405C29.1119 5.91805 29.0306 5.91005 28.9399 5.91005C28.8119 5.91005 28.6972 5.92872 28.5959 5.96605C28.4972 6.00338 28.4079 6.05938 28.3279 6.13405C28.2506 6.20605 28.1799 6.29672 28.1159 6.40605C28.0546 6.51272 27.9986 6.63538 27.9479 6.77405V9.33405H27.2319V5.28205H27.6399C27.7172 5.28205 27.7706 5.29672 27.7999 5.32605C27.8292 5.35538 27.8492 5.40605 27.8599 5.47805L27.9079 6.09405Z" fill="#EEEEEE"/>
<path d="M33.478 5.28205V9.33405H33.054C32.9526 9.33405 32.8886 9.28472 32.862 9.18605L32.806 8.75005C32.63 8.94472 32.4326 9.10205 32.214 9.22205C31.9953 9.33938 31.7446 9.39805 31.462 9.39805C31.2406 9.39805 31.0446 9.36205 30.874 9.29005C30.706 9.21538 30.5646 9.11138 30.45 8.97805C30.3353 8.84472 30.2486 8.68338 30.19 8.49405C30.134 8.30472 30.106 8.09538 30.106 7.86605V5.28205H30.818V7.86605C30.818 8.17272 30.8873 8.41005 31.026 8.57805C31.1673 8.74605 31.382 8.83005 31.67 8.83005C31.8806 8.83005 32.0766 8.78072 32.258 8.68205C32.442 8.58072 32.6113 8.44205 32.766 8.26605V5.28205H33.478Z" fill="#EEEEEE"/>
<path d="M35.2789 5.87005C35.3669 5.77138 35.4602 5.68205 35.5589 5.60205C35.6576 5.52205 35.7616 5.45405 35.8709 5.39805C35.9829 5.33938 36.1002 5.29538 36.2229 5.26605C36.3482 5.23405 36.4829 5.21805 36.6269 5.21805C36.8482 5.21805 37.0429 5.25538 37.2109 5.33005C37.3816 5.40205 37.5229 5.50605 37.6349 5.64205C37.7496 5.77538 37.8362 5.93672 37.8949 6.12605C37.9536 6.31538 37.9829 6.52472 37.9829 6.75405V9.33405H37.2669V6.75405C37.2669 6.44738 37.1962 6.21005 37.0549 6.04205C36.9162 5.87138 36.7042 5.78605 36.4189 5.78605C36.2082 5.78605 36.0109 5.83672 35.8269 5.93805C35.6456 6.03938 35.4776 6.17672 35.3229 6.35005V9.33405H34.6069V5.28205H35.0349C35.1362 5.28205 35.1989 5.33138 35.2229 5.43005L35.2789 5.87005Z" fill="#EEEEEE"/>
<path d="M8.00882 19.216H8.30082C8.40215 19.216 8.48348 19.204 8.54482 19.18C8.60615 19.1533 8.66215 19.1093 8.71282 19.048L10.6208 16.888C10.6741 16.8187 10.7301 16.7707 10.7888 16.744C10.8475 16.7173 10.9195 16.704 11.0048 16.704H11.6608L9.47682 19.172C9.42348 19.236 9.37148 19.2893 9.32082 19.332C9.27282 19.372 9.22082 19.4053 9.16482 19.432C9.23682 19.456 9.30215 19.492 9.36082 19.54C9.41948 19.5853 9.47682 19.6453 9.53282 19.72L11.8128 22.436H11.1408C11.0901 22.436 11.0461 22.4333 11.0088 22.428C10.9741 22.42 10.9435 22.4093 10.9168 22.396C10.8901 22.38 10.8661 22.3627 10.8448 22.344C10.8261 22.3227 10.8075 22.2987 10.7888 22.272L8.81282 19.996C8.75948 19.9293 8.70215 19.8827 8.64082 19.856C8.57948 19.8267 8.48615 19.812 8.36082 19.812H8.00882V22.436H7.23682V16.704H8.00882V19.216Z" fill="#EEEEEE" fill-opacity="0.5"/>
<path d="M14.773 19.968C14.773 19.8027 14.749 19.652 14.701 19.516C14.6557 19.3773 14.5877 19.2587 14.497 19.16C14.409 19.0587 14.301 18.9813 14.173 18.928C14.045 18.872 13.8997 18.844 13.737 18.844C13.3957 18.844 13.125 18.944 12.925 19.144C12.7277 19.3413 12.605 19.616 12.557 19.968H14.773ZM15.349 21.868C15.261 21.9747 15.1557 22.068 15.033 22.148C14.9103 22.2253 14.7783 22.2893 14.637 22.34C14.4983 22.3907 14.3543 22.428 14.205 22.452C14.0557 22.4787 13.9077 22.492 13.761 22.492C13.481 22.492 13.2223 22.4453 12.985 22.352C12.7503 22.256 12.5463 22.1173 12.373 21.936C12.2023 21.752 12.069 21.5253 11.973 21.256C11.877 20.9867 11.829 20.6773 11.829 20.328C11.829 20.0453 11.8717 19.7813 11.957 19.536C12.045 19.2907 12.1703 19.0787 12.333 18.9C12.4957 18.7187 12.6943 18.5773 12.929 18.476C13.1637 18.372 13.4277 18.32 13.721 18.32C13.9637 18.32 14.1877 18.3613 14.393 18.444C14.601 18.524 14.7797 18.6413 14.929 18.796C15.081 18.948 15.1997 19.1373 15.285 19.364C15.3703 19.588 15.413 19.844 15.413 20.132C15.413 20.244 15.401 20.3187 15.377 20.356C15.353 20.3933 15.3077 20.412 15.241 20.412H12.533C12.541 20.668 12.5757 20.8907 12.637 21.08C12.701 21.2693 12.789 21.428 12.901 21.556C13.013 21.6813 13.1463 21.776 13.301 21.84C13.4557 21.9013 13.629 21.932 13.821 21.932C13.9997 21.932 14.153 21.912 14.281 21.872C14.4117 21.8293 14.5237 21.784 14.617 21.736C14.7103 21.688 14.7877 21.644 14.849 21.604C14.913 21.5613 14.9677 21.54 15.013 21.54C15.0717 21.54 15.117 21.5627 15.149 21.608L15.349 21.868Z" fill="#EEEEEE" fill-opacity="0.5"/>
<path d="M19.682 18.384L17.422 23.632C17.398 23.6853 17.3673 23.728 17.33 23.76C17.2953 23.792 17.2407 23.808 17.166 23.808H16.638L17.378 22.2L15.706 18.384H16.322C16.3833 18.384 16.4313 18.4 16.466 18.432C16.5033 18.4613 16.5287 18.4947 16.542 18.532L17.626 21.084C17.6687 21.196 17.7047 21.3133 17.734 21.436C17.7713 21.3107 17.8113 21.192 17.854 21.08L18.906 18.532C18.922 18.4893 18.9487 18.4547 18.986 18.428C19.026 18.3987 19.07 18.384 19.118 18.384H19.682Z" fill="#EEEEEE" fill-opacity="0.5"/>
<path d="M21.555 22.5C21.235 22.5 20.9883 22.4107 20.815 22.232C20.6443 22.0533 20.559 21.796 20.559 21.46V18.98H20.071C20.0283 18.98 19.9923 18.968 19.963 18.944C19.9337 18.9173 19.919 18.8773 19.919 18.824V18.54L20.583 18.456L20.747 17.204C20.755 17.164 20.7723 17.132 20.799 17.108C20.8283 17.0813 20.8657 17.068 20.911 17.068H21.271V18.464H22.443V18.98H21.271V21.412C21.271 21.5827 21.3123 21.7093 21.395 21.792C21.4777 21.8747 21.5843 21.916 21.715 21.916C21.7897 21.916 21.8537 21.9067 21.907 21.888C21.963 21.8667 22.011 21.844 22.051 21.82C22.091 21.796 22.1243 21.7747 22.151 21.756C22.1803 21.7347 22.2057 21.724 22.227 21.724C22.2643 21.724 22.2977 21.7467 22.327 21.792L22.535 22.132C22.4123 22.2467 22.2643 22.3373 22.091 22.404C21.9177 22.468 21.739 22.5 21.555 22.5Z" fill="#EEEEEE" fill-opacity="0.5"/>
<path d="M23.8542 19.196C23.9822 18.9187 24.1395 18.7027 24.3262 18.548C24.5129 18.3907 24.7409 18.312 25.0102 18.312C25.0955 18.312 25.1769 18.3213 25.2542 18.34C25.3342 18.3587 25.4049 18.388 25.4662 18.428L25.4142 18.96C25.3982 19.0267 25.3582 19.06 25.2942 19.06C25.2569 19.06 25.2022 19.052 25.1302 19.036C25.0582 19.02 24.9769 19.012 24.8862 19.012C24.7582 19.012 24.6435 19.0307 24.5422 19.068C24.4435 19.1053 24.3542 19.1613 24.2742 19.236C24.1969 19.308 24.1262 19.3987 24.0622 19.508C24.0009 19.6147 23.9449 19.7373 23.8942 19.876V22.436H23.1782V18.384H23.5862C23.6635 18.384 23.7169 18.3987 23.7462 18.428C23.7755 18.4573 23.7955 18.508 23.8062 18.58L23.8542 19.196Z" fill="#EEEEEE" fill-opacity="0.5"/>
<path d="M26.8443 18.384V22.436H26.1323V18.384H26.8443ZM26.9963 17.112C26.9963 17.1813 26.9816 17.2467 26.9523 17.308C26.9256 17.3667 26.8883 17.42 26.8403 17.468C26.7949 17.5133 26.7403 17.5493 26.6763 17.576C26.6149 17.6027 26.5496 17.616 26.4803 17.616C26.4109 17.616 26.3456 17.6027 26.2843 17.576C26.2256 17.5493 26.1736 17.5133 26.1283 17.468C26.0829 17.42 26.0469 17.3667 26.0203 17.308C25.9936 17.2467 25.9803 17.1813 25.9803 17.112C25.9803 17.0427 25.9936 16.9773 26.0203 16.916C26.0469 16.852 26.0829 16.7973 26.1283 16.752C26.1736 16.704 26.2256 16.6667 26.2843 16.64C26.3456 16.6133 26.4109 16.6 26.4803 16.6C26.5496 16.6 26.6149 16.6133 26.6763 16.64C26.7403 16.6667 26.7949 16.704 26.8403 16.752C26.8883 16.7973 26.9256 16.852 26.9523 16.916C26.9816 16.9773 26.9963 17.0427 26.9963 17.112Z" fill="#EEEEEE" fill-opacity="0.5"/>
<path d="M29.4261 20.456C29.5701 20.456 29.6968 20.436 29.8061 20.396C29.9155 20.356 30.0075 20.3 30.0821 20.228C30.1568 20.156 30.2128 20.0707 30.2501 19.972C30.2875 19.8707 30.3061 19.76 30.3061 19.64C30.3061 19.392 30.2301 19.1947 30.0781 19.048C29.9288 18.9013 29.7115 18.828 29.4261 18.828C29.1381 18.828 28.9181 18.9013 28.7661 19.048C28.6168 19.1947 28.5421 19.392 28.5421 19.64C28.5421 19.76 28.5608 19.8707 28.5981 19.972C28.6381 20.0707 28.6955 20.156 28.7701 20.228C28.8448 20.3 28.9368 20.356 29.0461 20.396C29.1555 20.436 29.2821 20.456 29.4261 20.456ZM30.7101 22.656C30.7101 22.5573 30.6821 22.4773 30.6261 22.416C30.5701 22.3547 30.4941 22.3067 30.3981 22.272C30.3048 22.2373 30.1955 22.2133 30.0701 22.2C29.9448 22.184 29.8115 22.172 29.6701 22.164C29.5315 22.156 29.3901 22.148 29.2461 22.14C29.1021 22.132 28.9635 22.1187 28.8301 22.1C28.6808 22.1693 28.5581 22.2573 28.4621 22.364C28.3688 22.468 28.3221 22.5907 28.3221 22.732C28.3221 22.8227 28.3448 22.9067 28.3901 22.984C28.4381 23.064 28.5101 23.132 28.6061 23.188C28.7021 23.2467 28.8221 23.292 28.9661 23.324C29.1128 23.3587 29.2848 23.376 29.4821 23.376C29.6741 23.376 29.8461 23.3587 29.9981 23.324C30.1501 23.2893 30.2781 23.24 30.3821 23.176C30.4888 23.112 30.5701 23.036 30.6261 22.948C30.6821 22.86 30.7101 22.7627 30.7101 22.656ZM31.4341 18.544V18.808C31.4341 18.896 31.3781 18.952 31.2661 18.976L30.8061 19.036C30.8968 19.212 30.9421 19.4067 30.9421 19.62C30.9421 19.8173 30.9035 19.9973 30.8261 20.16C30.7515 20.32 30.6475 20.4573 30.5141 20.572C30.3808 20.6867 30.2208 20.7747 30.0341 20.836C29.8475 20.8973 29.6448 20.928 29.4261 20.928C29.2368 20.928 29.0581 20.9053 28.8901 20.86C28.8048 20.9133 28.7395 20.9707 28.6941 21.032C28.6488 21.0907 28.6261 21.1507 28.6261 21.212C28.6261 21.308 28.6648 21.3813 28.7421 21.432C28.8221 21.48 28.9261 21.5147 29.0541 21.536C29.1821 21.5573 29.3275 21.5707 29.4901 21.576C29.6555 21.5813 29.8235 21.5907 29.9941 21.604C30.1675 21.6147 30.3355 21.6347 30.4981 21.664C30.6635 21.6933 30.8101 21.7413 30.9381 21.808C31.0661 21.8747 31.1688 21.9667 31.2461 22.084C31.3261 22.2013 31.3661 22.3533 31.3661 22.54C31.3661 22.7133 31.3221 22.8813 31.2341 23.044C31.1488 23.2067 31.0248 23.3507 30.8621 23.476C30.6995 23.604 30.4995 23.7053 30.2621 23.78C30.0275 23.8573 29.7621 23.896 29.4661 23.896C29.1701 23.896 28.9115 23.8667 28.6901 23.808C28.4688 23.7493 28.2848 23.6707 28.1381 23.572C27.9915 23.4733 27.8808 23.3587 27.8061 23.228C27.7341 23.1 27.6981 22.9653 27.6981 22.824C27.6981 22.624 27.7608 22.4547 27.8861 22.316C28.0115 22.1773 28.1835 22.0667 28.4021 21.984C28.2821 21.9307 28.1861 21.86 28.1141 21.772C28.0448 21.6813 28.0101 21.56 28.0101 21.408C28.0101 21.3493 28.0208 21.2893 28.0421 21.228C28.0635 21.164 28.0955 21.1013 28.1381 21.04C28.1835 20.976 28.2381 20.916 28.3021 20.86C28.3661 20.804 28.4408 20.7547 28.5261 20.712C28.3261 20.6 28.1701 20.452 28.0581 20.268C27.9461 20.0813 27.8901 19.8653 27.8901 19.62C27.8901 19.4227 27.9275 19.244 28.0021 19.084C28.0795 18.9213 28.1861 18.784 28.3221 18.672C28.4581 18.5573 28.6195 18.4693 28.8061 18.408C28.9955 18.3467 29.2021 18.316 29.4261 18.316C29.6021 18.316 29.7661 18.336 29.9181 18.376C30.0701 18.4133 30.2088 18.4693 30.3341 18.544H31.4341Z" fill="#EEEEEE" fill-opacity="0.5"/>
<path d="M33.5668 20.456C33.7108 20.456 33.8374 20.436 33.9468 20.396C34.0561 20.356 34.1481 20.3 34.2228 20.228C34.2974 20.156 34.3534 20.0707 34.3908 19.972C34.4281 19.8707 34.4468 19.76 34.4468 19.64C34.4468 19.392 34.3708 19.1947 34.2188 19.048C34.0694 18.9013 33.8521 18.828 33.5668 18.828C33.2788 18.828 33.0588 18.9013 32.9068 19.048C32.7574 19.1947 32.6828 19.392 32.6828 19.64C32.6828 19.76 32.7014 19.8707 32.7388 19.972C32.7788 20.0707 32.8361 20.156 32.9108 20.228C32.9854 20.3 33.0774 20.356 33.1868 20.396C33.2961 20.436 33.4228 20.456 33.5668 20.456ZM34.8508 22.656C34.8508 22.5573 34.8228 22.4773 34.7668 22.416C34.7108 22.3547 34.6348 22.3067 34.5388 22.272C34.4454 22.2373 34.3361 22.2133 34.2108 22.2C34.0854 22.184 33.9521 22.172 33.8108 22.164C33.6721 22.156 33.5308 22.148 33.3868 22.14C33.2428 22.132 33.1041 22.1187 32.9708 22.1C32.8214 22.1693 32.6988 22.2573 32.6028 22.364C32.5094 22.468 32.4628 22.5907 32.4628 22.732C32.4628 22.8227 32.4854 22.9067 32.5308 22.984C32.5788 23.064 32.6508 23.132 32.7468 23.188C32.8428 23.2467 32.9628 23.292 33.1068 23.324C33.2534 23.3587 33.4254 23.376 33.6228 23.376C33.8148 23.376 33.9868 23.3587 34.1388 23.324C34.2908 23.2893 34.4188 23.24 34.5228 23.176C34.6294 23.112 34.7108 23.036 34.7668 22.948C34.8228 22.86 34.8508 22.7627 34.8508 22.656ZM35.5748 18.544V18.808C35.5748 18.896 35.5188 18.952 35.4068 18.976L34.9468 19.036C35.0374 19.212 35.0828 19.4067 35.0828 19.62C35.0828 19.8173 35.0441 19.9973 34.9668 20.16C34.8921 20.32 34.7881 20.4573 34.6548 20.572C34.5214 20.6867 34.3614 20.7747 34.1748 20.836C33.9881 20.8973 33.7854 20.928 33.5668 20.928C33.3774 20.928 33.1988 20.9053 33.0308 20.86C32.9454 20.9133 32.8801 20.9707 32.8348 21.032C32.7894 21.0907 32.7668 21.1507 32.7668 21.212C32.7668 21.308 32.8054 21.3813 32.8828 21.432C32.9628 21.48 33.0668 21.5147 33.1948 21.536C33.3228 21.5573 33.4681 21.5707 33.6308 21.576C33.7961 21.5813 33.9641 21.5907 34.1348 21.604C34.3081 21.6147 34.4761 21.6347 34.6388 21.664C34.8041 21.6933 34.9508 21.7413 35.0788 21.808C35.2068 21.8747 35.3094 21.9667 35.3868 22.084C35.4668 22.2013 35.5068 22.3533 35.5068 22.54C35.5068 22.7133 35.4628 22.8813 35.3748 23.044C35.2894 23.2067 35.1654 23.3507 35.0028 23.476C34.8401 23.604 34.6401 23.7053 34.4028 23.78C34.1681 23.8573 33.9028 23.896 33.6068 23.896C33.3108 23.896 33.0521 23.8667 32.8308 23.808C32.6094 23.7493 32.4254 23.6707 32.2788 23.572C32.1321 23.4733 32.0214 23.3587 31.9468 23.228C31.8748 23.1 31.8388 22.9653 31.8388 22.824C31.8388 22.624 31.9014 22.4547 32.0268 22.316C32.1521 22.1773 32.3241 22.0667 32.5428 21.984C32.4228 21.9307 32.3268 21.86 32.2548 21.772C32.1854 21.6813 32.1508 21.56 32.1508 21.408C32.1508 21.3493 32.1614 21.2893 32.1828 21.228C32.2041 21.164 32.2361 21.1013 32.2788 21.04C32.3241 20.976 32.3788 20.916 32.4428 20.86C32.5068 20.804 32.5814 20.7547 32.6668 20.712C32.4668 20.6 32.3108 20.452 32.1988 20.268C32.0868 20.0813 32.0308 19.8653 32.0308 19.62C32.0308 19.4227 32.0681 19.244 32.1428 19.084C32.2201 18.9213 32.3268 18.784 32.4628 18.672C32.5988 18.5573 32.7601 18.4693 32.9468 18.408C33.1361 18.3467 33.3428 18.316 33.5668 18.316C33.7428 18.316 33.9068 18.336 34.0588 18.376C34.2108 18.4133 34.3494 18.4693 34.4748 18.544H35.5748Z" fill="#EEEEEE" fill-opacity="0.5"/>
<path d="M38.9605 19.968C38.9605 19.8027 38.9365 19.652 38.8885 19.516C38.8432 19.3773 38.7752 19.2587 38.6845 19.16C38.5965 19.0587 38.4885 18.9813 38.3605 18.928C38.2325 18.872 38.0872 18.844 37.9245 18.844C37.5832 18.844 37.3125 18.944 37.1125 19.144C36.9152 19.3413 36.7925 19.616 36.7445 19.968H38.9605ZM39.5365 21.868C39.4485 21.9747 39.3432 22.068 39.2205 22.148C39.0978 22.2253 38.9658 22.2893 38.8245 22.34C38.6858 22.3907 38.5418 22.428 38.3925 22.452C38.2432 22.4787 38.0952 22.492 37.9485 22.492C37.6685 22.492 37.4098 22.4453 37.1725 22.352C36.9378 22.256 36.7338 22.1173 36.5605 21.936C36.3898 21.752 36.2565 21.5253 36.1605 21.256C36.0645 20.9867 36.0165 20.6773 36.0165 20.328C36.0165 20.0453 36.0592 19.7813 36.1445 19.536C36.2325 19.2907 36.3578 19.0787 36.5205 18.9C36.6832 18.7187 36.8818 18.5773 37.1165 18.476C37.3512 18.372 37.6152 18.32 37.9085 18.32C38.1512 18.32 38.3752 18.3613 38.5805 18.444C38.7885 18.524 38.9672 18.6413 39.1165 18.796C39.2685 18.948 39.3872 19.1373 39.4725 19.364C39.5578 19.588 39.6005 19.844 39.6005 20.132C39.6005 20.244 39.5885 20.3187 39.5645 20.356C39.5405 20.3933 39.4952 20.412 39.4285 20.412H36.7205C36.7285 20.668 36.7632 20.8907 36.8245 21.08C36.8885 21.2693 36.9765 21.428 37.0885 21.556C37.2005 21.6813 37.3338 21.776 37.4885 21.84C37.6432 21.9013 37.8165 21.932 38.0085 21.932C38.1872 21.932 38.3405 21.912 38.4685 21.872C38.5992 21.8293 38.7112 21.784 38.8045 21.736C38.8978 21.688 38.9752 21.644 39.0365 21.604C39.1005 21.5613 39.1552 21.54 39.2005 21.54C39.2592 21.54 39.3045 21.5627 39.3365 21.608L39.5365 21.868Z" fill="#EEEEEE" fill-opacity="0.5"/>
<path d="M41.1511 19.196C41.2791 18.9187 41.4364 18.7027 41.6231 18.548C41.8097 18.3907 42.0377 18.312 42.3071 18.312C42.3924 18.312 42.4737 18.3213 42.5511 18.34C42.6311 18.3587 42.7017 18.388 42.7631 18.428L42.7111 18.96C42.6951 19.0267 42.6551 19.06 42.5911 19.06C42.5537 19.06 42.4991 19.052 42.4271 19.036C42.3551 19.02 42.2737 19.012 42.1831 19.012C42.0551 19.012 41.9404 19.0307 41.8391 19.068C41.7404 19.1053 41.6511 19.1613 41.5711 19.236C41.4937 19.308 41.4231 19.3987 41.3591 19.508C41.2977 19.6147 41.2417 19.7373 41.1911 19.876V22.436H40.4751V18.384H40.8831C40.9604 18.384 41.0137 18.3987 41.0431 18.428C41.0724 18.4573 41.0924 18.508 41.1031 18.58L41.1511 19.196Z" fill="#EEEEEE" fill-opacity="0.5"/>
<path d="M12.7208 32.536C12.9448 32.536 13.1421 32.5093 13.3128 32.456C13.4861 32.4 13.6301 32.3227 13.7448 32.224C13.8621 32.1227 13.9501 32.0027 14.0088 31.864C14.0675 31.7253 14.0968 31.572 14.0968 31.404C14.0968 31.0627 13.9848 30.8053 13.7608 30.632C13.5368 30.4587 13.2008 30.372 12.7528 30.372H11.9048V32.536H12.7208ZM15.3688 35.492H14.6808C14.5395 35.492 14.4355 35.4373 14.3688 35.328L12.8808 33.28C12.8355 33.216 12.7861 33.1707 12.7328 33.144C12.6821 33.1147 12.6021 33.1 12.4928 33.1H11.9048V35.492H11.1328V29.76H12.7528C13.1155 29.76 13.4288 29.7973 13.6928 29.872C13.9568 29.944 14.1741 30.0493 14.3448 30.188C14.5181 30.3267 14.6461 30.4947 14.7288 30.692C14.8115 30.8867 14.8528 31.1053 14.8528 31.348C14.8528 31.5507 14.8208 31.74 14.7568 31.916C14.6928 32.092 14.5995 32.2507 14.4768 32.392C14.3568 32.5307 14.2088 32.6493 14.0328 32.748C13.8595 32.8467 13.6621 32.9213 13.4408 32.972C13.5395 33.028 13.6248 33.1093 13.6968 33.216L15.3688 35.492Z" fill="#EEEEEE" fill-opacity="0.5"/>
<path d="M18.1139 33.668C17.7859 33.6787 17.5059 33.7053 17.2739 33.748C17.0446 33.788 16.8566 33.8413 16.7099 33.908C16.5659 33.9747 16.4606 34.0533 16.3939 34.144C16.3299 34.2347 16.2979 34.336 16.2979 34.448C16.2979 34.5547 16.3153 34.6467 16.3499 34.724C16.3846 34.8013 16.4313 34.8653 16.4899 34.916C16.5513 34.964 16.6219 35 16.7019 35.024C16.7846 35.0453 16.8726 35.056 16.9659 35.056C17.0913 35.056 17.2059 35.044 17.3099 35.02C17.4139 34.9933 17.5113 34.956 17.6019 34.908C17.6953 34.86 17.7833 34.8027 17.8659 34.736C17.9513 34.6693 18.0339 34.5933 18.1139 34.508V33.668ZM15.8139 32.012C16.0379 31.796 16.2793 31.6347 16.5379 31.528C16.7966 31.4213 17.0833 31.368 17.3979 31.368C17.6246 31.368 17.8259 31.4053 18.0019 31.48C18.1779 31.5547 18.3259 31.6587 18.4459 31.792C18.5659 31.9253 18.6566 32.0867 18.7179 32.276C18.7793 32.4653 18.8099 32.6733 18.8099 32.9V35.492H18.4939C18.4246 35.492 18.3713 35.4813 18.3339 35.46C18.2966 35.436 18.2673 35.3907 18.2459 35.324L18.1659 34.94C18.0593 35.0387 17.9553 35.1267 17.8539 35.204C17.7526 35.2787 17.6459 35.3427 17.5339 35.396C17.4219 35.4467 17.3019 35.4853 17.1739 35.512C17.0486 35.5413 16.9086 35.556 16.7539 35.556C16.5966 35.556 16.4486 35.5347 16.3099 35.492C16.1713 35.4467 16.0499 35.38 15.9459 35.292C15.8446 35.204 15.7633 35.0933 15.7019 34.96C15.6433 34.824 15.6139 34.664 15.6139 34.48C15.6139 34.32 15.6579 34.1667 15.7459 34.02C15.8339 33.8707 15.9766 33.7387 16.1739 33.624C16.3713 33.5093 16.6286 33.416 16.9459 33.344C17.2633 33.2693 17.6526 33.2267 18.1139 33.216V32.9C18.1139 32.5853 18.0459 32.348 17.9099 32.188C17.7739 32.0253 17.5753 31.944 17.3139 31.944C17.1379 31.944 16.9899 31.9667 16.8699 32.012C16.7526 32.0547 16.6499 32.104 16.5619 32.16C16.4766 32.2133 16.4019 32.2627 16.3379 32.308C16.2766 32.3507 16.2153 32.372 16.1539 32.372C16.1059 32.372 16.0646 32.36 16.0299 32.336C15.9953 32.3093 15.9659 32.2773 15.9419 32.24L15.8139 32.012Z" fill="#EEEEEE" fill-opacity="0.5"/>
<path d="M20.5665 32.028C20.6545 31.9293 20.7478 31.84 20.8465 31.76C20.9452 31.68 21.0492 31.612 21.1585 31.556C21.2705 31.4973 21.3878 31.4533 21.5105 31.424C21.6358 31.392 21.7705 31.376 21.9145 31.376C22.1358 31.376 22.3305 31.4133 22.4985 31.488C22.6692 31.56 22.8105 31.664 22.9225 31.8C23.0372 31.9333 23.1238 32.0947 23.1825 32.284C23.2412 32.4733 23.2705 32.6827 23.2705 32.912V35.492H22.5545V32.912C22.5545 32.6053 22.4838 32.368 22.3425 32.2C22.2038 32.0293 21.9918 31.944 21.7065 31.944C21.4958 31.944 21.2985 31.9947 21.1145 32.096C20.9332 32.1973 20.7652 32.3347 20.6105 32.508V35.492H19.8945V31.44H20.3225C20.4238 31.44 20.4865 31.4893 20.5105 31.588L20.5665 32.028Z" fill="#EEEEEE" fill-opacity="0.5"/>
<path d="M26.9954 32.404C26.8621 32.2253 26.7181 32.1013 26.5634 32.032C26.4088 31.96 26.2354 31.924 26.0434 31.924C25.6674 31.924 25.3781 32.0587 25.1754 32.328C24.9728 32.5973 24.8714 32.9813 24.8714 33.48C24.8714 33.744 24.8941 33.9707 24.9394 34.16C24.9848 34.3467 25.0514 34.5013 25.1394 34.624C25.2274 34.744 25.3354 34.832 25.4634 34.888C25.5914 34.944 25.7368 34.972 25.8994 34.972C26.1341 34.972 26.3381 34.9187 26.5114 34.812C26.6874 34.7053 26.8488 34.5547 26.9954 34.36V32.404ZM27.7074 29.6V35.492H27.2834C27.1821 35.492 27.1181 35.4427 27.0914 35.344L27.0274 34.852C26.8541 35.06 26.6568 35.228 26.4354 35.356C26.2141 35.484 25.9581 35.548 25.6674 35.548C25.4354 35.548 25.2248 35.504 25.0354 35.416C24.8461 35.3253 24.6848 35.1933 24.5514 35.02C24.4181 34.8467 24.3154 34.6307 24.2434 34.372C24.1714 34.1133 24.1354 33.816 24.1354 33.48C24.1354 33.1813 24.1754 32.904 24.2554 32.648C24.3354 32.3893 24.4501 32.1653 24.5994 31.976C24.7488 31.7867 24.9314 31.6387 25.1474 31.532C25.3661 31.4227 25.6114 31.368 25.8834 31.368C26.1314 31.368 26.3434 31.4107 26.5194 31.496C26.6981 31.5787 26.8568 31.6947 26.9954 31.844V29.6H27.7074Z" fill="#EEEEEE" fill-opacity="0.5"/>
<path d="M30.54 31.376C30.836 31.376 31.1027 31.4253 31.34 31.524C31.5773 31.6227 31.78 31.7627 31.948 31.944C32.116 32.1253 32.244 32.3453 32.332 32.604C32.4227 32.86 32.468 33.1467 32.468 33.464C32.468 33.784 32.4227 34.072 32.332 34.328C32.244 34.584 32.116 34.8027 31.948 34.984C31.78 35.1653 31.5773 35.3053 31.34 35.404C31.1027 35.5 30.836 35.548 30.54 35.548C30.2413 35.548 29.972 35.5 29.732 35.404C29.4947 35.3053 29.292 35.1653 29.124 34.984C28.956 34.8027 28.8267 34.584 28.736 34.328C28.648 34.072 28.604 33.784 28.604 33.464C28.604 33.1467 28.648 32.86 28.736 32.604C28.8267 32.3453 28.956 32.1253 29.124 31.944C29.292 31.7627 29.4947 31.6227 29.732 31.524C29.972 31.4253 30.2413 31.376 30.54 31.376ZM30.54 34.992C30.94 34.992 31.2387 34.8587 31.436 34.592C31.6333 34.3227 31.732 33.948 31.732 33.468C31.732 32.9853 31.6333 32.6093 31.436 32.34C31.2387 32.0707 30.94 31.936 30.54 31.936C30.3373 31.936 30.16 31.9707 30.008 32.04C29.8587 32.1093 29.7333 32.2093 29.632 32.34C29.5333 32.4707 29.4587 32.632 29.408 32.824C29.36 33.0133 29.336 33.228 29.336 33.468C29.336 33.948 29.4347 34.3227 29.632 34.592C29.832 34.8587 30.1347 34.992 30.54 34.992Z" fill="#EEEEEE" fill-opacity="0.5"/>
<path d="M33.3711 35.492V31.44H33.7991C33.9004 31.44 33.9631 31.4893 33.9871 31.588L34.0391 32.004C34.1884 31.82 34.3564 31.6693 34.5431 31.552C34.7297 31.4347 34.9457 31.376 35.1911 31.376C35.4631 31.376 35.6831 31.452 35.8511 31.604C36.0217 31.756 36.1444 31.9613 36.2191 32.22C36.2777 32.0733 36.3524 31.9467 36.4431 31.84C36.5364 31.7333 36.6404 31.6453 36.7551 31.576C36.8697 31.5067 36.9911 31.456 37.1191 31.424C37.2497 31.392 37.3817 31.376 37.5151 31.376C37.7284 31.376 37.9177 31.4107 38.0831 31.48C38.2511 31.5467 38.3924 31.6453 38.5071 31.776C38.6244 31.9067 38.7137 32.068 38.7751 32.26C38.8364 32.4493 38.8671 32.6667 38.8671 32.912V35.492H38.1511V32.912C38.1511 32.5947 38.0817 32.3547 37.9431 32.192C37.8044 32.0267 37.6044 31.944 37.3431 31.944C37.2257 31.944 37.1137 31.9653 37.0071 32.008C36.9031 32.048 36.8111 32.108 36.7311 32.188C36.6511 32.268 36.5871 32.3693 36.5391 32.492C36.4937 32.612 36.4711 32.752 36.4711 32.912V35.492H35.7551V32.912C35.7551 32.5867 35.6897 32.344 35.5591 32.184C35.4284 32.024 35.2377 31.944 34.9871 31.944C34.8111 31.944 34.6484 31.992 34.4991 32.088C34.3497 32.1813 34.2124 32.3093 34.0871 32.472V35.492H33.3711Z" fill="#EEEEEE" fill-opacity="0.5"/>
<rect x="0.25" y="39.25" width="49.5" height="38.5" stroke="white" stroke-opacity="0.25" stroke-width="0.5"/>
<rect x="0.25" y="52.25" width="49.5" height="12.5" fill="black" fill-opacity="0.1" stroke="#B422D9" stroke-width="0.5"/>
<path d="M12.7931 43.2341V45.2381H15.1491V45.8701H12.7931V48.3341H12.0171V42.6021H15.5491V43.2341H12.7931Z" fill="#EEEEEE" fill-opacity="0.5"/>
<path d="M16.7048 45.0941C16.8328 44.8167 16.9901 44.6007 17.1768 44.4461C17.3634 44.2887 17.5914 44.2101 17.8608 44.2101C17.9461 44.2101 18.0274 44.2194 18.1048 44.2381C18.1848 44.2567 18.2554 44.2861 18.3168 44.3261L18.2648 44.8581C18.2488 44.9247 18.2088 44.9581 18.1448 44.9581C18.1074 44.9581 18.0528 44.9501 17.9808 44.9341C17.9088 44.9181 17.8274 44.9101 17.7368 44.9101C17.6088 44.9101 17.4941 44.9287 17.3928 44.9661C17.2941 45.0034 17.2048 45.0594 17.1248 45.1341C17.0474 45.2061 16.9768 45.2967 16.9128 45.4061C16.8514 45.5127 16.7954 45.6354 16.7448 45.7741V48.3341H16.0288V44.2821H16.4368C16.5141 44.2821 16.5674 44.2967 16.5968 44.3261C16.6261 44.3554 16.6461 44.4061 16.6568 44.4781L16.7048 45.0941Z" fill="#EEEEEE" fill-opacity="0.5"/>
<path d="M21.4908 45.8661C21.4908 45.7007 21.4668 45.5501 21.4188 45.4141C21.3734 45.2754 21.3054 45.1567 21.2148 45.0581C21.1268 44.9567 21.0188 44.8794 20.8908 44.8261C20.7628 44.7701 20.6174 44.7421 20.4548 44.7421C20.1134 44.7421 19.8428 44.8421 19.6428 45.0421C19.4454 45.2394 19.3228 45.5141 19.2748 45.8661H21.4908ZM22.0668 47.7661C21.9788 47.8727 21.8734 47.9661 21.7508 48.0461C21.6281 48.1234 21.4961 48.1874 21.3548 48.2381C21.2161 48.2887 21.0721 48.3261 20.9228 48.3501C20.7734 48.3767 20.6254 48.3901 20.4788 48.3901C20.1988 48.3901 19.9401 48.3434 19.7028 48.2501C19.4681 48.1541 19.2641 48.0154 19.0908 47.8341C18.9201 47.6501 18.7868 47.4234 18.6908 47.1541C18.5948 46.8847 18.5468 46.5754 18.5468 46.2261C18.5468 45.9434 18.5894 45.6794 18.6748 45.4341C18.7628 45.1887 18.8881 44.9767 19.0508 44.7981C19.2134 44.6167 19.4121 44.4754 19.6468 44.3741C19.8814 44.2701 20.1454 44.2181 20.4388 44.2181C20.6814 44.2181 20.9054 44.2594 21.1108 44.3421C21.3188 44.4221 21.4974 44.5394 21.6468 44.6941C21.7988 44.8461 21.9174 45.0354 22.0028 45.2621C22.0881 45.4861 22.1308 45.7421 22.1308 46.0301C22.1308 46.1421 22.1188 46.2167 22.0948 46.2541C22.0708 46.2914 22.0254 46.3101 21.9588 46.3101H19.2508C19.2588 46.5661 19.2934 46.7887 19.3548 46.9781C19.4188 47.1674 19.5068 47.3261 19.6188 47.4541C19.7308 47.5794 19.8641 47.6741 20.0188 47.7381C20.1734 47.7994 20.3468 47.8301 20.5388 47.8301C20.7174 47.8301 20.8708 47.8101 20.9988 47.7701C21.1294 47.7274 21.2414 47.6821 21.3348 47.6341C21.4281 47.5861 21.5054 47.5421 21.5668 47.5021C21.6308 47.4594 21.6854 47.4381 21.7308 47.4381C21.7894 47.4381 21.8348 47.4607 21.8668 47.5061L22.0668 47.7661Z" fill="#EEEEEE" fill-opacity="0.5"/>
<path d="M25.7173 45.8661C25.7173 45.7007 25.6933 45.5501 25.6453 45.4141C25.6 45.2754 25.532 45.1567 25.4413 45.0581C25.3533 44.9567 25.2453 44.8794 25.1173 44.8261C24.9893 44.7701 24.844 44.7421 24.6813 44.7421C24.34 44.7421 24.0693 44.8421 23.8693 45.0421C23.672 45.2394 23.5493 45.5141 23.5013 45.8661H25.7173ZM26.2933 47.7661C26.2053 47.8727 26.1 47.9661 25.9773 48.0461C25.8547 48.1234 25.7227 48.1874 25.5813 48.2381C25.4427 48.2887 25.2987 48.3261 25.1493 48.3501C25 48.3767 24.852 48.3901 24.7053 48.3901C24.4253 48.3901 24.1667 48.3434 23.9293 48.2501C23.6947 48.1541 23.4907 48.0154 23.3173 47.8341C23.1467 47.6501 23.0133 47.4234 22.9173 47.1541C22.8213 46.8847 22.7733 46.5754 22.7733 46.2261C22.7733 45.9434 22.816 45.6794 22.9013 45.4341C22.9893 45.1887 23.1147 44.9767 23.2773 44.7981C23.44 44.6167 23.6387 44.4754 23.8733 44.3741C24.108 44.2701 24.372 44.2181 24.6653 44.2181C24.908 44.2181 25.132 44.2594 25.3373 44.3421C25.5453 44.4221 25.724 44.5394 25.8733 44.6941C26.0253 44.8461 26.144 45.0354 26.2293 45.2621C26.3147 45.4861 26.3573 45.7421 26.3573 46.0301C26.3573 46.1421 26.3453 46.2167 26.3213 46.2541C26.2973 46.2914 26.252 46.3101 26.1853 46.3101H23.4773C23.4853 46.5661 23.52 46.7887 23.5813 46.9781C23.6453 47.1674 23.7333 47.3261 23.8453 47.4541C23.9573 47.5794 24.0907 47.6741 24.2453 47.7381C24.4 47.7994 24.5733 47.8301 24.7653 47.8301C24.944 47.8301 25.0973 47.8101 25.2253 47.7701C25.356 47.7274 25.468 47.6821 25.5613 47.6341C25.6547 47.5861 25.732 47.5421 25.7933 47.5021C25.8573 47.4594 25.912 47.4381 25.9573 47.4381C26.016 47.4381 26.0613 47.4607 26.0933 47.5061L26.2933 47.7661Z" fill="#EEEEEE" fill-opacity="0.5"/>
<path d="M27.9079 45.0941C28.0359 44.8167 28.1932 44.6007 28.3799 44.4461C28.5666 44.2887 28.7946 44.2101 29.0639 44.2101C29.1492 44.2101 29.2306 44.2194 29.3079 44.2381C29.3879 44.2567 29.4586 44.2861 29.5199 44.3261L29.4679 44.8581C29.4519 44.9247 29.4119 44.9581 29.3479 44.9581C29.3106 44.9581 29.2559 44.9501 29.1839 44.9341C29.1119 44.9181 29.0306 44.9101 28.9399 44.9101C28.8119 44.9101 28.6972 44.9287 28.5959 44.9661C28.4972 45.0034 28.4079 45.0594 28.3279 45.1341C28.2506 45.2061 28.1799 45.2967 28.1159 45.4061C28.0546 45.5127 27.9986 45.6354 27.9479 45.7741V48.3341H27.2319V44.2821H27.6399C27.7172 44.2821 27.7706 44.2967 27.7999 44.3261C27.8292 44.3554 27.8492 44.4061 27.8599 44.4781L27.9079 45.0941Z" fill="#EEEEEE" fill-opacity="0.5"/>
<path d="M33.478 44.2821V48.3341H33.054C32.9526 48.3341 32.8886 48.2847 32.862 48.1861L32.806 47.7501C32.63 47.9447 32.4326 48.1021 32.214 48.2221C31.9953 48.3394 31.7446 48.3981 31.462 48.3981C31.2406 48.3981 31.0446 48.3621 30.874 48.2901C30.706 48.2154 30.5646 48.1114 30.45 47.9781C30.3353 47.8447 30.2486 47.6834 30.19 47.4941C30.134 47.3047 30.106 47.0954 30.106 46.8661V44.2821H30.818V46.8661C30.818 47.1727 30.8873 47.4101 31.026 47.5781C31.1673 47.7461 31.382 47.8301 31.67 47.8301C31.8806 47.8301 32.0766 47.7807 32.258 47.6821C32.442 47.5807 32.6113 47.4421 32.766 47.2661V44.2821H33.478Z" fill="#EEEEEE" fill-opacity="0.5"/>
<path d="M35.2789 44.8701C35.3669 44.7714 35.4602 44.6821 35.5589 44.6021C35.6576 44.5221 35.7616 44.4541 35.8709 44.3981C35.9829 44.3394 36.1002 44.2954 36.2229 44.2661C36.3482 44.2341 36.4829 44.2181 36.6269 44.2181C36.8482 44.2181 37.0429 44.2554 37.2109 44.3301C37.3816 44.4021 37.5229 44.5061 37.6349 44.6421C37.7496 44.7754 37.8362 44.9367 37.8949 45.1261C37.9536 45.3154 37.9829 45.5247 37.9829 45.7541V48.3341H37.2669V45.7541C37.2669 45.4474 37.1962 45.2101 37.0549 45.0421C36.9162 44.8714 36.7042 44.7861 36.4189 44.7861C36.2082 44.7861 36.0109 44.8367 35.8269 44.9381C35.6456 45.0394 35.4776 45.1767 35.3229 45.3501V48.3341H34.6069V44.2821H35.0349C35.1362 44.2821 35.1989 44.3314 35.2229 44.4301L35.2789 44.8701Z" fill="#EEEEEE" fill-opacity="0.5"/>
<path d="M8.00882 58.216H8.30082C8.40215 58.216 8.48348 58.204 8.54482 58.18C8.60615 58.1533 8.66215 58.1093 8.71282 58.048L10.6208 55.888C10.6741 55.8186 10.7301 55.7706 10.7888 55.744C10.8475 55.7173 10.9195 55.704 11.0048 55.704H11.6608L9.47682 58.172C9.42348 58.236 9.37148 58.2893 9.32082 58.332C9.27282 58.372 9.22082 58.4053 9.16482 58.432C9.23682 58.456 9.30215 58.492 9.36082 58.54C9.41948 58.5853 9.47682 58.6453 9.53282 58.72L11.8128 61.436H11.1408C11.0901 61.436 11.0461 61.4333 11.0088 61.428C10.9741 61.42 10.9435 61.4093 10.9168 61.396C10.8901 61.38 10.8661 61.3626 10.8448 61.344C10.8261 61.3226 10.8075 61.2986 10.7888 61.272L8.81282 58.996C8.75948 58.9293 8.70215 58.8826 8.64082 58.856C8.57948 58.8266 8.48615 58.812 8.36082 58.812H8.00882V61.436H7.23682V55.704H8.00882V58.216Z" fill="#EEEEEE"/>
<path d="M14.773 58.968C14.773 58.8026 14.749 58.652 14.701 58.516C14.6557 58.3773 14.5877 58.2586 14.497 58.16C14.409 58.0586 14.301 57.9813 14.173 57.928C14.045 57.872 13.8997 57.844 13.737 57.844C13.3957 57.844 13.125 57.944 12.925 58.144C12.7277 58.3413 12.605 58.616 12.557 58.968H14.773ZM15.349 60.868C15.261 60.9746 15.1557 61.068 15.033 61.148C14.9103 61.2253 14.7783 61.2893 14.637 61.34C14.4983 61.3906 14.3543 61.428 14.205 61.452C14.0557 61.4786 13.9077 61.492 13.761 61.492C13.481 61.492 13.2223 61.4453 12.985 61.352C12.7503 61.256 12.5463 61.1173 12.373 60.936C12.2023 60.752 12.069 60.5253 11.973 60.256C11.877 59.9866 11.829 59.6773 11.829 59.328C11.829 59.0453 11.8717 58.7813 11.957 58.536C12.045 58.2906 12.1703 58.0786 12.333 57.9C12.4957 57.7186 12.6943 57.5773 12.929 57.476C13.1637 57.372 13.4277 57.32 13.721 57.32C13.9637 57.32 14.1877 57.3613 14.393 57.444C14.601 57.524 14.7797 57.6413 14.929 57.796C15.081 57.948 15.1997 58.1373 15.285 58.364C15.3703 58.588 15.413 58.844 15.413 59.132C15.413 59.244 15.401 59.3186 15.377 59.356C15.353 59.3933 15.3077 59.412 15.241 59.412H12.533C12.541 59.668 12.5757 59.8906 12.637 60.08C12.701 60.2693 12.789 60.428 12.901 60.556C13.013 60.6813 13.1463 60.776 13.301 60.84C13.4557 60.9013 13.629 60.932 13.821 60.932C13.9997 60.932 14.153 60.912 14.281 60.872C14.4117 60.8293 14.5237 60.784 14.617 60.736C14.7103 60.688 14.7877 60.644 14.849 60.604C14.913 60.5613 14.9677 60.54 15.013 60.54C15.0717 60.54 15.117 60.5626 15.149 60.608L15.349 60.868Z" fill="#EEEEEE"/>
<path d="M19.682 57.384L17.422 62.632C17.398 62.6853 17.3673 62.728 17.33 62.76C17.2953 62.792 17.2407 62.808 17.166 62.808H16.638L17.378 61.2L15.706 57.384H16.322C16.3833 57.384 16.4313 57.4 16.466 57.432C16.5033 57.4613 16.5287 57.4946 16.542 57.532L17.626 60.084C17.6687 60.196 17.7047 60.3133 17.734 60.436C17.7713 60.3106 17.8113 60.192 17.854 60.08L18.906 57.532C18.922 57.4893 18.9487 57.4546 18.986 57.428C19.026 57.3986 19.07 57.384 19.118 57.384H19.682Z" fill="#EEEEEE"/>
<path d="M21.555 61.5C21.235 61.5 20.9883 61.4106 20.815 61.232C20.6443 61.0533 20.559 60.796 20.559 60.46V57.98H20.071C20.0283 57.98 19.9923 57.968 19.963 57.944C19.9337 57.9173 19.919 57.8773 19.919 57.824V57.54L20.583 57.456L20.747 56.204C20.755 56.164 20.7723 56.132 20.799 56.108C20.8283 56.0813 20.8657 56.068 20.911 56.068H21.271V57.464H22.443V57.98H21.271V60.412C21.271 60.5826 21.3123 60.7093 21.395 60.792C21.4777 60.8746 21.5843 60.916 21.715 60.916C21.7897 60.916 21.8537 60.9066 21.907 60.888C21.963 60.8666 22.011 60.844 22.051 60.82C22.091 60.796 22.1243 60.7746 22.151 60.756C22.1803 60.7346 22.2057 60.724 22.227 60.724C22.2643 60.724 22.2977 60.7466 22.327 60.792L22.535 61.132C22.4123 61.2466 22.2643 61.3373 22.091 61.404C21.9177 61.468 21.739 61.5 21.555 61.5Z" fill="#EEEEEE"/>
<path d="M23.8542 58.196C23.9822 57.9186 24.1395 57.7026 24.3262 57.548C24.5129 57.3906 24.7409 57.312 25.0102 57.312C25.0955 57.312 25.1769 57.3213 25.2542 57.34C25.3342 57.3586 25.4049 57.388 25.4662 57.428L25.4142 57.96C25.3982 58.0266 25.3582 58.06 25.2942 58.06C25.2569 58.06 25.2022 58.052 25.1302 58.036C25.0582 58.02 24.9769 58.012 24.8862 58.012C24.7582 58.012 24.6435 58.0306 24.5422 58.068C24.4435 58.1053 24.3542 58.1613 24.2742 58.236C24.1969 58.308 24.1262 58.3986 24.0622 58.508C24.0009 58.6146 23.9449 58.7373 23.8942 58.876V61.436H23.1782V57.384H23.5862C23.6635 57.384 23.7169 57.3986 23.7462 57.428C23.7755 57.4573 23.7955 57.508 23.8062 57.58L23.8542 58.196Z" fill="#EEEEEE"/>
<path d="M26.8443 57.384V61.436H26.1323V57.384H26.8443ZM26.9963 56.112C26.9963 56.1813 26.9816 56.2466 26.9523 56.308C26.9256 56.3666 26.8883 56.42 26.8403 56.468C26.7949 56.5133 26.7403 56.5493 26.6763 56.576C26.6149 56.6026 26.5496 56.616 26.4803 56.616C26.4109 56.616 26.3456 56.6026 26.2843 56.576C26.2256 56.5493 26.1736 56.5133 26.1283 56.468C26.0829 56.42 26.0469 56.3666 26.0203 56.308C25.9936 56.2466 25.9803 56.1813 25.9803 56.112C25.9803 56.0426 25.9936 55.9773 26.0203 55.916C26.0469 55.852 26.0829 55.7973 26.1283 55.752C26.1736 55.704 26.2256 55.6666 26.2843 55.64C26.3456 55.6133 26.4109 55.6 26.4803 55.6C26.5496 55.6 26.6149 55.6133 26.6763 55.64C26.7403 55.6666 26.7949 55.704 26.8403 55.752C26.8883 55.7973 26.9256 55.852 26.9523 55.916C26.9816 55.9773 26.9963 56.0426 26.9963 56.112Z" fill="#EEEEEE"/>
<path d="M29.4261 59.456C29.5701 59.456 29.6968 59.436 29.8061 59.396C29.9155 59.356 30.0075 59.3 30.0821 59.228C30.1568 59.156 30.2128 59.0706 30.2501 58.972C30.2875 58.8706 30.3061 58.76 30.3061 58.64C30.3061 58.392 30.2301 58.1946 30.0781 58.048C29.9288 57.9013 29.7115 57.828 29.4261 57.828C29.1381 57.828 28.9181 57.9013 28.7661 58.048C28.6168 58.1946 28.5421 58.392 28.5421 58.64C28.5421 58.76 28.5608 58.8706 28.5981 58.972C28.6381 59.0706 28.6955 59.156 28.7701 59.228C28.8448 59.3 28.9368 59.356 29.0461 59.396C29.1555 59.436 29.2821 59.456 29.4261 59.456ZM30.7101 61.656C30.7101 61.5573 30.6821 61.4773 30.6261 61.416C30.5701 61.3546 30.4941 61.3066 30.3981 61.272C30.3048 61.2373 30.1955 61.2133 30.0701 61.2C29.9448 61.184 29.8115 61.172 29.6701 61.164C29.5315 61.156 29.3901 61.148 29.2461 61.14C29.1021 61.132 28.9635 61.1186 28.8301 61.1C28.6808 61.1693 28.5581 61.2573 28.4621 61.364C28.3688 61.468 28.3221 61.5906 28.3221 61.732C28.3221 61.8226 28.3448 61.9066 28.3901 61.984C28.4381 62.064 28.5101 62.132 28.6061 62.188C28.7021 62.2466 28.8221 62.292 28.9661 62.324C29.1128 62.3586 29.2848 62.376 29.4821 62.376C29.6741 62.376 29.8461 62.3586 29.9981 62.324C30.1501 62.2893 30.2781 62.24 30.3821 62.176C30.4888 62.112 30.5701 62.036 30.6261 61.948C30.6821 61.86 30.7101 61.7626 30.7101 61.656ZM31.4341 57.544V57.808C31.4341 57.896 31.3781 57.952 31.2661 57.976L30.8061 58.036C30.8968 58.212 30.9421 58.4066 30.9421 58.62C30.9421 58.8173 30.9035 58.9973 30.8261 59.16C30.7515 59.32 30.6475 59.4573 30.5141 59.572C30.3808 59.6866 30.2208 59.7746 30.0341 59.836C29.8475 59.8973 29.6448 59.928 29.4261 59.928C29.2368 59.928 29.0581 59.9053 28.8901 59.86C28.8048 59.9133 28.7395 59.9706 28.6941 60.032C28.6488 60.0906 28.6261 60.1506 28.6261 60.212C28.6261 60.308 28.6648 60.3813 28.7421 60.432C28.8221 60.48 28.9261 60.5146 29.0541 60.536C29.1821 60.5573 29.3275 60.5706 29.4901 60.576C29.6555 60.5813 29.8235 60.5906 29.9941 60.604C30.1675 60.6146 30.3355 60.6346 30.4981 60.664C30.6635 60.6933 30.8101 60.7413 30.9381 60.808C31.0661 60.8746 31.1688 60.9666 31.2461 61.084C31.3261 61.2013 31.3661 61.3533 31.3661 61.54C31.3661 61.7133 31.3221 61.8813 31.2341 62.044C31.1488 62.2066 31.0248 62.3506 30.8621 62.476C30.6995 62.604 30.4995 62.7053 30.2621 62.78C30.0275 62.8573 29.7621 62.896 29.4661 62.896C29.1701 62.896 28.9115 62.8666 28.6901 62.808C28.4688 62.7493 28.2848 62.6706 28.1381 62.572C27.9915 62.4733 27.8808 62.3586 27.8061 62.228C27.7341 62.1 27.6981 61.9653 27.6981 61.824C27.6981 61.624 27.7608 61.4546 27.8861 61.316C28.0115 61.1773 28.1835 61.0666 28.4021 60.984C28.2821 60.9306 28.1861 60.86 28.1141 60.772C28.0448 60.6813 28.0101 60.56 28.0101 60.408C28.0101 60.3493 28.0208 60.2893 28.0421 60.228C28.0635 60.164 28.0955 60.1013 28.1381 60.04C28.1835 59.976 28.2381 59.916 28.3021 59.86C28.3661 59.804 28.4408 59.7546 28.5261 59.712C28.3261 59.6 28.1701 59.452 28.0581 59.268C27.9461 59.0813 27.8901 58.8653 27.8901 58.62C27.8901 58.4226 27.9275 58.244 28.0021 58.084C28.0795 57.9213 28.1861 57.784 28.3221 57.672C28.4581 57.5573 28.6195 57.4693 28.8061 57.408C28.9955 57.3466 29.2021 57.316 29.4261 57.316C29.6021 57.316 29.7661 57.336 29.9181 57.376C30.0701 57.4133 30.2088 57.4693 30.3341 57.544H31.4341Z" fill="#EEEEEE"/>
<path d="M33.5668 59.456C33.7108 59.456 33.8374 59.436 33.9468 59.396C34.0561 59.356 34.1481 59.3 34.2228 59.228C34.2974 59.156 34.3534 59.0706 34.3908 58.972C34.4281 58.8706 34.4468 58.76 34.4468 58.64C34.4468 58.392 34.3708 58.1946 34.2188 58.048C34.0694 57.9013 33.8521 57.828 33.5668 57.828C33.2788 57.828 33.0588 57.9013 32.9068 58.048C32.7574 58.1946 32.6828 58.392 32.6828 58.64C32.6828 58.76 32.7014 58.8706 32.7388 58.972C32.7788 59.0706 32.8361 59.156 32.9108 59.228C32.9854 59.3 33.0774 59.356 33.1868 59.396C33.2961 59.436 33.4228 59.456 33.5668 59.456ZM34.8508 61.656C34.8508 61.5573 34.8228 61.4773 34.7668 61.416C34.7108 61.3546 34.6348 61.3066 34.5388 61.272C34.4454 61.2373 34.3361 61.2133 34.2108 61.2C34.0854 61.184 33.9521 61.172 33.8108 61.164C33.6721 61.156 33.5308 61.148 33.3868 61.14C33.2428 61.132 33.1041 61.1186 32.9708 61.1C32.8214 61.1693 32.6988 61.2573 32.6028 61.364C32.5094 61.468 32.4628 61.5906 32.4628 61.732C32.4628 61.8226 32.4854 61.9066 32.5308 61.984C32.5788 62.064 32.6508 62.132 32.7468 62.188C32.8428 62.2466 32.9628 62.292 33.1068 62.324C33.2534 62.3586 33.4254 62.376 33.6228 62.376C33.8148 62.376 33.9868 62.3586 34.1388 62.324C34.2908 62.2893 34.4188 62.24 34.5228 62.176C34.6294 62.112 34.7108 62.036 34.7668 61.948C34.8228 61.86 34.8508 61.7626 34.8508 61.656ZM35.5748 57.544V57.808C35.5748 57.896 35.5188 57.952 35.4068 57.976L34.9468 58.036C35.0374 58.212 35.0828 58.4066 35.0828 58.62C35.0828 58.8173 35.0441 58.9973 34.9668 59.16C34.8921 59.32 34.7881 59.4573 34.6548 59.572C34.5214 59.6866 34.3614 59.7746 34.1748 59.836C33.9881 59.8973 33.7854 59.928 33.5668 59.928C33.3774 59.928 33.1988 59.9053 33.0308 59.86C32.9454 59.9133 32.8801 59.9706 32.8348 60.032C32.7894 60.0906 32.7668 60.1506 32.7668 60.212C32.7668 60.308 32.8054 60.3813 32.8828 60.432C32.9628 60.48 33.0668 60.5146 33.1948 60.536C33.3228 60.5573 33.4681 60.5706 33.6308 60.576C33.7961 60.5813 33.9641 60.5906 34.1348 60.604C34.3081 60.6146 34.4761 60.6346 34.6388 60.664C34.8041 60.6933 34.9508 60.7413 35.0788 60.808C35.2068 60.8746 35.3094 60.9666 35.3868 61.084C35.4668 61.2013 35.5068 61.3533 35.5068 61.54C35.5068 61.7133 35.4628 61.8813 35.3748 62.044C35.2894 62.2066 35.1654 62.3506 35.0028 62.476C34.8401 62.604 34.6401 62.7053 34.4028 62.78C34.1681 62.8573 33.9028 62.896 33.6068 62.896C33.3108 62.896 33.0521 62.8666 32.8308 62.808C32.6094 62.7493 32.4254 62.6706 32.2788 62.572C32.1321 62.4733 32.0214 62.3586 31.9468 62.228C31.8748 62.1 31.8388 61.9653 31.8388 61.824C31.8388 61.624 31.9014 61.4546 32.0268 61.316C32.1521 61.1773 32.3241 61.0666 32.5428 60.984C32.4228 60.9306 32.3268 60.86 32.2548 60.772C32.1854 60.6813 32.1508 60.56 32.1508 60.408C32.1508 60.3493 32.1614 60.2893 32.1828 60.228C32.2041 60.164 32.2361 60.1013 32.2788 60.04C32.3241 59.976 32.3788 59.916 32.4428 59.86C32.5068 59.804 32.5814 59.7546 32.6668 59.712C32.4668 59.6 32.3108 59.452 32.1988 59.268C32.0868 59.0813 32.0308 58.8653 32.0308 58.62C32.0308 58.4226 32.0681 58.244 32.1428 58.084C32.2201 57.9213 32.3268 57.784 32.4628 57.672C32.5988 57.5573 32.7601 57.4693 32.9468 57.408C33.1361 57.3466 33.3428 57.316 33.5668 57.316C33.7428 57.316 33.9068 57.336 34.0588 57.376C34.2108 57.4133 34.3494 57.4693 34.4748 57.544H35.5748Z" fill="#EEEEEE"/>
<path d="M38.9605 58.968C38.9605 58.8026 38.9365 58.652 38.8885 58.516C38.8432 58.3773 38.7752 58.2586 38.6845 58.16C38.5965 58.0586 38.4885 57.9813 38.3605 57.928C38.2325 57.872 38.0872 57.844 37.9245 57.844C37.5832 57.844 37.3125 57.944 37.1125 58.144C36.9152 58.3413 36.7925 58.616 36.7445 58.968H38.9605ZM39.5365 60.868C39.4485 60.9746 39.3432 61.068 39.2205 61.148C39.0978 61.2253 38.9658 61.2893 38.8245 61.34C38.6858 61.3906 38.5418 61.428 38.3925 61.452C38.2432 61.4786 38.0952 61.492 37.9485 61.492C37.6685 61.492 37.4098 61.4453 37.1725 61.352C36.9378 61.256 36.7338 61.1173 36.5605 60.936C36.3898 60.752 36.2565 60.5253 36.1605 60.256C36.0645 59.9866 36.0165 59.6773 36.0165 59.328C36.0165 59.0453 36.0592 58.7813 36.1445 58.536C36.2325 58.2906 36.3578 58.0786 36.5205 57.9C36.6832 57.7186 36.8818 57.5773 37.1165 57.476C37.3512 57.372 37.6152 57.32 37.9085 57.32C38.1512 57.32 38.3752 57.3613 38.5805 57.444C38.7885 57.524 38.9672 57.6413 39.1165 57.796C39.2685 57.948 39.3872 58.1373 39.4725 58.364C39.5578 58.588 39.6005 58.844 39.6005 59.132C39.6005 59.244 39.5885 59.3186 39.5645 59.356C39.5405 59.3933 39.4952 59.412 39.4285 59.412H36.7205C36.7285 59.668 36.7632 59.8906 36.8245 60.08C36.8885 60.2693 36.9765 60.428 37.0885 60.556C37.2005 60.6813 37.3338 60.776 37.4885 60.84C37.6432 60.9013 37.8165 60.932 38.0085 60.932C38.1872 60.932 38.3405 60.912 38.4685 60.872C38.5992 60.8293 38.7112 60.784 38.8045 60.736C38.8978 60.688 38.9752 60.644 39.0365 60.604C39.1005 60.5613 39.1552 60.54 39.2005 60.54C39.2592 60.54 39.3045 60.5626 39.3365 60.608L39.5365 60.868Z" fill="#EEEEEE"/>
<path d="M41.1511 58.196C41.2791 57.9186 41.4364 57.7026 41.6231 57.548C41.8097 57.3906 42.0377 57.312 42.3071 57.312C42.3924 57.312 42.4737 57.3213 42.5511 57.34C42.6311 57.3586 42.7017 57.388 42.7631 57.428L42.7111 57.96C42.6951 58.0266 42.6551 58.06 42.5911 58.06C42.5537 58.06 42.4991 58.052 42.4271 58.036C42.3551 58.02 42.2737 58.012 42.1831 58.012C42.0551 58.012 41.9404 58.0306 41.8391 58.068C41.7404 58.1053 41.6511 58.1613 41.5711 58.236C41.4937 58.308 41.4231 58.3986 41.3591 58.508C41.2977 58.6146 41.2417 58.7373 41.1911 58.876V61.436H40.4751V57.384H40.8831C40.9604 57.384 41.0137 57.3986 41.0431 57.428C41.0724 57.4573 41.0924 57.508 41.1031 57.58L41.1511 58.196Z" fill="#EEEEEE"/>
<path d="M12.7208 71.536C12.9448 71.536 13.1421 71.5093 13.3128 71.456C13.4861 71.4 13.6301 71.3226 13.7448 71.224C13.8621 71.1226 13.9501 71.0026 14.0088 70.864C14.0675 70.7253 14.0968 70.572 14.0968 70.404C14.0968 70.0626 13.9848 69.8053 13.7608 69.632C13.5368 69.4586 13.2008 69.372 12.7528 69.372H11.9048V71.536H12.7208ZM15.3688 74.492H14.6808C14.5395 74.492 14.4355 74.4373 14.3688 74.328L12.8808 72.28C12.8355 72.216 12.7861 72.1706 12.7328 72.144C12.6821 72.1146 12.6021 72.1 12.4928 72.1H11.9048V74.492H11.1328V68.76H12.7528C13.1155 68.76 13.4288 68.7973 13.6928 68.872C13.9568 68.944 14.1741 69.0493 14.3448 69.188C14.5181 69.3266 14.6461 69.4946 14.7288 69.692C14.8115 69.8866 14.8528 70.1053 14.8528 70.348C14.8528 70.5506 14.8208 70.74 14.7568 70.916C14.6928 71.092 14.5995 71.2506 14.4768 71.392C14.3568 71.5306 14.2088 71.6493 14.0328 71.748C13.8595 71.8466 13.6621 71.9213 13.4408 71.972C13.5395 72.028 13.6248 72.1093 13.6968 72.216L15.3688 74.492Z" fill="#EEEEEE" fill-opacity="0.5"/>
<path d="M18.1139 72.668C17.7859 72.6786 17.5059 72.7053 17.2739 72.748C17.0446 72.788 16.8566 72.8413 16.7099 72.908C16.5659 72.9746 16.4606 73.0533 16.3939 73.144C16.3299 73.2346 16.2979 73.336 16.2979 73.448C16.2979 73.5546 16.3153 73.6466 16.3499 73.724C16.3846 73.8013 16.4313 73.8653 16.4899 73.916C16.5513 73.964 16.6219 74 16.7019 74.024C16.7846 74.0453 16.8726 74.056 16.9659 74.056C17.0913 74.056 17.2059 74.044 17.3099 74.02C17.4139 73.9933 17.5113 73.956 17.6019 73.908C17.6953 73.86 17.7833 73.8026 17.8659 73.736C17.9513 73.6693 18.0339 73.5933 18.1139 73.508V72.668ZM15.8139 71.012C16.0379 70.796 16.2793 70.6346 16.5379 70.528C16.7966 70.4213 17.0833 70.368 17.3979 70.368C17.6246 70.368 17.8259 70.4053 18.0019 70.48C18.1779 70.5546 18.3259 70.6586 18.4459 70.792C18.5659 70.9253 18.6566 71.0866 18.7179 71.276C18.7793 71.4653 18.8099 71.6733 18.8099 71.9V74.492H18.4939C18.4246 74.492 18.3713 74.4813 18.3339 74.46C18.2966 74.436 18.2673 74.3906 18.2459 74.324L18.1659 73.94C18.0593 74.0386 17.9553 74.1266 17.8539 74.204C17.7526 74.2786 17.6459 74.3426 17.5339 74.396C17.4219 74.4466 17.3019 74.4853 17.1739 74.512C17.0486 74.5413 16.9086 74.556 16.7539 74.556C16.5966 74.556 16.4486 74.5346 16.3099 74.492C16.1713 74.4466 16.0499 74.38 15.9459 74.292C15.8446 74.204 15.7633 74.0933 15.7019 73.96C15.6433 73.824 15.6139 73.664 15.6139 73.48C15.6139 73.32 15.6579 73.1666 15.7459 73.02C15.8339 72.8706 15.9766 72.7386 16.1739 72.624C16.3713 72.5093 16.6286 72.416 16.9459 72.344C17.2633 72.2693 17.6526 72.2266 18.1139 72.216V71.9C18.1139 71.5853 18.0459 71.348 17.9099 71.188C17.7739 71.0253 17.5753 70.944 17.3139 70.944C17.1379 70.944 16.9899 70.9666 16.8699 71.012C16.7526 71.0546 16.6499 71.104 16.5619 71.16C16.4766 71.2133 16.4019 71.2626 16.3379 71.308C16.2766 71.3506 16.2153 71.372 16.1539 71.372C16.1059 71.372 16.0646 71.36 16.0299 71.336C15.9953 71.3093 15.9659 71.2773 15.9419 71.24L15.8139 71.012Z" fill="#EEEEEE" fill-opacity="0.5"/>
<path d="M20.5665 71.028C20.6545 70.9293 20.7478 70.84 20.8465 70.76C20.9452 70.68 21.0492 70.612 21.1585 70.556C21.2705 70.4973 21.3878 70.4533 21.5105 70.424C21.6358 70.392 21.7705 70.376 21.9145 70.376C22.1358 70.376 22.3305 70.4133 22.4985 70.488C22.6692 70.56 22.8105 70.664 22.9225 70.8C23.0372 70.9333 23.1238 71.0946 23.1825 71.284C23.2412 71.4733 23.2705 71.6826 23.2705 71.912V74.492H22.5545V71.912C22.5545 71.6053 22.4838 71.368 22.3425 71.2C22.2038 71.0293 21.9918 70.944 21.7065 70.944C21.4958 70.944 21.2985 70.9946 21.1145 71.096C20.9332 71.1973 20.7652 71.3346 20.6105 71.508V74.492H19.8945V70.44H20.3225C20.4238 70.44 20.4865 70.4893 20.5105 70.588L20.5665 71.028Z" fill="#EEEEEE" fill-opacity="0.5"/>
<path d="M26.9954 71.404C26.8621 71.2253 26.7181 71.1013 26.5634 71.032C26.4088 70.96 26.2354 70.924 26.0434 70.924C25.6674 70.924 25.3781 71.0586 25.1754 71.328C24.9728 71.5973 24.8714 71.9813 24.8714 72.48C24.8714 72.744 24.8941 72.9706 24.9394 73.16C24.9848 73.3466 25.0514 73.5013 25.1394 73.624C25.2274 73.744 25.3354 73.832 25.4634 73.888C25.5914 73.944 25.7368 73.972 25.8994 73.972C26.1341 73.972 26.3381 73.9186 26.5114 73.812C26.6874 73.7053 26.8488 73.5546 26.9954 73.36V71.404ZM27.7074 68.6V74.492H27.2834C27.1821 74.492 27.1181 74.4426 27.0914 74.344L27.0274 73.852C26.8541 74.06 26.6568 74.228 26.4354 74.356C26.2141 74.484 25.9581 74.548 25.6674 74.548C25.4354 74.548 25.2248 74.504 25.0354 74.416C24.8461 74.3253 24.6848 74.1933 24.5514 74.02C24.4181 73.8466 24.3154 73.6306 24.2434 73.372C24.1714 73.1133 24.1354 72.816 24.1354 72.48C24.1354 72.1813 24.1754 71.904 24.2554 71.648C24.3354 71.3893 24.4501 71.1653 24.5994 70.976C24.7488 70.7866 24.9314 70.6386 25.1474 70.532C25.3661 70.4226 25.6114 70.368 25.8834 70.368C26.1314 70.368 26.3434 70.4106 26.5194 70.496C26.6981 70.5786 26.8568 70.6946 26.9954 70.844V68.6H27.7074Z" fill="#EEEEEE" fill-opacity="0.5"/>
<path d="M30.54 70.376C30.836 70.376 31.1027 70.4253 31.34 70.524C31.5773 70.6226 31.78 70.7626 31.948 70.944C32.116 71.1253 32.244 71.3453 32.332 71.604C32.4227 71.86 32.468 72.1466 32.468 72.464C32.468 72.784 32.4227 73.072 32.332 73.328C32.244 73.584 32.116 73.8026 31.948 73.984C31.78 74.1653 31.5773 74.3053 31.34 74.404C31.1027 74.5 30.836 74.548 30.54 74.548C30.2413 74.548 29.972 74.5 29.732 74.404C29.4947 74.3053 29.292 74.1653 29.124 73.984C28.956 73.8026 28.8267 73.584 28.736 73.328C28.648 73.072 28.604 72.784 28.604 72.464C28.604 72.1466 28.648 71.86 28.736 71.604C28.8267 71.3453 28.956 71.1253 29.124 70.944C29.292 70.7626 29.4947 70.6226 29.732 70.524C29.972 70.4253 30.2413 70.376 30.54 70.376ZM30.54 73.992C30.94 73.992 31.2387 73.8586 31.436 73.592C31.6333 73.3226 31.732 72.948 31.732 72.468C31.732 71.9853 31.6333 71.6093 31.436 71.34C31.2387 71.0706 30.94 70.936 30.54 70.936C30.3373 70.936 30.16 70.9706 30.008 71.04C29.8587 71.1093 29.7333 71.2093 29.632 71.34C29.5333 71.4706 29.4587 71.632 29.408 71.824C29.36 72.0133 29.336 72.228 29.336 72.468C29.336 72.948 29.4347 73.3226 29.632 73.592C29.832 73.8586 30.1347 73.992 30.54 73.992Z" fill="#EEEEEE" fill-opacity="0.5"/>
<path d="M33.3711 74.492V70.44H33.7991C33.9004 70.44 33.9631 70.4893 33.9871 70.588L34.0391 71.004C34.1884 70.82 34.3564 70.6693 34.5431 70.552C34.7297 70.4346 34.9457 70.376 35.1911 70.376C35.4631 70.376 35.6831 70.452 35.8511 70.604C36.0217 70.756 36.1444 70.9613 36.2191 71.22C36.2777 71.0733 36.3524 70.9466 36.4431 70.84C36.5364 70.7333 36.6404 70.6453 36.7551 70.576C36.8697 70.5066 36.9911 70.456 37.1191 70.424C37.2497 70.392 37.3817 70.376 37.5151 70.376C37.7284 70.376 37.9177 70.4106 38.0831 70.48C38.2511 70.5466 38.3924 70.6453 38.5071 70.776C38.6244 70.9066 38.7137 71.068 38.7751 71.26C38.8364 71.4493 38.8671 71.6666 38.8671 71.912V74.492H38.1511V71.912C38.1511 71.5946 38.0817 71.3546 37.9431 71.192C37.8044 71.0266 37.6044 70.944 37.3431 70.944C37.2257 70.944 37.1137 70.9653 37.0071 71.008C36.9031 71.048 36.8111 71.108 36.7311 71.188C36.6511 71.268 36.5871 71.3693 36.5391 71.492C36.4937 71.612 36.4711 71.752 36.4711 71.912V74.492H35.7551V71.912C35.7551 71.5866 35.6897 71.344 35.5591 71.184C35.4284 71.024 35.2377 70.944 34.9871 70.944C34.8111 70.944 34.6484 70.992 34.4991 71.088C34.3497 71.1813 34.2124 71.3093 34.0871 71.472V74.492H33.3711Z" fill="#EEEEEE" fill-opacity="0.5"/>
<rect x="0.25" y="104.25" width="49.5" height="12.5" fill="black" fill-opacity="0.1" stroke="#B422D9" stroke-width="0.5"/>
<path d="M12.7931 82.2341V84.2381H15.1491V84.8701H12.7931V87.3341H12.0171V81.6021H15.5491V82.2341H12.7931Z" fill="#EEEEEE" fill-opacity="0.5"/>
<path d="M16.7048 84.0941C16.8328 83.8167 16.9901 83.6007 17.1768 83.4461C17.3634 83.2887 17.5914 83.2101 17.8608 83.2101C17.9461 83.2101 18.0274 83.2194 18.1048 83.2381C18.1848 83.2567 18.2554 83.2861 18.3168 83.3261L18.2648 83.8581C18.2488 83.9247 18.2088 83.9581 18.1448 83.9581C18.1074 83.9581 18.0528 83.9501 17.9808 83.9341C17.9088 83.9181 17.8274 83.9101 17.7368 83.9101C17.6088 83.9101 17.4941 83.9287 17.3928 83.9661C17.2941 84.0034 17.2048 84.0594 17.1248 84.1341C17.0474 84.2061 16.9768 84.2967 16.9128 84.4061C16.8514 84.5127 16.7954 84.6354 16.7448 84.7741V87.3341H16.0288V83.2821H16.4368C16.5141 83.2821 16.5674 83.2967 16.5968 83.3261C16.6261 83.3554 16.6461 83.4061 16.6568 83.4781L16.7048 84.0941Z" fill="#EEEEEE" fill-opacity="0.5"/>
<path d="M21.4908 84.8661C21.4908 84.7007 21.4668 84.5501 21.4188 84.4141C21.3734 84.2754 21.3054 84.1567 21.2148 84.0581C21.1268 83.9567 21.0188 83.8794 20.8908 83.8261C20.7628 83.7701 20.6174 83.7421 20.4548 83.7421C20.1134 83.7421 19.8428 83.8421 19.6428 84.0421C19.4454 84.2394 19.3228 84.5141 19.2748 84.8661H21.4908ZM22.0668 86.7661C21.9788 86.8727 21.8734 86.9661 21.7508 87.0461C21.6281 87.1234 21.4961 87.1874 21.3548 87.2381C21.2161 87.2887 21.0721 87.3261 20.9228 87.3501C20.7734 87.3767 20.6254 87.3901 20.4788 87.3901C20.1988 87.3901 19.9401 87.3434 19.7028 87.2501C19.4681 87.1541 19.2641 87.0154 19.0908 86.8341C18.9201 86.6501 18.7868 86.4234 18.6908 86.1541C18.5948 85.8847 18.5468 85.5754 18.5468 85.2261C18.5468 84.9434 18.5894 84.6794 18.6748 84.4341C18.7628 84.1887 18.8881 83.9767 19.0508 83.7981C19.2134 83.6167 19.4121 83.4754 19.6468 83.3741C19.8814 83.2701 20.1454 83.2181 20.4388 83.2181C20.6814 83.2181 20.9054 83.2594 21.1108 83.3421C21.3188 83.4221 21.4974 83.5394 21.6468 83.6941C21.7988 83.8461 21.9174 84.0354 22.0028 84.2621C22.0881 84.4861 22.1308 84.7421 22.1308 85.0301C22.1308 85.1421 22.1188 85.2167 22.0948 85.2541C22.0708 85.2914 22.0254 85.3101 21.9588 85.3101H19.2508C19.2588 85.5661 19.2934 85.7887 19.3548 85.9781C19.4188 86.1674 19.5068 86.3261 19.6188 86.4541C19.7308 86.5794 19.8641 86.6741 20.0188 86.7381C20.1734 86.7994 20.3468 86.8301 20.5388 86.8301C20.7174 86.8301 20.8708 86.8101 20.9988 86.7701C21.1294 86.7274 21.2414 86.6821 21.3348 86.6341C21.4281 86.5861 21.5054 86.5421 21.5668 86.5021C21.6308 86.4594 21.6854 86.4381 21.7308 86.4381C21.7894 86.4381 21.8348 86.4607 21.8668 86.5061L22.0668 86.7661Z" fill="#EEEEEE" fill-opacity="0.5"/>
<path d="M25.7173 84.8661C25.7173 84.7007 25.6933 84.5501 25.6453 84.4141C25.6 84.2754 25.532 84.1567 25.4413 84.0581C25.3533 83.9567 25.2453 83.8794 25.1173 83.8261C24.9893 83.7701 24.844 83.7421 24.6813 83.7421C24.34 83.7421 24.0693 83.8421 23.8693 84.0421C23.672 84.2394 23.5493 84.5141 23.5013 84.8661H25.7173ZM26.2933 86.7661C26.2053 86.8727 26.1 86.9661 25.9773 87.0461C25.8547 87.1234 25.7227 87.1874 25.5813 87.2381C25.4427 87.2887 25.2987 87.3261 25.1493 87.3501C25 87.3767 24.852 87.3901 24.7053 87.3901C24.4253 87.3901 24.1667 87.3434 23.9293 87.2501C23.6947 87.1541 23.4907 87.0154 23.3173 86.8341C23.1467 86.6501 23.0133 86.4234 22.9173 86.1541C22.8213 85.8847 22.7733 85.5754 22.7733 85.2261C22.7733 84.9434 22.816 84.6794 22.9013 84.4341C22.9893 84.1887 23.1147 83.9767 23.2773 83.7981C23.44 83.6167 23.6387 83.4754 23.8733 83.3741C24.108 83.2701 24.372 83.2181 24.6653 83.2181C24.908 83.2181 25.132 83.2594 25.3373 83.3421C25.5453 83.4221 25.724 83.5394 25.8733 83.6941C26.0253 83.8461 26.144 84.0354 26.2293 84.2621C26.3147 84.4861 26.3573 84.7421 26.3573 85.0301C26.3573 85.1421 26.3453 85.2167 26.3213 85.2541C26.2973 85.2914 26.252 85.3101 26.1853 85.3101H23.4773C23.4853 85.5661 23.52 85.7887 23.5813 85.9781C23.6453 86.1674 23.7333 86.3261 23.8453 86.4541C23.9573 86.5794 24.0907 86.6741 24.2453 86.7381C24.4 86.7994 24.5733 86.8301 24.7653 86.8301C24.944 86.8301 25.0973 86.8101 25.2253 86.7701C25.356 86.7274 25.468 86.6821 25.5613 86.6341C25.6547 86.5861 25.732 86.5421 25.7933 86.5021C25.8573 86.4594 25.912 86.4381 25.9573 86.4381C26.016 86.4381 26.0613 86.4607 26.0933 86.5061L26.2933 86.7661Z" fill="#EEEEEE" fill-opacity="0.5"/>
<path d="M27.9079 84.0941C28.0359 83.8167 28.1932 83.6007 28.3799 83.4461C28.5666 83.2887 28.7946 83.2101 29.0639 83.2101C29.1492 83.2101 29.2306 83.2194 29.3079 83.2381C29.3879 83.2567 29.4586 83.2861 29.5199 83.3261L29.4679 83.8581C29.4519 83.9247 29.4119 83.9581 29.3479 83.9581C29.3106 83.9581 29.2559 83.9501 29.1839 83.9341C29.1119 83.9181 29.0306 83.9101 28.9399 83.9101C28.8119 83.9101 28.6972 83.9287 28.5959 83.9661C28.4972 84.0034 28.4079 84.0594 28.3279 84.1341C28.2506 84.2061 28.1799 84.2967 28.1159 84.4061C28.0546 84.5127 27.9986 84.6354 27.9479 84.7741V87.3341H27.2319V83.2821H27.6399C27.7172 83.2821 27.7706 83.2967 27.7999 83.3261C27.8292 83.3554 27.8492 83.4061 27.8599 83.4781L27.9079 84.0941Z" fill="#EEEEEE" fill-opacity="0.5"/>
<path d="M33.478 83.2821V87.3341H33.054C32.9526 87.3341 32.8886 87.2847 32.862 87.1861L32.806 86.7501C32.63 86.9447 32.4326 87.1021 32.214 87.2221C31.9953 87.3394 31.7446 87.3981 31.462 87.3981C31.2406 87.3981 31.0446 87.3621 30.874 87.2901C30.706 87.2154 30.5646 87.1114 30.45 86.9781C30.3353 86.8447 30.2486 86.6834 30.19 86.4941C30.134 86.3047 30.106 86.0954 30.106 85.8661V83.2821H30.818V85.8661C30.818 86.1727 30.8873 86.4101 31.026 86.5781C31.1673 86.7461 31.382 86.8301 31.67 86.8301C31.8806 86.8301 32.0766 86.7807 32.258 86.6821C32.442 86.5807 32.6113 86.4421 32.766 86.2661V83.2821H33.478Z" fill="#EEEEEE" fill-opacity="0.5"/>
<path d="M35.2789 83.8701C35.3669 83.7714 35.4602 83.6821 35.5589 83.6021C35.6576 83.5221 35.7616 83.4541 35.8709 83.3981C35.9829 83.3394 36.1002 83.2954 36.2229 83.2661C36.3482 83.2341 36.4829 83.2181 36.6269 83.2181C36.8482 83.2181 37.0429 83.2554 37.2109 83.3301C37.3816 83.4021 37.5229 83.5061 37.6349 83.6421C37.7496 83.7754 37.8362 83.9367 37.8949 84.1261C37.9536 84.3154 37.9829 84.5247 37.9829 84.7541V87.3341H37.2669V84.7541C37.2669 84.4474 37.1962 84.2101 37.0549 84.0421C36.9162 83.8714 36.7042 83.7861 36.4189 83.7861C36.2082 83.7861 36.0109 83.8367 35.8269 83.9381C35.6456 84.0394 35.4776 84.1767 35.3229 84.3501V87.3341H34.6069V83.2821H35.0349C35.1362 83.2821 35.1989 83.3314 35.2229 83.4301L35.2789 83.8701Z" fill="#EEEEEE" fill-opacity="0.5"/>
<path d="M8.00882 97.216H8.30082C8.40215 97.216 8.48348 97.204 8.54482 97.18C8.60615 97.1533 8.66215 97.1093 8.71282 97.048L10.6208 94.888C10.6741 94.8186 10.7301 94.7706 10.7888 94.744C10.8475 94.7173 10.9195 94.704 11.0048 94.704H11.6608L9.47682 97.172C9.42348 97.236 9.37148 97.2893 9.32082 97.332C9.27282 97.372 9.22082 97.4053 9.16482 97.432C9.23682 97.456 9.30215 97.492 9.36082 97.54C9.41948 97.5853 9.47682 97.6453 9.53282 97.72L11.8128 100.436H11.1408C11.0901 100.436 11.0461 100.433 11.0088 100.428C10.9741 100.42 10.9435 100.409 10.9168 100.396C10.8901 100.38 10.8661 100.363 10.8448 100.344C10.8261 100.323 10.8075 100.299 10.7888 100.272L8.81282 97.996C8.75948 97.9293 8.70215 97.8826 8.64082 97.856C8.57948 97.8266 8.48615 97.812 8.36082 97.812H8.00882V100.436H7.23682V94.704H8.00882V97.216Z" fill="#EEEEEE" fill-opacity="0.5"/>
<path d="M14.773 97.968C14.773 97.8026 14.749 97.652 14.701 97.516C14.6557 97.3773 14.5877 97.2586 14.497 97.16C14.409 97.0586 14.301 96.9813 14.173 96.928C14.045 96.872 13.8997 96.844 13.737 96.844C13.3957 96.844 13.125 96.944 12.925 97.144C12.7277 97.3413 12.605 97.616 12.557 97.968H14.773ZM15.349 99.868C15.261 99.9746 15.1557 100.068 15.033 100.148C14.9103 100.225 14.7783 100.289 14.637 100.34C14.4983 100.391 14.3543 100.428 14.205 100.452C14.0557 100.479 13.9077 100.492 13.761 100.492C13.481 100.492 13.2223 100.445 12.985 100.352C12.7503 100.256 12.5463 100.117 12.373 99.936C12.2023 99.752 12.069 99.5253 11.973 99.256C11.877 98.9866 11.829 98.6773 11.829 98.328C11.829 98.0453 11.8717 97.7813 11.957 97.536C12.045 97.2906 12.1703 97.0786 12.333 96.9C12.4957 96.7186 12.6943 96.5773 12.929 96.476C13.1637 96.372 13.4277 96.32 13.721 96.32C13.9637 96.32 14.1877 96.3613 14.393 96.444C14.601 96.524 14.7797 96.6413 14.929 96.796C15.081 96.948 15.1997 97.1373 15.285 97.364C15.3703 97.588 15.413 97.844 15.413 98.132C15.413 98.244 15.401 98.3186 15.377 98.356C15.353 98.3933 15.3077 98.412 15.241 98.412H12.533C12.541 98.668 12.5757 98.8906 12.637 99.08C12.701 99.2693 12.789 99.428 12.901 99.556C13.013 99.6813 13.1463 99.776 13.301 99.84C13.4557 99.9013 13.629 99.932 13.821 99.932C13.9997 99.932 14.153 99.912 14.281 99.872C14.4117 99.8293 14.5237 99.784 14.617 99.736C14.7103 99.688 14.7877 99.644 14.849 99.604C14.913 99.5613 14.9677 99.54 15.013 99.54C15.0717 99.54 15.117 99.5626 15.149 99.608L15.349 99.868Z" fill="#EEEEEE" fill-opacity="0.5"/>
<path d="M19.682 96.384L17.422 101.632C17.398 101.685 17.3673 101.728 17.33 101.76C17.2953 101.792 17.2407 101.808 17.166 101.808H16.638L17.378 100.2L15.706 96.384H16.322C16.3833 96.384 16.4313 96.4 16.466 96.432C16.5033 96.4613 16.5287 96.4946 16.542 96.532L17.626 99.084C17.6687 99.196 17.7047 99.3133 17.734 99.436C17.7713 99.3106 17.8113 99.192 17.854 99.08L18.906 96.532C18.922 96.4893 18.9487 96.4546 18.986 96.428C19.026 96.3986 19.07 96.384 19.118 96.384H19.682Z" fill="#EEEEEE" fill-opacity="0.5"/>
<path d="M21.555 100.5C21.235 100.5 20.9883 100.411 20.815 100.232C20.6443 100.053 20.559 99.796 20.559 99.46V96.98H20.071C20.0283 96.98 19.9923 96.968 19.963 96.944C19.9337 96.9173 19.919 96.8773 19.919 96.824V96.54L20.583 96.456L20.747 95.204C20.755 95.164 20.7723 95.132 20.799 95.108C20.8283 95.0813 20.8657 95.068 20.911 95.068H21.271V96.464H22.443V96.98H21.271V99.412C21.271 99.5826 21.3123 99.7093 21.395 99.792C21.4777 99.8746 21.5843 99.916 21.715 99.916C21.7897 99.916 21.8537 99.9066 21.907 99.888C21.963 99.8666 22.011 99.844 22.051 99.82C22.091 99.796 22.1243 99.7746 22.151 99.756C22.1803 99.7346 22.2057 99.724 22.227 99.724C22.2643 99.724 22.2977 99.7466 22.327 99.792L22.535 100.132C22.4123 100.247 22.2643 100.337 22.091 100.404C21.9177 100.468 21.739 100.5 21.555 100.5Z" fill="#EEEEEE" fill-opacity="0.5"/>
<path d="M23.8542 97.196C23.9822 96.9186 24.1395 96.7026 24.3262 96.548C24.5129 96.3906 24.7409 96.312 25.0102 96.312C25.0955 96.312 25.1769 96.3213 25.2542 96.34C25.3342 96.3586 25.4049 96.388 25.4662 96.428L25.4142 96.96C25.3982 97.0266 25.3582 97.06 25.2942 97.06C25.2569 97.06 25.2022 97.052 25.1302 97.036C25.0582 97.02 24.9769 97.012 24.8862 97.012C24.7582 97.012 24.6435 97.0306 24.5422 97.068C24.4435 97.1053 24.3542 97.1613 24.2742 97.236C24.1969 97.308 24.1262 97.3986 24.0622 97.508C24.0009 97.6146 23.9449 97.7373 23.8942 97.876V100.436H23.1782V96.384H23.5862C23.6635 96.384 23.7169 96.3986 23.7462 96.428C23.7755 96.4573 23.7955 96.508 23.8062 96.58L23.8542 97.196Z" fill="#EEEEEE" fill-opacity="0.5"/>
<path d="M26.8443 96.384V100.436H26.1323V96.384H26.8443ZM26.9963 95.112C26.9963 95.1813 26.9816 95.2466 26.9523 95.308C26.9256 95.3666 26.8883 95.42 26.8403 95.468C26.7949 95.5133 26.7403 95.5493 26.6763 95.576C26.6149 95.6026 26.5496 95.616 26.4803 95.616C26.4109 95.616 26.3456 95.6026 26.2843 95.576C26.2256 95.5493 26.1736 95.5133 26.1283 95.468C26.0829 95.42 26.0469 95.3666 26.0203 95.308C25.9936 95.2466 25.9803 95.1813 25.9803 95.112C25.9803 95.0426 25.9936 94.9773 26.0203 94.916C26.0469 94.852 26.0829 94.7973 26.1283 94.752C26.1736 94.704 26.2256 94.6666 26.2843 94.64C26.3456 94.6133 26.4109 94.6 26.4803 94.6C26.5496 94.6 26.6149 94.6133 26.6763 94.64C26.7403 94.6666 26.7949 94.704 26.8403 94.752C26.8883 94.7973 26.9256 94.852 26.9523 94.916C26.9816 94.9773 26.9963 95.0426 26.9963 95.112Z" fill="#EEEEEE" fill-opacity="0.5"/>
<path d="M29.4261 98.456C29.5701 98.456 29.6968 98.436 29.8061 98.396C29.9155 98.356 30.0075 98.3 30.0821 98.228C30.1568 98.156 30.2128 98.0706 30.2501 97.972C30.2875 97.8706 30.3061 97.76 30.3061 97.64C30.3061 97.392 30.2301 97.1946 30.0781 97.048C29.9288 96.9013 29.7115 96.828 29.4261 96.828C29.1381 96.828 28.9181 96.9013 28.7661 97.048C28.6168 97.1946 28.5421 97.392 28.5421 97.64C28.5421 97.76 28.5608 97.8706 28.5981 97.972C28.6381 98.0706 28.6955 98.156 28.7701 98.228C28.8448 98.3 28.9368 98.356 29.0461 98.396C29.1555 98.436 29.2821 98.456 29.4261 98.456ZM30.7101 100.656C30.7101 100.557 30.6821 100.477 30.6261 100.416C30.5701 100.355 30.4941 100.307 30.3981 100.272C30.3048 100.237 30.1955 100.213 30.0701 100.2C29.9448 100.184 29.8115 100.172 29.6701 100.164C29.5315 100.156 29.3901 100.148 29.2461 100.14C29.1021 100.132 28.9635 100.119 28.8301 100.1C28.6808 100.169 28.5581 100.257 28.4621 100.364C28.3688 100.468 28.3221 100.591 28.3221 100.732C28.3221 100.823 28.3448 100.907 28.3901 100.984C28.4381 101.064 28.5101 101.132 28.6061 101.188C28.7021 101.247 28.8221 101.292 28.9661 101.324C29.1128 101.359 29.2848 101.376 29.4821 101.376C29.6741 101.376 29.8461 101.359 29.9981 101.324C30.1501 101.289 30.2781 101.24 30.3821 101.176C30.4888 101.112 30.5701 101.036 30.6261 100.948C30.6821 100.86 30.7101 100.763 30.7101 100.656ZM31.4341 96.544V96.808C31.4341 96.896 31.3781 96.952 31.2661 96.976L30.8061 97.036C30.8968 97.212 30.9421 97.4066 30.9421 97.62C30.9421 97.8173 30.9035 97.9973 30.8261 98.16C30.7515 98.32 30.6475 98.4573 30.5141 98.572C30.3808 98.6866 30.2208 98.7746 30.0341 98.836C29.8475 98.8973 29.6448 98.928 29.4261 98.928C29.2368 98.928 29.0581 98.9053 28.8901 98.86C28.8048 98.9133 28.7395 98.9706 28.6941 99.032C28.6488 99.0906 28.6261 99.1506 28.6261 99.212C28.6261 99.308 28.6648 99.3813 28.7421 99.432C28.8221 99.48 28.9261 99.5146 29.0541 99.536C29.1821 99.5573 29.3275 99.5706 29.4901 99.576C29.6555 99.5813 29.8235 99.5906 29.9941 99.604C30.1675 99.6146 30.3355 99.6346 30.4981 99.664C30.6635 99.6933 30.8101 99.7413 30.9381 99.808C31.0661 99.8746 31.1688 99.9666 31.2461 100.084C31.3261 100.201 31.3661 100.353 31.3661 100.54C31.3661 100.713 31.3221 100.881 31.2341 101.044C31.1488 101.207 31.0248 101.351 30.8621 101.476C30.6995 101.604 30.4995 101.705 30.2621 101.78C30.0275 101.857 29.7621 101.896 29.4661 101.896C29.1701 101.896 28.9115 101.867 28.6901 101.808C28.4688 101.749 28.2848 101.671 28.1381 101.572C27.9915 101.473 27.8808 101.359 27.8061 101.228C27.7341 101.1 27.6981 100.965 27.6981 100.824C27.6981 100.624 27.7608 100.455 27.8861 100.316C28.0115 100.177 28.1835 100.067 28.4021 99.984C28.2821 99.9306 28.1861 99.86 28.1141 99.772C28.0448 99.6813 28.0101 99.56 28.0101 99.408C28.0101 99.3493 28.0208 99.2893 28.0421 99.228C28.0635 99.164 28.0955 99.1013 28.1381 99.04C28.1835 98.976 28.2381 98.916 28.3021 98.86C28.3661 98.804 28.4408 98.7546 28.5261 98.712C28.3261 98.6 28.1701 98.452 28.0581 98.268C27.9461 98.0813 27.8901 97.8653 27.8901 97.62C27.8901 97.4226 27.9275 97.244 28.0021 97.084C28.0795 96.9213 28.1861 96.784 28.3221 96.672C28.4581 96.5573 28.6195 96.4693 28.8061 96.408C28.9955 96.3466 29.2021 96.316 29.4261 96.316C29.6021 96.316 29.7661 96.336 29.9181 96.376C30.0701 96.4133 30.2088 96.4693 30.3341 96.544H31.4341Z" fill="#EEEEEE" fill-opacity="0.5"/>
<path d="M33.5668 98.456C33.7108 98.456 33.8374 98.436 33.9468 98.396C34.0561 98.356 34.1481 98.3 34.2228 98.228C34.2974 98.156 34.3534 98.0706 34.3908 97.972C34.4281 97.8706 34.4468 97.76 34.4468 97.64C34.4468 97.392 34.3708 97.1946 34.2188 97.048C34.0694 96.9013 33.8521 96.828 33.5668 96.828C33.2788 96.828 33.0588 96.9013 32.9068 97.048C32.7574 97.1946 32.6828 97.392 32.6828 97.64C32.6828 97.76 32.7014 97.8706 32.7388 97.972C32.7788 98.0706 32.8361 98.156 32.9108 98.228C32.9854 98.3 33.0774 98.356 33.1868 98.396C33.2961 98.436 33.4228 98.456 33.5668 98.456ZM34.8508 100.656C34.8508 100.557 34.8228 100.477 34.7668 100.416C34.7108 100.355 34.6348 100.307 34.5388 100.272C34.4454 100.237 34.3361 100.213 34.2108 100.2C34.0854 100.184 33.9521 100.172 33.8108 100.164C33.6721 100.156 33.5308 100.148 33.3868 100.14C33.2428 100.132 33.1041 100.119 32.9708 100.1C32.8214 100.169 32.6988 100.257 32.6028 100.364C32.5094 100.468 32.4628 100.591 32.4628 100.732C32.4628 100.823 32.4854 100.907 32.5308 100.984C32.5788 101.064 32.6508 101.132 32.7468 101.188C32.8428 101.247 32.9628 101.292 33.1068 101.324C33.2534 101.359 33.4254 101.376 33.6228 101.376C33.8148 101.376 33.9868 101.359 34.1388 101.324C34.2908 101.289 34.4188 101.24 34.5228 101.176C34.6294 101.112 34.7108 101.036 34.7668 100.948C34.8228 100.86 34.8508 100.763 34.8508 100.656ZM35.5748 96.544V96.808C35.5748 96.896 35.5188 96.952 35.4068 96.976L34.9468 97.036C35.0374 97.212 35.0828 97.4066 35.0828 97.62C35.0828 97.8173 35.0441 97.9973 34.9668 98.16C34.8921 98.32 34.7881 98.4573 34.6548 98.572C34.5214 98.6866 34.3614 98.7746 34.1748 98.836C33.9881 98.8973 33.7854 98.928 33.5668 98.928C33.3774 98.928 33.1988 98.9053 33.0308 98.86C32.9454 98.9133 32.8801 98.9706 32.8348 99.032C32.7894 99.0906 32.7668 99.1506 32.7668 99.212C32.7668 99.308 32.8054 99.3813 32.8828 99.432C32.9628 99.48 33.0668 99.5146 33.1948 99.536C33.3228 99.5573 33.4681 99.5706 33.6308 99.576C33.7961 99.5813 33.9641 99.5906 34.1348 99.604C34.3081 99.6146 34.4761 99.6346 34.6388 99.664C34.8041 99.6933 34.9508 99.7413 35.0788 99.808C35.2068 99.8746 35.3094 99.9666 35.3868 100.084C35.4668 100.201 35.5068 100.353 35.5068 100.54C35.5068 100.713 35.4628 100.881 35.3748 101.044C35.2894 101.207 35.1654 101.351 35.0028 101.476C34.8401 101.604 34.6401 101.705 34.4028 101.78C34.1681 101.857 33.9028 101.896 33.6068 101.896C33.3108 101.896 33.0521 101.867 32.8308 101.808C32.6094 101.749 32.4254 101.671 32.2788 101.572C32.1321 101.473 32.0214 101.359 31.9468 101.228C31.8748 101.1 31.8388 100.965 31.8388 100.824C31.8388 100.624 31.9014 100.455 32.0268 100.316C32.1521 100.177 32.3241 100.067 32.5428 99.984C32.4228 99.9306 32.3268 99.86 32.2548 99.772C32.1854 99.6813 32.1508 99.56 32.1508 99.408C32.1508 99.3493 32.1614 99.2893 32.1828 99.228C32.2041 99.164 32.2361 99.1013 32.2788 99.04C32.3241 98.976 32.3788 98.916 32.4428 98.86C32.5068 98.804 32.5814 98.7546 32.6668 98.712C32.4668 98.6 32.3108 98.452 32.1988 98.268C32.0868 98.0813 32.0308 97.8653 32.0308 97.62C32.0308 97.4226 32.0681 97.244 32.1428 97.084C32.2201 96.9213 32.3268 96.784 32.4628 96.672C32.5988 96.5573 32.7601 96.4693 32.9468 96.408C33.1361 96.3466 33.3428 96.316 33.5668 96.316C33.7428 96.316 33.9068 96.336 34.0588 96.376C34.2108 96.4133 34.3494 96.4693 34.4748 96.544H35.5748Z" fill="#EEEEEE" fill-opacity="0.5"/>
<path d="M38.9605 97.968C38.9605 97.8026 38.9365 97.652 38.8885 97.516C38.8432 97.3773 38.7752 97.2586 38.6845 97.16C38.5965 97.0586 38.4885 96.9813 38.3605 96.928C38.2325 96.872 38.0872 96.844 37.9245 96.844C37.5832 96.844 37.3125 96.944 37.1125 97.144C36.9152 97.3413 36.7925 97.616 36.7445 97.968H38.9605ZM39.5365 99.868C39.4485 99.9746 39.3432 100.068 39.2205 100.148C39.0978 100.225 38.9658 100.289 38.8245 100.34C38.6858 100.391 38.5418 100.428 38.3925 100.452C38.2432 100.479 38.0952 100.492 37.9485 100.492C37.6685 100.492 37.4098 100.445 37.1725 100.352C36.9378 100.256 36.7338 100.117 36.5605 99.936C36.3898 99.752 36.2565 99.5253 36.1605 99.256C36.0645 98.9866 36.0165 98.6773 36.0165 98.328C36.0165 98.0453 36.0592 97.7813 36.1445 97.536C36.2325 97.2906 36.3578 97.0786 36.5205 96.9C36.6832 96.7186 36.8818 96.5773 37.1165 96.476C37.3512 96.372 37.6152 96.32 37.9085 96.32C38.1512 96.32 38.3752 96.3613 38.5805 96.444C38.7885 96.524 38.9672 96.6413 39.1165 96.796C39.2685 96.948 39.3872 97.1373 39.4725 97.364C39.5578 97.588 39.6005 97.844 39.6005 98.132C39.6005 98.244 39.5885 98.3186 39.5645 98.356C39.5405 98.3933 39.4952 98.412 39.4285 98.412H36.7205C36.7285 98.668 36.7632 98.8906 36.8245 99.08C36.8885 99.2693 36.9765 99.428 37.0885 99.556C37.2005 99.6813 37.3338 99.776 37.4885 99.84C37.6432 99.9013 37.8165 99.932 38.0085 99.932C38.1872 99.932 38.3405 99.912 38.4685 99.872C38.5992 99.8293 38.7112 99.784 38.8045 99.736C38.8978 99.688 38.9752 99.644 39.0365 99.604C39.1005 99.5613 39.1552 99.54 39.2005 99.54C39.2592 99.54 39.3045 99.5626 39.3365 99.608L39.5365 99.868Z" fill="#EEEEEE" fill-opacity="0.5"/>
<path d="M41.1511 97.196C41.2791 96.9186 41.4364 96.7026 41.6231 96.548C41.8097 96.3906 42.0377 96.312 42.3071 96.312C42.3924 96.312 42.4737 96.3213 42.5511 96.34C42.6311 96.3586 42.7017 96.388 42.7631 96.428L42.7111 96.96C42.6951 97.0266 42.6551 97.06 42.5911 97.06C42.5537 97.06 42.4991 97.052 42.4271 97.036C42.3551 97.02 42.2737 97.012 42.1831 97.012C42.0551 97.012 41.9404 97.0306 41.8391 97.068C41.7404 97.1053 41.6511 97.1613 41.5711 97.236C41.4937 97.308 41.4231 97.3986 41.3591 97.508C41.2977 97.6146 41.2417 97.7373 41.1911 97.876V100.436H40.4751V96.384H40.8831C40.9604 96.384 41.0137 96.3986 41.0431 96.428C41.0724 96.4573 41.0924 96.508 41.1031 96.58L41.1511 97.196Z" fill="#EEEEEE" fill-opacity="0.5"/>
<path d="M12.7208 110.536C12.9448 110.536 13.1421 110.509 13.3128 110.456C13.4861 110.4 13.6301 110.323 13.7448 110.224C13.8621 110.123 13.9501 110.003 14.0088 109.864C14.0675 109.725 14.0968 109.572 14.0968 109.404C14.0968 109.063 13.9848 108.805 13.7608 108.632C13.5368 108.459 13.2008 108.372 12.7528 108.372H11.9048V110.536H12.7208ZM15.3688 113.492H14.6808C14.5395 113.492 14.4355 113.437 14.3688 113.328L12.8808 111.28C12.8355 111.216 12.7861 111.171 12.7328 111.144C12.6821 111.115 12.6021 111.1 12.4928 111.1H11.9048V113.492H11.1328V107.76H12.7528C13.1155 107.76 13.4288 107.797 13.6928 107.872C13.9568 107.944 14.1741 108.049 14.3448 108.188C14.5181 108.327 14.6461 108.495 14.7288 108.692C14.8115 108.887 14.8528 109.105 14.8528 109.348C14.8528 109.551 14.8208 109.74 14.7568 109.916C14.6928 110.092 14.5995 110.251 14.4768 110.392C14.3568 110.531 14.2088 110.649 14.0328 110.748C13.8595 110.847 13.6621 110.921 13.4408 110.972C13.5395 111.028 13.6248 111.109 13.6968 111.216L15.3688 113.492Z" fill="#EEEEEE"/>
<path d="M18.1139 111.668C17.7859 111.679 17.5059 111.705 17.2739 111.748C17.0446 111.788 16.8566 111.841 16.7099 111.908C16.5659 111.975 16.4606 112.053 16.3939 112.144C16.3299 112.235 16.2979 112.336 16.2979 112.448C16.2979 112.555 16.3153 112.647 16.3499 112.724C16.3846 112.801 16.4313 112.865 16.4899 112.916C16.5513 112.964 16.6219 113 16.7019 113.024C16.7846 113.045 16.8726 113.056 16.9659 113.056C17.0913 113.056 17.2059 113.044 17.3099 113.02C17.4139 112.993 17.5113 112.956 17.6019 112.908C17.6953 112.86 17.7833 112.803 17.8659 112.736C17.9513 112.669 18.0339 112.593 18.1139 112.508V111.668ZM15.8139 110.012C16.0379 109.796 16.2793 109.635 16.5379 109.528C16.7966 109.421 17.0833 109.368 17.3979 109.368C17.6246 109.368 17.8259 109.405 18.0019 109.48C18.1779 109.555 18.3259 109.659 18.4459 109.792C18.5659 109.925 18.6566 110.087 18.7179 110.276C18.7793 110.465 18.8099 110.673 18.8099 110.9V113.492H18.4939C18.4246 113.492 18.3713 113.481 18.3339 113.46C18.2966 113.436 18.2673 113.391 18.2459 113.324L18.1659 112.94C18.0593 113.039 17.9553 113.127 17.8539 113.204C17.7526 113.279 17.6459 113.343 17.5339 113.396C17.4219 113.447 17.3019 113.485 17.1739 113.512C17.0486 113.541 16.9086 113.556 16.7539 113.556C16.5966 113.556 16.4486 113.535 16.3099 113.492C16.1713 113.447 16.0499 113.38 15.9459 113.292C15.8446 113.204 15.7633 113.093 15.7019 112.96C15.6433 112.824 15.6139 112.664 15.6139 112.48C15.6139 112.32 15.6579 112.167 15.7459 112.02C15.8339 111.871 15.9766 111.739 16.1739 111.624C16.3713 111.509 16.6286 111.416 16.9459 111.344C17.2633 111.269 17.6526 111.227 18.1139 111.216V110.9C18.1139 110.585 18.0459 110.348 17.9099 110.188C17.7739 110.025 17.5753 109.944 17.3139 109.944C17.1379 109.944 16.9899 109.967 16.8699 110.012C16.7526 110.055 16.6499 110.104 16.5619 110.16C16.4766 110.213 16.4019 110.263 16.3379 110.308C16.2766 110.351 16.2153 110.372 16.1539 110.372C16.1059 110.372 16.0646 110.36 16.0299 110.336C15.9953 110.309 15.9659 110.277 15.9419 110.24L15.8139 110.012Z" fill="#EEEEEE"/>
<path d="M20.5665 110.028C20.6545 109.929 20.7478 109.84 20.8465 109.76C20.9452 109.68 21.0492 109.612 21.1585 109.556C21.2705 109.497 21.3878 109.453 21.5105 109.424C21.6358 109.392 21.7705 109.376 21.9145 109.376C22.1358 109.376 22.3305 109.413 22.4985 109.488C22.6692 109.56 22.8105 109.664 22.9225 109.8C23.0372 109.933 23.1238 110.095 23.1825 110.284C23.2412 110.473 23.2705 110.683 23.2705 110.912V113.492H22.5545V110.912C22.5545 110.605 22.4838 110.368 22.3425 110.2C22.2038 110.029 21.9918 109.944 21.7065 109.944C21.4958 109.944 21.2985 109.995 21.1145 110.096C20.9332 110.197 20.7652 110.335 20.6105 110.508V113.492H19.8945V109.44H20.3225C20.4238 109.44 20.4865 109.489 20.5105 109.588L20.5665 110.028Z" fill="#EEEEEE"/>
<path d="M26.9954 110.404C26.8621 110.225 26.7181 110.101 26.5634 110.032C26.4088 109.96 26.2354 109.924 26.0434 109.924C25.6674 109.924 25.3781 110.059 25.1754 110.328C24.9728 110.597 24.8714 110.981 24.8714 111.48C24.8714 111.744 24.8941 111.971 24.9394 112.16C24.9848 112.347 25.0514 112.501 25.1394 112.624C25.2274 112.744 25.3354 112.832 25.4634 112.888C25.5914 112.944 25.7368 112.972 25.8994 112.972C26.1341 112.972 26.3381 112.919 26.5114 112.812C26.6874 112.705 26.8488 112.555 26.9954 112.36V110.404ZM27.7074 107.6V113.492H27.2834C27.1821 113.492 27.1181 113.443 27.0914 113.344L27.0274 112.852C26.8541 113.06 26.6568 113.228 26.4354 113.356C26.2141 113.484 25.9581 113.548 25.6674 113.548C25.4354 113.548 25.2248 113.504 25.0354 113.416C24.8461 113.325 24.6848 113.193 24.5514 113.02C24.4181 112.847 24.3154 112.631 24.2434 112.372C24.1714 112.113 24.1354 111.816 24.1354 111.48C24.1354 111.181 24.1754 110.904 24.2554 110.648C24.3354 110.389 24.4501 110.165 24.5994 109.976C24.7488 109.787 24.9314 109.639 25.1474 109.532C25.3661 109.423 25.6114 109.368 25.8834 109.368C26.1314 109.368 26.3434 109.411 26.5194 109.496C26.6981 109.579 26.8568 109.695 26.9954 109.844V107.6H27.7074Z" fill="#EEEEEE"/>
<path d="M30.54 109.376C30.836 109.376 31.1027 109.425 31.34 109.524C31.5773 109.623 31.78 109.763 31.948 109.944C32.116 110.125 32.244 110.345 32.332 110.604C32.4227 110.86 32.468 111.147 32.468 111.464C32.468 111.784 32.4227 112.072 32.332 112.328C32.244 112.584 32.116 112.803 31.948 112.984C31.78 113.165 31.5773 113.305 31.34 113.404C31.1027 113.5 30.836 113.548 30.54 113.548C30.2413 113.548 29.972 113.5 29.732 113.404C29.4947 113.305 29.292 113.165 29.124 112.984C28.956 112.803 28.8267 112.584 28.736 112.328C28.648 112.072 28.604 111.784 28.604 111.464C28.604 111.147 28.648 110.86 28.736 110.604C28.8267 110.345 28.956 110.125 29.124 109.944C29.292 109.763 29.4947 109.623 29.732 109.524C29.972 109.425 30.2413 109.376 30.54 109.376ZM30.54 112.992C30.94 112.992 31.2387 112.859 31.436 112.592C31.6333 112.323 31.732 111.948 31.732 111.468C31.732 110.985 31.6333 110.609 31.436 110.34C31.2387 110.071 30.94 109.936 30.54 109.936C30.3373 109.936 30.16 109.971 30.008 110.04C29.8587 110.109 29.7333 110.209 29.632 110.34C29.5333 110.471 29.4587 110.632 29.408 110.824C29.36 111.013 29.336 111.228 29.336 111.468C29.336 111.948 29.4347 112.323 29.632 112.592C29.832 112.859 30.1347 112.992 30.54 112.992Z" fill="#EEEEEE"/>
<path d="M33.3711 113.492V109.44H33.7991C33.9004 109.44 33.9631 109.489 33.9871 109.588L34.0391 110.004C34.1884 109.82 34.3564 109.669 34.5431 109.552C34.7297 109.435 34.9457 109.376 35.1911 109.376C35.4631 109.376 35.6831 109.452 35.8511 109.604C36.0217 109.756 36.1444 109.961 36.2191 110.22C36.2777 110.073 36.3524 109.947 36.4431 109.84C36.5364 109.733 36.6404 109.645 36.7551 109.576C36.8697 109.507 36.9911 109.456 37.1191 109.424C37.2497 109.392 37.3817 109.376 37.5151 109.376C37.7284 109.376 37.9177 109.411 38.0831 109.48C38.2511 109.547 38.3924 109.645 38.5071 109.776C38.6244 109.907 38.7137 110.068 38.7751 110.26C38.8364 110.449 38.8671 110.667 38.8671 110.912V113.492H38.1511V110.912C38.1511 110.595 38.0817 110.355 37.9431 110.192C37.8044 110.027 37.6044 109.944 37.3431 109.944C37.2257 109.944 37.1137 109.965 37.0071 110.008C36.9031 110.048 36.8111 110.108 36.7311 110.188C36.6511 110.268 36.5871 110.369 36.5391 110.492C36.4937 110.612 36.4711 110.752 36.4711 110.912V113.492H35.7551V110.912C35.7551 110.587 35.6897 110.344 35.5591 110.184C35.4284 110.024 35.2377 109.944 34.9871 109.944C34.8111 109.944 34.6484 109.992 34.4991 110.088C34.3497 110.181 34.2124 110.309 34.0871 110.472V113.492H33.3711Z" fill="#EEEEEE"/>
<path fill-rule="evenodd" clip-rule="evenodd" d="M0.5 0.5H49.5V25.5H0.5V0.5ZM0.5 26V38.5H49.5V26H0.5ZM0 0H0.5H49.5H50V0.5V38.5V39H49.5H0.5H0V38.5V0.5V0Z" fill="white" fill-opacity="0.25"/>
<path fill-rule="evenodd" clip-rule="evenodd" d="M0.5 78.5H49.5V91H0.5V78.5ZM0.5 91.5V116.5H49.5V91.5H0.5ZM0 78H0.5H49.5H50V78.5V116.5V117H49.5H0.5H0V116.5V78.5V78Z" fill="white" fill-opacity="0.25"/>
</g>
<defs>
<clipPath id="clip0_108_441">
<rect width="50" height="117" fill="white"/>
</clipPath>
</defs>
</svg>
