<svg width="18" height="28" viewBox="0 0 18 28" fill="none" xmlns="http://www.w3.org/2000/svg">
<rect x="1.25" y="14.75" width="15.5" height="12.5" fill="black" fill-opacity="0.1" stroke="#D4164F" stroke-width="0.5"/>
<path d="M6.58144 6.92125C6.77744 6.92125 6.95011 6.89792 7.09944 6.85125C7.25111 6.80225 7.37711 6.73458 7.47744 6.64825C7.58011 6.55958 7.65711 6.45458 7.70844 6.33325C7.75977 6.21192 7.78544 6.07775 7.78544 5.93075C7.78544 5.63208 7.68744 5.40692 7.49144 5.25525C7.29544 5.10358 7.00144 5.02775 6.60944 5.02775H5.86744V6.92125H6.58144ZM8.89844 9.50775H8.29644C8.17277 9.50775 8.08177 9.45992 8.02344 9.36425L6.72144 7.57225C6.68177 7.51625 6.63861 7.47658 6.59194 7.45325C6.54761 7.42758 6.47761 7.41475 6.38194 7.41475H5.86744V9.50775H5.19194V4.49225H6.60944C6.92677 4.49225 7.20094 4.52492 7.43194 4.59025C7.66294 4.65325 7.85311 4.74542 8.00244 4.86675C8.15411 4.98808 8.26611 5.13508 8.33844 5.30775C8.41077 5.47808 8.44694 5.66942 8.44694 5.88175C8.44694 6.05908 8.41894 6.22475 8.36294 6.37875C8.30694 6.53275 8.22527 6.67158 8.11794 6.79525C8.01294 6.91658 7.88344 7.02042 7.72944 7.10675C7.57777 7.19308 7.40511 7.25842 7.21144 7.30275C7.29777 7.35175 7.37244 7.42292 7.43544 7.51625L8.89844 9.50775Z" fill="white" fill-opacity="0.5"/>
<path d="M12.808 5.06275H11.184V9.50775H10.5085V5.06275H8.88105V4.49225H12.808V5.06275Z" fill="white" fill-opacity="0.5"/>
<rect x="1.25" y="0.757751" width="15.5" height="12.5" stroke="white" stroke-opacity="0.25" stroke-width="0.5"/>
<path d="M6.58144 20.9212C6.77744 20.9212 6.95011 20.8979 7.09944 20.8512C7.25111 20.8022 7.37711 20.7346 7.47744 20.6482C7.58011 20.5596 7.65711 20.4546 7.70844 20.3332C7.75977 20.2119 7.78544 20.0777 7.78544 19.9307C7.78544 19.6321 7.68744 19.4069 7.49144 19.2552C7.29544 19.1036 7.00144 19.0277 6.60944 19.0277H5.86744V20.9212H6.58144ZM8.89844 23.5077H8.29644C8.17277 23.5077 8.08177 23.4599 8.02344 23.3642L6.72144 21.5722C6.68177 21.5162 6.63861 21.4766 6.59194 21.4532C6.54761 21.4276 6.47761 21.4147 6.38194 21.4147H5.86744V23.5077H5.19194V18.4922H6.60944C6.92677 18.4922 7.20094 18.5249 7.43194 18.5902C7.66294 18.6532 7.85311 18.7454 8.00244 18.8667C8.15411 18.9881 8.26611 19.1351 8.33844 19.3077C8.41077 19.4781 8.44694 19.6694 8.44694 19.8817C8.44694 20.0591 8.41894 20.2247 8.36294 20.3787C8.30694 20.5327 8.22527 20.6716 8.11794 20.7952C8.01294 20.9166 7.88344 21.0204 7.72944 21.1067C7.57777 21.1931 7.40511 21.2584 7.21144 21.3027C7.29777 21.3517 7.37244 21.4229 7.43544 21.5162L8.89844 23.5077Z" fill="#EEEEEE"/>
<path d="M12.808 19.0627H11.184V23.5077H10.5085V19.0627H8.88105V18.4922H12.808V19.0627Z" fill="#EEEEEE"/>
</svg>
