<svg width="18" height="28" viewBox="0 0 18 28" fill="none" xmlns="http://www.w3.org/2000/svg">
<rect x="1.25" y="14.75" width="15.5" height="12.5" fill="black" fill-opacity="0.1" stroke="#D4164F" stroke-width="0.5"/>
<rect x="1.25" y="0.75" width="15.5" height="12.5" stroke="white" stroke-opacity="0.25" stroke-width="0.5"/>
<path d="M5.66236 20.6902H5.91786C6.00653 20.6902 6.0777 20.6797 6.13136 20.6587C6.18503 20.6354 6.23403 20.5969 6.27836 20.5432L7.94786 18.6532C7.99453 18.5926 8.04353 18.5506 8.09486 18.5272C8.1462 18.5039 8.2092 18.4922 8.28386 18.4922H8.85786L6.94686 20.6517C6.9002 20.7077 6.8547 20.7544 6.81036 20.7917C6.76836 20.8267 6.72286 20.8559 6.67386 20.8792C6.73686 20.9002 6.79403 20.9317 6.84536 20.9737C6.8967 21.0134 6.94686 21.0659 6.99586 21.1312L8.99086 23.5077H8.40286C8.35853 23.5077 8.32003 23.5054 8.28736 23.5007C8.25703 23.4937 8.2302 23.4844 8.20686 23.4727C8.18353 23.4587 8.16253 23.4436 8.14386 23.4272C8.12753 23.4086 8.1112 23.3876 8.09486 23.3642L6.36586 21.3727C6.3192 21.3144 6.26903 21.2736 6.21536 21.2502C6.1617 21.2246 6.08003 21.2117 5.97036 21.2117H5.66236V23.5077H4.98686V18.4922H5.66236V20.6902Z" fill="#EEEEEE"/>
<path d="M13.0131 19.0627H11.3891V23.5077H10.7136V19.0627H9.08613V18.4922H13.0131V19.0627Z" fill="#EEEEEE"/>
<path d="M5.66236 6.69025H5.91786C6.00653 6.69025 6.0777 6.67975 6.13136 6.65875C6.18503 6.63542 6.23403 6.59692 6.27836 6.54325L7.94786 4.65325C7.99453 4.59258 8.04353 4.55058 8.09486 4.52725C8.1462 4.50392 8.2092 4.49225 8.28386 4.49225H8.85786L6.94686 6.65175C6.9002 6.70775 6.8547 6.75442 6.81036 6.79175C6.76836 6.82675 6.72286 6.85592 6.67386 6.87925C6.73686 6.90025 6.79403 6.93175 6.84536 6.97375C6.8967 7.01342 6.94686 7.06592 6.99586 7.13125L8.99086 9.50775H8.40286C8.35853 9.50775 8.32003 9.50542 8.28736 9.50075C8.25703 9.49375 8.2302 9.48442 8.20686 9.47275C8.18353 9.45875 8.16253 9.44358 8.14386 9.42725C8.12753 9.40858 8.1112 9.38758 8.09486 9.36425L6.36586 7.37275C6.3192 7.31442 6.26903 7.27358 6.21536 7.25025C6.1617 7.22458 6.08003 7.21175 5.97036 7.21175H5.66236V9.50775H4.98686V4.49225H5.66236V6.69025Z" fill="white" fill-opacity="0.5"/>
<path d="M13.0131 5.06275H11.3891V9.50775H10.7136V5.06275H9.08613V4.49225H13.0131V5.06275Z" fill="white" fill-opacity="0.5"/>
</svg>
