<svg width="139" height="57" viewBox="0 0 139 57" fill="none" xmlns="http://www.w3.org/2000/svg">
<path fill-rule="evenodd" clip-rule="evenodd" d="M35 4L38 6L35 8V6.5H34V5.5H35V4Z" fill="white" fill-opacity="0.25"/>
<path fill-rule="evenodd" clip-rule="evenodd" d="M58 4L61 6L58 8V6.5H57V5.5H58V4Z" fill="white" fill-opacity="0.25"/>
<path fill-rule="evenodd" clip-rule="evenodd" d="M81 4L84 6L81 8V6.5H80V5.5H81V4Z" fill="white" fill-opacity="0.25"/>
<path fill-rule="evenodd" clip-rule="evenodd" d="M35 49L38 51L35 53V51.5H34V50.5H35V49Z" fill="white" fill-opacity="0.25"/>
<path fill-rule="evenodd" clip-rule="evenodd" d="M58 49L61 51L58 53V51.5H57V50.5H58V49Z" fill="white" fill-opacity="0.25"/>
<path fill-rule="evenodd" clip-rule="evenodd" d="M81 49L84 51L81 53V51.5H80V50.5H81V49Z" fill="white" fill-opacity="0.25"/>
<path fill-rule="evenodd" clip-rule="evenodd" d="M26.5 20L24.5 23L22.5 20H24V19H25V20H26.5Z" fill="white" fill-opacity="0.25"/>
<path fill-rule="evenodd" clip-rule="evenodd" d="M49.5 20L47.5 23L45.5 20H47V19H48V20H49.5Z" fill="white" fill-opacity="0.25"/>
<path fill-rule="evenodd" clip-rule="evenodd" d="M72.5 20L70.5 23L68.5 20H70V19H71V20H72.5Z" fill="white" fill-opacity="0.25"/>
<path fill-rule="evenodd" clip-rule="evenodd" d="M95.5 20L93.5 23L91.5 20H93V19H94V20H95.5Z" fill="white" fill-opacity="0.25"/>
<path fill-rule="evenodd" clip-rule="evenodd" d="M112.5 21.5L110.5 24.5L108.5 21.5H110V20.5H111V21.5H112.5Z" fill="white" fill-opacity="0.25"/>
<path fill-rule="evenodd" clip-rule="evenodd" d="M103.5 26.5L106.5 28.5L103.5 30.5V29H102.5V28H103.5V26.5Z" fill="white" fill-opacity="0.25"/>
<path fill-rule="evenodd" clip-rule="evenodd" d="M131.5 12L129.5 15L127.5 12H129V11H130V12H131.5Z" fill="white" fill-opacity="0.25"/>
<path fill-rule="evenodd" clip-rule="evenodd" d="M131.5 27L129.5 30L127.5 27H129V26H130V27H131.5Z" fill="white" fill-opacity="0.25"/>
<path fill-rule="evenodd" clip-rule="evenodd" d="M131.5 42L129.5 45L127.5 42H129V41H130V42H131.5Z" fill="white" fill-opacity="0.25"/>
<path d="M35.5 28H34.5V29H35.5V28Z" fill="white" fill-opacity="0.25"/>
<path d="M37.5 28H36.5V29H37.5V28Z" fill="white" fill-opacity="0.25"/>
<path d="M58.5 28H57.5V29H58.5V28Z" fill="white" fill-opacity="0.25"/>
<path d="M60.5 28H59.5V29H60.5V28Z" fill="white" fill-opacity="0.25"/>
<path d="M81.5 28H80.5V29H81.5V28Z" fill="white" fill-opacity="0.25"/>
<path d="M83.5 28H82.5V29H83.5V28Z" fill="white" fill-opacity="0.25"/>
<path d="M24 16.5H24.5H24ZM24.5 16.5V19V16.5ZM24.5 16.5H47.5H24.5ZM47.5 16.5V19V16.5ZM47.5 16.5H70.5H47.5ZM70.5 16.5V19V16.5ZM70.5 16.5H93.5H70.5ZM93.5 16.5H110.5H93.5ZM93.5 16.5V19V16.5ZM103 5.5H110.5H103ZM110.5 5V20.5V5Z" fill="white" fill-opacity="0.25"/>
<path d="M24 16.5H24.5M24.5 16.5V19M24.5 16.5H47.5M47.5 16.5V19M47.5 16.5H70.5M70.5 16.5V19M70.5 16.5H93.5M93.5 16.5H110.5M93.5 16.5V19M103 5.5H110.5M110.5 5V20.5" stroke="white" stroke-opacity="0.25"/>
<path fill-rule="evenodd" clip-rule="evenodd" d="M112.5 35.5H111V36.5V51V51.5H110.5H103V50.5H110V40.0005H93.5H70.5H47.5H24.5H24V39.5005V39.0005V38V37.0005V37H22.5L24.5 34L26.5 37H25V37.0005V38V39.0005H47V38V37.0005V37H45.5L47.5 34L49.5 37H48V37.0005V38V39.0005H70V38V37.0005V37H68.5L70.5 34L72.5 37H71V37.0005V38V39.0005H93V38V37.0005V37H91.5L93.5 34L95.5 37H94V37.0005V38V39.0005H110V36.5V35.5H108.5L110.5 32.5L112.5 35.5Z" fill="white" fill-opacity="0.25"/>
<path fill-rule="evenodd" clip-rule="evenodd" d="M117.75 3.5L120 5.5L117.75 7.5V6H117V28.5V29H116.5H114.469C114.223 30.9732 112.54 32.5 110.5 32.5C108.291 32.5 106.5 30.7091 106.5 28.5C106.5 26.2909 108.291 24.5 110.5 24.5C112.54 24.5 114.223 26.0268 114.469 28H116V5.5V5H116.5H117H117.75V3.5ZM107.5 28.5C107.5 26.8431 108.843 25.5 110.5 25.5C112.157 25.5 113.5 26.8431 113.5 28.5C113.5 30.1569 112.157 31.5 110.5 31.5C108.843 31.5 107.5 30.1569 107.5 28.5Z" fill="white" fill-opacity="0.25"/>
<path d="M13 6H15" stroke="white" stroke-opacity="0.25"/>
<path d="M13 51H15" stroke="white" stroke-opacity="0.25"/>
<path fill-rule="evenodd" clip-rule="evenodd" d="M110.072 26.5H110.929V28.0726L112.5 28.0714V28.9286L110.929 28.9298V30.5001H110.072V28.9304L108.501 28.9315L108.5 28.0744L110.072 28.0732V26.5Z" fill="white" fill-opacity="0.25"/>
</svg>
