<svg width="134" height="290" viewBox="0 0 134 290" fill="none" xmlns="http://www.w3.org/2000/svg">
<rect x="101.25" y="264.25" width="31.5" height="10.5" fill="black" fill-opacity="0.1" stroke="#D4164F" stroke-width="0.5"/>
<rect x="67.25" y="195.25" width="31.5" height="10.5" fill="black" fill-opacity="0.1" stroke="#D4164F" stroke-width="0.5"/>
<rect x="37.25" y="126.25" width="27.5" height="10.5" fill="black" fill-opacity="0.1" stroke="#D4164F" stroke-width="0.5"/>
<rect x="1.25" y="57.25" width="33.5" height="10.5" fill="black" fill-opacity="0.1" stroke="#D4164F" stroke-width="0.5"/>
<path fill-rule="evenodd" clip-rule="evenodd" d="M1 211V214H121V222H128V224L132 221.5L128 219V221H123V211H1Z" fill="#D4164F"/>
<path d="M38 239H37V248.012H83V244H82V247H38V239Z" fill="#D4164F"/>
<path fill-rule="evenodd" clip-rule="evenodd" d="M82 219H80L82.5 215L85 219H83H82Z" fill="#D4164F"/>
<path d="M82 233V218.5H83V233H82Z" fill="#D4164F"/>
<path fill-rule="evenodd" clip-rule="evenodd" d="M50 219H48L50.5 215L53 219H51H50Z" fill="#D4164F"/>
<path d="M50 233V218.5H51V233H50Z" fill="#D4164F"/>
<path fill-rule="evenodd" clip-rule="evenodd" d="M18 219H16L18.5 215L21 219H19H18Z" fill="#D4164F"/>
<path d="M18 233V218.5H19V233H18Z" fill="#D4164F"/>
<path fill-rule="evenodd" clip-rule="evenodd" d="M29 239V241L25 238.5L29 236V238V239Z" fill="#D4164F"/>
<path d="M45 239H28.5V238H45V239Z" fill="#D4164F"/>
<path fill-rule="evenodd" clip-rule="evenodd" d="M1 142V145H121V153H128V155L132 152.5L128 150V152H123V142H1Z" fill="#D4164F"/>
<path fill-rule="evenodd" clip-rule="evenodd" d="M82 150H80L82.5 146L85 150H83H82Z" fill="#D4164F"/>
<path d="M82 164V149.5H83V164H82Z" fill="#D4164F"/>
<path fill-rule="evenodd" clip-rule="evenodd" d="M50 150H48L50.5 146L53 150H51H50Z" fill="#D4164F"/>
<path d="M50 164V149.5H51V164H50Z" fill="#D4164F"/>
<path fill-rule="evenodd" clip-rule="evenodd" d="M18 150H16L18.5 146L21 150H19H18Z" fill="#D4164F"/>
<path d="M18 164V149.5H19V164H18Z" fill="#D4164F"/>
<path fill-rule="evenodd" clip-rule="evenodd" d="M61 170V172L57 169.5L61 167V169V170Z" fill="#D4164F"/>
<path d="M77 170H60.5V169H77V170Z" fill="#D4164F"/>
<path fill-rule="evenodd" clip-rule="evenodd" d="M29 170V172L25 169.5L29 167V169V170Z" fill="#D4164F"/>
<path d="M45 170H28.5V169H45V170Z" fill="#D4164F"/>
<path fill-rule="evenodd" clip-rule="evenodd" d="M1 73V76H121V84H128V86L132 83.5L128 81V83H123V73H1Z" fill="#D4164F"/>
<path fill-rule="evenodd" clip-rule="evenodd" d="M82 81H80L82.5 77L85 81H83H82Z" fill="#D4164F"/>
<path d="M82 95V80.5H83V95H82Z" fill="#D4164F"/>
<path fill-rule="evenodd" clip-rule="evenodd" d="M50 81H48L50.5 77L53 81H51H50Z" fill="#D4164F"/>
<path d="M50 95V80.5H51V95H50Z" fill="#D4164F"/>
<path fill-rule="evenodd" clip-rule="evenodd" d="M18 81H16L18.5 77L21 81H19H18Z" fill="#D4164F"/>
<path d="M18 95V80.5H19V95H18Z" fill="#D4164F"/>
<path fill-rule="evenodd" clip-rule="evenodd" d="M29 101V103L25 100.5L29 98V100V101Z" fill="#D4164F"/>
<path d="M45 101H28.5V100H45V101Z" fill="#D4164F"/>
<g opacity="0.5">
<path fill-rule="evenodd" clip-rule="evenodd" d="M24 88V86L28 88.5L24 91V89V88Z" fill="#D4164F"/>
<path d="M19 88H24.5V89H19V88Z" fill="#D4164F"/>
</g>
<path d="M36.4445 16.4948L37.5051 17.5555L35.5592 19.5015L37.5043 21.4438L36.4445 22.5053L34.4985 20.5621L32.5554 22.5052L31.4947 21.4446L33.4371 19.5022L31.4918 17.5598L32.5517 16.4984L34.4977 18.4416L36.4445 16.4948Z" fill="#EEEEEE" fill-opacity="0.5"/>
<path d="M68.4445 16.4948L69.5051 17.5555L67.5592 19.5015L69.5043 21.4438L68.4445 22.5053L66.4985 20.5621L64.5554 22.5052L63.4947 21.4446L65.4371 19.5022L63.4918 17.5598L64.5517 16.4984L66.4977 18.4416L68.4445 16.4948Z" fill="#EEEEEE" fill-opacity="0.5"/>
<path fill-rule="evenodd" clip-rule="evenodd" d="M82 12H80L82.5 8L85 12H83H82Z" fill="#D4164F"/>
<path d="M82 26V11.5H83V26H82Z" fill="#D4164F"/>
<path fill-rule="evenodd" clip-rule="evenodd" d="M50 12H48L50.5 8L53 12H51H50Z" fill="#D4164F"/>
<path d="M50 26V11.5H51V26H50Z" fill="#D4164F"/>
<path fill-rule="evenodd" clip-rule="evenodd" d="M18 12H16L18.5 8L21 12H19H18Z" fill="#D4164F"/>
<path d="M18 26V11.5H19V26H18Z" fill="#D4164F"/>
<path fill-rule="evenodd" clip-rule="evenodd" d="M34.5 8L32 12H34V14H34.5C31.4625 14 29 16.4625 29 19.5C29 22.5375 31.4625 25 34.5 25C37.5375 25 40 22.5375 40 19.5C40 16.4625 37.5375 14 34.5 14H35V12H37L34.5 8ZM30 19.5C30 17.0147 32.0147 15 34.5 15C36.9853 15 39 17.0147 39 19.5C39 21.9853 36.9853 24 34.5 24C32.0147 24 30 21.9853 30 19.5Z" fill="#D4164F" fill-opacity="0.5"/>
<g opacity="0.5">
<path d="M66 12H64L66.5 8L69 12H67V14H66.5H66V12Z" fill="#D4164F"/>
<path fill-rule="evenodd" clip-rule="evenodd" d="M66.5 14C69.5375 14 72 16.4625 72 19.5C72 22.5375 69.5375 25 66.5 25C63.4625 25 61 22.5375 61 19.5C61 16.4625 63.4625 14 66.5 14ZM66.5 15C64.0147 15 62 17.0147 62 19.5C62 21.9853 64.0147 24 66.5 24C68.9853 24 71 21.9853 71 19.5C71 17.0147 68.9853 15 66.5 15Z" fill="#D4164F"/>
</g>
<path d="M45 22V20H50V19H45V17L41 19.5L45 22Z" fill="#D4164F" fill-opacity="0.5"/>
<path d="M77 22V20H82V19H77V17L73 19.5L77 22Z" fill="#D4164F" fill-opacity="0.5"/>
<path d="M24 17V19H19V20H24V22L28 19.5L24 17Z" fill="#D4164F" fill-opacity="0.5"/>
<g opacity="0.5">
<path fill-rule="evenodd" clip-rule="evenodd" d="M24 157V155L28 157.5L24 160V158V157Z" fill="#D4164F"/>
<path d="M19 157H24.5V158H19V157Z" fill="#D4164F"/>
</g>
<path d="M36.4445 154.495L37.5051 155.555L35.5592 157.501L37.5043 159.444L36.4445 160.505L34.4985 158.562L32.5554 160.505L31.4947 159.445L33.4371 157.502L31.4918 155.56L32.5517 154.498L34.4977 156.442L36.4445 154.495Z" fill="#EEEEEE" fill-opacity="0.5"/>
<path d="M68.4445 154.495L69.5051 155.555L67.5592 157.501L69.5043 159.444L68.4445 160.505L66.4985 158.562L64.5554 160.505L63.4947 159.445L65.4371 157.502L63.4918 155.56L64.5517 154.498L66.4977 156.442L68.4445 154.495Z" fill="#EEEEEE" fill-opacity="0.5"/>
<path fill-rule="evenodd" clip-rule="evenodd" d="M34.5 146L32 150H34V152H34.5C31.4625 152 29 154.462 29 157.5C29 160.538 31.4625 163 34.5 163C37.5375 163 40 160.538 40 157.5C40 154.462 37.5375 152 34.5 152H35V150H37L34.5 146ZM30 157.5C30 155.015 32.0147 153 34.5 153C36.9853 153 39 155.015 39 157.5C39 159.985 36.9853 162 34.5 162C32.0147 162 30 159.985 30 157.5Z" fill="#D4164F" fill-opacity="0.5"/>
<g opacity="0.5">
<path d="M66 150H64L66.5 146L69 150H67V152H66.5H66V150Z" fill="#D4164F"/>
<path fill-rule="evenodd" clip-rule="evenodd" d="M66.5 152C69.5375 152 72 154.462 72 157.5C72 160.538 69.5375 163 66.5 163C63.4625 163 61 160.538 61 157.5C61 154.462 63.4625 152 66.5 152ZM66.5 153C64.0147 153 62 155.015 62 157.5C62 159.985 64.0147 162 66.5 162C68.9853 162 71 159.985 71 157.5C71 155.015 68.9853 153 66.5 153Z" fill="#D4164F"/>
</g>
<path d="M45 160V158H50V157H45V155L41 157.5L45 160Z" fill="#D4164F" fill-opacity="0.5"/>
<path d="M77 160V158H82V157H77V155L73 157.5L77 160Z" fill="#D4164F" fill-opacity="0.5"/>
<path d="M56 155V157H51V158H56V160L60 157.5L56 155Z" fill="#D4164F" fill-opacity="0.5"/>
<path fill-rule="evenodd" clip-rule="evenodd" d="M113.5 150H111.5L114 146L116.5 150H114.5V164H119.5V175H108.5V164H113.5V150ZM109.5 174V165H118.5V174H109.5Z" fill="#D4164F" fill-opacity="0.5"/>
<g opacity="0.5">
<path fill-rule="evenodd" clip-rule="evenodd" d="M24 226V224L28 226.5L24 229V227V226Z" fill="#D4164F"/>
<path d="M19 226H24.5V227H19V226Z" fill="#D4164F"/>
</g>
<path d="M36.4445 223.495L37.5051 224.555L35.5592 226.501L37.5043 228.444L36.4445 229.505L34.4985 227.562L32.5554 229.505L31.4947 228.445L33.4371 226.502L31.4918 224.56L32.5517 223.498L34.4977 225.442L36.4445 223.495Z" fill="#EEEEEE" fill-opacity="0.5"/>
<path d="M68.4445 223.495L69.5051 224.555L67.5592 226.501L69.5043 228.444L68.4445 229.505L66.4985 227.562L64.5554 229.505L63.4947 228.445L65.4371 226.502L63.4918 224.56L64.5517 223.498L66.4977 225.442L68.4445 223.495Z" fill="#EEEEEE" fill-opacity="0.5"/>
<path fill-rule="evenodd" clip-rule="evenodd" d="M34.5 215L32 219H34V221H34.5C31.4625 221 29 223.462 29 226.5C29 229.538 31.4625 232 34.5 232C37.5375 232 40 229.538 40 226.5C40 223.462 37.5375 221 34.5 221H35V219H37L34.5 215ZM30 226.5C30 224.015 32.0147 222 34.5 222C36.9853 222 39 224.015 39 226.5C39 228.985 36.9853 231 34.5 231C32.0147 231 30 228.985 30 226.5Z" fill="#D4164F" fill-opacity="0.5"/>
<g opacity="0.5">
<path d="M66 219H64L66.5 215L69 219H67V221H66.5H66V219Z" fill="#D4164F"/>
<path fill-rule="evenodd" clip-rule="evenodd" d="M66.5 221C69.5375 221 72 223.462 72 226.5C72 229.538 69.5375 232 66.5 232C63.4625 232 61 229.538 61 226.5C61 223.462 63.4625 221 66.5 221ZM66.5 222C64.0147 222 62 224.015 62 226.5C62 228.985 64.0147 231 66.5 231C68.9853 231 71 228.985 71 226.5C71 224.015 68.9853 222 66.5 222Z" fill="#D4164F"/>
</g>
<path d="M45 229V227H50V226H45V224L41 226.5L45 229Z" fill="#D4164F" fill-opacity="0.5"/>
<path d="M77 229V227H82V226H77V224L73 226.5L77 229Z" fill="#D4164F" fill-opacity="0.5"/>
<path d="M56 224V226H51V227H56V229L60 226.5L56 224Z" fill="#D4164F" fill-opacity="0.5"/>
<path fill-rule="evenodd" clip-rule="evenodd" d="M113.5 219H111.5L114 215L116.5 219H114.5V233H119.5V244H108.5V233H113.5V219ZM109.5 243V234H118.5V243H109.5Z" fill="#D4164F" fill-opacity="0.5"/>
<path d="M56 17V19H51V20H56V22L60 19.5L56 17Z" fill="#D4164F" fill-opacity="0.5"/>
<rect x="13.5" y="26.5" width="10" height="10" stroke="#D4164F"/>
<rect x="45.5" y="26.5" width="10" height="10" stroke="#D4164F"/>
<rect x="77.5" y="26.5" width="10" height="10" stroke="#D4164F"/>
<path fill-rule="evenodd" clip-rule="evenodd" d="M113.5 12H111.5L114 8L116.5 12H114.5V26H119.5V37H108.5V26H113.5V12ZM109.5 36V27H118.5V36H109.5Z" fill="#D4164F" fill-opacity="0.5"/>
<path d="M36.4445 85.4948L37.5051 86.5555L35.5592 88.5014L37.5043 90.4438L36.4445 91.5053L34.4985 89.562L32.5554 91.5051L31.4947 90.4445L33.4371 88.5021L31.4918 86.5597L32.5517 85.4984L34.4977 87.4416L36.4445 85.4948Z" fill="#EEEEEE" fill-opacity="0.5"/>
<path d="M68.4445 85.4948L69.5051 86.5555L67.5592 88.5014L69.5043 90.4438L68.4445 91.5053L66.4985 89.562L64.5554 91.5051L63.4947 90.4445L65.4371 88.5021L63.4918 86.5597L64.5517 85.4984L66.4977 87.4416L68.4445 85.4948Z" fill="#EEEEEE" fill-opacity="0.5"/>
<path fill-rule="evenodd" clip-rule="evenodd" d="M34.5 77L32 81H34V83H34.5C31.4625 83 29 85.4625 29 88.5C29 91.5375 31.4625 94 34.5 94C37.5375 94 40 91.5375 40 88.5C40 85.4625 37.5375 83 34.5 83H35V81H37L34.5 77ZM30 88.5C30 86.0147 32.0147 84 34.5 84C36.9853 84 39 86.0147 39 88.5C39 90.9853 36.9853 93 34.5 93C32.0147 93 30 90.9853 30 88.5Z" fill="#D4164F" fill-opacity="0.5"/>
<g opacity="0.5">
<path d="M66 81H64L66.5 77L69 81H67V83H66.5H66V81Z" fill="#D4164F"/>
<path fill-rule="evenodd" clip-rule="evenodd" d="M66.5 83C69.5375 83 72 85.4625 72 88.5C72 91.5375 69.5375 94 66.5 94C63.4625 94 61 91.5375 61 88.5C61 85.4625 63.4625 83 66.5 83ZM66.5 84C64.0147 84 62 86.0147 62 88.5C62 90.9853 64.0147 93 66.5 93C68.9853 93 71 90.9853 71 88.5C71 86.0147 68.9853 84 66.5 84Z" fill="#D4164F"/>
</g>
<path d="M45 91V89H50V88H45V86L41 88.5L45 91Z" fill="#D4164F" fill-opacity="0.5"/>
<path d="M77 91V89H82V88H77V86L73 88.5L77 91Z" fill="#D4164F" fill-opacity="0.5"/>
<path d="M56 86V88H51V89H56V91L60 88.5L56 86Z" fill="#D4164F" fill-opacity="0.5"/>
<path fill-rule="evenodd" clip-rule="evenodd" d="M113.5 81H111.5L114 77L116.5 81H114.5V95H119.5V106H108.5V95H113.5V81ZM109.5 105V96H118.5V105H109.5Z" fill="#D4164F" fill-opacity="0.5"/>
<rect x="13.5" y="95.5" width="10" height="10" stroke="#D4164F"/>
<rect x="45.5" y="95.5" width="10" height="10" stroke="#D4164F"/>
<rect x="77.5" y="95.5" width="10" height="10" stroke="#D4164F"/>
<rect x="13.5" y="164.5" width="10" height="10" stroke="#D4164F"/>
<rect x="45.5" y="164.5" width="10" height="10" stroke="#D4164F"/>
<rect x="77.5" y="164.5" width="10" height="10" stroke="#D4164F"/>
<rect x="13.5" y="233.5" width="10" height="10" stroke="#D4164F"/>
<rect x="45.5" y="233.5" width="10" height="10" stroke="#D4164F"/>
<rect x="77.5" y="233.5" width="10" height="10" stroke="#D4164F"/>
<path d="M20.04 33.4547V34.0252H17.2925V33.4547H18.3425V30.2977C18.3425 30.1857 18.346 30.0714 18.353 29.9547L17.5445 30.6372C17.5095 30.6652 17.4733 30.6839 17.436 30.6932C17.401 30.7002 17.3672 30.7002 17.3345 30.6932C17.3042 30.6862 17.2762 30.6757 17.2505 30.6617C17.2272 30.6454 17.2085 30.6279 17.1945 30.6092L16.96 30.2802L18.479 28.9747H19.0915V33.4547H20.04Z" fill="#EEEEEE"/>
<path d="M51.9137 33.3375C51.9954 33.3375 52.0595 33.362 52.1062 33.411C52.1529 33.4577 52.1762 33.5183 52.1762 33.593V34.048H48.7672V33.7925C48.7672 33.7412 48.7777 33.6875 48.7987 33.6315C48.8197 33.5755 48.8535 33.5242 48.9002 33.4775L50.4682 31.906C50.6012 31.773 50.719 31.6458 50.8217 31.5245C50.9267 31.4032 51.0154 31.2818 51.0877 31.1605C51.1624 31.0392 51.2184 30.9167 51.2557 30.793C51.2954 30.667 51.3152 30.5352 51.3152 30.3975C51.3152 30.2645 51.2942 30.1478 51.2522 30.0475C51.2125 29.9448 51.1565 29.8608 51.0842 29.7955C51.0142 29.7278 50.929 29.6777 50.8287 29.645C50.7307 29.61 50.6222 29.5925 50.5032 29.5925C50.3889 29.5925 50.2827 29.6088 50.1847 29.6415C50.089 29.6742 50.0027 29.7197 49.9257 29.778C49.851 29.8363 49.788 29.9063 49.7367 29.988C49.6877 30.0673 49.6515 30.1548 49.6282 30.2505C49.5932 30.3462 49.5477 30.4103 49.4917 30.443C49.438 30.4757 49.3587 30.4827 49.2537 30.464L48.8582 30.394C48.8932 30.156 48.9585 29.9472 49.0542 29.7675C49.1522 29.5878 49.2747 29.4385 49.4217 29.3195C49.5687 29.1982 49.7367 29.1072 49.9257 29.0465C50.117 28.9835 50.3235 28.952 50.5452 28.952C50.7692 28.952 50.9745 28.9858 51.1612 29.0535C51.3502 29.1188 51.5124 29.2133 51.6477 29.337C51.7854 29.4583 51.8927 29.6065 51.9697 29.7815C52.0467 29.9565 52.0852 30.1537 52.0852 30.373C52.0852 30.5597 52.0572 30.7323 52.0012 30.891C51.9475 31.0497 51.874 31.2013 51.7807 31.346C51.6874 31.4907 51.5777 31.6318 51.4517 31.7695C51.328 31.9048 51.1974 32.0425 51.0597 32.1825L49.8417 33.4285C49.942 33.4005 50.0424 33.3783 50.1427 33.362C50.2454 33.3457 50.3422 33.3375 50.4332 33.3375H51.9137Z" fill="#EEEEEE"/>
<path d="M80.9285 30.366C80.9635 30.128 81.0288 29.9192 81.1245 29.7395C81.2225 29.5598 81.345 29.4105 81.492 29.2915C81.639 29.1702 81.807 29.0792 81.996 29.0185C82.1873 28.9555 82.3938 28.924 82.6155 28.924C82.8395 28.924 83.0425 28.9567 83.2245 29.022C83.4088 29.085 83.5663 29.1737 83.697 29.288C83.83 29.4023 83.9315 29.5388 84.0015 29.6975C84.0738 29.8562 84.11 30.03 84.11 30.219C84.11 30.38 84.0902 30.5223 84.0505 30.646C84.0132 30.7673 83.9583 30.8747 83.886 30.968C83.816 31.0613 83.7297 31.1395 83.627 31.2025C83.5243 31.2655 83.4088 31.318 83.2805 31.36C83.5932 31.451 83.8277 31.5968 83.984 31.7975C84.1403 31.9958 84.2185 32.2455 84.2185 32.5465C84.2185 32.7892 84.173 33.005 84.082 33.194C83.991 33.383 83.8673 33.5428 83.711 33.6735C83.557 33.8042 83.3762 33.9045 83.1685 33.9745C82.9632 34.0422 82.745 34.076 82.514 34.076C82.255 34.076 82.031 34.0457 81.842 33.985C81.653 33.922 81.4897 33.8333 81.352 33.719C81.2167 33.6023 81.1035 33.4623 81.0125 33.299C80.9215 33.1357 80.8445 32.9525 80.7815 32.7495L81.107 32.613C81.1933 32.5757 81.275 32.5652 81.352 32.5815C81.4313 32.5978 81.4885 32.641 81.5235 32.711C81.5608 32.7857 81.6028 32.8662 81.6495 32.9525C81.6962 33.0365 81.7557 33.1147 81.828 33.187C81.9027 33.257 81.9937 33.3165 82.101 33.3655C82.2107 33.4122 82.3448 33.4355 82.5035 33.4355C82.6645 33.4355 82.8045 33.4098 82.9235 33.3585C83.0448 33.3048 83.1452 33.2372 83.2245 33.1555C83.3062 33.0715 83.3668 32.9782 83.4065 32.8755C83.4462 32.7728 83.466 32.6713 83.466 32.571C83.466 32.445 83.4508 32.3295 83.4205 32.2245C83.3902 32.1172 83.3307 32.0262 83.242 31.9515C83.1557 31.8768 83.032 31.8185 82.871 31.7765C82.7123 31.7322 82.5035 31.71 82.2445 31.71V31.1675C82.4568 31.1652 82.6353 31.1442 82.78 31.1045C82.927 31.0625 83.0437 31.0065 83.13 30.9365C83.2187 30.8642 83.2817 30.7778 83.319 30.6775C83.3587 30.5772 83.3785 30.4675 83.3785 30.3485C83.3785 30.2202 83.3587 30.107 83.319 30.009C83.2793 29.911 83.2233 29.8293 83.151 29.764C83.081 29.6963 82.997 29.6462 82.899 29.6135C82.801 29.5808 82.6925 29.5645 82.5735 29.5645C82.4592 29.5645 82.353 29.5808 82.255 29.6135C82.1593 29.6462 82.073 29.6917 81.996 29.75C81.9213 29.8083 81.8583 29.8783 81.807 29.96C81.7557 30.0393 81.7183 30.1268 81.695 30.2225C81.6623 30.3182 81.618 30.3823 81.562 30.415C81.5083 30.4477 81.429 30.4547 81.324 30.436L80.9285 30.366Z" fill="#EEEEEE"/>
<path opacity="0.5" d="M116.086 28.9799V34.0199H115.67C115.607 34.0199 115.553 34.0094 115.509 33.9884C115.464 33.9651 115.422 33.9278 115.383 33.8764L112.614 30.3204C112.621 30.3881 112.626 30.4558 112.628 30.5234C112.633 30.5888 112.635 30.6494 112.635 30.7054V34.0199H111.914V28.9799H112.341C112.376 28.9799 112.405 28.9823 112.429 28.9869C112.454 28.9893 112.478 28.9951 112.499 29.0044C112.52 29.0138 112.539 29.0278 112.558 29.0464C112.577 29.0651 112.597 29.0884 112.618 29.1164L115.39 32.6759C115.383 32.6036 115.377 32.5324 115.372 32.4624C115.37 32.3924 115.369 32.3271 115.369 32.2664V28.9799H116.086Z" fill="#EEEEEE"/>
<path d="M20.04 102.455V103.025H17.2925V102.455H18.3425V99.2977C18.3425 99.1857 18.346 99.0714 18.353 98.9547L17.5445 99.6372C17.5095 99.6652 17.4734 99.6839 17.436 99.6932C17.401 99.7002 17.3672 99.7002 17.3345 99.6932C17.3042 99.6862 17.2762 99.6757 17.2505 99.6617C17.2272 99.6454 17.2085 99.6279 17.1945 99.6092L16.96 99.2802L18.479 97.9747H19.0915V102.455H20.04Z" fill="#EEEEEE"/>
<path d="M51.9137 102.338C51.9954 102.338 52.0595 102.362 52.1062 102.411C52.1529 102.458 52.1762 102.518 52.1762 102.593V103.048H48.7672V102.793C48.7672 102.741 48.7777 102.688 48.7987 102.632C48.8197 102.576 48.8535 102.524 48.9002 102.478L50.4682 100.906C50.6012 100.773 50.719 100.646 50.8217 100.525C50.9267 100.403 51.0154 100.282 51.0877 100.161C51.1624 100.039 51.2184 99.9167 51.2557 99.793C51.2954 99.667 51.3152 99.5352 51.3152 99.3975C51.3152 99.2645 51.2942 99.1479 51.2522 99.0475C51.2125 98.9449 51.1565 98.8609 51.0842 98.7955C51.0142 98.7279 50.929 98.6777 50.8287 98.645C50.7307 98.61 50.6222 98.5925 50.5032 98.5925C50.3889 98.5925 50.2827 98.6089 50.1847 98.6415C50.089 98.6742 50.0027 98.7197 49.9257 98.778C49.851 98.8364 49.788 98.9064 49.7367 98.988C49.6877 99.0674 49.6515 99.1549 49.6282 99.2505C49.5932 99.3462 49.5477 99.4104 49.4917 99.443C49.438 99.4757 49.3587 99.4827 49.2537 99.464L48.8582 99.394C48.8932 99.156 48.9585 98.9472 49.0542 98.7675C49.1522 98.5879 49.2747 98.4385 49.4217 98.3195C49.5687 98.1982 49.7367 98.1072 49.9257 98.0465C50.117 97.9835 50.3235 97.952 50.5452 97.952C50.7692 97.952 50.9745 97.9859 51.1612 98.0535C51.3502 98.1189 51.5124 98.2134 51.6477 98.337C51.7854 98.4584 51.8927 98.6065 51.9697 98.7815C52.0467 98.9565 52.0852 99.1537 52.0852 99.373C52.0852 99.5597 52.0572 99.7324 52.0012 99.891C51.9475 100.05 51.874 100.201 51.7807 100.346C51.6874 100.491 51.5777 100.632 51.4517 100.77C51.328 100.905 51.1974 101.043 51.0597 101.183L49.8417 102.429C49.942 102.401 50.0424 102.378 50.1427 102.362C50.2454 102.346 50.3422 102.338 50.4332 102.338H51.9137Z" fill="#EEEEEE"/>
<path d="M80.9285 99.366C80.9635 99.128 81.0288 98.9191 81.1245 98.7395C81.2225 98.5598 81.345 98.4105 81.492 98.2915C81.639 98.1701 81.807 98.0791 81.996 98.0185C82.1873 97.9555 82.3938 97.924 82.6155 97.924C82.8395 97.924 83.0425 97.9566 83.2245 98.022C83.4088 98.085 83.5663 98.1736 83.697 98.288C83.83 98.4023 83.9315 98.5388 84.0015 98.6975C84.0738 98.8561 84.11 99.03 84.11 99.219C84.11 99.38 84.0902 99.5223 84.0505 99.646C84.0132 99.7673 83.9583 99.8746 83.886 99.968C83.816 100.061 83.7297 100.139 83.627 100.202C83.5243 100.265 83.4088 100.318 83.2805 100.36C83.5932 100.451 83.8277 100.597 83.984 100.797C84.1403 100.996 84.2185 101.245 84.2185 101.546C84.2185 101.789 84.173 102.005 84.082 102.194C83.991 102.383 83.8673 102.543 83.711 102.673C83.557 102.804 83.3762 102.904 83.1685 102.974C82.9632 103.042 82.745 103.076 82.514 103.076C82.255 103.076 82.031 103.046 81.842 102.985C81.653 102.922 81.4897 102.833 81.352 102.719C81.2167 102.602 81.1035 102.462 81.0125 102.299C80.9215 102.136 80.8445 101.952 80.7815 101.749L81.107 101.613C81.1933 101.576 81.275 101.565 81.352 101.581C81.4313 101.598 81.4885 101.641 81.5235 101.711C81.5608 101.786 81.6028 101.866 81.6495 101.952C81.6962 102.036 81.7557 102.115 81.828 102.187C81.9027 102.257 81.9937 102.316 82.101 102.365C82.2107 102.412 82.3448 102.435 82.5035 102.435C82.6645 102.435 82.8045 102.41 82.9235 102.358C83.0448 102.305 83.1452 102.237 83.2245 102.155C83.3062 102.071 83.3668 101.978 83.4065 101.875C83.4462 101.773 83.466 101.671 83.466 101.571C83.466 101.445 83.4508 101.329 83.4205 101.224C83.3902 101.117 83.3307 101.026 83.242 100.951C83.1557 100.877 83.032 100.818 82.871 100.776C82.7123 100.732 82.5035 100.71 82.2445 100.71V100.167C82.4568 100.165 82.6353 100.144 82.78 100.104C82.927 100.062 83.0437 100.006 83.13 99.9365C83.2187 99.8641 83.2817 99.7778 83.319 99.6775C83.3587 99.5771 83.3785 99.4675 83.3785 99.3485C83.3785 99.2201 83.3587 99.107 83.319 99.009C83.2793 98.911 83.2233 98.8293 83.151 98.764C83.081 98.6963 82.997 98.6461 82.899 98.6135C82.801 98.5808 82.6925 98.5645 82.5735 98.5645C82.4592 98.5645 82.353 98.5808 82.255 98.6135C82.1593 98.6461 82.073 98.6916 81.996 98.75C81.9213 98.8083 81.8583 98.8783 81.807 98.96C81.7557 99.0393 81.7183 99.1268 81.695 99.2225C81.6623 99.3181 81.618 99.3823 81.562 99.415C81.5083 99.4476 81.429 99.4546 81.324 99.436L80.9285 99.366Z" fill="#EEEEEE"/>
<path opacity="0.5" d="M116.086 97.98V103.02H115.67C115.607 103.02 115.553 103.009 115.509 102.988C115.464 102.965 115.422 102.928 115.383 102.876L112.614 99.3205C112.621 99.3881 112.626 99.4558 112.628 99.5235C112.633 99.5888 112.635 99.6495 112.635 99.7055V103.02H111.914V97.98H112.341C112.376 97.98 112.405 97.9823 112.429 97.987C112.454 97.9893 112.478 97.9951 112.499 98.0045C112.52 98.0138 112.539 98.0278 112.558 98.0465C112.577 98.0651 112.597 98.0885 112.618 98.1165L115.39 101.676C115.383 101.604 115.377 101.532 115.372 101.462C115.37 101.392 115.369 101.327 115.369 101.266V97.98H116.086Z" fill="#EEEEEE"/>
<path d="M20.04 171.455V172.025H17.2925V171.455H18.3425V168.298C18.3425 168.186 18.346 168.071 18.353 167.955L17.5445 168.637C17.5095 168.665 17.4734 168.684 17.436 168.693C17.401 168.7 17.3672 168.7 17.3345 168.693C17.3042 168.686 17.2762 168.676 17.2505 168.662C17.2272 168.645 17.2085 168.628 17.1945 168.609L16.96 168.28L18.479 166.975H19.0915V171.455H20.04Z" fill="#EEEEEE"/>
<path d="M51.9137 171.338C51.9954 171.338 52.0595 171.362 52.1062 171.411C52.1529 171.458 52.1762 171.518 52.1762 171.593V172.048H48.7672V171.793C48.7672 171.741 48.7777 171.688 48.7987 171.632C48.8197 171.576 48.8535 171.524 48.9002 171.478L50.4682 169.906C50.6012 169.773 50.719 169.646 50.8217 169.525C50.9267 169.403 51.0154 169.282 51.0877 169.161C51.1624 169.039 51.2184 168.917 51.2557 168.793C51.2954 168.667 51.3152 168.535 51.3152 168.398C51.3152 168.265 51.2942 168.148 51.2522 168.048C51.2125 167.945 51.1565 167.861 51.0842 167.796C51.0142 167.728 50.929 167.678 50.8287 167.645C50.7307 167.61 50.6222 167.593 50.5032 167.593C50.3889 167.593 50.2827 167.609 50.1847 167.642C50.089 167.674 50.0027 167.72 49.9257 167.778C49.851 167.836 49.788 167.906 49.7367 167.988C49.6877 168.067 49.6515 168.155 49.6282 168.251C49.5932 168.346 49.5477 168.41 49.4917 168.443C49.438 168.476 49.3587 168.483 49.2537 168.464L48.8582 168.394C48.8932 168.156 48.9585 167.947 49.0542 167.768C49.1522 167.588 49.2747 167.439 49.4217 167.32C49.5687 167.198 49.7367 167.107 49.9257 167.047C50.117 166.984 50.3235 166.952 50.5452 166.952C50.7692 166.952 50.9745 166.986 51.1612 167.054C51.3502 167.119 51.5124 167.213 51.6477 167.337C51.7854 167.458 51.8927 167.607 51.9697 167.782C52.0467 167.957 52.0852 168.154 52.0852 168.373C52.0852 168.56 52.0572 168.732 52.0012 168.891C51.9475 169.05 51.874 169.201 51.7807 169.346C51.6874 169.491 51.5777 169.632 51.4517 169.77C51.328 169.905 51.1974 170.043 51.0597 170.183L49.8417 171.429C49.942 171.401 50.0424 171.378 50.1427 171.362C50.2454 171.346 50.3422 171.338 50.4332 171.338H51.9137Z" fill="#EEEEEE"/>
<path d="M80.9285 168.366C80.9635 168.128 81.0288 167.919 81.1245 167.739C81.2225 167.56 81.345 167.41 81.492 167.291C81.639 167.17 81.807 167.079 81.996 167.018C82.1873 166.955 82.3938 166.924 82.6155 166.924C82.8395 166.924 83.0425 166.957 83.2245 167.022C83.4088 167.085 83.5663 167.174 83.697 167.288C83.83 167.402 83.9315 167.539 84.0015 167.697C84.0738 167.856 84.11 168.03 84.11 168.219C84.11 168.38 84.0902 168.522 84.0505 168.646C84.0132 168.767 83.9583 168.875 83.886 168.968C83.816 169.061 83.7297 169.139 83.627 169.202C83.5243 169.265 83.4088 169.318 83.2805 169.36C83.5932 169.451 83.8277 169.597 83.984 169.797C84.1403 169.996 84.2185 170.245 84.2185 170.546C84.2185 170.789 84.173 171.005 84.082 171.194C83.991 171.383 83.8673 171.543 83.711 171.673C83.557 171.804 83.3762 171.904 83.1685 171.974C82.9632 172.042 82.745 172.076 82.514 172.076C82.255 172.076 82.031 172.046 81.842 171.985C81.653 171.922 81.4897 171.833 81.352 171.719C81.2167 171.602 81.1035 171.462 81.0125 171.299C80.9215 171.136 80.8445 170.952 80.7815 170.749L81.107 170.613C81.1933 170.576 81.275 170.565 81.352 170.581C81.4313 170.598 81.4885 170.641 81.5235 170.711C81.5608 170.786 81.6028 170.866 81.6495 170.952C81.6962 171.036 81.7557 171.115 81.828 171.187C81.9027 171.257 81.9937 171.316 82.101 171.365C82.2107 171.412 82.3448 171.435 82.5035 171.435C82.6645 171.435 82.8045 171.41 82.9235 171.358C83.0448 171.305 83.1452 171.237 83.2245 171.155C83.3062 171.071 83.3668 170.978 83.4065 170.875C83.4462 170.773 83.466 170.671 83.466 170.571C83.466 170.445 83.4508 170.329 83.4205 170.224C83.3902 170.117 83.3307 170.026 83.242 169.951C83.1557 169.877 83.032 169.818 82.871 169.776C82.7123 169.732 82.5035 169.71 82.2445 169.71V169.167C82.4568 169.165 82.6353 169.144 82.78 169.104C82.927 169.062 83.0437 169.006 83.13 168.936C83.2187 168.864 83.2817 168.778 83.319 168.677C83.3587 168.577 83.3785 168.467 83.3785 168.348C83.3785 168.22 83.3587 168.107 83.319 168.009C83.2793 167.911 83.2233 167.829 83.151 167.764C83.081 167.696 82.997 167.646 82.899 167.613C82.801 167.581 82.6925 167.564 82.5735 167.564C82.4592 167.564 82.353 167.581 82.255 167.613C82.1593 167.646 82.073 167.692 81.996 167.75C81.9213 167.808 81.8583 167.878 81.807 167.96C81.7557 168.039 81.7183 168.127 81.695 168.222C81.6623 168.318 81.618 168.382 81.562 168.415C81.5083 168.448 81.429 168.455 81.324 168.436L80.9285 168.366Z" fill="#EEEEEE"/>
<path opacity="0.5" d="M116.086 166.98V172.02H115.67C115.607 172.02 115.553 172.009 115.509 171.988C115.464 171.965 115.422 171.928 115.383 171.876L112.614 168.32C112.621 168.388 112.626 168.456 112.628 168.523C112.633 168.589 112.635 168.649 112.635 168.705V172.02H111.914V166.98H112.341C112.376 166.98 112.405 166.982 112.429 166.987C112.454 166.989 112.478 166.995 112.499 167.004C112.52 167.014 112.539 167.028 112.558 167.046C112.577 167.065 112.597 167.088 112.618 167.116L115.39 170.676C115.383 170.604 115.377 170.532 115.372 170.462C115.37 170.392 115.369 170.327 115.369 170.266V166.98H116.086Z" fill="#EEEEEE"/>
<path d="M20.04 240.455V241.025H17.2925V240.455H18.3425V237.298C18.3425 237.186 18.346 237.071 18.353 236.955L17.5445 237.637C17.5095 237.665 17.4734 237.684 17.436 237.693C17.401 237.7 17.3672 237.7 17.3345 237.693C17.3042 237.686 17.2762 237.676 17.2505 237.662C17.2272 237.645 17.2085 237.628 17.1945 237.609L16.96 237.28L18.479 235.975H19.0915V240.455H20.04Z" fill="#EEEEEE"/>
<path d="M51.9137 240.338C51.9954 240.338 52.0595 240.362 52.1062 240.411C52.1529 240.458 52.1762 240.518 52.1762 240.593V241.048H48.7672V240.793C48.7672 240.741 48.7777 240.688 48.7987 240.632C48.8197 240.576 48.8535 240.524 48.9002 240.478L50.4682 238.906C50.6012 238.773 50.719 238.646 50.8217 238.525C50.9267 238.403 51.0154 238.282 51.0877 238.161C51.1624 238.039 51.2184 237.917 51.2557 237.793C51.2954 237.667 51.3152 237.535 51.3152 237.398C51.3152 237.265 51.2942 237.148 51.2522 237.048C51.2125 236.945 51.1565 236.861 51.0842 236.796C51.0142 236.728 50.929 236.678 50.8287 236.645C50.7307 236.61 50.6222 236.593 50.5032 236.593C50.3889 236.593 50.2827 236.609 50.1847 236.642C50.089 236.674 50.0027 236.72 49.9257 236.778C49.851 236.836 49.788 236.906 49.7367 236.988C49.6877 237.067 49.6515 237.155 49.6282 237.251C49.5932 237.346 49.5477 237.41 49.4917 237.443C49.438 237.476 49.3587 237.483 49.2537 237.464L48.8582 237.394C48.8932 237.156 48.9585 236.947 49.0542 236.768C49.1522 236.588 49.2747 236.439 49.4217 236.32C49.5687 236.198 49.7367 236.107 49.9257 236.047C50.117 235.984 50.3235 235.952 50.5452 235.952C50.7692 235.952 50.9745 235.986 51.1612 236.054C51.3502 236.119 51.5124 236.213 51.6477 236.337C51.7854 236.458 51.8927 236.607 51.9697 236.782C52.0467 236.957 52.0852 237.154 52.0852 237.373C52.0852 237.56 52.0572 237.732 52.0012 237.891C51.9475 238.05 51.874 238.201 51.7807 238.346C51.6874 238.491 51.5777 238.632 51.4517 238.77C51.328 238.905 51.1974 239.043 51.0597 239.183L49.8417 240.429C49.942 240.401 50.0424 240.378 50.1427 240.362C50.2454 240.346 50.3422 240.338 50.4332 240.338H51.9137Z" fill="#EEEEEE"/>
<path d="M80.9285 237.366C80.9635 237.128 81.0288 236.919 81.1245 236.739C81.2225 236.56 81.345 236.41 81.492 236.291C81.639 236.17 81.807 236.079 81.996 236.018C82.1873 235.955 82.3938 235.924 82.6155 235.924C82.8395 235.924 83.0425 235.957 83.2245 236.022C83.4088 236.085 83.5663 236.174 83.697 236.288C83.83 236.402 83.9315 236.539 84.0015 236.697C84.0738 236.856 84.11 237.03 84.11 237.219C84.11 237.38 84.0902 237.522 84.0505 237.646C84.0132 237.767 83.9583 237.875 83.886 237.968C83.816 238.061 83.7297 238.139 83.627 238.202C83.5243 238.265 83.4088 238.318 83.2805 238.36C83.5932 238.451 83.8277 238.597 83.984 238.797C84.1403 238.996 84.2185 239.245 84.2185 239.546C84.2185 239.789 84.173 240.005 84.082 240.194C83.991 240.383 83.8673 240.543 83.711 240.673C83.557 240.804 83.3762 240.904 83.1685 240.974C82.9632 241.042 82.745 241.076 82.514 241.076C82.255 241.076 82.031 241.046 81.842 240.985C81.653 240.922 81.4897 240.833 81.352 240.719C81.2167 240.602 81.1035 240.462 81.0125 240.299C80.9215 240.136 80.8445 239.952 80.7815 239.749L81.107 239.613C81.1933 239.576 81.275 239.565 81.352 239.581C81.4313 239.598 81.4885 239.641 81.5235 239.711C81.5608 239.786 81.6028 239.866 81.6495 239.952C81.6962 240.036 81.7557 240.115 81.828 240.187C81.9027 240.257 81.9937 240.316 82.101 240.365C82.2107 240.412 82.3448 240.435 82.5035 240.435C82.6645 240.435 82.8045 240.41 82.9235 240.358C83.0448 240.305 83.1452 240.237 83.2245 240.155C83.3062 240.071 83.3668 239.978 83.4065 239.875C83.4462 239.773 83.466 239.671 83.466 239.571C83.466 239.445 83.4508 239.329 83.4205 239.224C83.3902 239.117 83.3307 239.026 83.242 238.951C83.1557 238.877 83.032 238.818 82.871 238.776C82.7123 238.732 82.5035 238.71 82.2445 238.71V238.167C82.4568 238.165 82.6353 238.144 82.78 238.104C82.927 238.062 83.0437 238.006 83.13 237.936C83.2187 237.864 83.2817 237.778 83.319 237.677C83.3587 237.577 83.3785 237.467 83.3785 237.348C83.3785 237.22 83.3587 237.107 83.319 237.009C83.2793 236.911 83.2233 236.829 83.151 236.764C83.081 236.696 82.997 236.646 82.899 236.613C82.801 236.581 82.6925 236.564 82.5735 236.564C82.4592 236.564 82.353 236.581 82.255 236.613C82.1593 236.646 82.073 236.692 81.996 236.75C81.9213 236.808 81.8583 236.878 81.807 236.96C81.7557 237.039 81.7183 237.127 81.695 237.222C81.6623 237.318 81.618 237.382 81.562 237.415C81.5083 237.448 81.429 237.455 81.324 237.436L80.9285 237.366Z" fill="#EEEEEE"/>
<path opacity="0.5" d="M116.086 235.98V241.02H115.67C115.607 241.02 115.553 241.009 115.509 240.988C115.464 240.965 115.422 240.928 115.383 240.876L112.614 237.32C112.621 237.388 112.626 237.456 112.628 237.523C112.633 237.589 112.635 237.649 112.635 237.705V241.02H111.914V235.98H112.341C112.376 235.98 112.405 235.982 112.429 235.987C112.454 235.989 112.478 235.995 112.499 236.004C112.52 236.014 112.539 236.028 112.558 236.046C112.577 236.065 112.597 236.088 112.618 236.116L115.39 239.676C115.383 239.604 115.377 239.532 115.372 239.462C115.37 239.392 115.369 239.327 115.369 239.266V235.98H116.086Z" fill="#EEEEEE"/>
<path d="M52.8125 62.5L50 63.75V61.25L52.8125 62.5Z" fill="#EEEEEE" fill-opacity="0.5"/>
<path d="M48.0483 64.574C48.1417 64.574 48.215 64.602 48.2683 64.658C48.3217 64.7113 48.3483 64.7807 48.3483 64.866V65.386H44.4523V65.094C44.4523 65.0353 44.4643 64.974 44.4883 64.91C44.5123 64.846 44.551 64.7873 44.6043 64.734L46.3963 62.938C46.5483 62.786 46.683 62.6407 46.8003 62.502C46.9203 62.3633 47.0217 62.2247 47.1043 62.086C47.1897 61.9473 47.2537 61.8073 47.2963 61.666C47.3417 61.522 47.3643 61.3713 47.3643 61.214C47.3643 61.062 47.3403 60.9287 47.2923 60.814C47.247 60.6967 47.183 60.6007 47.1003 60.526C47.0203 60.4487 46.923 60.3913 46.8083 60.354C46.6963 60.314 46.5723 60.294 46.4363 60.294C46.3057 60.294 46.1843 60.3127 46.0723 60.35C45.963 60.3873 45.8643 60.4393 45.7763 60.506C45.691 60.5727 45.619 60.6527 45.5603 60.746C45.5043 60.8367 45.463 60.9367 45.4363 61.046C45.3963 61.1553 45.3443 61.2287 45.2803 61.266C45.219 61.3033 45.1283 61.3113 45.0083 61.29L44.5563 61.21C44.5963 60.938 44.671 60.6993 44.7803 60.494C44.8923 60.2887 45.0323 60.118 45.2003 59.982C45.3683 59.8433 45.5603 59.7393 45.7763 59.67C45.995 59.598 46.231 59.562 46.4843 59.562C46.7403 59.562 46.975 59.6007 47.1883 59.678C47.4043 59.7527 47.5897 59.8607 47.7443 60.002C47.9017 60.1407 48.0243 60.31 48.1123 60.51C48.2003 60.71 48.2443 60.9353 48.2443 61.186C48.2443 61.3993 48.2123 61.5967 48.1483 61.778C48.087 61.9593 48.003 62.1327 47.8963 62.298C47.7897 62.4633 47.6643 62.6247 47.5203 62.782C47.379 62.9367 47.2297 63.094 47.0723 63.254L45.6803 64.678C45.795 64.646 45.9097 64.6207 46.0243 64.602C46.1417 64.5833 46.2523 64.574 46.3563 64.574H48.0483Z" fill="#EEEEEE" fill-opacity="0.5"/>
<path d="M57.61 64.734V65.386H54.47V64.734H55.67V61.126C55.67 60.998 55.674 60.8673 55.682 60.734L54.758 61.514C54.718 61.546 54.6767 61.5673 54.634 61.578C54.594 61.586 54.5554 61.586 54.518 61.578C54.4834 61.57 54.4514 61.558 54.422 61.542C54.3954 61.5233 54.374 61.5033 54.358 61.482L54.09 61.106L55.826 59.614H56.526V64.734H57.61Z" fill="#EEEEEE" fill-opacity="0.5"/>
<path d="M79.8329 62.5L77.0204 63.75V61.25L79.8329 62.5Z" fill="#EEEEEE" fill-opacity="0.5"/>
<path d="M89.8329 62.5L87.0204 63.75V61.25L89.8329 62.5Z" fill="#EEEEEE" fill-opacity="0.5"/>
<path d="M85.1684 64.6C85.2617 64.6 85.3351 64.628 85.3884 64.684C85.4417 64.7373 85.4684 64.8067 85.4684 64.892V65.412H81.5724V65.12C81.5724 65.0613 81.5844 65 81.6084 64.936C81.6324 64.872 81.6711 64.8133 81.7244 64.76L83.5164 62.964C83.6684 62.812 83.8031 62.6667 83.9204 62.528C84.0404 62.3893 84.1417 62.2507 84.2244 62.112C84.3097 61.9733 84.3737 61.8333 84.4164 61.692C84.4617 61.548 84.4844 61.3973 84.4844 61.24C84.4844 61.088 84.4604 60.9547 84.4124 60.84C84.3671 60.7227 84.3031 60.6267 84.2204 60.552C84.1404 60.4747 84.0431 60.4173 83.9284 60.38C83.8164 60.34 83.6924 60.32 83.5564 60.32C83.4257 60.32 83.3044 60.3387 83.1924 60.376C83.0831 60.4133 82.9844 60.4653 82.8964 60.532C82.8111 60.5987 82.7391 60.6787 82.6804 60.772C82.6244 60.8627 82.5831 60.9627 82.5564 61.072C82.5164 61.1813 82.4644 61.2547 82.4004 61.292C82.3391 61.3293 82.2484 61.3373 82.1284 61.316L81.6764 61.236C81.7164 60.964 81.7911 60.7253 81.9004 60.52C82.0124 60.3147 82.1524 60.144 82.3204 60.008C82.4884 59.8693 82.6804 59.7653 82.8964 59.696C83.1151 59.624 83.3511 59.588 83.6044 59.588C83.8604 59.588 84.0951 59.6267 84.3084 59.704C84.5244 59.7787 84.7097 59.8867 84.8644 60.028C85.0217 60.1667 85.1444 60.336 85.2324 60.536C85.3204 60.736 85.3644 60.9613 85.3644 61.212C85.3644 61.4253 85.3324 61.6227 85.2684 61.804C85.2071 61.9853 85.1231 62.1587 85.0164 62.324C84.9097 62.4893 84.7844 62.6507 84.6404 62.808C84.4991 62.9627 84.3497 63.12 84.1924 63.28L82.8004 64.704C82.9151 64.672 83.0297 64.6467 83.1444 64.628C83.2617 64.6093 83.3724 64.6 83.4764 64.6H85.1684Z" fill="#EEEEEE" fill-opacity="0.5"/>
<path d="M94.4175 64.7921V65.4441H91.2775V64.7921H92.4775V61.1841C92.4775 61.0561 92.4815 60.9255 92.4895 60.7921L91.5655 61.5721C91.5255 61.6041 91.4842 61.6255 91.4415 61.6361C91.4015 61.6441 91.3629 61.6441 91.3255 61.6361C91.2909 61.6281 91.2589 61.6161 91.2295 61.6001C91.2029 61.5815 91.1815 61.5615 91.1655 61.5401L90.8975 61.1641L92.6335 59.6721H93.3335V64.7921H94.4175Z" fill="#EEEEEE" fill-opacity="0.5"/>
<path d="M71.7504 61.1719C71.7904 60.8999 71.8651 60.6613 71.9744 60.4559C72.0864 60.2506 72.2264 60.0799 72.3944 59.9439C72.5624 59.8053 72.7544 59.7013 72.9704 59.6319C73.1891 59.5599 73.4251 59.5239 73.6784 59.5239C73.9344 59.5239 74.1664 59.5613 74.3744 59.6359C74.5851 59.7079 74.7651 59.8093 74.9144 59.9399C75.0664 60.0706 75.1824 60.2266 75.2624 60.4079C75.3451 60.5893 75.3864 60.7879 75.3864 61.0039C75.3864 61.1879 75.3637 61.3506 75.3184 61.4919C75.2757 61.6306 75.2131 61.7533 75.1304 61.8599C75.0504 61.9666 74.9517 62.0559 74.8344 62.1279C74.7171 62.1999 74.5851 62.2599 74.4384 62.3079C74.7957 62.4119 75.0637 62.5786 75.2424 62.8079C75.4211 63.0346 75.5104 63.3199 75.5104 63.6639C75.5104 63.9413 75.4584 64.1879 75.3544 64.4039C75.2504 64.6199 75.1091 64.8026 74.9304 64.9519C74.7544 65.1013 74.5477 65.2159 74.3104 65.2959C74.0757 65.3733 73.8264 65.4119 73.5624 65.4119C73.2664 65.4119 73.0104 65.3773 72.7944 65.3079C72.5784 65.2359 72.3917 65.1346 72.2344 65.0039C72.0797 64.8706 71.9504 64.7106 71.8464 64.5239C71.7424 64.3373 71.6544 64.1279 71.5824 63.8959L71.9544 63.7399C72.0531 63.6973 72.1464 63.6853 72.2344 63.7039C72.3251 63.7226 72.3904 63.7719 72.4304 63.8519C72.4731 63.9373 72.5211 64.0293 72.5744 64.1279C72.6277 64.2239 72.6957 64.3133 72.7784 64.3959C72.8637 64.4759 72.9677 64.5439 73.0904 64.5999C73.2157 64.6533 73.3691 64.6799 73.5504 64.6799C73.7344 64.6799 73.8944 64.6506 74.0304 64.5919C74.1691 64.5306 74.2837 64.4533 74.3744 64.3599C74.4677 64.2639 74.5371 64.1573 74.5824 64.0399C74.6277 63.9226 74.6504 63.8066 74.6504 63.6919C74.6504 63.5479 74.6331 63.4159 74.5984 63.2959C74.5637 63.1733 74.4957 63.0693 74.3944 62.9839C74.2957 62.8986 74.1544 62.8319 73.9704 62.7839C73.7891 62.7333 73.5504 62.7079 73.2544 62.7079V62.0879C73.4971 62.0853 73.7011 62.0613 73.8664 62.0159C74.0344 61.9679 74.1677 61.9039 74.2664 61.8239C74.3677 61.7413 74.4397 61.6426 74.4824 61.5279C74.5277 61.4133 74.5504 61.2879 74.5504 61.1519C74.5504 61.0053 74.5277 60.8759 74.4824 60.7639C74.4371 60.6519 74.3731 60.5586 74.2904 60.4839C74.2104 60.4066 74.1144 60.3493 74.0024 60.3119C73.8904 60.2746 73.7664 60.2559 73.6304 60.2559C73.4997 60.2559 73.3784 60.2746 73.2664 60.3119C73.1571 60.3493 73.0584 60.4013 72.9704 60.4679C72.8851 60.5346 72.8131 60.6146 72.7544 60.7079C72.6957 60.7986 72.6531 60.8986 72.6264 61.0079C72.5891 61.1173 72.5384 61.1906 72.4744 61.2279C72.4131 61.2653 72.3224 61.2733 72.2024 61.2519L71.7504 61.1719Z" fill="#EEEEEE" fill-opacity="0.5"/>
<path d="M113.566 62.4419L110.754 63.6919V61.1919L113.566 62.4419Z" fill="#EEEEEE" fill-opacity="0.5"/>
<path d="M123.566 62.4419L120.754 63.6919V61.1919L123.566 62.4419Z" fill="#EEEEEE" fill-opacity="0.5"/>
<path d="M108.928 64.574C109.021 64.574 109.095 64.602 109.148 64.658C109.201 64.7113 109.228 64.7807 109.228 64.866V65.386H105.332V65.094C105.332 65.0353 105.344 64.974 105.368 64.91C105.392 64.846 105.431 64.7873 105.484 64.734L107.276 62.938C107.428 62.786 107.563 62.6407 107.68 62.502C107.8 62.3633 107.901 62.2247 107.984 62.086C108.069 61.9473 108.133 61.8073 108.176 61.666C108.221 61.522 108.244 61.3713 108.244 61.214C108.244 61.062 108.22 60.9287 108.172 60.814C108.127 60.6967 108.063 60.6007 107.98 60.526C107.9 60.4487 107.803 60.3913 107.688 60.354C107.576 60.314 107.452 60.294 107.316 60.294C107.185 60.294 107.064 60.3127 106.952 60.35C106.843 60.3873 106.744 60.4393 106.656 60.506C106.571 60.5727 106.499 60.6527 106.44 60.746C106.384 60.8367 106.343 60.9367 106.316 61.046C106.276 61.1553 106.224 61.2287 106.16 61.266C106.099 61.3033 106.008 61.3113 105.888 61.29L105.436 61.21C105.476 60.938 105.551 60.6993 105.66 60.494C105.772 60.2887 105.912 60.118 106.08 59.982C106.248 59.8433 106.44 59.7393 106.656 59.67C106.875 59.598 107.111 59.562 107.364 59.562C107.62 59.562 107.855 59.6007 108.068 59.678C108.284 59.7527 108.469 59.8607 108.624 60.002C108.781 60.1407 108.904 60.31 108.992 60.51C109.08 60.71 109.124 60.9353 109.124 61.186C109.124 61.3993 109.092 61.5967 109.028 61.778C108.967 61.9593 108.883 62.1327 108.776 62.298C108.669 62.4633 108.544 62.6247 108.4 62.782C108.259 62.9367 108.109 63.094 107.952 63.254L106.56 64.678C106.675 64.646 106.789 64.6207 106.904 64.602C107.021 64.5833 107.132 64.574 107.236 64.574H108.928Z" fill="#EEEEEE" fill-opacity="0.5"/>
<path d="M119.014 64.6759V65.3279H115.874V64.6759H117.074V61.0679C117.074 60.9399 117.078 60.8092 117.086 60.6759L116.162 61.4559C116.122 61.4879 116.081 61.5092 116.038 61.5199C115.998 61.5279 115.959 61.5279 115.922 61.5199C115.887 61.5119 115.855 61.4999 115.826 61.4839C115.799 61.4652 115.778 61.4452 115.762 61.4239L115.494 61.0479L117.23 59.5559H117.93V64.6759H119.014Z" fill="#EEEEEE" fill-opacity="0.5"/>
<path d="M124.908 61.0879C124.948 60.8159 125.023 60.5772 125.132 60.3719C125.244 60.1665 125.384 59.9959 125.552 59.8599C125.72 59.7212 125.912 59.6172 126.128 59.5479C126.347 59.4759 126.583 59.4399 126.836 59.4399C127.092 59.4399 127.324 59.4772 127.532 59.5519C127.743 59.6239 127.923 59.7252 128.072 59.8559C128.224 59.9865 128.34 60.1425 128.42 60.3239C128.503 60.5052 128.544 60.7039 128.544 60.9199C128.544 61.1039 128.521 61.2665 128.476 61.4079C128.433 61.5465 128.371 61.6692 128.288 61.7759C128.208 61.8825 128.109 61.9719 127.992 62.0439C127.875 62.1159 127.743 62.1759 127.596 62.2239C127.953 62.3279 128.221 62.4945 128.4 62.7239C128.579 62.9505 128.668 63.2359 128.668 63.5799C128.668 63.8572 128.616 64.1039 128.512 64.3199C128.408 64.5359 128.267 64.7185 128.088 64.8679C127.912 65.0172 127.705 65.1319 127.468 65.2119C127.233 65.2892 126.984 65.3279 126.72 65.3279C126.424 65.3279 126.168 65.2932 125.952 65.2239C125.736 65.1519 125.549 65.0505 125.392 64.9199C125.237 64.7865 125.108 64.6265 125.004 64.4399C124.9 64.2532 124.812 64.0439 124.74 63.8119L125.112 63.6559C125.211 63.6132 125.304 63.6012 125.392 63.6199C125.483 63.6385 125.548 63.6879 125.588 63.7679C125.631 63.8532 125.679 63.9452 125.732 64.0439C125.785 64.1399 125.853 64.2292 125.936 64.3119C126.021 64.3919 126.125 64.4599 126.248 64.5159C126.373 64.5692 126.527 64.5959 126.708 64.5959C126.892 64.5959 127.052 64.5665 127.188 64.5079C127.327 64.4465 127.441 64.3692 127.532 64.2759C127.625 64.1799 127.695 64.0732 127.74 63.9559C127.785 63.8385 127.808 63.7225 127.808 63.6079C127.808 63.4639 127.791 63.3319 127.756 63.2119C127.721 63.0892 127.653 62.9852 127.552 62.8999C127.453 62.8145 127.312 62.7479 127.128 62.6999C126.947 62.6492 126.708 62.6239 126.412 62.6239V62.0039C126.655 62.0012 126.859 61.9772 127.024 61.9319C127.192 61.8839 127.325 61.8199 127.424 61.7399C127.525 61.6572 127.597 61.5585 127.64 61.4439C127.685 61.3292 127.708 61.2039 127.708 61.0679C127.708 60.9212 127.685 60.7919 127.64 60.6799C127.595 60.5679 127.531 60.4745 127.448 60.3999C127.368 60.3225 127.272 60.2652 127.16 60.2279C127.048 60.1905 126.924 60.1719 126.788 60.1719C126.657 60.1719 126.536 60.1905 126.424 60.2279C126.315 60.2652 126.216 60.3172 126.128 60.3839C126.043 60.4505 125.971 60.5305 125.912 60.6239C125.853 60.7145 125.811 60.8145 125.784 60.9239C125.747 61.0332 125.696 61.1065 125.632 61.1439C125.571 61.1812 125.48 61.1892 125.36 61.1679L124.908 61.0879Z" fill="#EEEEEE" fill-opacity="0.5"/>
<path d="M10.1572 59.622V65.382H9.68116C9.60916 65.382 9.54783 65.37 9.49716 65.346C9.44649 65.3193 9.39849 65.2767 9.35316 65.218L6.18916 61.154C6.19716 61.2313 6.20249 61.3087 6.20516 61.386C6.21049 61.4607 6.21316 61.53 6.21316 61.594V65.382H5.38916V59.622H5.87716C5.91716 59.622 5.95049 59.6247 5.97716 59.63C6.00649 59.6327 6.03316 59.6393 6.05716 59.65C6.08116 59.6607 6.10383 59.6767 6.12516 59.698C6.14649 59.7193 6.16916 59.746 6.19316 59.778L9.36116 63.846C9.35316 63.7633 9.34649 63.682 9.34116 63.602C9.33849 63.522 9.33716 63.4473 9.33716 63.378V59.622H10.1572Z" fill="#EEEEEE"/>
<path d="M16.9418 62.502C16.9418 62.9287 16.8725 63.322 16.7338 63.682C16.5951 64.042 16.3991 64.3527 16.1458 64.614C15.8951 64.8727 15.5925 65.0753 15.2378 65.222C14.8858 65.3687 14.4938 65.442 14.0618 65.442C13.6325 65.442 13.2405 65.3687 12.8858 65.222C12.5338 65.0753 12.2311 64.8727 11.9778 64.614C11.7245 64.3527 11.5285 64.042 11.3898 63.682C11.2511 63.322 11.1818 62.9287 11.1818 62.502C11.1818 62.0753 11.2511 61.682 11.3898 61.322C11.5285 60.962 11.7245 60.6513 11.9778 60.39C12.2311 60.1287 12.5338 59.9247 12.8858 59.778C13.2405 59.6313 13.6325 59.558 14.0618 59.558C14.4938 59.558 14.8858 59.6313 15.2378 59.778C15.5925 59.9247 15.8951 60.1287 16.1458 60.39C16.3991 60.6513 16.5951 60.962 16.7338 61.322C16.8725 61.682 16.9418 62.0753 16.9418 62.502ZM15.9858 62.502C15.9858 62.1713 15.9405 61.874 15.8498 61.61C15.7618 61.346 15.6338 61.122 15.4658 60.938C15.3005 60.754 15.0991 60.6127 14.8618 60.514C14.6245 60.4153 14.3578 60.366 14.0618 60.366C13.7685 60.366 13.5031 60.4153 13.2658 60.514C13.0285 60.6127 12.8258 60.754 12.6578 60.938C12.4898 61.122 12.3605 61.346 12.2698 61.61C12.1791 61.874 12.1338 62.1713 12.1338 62.502C12.1338 62.8353 12.1791 63.134 12.2698 63.398C12.3605 63.662 12.4898 63.886 12.6578 64.07C12.8258 64.2513 13.0285 64.3913 13.2658 64.49C13.5031 64.586 13.7685 64.634 14.0618 64.634C14.3578 64.634 14.6245 64.586 14.8618 64.49C15.0991 64.3913 15.3005 64.2513 15.4658 64.07C15.6338 63.886 15.7618 63.662 15.8498 63.398C15.9405 63.134 15.9858 62.8353 15.9858 62.502Z" fill="#EEEEEE"/>
<path d="M20.8995 60.378V62.222H23.1515V62.978H20.8995V65.382H19.9595V59.622H23.5515V60.378H20.8995Z" fill="#EEEEEE"/>
<path d="M30.6109 59.622V65.382H29.7869V61.434C29.7869 61.37 29.7882 61.3007 29.7909 61.226C29.7962 61.1487 29.8029 61.0713 29.8109 60.994L27.9589 64.414C27.8869 64.5553 27.7762 64.626 27.6269 64.626H27.4949C27.3429 64.626 27.2322 64.5553 27.1629 64.414L25.2829 60.986C25.2909 61.0633 25.2962 61.1407 25.2989 61.218C25.3042 61.2953 25.3069 61.3673 25.3069 61.434V65.382H24.4829V59.622H25.1829C25.2656 59.622 25.3296 59.63 25.3749 59.646C25.4202 59.6593 25.4616 59.7033 25.4989 59.778L27.3469 63.126C27.3869 63.2033 27.4242 63.2833 27.4589 63.366C27.4962 63.446 27.5296 63.5287 27.5589 63.614C27.5909 63.5287 27.6242 63.4447 27.6589 63.362C27.6962 63.2767 27.7349 63.1953 27.7749 63.118L29.5949 59.778C29.6322 59.7033 29.6736 59.6593 29.7189 59.646C29.7642 59.63 29.8282 59.622 29.9109 59.622H30.6109Z" fill="#EEEEEE"/>
<path fill-rule="evenodd" clip-rule="evenodd" d="M1.99242 4H1V7H1.99242H121.083V15H128.03V17L132 14.5L128.03 12V14H123.068V4H1.99242Z" fill="#D4164F"/>
<path d="M52.8125 131.5L50 132.75V130.25L52.8125 131.5Z" fill="#EEEEEE"/>
<path d="M48.0483 133.574C48.1417 133.574 48.215 133.602 48.2683 133.658C48.3217 133.711 48.3483 133.781 48.3483 133.866V134.386H44.4523V134.094C44.4523 134.035 44.4643 133.974 44.4883 133.91C44.5123 133.846 44.551 133.787 44.6043 133.734L46.3963 131.938C46.5483 131.786 46.683 131.641 46.8003 131.502C46.9203 131.363 47.0217 131.225 47.1043 131.086C47.1897 130.947 47.2537 130.807 47.2963 130.666C47.3417 130.522 47.3643 130.371 47.3643 130.214C47.3643 130.062 47.3403 129.929 47.2923 129.814C47.247 129.697 47.183 129.601 47.1003 129.526C47.0203 129.449 46.923 129.391 46.8083 129.354C46.6963 129.314 46.5723 129.294 46.4363 129.294C46.3057 129.294 46.1843 129.313 46.0723 129.35C45.963 129.387 45.8643 129.439 45.7763 129.506C45.691 129.573 45.619 129.653 45.5603 129.746C45.5043 129.837 45.463 129.937 45.4363 130.046C45.3963 130.155 45.3443 130.229 45.2803 130.266C45.219 130.303 45.1283 130.311 45.0083 130.29L44.5563 130.21C44.5963 129.938 44.671 129.699 44.7803 129.494C44.8923 129.289 45.0323 129.118 45.2003 128.982C45.3683 128.843 45.5603 128.739 45.7763 128.67C45.995 128.598 46.231 128.562 46.4843 128.562C46.7403 128.562 46.975 128.601 47.1883 128.678C47.4043 128.753 47.5897 128.861 47.7443 129.002C47.9017 129.141 48.0243 129.31 48.1123 129.51C48.2003 129.71 48.2443 129.935 48.2443 130.186C48.2443 130.399 48.2123 130.597 48.1483 130.778C48.087 130.959 48.003 131.133 47.8963 131.298C47.7897 131.463 47.6643 131.625 47.5203 131.782C47.379 131.937 47.2297 132.094 47.0723 132.254L45.6803 133.678C45.795 133.646 45.9097 133.621 46.0243 133.602C46.1417 133.583 46.2523 133.574 46.3563 133.574H48.0483Z" fill="#EEEEEE"/>
<path d="M57.61 133.734V134.386H54.47V133.734H55.67V130.126C55.67 129.998 55.674 129.867 55.682 129.734L54.758 130.514C54.718 130.546 54.6767 130.567 54.634 130.578C54.594 130.586 54.5554 130.586 54.518 130.578C54.4834 130.57 54.4514 130.558 54.422 130.542C54.3954 130.523 54.374 130.503 54.358 130.482L54.09 130.106L55.826 128.614H56.526V133.734H57.61Z" fill="#EEEEEE"/>
<path d="M79.8329 131.5L77.0204 132.75V130.25L79.8329 131.5Z" fill="#EEEEEE" fill-opacity="0.5"/>
<path d="M89.8329 131.5L87.0204 132.75V130.25L89.8329 131.5Z" fill="#EEEEEE" fill-opacity="0.5"/>
<path d="M85.1684 133.6C85.2617 133.6 85.3351 133.628 85.3884 133.684C85.4417 133.737 85.4684 133.807 85.4684 133.892V134.412H81.5724V134.12C81.5724 134.061 81.5844 134 81.6084 133.936C81.6324 133.872 81.6711 133.813 81.7244 133.76L83.5164 131.964C83.6684 131.812 83.8031 131.667 83.9204 131.528C84.0404 131.389 84.1417 131.251 84.2244 131.112C84.3097 130.973 84.3737 130.833 84.4164 130.692C84.4617 130.548 84.4844 130.397 84.4844 130.24C84.4844 130.088 84.4604 129.955 84.4124 129.84C84.3671 129.723 84.3031 129.627 84.2204 129.552C84.1404 129.475 84.0431 129.417 83.9284 129.38C83.8164 129.34 83.6924 129.32 83.5564 129.32C83.4257 129.32 83.3044 129.339 83.1924 129.376C83.0831 129.413 82.9844 129.465 82.8964 129.532C82.8111 129.599 82.7391 129.679 82.6804 129.772C82.6244 129.863 82.5831 129.963 82.5564 130.072C82.5164 130.181 82.4644 130.255 82.4004 130.292C82.3391 130.329 82.2484 130.337 82.1284 130.316L81.6764 130.236C81.7164 129.964 81.7911 129.725 81.9004 129.52C82.0124 129.315 82.1524 129.144 82.3204 129.008C82.4884 128.869 82.6804 128.765 82.8964 128.696C83.1151 128.624 83.3511 128.588 83.6044 128.588C83.8604 128.588 84.0951 128.627 84.3084 128.704C84.5244 128.779 84.7097 128.887 84.8644 129.028C85.0217 129.167 85.1444 129.336 85.2324 129.536C85.3204 129.736 85.3644 129.961 85.3644 130.212C85.3644 130.425 85.3324 130.623 85.2684 130.804C85.2071 130.985 85.1231 131.159 85.0164 131.324C84.9097 131.489 84.7844 131.651 84.6404 131.808C84.4991 131.963 84.3497 132.12 84.1924 132.28L82.8004 133.704C82.9151 133.672 83.0297 133.647 83.1444 133.628C83.2617 133.609 83.3724 133.6 83.4764 133.6H85.1684Z" fill="#EEEEEE" fill-opacity="0.5"/>
<path d="M94.4175 133.792V134.444H91.2775V133.792H92.4775V130.184C92.4775 130.056 92.4815 129.925 92.4895 129.792L91.5655 130.572C91.5255 130.604 91.4842 130.625 91.4415 130.636C91.4015 130.644 91.3629 130.644 91.3255 130.636C91.2909 130.628 91.2589 130.616 91.2295 130.6C91.2029 130.581 91.1815 130.561 91.1655 130.54L90.8975 130.164L92.6335 128.672H93.3335V133.792H94.4175Z" fill="#EEEEEE" fill-opacity="0.5"/>
<path d="M71.7504 130.172C71.7904 129.9 71.8651 129.661 71.9744 129.456C72.0864 129.251 72.2264 129.08 72.3944 128.944C72.5624 128.805 72.7544 128.701 72.9704 128.632C73.1891 128.56 73.4251 128.524 73.6784 128.524C73.9344 128.524 74.1664 128.561 74.3744 128.636C74.5851 128.708 74.7651 128.809 74.9144 128.94C75.0664 129.071 75.1824 129.227 75.2624 129.408C75.3451 129.589 75.3864 129.788 75.3864 130.004C75.3864 130.188 75.3637 130.351 75.3184 130.492C75.2757 130.631 75.2131 130.753 75.1304 130.86C75.0504 130.967 74.9517 131.056 74.8344 131.128C74.7171 131.2 74.5851 131.26 74.4384 131.308C74.7957 131.412 75.0637 131.579 75.2424 131.808C75.4211 132.035 75.5104 132.32 75.5104 132.664C75.5104 132.941 75.4584 133.188 75.3544 133.404C75.2504 133.62 75.1091 133.803 74.9304 133.952C74.7544 134.101 74.5477 134.216 74.3104 134.296C74.0757 134.373 73.8264 134.412 73.5624 134.412C73.2664 134.412 73.0104 134.377 72.7944 134.308C72.5784 134.236 72.3917 134.135 72.2344 134.004C72.0797 133.871 71.9504 133.711 71.8464 133.524C71.7424 133.337 71.6544 133.128 71.5824 132.896L71.9544 132.74C72.0531 132.697 72.1464 132.685 72.2344 132.704C72.3251 132.723 72.3904 132.772 72.4304 132.852C72.4731 132.937 72.5211 133.029 72.5744 133.128C72.6277 133.224 72.6957 133.313 72.7784 133.396C72.8637 133.476 72.9677 133.544 73.0904 133.6C73.2157 133.653 73.3691 133.68 73.5504 133.68C73.7344 133.68 73.8944 133.651 74.0304 133.592C74.1691 133.531 74.2837 133.453 74.3744 133.36C74.4677 133.264 74.5371 133.157 74.5824 133.04C74.6277 132.923 74.6504 132.807 74.6504 132.692C74.6504 132.548 74.6331 132.416 74.5984 132.296C74.5637 132.173 74.4957 132.069 74.3944 131.984C74.2957 131.899 74.1544 131.832 73.9704 131.784C73.7891 131.733 73.5504 131.708 73.2544 131.708V131.088C73.4971 131.085 73.7011 131.061 73.8664 131.016C74.0344 130.968 74.1677 130.904 74.2664 130.824C74.3677 130.741 74.4397 130.643 74.4824 130.528C74.5277 130.413 74.5504 130.288 74.5504 130.152C74.5504 130.005 74.5277 129.876 74.4824 129.764C74.4371 129.652 74.3731 129.559 74.2904 129.484C74.2104 129.407 74.1144 129.349 74.0024 129.312C73.8904 129.275 73.7664 129.256 73.6304 129.256C73.4997 129.256 73.3784 129.275 73.2664 129.312C73.1571 129.349 73.0584 129.401 72.9704 129.468C72.8851 129.535 72.8131 129.615 72.7544 129.708C72.6957 129.799 72.6531 129.899 72.6264 130.008C72.5891 130.117 72.5384 130.191 72.4744 130.228C72.4131 130.265 72.3224 130.273 72.2024 130.252L71.7504 130.172Z" fill="#EEEEEE" fill-opacity="0.5"/>
<path d="M113.566 131.442L110.754 132.692V130.192L113.566 131.442Z" fill="#EEEEEE" fill-opacity="0.5"/>
<path d="M123.566 131.442L120.754 132.692V130.192L123.566 131.442Z" fill="#EEEEEE" fill-opacity="0.5"/>
<path d="M108.928 133.574C109.021 133.574 109.095 133.602 109.148 133.658C109.201 133.711 109.228 133.781 109.228 133.866V134.386H105.332V134.094C105.332 134.035 105.344 133.974 105.368 133.91C105.392 133.846 105.431 133.787 105.484 133.734L107.276 131.938C107.428 131.786 107.563 131.641 107.68 131.502C107.8 131.363 107.901 131.225 107.984 131.086C108.069 130.947 108.133 130.807 108.176 130.666C108.221 130.522 108.244 130.371 108.244 130.214C108.244 130.062 108.22 129.929 108.172 129.814C108.127 129.697 108.063 129.601 107.98 129.526C107.9 129.449 107.803 129.391 107.688 129.354C107.576 129.314 107.452 129.294 107.316 129.294C107.185 129.294 107.064 129.313 106.952 129.35C106.843 129.387 106.744 129.439 106.656 129.506C106.571 129.573 106.499 129.653 106.44 129.746C106.384 129.837 106.343 129.937 106.316 130.046C106.276 130.155 106.224 130.229 106.16 130.266C106.099 130.303 106.008 130.311 105.888 130.29L105.436 130.21C105.476 129.938 105.551 129.699 105.66 129.494C105.772 129.289 105.912 129.118 106.08 128.982C106.248 128.843 106.44 128.739 106.656 128.67C106.875 128.598 107.111 128.562 107.364 128.562C107.62 128.562 107.855 128.601 108.068 128.678C108.284 128.753 108.469 128.861 108.624 129.002C108.781 129.141 108.904 129.31 108.992 129.51C109.08 129.71 109.124 129.935 109.124 130.186C109.124 130.399 109.092 130.597 109.028 130.778C108.967 130.959 108.883 131.133 108.776 131.298C108.669 131.463 108.544 131.625 108.4 131.782C108.259 131.937 108.109 132.094 107.952 132.254L106.56 133.678C106.675 133.646 106.789 133.621 106.904 133.602C107.021 133.583 107.132 133.574 107.236 133.574H108.928Z" fill="#EEEEEE" fill-opacity="0.5"/>
<path d="M119.014 133.676V134.328H115.874V133.676H117.074V130.068C117.074 129.94 117.078 129.809 117.086 129.676L116.162 130.456C116.122 130.488 116.081 130.509 116.038 130.52C115.998 130.528 115.959 130.528 115.922 130.52C115.887 130.512 115.855 130.5 115.826 130.484C115.799 130.465 115.778 130.445 115.762 130.424L115.494 130.048L117.23 128.556H117.93V133.676H119.014Z" fill="#EEEEEE" fill-opacity="0.5"/>
<path d="M124.908 130.088C124.948 129.816 125.023 129.577 125.132 129.372C125.244 129.167 125.384 128.996 125.552 128.86C125.72 128.721 125.912 128.617 126.128 128.548C126.347 128.476 126.583 128.44 126.836 128.44C127.092 128.44 127.324 128.477 127.532 128.552C127.743 128.624 127.923 128.725 128.072 128.856C128.224 128.987 128.34 129.143 128.42 129.324C128.503 129.505 128.544 129.704 128.544 129.92C128.544 130.104 128.521 130.267 128.476 130.408C128.433 130.547 128.371 130.669 128.288 130.776C128.208 130.883 128.109 130.972 127.992 131.044C127.875 131.116 127.743 131.176 127.596 131.224C127.953 131.328 128.221 131.495 128.4 131.724C128.579 131.951 128.668 132.236 128.668 132.58C128.668 132.857 128.616 133.104 128.512 133.32C128.408 133.536 128.267 133.719 128.088 133.868C127.912 134.017 127.705 134.132 127.468 134.212C127.233 134.289 126.984 134.328 126.72 134.328C126.424 134.328 126.168 134.293 125.952 134.224C125.736 134.152 125.549 134.051 125.392 133.92C125.237 133.787 125.108 133.627 125.004 133.44C124.9 133.253 124.812 133.044 124.74 132.812L125.112 132.656C125.211 132.613 125.304 132.601 125.392 132.62C125.483 132.639 125.548 132.688 125.588 132.768C125.631 132.853 125.679 132.945 125.732 133.044C125.785 133.14 125.853 133.229 125.936 133.312C126.021 133.392 126.125 133.46 126.248 133.516C126.373 133.569 126.527 133.596 126.708 133.596C126.892 133.596 127.052 133.567 127.188 133.508C127.327 133.447 127.441 133.369 127.532 133.276C127.625 133.18 127.695 133.073 127.74 132.956C127.785 132.839 127.808 132.723 127.808 132.608C127.808 132.464 127.791 132.332 127.756 132.212C127.721 132.089 127.653 131.985 127.552 131.9C127.453 131.815 127.312 131.748 127.128 131.7C126.947 131.649 126.708 131.624 126.412 131.624V131.004C126.655 131.001 126.859 130.977 127.024 130.932C127.192 130.884 127.325 130.82 127.424 130.74C127.525 130.657 127.597 130.559 127.64 130.444C127.685 130.329 127.708 130.204 127.708 130.068C127.708 129.921 127.685 129.792 127.64 129.68C127.595 129.568 127.531 129.475 127.448 129.4C127.368 129.323 127.272 129.265 127.16 129.228C127.048 129.191 126.924 129.172 126.788 129.172C126.657 129.172 126.536 129.191 126.424 129.228C126.315 129.265 126.216 129.317 126.128 129.384C126.043 129.451 125.971 129.531 125.912 129.624C125.853 129.715 125.811 129.815 125.784 129.924C125.747 130.033 125.696 130.107 125.632 130.144C125.571 130.181 125.48 130.189 125.36 130.168L124.908 130.088Z" fill="#EEEEEE" fill-opacity="0.5"/>
<path d="M10.1572 128.622V134.382H9.68116C9.60916 134.382 9.54783 134.37 9.49716 134.346C9.44649 134.319 9.39849 134.277 9.35316 134.218L6.18916 130.154C6.19716 130.231 6.20249 130.309 6.20516 130.386C6.21049 130.461 6.21316 130.53 6.21316 130.594V134.382H5.38916V128.622H5.87716C5.91716 128.622 5.95049 128.625 5.97716 128.63C6.00649 128.633 6.03316 128.639 6.05716 128.65C6.08116 128.661 6.10383 128.677 6.12516 128.698C6.14649 128.719 6.16916 128.746 6.19316 128.778L9.36116 132.846C9.35316 132.763 9.34649 132.682 9.34116 132.602C9.33849 132.522 9.33716 132.447 9.33716 132.378V128.622H10.1572Z" fill="#EEEEEE" fill-opacity="0.5"/>
<path d="M16.9418 131.502C16.9418 131.929 16.8725 132.322 16.7338 132.682C16.5951 133.042 16.3991 133.353 16.1458 133.614C15.8951 133.873 15.5925 134.075 15.2378 134.222C14.8858 134.369 14.4938 134.442 14.0618 134.442C13.6325 134.442 13.2405 134.369 12.8858 134.222C12.5338 134.075 12.2311 133.873 11.9778 133.614C11.7245 133.353 11.5285 133.042 11.3898 132.682C11.2511 132.322 11.1818 131.929 11.1818 131.502C11.1818 131.075 11.2511 130.682 11.3898 130.322C11.5285 129.962 11.7245 129.651 11.9778 129.39C12.2311 129.129 12.5338 128.925 12.8858 128.778C13.2405 128.631 13.6325 128.558 14.0618 128.558C14.4938 128.558 14.8858 128.631 15.2378 128.778C15.5925 128.925 15.8951 129.129 16.1458 129.39C16.3991 129.651 16.5951 129.962 16.7338 130.322C16.8725 130.682 16.9418 131.075 16.9418 131.502ZM15.9858 131.502C15.9858 131.171 15.9405 130.874 15.8498 130.61C15.7618 130.346 15.6338 130.122 15.4658 129.938C15.3005 129.754 15.0991 129.613 14.8618 129.514C14.6245 129.415 14.3578 129.366 14.0618 129.366C13.7685 129.366 13.5031 129.415 13.2658 129.514C13.0285 129.613 12.8258 129.754 12.6578 129.938C12.4898 130.122 12.3605 130.346 12.2698 130.61C12.1791 130.874 12.1338 131.171 12.1338 131.502C12.1338 131.835 12.1791 132.134 12.2698 132.398C12.3605 132.662 12.4898 132.886 12.6578 133.07C12.8258 133.251 13.0285 133.391 13.2658 133.49C13.5031 133.586 13.7685 133.634 14.0618 133.634C14.3578 133.634 14.6245 133.586 14.8618 133.49C15.0991 133.391 15.3005 133.251 15.4658 133.07C15.6338 132.886 15.7618 132.662 15.8498 132.398C15.9405 132.134 15.9858 131.835 15.9858 131.502Z" fill="#EEEEEE" fill-opacity="0.5"/>
<path d="M20.8995 129.378V131.222H23.1515V131.978H20.8995V134.382H19.9595V128.622H23.5515V129.378H20.8995Z" fill="#EEEEEE" fill-opacity="0.5"/>
<path d="M30.6109 128.622V134.382H29.7869V130.434C29.7869 130.37 29.7882 130.301 29.7909 130.226C29.7962 130.149 29.8029 130.071 29.8109 129.994L27.9589 133.414C27.8869 133.555 27.7762 133.626 27.6269 133.626H27.4949C27.3429 133.626 27.2322 133.555 27.1629 133.414L25.2829 129.986C25.2909 130.063 25.2962 130.141 25.2989 130.218C25.3042 130.295 25.3069 130.367 25.3069 130.434V134.382H24.4829V128.622H25.1829C25.2656 128.622 25.3296 128.63 25.3749 128.646C25.4202 128.659 25.4616 128.703 25.4989 128.778L27.3469 132.126C27.3869 132.203 27.4242 132.283 27.4589 132.366C27.4962 132.446 27.5296 132.529 27.5589 132.614C27.5909 132.529 27.6242 132.445 27.6589 132.362C27.6962 132.277 27.7349 132.195 27.7749 132.118L29.5949 128.778C29.6322 128.703 29.6736 128.659 29.7189 128.646C29.7642 128.63 29.8282 128.622 29.9109 128.622H30.6109Z" fill="#EEEEEE" fill-opacity="0.5"/>
<path d="M52.8125 200.5L50 201.75V199.25L52.8125 200.5Z" fill="#EEEEEE" fill-opacity="0.5"/>
<path d="M48.0483 202.574C48.1417 202.574 48.215 202.602 48.2683 202.658C48.3217 202.711 48.3483 202.781 48.3483 202.866V203.386H44.4523V203.094C44.4523 203.035 44.4643 202.974 44.4883 202.91C44.5123 202.846 44.551 202.787 44.6043 202.734L46.3963 200.938C46.5483 200.786 46.683 200.641 46.8003 200.502C46.9203 200.363 47.0217 200.225 47.1043 200.086C47.1897 199.947 47.2537 199.807 47.2963 199.666C47.3417 199.522 47.3643 199.371 47.3643 199.214C47.3643 199.062 47.3403 198.929 47.2923 198.814C47.247 198.697 47.183 198.601 47.1003 198.526C47.0203 198.449 46.923 198.391 46.8083 198.354C46.6963 198.314 46.5723 198.294 46.4363 198.294C46.3057 198.294 46.1843 198.313 46.0723 198.35C45.963 198.387 45.8643 198.439 45.7763 198.506C45.691 198.573 45.619 198.653 45.5603 198.746C45.5043 198.837 45.463 198.937 45.4363 199.046C45.3963 199.155 45.3443 199.229 45.2803 199.266C45.219 199.303 45.1283 199.311 45.0083 199.29L44.5563 199.21C44.5963 198.938 44.671 198.699 44.7803 198.494C44.8923 198.289 45.0323 198.118 45.2003 197.982C45.3683 197.843 45.5603 197.739 45.7763 197.67C45.995 197.598 46.231 197.562 46.4843 197.562C46.7403 197.562 46.975 197.601 47.1883 197.678C47.4043 197.753 47.5897 197.861 47.7443 198.002C47.9017 198.141 48.0243 198.31 48.1123 198.51C48.2003 198.71 48.2443 198.935 48.2443 199.186C48.2443 199.399 48.2123 199.597 48.1483 199.778C48.087 199.959 48.003 200.133 47.8963 200.298C47.7897 200.463 47.6643 200.625 47.5203 200.782C47.379 200.937 47.2297 201.094 47.0723 201.254L45.6803 202.678C45.795 202.646 45.9097 202.621 46.0243 202.602C46.1417 202.583 46.2523 202.574 46.3563 202.574H48.0483Z" fill="#EEEEEE" fill-opacity="0.5"/>
<path d="M57.61 202.734V203.386H54.47V202.734H55.67V199.126C55.67 198.998 55.674 198.867 55.682 198.734L54.758 199.514C54.718 199.546 54.6767 199.567 54.634 199.578C54.594 199.586 54.5554 199.586 54.518 199.578C54.4834 199.57 54.4514 199.558 54.422 199.542C54.3954 199.523 54.374 199.503 54.358 199.482L54.09 199.106L55.826 197.614H56.526V202.734H57.61Z" fill="#EEEEEE" fill-opacity="0.5"/>
<path d="M79.8329 200.5L77.0204 201.75V199.25L79.8329 200.5Z" fill="#EEEEEE"/>
<path d="M89.8329 200.5L87.0204 201.75V199.25L89.8329 200.5Z" fill="#EEEEEE"/>
<path d="M85.1684 202.6C85.2617 202.6 85.3351 202.628 85.3884 202.684C85.4417 202.737 85.4684 202.807 85.4684 202.892V203.412H81.5724V203.12C81.5724 203.061 81.5844 203 81.6084 202.936C81.6324 202.872 81.6711 202.813 81.7244 202.76L83.5164 200.964C83.6684 200.812 83.8031 200.667 83.9204 200.528C84.0404 200.389 84.1417 200.251 84.2244 200.112C84.3097 199.973 84.3737 199.833 84.4164 199.692C84.4617 199.548 84.4844 199.397 84.4844 199.24C84.4844 199.088 84.4604 198.955 84.4124 198.84C84.3671 198.723 84.3031 198.627 84.2204 198.552C84.1404 198.475 84.0431 198.417 83.9284 198.38C83.8164 198.34 83.6924 198.32 83.5564 198.32C83.4257 198.32 83.3044 198.339 83.1924 198.376C83.0831 198.413 82.9844 198.465 82.8964 198.532C82.8111 198.599 82.7391 198.679 82.6804 198.772C82.6244 198.863 82.5831 198.963 82.5564 199.072C82.5164 199.181 82.4644 199.255 82.4004 199.292C82.3391 199.329 82.2484 199.337 82.1284 199.316L81.6764 199.236C81.7164 198.964 81.7911 198.725 81.9004 198.52C82.0124 198.315 82.1524 198.144 82.3204 198.008C82.4884 197.869 82.6804 197.765 82.8964 197.696C83.1151 197.624 83.3511 197.588 83.6044 197.588C83.8604 197.588 84.0951 197.627 84.3084 197.704C84.5244 197.779 84.7097 197.887 84.8644 198.028C85.0217 198.167 85.1444 198.336 85.2324 198.536C85.3204 198.736 85.3644 198.961 85.3644 199.212C85.3644 199.425 85.3324 199.623 85.2684 199.804C85.2071 199.985 85.1231 200.159 85.0164 200.324C84.9097 200.489 84.7844 200.651 84.6404 200.808C84.4991 200.963 84.3497 201.12 84.1924 201.28L82.8004 202.704C82.9151 202.672 83.0297 202.647 83.1444 202.628C83.2617 202.609 83.3724 202.6 83.4764 202.6H85.1684Z" fill="#EEEEEE"/>
<path d="M94.4175 202.792V203.444H91.2775V202.792H92.4775V199.184C92.4775 199.056 92.4815 198.925 92.4895 198.792L91.5655 199.572C91.5255 199.604 91.4842 199.625 91.4415 199.636C91.4015 199.644 91.3629 199.644 91.3255 199.636C91.2909 199.628 91.2589 199.616 91.2295 199.6C91.2029 199.581 91.1815 199.561 91.1655 199.54L90.8975 199.164L92.6335 197.672H93.3335V202.792H94.4175Z" fill="#EEEEEE"/>
<path d="M71.7504 199.172C71.7904 198.9 71.8651 198.661 71.9744 198.456C72.0864 198.251 72.2264 198.08 72.3944 197.944C72.5624 197.805 72.7544 197.701 72.9704 197.632C73.1891 197.56 73.4251 197.524 73.6784 197.524C73.9344 197.524 74.1664 197.561 74.3744 197.636C74.5851 197.708 74.7651 197.809 74.9144 197.94C75.0664 198.071 75.1824 198.227 75.2624 198.408C75.3451 198.589 75.3864 198.788 75.3864 199.004C75.3864 199.188 75.3637 199.351 75.3184 199.492C75.2757 199.631 75.2131 199.753 75.1304 199.86C75.0504 199.967 74.9517 200.056 74.8344 200.128C74.7171 200.2 74.5851 200.26 74.4384 200.308C74.7957 200.412 75.0637 200.579 75.2424 200.808C75.4211 201.035 75.5104 201.32 75.5104 201.664C75.5104 201.941 75.4584 202.188 75.3544 202.404C75.2504 202.62 75.1091 202.803 74.9304 202.952C74.7544 203.101 74.5477 203.216 74.3104 203.296C74.0757 203.373 73.8264 203.412 73.5624 203.412C73.2664 203.412 73.0104 203.377 72.7944 203.308C72.5784 203.236 72.3917 203.135 72.2344 203.004C72.0797 202.871 71.9504 202.711 71.8464 202.524C71.7424 202.337 71.6544 202.128 71.5824 201.896L71.9544 201.74C72.0531 201.697 72.1464 201.685 72.2344 201.704C72.3251 201.723 72.3904 201.772 72.4304 201.852C72.4731 201.937 72.5211 202.029 72.5744 202.128C72.6277 202.224 72.6957 202.313 72.7784 202.396C72.8637 202.476 72.9677 202.544 73.0904 202.6C73.2157 202.653 73.3691 202.68 73.5504 202.68C73.7344 202.68 73.8944 202.651 74.0304 202.592C74.1691 202.531 74.2837 202.453 74.3744 202.36C74.4677 202.264 74.5371 202.157 74.5824 202.04C74.6277 201.923 74.6504 201.807 74.6504 201.692C74.6504 201.548 74.6331 201.416 74.5984 201.296C74.5637 201.173 74.4957 201.069 74.3944 200.984C74.2957 200.899 74.1544 200.832 73.9704 200.784C73.7891 200.733 73.5504 200.708 73.2544 200.708V200.088C73.4971 200.085 73.7011 200.061 73.8664 200.016C74.0344 199.968 74.1677 199.904 74.2664 199.824C74.3677 199.741 74.4397 199.643 74.4824 199.528C74.5277 199.413 74.5504 199.288 74.5504 199.152C74.5504 199.005 74.5277 198.876 74.4824 198.764C74.4371 198.652 74.3731 198.559 74.2904 198.484C74.2104 198.407 74.1144 198.349 74.0024 198.312C73.8904 198.275 73.7664 198.256 73.6304 198.256C73.4997 198.256 73.3784 198.275 73.2664 198.312C73.1571 198.349 73.0584 198.401 72.9704 198.468C72.8851 198.535 72.8131 198.615 72.7544 198.708C72.6957 198.799 72.6531 198.899 72.6264 199.008C72.5891 199.117 72.5384 199.191 72.4744 199.228C72.4131 199.265 72.3224 199.273 72.2024 199.252L71.7504 199.172Z" fill="#EEEEEE"/>
<path d="M113.566 200.442L110.754 201.692V199.192L113.566 200.442Z" fill="#EEEEEE" fill-opacity="0.5"/>
<path d="M123.566 200.442L120.754 201.692V199.192L123.566 200.442Z" fill="#EEEEEE" fill-opacity="0.5"/>
<path d="M108.928 202.574C109.021 202.574 109.095 202.602 109.148 202.658C109.201 202.711 109.228 202.781 109.228 202.866V203.386H105.332V203.094C105.332 203.035 105.344 202.974 105.368 202.91C105.392 202.846 105.431 202.787 105.484 202.734L107.276 200.938C107.428 200.786 107.563 200.641 107.68 200.502C107.8 200.363 107.901 200.225 107.984 200.086C108.069 199.947 108.133 199.807 108.176 199.666C108.221 199.522 108.244 199.371 108.244 199.214C108.244 199.062 108.22 198.929 108.172 198.814C108.127 198.697 108.063 198.601 107.98 198.526C107.9 198.449 107.803 198.391 107.688 198.354C107.576 198.314 107.452 198.294 107.316 198.294C107.185 198.294 107.064 198.313 106.952 198.35C106.843 198.387 106.744 198.439 106.656 198.506C106.571 198.573 106.499 198.653 106.44 198.746C106.384 198.837 106.343 198.937 106.316 199.046C106.276 199.155 106.224 199.229 106.16 199.266C106.099 199.303 106.008 199.311 105.888 199.29L105.436 199.21C105.476 198.938 105.551 198.699 105.66 198.494C105.772 198.289 105.912 198.118 106.08 197.982C106.248 197.843 106.44 197.739 106.656 197.67C106.875 197.598 107.111 197.562 107.364 197.562C107.62 197.562 107.855 197.601 108.068 197.678C108.284 197.753 108.469 197.861 108.624 198.002C108.781 198.141 108.904 198.31 108.992 198.51C109.08 198.71 109.124 198.935 109.124 199.186C109.124 199.399 109.092 199.597 109.028 199.778C108.967 199.959 108.883 200.133 108.776 200.298C108.669 200.463 108.544 200.625 108.4 200.782C108.259 200.937 108.109 201.094 107.952 201.254L106.56 202.678C106.675 202.646 106.789 202.621 106.904 202.602C107.021 202.583 107.132 202.574 107.236 202.574H108.928Z" fill="#EEEEEE" fill-opacity="0.5"/>
<path d="M119.014 202.676V203.328H115.874V202.676H117.074V199.068C117.074 198.94 117.078 198.809 117.086 198.676L116.162 199.456C116.122 199.488 116.081 199.509 116.038 199.52C115.998 199.528 115.959 199.528 115.922 199.52C115.887 199.512 115.855 199.5 115.826 199.484C115.799 199.465 115.778 199.445 115.762 199.424L115.494 199.048L117.23 197.556H117.93V202.676H119.014Z" fill="#EEEEEE" fill-opacity="0.5"/>
<path d="M124.908 199.088C124.948 198.816 125.023 198.577 125.132 198.372C125.244 198.167 125.384 197.996 125.552 197.86C125.72 197.721 125.912 197.617 126.128 197.548C126.347 197.476 126.583 197.44 126.836 197.44C127.092 197.44 127.324 197.477 127.532 197.552C127.743 197.624 127.923 197.725 128.072 197.856C128.224 197.987 128.34 198.143 128.42 198.324C128.503 198.505 128.544 198.704 128.544 198.92C128.544 199.104 128.521 199.267 128.476 199.408C128.433 199.547 128.371 199.669 128.288 199.776C128.208 199.883 128.109 199.972 127.992 200.044C127.875 200.116 127.743 200.176 127.596 200.224C127.953 200.328 128.221 200.495 128.4 200.724C128.579 200.951 128.668 201.236 128.668 201.58C128.668 201.857 128.616 202.104 128.512 202.32C128.408 202.536 128.267 202.719 128.088 202.868C127.912 203.017 127.705 203.132 127.468 203.212C127.233 203.289 126.984 203.328 126.72 203.328C126.424 203.328 126.168 203.293 125.952 203.224C125.736 203.152 125.549 203.051 125.392 202.92C125.237 202.787 125.108 202.627 125.004 202.44C124.9 202.253 124.812 202.044 124.74 201.812L125.112 201.656C125.211 201.613 125.304 201.601 125.392 201.62C125.483 201.639 125.548 201.688 125.588 201.768C125.631 201.853 125.679 201.945 125.732 202.044C125.785 202.14 125.853 202.229 125.936 202.312C126.021 202.392 126.125 202.46 126.248 202.516C126.373 202.569 126.527 202.596 126.708 202.596C126.892 202.596 127.052 202.567 127.188 202.508C127.327 202.447 127.441 202.369 127.532 202.276C127.625 202.18 127.695 202.073 127.74 201.956C127.785 201.839 127.808 201.723 127.808 201.608C127.808 201.464 127.791 201.332 127.756 201.212C127.721 201.089 127.653 200.985 127.552 200.9C127.453 200.815 127.312 200.748 127.128 200.7C126.947 200.649 126.708 200.624 126.412 200.624V200.004C126.655 200.001 126.859 199.977 127.024 199.932C127.192 199.884 127.325 199.82 127.424 199.74C127.525 199.657 127.597 199.559 127.64 199.444C127.685 199.329 127.708 199.204 127.708 199.068C127.708 198.921 127.685 198.792 127.64 198.68C127.595 198.568 127.531 198.475 127.448 198.4C127.368 198.323 127.272 198.265 127.16 198.228C127.048 198.191 126.924 198.172 126.788 198.172C126.657 198.172 126.536 198.191 126.424 198.228C126.315 198.265 126.216 198.317 126.128 198.384C126.043 198.451 125.971 198.531 125.912 198.624C125.853 198.715 125.811 198.815 125.784 198.924C125.747 199.033 125.696 199.107 125.632 199.144C125.571 199.181 125.48 199.189 125.36 199.168L124.908 199.088Z" fill="#EEEEEE" fill-opacity="0.5"/>
<path d="M10.1572 197.622V203.382H9.68116C9.60916 203.382 9.54783 203.37 9.49716 203.346C9.44649 203.319 9.39849 203.277 9.35316 203.218L6.18916 199.154C6.19716 199.231 6.20249 199.309 6.20516 199.386C6.21049 199.461 6.21316 199.53 6.21316 199.594V203.382H5.38916V197.622H5.87716C5.91716 197.622 5.95049 197.625 5.97716 197.63C6.00649 197.633 6.03316 197.639 6.05716 197.65C6.08116 197.661 6.10383 197.677 6.12516 197.698C6.14649 197.719 6.16916 197.746 6.19316 197.778L9.36116 201.846C9.35316 201.763 9.34649 201.682 9.34116 201.602C9.33849 201.522 9.33716 201.447 9.33716 201.378V197.622H10.1572Z" fill="#EEEEEE" fill-opacity="0.5"/>
<path d="M16.9418 200.502C16.9418 200.929 16.8725 201.322 16.7338 201.682C16.5951 202.042 16.3991 202.353 16.1458 202.614C15.8951 202.873 15.5925 203.075 15.2378 203.222C14.8858 203.369 14.4938 203.442 14.0618 203.442C13.6325 203.442 13.2405 203.369 12.8858 203.222C12.5338 203.075 12.2311 202.873 11.9778 202.614C11.7245 202.353 11.5285 202.042 11.3898 201.682C11.2511 201.322 11.1818 200.929 11.1818 200.502C11.1818 200.075 11.2511 199.682 11.3898 199.322C11.5285 198.962 11.7245 198.651 11.9778 198.39C12.2311 198.129 12.5338 197.925 12.8858 197.778C13.2405 197.631 13.6325 197.558 14.0618 197.558C14.4938 197.558 14.8858 197.631 15.2378 197.778C15.5925 197.925 15.8951 198.129 16.1458 198.39C16.3991 198.651 16.5951 198.962 16.7338 199.322C16.8725 199.682 16.9418 200.075 16.9418 200.502ZM15.9858 200.502C15.9858 200.171 15.9405 199.874 15.8498 199.61C15.7618 199.346 15.6338 199.122 15.4658 198.938C15.3005 198.754 15.0991 198.613 14.8618 198.514C14.6245 198.415 14.3578 198.366 14.0618 198.366C13.7685 198.366 13.5031 198.415 13.2658 198.514C13.0285 198.613 12.8258 198.754 12.6578 198.938C12.4898 199.122 12.3605 199.346 12.2698 199.61C12.1791 199.874 12.1338 200.171 12.1338 200.502C12.1338 200.835 12.1791 201.134 12.2698 201.398C12.3605 201.662 12.4898 201.886 12.6578 202.07C12.8258 202.251 13.0285 202.391 13.2658 202.49C13.5031 202.586 13.7685 202.634 14.0618 202.634C14.3578 202.634 14.6245 202.586 14.8618 202.49C15.0991 202.391 15.3005 202.251 15.4658 202.07C15.6338 201.886 15.7618 201.662 15.8498 201.398C15.9405 201.134 15.9858 200.835 15.9858 200.502Z" fill="#EEEEEE" fill-opacity="0.5"/>
<path d="M20.8995 198.378V200.222H23.1515V200.978H20.8995V203.382H19.9595V197.622H23.5515V198.378H20.8995Z" fill="#EEEEEE" fill-opacity="0.5"/>
<path d="M30.6109 197.622V203.382H29.7869V199.434C29.7869 199.37 29.7882 199.301 29.7909 199.226C29.7962 199.149 29.8029 199.071 29.8109 198.994L27.9589 202.414C27.8869 202.555 27.7762 202.626 27.6269 202.626H27.4949C27.3429 202.626 27.2322 202.555 27.1629 202.414L25.2829 198.986C25.2909 199.063 25.2962 199.141 25.2989 199.218C25.3042 199.295 25.3069 199.367 25.3069 199.434V203.382H24.4829V197.622H25.1829C25.2656 197.622 25.3296 197.63 25.3749 197.646C25.4202 197.659 25.4616 197.703 25.4989 197.778L27.3469 201.126C27.3869 201.203 27.4242 201.283 27.4589 201.366C27.4962 201.446 27.5296 201.529 27.5589 201.614C27.5909 201.529 27.6242 201.445 27.6589 201.362C27.6962 201.277 27.7349 201.195 27.7749 201.118L29.5949 197.778C29.6322 197.703 29.6736 197.659 29.7189 197.646C29.7642 197.63 29.8282 197.622 29.9109 197.622H30.6109Z" fill="#EEEEEE" fill-opacity="0.5"/>
<path d="M52.8125 269.5L50 270.75V268.25L52.8125 269.5Z" fill="#EEEEEE" fill-opacity="0.5"/>
<path d="M48.0483 271.574C48.1417 271.574 48.215 271.602 48.2683 271.658C48.3217 271.711 48.3483 271.781 48.3483 271.866V272.386H44.4523V272.094C44.4523 272.035 44.4643 271.974 44.4883 271.91C44.5123 271.846 44.551 271.787 44.6043 271.734L46.3963 269.938C46.5483 269.786 46.683 269.641 46.8003 269.502C46.9203 269.363 47.0217 269.225 47.1043 269.086C47.1897 268.947 47.2537 268.807 47.2963 268.666C47.3417 268.522 47.3643 268.371 47.3643 268.214C47.3643 268.062 47.3403 267.929 47.2923 267.814C47.247 267.697 47.183 267.601 47.1003 267.526C47.0203 267.449 46.923 267.391 46.8083 267.354C46.6963 267.314 46.5723 267.294 46.4363 267.294C46.3057 267.294 46.1843 267.313 46.0723 267.35C45.963 267.387 45.8643 267.439 45.7763 267.506C45.691 267.573 45.619 267.653 45.5603 267.746C45.5043 267.837 45.463 267.937 45.4363 268.046C45.3963 268.155 45.3443 268.229 45.2803 268.266C45.219 268.303 45.1283 268.311 45.0083 268.29L44.5563 268.21C44.5963 267.938 44.671 267.699 44.7803 267.494C44.8923 267.289 45.0323 267.118 45.2003 266.982C45.3683 266.843 45.5603 266.739 45.7763 266.67C45.995 266.598 46.231 266.562 46.4843 266.562C46.7403 266.562 46.975 266.601 47.1883 266.678C47.4043 266.753 47.5897 266.861 47.7443 267.002C47.9017 267.141 48.0243 267.31 48.1123 267.51C48.2003 267.71 48.2443 267.935 48.2443 268.186C48.2443 268.399 48.2123 268.597 48.1483 268.778C48.087 268.959 48.003 269.133 47.8963 269.298C47.7897 269.463 47.6643 269.625 47.5203 269.782C47.379 269.937 47.2297 270.094 47.0723 270.254L45.6803 271.678C45.795 271.646 45.9097 271.621 46.0243 271.602C46.1417 271.583 46.2523 271.574 46.3563 271.574H48.0483Z" fill="#EEEEEE" fill-opacity="0.5"/>
<path d="M57.61 271.734V272.386H54.47V271.734H55.67V268.126C55.67 267.998 55.674 267.867 55.682 267.734L54.758 268.514C54.718 268.546 54.6767 268.567 54.634 268.578C54.594 268.586 54.5554 268.586 54.518 268.578C54.4834 268.57 54.4514 268.558 54.422 268.542C54.3954 268.523 54.374 268.503 54.358 268.482L54.09 268.106L55.826 266.614H56.526V271.734H57.61Z" fill="#EEEEEE" fill-opacity="0.5"/>
<path d="M79.8329 269.5L77.0204 270.75V268.25L79.8329 269.5Z" fill="#EEEEEE" fill-opacity="0.5"/>
<path d="M89.8329 269.5L87.0204 270.75V268.25L89.8329 269.5Z" fill="#EEEEEE" fill-opacity="0.5"/>
<path d="M85.1684 271.6C85.2617 271.6 85.3351 271.628 85.3884 271.684C85.4417 271.737 85.4684 271.807 85.4684 271.892V272.412H81.5724V272.12C81.5724 272.061 81.5844 272 81.6084 271.936C81.6324 271.872 81.6711 271.813 81.7244 271.76L83.5164 269.964C83.6684 269.812 83.8031 269.667 83.9204 269.528C84.0404 269.389 84.1417 269.251 84.2244 269.112C84.3097 268.973 84.3737 268.833 84.4164 268.692C84.4617 268.548 84.4844 268.397 84.4844 268.24C84.4844 268.088 84.4604 267.955 84.4124 267.84C84.3671 267.723 84.3031 267.627 84.2204 267.552C84.1404 267.475 84.0431 267.417 83.9284 267.38C83.8164 267.34 83.6924 267.32 83.5564 267.32C83.4257 267.32 83.3044 267.339 83.1924 267.376C83.0831 267.413 82.9844 267.465 82.8964 267.532C82.8111 267.599 82.7391 267.679 82.6804 267.772C82.6244 267.863 82.5831 267.963 82.5564 268.072C82.5164 268.181 82.4644 268.255 82.4004 268.292C82.3391 268.329 82.2484 268.337 82.1284 268.316L81.6764 268.236C81.7164 267.964 81.7911 267.725 81.9004 267.52C82.0124 267.315 82.1524 267.144 82.3204 267.008C82.4884 266.869 82.6804 266.765 82.8964 266.696C83.1151 266.624 83.3511 266.588 83.6044 266.588C83.8604 266.588 84.0951 266.627 84.3084 266.704C84.5244 266.779 84.7097 266.887 84.8644 267.028C85.0217 267.167 85.1444 267.336 85.2324 267.536C85.3204 267.736 85.3644 267.961 85.3644 268.212C85.3644 268.425 85.3324 268.623 85.2684 268.804C85.2071 268.985 85.1231 269.159 85.0164 269.324C84.9097 269.489 84.7844 269.651 84.6404 269.808C84.4991 269.963 84.3497 270.12 84.1924 270.28L82.8004 271.704C82.9151 271.672 83.0297 271.647 83.1444 271.628C83.2617 271.609 83.3724 271.6 83.4764 271.6H85.1684Z" fill="#EEEEEE" fill-opacity="0.5"/>
<path d="M94.4175 271.792V272.444H91.2775V271.792H92.4775V268.184C92.4775 268.056 92.4815 267.925 92.4895 267.792L91.5655 268.572C91.5255 268.604 91.4842 268.625 91.4415 268.636C91.4015 268.644 91.3629 268.644 91.3255 268.636C91.2909 268.628 91.2589 268.616 91.2295 268.6C91.2029 268.581 91.1815 268.561 91.1655 268.54L90.8975 268.164L92.6335 266.672H93.3335V271.792H94.4175Z" fill="#EEEEEE" fill-opacity="0.5"/>
<path d="M71.7504 268.172C71.7904 267.9 71.8651 267.661 71.9744 267.456C72.0864 267.251 72.2264 267.08 72.3944 266.944C72.5624 266.805 72.7544 266.701 72.9704 266.632C73.1891 266.56 73.4251 266.524 73.6784 266.524C73.9344 266.524 74.1664 266.561 74.3744 266.636C74.5851 266.708 74.7651 266.809 74.9144 266.94C75.0664 267.071 75.1824 267.227 75.2624 267.408C75.3451 267.589 75.3864 267.788 75.3864 268.004C75.3864 268.188 75.3637 268.351 75.3184 268.492C75.2757 268.631 75.2131 268.753 75.1304 268.86C75.0504 268.967 74.9517 269.056 74.8344 269.128C74.7171 269.2 74.5851 269.26 74.4384 269.308C74.7957 269.412 75.0637 269.579 75.2424 269.808C75.4211 270.035 75.5104 270.32 75.5104 270.664C75.5104 270.941 75.4584 271.188 75.3544 271.404C75.2504 271.62 75.1091 271.803 74.9304 271.952C74.7544 272.101 74.5477 272.216 74.3104 272.296C74.0757 272.373 73.8264 272.412 73.5624 272.412C73.2664 272.412 73.0104 272.377 72.7944 272.308C72.5784 272.236 72.3917 272.135 72.2344 272.004C72.0797 271.871 71.9504 271.711 71.8464 271.524C71.7424 271.337 71.6544 271.128 71.5824 270.896L71.9544 270.74C72.0531 270.697 72.1464 270.685 72.2344 270.704C72.3251 270.723 72.3904 270.772 72.4304 270.852C72.4731 270.937 72.5211 271.029 72.5744 271.128C72.6277 271.224 72.6957 271.313 72.7784 271.396C72.8637 271.476 72.9677 271.544 73.0904 271.6C73.2157 271.653 73.3691 271.68 73.5504 271.68C73.7344 271.68 73.8944 271.651 74.0304 271.592C74.1691 271.531 74.2837 271.453 74.3744 271.36C74.4677 271.264 74.5371 271.157 74.5824 271.04C74.6277 270.923 74.6504 270.807 74.6504 270.692C74.6504 270.548 74.6331 270.416 74.5984 270.296C74.5637 270.173 74.4957 270.069 74.3944 269.984C74.2957 269.899 74.1544 269.832 73.9704 269.784C73.7891 269.733 73.5504 269.708 73.2544 269.708V269.088C73.4971 269.085 73.7011 269.061 73.8664 269.016C74.0344 268.968 74.1677 268.904 74.2664 268.824C74.3677 268.741 74.4397 268.643 74.4824 268.528C74.5277 268.413 74.5504 268.288 74.5504 268.152C74.5504 268.005 74.5277 267.876 74.4824 267.764C74.4371 267.652 74.3731 267.559 74.2904 267.484C74.2104 267.407 74.1144 267.349 74.0024 267.312C73.8904 267.275 73.7664 267.256 73.6304 267.256C73.4997 267.256 73.3784 267.275 73.2664 267.312C73.1571 267.349 73.0584 267.401 72.9704 267.468C72.8851 267.535 72.8131 267.615 72.7544 267.708C72.6957 267.799 72.6531 267.899 72.6264 268.008C72.5891 268.117 72.5384 268.191 72.4744 268.228C72.4131 268.265 72.3224 268.273 72.2024 268.252L71.7504 268.172Z" fill="#EEEEEE" fill-opacity="0.5"/>
<path d="M113.566 269.442L110.754 270.692V268.192L113.566 269.442Z" fill="#EEEEEE"/>
<path d="M123.566 269.442L120.754 270.692V268.192L123.566 269.442Z" fill="#EEEEEE"/>
<path d="M108.928 271.574C109.021 271.574 109.095 271.602 109.148 271.658C109.201 271.711 109.228 271.781 109.228 271.866V272.386H105.332V272.094C105.332 272.035 105.344 271.974 105.368 271.91C105.392 271.846 105.431 271.787 105.484 271.734L107.276 269.938C107.428 269.786 107.563 269.641 107.68 269.502C107.8 269.363 107.901 269.225 107.984 269.086C108.069 268.947 108.133 268.807 108.176 268.666C108.221 268.522 108.244 268.371 108.244 268.214C108.244 268.062 108.22 267.929 108.172 267.814C108.127 267.697 108.063 267.601 107.98 267.526C107.9 267.449 107.803 267.391 107.688 267.354C107.576 267.314 107.452 267.294 107.316 267.294C107.185 267.294 107.064 267.313 106.952 267.35C106.843 267.387 106.744 267.439 106.656 267.506C106.571 267.573 106.499 267.653 106.44 267.746C106.384 267.837 106.343 267.937 106.316 268.046C106.276 268.155 106.224 268.229 106.16 268.266C106.099 268.303 106.008 268.311 105.888 268.29L105.436 268.21C105.476 267.938 105.551 267.699 105.66 267.494C105.772 267.289 105.912 267.118 106.08 266.982C106.248 266.843 106.44 266.739 106.656 266.67C106.875 266.598 107.111 266.562 107.364 266.562C107.62 266.562 107.855 266.601 108.068 266.678C108.284 266.753 108.469 266.861 108.624 267.002C108.781 267.141 108.904 267.31 108.992 267.51C109.08 267.71 109.124 267.935 109.124 268.186C109.124 268.399 109.092 268.597 109.028 268.778C108.967 268.959 108.883 269.133 108.776 269.298C108.669 269.463 108.544 269.625 108.4 269.782C108.259 269.937 108.109 270.094 107.952 270.254L106.56 271.678C106.675 271.646 106.789 271.621 106.904 271.602C107.021 271.583 107.132 271.574 107.236 271.574H108.928Z" fill="#EEEEEE"/>
<path d="M119.014 271.676V272.328H115.874V271.676H117.074V268.068C117.074 267.94 117.078 267.809 117.086 267.676L116.162 268.456C116.122 268.488 116.081 268.509 116.038 268.52C115.998 268.528 115.959 268.528 115.922 268.52C115.887 268.512 115.855 268.5 115.826 268.484C115.799 268.465 115.778 268.445 115.762 268.424L115.494 268.048L117.23 266.556H117.93V271.676H119.014Z" fill="#EEEEEE"/>
<path d="M124.908 268.088C124.948 267.816 125.023 267.577 125.132 267.372C125.244 267.167 125.384 266.996 125.552 266.86C125.72 266.721 125.912 266.617 126.128 266.548C126.347 266.476 126.583 266.44 126.836 266.44C127.092 266.44 127.324 266.477 127.532 266.552C127.743 266.624 127.923 266.725 128.072 266.856C128.224 266.987 128.34 267.143 128.42 267.324C128.503 267.505 128.544 267.704 128.544 267.92C128.544 268.104 128.521 268.267 128.476 268.408C128.433 268.547 128.371 268.669 128.288 268.776C128.208 268.883 128.109 268.972 127.992 269.044C127.875 269.116 127.743 269.176 127.596 269.224C127.953 269.328 128.221 269.495 128.4 269.724C128.579 269.951 128.668 270.236 128.668 270.58C128.668 270.857 128.616 271.104 128.512 271.32C128.408 271.536 128.267 271.719 128.088 271.868C127.912 272.017 127.705 272.132 127.468 272.212C127.233 272.289 126.984 272.328 126.72 272.328C126.424 272.328 126.168 272.293 125.952 272.224C125.736 272.152 125.549 272.051 125.392 271.92C125.237 271.787 125.108 271.627 125.004 271.44C124.9 271.253 124.812 271.044 124.74 270.812L125.112 270.656C125.211 270.613 125.304 270.601 125.392 270.62C125.483 270.639 125.548 270.688 125.588 270.768C125.631 270.853 125.679 270.945 125.732 271.044C125.785 271.14 125.853 271.229 125.936 271.312C126.021 271.392 126.125 271.46 126.248 271.516C126.373 271.569 126.527 271.596 126.708 271.596C126.892 271.596 127.052 271.567 127.188 271.508C127.327 271.447 127.441 271.369 127.532 271.276C127.625 271.18 127.695 271.073 127.74 270.956C127.785 270.839 127.808 270.723 127.808 270.608C127.808 270.464 127.791 270.332 127.756 270.212C127.721 270.089 127.653 269.985 127.552 269.9C127.453 269.815 127.312 269.748 127.128 269.7C126.947 269.649 126.708 269.624 126.412 269.624V269.004C126.655 269.001 126.859 268.977 127.024 268.932C127.192 268.884 127.325 268.82 127.424 268.74C127.525 268.657 127.597 268.559 127.64 268.444C127.685 268.329 127.708 268.204 127.708 268.068C127.708 267.921 127.685 267.792 127.64 267.68C127.595 267.568 127.531 267.475 127.448 267.4C127.368 267.323 127.272 267.265 127.16 267.228C127.048 267.191 126.924 267.172 126.788 267.172C126.657 267.172 126.536 267.191 126.424 267.228C126.315 267.265 126.216 267.317 126.128 267.384C126.043 267.451 125.971 267.531 125.912 267.624C125.853 267.715 125.811 267.815 125.784 267.924C125.747 268.033 125.696 268.107 125.632 268.144C125.571 268.181 125.48 268.189 125.36 268.168L124.908 268.088Z" fill="#EEEEEE"/>
<path d="M10.1572 266.622V272.382H9.68116C9.60916 272.382 9.54783 272.37 9.49716 272.346C9.44649 272.319 9.39849 272.277 9.35316 272.218L6.18916 268.154C6.19716 268.231 6.20249 268.309 6.20516 268.386C6.21049 268.461 6.21316 268.53 6.21316 268.594V272.382H5.38916V266.622H5.87716C5.91716 266.622 5.95049 266.625 5.97716 266.63C6.00649 266.633 6.03316 266.639 6.05716 266.65C6.08116 266.661 6.10383 266.677 6.12516 266.698C6.14649 266.719 6.16916 266.746 6.19316 266.778L9.36116 270.846C9.35316 270.763 9.34649 270.682 9.34116 270.602C9.33849 270.522 9.33716 270.447 9.33716 270.378V266.622H10.1572Z" fill="#EEEEEE" fill-opacity="0.5"/>
<path d="M16.9418 269.502C16.9418 269.929 16.8725 270.322 16.7338 270.682C16.5951 271.042 16.3991 271.353 16.1458 271.614C15.8951 271.873 15.5925 272.075 15.2378 272.222C14.8858 272.369 14.4938 272.442 14.0618 272.442C13.6325 272.442 13.2405 272.369 12.8858 272.222C12.5338 272.075 12.2311 271.873 11.9778 271.614C11.7245 271.353 11.5285 271.042 11.3898 270.682C11.2511 270.322 11.1818 269.929 11.1818 269.502C11.1818 269.075 11.2511 268.682 11.3898 268.322C11.5285 267.962 11.7245 267.651 11.9778 267.39C12.2311 267.129 12.5338 266.925 12.8858 266.778C13.2405 266.631 13.6325 266.558 14.0618 266.558C14.4938 266.558 14.8858 266.631 15.2378 266.778C15.5925 266.925 15.8951 267.129 16.1458 267.39C16.3991 267.651 16.5951 267.962 16.7338 268.322C16.8725 268.682 16.9418 269.075 16.9418 269.502ZM15.9858 269.502C15.9858 269.171 15.9405 268.874 15.8498 268.61C15.7618 268.346 15.6338 268.122 15.4658 267.938C15.3005 267.754 15.0991 267.613 14.8618 267.514C14.6245 267.415 14.3578 267.366 14.0618 267.366C13.7685 267.366 13.5031 267.415 13.2658 267.514C13.0285 267.613 12.8258 267.754 12.6578 267.938C12.4898 268.122 12.3605 268.346 12.2698 268.61C12.1791 268.874 12.1338 269.171 12.1338 269.502C12.1338 269.835 12.1791 270.134 12.2698 270.398C12.3605 270.662 12.4898 270.886 12.6578 271.07C12.8258 271.251 13.0285 271.391 13.2658 271.49C13.5031 271.586 13.7685 271.634 14.0618 271.634C14.3578 271.634 14.6245 271.586 14.8618 271.49C15.0991 271.391 15.3005 271.251 15.4658 271.07C15.6338 270.886 15.7618 270.662 15.8498 270.398C15.9405 270.134 15.9858 269.835 15.9858 269.502Z" fill="#EEEEEE" fill-opacity="0.5"/>
<path d="M20.8995 267.378V269.222H23.1515V269.978H20.8995V272.382H19.9595V266.622H23.5515V267.378H20.8995Z" fill="#EEEEEE" fill-opacity="0.5"/>
<path d="M30.6109 266.622V272.382H29.7869V268.434C29.7869 268.37 29.7882 268.301 29.7909 268.226C29.7962 268.149 29.8029 268.071 29.8109 267.994L27.9589 271.414C27.8869 271.555 27.7762 271.626 27.6269 271.626H27.4949C27.3429 271.626 27.2322 271.555 27.1629 271.414L25.2829 267.986C25.2909 268.063 25.2962 268.141 25.2989 268.218C25.3042 268.295 25.3069 268.367 25.3069 268.434V272.382H24.4829V266.622H25.1829C25.2656 266.622 25.3296 266.63 25.3749 266.646C25.4202 266.659 25.4616 266.703 25.4989 266.778L27.3469 270.126C27.3869 270.203 27.4242 270.283 27.4589 270.366C27.4962 270.446 27.5296 270.529 27.5589 270.614C27.5909 270.529 27.6242 270.445 27.6589 270.362C27.6962 270.277 27.7349 270.195 27.7749 270.118L29.5949 266.778C29.6322 266.703 29.6736 266.659 29.7189 266.646C29.7642 266.63 29.8282 266.622 29.9109 266.622H30.6109Z" fill="#EEEEEE" fill-opacity="0.5"/>
</svg>
