<svg width="49" height="28" viewBox="0 0 49 28" fill="none" xmlns="http://www.w3.org/2000/svg">
<rect y="14.75" width="49" height="12.5" fill="white" fill-opacity="0.2"/>
<path d="M11.5163 17.682V23.414H10.7403V20.806H7.64831V23.414H6.87231V17.682H7.64831V20.238H10.7403V17.682H11.5163Z" fill="white"/>
<path d="M14.3967 19.298C14.6927 19.298 14.9594 19.3473 15.1967 19.446C15.434 19.5446 15.6367 19.6846 15.8047 19.866C15.9727 20.0473 16.1007 20.2673 16.1887 20.526C16.2794 20.782 16.3247 21.0686 16.3247 21.386C16.3247 21.706 16.2794 21.994 16.1887 22.25C16.1007 22.506 15.9727 22.7246 15.8047 22.906C15.6367 23.0873 15.434 23.2273 15.1967 23.326C14.9594 23.422 14.6927 23.47 14.3967 23.47C14.098 23.47 13.8287 23.422 13.5887 23.326C13.3514 23.2273 13.1487 23.0873 12.9807 22.906C12.8127 22.7246 12.6834 22.506 12.5927 22.25C12.5047 21.994 12.4607 21.706 12.4607 21.386C12.4607 21.0686 12.5047 20.782 12.5927 20.526C12.6834 20.2673 12.8127 20.0473 12.9807 19.866C13.1487 19.6846 13.3514 19.5446 13.5887 19.446C13.8287 19.3473 14.098 19.298 14.3967 19.298ZM14.3967 22.914C14.7967 22.914 15.0954 22.7806 15.2927 22.514C15.49 22.2446 15.5887 21.87 15.5887 21.39C15.5887 20.9073 15.49 20.5313 15.2927 20.262C15.0954 19.9926 14.7967 19.858 14.3967 19.858C14.194 19.858 14.0167 19.8926 13.8647 19.962C13.7154 20.0313 13.59 20.1313 13.4887 20.262C13.39 20.3926 13.3154 20.554 13.2647 20.746C13.2167 20.9353 13.1927 21.15 13.1927 21.39C13.1927 21.87 13.2914 22.2446 13.4887 22.514C13.6887 22.7806 13.9914 22.914 14.3967 22.914Z" fill="white"/>
<path d="M17.9038 20.174C18.0318 19.8966 18.1891 19.6806 18.3758 19.526C18.5624 19.3686 18.7904 19.29 19.0598 19.29C19.1451 19.29 19.2264 19.2993 19.3038 19.318C19.3838 19.3366 19.4544 19.366 19.5158 19.406L19.4638 19.938C19.4478 20.0046 19.4078 20.038 19.3438 20.038C19.3064 20.038 19.2518 20.03 19.1798 20.014C19.1078 19.998 19.0264 19.99 18.9358 19.99C18.8078 19.99 18.6931 20.0086 18.5918 20.046C18.4931 20.0833 18.4038 20.1393 18.3238 20.214C18.2464 20.286 18.1758 20.3766 18.1118 20.486C18.0504 20.5926 17.9944 20.7153 17.9438 20.854V23.414H17.2278V19.362H17.6358C17.7131 19.362 17.7664 19.3766 17.7958 19.406C17.8251 19.4353 17.8451 19.486 17.8558 19.558L17.9038 20.174Z" fill="white"/>
<path d="M20.8938 19.362V23.414H20.1818V19.362H20.8938ZM21.0458 18.09C21.0458 18.1593 21.0311 18.2246 21.0018 18.286C20.9751 18.3446 20.9378 18.398 20.8898 18.446C20.8445 18.4913 20.7898 18.5273 20.7258 18.554C20.6645 18.5806 20.5991 18.594 20.5298 18.594C20.4605 18.594 20.3951 18.5806 20.3338 18.554C20.2751 18.5273 20.2231 18.4913 20.1778 18.446C20.1325 18.398 20.0965 18.3446 20.0698 18.286C20.0431 18.2246 20.0298 18.1593 20.0298 18.09C20.0298 18.0206 20.0431 17.9553 20.0698 17.894C20.0965 17.83 20.1325 17.7753 20.1778 17.73C20.2231 17.682 20.2751 17.6446 20.3338 17.618C20.3951 17.5913 20.4605 17.578 20.5298 17.578C20.5991 17.578 20.6645 17.5913 20.7258 17.618C20.7898 17.6446 20.8445 17.682 20.8898 17.73C20.9378 17.7753 20.9751 17.83 21.0018 17.894C21.0311 17.9553 21.0458 18.0206 21.0458 18.09Z" fill="white"/>
<path d="M24.8597 19.666C24.8597 19.7166 24.8504 19.766 24.8317 19.814C24.8157 19.862 24.793 19.9033 24.7637 19.938L22.5677 22.858H24.7837V23.414H21.7317V23.118C21.7317 23.0833 21.7397 23.0433 21.7557 22.998C21.7717 22.95 21.7957 22.9046 21.8277 22.862L24.0357 19.922H21.8557V19.362H24.8597V19.666Z" fill="white"/>
<path d="M27.3108 19.298C27.6068 19.298 27.8734 19.3473 28.1108 19.446C28.3481 19.5446 28.5508 19.6846 28.7188 19.866C28.8868 20.0473 29.0148 20.2673 29.1028 20.526C29.1934 20.782 29.2388 21.0686 29.2388 21.386C29.2388 21.706 29.1934 21.994 29.1028 22.25C29.0148 22.506 28.8868 22.7246 28.7188 22.906C28.5508 23.0873 28.3481 23.2273 28.1108 23.326C27.8734 23.422 27.6068 23.47 27.3108 23.47C27.0121 23.47 26.7428 23.422 26.5028 23.326C26.2654 23.2273 26.0628 23.0873 25.8948 22.906C25.7268 22.7246 25.5974 22.506 25.5068 22.25C25.4188 21.994 25.3748 21.706 25.3748 21.386C25.3748 21.0686 25.4188 20.782 25.5068 20.526C25.5974 20.2673 25.7268 20.0473 25.8948 19.866C26.0628 19.6846 26.2654 19.5446 26.5028 19.446C26.7428 19.3473 27.0121 19.298 27.3108 19.298ZM27.3108 22.914C27.7108 22.914 28.0094 22.7806 28.2068 22.514C28.4041 22.2446 28.5028 21.87 28.5028 21.39C28.5028 20.9073 28.4041 20.5313 28.2068 20.262C28.0094 19.9926 27.7108 19.858 27.3108 19.858C27.1081 19.858 26.9308 19.8926 26.7788 19.962C26.6294 20.0313 26.5041 20.1313 26.4028 20.262C26.3041 20.3926 26.2294 20.554 26.1788 20.746C26.1308 20.9353 26.1068 21.15 26.1068 21.39C26.1068 21.87 26.2054 22.2446 26.4028 22.514C26.6028 22.7806 26.9054 22.914 27.3108 22.914Z" fill="white"/>
<path d="M30.8138 19.95C30.9018 19.8513 30.9951 19.762 31.0938 19.682C31.1925 19.602 31.2965 19.534 31.4058 19.478C31.5178 19.4193 31.6351 19.3753 31.7578 19.346C31.8831 19.314 32.0178 19.298 32.1618 19.298C32.3831 19.298 32.5778 19.3353 32.7458 19.41C32.9165 19.482 33.0578 19.586 33.1698 19.722C33.2845 19.8553 33.3711 20.0166 33.4298 20.206C33.4885 20.3953 33.5178 20.6046 33.5178 20.834V23.414H32.8018V20.834C32.8018 20.5273 32.7311 20.29 32.5898 20.122C32.4511 19.9513 32.2391 19.866 31.9538 19.866C31.7431 19.866 31.5458 19.9166 31.3618 20.018C31.1805 20.1193 31.0125 20.2566 30.8578 20.43V23.414H30.1418V19.362H30.5698C30.6711 19.362 30.7338 19.4113 30.7578 19.51L30.8138 19.95Z" fill="white"/>
<path d="M35.7921 23.478C35.4721 23.478 35.2254 23.3886 35.0521 23.21C34.8814 23.0313 34.7961 22.774 34.7961 22.438V19.958H34.3081C34.2654 19.958 34.2294 19.946 34.2001 19.922C34.1707 19.8953 34.1561 19.8553 34.1561 19.802V19.518L34.8201 19.434L34.9841 18.182C34.9921 18.142 35.0094 18.11 35.0361 18.086C35.0654 18.0593 35.1027 18.046 35.1481 18.046H35.5081V19.442H36.6801V19.958H35.5081V22.39C35.5081 22.5606 35.5494 22.6873 35.6321 22.77C35.7147 22.8526 35.8214 22.894 35.9521 22.894C36.0267 22.894 36.0907 22.8846 36.1441 22.866C36.2001 22.8446 36.2481 22.822 36.2881 22.798C36.3281 22.774 36.3614 22.7526 36.3881 22.734C36.4174 22.7126 36.4427 22.702 36.4641 22.702C36.5014 22.702 36.5347 22.7246 36.5641 22.77L36.7721 23.11C36.6494 23.2246 36.5014 23.3153 36.3281 23.382C36.1547 23.446 35.9761 23.478 35.7921 23.478Z" fill="white"/>
<path d="M39.6113 21.59C39.2833 21.6006 39.0033 21.6273 38.7713 21.67C38.5419 21.71 38.3539 21.7633 38.2073 21.83C38.0633 21.8966 37.9579 21.9753 37.8913 22.066C37.8273 22.1566 37.7953 22.258 37.7953 22.37C37.7953 22.4766 37.8126 22.5686 37.8473 22.646C37.8819 22.7233 37.9286 22.7873 37.9873 22.838C38.0486 22.886 38.1193 22.922 38.1993 22.946C38.2819 22.9673 38.3699 22.978 38.4633 22.978C38.5886 22.978 38.7033 22.966 38.8073 22.942C38.9113 22.9153 39.0086 22.878 39.0993 22.83C39.1926 22.782 39.2806 22.7246 39.3633 22.658C39.4486 22.5913 39.5312 22.5153 39.6113 22.43V21.59ZM37.3113 19.934C37.5353 19.718 37.7766 19.5566 38.0353 19.45C38.2939 19.3433 38.5806 19.29 38.8953 19.29C39.1219 19.29 39.3233 19.3273 39.4993 19.402C39.6753 19.4766 39.8233 19.5806 39.9433 19.714C40.0633 19.8473 40.1539 20.0086 40.2153 20.198C40.2766 20.3873 40.3073 20.5953 40.3073 20.822V23.414H39.9913C39.9219 23.414 39.8686 23.4033 39.8313 23.382C39.7939 23.358 39.7646 23.3126 39.7433 23.246L39.6633 22.862C39.5566 22.9606 39.4526 23.0486 39.3513 23.126C39.2499 23.2006 39.1433 23.2646 39.0313 23.318C38.9193 23.3686 38.7993 23.4073 38.6713 23.434C38.5459 23.4633 38.4059 23.478 38.2513 23.478C38.0939 23.478 37.9459 23.4566 37.8073 23.414C37.6686 23.3686 37.5473 23.302 37.4433 23.214C37.3419 23.126 37.2606 23.0153 37.1993 22.882C37.1406 22.746 37.1113 22.586 37.1113 22.402C37.1113 22.242 37.1553 22.0886 37.2433 21.942C37.3313 21.7926 37.4739 21.6606 37.6713 21.546C37.8686 21.4313 38.1259 21.338 38.4433 21.266C38.7606 21.1913 39.1499 21.1486 39.6113 21.138V20.822C39.6113 20.5073 39.5433 20.27 39.4073 20.11C39.2713 19.9473 39.0726 19.866 38.8113 19.866C38.6353 19.866 38.4873 19.8886 38.3673 19.934C38.2499 19.9766 38.1473 20.026 38.0593 20.082C37.9739 20.1353 37.8993 20.1846 37.8353 20.23C37.7739 20.2726 37.7126 20.294 37.6513 20.294C37.6033 20.294 37.5619 20.282 37.5273 20.258C37.4926 20.2313 37.4633 20.1993 37.4393 20.162L37.3113 19.934Z" fill="white"/>
<path d="M42.1278 17.522V23.414H41.4158V17.522H42.1278Z" fill="white"/>
</svg>
