<svg width="37" height="12" viewBox="0 0 37 12" fill="none" xmlns="http://www.w3.org/2000/svg">
<g clip-path="url(#clip0_134_638)">
<path d="M13.9763 4.03002C13.9523 4.07002 13.9256 4.10069 13.8963 4.12202C13.8696 4.14069 13.8363 4.15002 13.7963 4.15002C13.751 4.15002 13.6976 4.12736 13.6363 4.08202C13.575 4.03669 13.4976 3.98736 13.4043 3.93402C13.3136 3.87802 13.203 3.82736 13.0723 3.78202C12.9443 3.73669 12.7883 3.71402 12.6043 3.71402C12.431 3.71402 12.2776 3.73802 12.1443 3.78602C12.0136 3.83136 11.903 3.89402 11.8123 3.97402C11.7243 4.05402 11.6576 4.14869 11.6123 4.25802C11.567 4.36469 11.5443 4.48069 11.5443 4.60602C11.5443 4.76602 11.583 4.89936 11.6603 5.00602C11.7403 5.11002 11.8443 5.19936 11.9723 5.27402C12.103 5.34869 12.2496 5.41402 12.4123 5.47002C12.5776 5.52336 12.7456 5.57936 12.9163 5.63802C13.0896 5.69669 13.2576 5.76336 13.4203 5.83802C13.5856 5.91002 13.7323 6.00202 13.8603 6.11402C13.991 6.22602 14.095 6.36336 14.1723 6.52602C14.2523 6.68869 14.2923 6.88869 14.2923 7.12602C14.2923 7.37669 14.2496 7.61269 14.1643 7.83402C14.079 8.05269 13.9536 8.24336 13.7883 8.40602C13.6256 8.56869 13.4243 8.69669 13.1843 8.79002C12.947 8.88336 12.6763 8.93002 12.3723 8.93002C11.999 8.93002 11.6603 8.86336 11.3563 8.73002C11.0523 8.59402 10.7923 8.41136 10.5763 8.18202L10.8003 7.81402C10.8216 7.78469 10.847 7.76069 10.8763 7.74202C10.9083 7.72069 10.943 7.71002 10.9803 7.71002C11.015 7.71002 11.0536 7.72469 11.0963 7.75402C11.1416 7.78069 11.1923 7.81536 11.2483 7.85802C11.3043 7.90069 11.3683 7.94736 11.4403 7.99802C11.5123 8.04869 11.5936 8.09536 11.6843 8.13802C11.7776 8.18069 11.883 8.21669 12.0003 8.24602C12.1176 8.27269 12.2496 8.28602 12.3963 8.28602C12.5803 8.28602 12.7443 8.26069 12.8883 8.21002C13.0323 8.15936 13.1536 8.08869 13.2523 7.99802C13.3536 7.90469 13.431 7.79402 13.4843 7.66602C13.5376 7.53802 13.5643 7.39536 13.5643 7.23802C13.5643 7.06469 13.5243 6.92336 13.4443 6.81402C13.367 6.70202 13.2643 6.60869 13.1363 6.53402C13.0083 6.45936 12.8616 6.39669 12.6963 6.34602C12.531 6.29269 12.363 6.23936 12.1923 6.18602C12.0216 6.13002 11.8536 6.06602 11.6883 5.99402C11.523 5.92202 11.3763 5.82869 11.2483 5.71402C11.1203 5.59936 11.0163 5.45669 10.9363 5.28602C10.859 5.11269 10.8203 4.89936 10.8203 4.64602C10.8203 4.44336 10.859 4.24736 10.9363 4.05802C11.0163 3.86869 11.131 3.70069 11.2803 3.55402C11.4323 3.40736 11.6176 3.29002 11.8363 3.20202C12.0576 3.11402 12.311 3.07002 12.5963 3.07002C12.9163 3.07002 13.207 3.12069 13.4683 3.22202C13.7323 3.32336 13.9643 3.47002 14.1643 3.66202L13.9763 4.03002Z" fill="white"/>
<path d="M17.3614 7.04202C17.0334 7.05269 16.7534 7.07936 16.5214 7.12202C16.292 7.16202 16.104 7.21536 15.9574 7.28202C15.8134 7.34869 15.708 7.42736 15.6414 7.51802C15.5774 7.60869 15.5454 7.71002 15.5454 7.82202C15.5454 7.92869 15.5627 8.02069 15.5974 8.09802C15.632 8.17536 15.6787 8.23936 15.7374 8.29002C15.7987 8.33802 15.8694 8.37402 15.9494 8.39802C16.032 8.41936 16.12 8.43002 16.2134 8.43002C16.3387 8.43002 16.4534 8.41802 16.5574 8.39402C16.6614 8.36736 16.7587 8.33002 16.8494 8.28202C16.9427 8.23402 17.0307 8.17669 17.1134 8.11002C17.1987 8.04336 17.2814 7.96736 17.3614 7.88202V7.04202ZM15.0614 5.38602C15.2854 5.17002 15.5267 5.00869 15.7854 4.90202C16.044 4.79536 16.3307 4.74202 16.6454 4.74202C16.872 4.74202 17.0734 4.77936 17.2494 4.85402C17.4254 4.92869 17.5734 5.03269 17.6934 5.16602C17.8134 5.29936 17.904 5.46069 17.9654 5.65002C18.0267 5.83936 18.0574 6.04736 18.0574 6.27402V8.86602H17.7414C17.672 8.86602 17.6187 8.85536 17.5814 8.83402C17.544 8.81002 17.5147 8.76469 17.4934 8.69802L17.4134 8.31402C17.3067 8.41269 17.2027 8.50069 17.1014 8.57802C17 8.65269 16.8934 8.71669 16.7814 8.77002C16.6694 8.82069 16.5494 8.85936 16.4214 8.88602C16.296 8.91536 16.156 8.93002 16.0014 8.93002C15.844 8.93002 15.696 8.90869 15.5574 8.86602C15.4187 8.82069 15.2974 8.75402 15.1934 8.66602C15.092 8.57802 15.0107 8.46736 14.9494 8.33402C14.8907 8.19802 14.8614 8.03802 14.8614 7.85402C14.8614 7.69402 14.9054 7.54069 14.9934 7.39402C15.0814 7.24469 15.224 7.11269 15.4214 6.99802C15.6187 6.88336 15.876 6.79002 16.1934 6.71802C16.5107 6.64336 16.9 6.60069 17.3614 6.59002V6.27402C17.3614 5.95936 17.2934 5.72202 17.1574 5.56202C17.0214 5.39936 16.8227 5.31802 16.5614 5.31802C16.3854 5.31802 16.2374 5.34069 16.1174 5.38602C16 5.42869 15.8974 5.47802 15.8094 5.53402C15.724 5.58736 15.6494 5.63669 15.5854 5.68202C15.524 5.72469 15.4627 5.74602 15.4014 5.74602C15.3534 5.74602 15.312 5.73402 15.2774 5.71002C15.2427 5.68336 15.2134 5.65136 15.1894 5.61402L15.0614 5.38602Z" fill="white"/>
<path d="M22.528 4.81402L20.876 8.86602H20.236L18.584 4.81402H19.164C19.2226 4.81402 19.2706 4.82869 19.308 4.85802C19.3453 4.88736 19.3706 4.92202 19.384 4.96202L20.412 7.57002C20.444 7.66869 20.472 7.76469 20.496 7.85802C20.52 7.95136 20.5426 8.04469 20.564 8.13802C20.5853 8.04469 20.608 7.95136 20.632 7.85802C20.656 7.76469 20.6853 7.66869 20.72 7.57002L21.76 4.96202C21.776 4.91936 21.8026 4.88469 21.84 4.85802C21.8773 4.82869 21.9213 4.81402 21.972 4.81402H22.528Z" fill="white"/>
<path d="M25.7836 6.39802C25.7836 6.23269 25.7596 6.08202 25.7116 5.94602C25.6663 5.80736 25.5983 5.68869 25.5076 5.59002C25.4196 5.48869 25.3116 5.41136 25.1836 5.35802C25.0556 5.30202 24.9103 5.27402 24.7476 5.27402C24.4063 5.27402 24.1356 5.37402 23.9356 5.57402C23.7383 5.77136 23.6156 6.04602 23.5676 6.39802H25.7836ZM26.3596 8.29802C26.2716 8.40469 26.1663 8.49802 26.0436 8.57802C25.9209 8.65536 25.7889 8.71936 25.6476 8.77002C25.5089 8.82069 25.3649 8.85802 25.2156 8.88202C25.0663 8.90869 24.9183 8.92202 24.7716 8.92202C24.4916 8.92202 24.2329 8.87536 23.9956 8.78202C23.7609 8.68602 23.5569 8.54736 23.3836 8.36602C23.2129 8.18202 23.0796 7.95536 22.9836 7.68602C22.8876 7.41669 22.8396 7.10736 22.8396 6.75802C22.8396 6.47536 22.8823 6.21136 22.9676 5.96602C23.0556 5.72069 23.1809 5.50869 23.3436 5.33002C23.5063 5.14869 23.7049 5.00736 23.9396 4.90602C24.1743 4.80202 24.4383 4.75002 24.7316 4.75002C24.9743 4.75002 25.1983 4.79136 25.4036 4.87402C25.6116 4.95402 25.7903 5.07136 25.9396 5.22602C26.0916 5.37802 26.2103 5.56736 26.2956 5.79402C26.3809 6.01802 26.4236 6.27402 26.4236 6.56202C26.4236 6.67402 26.4116 6.74869 26.3876 6.78602C26.3636 6.82336 26.3183 6.84202 26.2516 6.84202H23.5436C23.5516 7.09802 23.5863 7.32069 23.6476 7.51002C23.7116 7.69936 23.7996 7.85802 23.9116 7.98602C24.0236 8.11136 24.1569 8.20602 24.3116 8.27002C24.4663 8.33136 24.6396 8.36202 24.8316 8.36202C25.0103 8.36202 25.1636 8.34202 25.2916 8.30202C25.4223 8.25936 25.5343 8.21402 25.6276 8.16602C25.7209 8.11802 25.7983 8.07402 25.8596 8.03402C25.9236 7.99136 25.9783 7.97002 26.0236 7.97002C26.0823 7.97002 26.1276 7.99269 26.1596 8.03802L26.3596 8.29802Z" fill="white"/>
<rect y="0.5" width="37" height="11" fill="white" fill-opacity="0.1"/>
</g>
<defs>
<clipPath id="clip0_134_638">
<rect width="37" height="12" fill="white"/>
</clipPath>
</defs>
</svg>
