<svg width="31" height="24" viewBox="0 0 31 24" fill="none" xmlns="http://www.w3.org/2000/svg">
<g clip-path="url(#clip0_140_1534)">
<rect y="0.5" width="31" height="11" fill="white" fill-opacity="0.2"/>
<rect y="12.5" width="31" height="11" fill="white" fill-opacity="0.2"/>
<path d="M12.0422 3.15802L9.70619 8.89002H9.01019L6.67419 3.15802H7.29419C7.36353 3.15802 7.41953 3.17535 7.46219 3.21002C7.50486 3.24468 7.53686 3.28868 7.55819 3.34202L9.17419 7.38602C9.20886 7.47668 9.24219 7.57535 9.27419 7.68202C9.30886 7.78868 9.33953 7.90068 9.36619 8.01802C9.39286 7.90068 9.42086 7.78868 9.45019 7.68202C9.47953 7.57535 9.51153 7.47668 9.54619 7.38602L11.1582 3.34202C11.1742 3.29668 11.2049 3.25535 11.2502 3.21802C11.2982 3.17802 11.3555 3.15802 11.4222 3.15802H12.0422Z" fill="white"/>
<path d="M13.3803 4.83802V8.89002H12.6683V4.83802H13.3803ZM13.5323 3.56602C13.5323 3.63535 13.5176 3.70068 13.4883 3.76202C13.4616 3.82068 13.4243 3.87402 13.3763 3.92202C13.3309 3.96735 13.2763 4.00335 13.2123 4.03002C13.1509 4.05668 13.0856 4.07002 13.0163 4.07002C12.9469 4.07002 12.8816 4.05668 12.8203 4.03002C12.7616 4.00335 12.7096 3.96735 12.6643 3.92202C12.6189 3.87402 12.5829 3.82068 12.5563 3.76202C12.5296 3.70068 12.5163 3.63535 12.5163 3.56602C12.5163 3.49668 12.5296 3.43135 12.5563 3.37002C12.5829 3.30602 12.6189 3.25135 12.6643 3.20602C12.7096 3.15802 12.7616 3.12068 12.8203 3.09402C12.8816 3.06735 12.9469 3.05402 13.0163 3.05402C13.0856 3.05402 13.1509 3.06735 13.2123 3.09402C13.2763 3.12068 13.3309 3.15802 13.3763 3.20602C13.4243 3.25135 13.4616 3.30602 13.4883 3.37002C13.5176 3.43135 13.5323 3.49668 13.5323 3.56602Z" fill="white"/>
<path d="M17.2621 6.42202C17.2621 6.25668 17.2381 6.10602 17.1901 5.97002C17.1448 5.83135 17.0768 5.71268 16.9861 5.61402C16.8981 5.51268 16.7901 5.43535 16.6621 5.38202C16.5341 5.32602 16.3888 5.29802 16.2261 5.29802C15.8848 5.29802 15.6141 5.39802 15.4141 5.59802C15.2168 5.79535 15.0941 6.07002 15.0461 6.42202H17.2621ZM17.8381 8.32202C17.7501 8.42868 17.6448 8.52202 17.5221 8.60202C17.3995 8.67935 17.2675 8.74335 17.1261 8.79402C16.9875 8.84468 16.8435 8.88202 16.6941 8.90602C16.5448 8.93268 16.3968 8.94602 16.2501 8.94602C15.9701 8.94602 15.7115 8.89935 15.4741 8.80602C15.2395 8.71002 15.0355 8.57135 14.8621 8.39002C14.6915 8.20602 14.5581 7.97935 14.4621 7.71002C14.3661 7.44068 14.3181 7.13135 14.3181 6.78202C14.3181 6.49935 14.3608 6.23535 14.4461 5.99002C14.5341 5.74468 14.6595 5.53268 14.8221 5.35402C14.9848 5.17268 15.1835 5.03135 15.4181 4.93002C15.6528 4.82602 15.9168 4.77402 16.2101 4.77402C16.4528 4.77402 16.6768 4.81535 16.8821 4.89802C17.0901 4.97802 17.2688 5.09535 17.4181 5.25002C17.5701 5.40202 17.6888 5.59135 17.7741 5.81802C17.8595 6.04202 17.9021 6.29802 17.9021 6.58602C17.9021 6.69802 17.8901 6.77268 17.8661 6.81002C17.8421 6.84735 17.7968 6.86602 17.7301 6.86602H15.0221C15.0301 7.12202 15.0648 7.34468 15.1261 7.53402C15.1901 7.72335 15.2781 7.88202 15.3901 8.01002C15.5021 8.13535 15.6355 8.23002 15.7901 8.29402C15.9448 8.35535 16.1181 8.38602 16.3101 8.38602C16.4888 8.38602 16.6421 8.36602 16.7701 8.32602C16.9008 8.28335 17.0128 8.23802 17.1061 8.19002C17.1995 8.14202 17.2768 8.09802 17.3381 8.05802C17.4021 8.01535 17.4568 7.99402 17.5021 7.99402C17.5608 7.99402 17.6061 8.01668 17.6381 8.06202L17.8381 8.32202Z" fill="white"/>
<path d="M24.3256 4.83802L23.0136 8.89002H22.4496C22.3803 8.89002 22.3323 8.84468 22.3056 8.75402L21.4096 6.00602C21.3883 5.94468 21.371 5.88335 21.3576 5.82202C21.3443 5.75802 21.331 5.69535 21.3176 5.63402C21.3043 5.69535 21.291 5.75802 21.2776 5.82202C21.2643 5.88335 21.247 5.94602 21.2256 6.01002L20.3136 8.75402C20.2896 8.84468 20.2363 8.89002 20.1536 8.89002H19.6176L18.3056 4.83802H18.8656C18.9216 4.83802 18.9683 4.85268 19.0056 4.88202C19.0456 4.91135 19.0723 4.94602 19.0856 4.98602L19.8616 7.59402C19.907 7.78602 19.943 7.96735 19.9696 8.13802C19.9936 8.05002 20.0176 7.96068 20.0416 7.87002C20.0683 7.77935 20.0963 7.68735 20.1256 7.59402L20.9816 4.97002C20.995 4.93002 21.0176 4.89668 21.0496 4.87002C21.0843 4.84335 21.1256 4.83002 21.1736 4.83002H21.4856C21.539 4.83002 21.583 4.84335 21.6176 4.87002C21.6523 4.89668 21.6763 4.93002 21.6896 4.97002L22.5256 7.59402C22.555 7.68735 22.5816 7.77935 22.6056 7.87002C22.6296 7.96068 22.6523 8.05002 22.6736 8.13802C22.687 8.05002 22.703 7.96202 22.7216 7.87402C22.743 7.78335 22.7656 7.69002 22.7896 7.59402L23.5816 4.98602C23.595 4.94335 23.6203 4.90868 23.6576 4.88202C23.695 4.85268 23.739 4.83802 23.7896 4.83802H24.3256Z" fill="white"/>
<path d="M12.0422 15.158L9.70619 20.89H9.01019L6.67419 15.158H7.29419C7.36353 15.158 7.41953 15.1753 7.46219 15.21C7.50486 15.2447 7.53686 15.2887 7.55819 15.342L9.17419 19.386C9.20886 19.4767 9.24219 19.5753 9.27419 19.682C9.30886 19.7887 9.33953 19.9007 9.36619 20.018C9.39286 19.9007 9.42086 19.7887 9.45019 19.682C9.47953 19.5753 9.51153 19.4767 9.54619 19.386L11.1582 15.342C11.1742 15.2967 11.2049 15.2553 11.2502 15.218C11.2982 15.178 11.3555 15.158 11.4222 15.158H12.0422Z" fill="white"/>
<path d="M13.3803 16.838V20.89H12.6683V16.838H13.3803ZM13.5323 15.566C13.5323 15.6353 13.5176 15.7007 13.4883 15.762C13.4616 15.8207 13.4243 15.874 13.3763 15.922C13.3309 15.9673 13.2763 16.0033 13.2123 16.03C13.1509 16.0567 13.0856 16.07 13.0163 16.07C12.9469 16.07 12.8816 16.0567 12.8203 16.03C12.7616 16.0033 12.7096 15.9673 12.6643 15.922C12.6189 15.874 12.5829 15.8207 12.5563 15.762C12.5296 15.7007 12.5163 15.6353 12.5163 15.566C12.5163 15.4967 12.5296 15.4313 12.5563 15.37C12.5829 15.306 12.6189 15.2513 12.6643 15.206C12.7096 15.158 12.7616 15.1207 12.8203 15.094C12.8816 15.0673 12.9469 15.054 13.0163 15.054C13.0856 15.054 13.1509 15.0673 13.2123 15.094C13.2763 15.1207 13.3309 15.158 13.3763 15.206C13.4243 15.2513 13.4616 15.306 13.4883 15.37C13.5176 15.4313 13.5323 15.4967 13.5323 15.566Z" fill="white"/>
<path d="M17.2621 18.422C17.2621 18.2567 17.2381 18.106 17.1901 17.97C17.1448 17.8313 17.0768 17.7127 16.9861 17.614C16.8981 17.5127 16.7901 17.4353 16.6621 17.382C16.5341 17.326 16.3888 17.298 16.2261 17.298C15.8848 17.298 15.6141 17.398 15.4141 17.598C15.2168 17.7953 15.0941 18.07 15.0461 18.422H17.2621ZM17.8381 20.322C17.7501 20.4287 17.6448 20.522 17.5221 20.602C17.3995 20.6793 17.2675 20.7433 17.1261 20.794C16.9875 20.8447 16.8435 20.882 16.6941 20.906C16.5448 20.9327 16.3968 20.946 16.2501 20.946C15.9701 20.946 15.7115 20.8993 15.4741 20.806C15.2395 20.71 15.0355 20.5714 14.8621 20.39C14.6915 20.206 14.5581 19.9793 14.4621 19.71C14.3661 19.4407 14.3181 19.1313 14.3181 18.782C14.3181 18.4993 14.3608 18.2353 14.4461 17.99C14.5341 17.7447 14.6595 17.5327 14.8221 17.354C14.9848 17.1727 15.1835 17.0313 15.4181 16.93C15.6528 16.826 15.9168 16.774 16.2101 16.774C16.4528 16.774 16.6768 16.8153 16.8821 16.898C17.0901 16.978 17.2688 17.0953 17.4181 17.25C17.5701 17.402 17.6888 17.5913 17.7741 17.818C17.8595 18.042 17.9021 18.298 17.9021 18.586C17.9021 18.698 17.8901 18.7727 17.8661 18.81C17.8421 18.8473 17.7968 18.866 17.7301 18.866H15.0221C15.0301 19.122 15.0648 19.3447 15.1261 19.534C15.1901 19.7234 15.2781 19.882 15.3901 20.01C15.5021 20.1353 15.6355 20.23 15.7901 20.294C15.9448 20.3553 16.1181 20.386 16.3101 20.386C16.4888 20.386 16.6421 20.366 16.7701 20.326C16.9008 20.2833 17.0128 20.238 17.1061 20.19C17.1995 20.142 17.2768 20.098 17.3381 20.058C17.4021 20.0154 17.4568 19.994 17.5021 19.994C17.5608 19.994 17.6061 20.0167 17.6381 20.062L17.8381 20.322Z" fill="white"/>
<path d="M24.3256 16.838L23.0136 20.89H22.4496C22.3803 20.89 22.3323 20.8447 22.3056 20.754L21.4096 18.006C21.3883 17.9447 21.371 17.8833 21.3576 17.822C21.3443 17.758 21.331 17.6953 21.3176 17.634C21.3043 17.6953 21.291 17.758 21.2776 17.822C21.2643 17.8833 21.247 17.946 21.2256 18.01L20.3136 20.754C20.2896 20.8447 20.2363 20.89 20.1536 20.89H19.6176L18.3056 16.838H18.8656C18.9216 16.838 18.9683 16.8527 19.0056 16.882C19.0456 16.9113 19.0723 16.946 19.0856 16.986L19.8616 19.594C19.907 19.786 19.943 19.9674 19.9696 20.138C19.9936 20.05 20.0176 19.9607 20.0416 19.87C20.0683 19.7793 20.0963 19.6873 20.1256 19.594L20.9816 16.97C20.995 16.93 21.0176 16.8967 21.0496 16.87C21.0843 16.8433 21.1256 16.83 21.1736 16.83H21.4856C21.539 16.83 21.583 16.8433 21.6176 16.87C21.6523 16.8967 21.6763 16.93 21.6896 16.97L22.5256 19.594C22.555 19.6873 22.5816 19.7793 22.6056 19.87C22.6296 19.9607 22.6523 20.05 22.6736 20.138C22.687 20.05 22.703 19.962 22.7216 19.874C22.743 19.7833 22.7656 19.69 22.7896 19.594L23.5816 16.986C23.595 16.9433 23.6203 16.9087 23.6576 16.882C23.695 16.8527 23.739 16.838 23.7896 16.838H24.3256Z" fill="white"/>
</g>
<defs>
<clipPath id="clip0_140_1534">
<rect width="31" height="24" fill="white"/>
</clipPath>
</defs>
</svg>
