<svg width="135" height="108" viewBox="0 0 135 108" fill="none" xmlns="http://www.w3.org/2000/svg">
<rect y="1" width="34.1264" height="25" fill="white" fill-opacity="0.2"/>
<rect x="33.6245" y="28" width="34.1264" height="25" fill="white" fill-opacity="0.2"/>
<rect x="67.2491" y="55" width="34.1264" height="25" fill="white" fill-opacity="0.2"/>
<rect x="100.874" y="82" width="34.1264" height="25" fill="white" fill-opacity="0.2"/>
<path d="M12.623 10.606V16.338H12.235C12.1737 16.338 12.1217 16.3274 12.079 16.306C12.039 16.2847 11.999 16.2487 11.959 16.198L8.643 11.878C8.64834 11.9447 8.65234 12.01 8.655 12.074C8.65767 12.138 8.659 12.198 8.659 12.254V16.338H7.979V10.606H8.379C8.41367 10.606 8.443 10.6087 8.467 10.614C8.491 10.6167 8.51234 10.6234 8.531 10.634C8.54967 10.642 8.56834 10.6554 8.587 10.674C8.60567 10.69 8.62567 10.7114 8.647 10.738L11.963 15.054C11.9577 14.9847 11.9523 14.918 11.947 14.854C11.9443 14.7874 11.943 14.7247 11.943 14.666V10.606H12.623Z" fill="white"/>
<path d="M15.5034 12.222C15.7994 12.222 16.066 12.2714 16.3034 12.37C16.5407 12.4687 16.7434 12.6087 16.9114 12.79C17.0794 12.9714 17.2074 13.1914 17.2954 13.45C17.386 13.706 17.4314 13.9927 17.4314 14.31C17.4314 14.63 17.386 14.918 17.2954 15.174C17.2074 15.43 17.0794 15.6487 16.9114 15.83C16.7434 16.0114 16.5407 16.1514 16.3034 16.25C16.066 16.346 15.7994 16.394 15.5034 16.394C15.2047 16.394 14.9354 16.346 14.6954 16.25C14.458 16.1514 14.2554 16.0114 14.0874 15.83C13.9194 15.6487 13.79 15.43 13.6994 15.174C13.6114 14.918 13.5674 14.63 13.5674 14.31C13.5674 13.9927 13.6114 13.706 13.6994 13.45C13.79 13.1914 13.9194 12.9714 14.0874 12.79C14.2554 12.6087 14.458 12.4687 14.6954 12.37C14.9354 12.2714 15.2047 12.222 15.5034 12.222ZM15.5034 15.838C15.9034 15.838 16.202 15.7047 16.3994 15.438C16.5967 15.1687 16.6954 14.794 16.6954 14.314C16.6954 13.8314 16.5967 13.4554 16.3994 13.186C16.202 12.9167 15.9034 12.782 15.5034 12.782C15.3007 12.782 15.1234 12.8167 14.9714 12.886C14.822 12.9554 14.6967 13.0554 14.5954 13.186C14.4967 13.3167 14.422 13.478 14.3714 13.67C14.3234 13.8594 14.2994 14.074 14.2994 14.314C14.2994 14.794 14.398 15.1687 14.5954 15.438C14.7954 15.7047 15.098 15.838 15.5034 15.838Z" fill="white"/>
<path d="M19.0064 12.874C19.0944 12.7754 19.1878 12.686 19.2864 12.606C19.3851 12.526 19.4891 12.458 19.5984 12.402C19.7104 12.3434 19.8278 12.2994 19.9504 12.27C20.0758 12.238 20.2104 12.222 20.3544 12.222C20.5758 12.222 20.7704 12.2594 20.9384 12.334C21.1091 12.406 21.2504 12.51 21.3624 12.646C21.4771 12.7794 21.5638 12.9407 21.6224 13.13C21.6811 13.3194 21.7104 13.5287 21.7104 13.758V16.338H20.9944V13.758C20.9944 13.4514 20.9238 13.214 20.7824 13.046C20.6438 12.8754 20.4318 12.79 20.1464 12.79C19.9358 12.79 19.7384 12.8407 19.5544 12.942C19.3731 13.0434 19.2051 13.1807 19.0504 13.354V16.338H18.3344V12.286H18.7624C18.8638 12.286 18.9264 12.3354 18.9504 12.434L19.0064 12.874Z" fill="white"/>
<path d="M25.5074 13.87C25.5074 13.7047 25.4834 13.554 25.4354 13.418C25.39 13.2794 25.322 13.1607 25.2314 13.062C25.1434 12.9607 25.0354 12.8834 24.9074 12.83C24.7794 12.774 24.634 12.746 24.4714 12.746C24.13 12.746 23.8594 12.846 23.6594 13.046C23.462 13.2434 23.3394 13.518 23.2914 13.87H25.5074ZM26.0834 15.77C25.9954 15.8767 25.89 15.97 25.7674 16.05C25.6447 16.1274 25.5127 16.1914 25.3714 16.242C25.2327 16.2927 25.0887 16.33 24.9394 16.354C24.79 16.3807 24.642 16.394 24.4954 16.394C24.2154 16.394 23.9567 16.3474 23.7194 16.254C23.4847 16.158 23.2807 16.0194 23.1074 15.838C22.9367 15.654 22.8034 15.4274 22.7074 15.158C22.6114 14.8887 22.5634 14.5794 22.5634 14.23C22.5634 13.9474 22.606 13.6834 22.6914 13.438C22.7794 13.1927 22.9047 12.9807 23.0674 12.802C23.23 12.6207 23.4287 12.4794 23.6634 12.378C23.898 12.274 24.162 12.222 24.4554 12.222C24.698 12.222 24.922 12.2634 25.1274 12.346C25.3354 12.426 25.514 12.5434 25.6634 12.698C25.8154 12.85 25.934 13.0394 26.0194 13.266C26.1047 13.49 26.1474 13.746 26.1474 14.034C26.1474 14.146 26.1354 14.2207 26.1114 14.258C26.0874 14.2954 26.042 14.314 25.9754 14.314H23.2674C23.2754 14.57 23.31 14.7927 23.3714 14.982C23.4354 15.1714 23.5234 15.33 23.6354 15.458C23.7474 15.5834 23.8807 15.678 24.0354 15.742C24.19 15.8034 24.3634 15.834 24.5554 15.834C24.734 15.834 24.8874 15.814 25.0154 15.774C25.146 15.7314 25.258 15.686 25.3514 15.638C25.4447 15.59 25.522 15.546 25.5834 15.506C25.6474 15.4634 25.702 15.442 25.7474 15.442C25.806 15.442 25.8514 15.4647 25.8834 15.51L26.0834 15.77Z" fill="white"/>
<path d="M45.7578 38.578C45.7338 38.618 45.7072 38.6486 45.6778 38.67C45.6512 38.6886 45.6178 38.698 45.5778 38.698C45.5325 38.698 45.4792 38.6753 45.4178 38.63C45.3565 38.5846 45.2792 38.5353 45.1858 38.482C45.0952 38.426 44.9845 38.3753 44.8538 38.33C44.7258 38.2846 44.5698 38.262 44.3858 38.262C44.2125 38.262 44.0592 38.286 43.9258 38.334C43.7952 38.3793 43.6845 38.442 43.5938 38.522C43.5058 38.602 43.4392 38.6966 43.3938 38.806C43.3485 38.9126 43.3258 39.0286 43.3258 39.154C43.3258 39.314 43.3645 39.4473 43.4418 39.554C43.5218 39.658 43.6258 39.7473 43.7538 39.822C43.8845 39.8966 44.0312 39.962 44.1938 40.018C44.3592 40.0713 44.5272 40.1273 44.6978 40.186C44.8712 40.2446 45.0392 40.3113 45.2018 40.386C45.3672 40.458 45.5138 40.55 45.6418 40.662C45.7725 40.774 45.8765 40.9113 45.9538 41.074C46.0338 41.2366 46.0738 41.4366 46.0738 41.674C46.0738 41.9246 46.0312 42.1606 45.9458 42.382C45.8605 42.6006 45.7352 42.7913 45.5698 42.954C45.4072 43.1166 45.2058 43.2446 44.9658 43.338C44.7285 43.4313 44.4578 43.478 44.1538 43.478C43.7805 43.478 43.4418 43.4113 43.1378 43.278C42.8338 43.142 42.5738 42.9593 42.3578 42.73L42.5818 42.362C42.6032 42.3326 42.6285 42.3086 42.6578 42.29C42.6898 42.2686 42.7245 42.258 42.7618 42.258C42.7965 42.258 42.8352 42.2726 42.8778 42.302C42.9232 42.3286 42.9738 42.3633 43.0298 42.406C43.0858 42.4486 43.1498 42.4953 43.2218 42.546C43.2938 42.5966 43.3752 42.6433 43.4658 42.686C43.5592 42.7286 43.6645 42.7646 43.7818 42.794C43.8992 42.8206 44.0312 42.834 44.1778 42.834C44.3618 42.834 44.5258 42.8086 44.6698 42.758C44.8138 42.7073 44.9352 42.6366 45.0338 42.546C45.1352 42.4526 45.2125 42.342 45.2658 42.214C45.3192 42.086 45.3458 41.9433 45.3458 41.786C45.3458 41.6126 45.3058 41.4713 45.2258 41.362C45.1485 41.25 45.0458 41.1566 44.9178 41.082C44.7898 41.0073 44.6432 40.9446 44.4778 40.894C44.3125 40.8406 44.1445 40.7873 43.9738 40.734C43.8032 40.678 43.6352 40.614 43.4698 40.542C43.3045 40.47 43.1578 40.3766 43.0298 40.262C42.9018 40.1473 42.7978 40.0046 42.7178 39.834C42.6405 39.6606 42.6018 39.4473 42.6018 39.194C42.6018 38.9913 42.6405 38.7953 42.7178 38.606C42.7978 38.4166 42.9125 38.2486 43.0618 38.102C43.2138 37.9553 43.3992 37.838 43.6178 37.75C43.8392 37.662 44.0925 37.618 44.3778 37.618C44.6978 37.618 44.9885 37.6686 45.2498 37.77C45.5138 37.8713 45.7458 38.018 45.9458 38.21L45.7578 38.578Z" fill="white"/>
<path d="M49.6902 40.946C49.6902 40.7806 49.6662 40.63 49.6182 40.494C49.5728 40.3553 49.5048 40.2366 49.4142 40.138C49.3262 40.0366 49.2182 39.9593 49.0902 39.906C48.9622 39.85 48.8168 39.822 48.6542 39.822C48.3128 39.822 48.0422 39.922 47.8422 40.122C47.6448 40.3193 47.5222 40.594 47.4742 40.946H49.6902ZM50.2662 42.846C50.1782 42.9526 50.0728 43.046 49.9502 43.126C49.8275 43.2033 49.6955 43.2673 49.5542 43.318C49.4155 43.3686 49.2715 43.406 49.1222 43.43C48.9728 43.4566 48.8248 43.47 48.6782 43.47C48.3982 43.47 48.1395 43.4233 47.9022 43.33C47.6675 43.234 47.4635 43.0953 47.2902 42.914C47.1195 42.73 46.9862 42.5033 46.8902 42.234C46.7942 41.9646 46.7462 41.6553 46.7462 41.306C46.7462 41.0233 46.7888 40.7593 46.8742 40.514C46.9622 40.2686 47.0875 40.0566 47.2502 39.878C47.4128 39.6966 47.6115 39.5553 47.8462 39.454C48.0808 39.35 48.3448 39.298 48.6382 39.298C48.8808 39.298 49.1048 39.3393 49.3102 39.422C49.5182 39.502 49.6968 39.6193 49.8462 39.774C49.9982 39.926 50.1168 40.1153 50.2022 40.342C50.2875 40.566 50.3302 40.822 50.3302 41.11C50.3302 41.222 50.3182 41.2966 50.2942 41.334C50.2702 41.3713 50.2248 41.39 50.1582 41.39H47.4502C47.4582 41.646 47.4928 41.8686 47.5542 42.058C47.6182 42.2473 47.7062 42.406 47.8182 42.534C47.9302 42.6593 48.0635 42.754 48.2182 42.818C48.3728 42.8793 48.5462 42.91 48.7382 42.91C48.9168 42.91 49.0702 42.89 49.1982 42.85C49.3288 42.8073 49.4408 42.762 49.5342 42.714C49.6275 42.666 49.7048 42.622 49.7662 42.582C49.8302 42.5393 49.8848 42.518 49.9302 42.518C49.9888 42.518 50.0342 42.5406 50.0662 42.586L50.2662 42.846Z" fill="white"/>
<path d="M51.8767 39.95C51.9647 39.8513 52.0581 39.762 52.1567 39.682C52.2554 39.602 52.3594 39.534 52.4687 39.478C52.5807 39.4193 52.6981 39.3753 52.8207 39.346C52.9461 39.314 53.0807 39.298 53.2247 39.298C53.4461 39.298 53.6407 39.3353 53.8087 39.41C53.9794 39.482 54.1207 39.586 54.2327 39.722C54.3474 39.8553 54.4341 40.0166 54.4927 40.206C54.5514 40.3953 54.5807 40.6046 54.5807 40.834V43.414H53.8647V40.834C53.8647 40.5273 53.7941 40.29 53.6527 40.122C53.5141 39.9513 53.3021 39.866 53.0167 39.866C52.8061 39.866 52.6087 39.9166 52.4247 40.018C52.2434 40.1193 52.0754 40.2566 51.9207 40.43V43.414H51.2047V39.362H51.6327C51.7341 39.362 51.7967 39.4113 51.8207 39.51L51.8767 39.95Z" fill="white"/>
<path d="M58.3057 40.326C58.1723 40.1473 58.0283 40.0233 57.8737 39.954C57.719 39.882 57.5457 39.846 57.3537 39.846C56.9777 39.846 56.6883 39.9806 56.4857 40.25C56.283 40.5193 56.1817 40.9033 56.1817 41.402C56.1817 41.666 56.2043 41.8926 56.2497 42.082C56.295 42.2686 56.3617 42.4233 56.4497 42.546C56.5377 42.666 56.6457 42.754 56.7737 42.81C56.9017 42.866 57.047 42.894 57.2097 42.894C57.4443 42.894 57.6483 42.8406 57.8217 42.734C57.9977 42.6273 58.159 42.4766 58.3057 42.282V40.326ZM59.0177 37.522V43.414H58.5937C58.4923 43.414 58.4283 43.3646 58.4017 43.266L58.3377 42.774C58.1643 42.982 57.967 43.15 57.7457 43.278C57.5243 43.406 57.2683 43.47 56.9777 43.47C56.7457 43.47 56.535 43.426 56.3457 43.338C56.1563 43.2473 55.995 43.1153 55.8617 42.942C55.7283 42.7686 55.6257 42.5526 55.5537 42.294C55.4817 42.0353 55.4457 41.738 55.4457 41.402C55.4457 41.1033 55.4857 40.826 55.5657 40.57C55.6457 40.3113 55.7603 40.0873 55.9097 39.898C56.059 39.7086 56.2417 39.5606 56.4577 39.454C56.6763 39.3446 56.9217 39.29 57.1937 39.29C57.4417 39.29 57.6537 39.3326 57.8297 39.418C58.0083 39.5006 58.167 39.6166 58.3057 39.766V37.522H59.0177Z" fill="white"/>
<path d="M75.2646 60.578C75.2406 60.618 75.214 60.6487 75.1846 60.67C75.158 60.6887 75.1246 60.698 75.0846 60.698C75.0393 60.698 74.986 60.6754 74.9246 60.63C74.8633 60.5847 74.786 60.5354 74.6926 60.482C74.602 60.426 74.4913 60.3754 74.3606 60.33C74.2326 60.2847 74.0766 60.262 73.8926 60.262C73.7193 60.262 73.566 60.286 73.4326 60.334C73.302 60.3794 73.1913 60.442 73.1006 60.522C73.0126 60.602 72.946 60.6967 72.9006 60.806C72.8553 60.9127 72.8326 61.0287 72.8326 61.154C72.8326 61.314 72.8713 61.4474 72.9486 61.554C73.0286 61.658 73.1326 61.7474 73.2606 61.822C73.3913 61.8967 73.538 61.962 73.7006 62.018C73.866 62.0714 74.034 62.1274 74.2046 62.186C74.378 62.2447 74.546 62.3114 74.7086 62.386C74.874 62.458 75.0206 62.55 75.1486 62.662C75.2793 62.774 75.3833 62.9114 75.4606 63.074C75.5406 63.2367 75.5806 63.4367 75.5806 63.674C75.5806 63.9247 75.538 64.1607 75.4526 64.382C75.3673 64.6007 75.242 64.7914 75.0766 64.954C74.914 65.1167 74.7126 65.2447 74.4726 65.338C74.2353 65.4314 73.9646 65.478 73.6606 65.478C73.2873 65.478 72.9486 65.4114 72.6446 65.278C72.3406 65.142 72.0806 64.9594 71.8646 64.73L72.0886 64.362C72.11 64.3327 72.1353 64.3087 72.1646 64.29C72.1966 64.2687 72.2313 64.258 72.2686 64.258C72.3033 64.258 72.342 64.2727 72.3846 64.302C72.43 64.3287 72.4806 64.3634 72.5366 64.406C72.5926 64.4487 72.6566 64.4954 72.7286 64.546C72.8006 64.5967 72.882 64.6434 72.9726 64.686C73.066 64.7287 73.1713 64.7647 73.2886 64.794C73.406 64.8207 73.538 64.834 73.6846 64.834C73.8686 64.834 74.0326 64.8087 74.1766 64.758C74.3206 64.7074 74.442 64.6367 74.5406 64.546C74.642 64.4527 74.7193 64.342 74.7726 64.214C74.826 64.086 74.8526 63.9434 74.8526 63.786C74.8526 63.6127 74.8126 63.4714 74.7326 63.362C74.6553 63.25 74.5526 63.1567 74.4246 63.082C74.2966 63.0074 74.15 62.9447 73.9846 62.894C73.8193 62.8407 73.6513 62.7874 73.4806 62.734C73.31 62.678 73.142 62.614 72.9766 62.542C72.8113 62.47 72.6646 62.3767 72.5366 62.262C72.4086 62.1474 72.3046 62.0047 72.2246 61.834C72.1473 61.6607 72.1086 61.4474 72.1086 61.194C72.1086 60.9914 72.1473 60.7954 72.2246 60.606C72.3046 60.4167 72.4193 60.2487 72.5686 60.102C72.7206 59.9554 72.906 59.838 73.1246 59.75C73.346 59.662 73.5993 59.618 73.8846 59.618C74.2046 59.618 74.4953 59.6687 74.7566 59.77C75.0206 59.8714 75.2526 60.018 75.4526 60.21L75.2646 60.578Z" fill="white"/>
<path d="M79.1969 62.946C79.1969 62.7807 79.1729 62.63 79.1249 62.494C79.0796 62.3554 79.0116 62.2367 78.9209 62.138C78.8329 62.0367 78.7249 61.9594 78.5969 61.906C78.4689 61.85 78.3236 61.822 78.1609 61.822C77.8196 61.822 77.5489 61.922 77.3489 62.122C77.1516 62.3194 77.0289 62.594 76.9809 62.946H79.1969ZM79.7729 64.846C79.6849 64.9527 79.5796 65.046 79.4569 65.126C79.3343 65.2034 79.2023 65.2674 79.0609 65.318C78.9223 65.3687 78.7783 65.406 78.6289 65.43C78.4796 65.4567 78.3316 65.47 78.1849 65.47C77.9049 65.47 77.6463 65.4234 77.4089 65.33C77.1743 65.234 76.9703 65.0954 76.7969 64.914C76.6263 64.73 76.4929 64.5034 76.3969 64.234C76.3009 63.9647 76.2529 63.6554 76.2529 63.306C76.2529 63.0234 76.2956 62.7594 76.3809 62.514C76.4689 62.2687 76.5943 62.0567 76.7569 61.878C76.9196 61.6967 77.1183 61.5554 77.3529 61.454C77.5876 61.35 77.8516 61.298 78.1449 61.298C78.3876 61.298 78.6116 61.3394 78.8169 61.422C79.0249 61.502 79.2036 61.6194 79.3529 61.774C79.5049 61.926 79.6236 62.1154 79.7089 62.342C79.7943 62.566 79.8369 62.822 79.8369 63.11C79.8369 63.222 79.8249 63.2967 79.8009 63.334C79.7769 63.3714 79.7316 63.39 79.6649 63.39H76.9569C76.9649 63.646 76.9996 63.8687 77.0609 64.058C77.1249 64.2474 77.2129 64.406 77.3249 64.534C77.4369 64.6594 77.5703 64.754 77.7249 64.818C77.8796 64.8794 78.0529 64.91 78.2449 64.91C78.4236 64.91 78.5769 64.89 78.7049 64.85C78.8356 64.8074 78.9476 64.762 79.0409 64.714C79.1343 64.666 79.2116 64.622 79.2729 64.582C79.3369 64.5394 79.3916 64.518 79.4369 64.518C79.4956 64.518 79.5409 64.5407 79.5729 64.586L79.7729 64.846Z" fill="white"/>
<path d="M81.3835 61.95C81.4715 61.8514 81.5648 61.762 81.6635 61.682C81.7622 61.602 81.8662 61.534 81.9755 61.478C82.0875 61.4194 82.2048 61.3754 82.3275 61.346C82.4528 61.314 82.5875 61.298 82.7315 61.298C82.9528 61.298 83.1475 61.3354 83.3155 61.41C83.4862 61.482 83.6275 61.586 83.7395 61.722C83.8542 61.8554 83.9408 62.0167 83.9995 62.206C84.0582 62.3954 84.0875 62.6047 84.0875 62.834V65.414H83.3715V62.834C83.3715 62.5274 83.3008 62.29 83.1595 62.122C83.0208 61.9514 82.8088 61.866 82.5235 61.866C82.3128 61.866 82.1155 61.9167 81.9315 62.018C81.7502 62.1194 81.5822 62.2567 81.4275 62.43V65.414H80.7115V61.362H81.1395C81.2408 61.362 81.3035 61.4114 81.3275 61.51L81.3835 61.95Z" fill="white"/>
<path d="M87.8124 62.326C87.6791 62.1474 87.5351 62.0234 87.3804 61.954C87.2258 61.882 87.0524 61.846 86.8604 61.846C86.4844 61.846 86.1951 61.9807 85.9924 62.25C85.7898 62.5194 85.6884 62.9034 85.6884 63.402C85.6884 63.666 85.7111 63.8927 85.7564 64.082C85.8018 64.2687 85.8684 64.4234 85.9564 64.546C86.0444 64.666 86.1524 64.754 86.2804 64.81C86.4084 64.866 86.5538 64.894 86.7164 64.894C86.9511 64.894 87.1551 64.8407 87.3284 64.734C87.5044 64.6274 87.6658 64.4767 87.8124 64.282V62.326ZM88.5244 59.522V65.414H88.1004C87.9991 65.414 87.9351 65.3647 87.9084 65.266L87.8444 64.774C87.6711 64.982 87.4738 65.15 87.2524 65.278C87.0311 65.406 86.7751 65.47 86.4844 65.47C86.2524 65.47 86.0418 65.426 85.8524 65.338C85.6631 65.2474 85.5018 65.1154 85.3684 64.942C85.2351 64.7687 85.1324 64.5527 85.0604 64.294C84.9884 64.0354 84.9524 63.738 84.9524 63.402C84.9524 63.1034 84.9924 62.826 85.0724 62.57C85.1524 62.3114 85.2671 62.0874 85.4164 61.898C85.5658 61.7087 85.7484 61.5607 85.9644 61.454C86.1831 61.3447 86.4284 61.29 86.7004 61.29C86.9484 61.29 87.1604 61.3327 87.3364 61.418C87.5151 61.5007 87.6738 61.6167 87.8124 61.766V59.522H88.5244Z" fill="white"/>
<path d="M93.0639 62.59C92.7812 62.7394 92.5679 62.9207 92.4239 63.134C92.2825 63.3474 92.2119 63.5794 92.2119 63.83C92.2119 64.0034 92.2439 64.1567 92.3079 64.29C92.3719 64.4207 92.4559 64.5314 92.5599 64.622C92.6639 64.7127 92.7825 64.782 92.9159 64.83C93.0492 64.8754 93.1852 64.898 93.3239 64.898C93.6225 64.898 93.8905 64.8434 94.1279 64.734C94.3679 64.6247 94.5772 64.478 94.7559 64.294L93.0639 62.59ZM96.7599 65.414H96.0679C95.9905 65.414 95.9279 65.4047 95.8799 65.386C95.8319 65.3674 95.7799 65.3287 95.7239 65.27L95.1439 64.686C94.8932 64.9287 94.6039 65.122 94.2759 65.266C93.9505 65.4074 93.5919 65.478 93.1999 65.478C92.9865 65.478 92.7772 65.442 92.5719 65.37C92.3692 65.298 92.1865 65.194 92.0239 65.058C91.8612 64.9194 91.7305 64.7514 91.6319 64.554C91.5332 64.3567 91.4839 64.134 91.4839 63.886C91.4839 63.6994 91.5145 63.5234 91.5759 63.358C91.6399 63.19 91.7279 63.0354 91.8399 62.894C91.9519 62.7527 92.0839 62.626 92.2359 62.514C92.3879 62.402 92.5545 62.306 92.7359 62.226C92.5732 62.018 92.4532 61.818 92.3759 61.626C92.2985 61.4314 92.2599 61.23 92.2599 61.022C92.2599 60.8274 92.2945 60.6447 92.3639 60.474C92.4359 60.3034 92.5385 60.1554 92.6719 60.03C92.8052 59.902 92.9665 59.802 93.1559 59.73C93.3479 59.6554 93.5625 59.618 93.7999 59.618C94.0105 59.618 94.2025 59.6527 94.3759 59.722C94.5492 59.7887 94.6985 59.878 94.8239 59.99C94.9492 60.102 95.0479 60.2327 95.1199 60.382C95.1945 60.5287 95.2372 60.682 95.2479 60.842L94.8039 60.93C94.7159 60.9514 94.6505 60.91 94.6079 60.806C94.5892 60.7367 94.5585 60.6647 94.5159 60.59C94.4759 60.5154 94.4225 60.4474 94.3559 60.386C94.2919 60.3247 94.2132 60.274 94.1199 60.234C94.0292 60.194 93.9225 60.174 93.7999 60.174C93.6665 60.174 93.5452 60.1954 93.4359 60.238C93.3292 60.2807 93.2372 60.3407 93.1599 60.418C93.0852 60.4927 93.0279 60.582 92.9879 60.686C92.9479 60.7874 92.9279 60.898 92.9279 61.018C92.9279 61.1114 92.9385 61.2007 92.9599 61.286C92.9812 61.3714 93.0145 61.458 93.0599 61.546C93.1079 61.634 93.1679 61.7234 93.2399 61.814C93.3119 61.9047 93.3985 62.0007 93.4999 62.102L95.1479 63.778C95.2492 63.5967 95.3305 63.4087 95.3919 63.214C95.4532 63.0167 95.4932 62.8207 95.5119 62.626C95.5172 62.5754 95.5332 62.5354 95.5599 62.506C95.5865 62.4767 95.6239 62.462 95.6719 62.462H96.1079C96.1052 62.7687 96.0572 63.07 95.9639 63.366C95.8705 63.6594 95.7359 63.9354 95.5599 64.194L96.7599 65.414Z" fill="white"/>
<path d="M76.9886 72.658V74.858C76.7006 75.066 76.3926 75.222 76.0646 75.326C75.7393 75.4274 75.382 75.478 74.9926 75.478C74.5313 75.478 74.1153 75.4074 73.7446 75.266C73.374 75.122 73.0566 74.922 72.7926 74.666C72.5313 74.4074 72.33 74.098 72.1886 73.738C72.0473 73.378 71.9766 72.982 71.9766 72.55C71.9766 72.1127 72.0446 71.714 72.1806 71.354C72.3193 70.994 72.5153 70.686 72.7686 70.43C73.022 70.1714 73.33 69.9714 73.6926 69.83C74.0553 69.6887 74.4606 69.618 74.9086 69.618C75.1353 69.618 75.346 69.6354 75.5406 69.67C75.7353 69.702 75.9153 69.75 76.0806 69.814C76.246 69.8754 76.3993 69.9514 76.5406 70.042C76.682 70.13 76.814 70.23 76.9366 70.342L76.7166 70.694C76.682 70.7474 76.6366 70.782 76.5806 70.798C76.5273 70.8114 76.4673 70.798 76.4006 70.758C76.3366 70.7207 76.2633 70.6754 76.1806 70.622C76.098 70.5687 75.9966 70.518 75.8766 70.47C75.7593 70.4194 75.6193 70.3767 75.4566 70.342C75.2966 70.3074 75.106 70.29 74.8846 70.29C74.562 70.29 74.27 70.3434 74.0086 70.45C73.7473 70.554 73.5246 70.7047 73.3406 70.902C73.1566 71.0967 73.0153 71.334 72.9166 71.614C72.818 71.8914 72.7686 72.2034 72.7686 72.55C72.7686 72.91 72.8193 73.2327 72.9206 73.518C73.0246 73.8007 73.1713 74.042 73.3606 74.242C73.5526 74.4394 73.7846 74.59 74.0566 74.694C74.3286 74.798 74.634 74.85 74.9726 74.85C75.2393 74.85 75.4753 74.8207 75.6806 74.762C75.8886 74.7007 76.0913 74.6167 76.2886 74.51V73.25H75.3966C75.346 73.25 75.3046 73.2354 75.2726 73.206C75.2433 73.1767 75.2286 73.1407 75.2286 73.098V72.658H76.9886Z" fill="white"/>
<path d="M78.7053 69.522V75.414H77.9933V69.522H78.7053Z" fill="white"/>
<path d="M81.5679 71.298C81.8639 71.298 82.1306 71.3474 82.3679 71.446C82.6053 71.5447 82.8079 71.6847 82.9759 71.866C83.1439 72.0474 83.2719 72.2674 83.3599 72.526C83.4506 72.782 83.4959 73.0687 83.4959 73.386C83.4959 73.706 83.4506 73.994 83.3599 74.25C83.2719 74.506 83.1439 74.7247 82.9759 74.906C82.8079 75.0874 82.6053 75.2274 82.3679 75.326C82.1306 75.422 81.8639 75.47 81.5679 75.47C81.2693 75.47 80.9999 75.422 80.7599 75.326C80.5226 75.2274 80.3199 75.0874 80.1519 74.906C79.9839 74.7247 79.8546 74.506 79.7639 74.25C79.6759 73.994 79.6319 73.706 79.6319 73.386C79.6319 73.0687 79.6759 72.782 79.7639 72.526C79.8546 72.2674 79.9839 72.0474 80.1519 71.866C80.3199 71.6847 80.5226 71.5447 80.7599 71.446C80.9999 71.3474 81.2693 71.298 81.5679 71.298ZM81.5679 74.914C81.9679 74.914 82.2666 74.7807 82.4639 74.514C82.6613 74.2447 82.7599 73.87 82.7599 73.39C82.7599 72.9074 82.6613 72.5314 82.4639 72.262C82.2666 71.9927 81.9679 71.858 81.5679 71.858C81.3653 71.858 81.1879 71.8927 81.0359 71.962C80.8866 72.0314 80.7613 72.1314 80.6599 72.262C80.5613 72.3927 80.4866 72.554 80.4359 72.746C80.3879 72.9354 80.3639 73.15 80.3639 73.39C80.3639 73.87 80.4626 74.2447 80.6599 74.514C80.8599 74.7807 81.1626 74.914 81.5679 74.914Z" fill="white"/>
<path d="M85.115 74.438C85.2457 74.614 85.3883 74.738 85.543 74.81C85.7003 74.882 85.8723 74.918 86.059 74.918C86.4403 74.918 86.7323 74.7834 86.935 74.514C87.1377 74.2447 87.239 73.8434 87.239 73.31C87.239 72.814 87.1483 72.45 86.967 72.218C86.7883 71.9834 86.5323 71.866 86.199 71.866C85.967 71.866 85.7643 71.9194 85.591 72.026C85.4203 72.1327 85.2617 72.2834 85.115 72.478V74.438ZM85.115 71.946C85.2857 71.7487 85.4777 71.5914 85.691 71.474C85.907 71.3567 86.155 71.298 86.435 71.298C86.6723 71.298 86.8857 71.3434 87.075 71.434C87.267 71.5247 87.4297 71.6567 87.563 71.83C87.6963 72.0007 87.7977 72.2087 87.867 72.454C87.939 72.6994 87.975 72.9754 87.975 73.282C87.975 73.61 87.935 73.9087 87.855 74.178C87.775 74.4474 87.659 74.678 87.507 74.87C87.3577 75.0594 87.175 75.2074 86.959 75.314C86.743 75.418 86.5003 75.47 86.231 75.47C85.9643 75.47 85.739 75.4207 85.555 75.322C85.3737 75.2207 85.215 75.078 85.079 74.894L85.043 75.262C85.0217 75.3634 84.9603 75.414 84.859 75.414H84.399V69.522H85.115V71.946Z" fill="white"/>
<path d="M91.0716 73.59C90.7436 73.6007 90.4636 73.6274 90.2316 73.67C90.0022 73.71 89.8142 73.7634 89.6676 73.83C89.5236 73.8967 89.4182 73.9754 89.3516 74.066C89.2876 74.1567 89.2556 74.258 89.2556 74.37C89.2556 74.4767 89.2729 74.5687 89.3076 74.646C89.3422 74.7234 89.3889 74.7874 89.4476 74.838C89.5089 74.886 89.5796 74.922 89.6596 74.946C89.7422 74.9674 89.8302 74.978 89.9236 74.978C90.0489 74.978 90.1636 74.966 90.2676 74.942C90.3716 74.9154 90.4689 74.878 90.5596 74.83C90.6529 74.782 90.7409 74.7247 90.8236 74.658C90.9089 74.5914 90.9916 74.5154 91.0716 74.43V73.59ZM88.7716 71.934C88.9956 71.718 89.2369 71.5567 89.4956 71.45C89.7542 71.3434 90.0409 71.29 90.3556 71.29C90.5822 71.29 90.7836 71.3274 90.9596 71.402C91.1356 71.4767 91.2836 71.5807 91.4036 71.714C91.5236 71.8474 91.6142 72.0087 91.6756 72.198C91.7369 72.3874 91.7676 72.5954 91.7676 72.822V75.414H91.4516C91.3822 75.414 91.3289 75.4034 91.2916 75.382C91.2542 75.358 91.2249 75.3127 91.2036 75.246L91.1236 74.862C91.0169 74.9607 90.9129 75.0487 90.8116 75.126C90.7102 75.2007 90.6036 75.2647 90.4916 75.318C90.3796 75.3687 90.2596 75.4074 90.1316 75.434C90.0062 75.4634 89.8662 75.478 89.7116 75.478C89.5542 75.478 89.4062 75.4567 89.2676 75.414C89.1289 75.3687 89.0076 75.302 88.9036 75.214C88.8022 75.126 88.7209 75.0154 88.6596 74.882C88.6009 74.746 88.5716 74.586 88.5716 74.402C88.5716 74.242 88.6156 74.0887 88.7036 73.942C88.7916 73.7927 88.9342 73.6607 89.1316 73.546C89.3289 73.4314 89.5862 73.338 89.9036 73.266C90.2209 73.1914 90.6102 73.1487 91.0716 73.138V72.822C91.0716 72.5074 91.0036 72.27 90.8676 72.11C90.7316 71.9474 90.5329 71.866 90.2716 71.866C90.0956 71.866 89.9476 71.8887 89.8276 71.934C89.7102 71.9767 89.6076 72.026 89.5196 72.082C89.4342 72.1354 89.3596 72.1847 89.2956 72.23C89.2342 72.2727 89.1729 72.294 89.1116 72.294C89.0636 72.294 89.0222 72.282 88.9876 72.258C88.9529 72.2314 88.9236 72.1994 88.8996 72.162L88.7716 71.934Z" fill="white"/>
<path d="M93.5881 69.522V75.414H92.8761V69.522H93.5881Z" fill="white"/>
<path d="M117.406 95.318L116.506 92.986C116.48 92.9167 116.452 92.8367 116.422 92.746C116.393 92.6527 116.365 92.554 116.338 92.45C116.282 92.666 116.225 92.846 116.166 92.99L115.266 95.318H117.406ZM119.022 97.446H118.422C118.353 97.446 118.297 97.4287 118.254 97.394C118.212 97.3593 118.18 97.3153 118.158 97.262L117.622 95.878H115.05L114.514 97.262C114.498 97.31 114.468 97.3527 114.422 97.39C114.377 97.4273 114.321 97.446 114.254 97.446H113.654L115.946 91.714H116.73L119.022 97.446Z" fill="white"/>
<path d="M120.329 91.554V97.446H119.617V91.554H120.329Z" fill="white"/>
<path d="M122.219 91.554V97.446H121.507V91.554H122.219Z" fill="white"/>
</svg>
