<svg width="50" height="28" viewBox="0 0 50 28" fill="none" xmlns="http://www.w3.org/2000/svg">
<rect x="0.25" y="0.25" width="49.5" height="12.5" stroke="white" stroke-opacity="0.25" stroke-width="0.5"/>
<rect x="0.25" y="14.25" width="49.5" height="12.5" fill="black" fill-opacity="0.1" stroke="#D4164F" stroke-width="0.5"/>
<path d="M12.6685 8.876C12.9059 8.876 13.1179 8.836 13.3045 8.756C13.4912 8.676 13.6485 8.564 13.7765 8.42C13.9072 8.276 14.0059 8.104 14.0725 7.904C14.1419 7.704 14.1765 7.484 14.1765 7.244V3.76H14.9485V7.244C14.9485 7.57467 14.8952 7.88133 14.7885 8.164C14.6845 8.44667 14.5339 8.692 14.3365 8.9C14.1419 9.10533 13.9032 9.26667 13.6205 9.384C13.3379 9.50133 13.0205 9.56 12.6685 9.56C12.3165 9.56 11.9992 9.50133 11.7165 9.384C11.4339 9.26667 11.1939 9.10533 10.9965 8.9C10.7992 8.692 10.6472 8.44667 10.5405 8.164C10.4365 7.88133 10.3845 7.57467 10.3845 7.244V3.76H11.1565V7.24C11.1565 7.48 11.1899 7.7 11.2565 7.9C11.3259 8.1 11.4245 8.272 11.5525 8.416C11.6832 8.56 11.8419 8.67333 12.0285 8.756C12.2179 8.836 12.4312 8.876 12.6685 8.876Z" fill="#EEEEEE" fill-opacity="0.5"/>
<path d="M16.7261 6.028C16.8141 5.92933 16.9075 5.84 17.0061 5.76C17.1048 5.68 17.2088 5.612 17.3181 5.556C17.4301 5.49733 17.5475 5.45333 17.6701 5.424C17.7955 5.392 17.9301 5.376 18.0741 5.376C18.2955 5.376 18.4901 5.41333 18.6581 5.488C18.8288 5.56 18.9701 5.664 19.0821 5.8C19.1968 5.93333 19.2835 6.09467 19.3421 6.284C19.4008 6.47333 19.4301 6.68267 19.4301 6.912V9.492H18.7141V6.912C18.7141 6.60533 18.6435 6.368 18.5021 6.2C18.3635 6.02933 18.1515 5.944 17.8661 5.944C17.6555 5.944 17.4581 5.99467 17.2741 6.096C17.0928 6.19733 16.9248 6.33467 16.7701 6.508V9.492H16.0541V5.44H16.4821C16.5835 5.44 16.6461 5.48933 16.6701 5.588L16.7261 6.028Z" fill="#EEEEEE" fill-opacity="0.5"/>
<path d="M21.2671 5.44V9.492H20.5551V5.44H21.2671ZM21.4191 4.168C21.4191 4.23733 21.4044 4.30267 21.3751 4.364C21.3484 4.42266 21.3111 4.476 21.2631 4.524C21.2178 4.56933 21.1631 4.60533 21.0991 4.632C21.0378 4.65867 20.9724 4.672 20.9031 4.672C20.8338 4.672 20.7684 4.65867 20.7071 4.632C20.6484 4.60533 20.5964 4.56933 20.5511 4.524C20.5058 4.476 20.4698 4.42266 20.4431 4.364C20.4164 4.30267 20.4031 4.23733 20.4031 4.168C20.4031 4.09866 20.4164 4.03333 20.4431 3.972C20.4698 3.908 20.5058 3.85333 20.5511 3.808C20.5964 3.76 20.6484 3.72267 20.7071 3.696C20.7684 3.66933 20.8338 3.656 20.9031 3.656C20.9724 3.656 21.0378 3.66933 21.0991 3.696C21.1631 3.72267 21.2178 3.76 21.2631 3.808C21.3111 3.85333 21.3484 3.908 21.3751 3.972C21.4044 4.03333 21.4191 4.09866 21.4191 4.168Z" fill="#EEEEEE" fill-opacity="0.5"/>
<path d="M23.153 8.516C23.2836 8.692 23.4263 8.816 23.581 8.888C23.7356 8.96 23.909 8.996 24.101 8.996C24.4796 8.996 24.7703 8.86133 24.973 8.592C25.1756 8.32267 25.277 7.93867 25.277 7.44C25.277 7.176 25.253 6.94933 25.205 6.76C25.1596 6.57067 25.093 6.416 25.005 6.296C24.917 6.17333 24.809 6.084 24.681 6.028C24.553 5.972 24.4076 5.944 24.245 5.944C24.013 5.944 23.809 5.99733 23.633 6.104C23.4596 6.21067 23.2996 6.36133 23.153 6.556V8.516ZM23.117 6.068C23.2876 5.85733 23.485 5.688 23.709 5.56C23.933 5.432 24.189 5.368 24.477 5.368C24.7116 5.368 24.9236 5.41333 25.113 5.504C25.3023 5.592 25.4636 5.724 25.597 5.9C25.7303 6.07333 25.833 6.28933 25.905 6.548C25.977 6.80667 26.013 7.104 26.013 7.44C26.013 7.73867 25.973 8.01733 25.893 8.276C25.813 8.532 25.697 8.75467 25.545 8.944C25.3956 9.13067 25.2116 9.27867 24.993 9.388C24.777 9.49467 24.533 9.548 24.261 9.548C24.013 9.548 23.7996 9.50667 23.621 9.424C23.445 9.33867 23.289 9.22133 23.153 9.072V10.864H22.437V5.44H22.865C22.9663 5.44 23.029 5.48933 23.053 5.588L23.117 6.068Z" fill="#EEEEEE" fill-opacity="0.5"/>
<path d="M28.6293 5.376C28.9253 5.376 29.192 5.42533 29.4293 5.524C29.6667 5.62267 29.8693 5.76267 30.0373 5.944C30.2053 6.12533 30.3333 6.34533 30.4213 6.604C30.512 6.86 30.5573 7.14667 30.5573 7.464C30.5573 7.784 30.512 8.072 30.4213 8.328C30.3333 8.584 30.2053 8.80267 30.0373 8.984C29.8693 9.16533 29.6667 9.30533 29.4293 9.404C29.192 9.5 28.9253 9.548 28.6293 9.548C28.3307 9.548 28.0613 9.5 27.8213 9.404C27.584 9.30533 27.3813 9.16533 27.2133 8.984C27.0453 8.80267 26.916 8.584 26.8253 8.328C26.7373 8.072 26.6933 7.784 26.6933 7.464C26.6933 7.14667 26.7373 6.86 26.8253 6.604C26.916 6.34533 27.0453 6.12533 27.2133 5.944C27.3813 5.76267 27.584 5.62267 27.8213 5.524C28.0613 5.42533 28.3307 5.376 28.6293 5.376ZM28.6293 8.992C29.0293 8.992 29.328 8.85867 29.5253 8.592C29.7227 8.32267 29.8213 7.948 29.8213 7.468C29.8213 6.98533 29.7227 6.60933 29.5253 6.34C29.328 6.07067 29.0293 5.936 28.6293 5.936C28.4267 5.936 28.2493 5.97067 28.0973 6.04C27.948 6.10933 27.8227 6.20933 27.7213 6.34C27.6227 6.47067 27.548 6.632 27.4973 6.824C27.4493 7.01333 27.4253 7.228 27.4253 7.468C27.4253 7.948 27.524 8.32267 27.7213 8.592C27.9213 8.85867 28.224 8.992 28.6293 8.992Z" fill="#EEEEEE" fill-opacity="0.5"/>
<path d="M32.1964 3.6V9.492H31.4844V3.6H32.1964Z" fill="#EEEEEE" fill-opacity="0.5"/>
<path d="M35.547 7.668C35.219 7.67867 34.939 7.70533 34.707 7.748C34.4777 7.788 34.2897 7.84133 34.143 7.908C33.999 7.97467 33.8937 8.05333 33.827 8.144C33.763 8.23467 33.731 8.336 33.731 8.448C33.731 8.55467 33.7484 8.64667 33.783 8.724C33.8177 8.80133 33.8644 8.86533 33.923 8.916C33.9844 8.964 34.055 9 34.135 9.024C34.2177 9.04533 34.3057 9.056 34.399 9.056C34.5244 9.056 34.639 9.044 34.743 9.02C34.847 8.99333 34.9444 8.956 35.035 8.908C35.1284 8.86 35.2164 8.80267 35.299 8.736C35.3844 8.66933 35.467 8.59333 35.547 8.508V7.668ZM33.247 6.012C33.471 5.796 33.7124 5.63467 33.971 5.528C34.2297 5.42133 34.5164 5.368 34.831 5.368C35.0577 5.368 35.259 5.40533 35.435 5.48C35.611 5.55467 35.759 5.65867 35.879 5.792C35.999 5.92533 36.0897 6.08667 36.151 6.276C36.2124 6.46533 36.243 6.67333 36.243 6.9V9.492H35.927C35.8577 9.492 35.8044 9.48133 35.767 9.46C35.7297 9.436 35.7004 9.39067 35.679 9.324L35.599 8.94C35.4924 9.03867 35.3884 9.12667 35.287 9.204C35.1857 9.27867 35.079 9.34267 34.967 9.396C34.855 9.44667 34.735 9.48533 34.607 9.512C34.4817 9.54133 34.3417 9.556 34.187 9.556C34.0297 9.556 33.8817 9.53467 33.743 9.492C33.6044 9.44667 33.483 9.38 33.379 9.292C33.2777 9.204 33.1964 9.09333 33.135 8.96C33.0764 8.824 33.047 8.664 33.047 8.48C33.047 8.32 33.091 8.16667 33.179 8.02C33.267 7.87067 33.4097 7.73867 33.607 7.624C33.8044 7.50933 34.0617 7.416 34.379 7.344C34.6964 7.26933 35.0857 7.22667 35.547 7.216V6.9C35.547 6.58533 35.479 6.348 35.343 6.188C35.207 6.02533 35.0084 5.944 34.747 5.944C34.571 5.944 34.423 5.96667 34.303 6.012C34.1857 6.05467 34.083 6.104 33.995 6.16C33.9097 6.21333 33.835 6.26267 33.771 6.308C33.7097 6.35067 33.6484 6.372 33.587 6.372C33.539 6.372 33.4977 6.36 33.463 6.336C33.4284 6.30933 33.399 6.27733 33.375 6.24L33.247 6.012Z" fill="#EEEEEE" fill-opacity="0.5"/>
<path d="M38.0036 6.252C38.1316 5.97467 38.2889 5.75867 38.4756 5.604C38.6623 5.44667 38.8903 5.368 39.1596 5.368C39.2449 5.368 39.3263 5.37733 39.4036 5.396C39.4836 5.41467 39.5543 5.444 39.6156 5.484L39.5636 6.016C39.5476 6.08267 39.5076 6.116 39.4436 6.116C39.4063 6.116 39.3516 6.108 39.2796 6.092C39.2076 6.076 39.1263 6.068 39.0356 6.068C38.9076 6.068 38.7929 6.08667 38.6916 6.124C38.5929 6.16133 38.5036 6.21733 38.4236 6.292C38.3463 6.364 38.2756 6.45467 38.2116 6.564C38.1503 6.67067 38.0943 6.79333 38.0436 6.932V9.492H37.3276V5.44H37.7356C37.8129 5.44 37.8663 5.45467 37.8956 5.484C37.9249 5.51333 37.9449 5.564 37.9556 5.636L38.0036 6.252Z" fill="#EEEEEE" fill-opacity="0.5"/>
<path d="M12.6685 22.876C12.9059 22.876 13.1179 22.836 13.3045 22.756C13.4912 22.676 13.6485 22.564 13.7765 22.42C13.9072 22.276 14.0059 22.104 14.0725 21.904C14.1419 21.704 14.1765 21.484 14.1765 21.244V17.76H14.9485V21.244C14.9485 21.5746 14.8952 21.8813 14.7885 22.164C14.6845 22.4466 14.5339 22.692 14.3365 22.9C14.1419 23.1053 13.9032 23.2666 13.6205 23.384C13.3379 23.5013 13.0205 23.56 12.6685 23.56C12.3165 23.56 11.9992 23.5013 11.7165 23.384C11.4339 23.2666 11.1939 23.1053 10.9965 22.9C10.7992 22.692 10.6472 22.4466 10.5405 22.164C10.4365 21.8813 10.3845 21.5746 10.3845 21.244V17.76H11.1565V21.24C11.1565 21.48 11.1899 21.7 11.2565 21.9C11.3259 22.1 11.4245 22.272 11.5525 22.416C11.6832 22.56 11.8419 22.6733 12.0285 22.756C12.2179 22.836 12.4312 22.876 12.6685 22.876Z" fill="#EEEEEE"/>
<path d="M16.7261 20.028C16.8141 19.9293 16.9075 19.84 17.0061 19.76C17.1048 19.68 17.2088 19.612 17.3181 19.556C17.4301 19.4973 17.5475 19.4533 17.6701 19.424C17.7955 19.392 17.9301 19.376 18.0741 19.376C18.2955 19.376 18.4901 19.4133 18.6581 19.488C18.8288 19.56 18.9701 19.664 19.0821 19.8C19.1968 19.9333 19.2835 20.0946 19.3421 20.284C19.4008 20.4733 19.4301 20.6826 19.4301 20.912V23.492H18.7141V20.912C18.7141 20.6053 18.6435 20.368 18.5021 20.2C18.3635 20.0293 18.1515 19.944 17.8661 19.944C17.6555 19.944 17.4581 19.9946 17.2741 20.096C17.0928 20.1973 16.9248 20.3346 16.7701 20.508V23.492H16.0541V19.44H16.4821C16.5835 19.44 16.6461 19.4893 16.6701 19.588L16.7261 20.028Z" fill="#EEEEEE"/>
<path d="M21.2671 19.44V23.492H20.5551V19.44H21.2671ZM21.4191 18.168C21.4191 18.2373 21.4044 18.3026 21.3751 18.364C21.3484 18.4226 21.3111 18.476 21.2631 18.524C21.2178 18.5693 21.1631 18.6053 21.0991 18.632C21.0378 18.6586 20.9724 18.672 20.9031 18.672C20.8338 18.672 20.7684 18.6586 20.7071 18.632C20.6484 18.6053 20.5964 18.5693 20.5511 18.524C20.5058 18.476 20.4698 18.4226 20.4431 18.364C20.4164 18.3026 20.4031 18.2373 20.4031 18.168C20.4031 18.0986 20.4164 18.0333 20.4431 17.972C20.4698 17.908 20.5058 17.8533 20.5511 17.808C20.5964 17.76 20.6484 17.7226 20.7071 17.696C20.7684 17.6693 20.8338 17.656 20.9031 17.656C20.9724 17.656 21.0378 17.6693 21.0991 17.696C21.1631 17.7226 21.2178 17.76 21.2631 17.808C21.3111 17.8533 21.3484 17.908 21.3751 17.972C21.4044 18.0333 21.4191 18.0986 21.4191 18.168Z" fill="#EEEEEE"/>
<path d="M23.153 22.516C23.2836 22.692 23.4263 22.816 23.581 22.888C23.7356 22.96 23.909 22.996 24.101 22.996C24.4796 22.996 24.7703 22.8613 24.973 22.592C25.1756 22.3226 25.277 21.9386 25.277 21.44C25.277 21.176 25.253 20.9493 25.205 20.76C25.1596 20.5706 25.093 20.416 25.005 20.296C24.917 20.1733 24.809 20.084 24.681 20.028C24.553 19.972 24.4076 19.944 24.245 19.944C24.013 19.944 23.809 19.9973 23.633 20.104C23.4596 20.2106 23.2996 20.3613 23.153 20.556V22.516ZM23.117 20.068C23.2876 19.8573 23.485 19.688 23.709 19.56C23.933 19.432 24.189 19.368 24.477 19.368C24.7116 19.368 24.9236 19.4133 25.113 19.504C25.3023 19.592 25.4636 19.724 25.597 19.9C25.7303 20.0733 25.833 20.2893 25.905 20.548C25.977 20.8066 26.013 21.104 26.013 21.44C26.013 21.7386 25.973 22.0173 25.893 22.276C25.813 22.532 25.697 22.7546 25.545 22.944C25.3956 23.1306 25.2116 23.2786 24.993 23.388C24.777 23.4946 24.533 23.548 24.261 23.548C24.013 23.548 23.7996 23.5066 23.621 23.424C23.445 23.3386 23.289 23.2213 23.153 23.072V24.864H22.437V19.44H22.865C22.9663 19.44 23.029 19.4893 23.053 19.588L23.117 20.068Z" fill="#EEEEEE"/>
<path d="M28.6293 19.376C28.9253 19.376 29.192 19.4253 29.4293 19.524C29.6667 19.6226 29.8693 19.7626 30.0373 19.944C30.2053 20.1253 30.3333 20.3453 30.4213 20.604C30.512 20.86 30.5573 21.1466 30.5573 21.464C30.5573 21.784 30.512 22.072 30.4213 22.328C30.3333 22.584 30.2053 22.8026 30.0373 22.984C29.8693 23.1653 29.6667 23.3053 29.4293 23.404C29.192 23.5 28.9253 23.548 28.6293 23.548C28.3307 23.548 28.0613 23.5 27.8213 23.404C27.584 23.3053 27.3813 23.1653 27.2133 22.984C27.0453 22.8026 26.916 22.584 26.8253 22.328C26.7373 22.072 26.6933 21.784 26.6933 21.464C26.6933 21.1466 26.7373 20.86 26.8253 20.604C26.916 20.3453 27.0453 20.1253 27.2133 19.944C27.3813 19.7626 27.584 19.6226 27.8213 19.524C28.0613 19.4253 28.3307 19.376 28.6293 19.376ZM28.6293 22.992C29.0293 22.992 29.328 22.8586 29.5253 22.592C29.7227 22.3226 29.8213 21.948 29.8213 21.468C29.8213 20.9853 29.7227 20.6093 29.5253 20.34C29.328 20.0706 29.0293 19.936 28.6293 19.936C28.4267 19.936 28.2493 19.9706 28.0973 20.04C27.948 20.1093 27.8227 20.2093 27.7213 20.34C27.6227 20.4706 27.548 20.632 27.4973 20.824C27.4493 21.0133 27.4253 21.228 27.4253 21.468C27.4253 21.948 27.524 22.3226 27.7213 22.592C27.9213 22.8586 28.224 22.992 28.6293 22.992Z" fill="#EEEEEE"/>
<path d="M32.1964 17.6V23.492H31.4844V17.6H32.1964Z" fill="#EEEEEE"/>
<path d="M35.547 21.668C35.219 21.6786 34.939 21.7053 34.707 21.748C34.4777 21.788 34.2897 21.8413 34.143 21.908C33.999 21.9746 33.8937 22.0533 33.827 22.144C33.763 22.2346 33.731 22.336 33.731 22.448C33.731 22.5546 33.7484 22.6466 33.783 22.724C33.8177 22.8013 33.8644 22.8653 33.923 22.916C33.9844 22.964 34.055 23 34.135 23.024C34.2177 23.0453 34.3057 23.056 34.399 23.056C34.5244 23.056 34.639 23.044 34.743 23.02C34.847 22.9933 34.9444 22.956 35.035 22.908C35.1284 22.86 35.2164 22.8026 35.299 22.736C35.3844 22.6693 35.467 22.5933 35.547 22.508V21.668ZM33.247 20.012C33.471 19.796 33.7124 19.6346 33.971 19.528C34.2297 19.4213 34.5164 19.368 34.831 19.368C35.0577 19.368 35.259 19.4053 35.435 19.48C35.611 19.5546 35.759 19.6586 35.879 19.792C35.999 19.9253 36.0897 20.0866 36.151 20.276C36.2124 20.4653 36.243 20.6733 36.243 20.9V23.492H35.927C35.8577 23.492 35.8044 23.4813 35.767 23.46C35.7297 23.436 35.7004 23.3906 35.679 23.324L35.599 22.94C35.4924 23.0386 35.3884 23.1266 35.287 23.204C35.1857 23.2786 35.079 23.3426 34.967 23.396C34.855 23.4466 34.735 23.4853 34.607 23.512C34.4817 23.5413 34.3417 23.556 34.187 23.556C34.0297 23.556 33.8817 23.5346 33.743 23.492C33.6044 23.4466 33.483 23.38 33.379 23.292C33.2777 23.204 33.1964 23.0933 33.135 22.96C33.0764 22.824 33.047 22.664 33.047 22.48C33.047 22.32 33.091 22.1666 33.179 22.02C33.267 21.8706 33.4097 21.7386 33.607 21.624C33.8044 21.5093 34.0617 21.416 34.379 21.344C34.6964 21.2693 35.0857 21.2266 35.547 21.216V20.9C35.547 20.5853 35.479 20.348 35.343 20.188C35.207 20.0253 35.0084 19.944 34.747 19.944C34.571 19.944 34.423 19.9666 34.303 20.012C34.1857 20.0546 34.083 20.104 33.995 20.16C33.9097 20.2133 33.835 20.2626 33.771 20.308C33.7097 20.3506 33.6484 20.372 33.587 20.372C33.539 20.372 33.4977 20.36 33.463 20.336C33.4284 20.3093 33.399 20.2773 33.375 20.24L33.247 20.012Z" fill="#EEEEEE"/>
<path d="M38.0036 20.252C38.1316 19.9746 38.2889 19.7586 38.4756 19.604C38.6623 19.4466 38.8903 19.368 39.1596 19.368C39.2449 19.368 39.3263 19.3773 39.4036 19.396C39.4836 19.4146 39.5543 19.444 39.6156 19.484L39.5636 20.016C39.5476 20.0826 39.5076 20.116 39.4436 20.116C39.4063 20.116 39.3516 20.108 39.2796 20.092C39.2076 20.076 39.1263 20.068 39.0356 20.068C38.9076 20.068 38.7929 20.0866 38.6916 20.124C38.5929 20.1613 38.5036 20.2173 38.4236 20.292C38.3463 20.364 38.2756 20.4546 38.2116 20.564C38.1503 20.6706 38.0943 20.7933 38.0436 20.932V23.492H37.3276V19.44H37.7356C37.8129 19.44 37.8663 19.4546 37.8956 19.484C37.9249 19.5133 37.9449 19.564 37.9556 19.636L38.0036 20.252Z" fill="#EEEEEE"/>
</svg>
