<svg width="16" height="24" viewBox="0 0 16 24" fill="none" xmlns="http://www.w3.org/2000/svg">
<g clip-path="url(#clip0_204_14741)">
<rect x="0.25" y="0.75" width="15.5" height="10.5" stroke="white" stroke-opacity="0.25" stroke-width="0.5"/>
<rect x="0.25" y="12.75" width="15.5" height="10.5" fill="black" fill-opacity="0.1" stroke="#FF493E" stroke-width="0.5"/>
<path d="M10.744 3.46948V8.53048H9.91448V5.26148C9.91448 5.13082 9.92148 4.98965 9.93548 4.83798L8.40598 7.71148C8.33365 7.84915 8.22282 7.91798 8.07348 7.91798H7.94048C7.79115 7.91798 7.68031 7.84915 7.60798 7.71148L6.06098 4.82748C6.06798 4.90448 6.07381 4.98032 6.07848 5.05498C6.08315 5.12965 6.08548 5.19848 6.08548 5.26148V8.53048H5.25598V3.46948H5.96648C6.00848 3.46948 6.04465 3.47065 6.07498 3.47298C6.10531 3.47532 6.13215 3.48115 6.15548 3.49048C6.18115 3.49982 6.20331 3.51498 6.22198 3.53598C6.24298 3.55698 6.26281 3.58498 6.28148 3.61998L7.79698 6.43048C7.83665 6.50515 7.87281 6.58215 7.90548 6.66148C7.94048 6.74082 7.97431 6.82248 8.00698 6.90648C8.03965 6.82015 8.07348 6.73732 8.10848 6.65798C8.14348 6.57632 8.18081 6.49815 8.22048 6.42348L9.71498 3.61998C9.73365 3.58498 9.75348 3.55698 9.77448 3.53598C9.79548 3.51498 9.81765 3.49982 9.84098 3.49048C9.86665 3.48115 9.89465 3.47532 9.92498 3.47298C9.95532 3.47065 9.99148 3.46948 10.0335 3.46948H10.744Z" fill="#EEEEEE" fill-opacity="0.5"/>
<path d="M10.744 15.4695V20.5305H9.91448V17.2615C9.91448 17.1308 9.92148 16.9896 9.93548 16.838L8.40598 19.7115C8.33365 19.8491 8.22282 19.918 8.07348 19.918H7.94048C7.79115 19.918 7.68031 19.8491 7.60798 19.7115L6.06098 16.8275C6.06798 16.9045 6.07381 16.9803 6.07848 17.055C6.08315 17.1296 6.08548 17.1985 6.08548 17.2615V20.5305H5.25598V15.4695H5.96648C6.00848 15.4695 6.04465 15.4706 6.07498 15.473C6.10531 15.4753 6.13215 15.4811 6.15548 15.4905C6.18115 15.4998 6.20331 15.515 6.22198 15.536C6.24298 15.557 6.26281 15.585 6.28148 15.62L7.79698 18.4305C7.83665 18.5051 7.87281 18.5821 7.90548 18.6615C7.94048 18.7408 7.97431 18.8225 8.00698 18.9065C8.03965 18.8201 8.07348 18.7373 8.10848 18.658C8.14348 18.5763 8.18081 18.4981 8.22048 18.4235L9.71498 15.62C9.73365 15.585 9.75348 15.557 9.77448 15.536C9.79548 15.515 9.81765 15.4998 9.84098 15.4905C9.86665 15.4811 9.89465 15.4753 9.92498 15.473C9.95532 15.4706 9.99148 15.4695 10.0335 15.4695H10.744Z" fill="#EEEEEE"/>
</g>
<defs>
<clipPath id="clip0_204_14741">
<rect width="16" height="24" fill="white"/>
</clipPath>
</defs>
</svg>
