<svg width="16" height="24" viewBox="0 0 16 24" fill="none" xmlns="http://www.w3.org/2000/svg">
<g clip-path="url(#clip0_204_14746)">
<rect y="0.5" width="16" height="11" fill="white" fill-opacity="0.2"/>
<rect y="12.5" width="16" height="11" fill="white" fill-opacity="0.2"/>
<path d="M10.744 3.46948V8.53048H9.91451V5.26148C9.91451 5.13082 9.92151 4.98965 9.93551 4.83798L8.40601 7.71148C8.33368 7.84915 8.22285 7.91798 8.07351 7.91798H7.94051C7.79118 7.91798 7.68035 7.84915 7.60801 7.71148L6.06101 4.82748C6.06801 4.90448 6.07385 4.98032 6.07851 5.05498C6.08318 5.12965 6.08551 5.19848 6.08551 5.26148V8.53048H5.25601V3.46948H5.96651C6.00851 3.46948 6.04468 3.47065 6.07501 3.47298C6.10535 3.47532 6.13218 3.48115 6.15551 3.49048C6.18118 3.49982 6.20335 3.51498 6.22201 3.53598C6.24301 3.55698 6.26285 3.58498 6.28151 3.61998L7.79701 6.43048C7.83668 6.50515 7.87285 6.58215 7.90551 6.66148C7.94051 6.74082 7.97435 6.82248 8.00701 6.90648C8.03968 6.82015 8.07351 6.73732 8.10851 6.65798C8.14351 6.57632 8.18085 6.49815 8.22051 6.42348L9.71501 3.61998C9.73368 3.58498 9.75351 3.55698 9.77451 3.53598C9.79551 3.51498 9.81768 3.49982 9.84101 3.49048C9.86668 3.48115 9.89468 3.47532 9.92501 3.47298C9.95535 3.47065 9.99151 3.46948 10.0335 3.46948H10.744Z" fill="white"/>
<path d="M10.744 15.4695V20.5305H9.91451V17.2615C9.91451 17.1308 9.92151 16.9896 9.93551 16.838L8.40601 19.7115C8.33368 19.8491 8.22285 19.918 8.07351 19.918H7.94051C7.79118 19.918 7.68035 19.8491 7.60801 19.7115L6.06101 16.8275C6.06801 16.9045 6.07385 16.9803 6.07851 17.055C6.08318 17.1296 6.08551 17.1985 6.08551 17.2615V20.5305H5.25601V15.4695H5.96651C6.00851 15.4695 6.04468 15.4706 6.07501 15.473C6.10535 15.4753 6.13218 15.4811 6.15551 15.4905C6.18118 15.4998 6.20335 15.515 6.22201 15.536C6.24301 15.557 6.26285 15.585 6.28151 15.62L7.79701 18.4305C7.83668 18.5051 7.87285 18.5821 7.90551 18.6615C7.94051 18.7408 7.97435 18.8225 8.00701 18.9065C8.03968 18.8201 8.07351 18.7373 8.10851 18.658C8.14351 18.5763 8.18085 18.4981 8.22051 18.4235L9.71501 15.62C9.73368 15.585 9.75351 15.557 9.77451 15.536C9.79551 15.515 9.81768 15.4998 9.84101 15.4905C9.86668 15.4811 9.89468 15.4753 9.92501 15.473C9.95535 15.4706 9.99151 15.4695 10.0335 15.4695H10.744Z" fill="white"/>
</g>
<defs>
<clipPath id="clip0_204_14746">
<rect width="16" height="24" fill="white"/>
</clipPath>
</defs>
</svg>
