<svg width="90" height="28" viewBox="0 0 90 28" fill="none" xmlns="http://www.w3.org/2000/svg">
<g clip-path="url(#clip0_204_15541)">
<rect y="0.75" width="45" height="12.5" fill="white" fill-opacity="0.2"/>
<rect x="45" y="14.75" width="45" height="12.5" fill="white" fill-opacity="0.2"/>
<path d="M10.4244 9.26L10.4204 9.892H6.88843V4.16H10.4204V4.792H7.66443V6.696H9.89643V7.304H7.66443V9.26H10.4244Z" fill="white"/>
<path d="M11.9002 6.428C11.9882 6.32933 12.0816 6.24 12.1802 6.16C12.2789 6.08 12.3829 6.012 12.4922 5.956C12.6042 5.89733 12.7216 5.85333 12.8442 5.824C12.9696 5.792 13.1042 5.776 13.2482 5.776C13.4696 5.776 13.6642 5.81333 13.8322 5.888C14.0029 5.96 14.1442 6.064 14.2562 6.2C14.3709 6.33333 14.4576 6.49467 14.5162 6.684C14.5749 6.87333 14.6042 7.08267 14.6042 7.312V9.892H13.8882V7.312C13.8882 7.00533 13.8176 6.768 13.6762 6.6C13.5376 6.42933 13.3256 6.344 13.0402 6.344C12.8296 6.344 12.6322 6.39467 12.4482 6.496C12.2669 6.59733 12.0989 6.73467 11.9442 6.908V9.892H11.2282V5.84H11.6562C11.7576 5.84 11.8202 5.88933 11.8442 5.988L11.9002 6.428Z" fill="white"/>
<path d="M19.0752 5.84L17.4232 9.892H16.7832L15.1312 5.84H15.7112C15.7699 5.84 15.8179 5.85467 15.8552 5.884C15.8926 5.91333 15.9179 5.948 15.9312 5.988L16.9592 8.596C16.9912 8.69467 17.0192 8.79067 17.0432 8.884C17.0672 8.97733 17.0899 9.07067 17.1112 9.164C17.1326 9.07067 17.1552 8.97733 17.1792 8.884C17.2032 8.79067 17.2326 8.69467 17.2672 8.596L18.3072 5.988C18.3232 5.94533 18.3499 5.91067 18.3872 5.884C18.4246 5.85467 18.4686 5.84 18.5192 5.84H19.0752Z" fill="white"/>
<path d="M22.3309 7.424C22.3309 7.25867 22.3069 7.108 22.2589 6.972C22.2135 6.83333 22.1455 6.71467 22.0549 6.616C21.9669 6.51467 21.8589 6.43733 21.7309 6.384C21.6029 6.328 21.4575 6.3 21.2949 6.3C20.9535 6.3 20.6829 6.4 20.4829 6.6C20.2855 6.79733 20.1629 7.072 20.1149 7.424H22.3309ZM22.9069 9.324C22.8189 9.43067 22.7135 9.524 22.5909 9.604C22.4682 9.68133 22.3362 9.74533 22.1949 9.796C22.0562 9.84667 21.9122 9.884 21.7629 9.908C21.6135 9.93467 21.4655 9.948 21.3189 9.948C21.0389 9.948 20.7802 9.90133 20.5429 9.808C20.3082 9.712 20.1042 9.57333 19.9309 9.392C19.7602 9.208 19.6269 8.98133 19.5309 8.712C19.4349 8.44267 19.3869 8.13333 19.3869 7.784C19.3869 7.50133 19.4295 7.23733 19.5149 6.992C19.6029 6.74667 19.7282 6.53467 19.8909 6.356C20.0535 6.17467 20.2522 6.03333 20.4869 5.932C20.7215 5.828 20.9855 5.776 21.2789 5.776C21.5215 5.776 21.7455 5.81733 21.9509 5.9C22.1589 5.98 22.3375 6.09733 22.4869 6.252C22.6389 6.404 22.7575 6.59333 22.8429 6.82C22.9282 7.044 22.9709 7.3 22.9709 7.588C22.9709 7.7 22.9589 7.77467 22.9349 7.812C22.9109 7.84933 22.8655 7.868 22.7989 7.868H20.0909C20.0989 8.124 20.1335 8.34667 20.1949 8.536C20.2589 8.72533 20.3469 8.884 20.4589 9.012C20.5709 9.13733 20.7042 9.232 20.8589 9.296C21.0135 9.35733 21.1869 9.388 21.3789 9.388C21.5575 9.388 21.7109 9.368 21.8389 9.328C21.9695 9.28533 22.0815 9.24 22.1749 9.192C22.2682 9.144 22.3455 9.1 22.4069 9.06C22.4709 9.01733 22.5255 8.996 22.5709 8.996C22.6295 8.996 22.6749 9.01867 22.7069 9.064L22.9069 9.324Z" fill="white"/>
<path d="M24.5814 4V9.892H23.8694V4H24.5814Z" fill="white"/>
<path d="M27.4441 5.776C27.7401 5.776 28.0067 5.82533 28.2441 5.924C28.4814 6.02267 28.6841 6.16267 28.8521 6.344C29.0201 6.52533 29.1481 6.74533 29.2361 7.004C29.3267 7.26 29.3721 7.54667 29.3721 7.864C29.3721 8.184 29.3267 8.472 29.2361 8.728C29.1481 8.984 29.0201 9.20267 28.8521 9.384C28.6841 9.56533 28.4814 9.70533 28.2441 9.804C28.0067 9.9 27.7401 9.948 27.4441 9.948C27.1454 9.948 26.8761 9.9 26.6361 9.804C26.3987 9.70533 26.1961 9.56533 26.0281 9.384C25.8601 9.20267 25.7307 8.984 25.6401 8.728C25.5521 8.472 25.5081 8.184 25.5081 7.864C25.5081 7.54667 25.5521 7.26 25.6401 7.004C25.7307 6.74533 25.8601 6.52533 26.0281 6.344C26.1961 6.16267 26.3987 6.02267 26.6361 5.924C26.8761 5.82533 27.1454 5.776 27.4441 5.776ZM27.4441 9.392C27.8441 9.392 28.1427 9.25867 28.3401 8.992C28.5374 8.72267 28.6361 8.348 28.6361 7.868C28.6361 7.38533 28.5374 7.00933 28.3401 6.74C28.1427 6.47067 27.8441 6.336 27.4441 6.336C27.2414 6.336 27.0641 6.37067 26.9121 6.44C26.7627 6.50933 26.6374 6.60933 26.5361 6.74C26.4374 6.87067 26.3627 7.032 26.3121 7.224C26.2641 7.41333 26.2401 7.628 26.2401 7.868C26.2401 8.348 26.3387 8.72267 26.5361 8.992C26.7361 9.25867 27.0387 9.392 27.4441 9.392Z" fill="white"/>
<path d="M30.9911 8.916C31.1218 9.092 31.2644 9.216 31.4191 9.288C31.5738 9.36 31.7471 9.396 31.9391 9.396C32.3178 9.396 32.6084 9.26133 32.8111 8.992C33.0138 8.72267 33.1151 8.33867 33.1151 7.84C33.1151 7.576 33.0911 7.34933 33.0431 7.16C32.9978 6.97067 32.9311 6.816 32.8431 6.696C32.7551 6.57333 32.6471 6.484 32.5191 6.428C32.3911 6.372 32.2458 6.344 32.0831 6.344C31.8511 6.344 31.6471 6.39733 31.4711 6.504C31.2978 6.61067 31.1378 6.76133 30.9911 6.956V8.916ZM30.9551 6.468C31.1258 6.25733 31.3231 6.088 31.5471 5.96C31.7711 5.832 32.0271 5.768 32.3151 5.768C32.5498 5.768 32.7618 5.81333 32.9511 5.904C33.1404 5.992 33.3018 6.124 33.4351 6.3C33.5684 6.47333 33.6711 6.68933 33.7431 6.948C33.8151 7.20667 33.8511 7.504 33.8511 7.84C33.8511 8.13867 33.8111 8.41733 33.7311 8.676C33.6511 8.932 33.5351 9.15467 33.3831 9.344C33.2338 9.53067 33.0498 9.67867 32.8311 9.788C32.6151 9.89467 32.3711 9.948 32.0991 9.948C31.8511 9.948 31.6378 9.90667 31.4591 9.824C31.2831 9.73867 31.1271 9.62133 30.9911 9.472V11.264H30.2751V5.84H30.7031C30.8044 5.84 30.8671 5.88933 30.8911 5.988L30.9551 6.468Z" fill="white"/>
<path d="M37.4715 7.424C37.4715 7.25867 37.4475 7.108 37.3995 6.972C37.3542 6.83333 37.2862 6.71467 37.1955 6.616C37.1075 6.51467 36.9995 6.43733 36.8715 6.384C36.7435 6.328 36.5982 6.3 36.4355 6.3C36.0942 6.3 35.8235 6.4 35.6235 6.6C35.4262 6.79733 35.3035 7.072 35.2555 7.424H37.4715ZM38.0475 9.324C37.9595 9.43067 37.8542 9.524 37.7315 9.604C37.6088 9.68133 37.4768 9.74533 37.3355 9.796C37.1968 9.84667 37.0528 9.884 36.9035 9.908C36.7542 9.93467 36.6062 9.948 36.4595 9.948C36.1795 9.948 35.9208 9.90133 35.6835 9.808C35.4488 9.712 35.2448 9.57333 35.0715 9.392C34.9008 9.208 34.7675 8.98133 34.6715 8.712C34.5755 8.44267 34.5275 8.13333 34.5275 7.784C34.5275 7.50133 34.5702 7.23733 34.6555 6.992C34.7435 6.74667 34.8688 6.53467 35.0315 6.356C35.1942 6.17467 35.3928 6.03333 35.6275 5.932C35.8622 5.828 36.1262 5.776 36.4195 5.776C36.6622 5.776 36.8862 5.81733 37.0915 5.9C37.2995 5.98 37.4782 6.09733 37.6275 6.252C37.7795 6.404 37.8982 6.59333 37.9835 6.82C38.0688 7.044 38.1115 7.3 38.1115 7.588C38.1115 7.7 38.0995 7.77467 38.0755 7.812C38.0515 7.84933 38.0062 7.868 37.9395 7.868H35.2315C35.2395 8.124 35.2742 8.34667 35.3355 8.536C35.3995 8.72533 35.4875 8.884 35.5995 9.012C35.7115 9.13733 35.8448 9.232 35.9995 9.296C36.1542 9.35733 36.3275 9.388 36.5195 9.388C36.6982 9.388 36.8515 9.368 36.9795 9.328C37.1102 9.28533 37.2222 9.24 37.3155 9.192C37.4088 9.144 37.4862 9.1 37.5475 9.06C37.6115 9.01733 37.6662 8.996 37.7115 8.996C37.7702 8.996 37.8155 9.01867 37.8475 9.064L38.0475 9.324Z" fill="white"/>
<path d="M63.815 23.2143V23.8663H60.563V18.1343H61.335V23.2143H63.815Z" fill="white"/>
<path d="M65.4484 18.7663V20.7703H67.8044V21.4023H65.4484V23.8663H64.6724V18.1343H68.2044V18.7663H65.4484Z" fill="white"/>
<path d="M74.4371 21.0023C74.4371 21.4316 74.3691 21.8263 74.2331 22.1863C74.0971 22.5436 73.9051 22.8516 73.6571 23.1103C73.4091 23.369 73.1104 23.5703 72.7611 23.7143C72.4144 23.8556 72.0304 23.9263 71.6091 23.9263C71.1878 23.9263 70.8038 23.8556 70.4571 23.7143C70.1104 23.5703 69.8131 23.369 69.5651 23.1103C69.3171 22.8516 69.1251 22.5436 68.9891 22.1863C68.8531 21.8263 68.7851 21.4316 68.7851 21.0023C68.7851 20.573 68.8531 20.1796 68.9891 19.8223C69.1251 19.4623 69.3171 19.153 69.5651 18.8943C69.8131 18.633 70.1104 18.4303 70.4571 18.2863C70.8038 18.1423 71.1878 18.0703 71.6091 18.0703C72.0304 18.0703 72.4144 18.1423 72.7611 18.2863C73.1104 18.4303 73.4091 18.633 73.6571 18.8943C73.9051 19.153 74.0971 19.4623 74.2331 19.8223C74.3691 20.1796 74.4371 20.573 74.4371 21.0023ZM73.6411 21.0023C73.6411 20.6503 73.5931 20.3343 73.4971 20.0543C73.4011 19.7743 73.2651 19.5383 73.0891 19.3463C72.9131 19.1516 72.6998 19.0023 72.4491 18.8983C72.1984 18.7943 71.9184 18.7423 71.6091 18.7423C71.3024 18.7423 71.0238 18.7943 70.7731 18.8983C70.5224 19.0023 70.3078 19.1516 70.1291 19.3463C69.9531 19.5383 69.8171 19.7743 69.7211 20.0543C69.6251 20.3343 69.5771 20.6503 69.5771 21.0023C69.5771 21.3543 69.6251 21.6703 69.7211 21.9503C69.8171 22.2276 69.9531 22.4636 70.1291 22.6583C70.3078 22.8503 70.5224 22.9983 70.7731 23.1023C71.0238 23.2036 71.3024 23.2543 71.6091 23.2543C71.9184 23.2543 72.1984 23.2036 72.4491 23.1023C72.6998 22.9983 72.9131 22.8503 73.0891 22.6583C73.2651 22.4636 73.4011 22.2276 73.4971 21.9503C73.5931 21.6703 73.6411 21.3543 73.6411 21.0023Z" fill="white"/>
</g>
<defs>
<clipPath id="clip0_204_15541">
<rect width="90" height="28" fill="white"/>
</clipPath>
</defs>
</svg>
