<svg width="50" height="15" viewBox="0 0 50 15" fill="none" xmlns="http://www.w3.org/2000/svg">
<g clip-path="url(#clip0_205_32525)">
<rect x="0.25" y="0.25" width="49.5" height="14.5" stroke="white" stroke-opacity="0.25" stroke-width="0.5"/>
<path d="M11.0566 4.83896L13.125 5.91513V3.75H6.21356C5.88733 3.75 5.625 3.94939 5.625 4.19734V8.36912L7.04092 8.67331C7.11491 8.68865 7.1889 8.65542 7.21244 8.60174L7.56558 7.63037C7.58913 7.56135 7.69675 7.53067 7.77747 7.57157L11.1642 9.34305C11.292 9.40951 11.1979 9.56288 11.0499 9.52965L8.44002 8.97495C8.36603 8.95961 8.28868 8.99284 8.27186 9.04908L7.92545 10.0205C7.90191 10.0895 7.79092 10.1201 7.71357 10.0792L5.625 8.98006V11.25H12.4893C12.8391 11.25 13.1216 11.0327 13.1216 10.7694V6.53885L11.7225 6.24233C11.6485 6.22699 11.5746 6.26022 11.5544 6.31391L11.1911 7.28783C11.1642 7.35685 11.06 7.38497 10.9793 7.34662L7.58913 5.5726C7.46132 5.50613 7.55549 5.35276 7.70348 5.38599L10.3133 5.9407C10.3873 5.95603 10.4613 5.9228 10.4815 5.86912L10.8447 4.89519C10.8716 4.82873 10.9759 4.79806 11.0566 4.83896Z" fill="#B422D9"/>
<path d="M25.515 3.8V11H24.485V6.065C24.485 5.985 24.4867 5.89833 24.49 5.805C24.4967 5.70833 24.505 5.61167 24.515 5.515L22.2 9.79C22.11 9.96667 21.9717 10.055 21.785 10.055H21.62C21.43 10.055 21.2917 9.96667 21.205 9.79L18.855 5.505C18.865 5.60167 18.8717 5.69833 18.875 5.795C18.8817 5.89167 18.885 5.98167 18.885 6.065V11H17.855V3.8H18.73C18.8333 3.8 18.9133 3.81 18.97 3.83C19.0267 3.84667 19.0783 3.90167 19.125 3.995L21.435 8.18C21.485 8.27667 21.5317 8.37667 21.575 8.48C21.6217 8.58 21.6633 8.68333 21.7 8.79C21.74 8.68333 21.7817 8.57833 21.825 8.475C21.8717 8.36833 21.92 8.26667 21.97 8.17L24.245 3.995C24.2917 3.90167 24.3433 3.84667 24.4 3.83C24.4567 3.81 24.5367 3.8 24.64 3.8H25.515ZM30.209 7.875C30.209 7.695 30.1823 7.52833 30.129 7.375C30.079 7.21833 30.004 7.08333 29.904 6.97C29.804 6.85333 29.679 6.76333 29.529 6.7C29.3823 6.63333 29.2123 6.6 29.019 6.6C28.629 6.6 28.3223 6.71167 28.099 6.935C27.8757 7.15833 27.734 7.47167 27.674 7.875H30.209ZM27.644 8.535C27.6573 8.825 27.7023 9.07667 27.779 9.29C27.8557 9.5 27.9573 9.675 28.084 9.815C28.214 9.955 28.3673 10.06 28.544 10.13C28.724 10.1967 28.924 10.23 29.144 10.23C29.354 10.23 29.5357 10.2067 29.689 10.16C29.8423 10.11 29.9757 10.0567 30.089 10C30.2023 9.94 30.299 9.88667 30.379 9.84C30.459 9.79 30.5323 9.765 30.599 9.765C30.6857 9.765 30.7523 9.79833 30.799 9.865L31.104 10.26C30.9773 10.41 30.834 10.5367 30.674 10.64C30.514 10.7433 30.344 10.8283 30.164 10.895C29.984 10.9583 29.799 11.0033 29.609 11.03C29.419 11.06 29.234 11.075 29.054 11.075C28.7007 11.075 28.3723 11.0167 28.069 10.9C27.769 10.78 27.5073 10.605 27.284 10.375C27.064 10.145 26.8907 9.86 26.764 9.52C26.6407 9.18 26.579 8.78833 26.579 8.345C26.579 7.99167 26.634 7.66167 26.744 7.355C26.8573 7.04833 27.0173 6.78167 27.224 6.555C27.434 6.32833 27.6873 6.15 27.984 6.02C28.284 5.88667 28.6223 5.82 28.999 5.82C29.3123 5.82 29.6023 5.87167 29.869 5.975C30.1357 6.075 30.3657 6.22333 30.559 6.42C30.7523 6.61667 30.9023 6.85833 31.009 7.145C31.119 7.42833 31.174 7.75167 31.174 8.115C31.174 8.28167 31.1557 8.39333 31.119 8.45C31.0823 8.50667 31.0157 8.535 30.919 8.535H27.644ZM33.1815 6.575C33.2915 6.46167 33.4048 6.36 33.5215 6.27C33.6415 6.17667 33.7682 6.09667 33.9015 6.03C34.0348 5.96333 34.1765 5.91167 34.3265 5.875C34.4765 5.83833 34.6398 5.82 34.8165 5.82C35.0965 5.82 35.3415 5.86667 35.5515 5.96C35.7648 6.05333 35.9432 6.185 36.0865 6.355C36.2332 6.525 36.3432 6.73 36.4165 6.97C36.4898 7.20667 36.5265 7.46833 36.5265 7.755V11H35.4565V7.755C35.4565 7.41167 35.3765 7.145 35.2165 6.955C35.0598 6.765 34.8198 6.67 34.4965 6.67C34.2565 6.67 34.0332 6.725 33.8265 6.835C33.6232 6.945 33.4315 7.095 33.2515 7.285V11H32.1765V5.9H32.8265C32.9732 5.9 33.0665 5.96833 33.1065 6.105L33.1815 6.575ZM42.082 5.9V11H41.432C41.2886 11 41.197 10.9317 41.157 10.795L41.077 10.32C40.9703 10.4333 40.857 10.5367 40.737 10.63C40.6203 10.7233 40.4953 10.8033 40.362 10.87C40.2286 10.9367 40.0853 10.9883 39.932 11.025C39.782 11.0617 39.6203 11.08 39.447 11.08C39.167 11.08 38.9203 11.0333 38.707 10.94C38.4936 10.8467 38.3136 10.715 38.167 10.545C38.0236 10.375 37.9153 10.1717 37.842 9.935C37.7686 9.695 37.732 9.43167 37.732 9.145V5.9H38.807V9.145C38.807 9.48833 38.8853 9.755 39.042 9.945C39.202 10.135 39.4436 10.23 39.767 10.23C40.0036 10.23 40.2236 10.1767 40.427 10.07C40.6336 9.96 40.827 9.81 41.007 9.62V5.9H42.082Z" fill="#EEEEEE"/>
</g>
<defs>
<clipPath id="clip0_205_32525">
<rect width="50" height="15" fill="white"/>
</clipPath>
</defs>
</svg>
