<svg width="13" height="24" viewBox="0 0 13 24" fill="none" xmlns="http://www.w3.org/2000/svg">
<rect x="1.25" y="0.75" width="10.5" height="10.5" stroke="white" stroke-opacity="0.25" stroke-width="0.5"/>
<rect x="1.25" y="12.75" width="10.5" height="10.5" fill="black" fill-opacity="0.1" stroke="#B422D9" stroke-width="0.5"/>
<path fill-rule="evenodd" clip-rule="evenodd" d="M9.61305 17.3774L7.74518 19.2452C7.22925 19.7612 6.39335 19.7612 5.87738 19.2452L5.25481 18.6226L5.87738 18L6.50002 18.6226C6.67199 18.7942 6.95103 18.7946 7.12267 18.6226L8.9904 16.7548C9.16197 16.583 9.16197 16.3038 8.9904 16.1319L8.36782 15.5094C8.19618 15.3378 7.91683 15.3378 7.74518 15.5094L7.07836 16.1763C6.76922 15.9944 6.41788 15.9163 6.07005 15.9398L7.12267 14.8868C7.63858 14.3711 8.47487 14.3711 8.9904 14.8868L9.61305 15.5094C10.129 16.0251 10.129 16.8617 9.61305 17.3774ZM5.92123 19.824L5.25479 20.4904C5.08281 20.6624 4.80378 20.662 4.63221 20.4904L4.00958 19.8679C3.83761 19.6962 3.83761 19.4172 4.00958 19.2452L5.87737 17.3774C6.04895 17.2059 6.32845 17.2059 6.49997 17.3774L7.12262 18L7.74513 17.3774L7.12262 16.7548C6.60663 16.2391 5.77074 16.2391 5.2548 16.7548L3.38698 18.6226C2.87101 19.1386 2.87101 19.9749 3.38698 20.4904L4.00958 21.113C4.52513 21.629 5.36141 21.629 5.87737 21.113L6.92991 20.0604C6.58208 20.0836 6.23166 20.0055 5.92123 19.824Z" fill="white"/>
<path fill-rule="evenodd" clip-rule="evenodd" d="M9.61305 5.3774L7.74518 7.24522C7.22925 7.76121 6.39335 7.76121 5.87738 7.24522L5.25481 6.62256L5.87738 6.00005L6.50002 6.62256C6.67199 6.79421 6.95103 6.79456 7.12267 6.62256L8.9904 4.75481C9.16197 4.58303 9.16197 4.30377 8.9904 4.13195L8.36782 3.50938C8.19618 3.33785 7.91683 3.33785 7.74518 3.50938L7.07836 4.17631C6.76922 3.99438 6.41788 3.91634 6.07005 3.93978L7.12267 2.88679C7.63858 2.37107 8.47487 2.37107 8.9904 2.88679L9.61305 3.50938C10.129 4.02513 10.129 4.86167 9.61305 5.3774ZM5.92123 7.82404L5.25479 8.49044C5.08281 8.66243 4.80378 8.66201 4.63221 8.49044L4.00958 7.86786C3.83761 7.69623 3.83761 7.4172 4.00958 7.2452L5.87737 5.3774C6.04895 5.20587 6.32845 5.20587 6.49997 5.3774L7.12262 6.00005L7.74513 5.3774L7.12262 4.75481C6.60663 4.23909 5.77074 4.23909 5.2548 4.75481L3.38698 6.62256C2.87101 7.13864 2.87101 7.97495 3.38698 8.49044L4.00958 9.11304C4.52513 9.62899 5.36141 9.62899 5.87737 9.11304L6.92991 8.06043C6.58208 8.08363 6.23166 8.00549 5.92123 7.82404Z" fill="white" fill-opacity="0.4"/>
</svg>
