<svg width="13" height="239" viewBox="0 0 13 239" fill="none" xmlns="http://www.w3.org/2000/svg">
<rect x="0.25" y="28.75" width="12.5" height="12.5" stroke="white" stroke-opacity="0.25" stroke-width="0.5"/>
<rect x="0.25" y="42.75" width="12.5" height="12.5" stroke="white" stroke-opacity="0.25" stroke-width="0.5"/>
<rect x="0.25" y="14.75" width="12.5" height="12.5" stroke="white" stroke-opacity="0.25" stroke-width="0.5"/>
<rect x="0.25" y="70.75" width="12.5" height="12.5" stroke="white" stroke-opacity="0.25" stroke-width="0.5"/>
<rect x="0.25" y="84.75" width="12.5" height="12.5" stroke="white" stroke-opacity="0.25" stroke-width="0.5"/>
<rect x="0.25" y="56.75" width="12.5" height="12.5" stroke="white" stroke-opacity="0.25" stroke-width="0.5"/>
<rect x="0.25" y="112.75" width="12.5" height="12.5" stroke="white" stroke-opacity="0.25" stroke-width="0.5"/>
<rect x="0.25" y="126.75" width="12.5" height="12.5" stroke="white" stroke-opacity="0.25" stroke-width="0.5"/>
<rect x="0.25" y="98.75" width="12.5" height="12.5" stroke="white" stroke-opacity="0.25" stroke-width="0.5"/>
<rect x="0.25" y="154.75" width="12.5" height="12.5" stroke="white" stroke-opacity="0.25" stroke-width="0.5"/>
<rect x="0.25" y="168.75" width="12.5" height="12.5" stroke="white" stroke-opacity="0.25" stroke-width="0.5"/>
<rect x="0.25" y="140.75" width="12.5" height="12.5" stroke="white" stroke-opacity="0.25" stroke-width="0.5"/>
<rect x="0.25" y="182.75" width="12.5" height="12.5" stroke="white" stroke-opacity="0.25" stroke-width="0.5"/>
<rect x="0.25" y="210.75" width="12.5" height="12.5" stroke="white" stroke-opacity="0.25" stroke-width="0.5"/>
<rect x="0.25" y="224.75" width="12.5" height="12.5" stroke="white" stroke-opacity="0.25" stroke-width="0.5"/>
<rect x="0.25" y="196.75" width="12.5" height="12.5" stroke="white" stroke-opacity="0.25" stroke-width="0.5"/>
<path d="M8.13611 37.004C8.24278 37.004 8.32678 37.0347 8.38811 37.096C8.45211 37.1547 8.48411 37.2334 8.48411 37.332V37.924H4.51611V37.596C4.51611 37.5294 4.52945 37.4601 4.55611 37.3881C4.58545 37.3134 4.63078 37.2467 4.69211 37.188L6.44811 35.428C6.59478 35.2787 6.72545 35.136 6.84011 35C6.95745 34.864 7.05478 34.7294 7.13211 34.596C7.20945 34.4627 7.26811 34.328 7.30811 34.192C7.35078 34.0534 7.37211 33.908 7.37211 33.756C7.37211 33.6174 7.35211 33.496 7.31211 33.392C7.27211 33.2854 7.21478 33.196 7.14011 33.124C7.06811 33.052 6.98011 32.9987 6.87611 32.964C6.77478 32.9267 6.66011 32.908 6.53211 32.908C6.41478 32.908 6.30545 32.9254 6.20411 32.96C6.10545 32.992 6.01745 33.0387 5.94011 33.1C5.86278 33.1587 5.79745 33.228 5.74411 33.308C5.69078 33.388 5.65078 33.476 5.62411 33.572C5.57878 33.6947 5.52011 33.776 5.44811 33.816C5.37611 33.856 5.27211 33.8654 5.13611 33.844L4.61611 33.752C4.65611 33.4747 4.73345 33.232 4.84811 33.024C4.96278 32.8134 5.10545 32.6387 5.27611 32.5C5.44945 32.3587 5.64678 32.2534 5.86811 32.184C6.09211 32.112 6.33211 32.076 6.58811 32.076C6.85478 32.076 7.09878 32.116 7.32011 32.196C7.54145 32.2734 7.73078 32.384 7.88811 32.528C8.04545 32.672 8.16811 32.8454 8.25611 33.048C8.34411 33.2507 8.38811 33.476 8.38811 33.724C8.38811 33.9374 8.35611 34.1347 8.29211 34.316C8.23078 34.4974 8.14678 34.6707 8.04011 34.836C7.93611 35.0014 7.81345 35.1614 7.67211 35.316C7.53078 35.4707 7.38278 35.628 7.22811 35.788L5.92411 37.12C6.04945 37.0827 6.17345 37.0547 6.29611 37.036C6.42145 37.0147 6.54011 37.004 6.65211 37.004H8.13611Z" fill="#B422D9"/>
<path d="M4.668 47.7201C4.708 47.4427 4.78533 47.2001 4.9 46.9921C5.01467 46.7814 5.15733 46.6067 5.328 46.4681C5.50133 46.3267 5.69867 46.2214 5.92 46.1521C6.144 46.0801 6.384 46.0441 6.64 46.0441C6.90667 46.0441 7.14667 46.0827 7.36 46.1601C7.576 46.2347 7.76 46.3401 7.912 46.4761C8.064 46.6094 8.18 46.7667 8.26 46.9481C8.34267 47.1294 8.384 47.3254 8.384 47.5361C8.384 47.7201 8.36267 47.8827 8.32 48.0241C8.28 48.1627 8.22133 48.2841 8.144 48.3881C8.06667 48.4921 7.97067 48.5801 7.856 48.6521C7.74133 48.7241 7.612 48.7841 7.468 48.8321C7.81467 48.9414 8.07333 49.1081 8.244 49.3321C8.41467 49.5561 8.5 49.8374 8.5 50.1761C8.5 50.4641 8.44667 50.7187 8.34 50.9401C8.23333 51.1614 8.08933 51.3481 7.908 51.5001C7.72667 51.6494 7.516 51.7627 7.276 51.8401C7.03867 51.9174 6.78667 51.9561 6.52 51.9561C6.22933 51.9561 5.976 51.9227 5.76 51.8561C5.544 51.7894 5.356 51.6907 5.196 51.5601C5.036 51.4294 4.9 51.2694 4.788 51.0801C4.676 50.8907 4.58 50.6721 4.5 50.4241L4.936 50.2441C5.05067 50.1961 5.15733 50.1841 5.256 50.2081C5.35733 50.2294 5.43067 50.2827 5.476 50.3681C5.524 50.4614 5.576 50.5534 5.632 50.6441C5.69067 50.7347 5.76 50.8161 5.84 50.8881C5.92 50.9574 6.01333 51.0147 6.12 51.0601C6.22933 51.1027 6.35867 51.1241 6.508 51.1241C6.676 51.1241 6.82267 51.0974 6.948 51.0441C7.07333 50.9881 7.17733 50.9161 7.26 50.8281C7.34533 50.7401 7.408 50.6427 7.448 50.5361C7.49067 50.4267 7.512 50.3174 7.512 50.2081C7.512 50.0694 7.49733 49.9441 7.468 49.8321C7.43867 49.7174 7.37733 49.6201 7.284 49.5401C7.19067 49.4601 7.056 49.3974 6.88 49.3521C6.70667 49.3067 6.47333 49.2841 6.18 49.2841V48.5801C6.42267 48.5774 6.624 48.5547 6.784 48.5121C6.944 48.4694 7.07067 48.4107 7.164 48.3361C7.26 48.2587 7.32667 48.1667 7.364 48.0601C7.40133 47.9534 7.42 47.8361 7.42 47.7081C7.42 47.4361 7.344 47.2294 7.192 47.0881C7.04 46.9467 6.83733 46.8761 6.584 46.8761C6.46667 46.8761 6.35867 46.8934 6.26 46.9281C6.16133 46.9601 6.072 47.0067 5.992 47.0681C5.91467 47.1267 5.84933 47.1961 5.796 47.2761C5.74267 47.3561 5.70267 47.4441 5.676 47.5401C5.63067 47.6627 5.57067 47.7441 5.496 47.7841C5.424 47.8241 5.32133 47.8334 5.188 47.8121L4.668 47.7201Z" fill="#B422D9"/>
<path d="M7.11385 63.714V61.822C7.11385 61.6433 7.12585 61.446 7.14985 61.23L5.35385 63.714H7.11385ZM8.70185 63.714V64.286C8.70185 64.3393 8.68452 64.386 8.64985 64.426C8.61519 64.4633 8.56585 64.482 8.50185 64.482H7.97385V65.894H7.11385V64.482H4.67385C4.60718 64.482 4.54852 64.462 4.49785 64.422C4.44718 64.3793 4.41518 64.3273 4.40185 64.266L4.29785 63.766L7.03785 60.106H7.97385V63.714H8.70185Z" fill="#B422D9"/>
<path d="M5.85193 76.1759C5.97993 76.1493 6.10259 76.1306 6.21993 76.1199C6.33726 76.1066 6.45059 76.0999 6.55993 76.0999C6.86393 76.0999 7.13193 76.1453 7.36393 76.2359C7.59593 76.3266 7.79059 76.4519 7.94793 76.6119C8.10526 76.7719 8.22393 76.9599 8.30393 77.1759C8.38393 77.3893 8.42393 77.6199 8.42393 77.8679C8.42393 78.1746 8.36926 78.4546 8.25993 78.7079C8.15326 78.9613 8.00393 79.1786 7.81193 79.3599C7.61993 79.5386 7.39193 79.6773 7.12793 79.7759C6.86659 79.8746 6.58126 79.9239 6.27193 79.9239C6.09059 79.9239 5.91859 79.9053 5.75593 79.8679C5.59326 79.8306 5.43993 79.7813 5.29593 79.7199C5.15459 79.6559 5.02259 79.5839 4.89993 79.5039C4.77993 79.4213 4.67193 79.3346 4.57593 79.2439L4.87993 78.8239C4.94393 78.7333 5.02793 78.6879 5.13193 78.6879C5.19859 78.6879 5.26659 78.7093 5.33593 78.7519C5.40526 78.7946 5.48393 78.8413 5.57193 78.8919C5.66259 78.9426 5.76793 78.9893 5.88793 79.0319C6.01059 79.0746 6.15726 79.0959 6.32793 79.0959C6.50926 79.0959 6.66926 79.0666 6.80793 79.0079C6.94659 78.9493 7.06126 78.8679 7.15193 78.7639C7.24526 78.6573 7.31459 78.5319 7.35993 78.3879C7.40793 78.2413 7.43193 78.0826 7.43193 77.9119C7.43193 77.5973 7.33993 77.3519 7.15593 77.1759C6.97459 76.9973 6.70526 76.9079 6.34793 76.9079C6.07326 76.9079 5.79193 76.9586 5.50393 77.0599L4.88793 76.8839L5.36793 74.0759H8.22393V74.4959C8.22393 74.6373 8.17993 74.7519 8.09193 74.8399C8.00393 74.9279 7.85459 74.9719 7.64393 74.9719H6.05593L5.85193 76.1759Z" fill="#B422D9"/>
<path d="M6.23198 90.1759L6.03198 90.4239C6.14398 90.3679 6.26398 90.3253 6.39198 90.2959C6.52265 90.2639 6.66265 90.2479 6.81198 90.2479C7.03065 90.2479 7.24265 90.2839 7.44798 90.3559C7.65598 90.4279 7.83865 90.5373 7.99598 90.6839C8.15331 90.8279 8.27998 91.0079 8.37598 91.2239C8.47198 91.4399 8.51998 91.6919 8.51998 91.9799C8.51998 92.2493 8.47065 92.5026 8.37198 92.7399C8.27331 92.9746 8.13465 93.1799 7.95598 93.3559C7.77731 93.5319 7.56131 93.6706 7.30798 93.7719C7.05731 93.8733 6.77998 93.9239 6.47598 93.9239C6.16665 93.9239 5.88931 93.8746 5.64398 93.7759C5.39865 93.6773 5.18931 93.5399 5.01598 93.3639C4.84265 93.1853 4.70931 92.9719 4.61598 92.7239C4.52531 92.4733 4.47998 92.1959 4.47998 91.8919C4.47998 91.6199 4.53465 91.3413 4.64398 91.0559C4.75598 90.7679 4.92798 90.4693 5.15998 90.1599L6.53998 88.3079C6.58798 88.2439 6.65731 88.1893 6.74798 88.1439C6.84131 88.0986 6.94798 88.0759 7.06798 88.0759H7.94798L6.23198 90.1759ZM6.45598 93.1159C6.61331 93.1159 6.75731 93.0893 6.88798 93.0359C7.02131 92.9826 7.13465 92.9079 7.22798 92.8119C7.32398 92.7159 7.39865 92.6039 7.45198 92.4759C7.50531 92.3453 7.53198 92.2039 7.53198 92.0519C7.53198 91.8866 7.50665 91.7386 7.45598 91.6079C7.40531 91.4746 7.33331 91.3626 7.23998 91.2719C7.14665 91.1786 7.03465 91.1079 6.90398 91.0599C6.77331 91.0119 6.62931 90.9879 6.47198 90.9879C6.31465 90.9879 6.17198 91.0146 6.04398 91.0679C5.91598 91.1213 5.80665 91.1959 5.71598 91.2919C5.62531 91.3853 5.55465 91.4973 5.50398 91.6279C5.45331 91.7559 5.42798 91.8946 5.42798 92.0439C5.42798 92.2039 5.44931 92.3506 5.49198 92.4839C5.53731 92.6146 5.60265 92.7266 5.68798 92.8199C5.77598 92.9133 5.88398 92.9866 6.01198 93.0399C6.13998 93.0906 6.28798 93.1159 6.45598 93.1159Z" fill="#B422D9"/>
<path d="M8.49795 102.108V102.536C8.49795 102.664 8.48462 102.768 8.45795 102.848C8.43129 102.925 8.40462 102.991 8.37795 103.044L6.18595 107.556C6.14062 107.649 6.07662 107.729 5.99395 107.796C5.91129 107.86 5.80062 107.892 5.66195 107.892H4.94595L7.18195 103.472C7.23262 103.381 7.28195 103.299 7.32995 103.224C7.38062 103.147 7.43662 103.073 7.49795 103.004H4.72995C4.66862 103.004 4.61529 102.981 4.56995 102.936C4.52462 102.891 4.50195 102.837 4.50195 102.776V102.108H8.49795Z" fill="#B422D9"/>
<path d="M6.49994 121.184C6.66261 121.184 6.80528 121.161 6.92794 121.116C7.05061 121.068 7.15328 121.003 7.23594 120.92C7.32128 120.837 7.38528 120.739 7.42794 120.624C7.47061 120.509 7.49194 120.385 7.49194 120.252C7.49194 119.935 7.40394 119.695 7.22794 119.532C7.05194 119.369 6.80928 119.288 6.49994 119.288C6.19061 119.288 5.94794 119.369 5.77194 119.532C5.59594 119.695 5.50794 119.935 5.50794 120.252C5.50794 120.385 5.52928 120.509 5.57194 120.624C5.61461 120.739 5.67728 120.837 5.75994 120.92C5.84528 121.003 5.94928 121.068 6.07194 121.116C6.19461 121.161 6.33728 121.184 6.49994 121.184ZM6.49994 116.788C6.35328 116.788 6.22661 116.811 6.11994 116.856C6.01328 116.901 5.92394 116.963 5.85194 117.04C5.78261 117.115 5.73061 117.201 5.69594 117.3C5.66394 117.399 5.64794 117.503 5.64794 117.612C5.64794 117.727 5.66128 117.839 5.68794 117.948C5.71728 118.055 5.76528 118.151 5.83194 118.236C5.89861 118.319 5.98661 118.385 6.09594 118.436C6.20528 118.487 6.33994 118.512 6.49994 118.512C6.65994 118.512 6.79461 118.487 6.90394 118.436C7.01328 118.385 7.10128 118.319 7.16794 118.236C7.23461 118.151 7.28128 118.055 7.30794 117.948C7.33728 117.839 7.35194 117.727 7.35194 117.612C7.35194 117.503 7.33461 117.399 7.29994 117.3C7.26528 117.201 7.21328 117.115 7.14394 117.04C7.07461 116.963 6.98661 116.901 6.87994 116.856C6.77328 116.811 6.64661 116.788 6.49994 116.788ZM7.47594 118.876C7.82794 118.991 8.08794 119.167 8.25594 119.404C8.42394 119.639 8.50794 119.927 8.50794 120.268C8.50794 120.524 8.45861 120.756 8.35994 120.964C8.26394 121.172 8.12794 121.349 7.95194 121.496C7.77594 121.643 7.56394 121.756 7.31594 121.836C7.07061 121.916 6.79861 121.956 6.49994 121.956C6.20128 121.956 5.92794 121.916 5.67994 121.836C5.43461 121.756 5.22394 121.643 5.04794 121.496C4.87194 121.349 4.73461 121.172 4.63594 120.964C4.53994 120.756 4.49194 120.524 4.49194 120.268C4.49194 119.927 4.57594 119.639 4.74394 119.404C4.91194 119.167 5.17194 118.991 5.52394 118.876C5.24394 118.759 5.03328 118.592 4.89194 118.376C4.75328 118.16 4.68394 117.9 4.68394 117.596C4.68394 117.377 4.72794 117.173 4.81594 116.984C4.90661 116.795 5.03194 116.631 5.19194 116.492C5.35194 116.351 5.54261 116.241 5.76394 116.164C5.98794 116.084 6.23328 116.044 6.49994 116.044C6.76661 116.044 7.01061 116.084 7.23194 116.164C7.45594 116.241 7.64794 116.351 7.80794 116.492C7.96794 116.631 8.09194 116.795 8.17994 116.984C8.27061 117.173 8.31594 117.377 8.31594 117.596C8.31594 117.9 8.24528 118.16 8.10394 118.376C7.96528 118.592 7.75594 118.759 7.47594 118.876Z" fill="#B422D9"/>
<path d="M5.54 131.876C5.54 132.199 5.62267 132.445 5.788 132.616C5.956 132.784 6.19334 132.868 6.5 132.868C6.66 132.868 6.80267 132.843 6.928 132.792C7.05334 132.741 7.15867 132.672 7.244 132.584C7.32934 132.496 7.39334 132.392 7.436 132.272C7.48134 132.152 7.504 132.023 7.504 131.884C7.504 131.727 7.48 131.587 7.432 131.464C7.384 131.339 7.316 131.233 7.228 131.148C7.14 131.063 7.03467 130.997 6.912 130.952C6.792 130.907 6.66 130.884 6.516 130.884C6.36667 130.884 6.232 130.909 6.112 130.96C5.992 131.008 5.88934 131.076 5.804 131.164C5.71867 131.252 5.65334 131.357 5.608 131.48C5.56267 131.6 5.54 131.732 5.54 131.876ZM6.852 133.68C6.89734 133.624 6.94 133.569 6.98 133.516C7.02 133.463 7.05867 133.409 7.096 133.356C6.96267 133.441 6.816 133.507 6.656 133.552C6.496 133.595 6.328 133.616 6.152 133.616C5.952 133.616 5.756 133.581 5.564 133.512C5.372 133.443 5.20134 133.339 5.052 133.2C4.90267 133.059 4.78134 132.885 4.688 132.68C4.59734 132.472 4.552 132.229 4.552 131.952C4.552 131.693 4.6 131.451 4.696 131.224C4.792 130.997 4.92667 130.799 5.1 130.628C5.27334 130.457 5.48134 130.323 5.724 130.224C5.96667 130.125 6.23467 130.076 6.528 130.076C6.824 130.076 7.08934 130.123 7.324 130.216C7.56134 130.309 7.76267 130.44 7.928 130.608C8.096 130.776 8.224 130.977 8.312 131.212C8.40267 131.447 8.448 131.704 8.448 131.984C8.448 132.163 8.432 132.332 8.4 132.492C8.37067 132.652 8.328 132.807 8.272 132.956C8.216 133.103 8.148 133.247 8.068 133.388C7.988 133.529 7.89867 133.669 7.8 133.808L6.476 135.696C6.43067 135.76 6.36267 135.815 6.272 135.86C6.18134 135.903 6.07867 135.924 5.964 135.924H5.056L6.852 133.68Z" fill="#B422D9"/>
<path d="M5.83768 149.652V150.392H2.63768V149.652H3.80968V146.28C3.80968 146.147 3.81368 146.009 3.82168 145.868L2.98968 146.564C2.94168 146.601 2.89368 146.625 2.84568 146.636C2.80035 146.644 2.75635 146.644 2.71368 146.636C2.67368 146.628 2.63768 146.615 2.60568 146.596C2.57368 146.575 2.54968 146.552 2.53368 146.528L2.22168 146.1L3.98568 144.6H4.79768V149.652H5.83768Z" fill="#B422D9"/>
<path d="M10.7783 147.5C10.7783 148.004 10.7236 148.443 10.6143 148.816C10.5076 149.187 10.3583 149.493 10.1663 149.736C9.97697 149.979 9.75164 150.16 9.4903 150.28C9.23164 150.397 8.95164 150.456 8.6503 150.456C8.34897 150.456 8.06897 150.397 7.8103 150.28C7.5543 150.16 7.33164 149.979 7.1423 149.736C6.95297 149.493 6.80497 149.187 6.6983 148.816C6.59164 148.443 6.5383 148.004 6.5383 147.5C6.5383 146.993 6.59164 146.555 6.6983 146.184C6.80497 145.813 6.95297 145.507 7.1423 145.264C7.33164 145.021 7.5543 144.841 7.8103 144.724C8.06897 144.604 8.34897 144.544 8.6503 144.544C8.95164 144.544 9.23164 144.604 9.4903 144.724C9.75164 144.841 9.97697 145.021 10.1663 145.264C10.3583 145.507 10.5076 145.813 10.6143 146.184C10.7236 146.555 10.7783 146.993 10.7783 147.5ZM9.7583 147.5C9.7583 147.081 9.72764 146.735 9.6663 146.46C9.60497 146.185 9.5223 145.967 9.4183 145.804C9.31697 145.641 9.19964 145.528 9.0663 145.464C8.93297 145.397 8.7943 145.364 8.6503 145.364C8.50897 145.364 8.37164 145.397 8.2383 145.464C8.10764 145.528 7.99164 145.641 7.8903 145.804C7.78897 145.967 7.70764 146.185 7.6463 146.46C7.58764 146.735 7.5583 147.081 7.5583 147.5C7.5583 147.919 7.58764 148.265 7.6463 148.54C7.70764 148.815 7.78897 149.033 7.8903 149.196C7.99164 149.359 8.10764 149.473 8.2383 149.54C8.37164 149.604 8.50897 149.636 8.6503 149.636C8.7943 149.636 8.93297 149.604 9.0663 149.54C9.19964 149.473 9.31697 149.359 9.4183 149.196C9.5223 149.033 9.60497 148.815 9.6663 148.54C9.72764 148.265 9.7583 147.919 9.7583 147.5Z" fill="#B422D9"/>
<path d="M5.98758 163.156V163.896H2.78758V163.156H3.95958V159.784C3.95958 159.651 3.96358 159.513 3.97158 159.372L3.13958 160.068C3.09158 160.105 3.04358 160.129 2.99558 160.14C2.95025 160.148 2.90625 160.148 2.86358 160.14C2.82358 160.132 2.78758 160.119 2.75558 160.1C2.72358 160.079 2.69958 160.056 2.68358 160.032L2.37158 159.604L4.13558 158.104H4.94758V163.156H5.98758Z" fill="#B422D9"/>
<path d="M10.6282 163.156V163.896H7.42821V163.156H8.60021V159.784C8.60021 159.651 8.60421 159.513 8.61221 159.372L7.78021 160.068C7.73221 160.105 7.68421 160.129 7.63621 160.14C7.59087 160.148 7.54687 160.148 7.50421 160.14C7.46421 160.132 7.42821 160.119 7.39621 160.1C7.36421 160.079 7.34021 160.056 7.32421 160.032L7.01221 159.604L8.77621 158.104H9.58821V163.156H10.6282Z" fill="#B422D9"/>
<path d="M5.92166 177.184V177.924H2.72166V177.184H3.89366V173.812C3.89366 173.679 3.89766 173.541 3.90566 173.4L3.07366 174.096C3.02566 174.133 2.97766 174.157 2.92966 174.168C2.88433 174.176 2.84033 174.176 2.79766 174.168C2.75766 174.16 2.72166 174.147 2.68966 174.128C2.65766 174.107 2.63366 174.084 2.61766 174.06L2.30566 173.632L4.06966 172.132H4.88166V177.184H5.92166Z" fill="#B422D9"/>
<path d="M10.3463 177.004C10.453 177.004 10.537 177.035 10.5983 177.096C10.6623 177.155 10.6943 177.233 10.6943 177.332V177.924H6.72629V177.596C6.72629 177.529 6.73962 177.46 6.76629 177.388C6.79562 177.313 6.84096 177.247 6.90229 177.188L8.65829 175.428C8.80496 175.279 8.93562 175.136 9.05029 175C9.16762 174.864 9.26496 174.729 9.34229 174.596C9.41962 174.463 9.47829 174.328 9.51829 174.192C9.56096 174.053 9.58229 173.908 9.58229 173.756C9.58229 173.617 9.56229 173.496 9.52229 173.392C9.48229 173.285 9.42496 173.196 9.35029 173.124C9.27829 173.052 9.19029 172.999 9.08629 172.964C8.98496 172.927 8.87029 172.908 8.74229 172.908C8.62496 172.908 8.51562 172.925 8.41429 172.96C8.31562 172.992 8.22762 173.039 8.15029 173.1C8.07296 173.159 8.00762 173.228 7.95429 173.308C7.90096 173.388 7.86096 173.476 7.83429 173.572C7.78896 173.695 7.73029 173.776 7.65829 173.816C7.58629 173.856 7.48229 173.865 7.34629 173.844L6.82629 173.752C6.86629 173.475 6.94362 173.232 7.05829 173.024C7.17296 172.813 7.31562 172.639 7.48629 172.5C7.65962 172.359 7.85696 172.253 8.07829 172.184C8.30229 172.112 8.54229 172.076 8.79829 172.076C9.06496 172.076 9.30896 172.116 9.53029 172.196C9.75162 172.273 9.94096 172.384 10.0983 172.528C10.2556 172.672 10.3783 172.845 10.4663 173.048C10.5543 173.251 10.5983 173.476 10.5983 173.724C10.5983 173.937 10.5663 174.135 10.5023 174.316C10.441 174.497 10.357 174.671 10.2503 174.836C10.1463 175.001 10.0236 175.161 9.88229 175.316C9.74096 175.471 9.59296 175.628 9.43829 175.788L8.13429 177.12C8.25962 177.083 8.38362 177.055 8.50629 177.036C8.63162 177.015 8.75029 177.004 8.86229 177.004H10.3463Z" fill="#B422D9"/>
<path d="M5.92557 191.152V191.892H2.72557V191.152H3.89757V187.78C3.89757 187.647 3.90157 187.509 3.90957 187.368L3.07757 188.064C3.02957 188.101 2.98157 188.125 2.93357 188.136C2.88824 188.144 2.84424 188.144 2.80157 188.136C2.76157 188.128 2.72557 188.115 2.69357 188.096C2.66157 188.075 2.63757 188.052 2.62157 188.028L2.30957 187.6L4.07357 186.1H4.88557V191.152H5.92557Z" fill="#B422D9"/>
<path d="M6.8582 187.72C6.8982 187.443 6.97553 187.2 7.0902 186.992C7.20486 186.781 7.34753 186.607 7.5182 186.468C7.69153 186.327 7.88886 186.221 8.1102 186.152C8.3342 186.08 8.5742 186.044 8.8302 186.044C9.09686 186.044 9.33686 186.083 9.5502 186.16C9.7662 186.235 9.9502 186.34 10.1022 186.476C10.2542 186.609 10.3702 186.767 10.4502 186.948C10.5329 187.129 10.5742 187.325 10.5742 187.536C10.5742 187.72 10.5529 187.883 10.5102 188.024C10.4702 188.163 10.4115 188.284 10.3342 188.388C10.2569 188.492 10.1609 188.58 10.0462 188.652C9.93153 188.724 9.8022 188.784 9.6582 188.832C10.0049 188.941 10.2635 189.108 10.4342 189.332C10.6049 189.556 10.6902 189.837 10.6902 190.176C10.6902 190.464 10.6369 190.719 10.5302 190.94C10.4235 191.161 10.2795 191.348 10.0982 191.5C9.91686 191.649 9.7062 191.763 9.4662 191.84C9.22886 191.917 8.97686 191.956 8.7102 191.956C8.41953 191.956 8.1662 191.923 7.9502 191.856C7.7342 191.789 7.5462 191.691 7.3862 191.56C7.2262 191.429 7.0902 191.269 6.9782 191.08C6.8662 190.891 6.7702 190.672 6.6902 190.424L7.1262 190.244C7.24086 190.196 7.34753 190.184 7.4462 190.208C7.54753 190.229 7.62086 190.283 7.6662 190.368C7.7142 190.461 7.7662 190.553 7.8222 190.644C7.88086 190.735 7.9502 190.816 8.0302 190.888C8.1102 190.957 8.20353 191.015 8.3102 191.06C8.41953 191.103 8.54886 191.124 8.6982 191.124C8.8662 191.124 9.01286 191.097 9.1382 191.044C9.26353 190.988 9.36753 190.916 9.4502 190.828C9.53553 190.74 9.5982 190.643 9.6382 190.536C9.68086 190.427 9.7022 190.317 9.7022 190.208C9.7022 190.069 9.68753 189.944 9.6582 189.832C9.62886 189.717 9.56753 189.62 9.4742 189.54C9.38086 189.46 9.2462 189.397 9.0702 189.352C8.89686 189.307 8.66353 189.284 8.3702 189.284V188.58C8.61286 188.577 8.8142 188.555 8.9742 188.512C9.1342 188.469 9.26086 188.411 9.3542 188.336C9.4502 188.259 9.51686 188.167 9.5542 188.06C9.59153 187.953 9.6102 187.836 9.6102 187.708C9.6102 187.436 9.5342 187.229 9.3822 187.088C9.2302 186.947 9.02753 186.876 8.7742 186.876C8.65686 186.876 8.54886 186.893 8.4502 186.928C8.35153 186.96 8.2622 187.007 8.1822 187.068C8.10486 187.127 8.03953 187.196 7.9862 187.276C7.93286 187.356 7.89286 187.444 7.8662 187.54C7.82086 187.663 7.76086 187.744 7.6862 187.784C7.6142 187.824 7.51153 187.833 7.3782 187.812L6.8582 187.72Z" fill="#B422D9"/>
<path d="M5.83963 205.156V205.896H2.63963V205.156H3.81163V201.784C3.81163 201.651 3.81563 201.513 3.82363 201.372L2.99163 202.068C2.94363 202.105 2.89563 202.129 2.84763 202.14C2.8023 202.148 2.7583 202.148 2.71563 202.14C2.67563 202.132 2.63963 202.119 2.60763 202.1C2.57563 202.079 2.55163 202.056 2.53563 202.032L2.22363 201.604L3.98763 200.104H4.79963V205.156H5.83963Z" fill="#B422D9"/>
<path d="M9.18826 203.716V201.824C9.18826 201.645 9.20026 201.448 9.22426 201.232L7.42826 203.716H9.18826ZM10.7763 203.716V204.288C10.7763 204.341 10.7589 204.388 10.7243 204.428C10.6896 204.465 10.6403 204.484 10.5763 204.484H10.0483V205.896H9.18826V204.484H6.74826C6.68159 204.484 6.62292 204.464 6.57226 204.424C6.52159 204.381 6.48959 204.329 6.47626 204.268L6.37226 203.768L9.11226 200.108H10.0483V203.716H10.7763Z" fill="#B422D9"/>
<path d="M5.95975 219.124V219.864H2.75975V219.124H3.93175V215.752C3.93175 215.619 3.93575 215.481 3.94375 215.34L3.11175 216.036C3.06375 216.073 3.01575 216.097 2.96775 216.108C2.92242 216.116 2.87842 216.116 2.83575 216.108C2.79575 216.1 2.75975 216.087 2.72775 216.068C2.69575 216.047 2.67175 216.024 2.65575 216L2.34375 215.572L4.10775 214.072H4.91975V219.124H5.95975Z" fill="#B422D9"/>
<path d="M8.08437 216.18C8.21237 216.153 8.33504 216.135 8.45237 216.124C8.56971 216.111 8.68304 216.104 8.79238 216.104C9.09638 216.104 9.36437 216.149 9.59637 216.24C9.82838 216.331 10.023 216.456 10.1804 216.616C10.3377 216.776 10.4564 216.964 10.5364 217.18C10.6164 217.393 10.6564 217.624 10.6564 217.872C10.6564 218.179 10.6017 218.459 10.4924 218.712C10.3857 218.965 10.2364 219.183 10.0444 219.364C9.85238 219.543 9.62438 219.681 9.36037 219.78C9.09904 219.879 8.81371 219.928 8.50437 219.928C8.32304 219.928 8.15104 219.909 7.98838 219.872C7.82571 219.835 7.67238 219.785 7.52838 219.724C7.38704 219.66 7.25504 219.588 7.13237 219.508C7.01237 219.425 6.90437 219.339 6.80837 219.248L7.11237 218.828C7.17637 218.737 7.26038 218.692 7.36438 218.692C7.43104 218.692 7.49904 218.713 7.56838 218.756C7.63771 218.799 7.71638 218.845 7.80438 218.896C7.89504 218.947 8.00038 218.993 8.12038 219.036C8.24304 219.079 8.38971 219.1 8.56038 219.1C8.74171 219.1 8.90171 219.071 9.04038 219.012C9.17904 218.953 9.29371 218.872 9.38438 218.768C9.47771 218.661 9.54704 218.536 9.59238 218.392C9.64038 218.245 9.66438 218.087 9.66438 217.916C9.66438 217.601 9.57238 217.356 9.38838 217.18C9.20704 217.001 8.93771 216.912 8.58038 216.912C8.30571 216.912 8.02437 216.963 7.73637 217.064L7.12038 216.888L7.60038 214.08H10.4564V214.5C10.4564 214.641 10.4124 214.756 10.3244 214.844C10.2364 214.932 10.087 214.976 9.87638 214.976H8.28837L8.08437 216.18Z" fill="#B422D9"/>
<path d="M5.86966 233.124V233.864H2.66966V233.124H3.84166V229.752C3.84166 229.619 3.84566 229.481 3.85366 229.34L3.02166 230.036C2.97366 230.073 2.92566 230.097 2.87766 230.108C2.83233 230.116 2.78833 230.116 2.74566 230.108C2.70566 230.1 2.66966 230.087 2.63766 230.068C2.60566 230.047 2.58166 230.024 2.56566 230L2.25366 229.572L4.01766 228.072H4.82966V233.124H5.86966Z" fill="#B422D9"/>
<path d="M8.45829 230.18L8.25829 230.428C8.37029 230.372 8.49029 230.329 8.61829 230.3C8.74895 230.268 8.88895 230.252 9.03829 230.252C9.25695 230.252 9.46895 230.288 9.67429 230.36C9.88229 230.432 10.065 230.541 10.2223 230.688C10.3796 230.832 10.5063 231.012 10.6023 231.228C10.6983 231.444 10.7463 231.696 10.7463 231.984C10.7463 232.253 10.697 232.507 10.5983 232.744C10.4996 232.979 10.361 233.184 10.1823 233.36C10.0036 233.536 9.78762 233.675 9.53429 233.776C9.28362 233.877 9.00629 233.928 8.70229 233.928C8.39295 233.928 8.11562 233.879 7.87029 233.78C7.62495 233.681 7.41562 233.544 7.24229 233.368C7.06895 233.189 6.93562 232.976 6.84229 232.728C6.75162 232.477 6.70629 232.2 6.70629 231.896C6.70629 231.624 6.76095 231.345 6.87029 231.06C6.98229 230.772 7.15429 230.473 7.38629 230.164L8.76629 228.312C8.81429 228.248 8.88362 228.193 8.97429 228.148C9.06762 228.103 9.17429 228.08 9.29429 228.08H10.1743L8.45829 230.18ZM8.68229 233.12C8.83962 233.12 8.98362 233.093 9.11429 233.04C9.24762 232.987 9.36095 232.912 9.45429 232.816C9.55029 232.72 9.62495 232.608 9.67829 232.48C9.73162 232.349 9.75829 232.208 9.75829 232.056C9.75829 231.891 9.73295 231.743 9.68229 231.612C9.63162 231.479 9.55962 231.367 9.46629 231.276C9.37295 231.183 9.26095 231.112 9.13029 231.064C8.99962 231.016 8.85562 230.992 8.69829 230.992C8.54095 230.992 8.39829 231.019 8.27029 231.072C8.14229 231.125 8.03295 231.2 7.94229 231.296C7.85162 231.389 7.78095 231.501 7.73029 231.632C7.67962 231.76 7.65429 231.899 7.65429 232.048C7.65429 232.208 7.67562 232.355 7.71829 232.488C7.76362 232.619 7.82895 232.731 7.91429 232.824C8.00229 232.917 8.11029 232.991 8.23829 233.044C8.36629 233.095 8.51429 233.12 8.68229 233.12Z" fill="#B422D9"/>
<path d="M8.30789 23.156V23.896H5.10789V23.156H6.27989V19.784C6.27989 19.6507 6.28389 19.5133 6.29189 19.372L5.45989 20.068C5.41189 20.1053 5.36389 20.1293 5.31589 20.14C5.27056 20.148 5.22656 20.148 5.18389 20.14C5.14389 20.132 5.10789 20.1187 5.07589 20.1C5.04389 20.0787 5.01989 20.056 5.00389 20.032L4.69189 19.604L6.45589 18.104H7.26789V23.156H8.30789Z" fill="#B422D9"/>
</svg>
