<svg width="31" height="24" viewBox="0 0 31 24" fill="none" xmlns="http://www.w3.org/2000/svg">
<g clip-path="url(#clip0_205_32344)">
<rect x="0.25" y="0.75" width="30.5" height="10.5" stroke="white" stroke-opacity="0.25" stroke-width="0.5"/>
<rect x="0.25" y="12.75" width="30.5" height="10.5" fill="black" fill-opacity="0.1" stroke="#B422D9" stroke-width="0.5"/>
<path d="M12.0423 3.15802L9.70632 8.89002H9.01032L6.67432 3.15802H7.29432C7.36365 3.15802 7.41965 3.17535 7.46232 3.21002C7.50498 3.24468 7.53698 3.28868 7.55832 3.34202L9.17432 7.38602C9.20898 7.47668 9.24232 7.57535 9.27432 7.68202C9.30898 7.78868 9.33965 7.90068 9.36632 8.01802C9.39298 7.90068 9.42098 7.78868 9.45032 7.68202C9.47965 7.57535 9.51165 7.47668 9.54632 7.38602L11.1583 3.34202C11.1743 3.29668 11.205 3.25535 11.2503 3.21802C11.2983 3.17802 11.3556 3.15802 11.4223 3.15802H12.0423Z" fill="#EEEEEE" fill-opacity="0.5"/>
<path d="M13.3804 4.83802V8.89002H12.6684V4.83802H13.3804ZM13.5324 3.56602C13.5324 3.63535 13.5177 3.70068 13.4884 3.76202C13.4617 3.82068 13.4244 3.87402 13.3764 3.92202C13.331 3.96735 13.2764 4.00335 13.2124 4.03002C13.151 4.05668 13.0857 4.07002 13.0164 4.07002C12.947 4.07002 12.8817 4.05668 12.8204 4.03002C12.7617 4.00335 12.7097 3.96735 12.6644 3.92202C12.619 3.87402 12.583 3.82068 12.5564 3.76202C12.5297 3.70068 12.5164 3.63535 12.5164 3.56602C12.5164 3.49668 12.5297 3.43135 12.5564 3.37002C12.583 3.30602 12.619 3.25135 12.6644 3.20602C12.7097 3.15802 12.7617 3.12068 12.8204 3.09402C12.8817 3.06735 12.947 3.05402 13.0164 3.05402C13.0857 3.05402 13.151 3.06735 13.2124 3.09402C13.2764 3.12068 13.331 3.15802 13.3764 3.20602C13.4244 3.25135 13.4617 3.30602 13.4884 3.37002C13.5177 3.43135 13.5324 3.49668 13.5324 3.56602Z" fill="#EEEEEE" fill-opacity="0.5"/>
<path d="M17.2623 6.42202C17.2623 6.25668 17.2383 6.10602 17.1903 5.97002C17.1449 5.83135 17.0769 5.71268 16.9863 5.61402C16.8983 5.51268 16.7903 5.43535 16.6623 5.38202C16.5343 5.32602 16.3889 5.29802 16.2263 5.29802C15.8849 5.29802 15.6143 5.39802 15.4143 5.59802C15.2169 5.79535 15.0943 6.07002 15.0463 6.42202H17.2623ZM17.8383 8.32202C17.7503 8.42868 17.6449 8.52202 17.5223 8.60202C17.3996 8.67935 17.2676 8.74335 17.1263 8.79402C16.9876 8.84468 16.8436 8.88202 16.6943 8.90602C16.5449 8.93268 16.3969 8.94602 16.2503 8.94602C15.9703 8.94602 15.7116 8.89935 15.4743 8.80602C15.2396 8.71002 15.0356 8.57135 14.8623 8.39002C14.6916 8.20602 14.5583 7.97935 14.4623 7.71002C14.3663 7.44068 14.3183 7.13135 14.3183 6.78202C14.3183 6.49935 14.3609 6.23535 14.4463 5.99002C14.5343 5.74468 14.6596 5.53268 14.8223 5.35402C14.9849 5.17268 15.1836 5.03135 15.4183 4.93002C15.6529 4.82602 15.9169 4.77402 16.2103 4.77402C16.4529 4.77402 16.6769 4.81535 16.8823 4.89802C17.0903 4.97802 17.2689 5.09535 17.4183 5.25002C17.5703 5.40202 17.6889 5.59135 17.7743 5.81802C17.8596 6.04202 17.9023 6.29802 17.9023 6.58602C17.9023 6.69802 17.8903 6.77268 17.8663 6.81002C17.8423 6.84735 17.7969 6.86602 17.7303 6.86602H15.0223C15.0303 7.12202 15.0649 7.34468 15.1263 7.53402C15.1903 7.72335 15.2783 7.88202 15.3903 8.01002C15.5023 8.13535 15.6356 8.23002 15.7903 8.29402C15.9449 8.35535 16.1183 8.38602 16.3103 8.38602C16.4889 8.38602 16.6423 8.36602 16.7703 8.32602C16.9009 8.28335 17.0129 8.23802 17.1063 8.19002C17.1996 8.14202 17.2769 8.09802 17.3383 8.05802C17.4023 8.01535 17.4569 7.99402 17.5023 7.99402C17.5609 7.99402 17.6063 8.01668 17.6383 8.06202L17.8383 8.32202Z" fill="#EEEEEE" fill-opacity="0.5"/>
<path d="M24.3258 4.83802L23.0138 8.89002H22.4498C22.3804 8.89002 22.3324 8.84468 22.3058 8.75402L21.4098 6.00602C21.3884 5.94468 21.3711 5.88335 21.3578 5.82202C21.3444 5.75802 21.3311 5.69535 21.3178 5.63402C21.3044 5.69535 21.2911 5.75802 21.2778 5.82202C21.2644 5.88335 21.2471 5.94602 21.2258 6.01002L20.3138 8.75402C20.2898 8.84468 20.2364 8.89002 20.1538 8.89002H19.6178L18.3058 4.83802H18.8658C18.9218 4.83802 18.9684 4.85268 19.0058 4.88202C19.0458 4.91135 19.0724 4.94602 19.0858 4.98602L19.8618 7.59402C19.9071 7.78602 19.9431 7.96735 19.9698 8.13802C19.9938 8.05002 20.0178 7.96068 20.0418 7.87002C20.0684 7.77935 20.0964 7.68735 20.1258 7.59402L20.9818 4.97002C20.9951 4.93002 21.0178 4.89668 21.0498 4.87002C21.0844 4.84335 21.1258 4.83002 21.1738 4.83002H21.4858C21.5391 4.83002 21.5831 4.84335 21.6178 4.87002C21.6524 4.89668 21.6764 4.93002 21.6898 4.97002L22.5258 7.59402C22.5551 7.68735 22.5818 7.77935 22.6058 7.87002C22.6298 7.96068 22.6524 8.05002 22.6738 8.13802C22.6871 8.05002 22.7031 7.96202 22.7218 7.87402C22.7431 7.78335 22.7658 7.69002 22.7898 7.59402L23.5818 4.98602C23.5951 4.94335 23.6204 4.90868 23.6578 4.88202C23.6951 4.85268 23.7391 4.83802 23.7898 4.83802H24.3258Z" fill="#EEEEEE" fill-opacity="0.5"/>
<path d="M12.0423 15.158L9.70632 20.89H9.01032L6.67432 15.158H7.29432C7.36365 15.158 7.41965 15.1753 7.46232 15.21C7.50498 15.2447 7.53698 15.2887 7.55832 15.342L9.17432 19.386C9.20898 19.4767 9.24232 19.5753 9.27432 19.682C9.30898 19.7887 9.33965 19.9007 9.36632 20.018C9.39298 19.9007 9.42098 19.7887 9.45032 19.682C9.47965 19.5753 9.51165 19.4767 9.54632 19.386L11.1583 15.342C11.1743 15.2967 11.205 15.2553 11.2503 15.218C11.2983 15.178 11.3556 15.158 11.4223 15.158H12.0423Z" fill="white"/>
<path d="M13.3804 16.838V20.89H12.6684V16.838H13.3804ZM13.5324 15.566C13.5324 15.6353 13.5177 15.7007 13.4884 15.762C13.4617 15.8207 13.4244 15.874 13.3764 15.922C13.331 15.9673 13.2764 16.0033 13.2124 16.03C13.151 16.0567 13.0857 16.07 13.0164 16.07C12.947 16.07 12.8817 16.0567 12.8204 16.03C12.7617 16.0033 12.7097 15.9673 12.6644 15.922C12.619 15.874 12.583 15.8207 12.5564 15.762C12.5297 15.7007 12.5164 15.6353 12.5164 15.566C12.5164 15.4967 12.5297 15.4313 12.5564 15.37C12.583 15.306 12.619 15.2513 12.6644 15.206C12.7097 15.158 12.7617 15.1207 12.8204 15.094C12.8817 15.0673 12.947 15.054 13.0164 15.054C13.0857 15.054 13.151 15.0673 13.2124 15.094C13.2764 15.1207 13.331 15.158 13.3764 15.206C13.4244 15.2513 13.4617 15.306 13.4884 15.37C13.5177 15.4313 13.5324 15.4967 13.5324 15.566Z" fill="white"/>
<path d="M17.2623 18.422C17.2623 18.2567 17.2383 18.106 17.1903 17.97C17.1449 17.8313 17.0769 17.7127 16.9863 17.614C16.8983 17.5127 16.7903 17.4353 16.6623 17.382C16.5343 17.326 16.3889 17.298 16.2263 17.298C15.8849 17.298 15.6143 17.398 15.4143 17.598C15.2169 17.7953 15.0943 18.07 15.0463 18.422H17.2623ZM17.8383 20.322C17.7503 20.4287 17.6449 20.522 17.5223 20.602C17.3996 20.6793 17.2676 20.7433 17.1263 20.794C16.9876 20.8447 16.8436 20.882 16.6943 20.906C16.5449 20.9327 16.3969 20.946 16.2503 20.946C15.9703 20.946 15.7116 20.8993 15.4743 20.806C15.2396 20.71 15.0356 20.5713 14.8623 20.39C14.6916 20.206 14.5583 19.9793 14.4623 19.71C14.3663 19.4407 14.3183 19.1313 14.3183 18.782C14.3183 18.4993 14.3609 18.2353 14.4463 17.99C14.5343 17.7447 14.6596 17.5327 14.8223 17.354C14.9849 17.1727 15.1836 17.0313 15.4183 16.93C15.6529 16.826 15.9169 16.774 16.2103 16.774C16.4529 16.774 16.6769 16.8153 16.8823 16.898C17.0903 16.978 17.2689 17.0953 17.4183 17.25C17.5703 17.402 17.6889 17.5913 17.7743 17.818C17.8596 18.042 17.9023 18.298 17.9023 18.586C17.9023 18.698 17.8903 18.7727 17.8663 18.81C17.8423 18.8473 17.7969 18.866 17.7303 18.866H15.0223C15.0303 19.122 15.0649 19.3447 15.1263 19.534C15.1903 19.7233 15.2783 19.882 15.3903 20.01C15.5023 20.1353 15.6356 20.23 15.7903 20.294C15.9449 20.3553 16.1183 20.386 16.3103 20.386C16.4889 20.386 16.6423 20.366 16.7703 20.326C16.9009 20.2833 17.0129 20.238 17.1063 20.19C17.1996 20.142 17.2769 20.098 17.3383 20.058C17.4023 20.0154 17.4569 19.994 17.5023 19.994C17.5609 19.994 17.6063 20.0167 17.6383 20.062L17.8383 20.322Z" fill="white"/>
<path d="M24.3258 16.838L23.0138 20.89H22.4498C22.3804 20.89 22.3324 20.8447 22.3058 20.754L21.4098 18.006C21.3884 17.9447 21.3711 17.8833 21.3578 17.822C21.3444 17.758 21.3311 17.6953 21.3178 17.634C21.3044 17.6953 21.2911 17.758 21.2778 17.822C21.2644 17.8833 21.2471 17.946 21.2258 18.01L20.3138 20.754C20.2898 20.8447 20.2364 20.89 20.1538 20.89H19.6178L18.3058 16.838H18.8658C18.9218 16.838 18.9684 16.8527 19.0058 16.882C19.0458 16.9113 19.0724 16.946 19.0858 16.986L19.8618 19.594C19.9071 19.786 19.9431 19.9674 19.9698 20.138C19.9938 20.05 20.0178 19.9607 20.0418 19.87C20.0684 19.7793 20.0964 19.6873 20.1258 19.594L20.9818 16.97C20.9951 16.93 21.0178 16.8967 21.0498 16.87C21.0844 16.8433 21.1258 16.83 21.1738 16.83H21.4858C21.5391 16.83 21.5831 16.8433 21.6178 16.87C21.6524 16.8967 21.6764 16.93 21.6898 16.97L22.5258 19.594C22.5551 19.6873 22.5818 19.7793 22.6058 19.87C22.6298 19.9607 22.6524 20.05 22.6738 20.138C22.6871 20.05 22.7031 19.962 22.7218 19.874C22.7431 19.7834 22.7658 19.69 22.7898 19.594L23.5818 16.986C23.5951 16.9433 23.6204 16.9087 23.6578 16.882C23.6951 16.8527 23.7391 16.838 23.7898 16.838H24.3258Z" fill="white"/>
</g>
<defs>
<clipPath id="clip0_205_32344">
<rect width="31" height="24" fill="white"/>
</clipPath>
</defs>
</svg>
