<svg width="106" height="98" viewBox="0 0 106 98" fill="none" xmlns="http://www.w3.org/2000/svg">
<rect x="1.25" y="0.75" width="13.5" height="12.5" fill="black" fill-opacity="0.1" stroke="#B422D9" stroke-width="0.5"/>
<path d="M55.12 7.00001C55.12 7.50401 55.0653 7.94267 54.956 8.31601C54.8493 8.68667 54.7 8.99334 54.508 9.23601C54.3187 9.47867 54.0933 9.66001 53.832 9.78001C53.5733 9.89734 53.2933 9.95601 52.992 9.95601C52.6907 9.95601 52.4107 9.89734 52.152 9.78001C51.896 9.66001 51.6733 9.47867 51.484 9.23601C51.2947 8.99334 51.1467 8.68667 51.04 8.31601C50.9333 7.94267 50.88 7.50401 50.88 7.00001C50.88 6.49334 50.9333 6.05467 51.04 5.68401C51.1467 5.31334 51.2947 5.00667 51.484 4.76401C51.6733 4.52134 51.896 4.34134 52.152 4.22401C52.4107 4.10401 52.6907 4.04401 52.992 4.04401C53.2933 4.04401 53.5733 4.10401 53.832 4.22401C54.0933 4.34134 54.3187 4.52134 54.508 4.76401C54.7 5.00667 54.8493 5.31334 54.956 5.68401C55.0653 6.05467 55.12 6.49334 55.12 7.00001ZM54.1 7.00001C54.1 6.58134 54.0693 6.23467 54.008 5.96001C53.9467 5.68534 53.864 5.46667 53.76 5.30401C53.6587 5.14134 53.5413 5.02801 53.408 4.96401C53.2747 4.89734 53.136 4.86401 52.992 4.86401C52.8507 4.86401 52.7133 4.89734 52.58 4.96401C52.4493 5.02801 52.3333 5.14134 52.232 5.30401C52.1307 5.46667 52.0493 5.68534 51.988 5.96001C51.9293 6.23467 51.9 6.58134 51.9 7.00001C51.9 7.41867 51.9293 7.76534 51.988 8.04001C52.0493 8.31467 52.1307 8.53334 52.232 8.69601C52.3333 8.85867 52.4493 8.97334 52.58 9.04001C52.7133 9.10401 52.8507 9.13601 52.992 9.13601C53.136 9.13601 53.2747 9.10401 53.408 9.04001C53.5413 8.97334 53.6587 8.85867 53.76 8.69601C53.864 8.53334 53.9467 8.31467 54.008 8.04001C54.0693 7.76534 54.1 7.41867 54.1 7.00001Z" fill="#EEEEEE" fill-opacity="0.5"/>
<path d="M67.4457 7.576H65.8937V9.224H65.0897V7.576H63.5457V6.844H65.0897V5.204H65.8937V6.844H67.4457V7.576Z" fill="#EEEEEE" fill-opacity="0.5"/>
<path d="M71.9543 9.156V9.896H68.7543V9.156H69.9263V5.784C69.9263 5.65067 69.9303 5.51334 69.9383 5.372L69.1063 6.068C69.0583 6.10534 69.0103 6.12934 68.9623 6.14C68.9169 6.148 68.8729 6.148 68.8303 6.14C68.7903 6.132 68.7543 6.11867 68.7223 6.1C68.6903 6.07867 68.6663 6.056 68.6503 6.032L68.3383 5.604L70.1023 4.104H70.9143V9.156H71.9543Z" fill="#EEEEEE" fill-opacity="0.5"/>
<path d="M82.3797 7.60399H80.8277V9.25199H80.0237V7.60399H78.4797V6.87199H80.0237V5.23199H80.8277V6.87199H82.3797V7.60399Z" fill="#EEEEEE" fill-opacity="0.5"/>
<path d="M86.6723 9.00399C86.779 9.00399 86.863 9.03466 86.9243 9.09599C86.9883 9.15466 87.0203 9.23332 87.0203 9.33199V9.92399H83.0523V9.59599C83.0523 9.52932 83.0656 9.45999 83.0923 9.38799C83.1216 9.31332 83.167 9.24666 83.2283 9.18799L84.9843 7.42799C85.131 7.27866 85.2616 7.13599 85.3763 6.99999C85.4936 6.86399 85.591 6.72932 85.6683 6.59599C85.7456 6.46266 85.8043 6.32799 85.8443 6.19199C85.887 6.05332 85.9083 5.90799 85.9083 5.75599C85.9083 5.61732 85.8883 5.49599 85.8483 5.39199C85.8083 5.28532 85.751 5.19599 85.6763 5.12399C85.6043 5.05199 85.5163 4.99866 85.4123 4.96399C85.311 4.92666 85.1963 4.90799 85.0683 4.90799C84.951 4.90799 84.8416 4.92532 84.7403 4.95999C84.6416 4.99199 84.5536 5.03866 84.4763 5.09999C84.399 5.15866 84.3336 5.22799 84.2803 5.30799C84.227 5.38799 84.187 5.47599 84.1603 5.57199C84.115 5.69466 84.0563 5.77599 83.9843 5.81599C83.9123 5.85599 83.8083 5.86532 83.6723 5.84399L83.1523 5.75199C83.1923 5.47466 83.2696 5.23199 83.3843 5.02399C83.499 4.81332 83.6416 4.63866 83.8123 4.49999C83.9856 4.35866 84.183 4.25332 84.4043 4.18399C84.6283 4.11199 84.8683 4.07599 85.1243 4.07599C85.391 4.07599 85.635 4.11599 85.8563 4.19599C86.0776 4.27332 86.267 4.38399 86.4243 4.52799C86.5816 4.67199 86.7043 4.84532 86.7923 5.04799C86.8803 5.25066 86.9243 5.47599 86.9243 5.72399C86.9243 5.93732 86.8923 6.13466 86.8283 6.31599C86.767 6.49732 86.683 6.67066 86.5763 6.83599C86.4723 7.00132 86.3496 7.16132 86.2083 7.31599C86.067 7.47066 85.919 7.62799 85.7643 7.78799L84.4603 9.11999C84.5856 9.08266 84.7096 9.05466 84.8323 9.03599C84.9576 9.01466 85.0763 9.00399 85.1883 9.00399H86.6723Z" fill="#EEEEEE" fill-opacity="0.5"/>
<path d="M97.3837 7.57201H95.8317V9.22001H95.0277V7.57201H93.4837V6.84001H95.0277V5.20001H95.8317V6.84001H97.3837V7.57201Z" fill="#EEEEEE" fill-opacity="0.5"/>
<path d="M98.1843 5.72001C98.2243 5.44267 98.3017 5.20001 98.4163 4.99201C98.531 4.78134 98.6737 4.60667 98.8443 4.46801C99.0177 4.32667 99.215 4.22134 99.4363 4.15201C99.6603 4.08001 99.9003 4.04401 100.156 4.04401C100.423 4.04401 100.663 4.08267 100.876 4.16001C101.092 4.23467 101.276 4.34001 101.428 4.47601C101.58 4.60934 101.696 4.76667 101.776 4.94801C101.859 5.12934 101.9 5.32534 101.9 5.53601C101.9 5.72001 101.879 5.88267 101.836 6.02401C101.796 6.16267 101.738 6.28401 101.66 6.38801C101.583 6.49201 101.487 6.58001 101.372 6.65201C101.258 6.72401 101.128 6.78401 100.984 6.83201C101.331 6.94134 101.59 7.10801 101.76 7.33201C101.931 7.55601 102.016 7.83734 102.016 8.17601C102.016 8.46401 101.963 8.71867 101.856 8.94001C101.75 9.16134 101.606 9.34801 101.424 9.50001C101.243 9.64934 101.032 9.76267 100.792 9.84001C100.555 9.91734 100.303 9.95601 100.036 9.95601C99.7457 9.95601 99.4923 9.92267 99.2763 9.85601C99.0603 9.78934 98.8723 9.69067 98.7123 9.56001C98.5523 9.42934 98.4163 9.26934 98.3043 9.08001C98.1923 8.89067 98.0963 8.67201 98.0163 8.42401L98.4523 8.24401C98.567 8.19601 98.6737 8.18401 98.7723 8.20801C98.8737 8.22934 98.947 8.28267 98.9923 8.36801C99.0403 8.46134 99.0923 8.55334 99.1483 8.64401C99.207 8.73467 99.2763 8.81601 99.3563 8.88801C99.4363 8.95734 99.5297 9.01467 99.6363 9.06001C99.7457 9.10267 99.875 9.12401 100.024 9.12401C100.192 9.12401 100.339 9.09734 100.464 9.04401C100.59 8.98801 100.694 8.91601 100.776 8.82801C100.862 8.74001 100.924 8.64267 100.964 8.53601C101.007 8.42667 101.028 8.31734 101.028 8.20801C101.028 8.06934 101.014 7.94401 100.984 7.83201C100.955 7.71734 100.894 7.62001 100.8 7.54001C100.707 7.46001 100.572 7.39734 100.396 7.35201C100.223 7.30667 99.9897 7.28401 99.6963 7.28401V6.58001C99.939 6.57734 100.14 6.55467 100.3 6.51201C100.46 6.46934 100.587 6.41067 100.68 6.33601C100.776 6.25867 100.843 6.16667 100.88 6.06001C100.918 5.95334 100.936 5.83601 100.936 5.70801C100.936 5.43601 100.86 5.22934 100.708 5.08801C100.556 4.94667 100.354 4.87601 100.1 4.87601C99.983 4.87601 99.875 4.89334 99.7763 4.92801C99.6777 4.96001 99.5883 5.00667 99.5083 5.06801C99.431 5.12667 99.3657 5.19601 99.3123 5.27601C99.259 5.35601 99.219 5.44401 99.1923 5.54001C99.147 5.66267 99.087 5.74401 99.0123 5.78401C98.9403 5.82401 98.8377 5.83334 98.7043 5.81201L98.1843 5.72001Z" fill="#EEEEEE" fill-opacity="0.5"/>
<path d="M4.35382 7.06401H6.42582V7.88801H4.35382V7.06401Z" fill="#EEEEEE"/>
<path d="M7.3142 5.72001C7.3542 5.44267 7.43153 5.20001 7.5462 4.99201C7.66086 4.78134 7.80353 4.60667 7.9742 4.46801C8.14753 4.32667 8.34486 4.22134 8.5662 4.15201C8.7902 4.08001 9.0302 4.04401 9.2862 4.04401C9.55286 4.04401 9.79286 4.08267 10.0062 4.16001C10.2222 4.23467 10.4062 4.34001 10.5582 4.47601C10.7102 4.60934 10.8262 4.76667 10.9062 4.94801C10.9889 5.12934 11.0302 5.32534 11.0302 5.53601C11.0302 5.72001 11.0089 5.88267 10.9662 6.02401C10.9262 6.16267 10.8675 6.28401 10.7902 6.38801C10.7129 6.49201 10.6169 6.58001 10.5022 6.65201C10.3875 6.72401 10.2582 6.78401 10.1142 6.83201C10.4609 6.94134 10.7195 7.10801 10.8902 7.33201C11.0609 7.55601 11.1462 7.83734 11.1462 8.17601C11.1462 8.46401 11.0929 8.71867 10.9862 8.94001C10.8795 9.16134 10.7355 9.34801 10.5542 9.50001C10.3729 9.64934 10.1622 9.76267 9.9222 9.84001C9.68486 9.91734 9.43286 9.95601 9.1662 9.95601C8.87553 9.95601 8.6222 9.92267 8.4062 9.85601C8.1902 9.78934 8.0022 9.69067 7.8422 9.56001C7.6822 9.42934 7.5462 9.26934 7.4342 9.08001C7.3222 8.89067 7.2262 8.67201 7.1462 8.42401L7.5822 8.24401C7.69686 8.19601 7.80353 8.18401 7.9022 8.20801C8.00353 8.22934 8.07686 8.28267 8.1222 8.36801C8.1702 8.46134 8.2222 8.55334 8.2782 8.64401C8.33686 8.73467 8.4062 8.81601 8.4862 8.88801C8.5662 8.95734 8.65953 9.01467 8.7662 9.06001C8.87553 9.10267 9.00486 9.12401 9.1542 9.12401C9.3222 9.12401 9.46886 9.09734 9.5942 9.04401C9.71953 8.98801 9.82353 8.91601 9.9062 8.82801C9.99153 8.74001 10.0542 8.64267 10.0942 8.53601C10.1369 8.42667 10.1582 8.31734 10.1582 8.20801C10.1582 8.06934 10.1435 7.94401 10.1142 7.83201C10.0849 7.71734 10.0235 7.62001 9.9302 7.54001C9.83686 7.46001 9.7022 7.39734 9.5262 7.35201C9.35286 7.30667 9.11953 7.28401 8.8262 7.28401V6.58001C9.06886 6.57734 9.2702 6.55467 9.4302 6.51201C9.5902 6.46934 9.71686 6.41067 9.8102 6.33601C9.9062 6.25867 9.97286 6.16667 10.0102 6.06001C10.0475 5.95334 10.0662 5.83601 10.0662 5.70801C10.0662 5.43601 9.9902 5.22934 9.8382 5.08801C9.6862 4.94667 9.48353 4.87601 9.2302 4.87601C9.11286 4.87601 9.00486 4.89334 8.9062 4.92801C8.80753 4.96001 8.7182 5.00667 8.6382 5.06801C8.56086 5.12667 8.49553 5.19601 8.4422 5.27601C8.38886 5.35601 8.34886 5.44401 8.3222 5.54001C8.27686 5.66267 8.21686 5.74401 8.1422 5.78401C8.0702 5.82401 7.96753 5.83334 7.8342 5.81201L7.3142 5.72001Z" fill="#EEEEEE"/>
<path d="M19.3499 7.09599H21.4219V7.91999H19.3499V7.09599Z" fill="#EEEEEE" fill-opacity="0.5"/>
<path d="M25.8022 9.00399C25.9089 9.00399 25.9929 9.03466 26.0542 9.09599C26.1182 9.15466 26.1502 9.23332 26.1502 9.33199V9.92399H22.1822V9.59599C22.1822 9.52932 22.1956 9.45999 22.2222 9.38799C22.2516 9.31332 22.2969 9.24666 22.3582 9.18799L24.1142 7.42799C24.2609 7.27866 24.3916 7.13599 24.5062 6.99999C24.6236 6.86399 24.7209 6.72932 24.7982 6.59599C24.8756 6.46266 24.9342 6.32799 24.9742 6.19199C25.0169 6.05332 25.0382 5.90799 25.0382 5.75599C25.0382 5.61732 25.0182 5.49599 24.9782 5.39199C24.9382 5.28532 24.8809 5.19599 24.8062 5.12399C24.7342 5.05199 24.6462 4.99866 24.5422 4.96399C24.4409 4.92666 24.3262 4.90799 24.1982 4.90799C24.0809 4.90799 23.9716 4.92532 23.8702 4.95999C23.7716 4.99199 23.6836 5.03866 23.6062 5.09999C23.5289 5.15866 23.4636 5.22799 23.4102 5.30799C23.3569 5.38799 23.3169 5.47599 23.2902 5.57199C23.2449 5.69466 23.1862 5.77599 23.1142 5.81599C23.0422 5.85599 22.9382 5.86532 22.8022 5.84399L22.2822 5.75199C22.3222 5.47466 22.3996 5.23199 22.5142 5.02399C22.6289 4.81332 22.7716 4.63866 22.9422 4.49999C23.1156 4.35866 23.3129 4.25332 23.5342 4.18399C23.7582 4.11199 23.9982 4.07599 24.2542 4.07599C24.5209 4.07599 24.7649 4.11599 24.9862 4.19599C25.2076 4.27332 25.3969 4.38399 25.5542 4.52799C25.7116 4.67199 25.8342 4.84532 25.9222 5.04799C26.0102 5.25066 26.0542 5.47599 26.0542 5.72399C26.0542 5.93732 26.0222 6.13466 25.9582 6.31599C25.8969 6.49732 25.8129 6.67066 25.7062 6.83599C25.6022 7.00132 25.4796 7.16132 25.3382 7.31599C25.1969 7.47066 25.0489 7.62799 24.8942 7.78799L23.5902 9.11999C23.7156 9.08266 23.8396 9.05466 23.9622 9.03599C24.0876 9.01466 24.2062 9.00399 24.3182 9.00399H25.8022Z" fill="#EEEEEE" fill-opacity="0.5"/>
<path d="M34.4158 7.068H36.4878V7.892H34.4158V7.068Z" fill="#EEEEEE" fill-opacity="0.5"/>
<path d="M41.0842 9.156V9.896H37.8842V9.156H39.0562V5.784C39.0562 5.65067 39.0602 5.51334 39.0682 5.372L38.2362 6.068C38.1882 6.10534 38.1402 6.12934 38.0922 6.14C38.0469 6.148 38.0029 6.148 37.9602 6.14C37.9202 6.132 37.8842 6.11867 37.8522 6.1C37.8202 6.07867 37.7962 6.056 37.7802 6.032L37.4682 5.604L39.2322 4.104H40.0442V9.156H41.0842Z" fill="#EEEEEE" fill-opacity="0.5"/>
<rect x="16.25" y="14.75" width="13.5" height="12.5" fill="black" fill-opacity="0.1" stroke="#B422D9" stroke-width="0.5"/>
<path d="M55.12 21C55.12 21.504 55.0653 21.9427 54.956 22.316C54.8493 22.6867 54.7 22.9933 54.508 23.236C54.3187 23.4787 54.0933 23.66 53.832 23.78C53.5733 23.8973 53.2933 23.956 52.992 23.956C52.6907 23.956 52.4107 23.8973 52.152 23.78C51.896 23.66 51.6733 23.4787 51.484 23.236C51.2947 22.9933 51.1467 22.6867 51.04 22.316C50.9333 21.9427 50.88 21.504 50.88 21C50.88 20.4933 50.9333 20.0547 51.04 19.684C51.1467 19.3133 51.2947 19.0067 51.484 18.764C51.6733 18.5213 51.896 18.3413 52.152 18.224C52.4107 18.104 52.6907 18.044 52.992 18.044C53.2933 18.044 53.5733 18.104 53.832 18.224C54.0933 18.3413 54.3187 18.5213 54.508 18.764C54.7 19.0067 54.8493 19.3133 54.956 19.684C55.0653 20.0547 55.12 20.4933 55.12 21ZM54.1 21C54.1 20.5813 54.0693 20.2347 54.008 19.96C53.9467 19.6853 53.864 19.4667 53.76 19.304C53.6587 19.1413 53.5413 19.028 53.408 18.964C53.2747 18.8973 53.136 18.864 52.992 18.864C52.8507 18.864 52.7133 18.8973 52.58 18.964C52.4493 19.028 52.3333 19.1413 52.232 19.304C52.1307 19.4667 52.0493 19.6853 51.988 19.96C51.9293 20.2347 51.9 20.5813 51.9 21C51.9 21.4187 51.9293 21.7653 51.988 22.04C52.0493 22.3147 52.1307 22.5333 52.232 22.696C52.3333 22.8587 52.4493 22.9733 52.58 23.04C52.7133 23.104 52.8507 23.136 52.992 23.136C53.136 23.136 53.2747 23.104 53.408 23.04C53.5413 22.9733 53.6587 22.8587 53.76 22.696C53.864 22.5333 53.9467 22.3147 54.008 22.04C54.0693 21.7653 54.1 21.4187 54.1 21Z" fill="#EEEEEE" fill-opacity="0.5"/>
<path d="M67.4457 21.576H65.8937V23.224H65.0897V21.576H63.5457V20.844H65.0897V19.204H65.8937V20.844H67.4457V21.576Z" fill="#EEEEEE" fill-opacity="0.5"/>
<path d="M71.9543 23.156V23.896H68.7543V23.156H69.9263V19.784C69.9263 19.6507 69.9303 19.5133 69.9383 19.372L69.1063 20.068C69.0583 20.1053 69.0103 20.1293 68.9623 20.14C68.9169 20.148 68.8729 20.148 68.8303 20.14C68.7903 20.132 68.7543 20.1187 68.7223 20.1C68.6903 20.0787 68.6663 20.056 68.6503 20.032L68.3383 19.604L70.1023 18.104H70.9143V23.156H71.9543Z" fill="#EEEEEE" fill-opacity="0.5"/>
<path d="M82.3797 21.604H80.8277V23.252H80.0237V21.604H78.4797V20.872H80.0237V19.232H80.8277V20.872H82.3797V21.604Z" fill="#EEEEEE" fill-opacity="0.5"/>
<path d="M86.6723 23.004C86.779 23.004 86.863 23.0347 86.9243 23.096C86.9883 23.1547 87.0203 23.2333 87.0203 23.332V23.924H83.0523V23.596C83.0523 23.5293 83.0656 23.46 83.0923 23.388C83.1216 23.3133 83.167 23.2467 83.2283 23.188L84.9843 21.428C85.131 21.2787 85.2616 21.136 85.3763 21C85.4936 20.864 85.591 20.7293 85.6683 20.596C85.7456 20.4627 85.8043 20.328 85.8443 20.192C85.887 20.0533 85.9083 19.908 85.9083 19.756C85.9083 19.6173 85.8883 19.496 85.8483 19.392C85.8083 19.2853 85.751 19.196 85.6763 19.124C85.6043 19.052 85.5163 18.9987 85.4123 18.964C85.311 18.9267 85.1963 18.908 85.0683 18.908C84.951 18.908 84.8416 18.9253 84.7403 18.96C84.6416 18.992 84.5536 19.0387 84.4763 19.1C84.399 19.1587 84.3336 19.228 84.2803 19.308C84.227 19.388 84.187 19.476 84.1603 19.572C84.115 19.6947 84.0563 19.776 83.9843 19.816C83.9123 19.856 83.8083 19.8653 83.6723 19.844L83.1523 19.752C83.1923 19.4747 83.2696 19.232 83.3843 19.024C83.499 18.8133 83.6416 18.6387 83.8123 18.5C83.9856 18.3587 84.183 18.2533 84.4043 18.184C84.6283 18.112 84.8683 18.076 85.1243 18.076C85.391 18.076 85.635 18.116 85.8563 18.196C86.0776 18.2733 86.267 18.384 86.4243 18.528C86.5816 18.672 86.7043 18.8453 86.7923 19.048C86.8803 19.2507 86.9243 19.476 86.9243 19.724C86.9243 19.9373 86.8923 20.1347 86.8283 20.316C86.767 20.4973 86.683 20.6707 86.5763 20.836C86.4723 21.0013 86.3496 21.1613 86.2083 21.316C86.067 21.4707 85.919 21.628 85.7643 21.788L84.4603 23.12C84.5856 23.0827 84.7096 23.0547 84.8323 23.036C84.9576 23.0147 85.0763 23.004 85.1883 23.004H86.6723Z" fill="#EEEEEE" fill-opacity="0.5"/>
<path d="M97.3837 21.572H95.8317V23.22H95.0277V21.572H93.4837V20.84H95.0277V19.2H95.8317V20.84H97.3837V21.572Z" fill="#EEEEEE" fill-opacity="0.5"/>
<path d="M98.1843 19.72C98.2243 19.4427 98.3017 19.2 98.4163 18.992C98.531 18.7813 98.6737 18.6067 98.8443 18.468C99.0177 18.3267 99.215 18.2213 99.4363 18.152C99.6603 18.08 99.9003 18.044 100.156 18.044C100.423 18.044 100.663 18.0827 100.876 18.16C101.092 18.2347 101.276 18.34 101.428 18.476C101.58 18.6093 101.696 18.7667 101.776 18.948C101.859 19.1293 101.9 19.3253 101.9 19.536C101.9 19.72 101.879 19.8827 101.836 20.024C101.796 20.1627 101.738 20.284 101.66 20.388C101.583 20.492 101.487 20.58 101.372 20.652C101.258 20.724 101.128 20.784 100.984 20.832C101.331 20.9413 101.59 21.108 101.76 21.332C101.931 21.556 102.016 21.8373 102.016 22.176C102.016 22.464 101.963 22.7187 101.856 22.94C101.75 23.1613 101.606 23.348 101.424 23.5C101.243 23.6493 101.032 23.7627 100.792 23.84C100.555 23.9173 100.303 23.956 100.036 23.956C99.7457 23.956 99.4923 23.9227 99.2763 23.856C99.0603 23.7893 98.8723 23.6907 98.7123 23.56C98.5523 23.4293 98.4163 23.2693 98.3043 23.08C98.1923 22.8907 98.0963 22.672 98.0163 22.424L98.4523 22.244C98.567 22.196 98.6737 22.184 98.7723 22.208C98.8737 22.2293 98.947 22.2827 98.9923 22.368C99.0403 22.4613 99.0923 22.5533 99.1483 22.644C99.207 22.7347 99.2763 22.816 99.3563 22.888C99.4363 22.9573 99.5297 23.0147 99.6363 23.06C99.7457 23.1027 99.875 23.124 100.024 23.124C100.192 23.124 100.339 23.0973 100.464 23.044C100.59 22.988 100.694 22.916 100.776 22.828C100.862 22.74 100.924 22.6427 100.964 22.536C101.007 22.4267 101.028 22.3173 101.028 22.208C101.028 22.0693 101.014 21.944 100.984 21.832C100.955 21.7173 100.894 21.62 100.8 21.54C100.707 21.46 100.572 21.3973 100.396 21.352C100.223 21.3067 99.9897 21.284 99.6963 21.284V20.58C99.939 20.5773 100.14 20.5547 100.3 20.512C100.46 20.4693 100.587 20.4107 100.68 20.336C100.776 20.2587 100.843 20.1667 100.88 20.06C100.918 19.9533 100.936 19.836 100.936 19.708C100.936 19.436 100.86 19.2293 100.708 19.088C100.556 18.9467 100.354 18.876 100.1 18.876C99.983 18.876 99.875 18.8933 99.7763 18.928C99.6777 18.96 99.5883 19.0067 99.5083 19.068C99.431 19.1267 99.3657 19.196 99.3123 19.276C99.259 19.356 99.219 19.444 99.1923 19.54C99.147 19.6627 99.087 19.744 99.0123 19.784C98.9403 19.824 98.8377 19.8333 98.7043 19.812L98.1843 19.72Z" fill="#EEEEEE" fill-opacity="0.5"/>
<path d="M4.35382 21.064H6.42582V21.888H4.35382V21.064Z" fill="#EEEEEE" fill-opacity="0.5"/>
<path d="M7.3142 19.72C7.3542 19.4427 7.43153 19.2 7.5462 18.992C7.66086 18.7813 7.80353 18.6067 7.9742 18.468C8.14753 18.3267 8.34486 18.2213 8.5662 18.152C8.7902 18.08 9.0302 18.044 9.2862 18.044C9.55286 18.044 9.79286 18.0827 10.0062 18.16C10.2222 18.2347 10.4062 18.34 10.5582 18.476C10.7102 18.6093 10.8262 18.7667 10.9062 18.948C10.9889 19.1293 11.0302 19.3253 11.0302 19.536C11.0302 19.72 11.0089 19.8827 10.9662 20.024C10.9262 20.1627 10.8675 20.284 10.7902 20.388C10.7129 20.492 10.6169 20.58 10.5022 20.652C10.3875 20.724 10.2582 20.784 10.1142 20.832C10.4609 20.9413 10.7195 21.108 10.8902 21.332C11.0609 21.556 11.1462 21.8373 11.1462 22.176C11.1462 22.464 11.0929 22.7187 10.9862 22.94C10.8795 23.1613 10.7355 23.348 10.5542 23.5C10.3729 23.6493 10.1622 23.7627 9.9222 23.84C9.68486 23.9173 9.43286 23.956 9.1662 23.956C8.87553 23.956 8.6222 23.9227 8.4062 23.856C8.1902 23.7893 8.0022 23.6907 7.8422 23.56C7.6822 23.4293 7.5462 23.2693 7.4342 23.08C7.3222 22.8907 7.2262 22.672 7.1462 22.424L7.5822 22.244C7.69686 22.196 7.80353 22.184 7.9022 22.208C8.00353 22.2293 8.07686 22.2827 8.1222 22.368C8.1702 22.4613 8.2222 22.5533 8.2782 22.644C8.33686 22.7347 8.4062 22.816 8.4862 22.888C8.5662 22.9573 8.65953 23.0147 8.7662 23.06C8.87553 23.1027 9.00486 23.124 9.1542 23.124C9.3222 23.124 9.46886 23.0973 9.5942 23.044C9.71953 22.988 9.82353 22.916 9.9062 22.828C9.99153 22.74 10.0542 22.6427 10.0942 22.536C10.1369 22.4267 10.1582 22.3173 10.1582 22.208C10.1582 22.0693 10.1435 21.944 10.1142 21.832C10.0849 21.7173 10.0235 21.62 9.9302 21.54C9.83686 21.46 9.7022 21.3973 9.5262 21.352C9.35286 21.3067 9.11953 21.284 8.8262 21.284V20.58C9.06886 20.5773 9.2702 20.5547 9.4302 20.512C9.5902 20.4693 9.71686 20.4107 9.8102 20.336C9.9062 20.2587 9.97286 20.1667 10.0102 20.06C10.0475 19.9533 10.0662 19.836 10.0662 19.708C10.0662 19.436 9.9902 19.2293 9.8382 19.088C9.6862 18.9467 9.48353 18.876 9.2302 18.876C9.11286 18.876 9.00486 18.8933 8.9062 18.928C8.80753 18.96 8.7182 19.0067 8.6382 19.068C8.56086 19.1267 8.49553 19.196 8.4422 19.276C8.38886 19.356 8.34886 19.444 8.3222 19.54C8.27686 19.6627 8.21686 19.744 8.1422 19.784C8.0702 19.824 7.96753 19.8333 7.8342 19.812L7.3142 19.72Z" fill="#EEEEEE" fill-opacity="0.5"/>
<path d="M19.3499 21.096H21.4219V21.92H19.3499V21.096Z" fill="#EEEEEE"/>
<path d="M25.8022 23.004C25.9089 23.004 25.9929 23.0347 26.0542 23.096C26.1182 23.1547 26.1502 23.2333 26.1502 23.332V23.924H22.1822V23.596C22.1822 23.5293 22.1956 23.46 22.2222 23.388C22.2516 23.3133 22.2969 23.2467 22.3582 23.188L24.1142 21.428C24.2609 21.2787 24.3916 21.136 24.5062 21C24.6236 20.864 24.7209 20.7293 24.7982 20.596C24.8756 20.4627 24.9342 20.328 24.9742 20.192C25.0169 20.0533 25.0382 19.908 25.0382 19.756C25.0382 19.6173 25.0182 19.496 24.9782 19.392C24.9382 19.2853 24.8809 19.196 24.8062 19.124C24.7342 19.052 24.6462 18.9987 24.5422 18.964C24.4409 18.9267 24.3262 18.908 24.1982 18.908C24.0809 18.908 23.9716 18.9253 23.8702 18.96C23.7716 18.992 23.6836 19.0387 23.6062 19.1C23.5289 19.1587 23.4636 19.228 23.4102 19.308C23.3569 19.388 23.3169 19.476 23.2902 19.572C23.2449 19.6947 23.1862 19.776 23.1142 19.816C23.0422 19.856 22.9382 19.8653 22.8022 19.844L22.2822 19.752C22.3222 19.4747 22.3996 19.232 22.5142 19.024C22.6289 18.8133 22.7716 18.6387 22.9422 18.5C23.1156 18.3587 23.3129 18.2533 23.5342 18.184C23.7582 18.112 23.9982 18.076 24.2542 18.076C24.5209 18.076 24.7649 18.116 24.9862 18.196C25.2076 18.2733 25.3969 18.384 25.5542 18.528C25.7116 18.672 25.8342 18.8453 25.9222 19.048C26.0102 19.2507 26.0542 19.476 26.0542 19.724C26.0542 19.9373 26.0222 20.1347 25.9582 20.316C25.8969 20.4973 25.8129 20.6707 25.7062 20.836C25.6022 21.0013 25.4796 21.1613 25.3382 21.316C25.1969 21.4707 25.0489 21.628 24.8942 21.788L23.5902 23.12C23.7156 23.0827 23.8396 23.0547 23.9622 23.036C24.0876 23.0147 24.2062 23.004 24.3182 23.004H25.8022Z" fill="#EEEEEE"/>
<path d="M34.4158 21.068H36.4878V21.892H34.4158V21.068Z" fill="#EEEEEE" fill-opacity="0.5"/>
<path d="M41.0842 23.156V23.896H37.8842V23.156H39.0562V19.784C39.0562 19.6507 39.0602 19.5133 39.0682 19.372L38.2362 20.068C38.1882 20.1053 38.1402 20.1293 38.0922 20.14C38.0469 20.148 38.0029 20.148 37.9602 20.14C37.9202 20.132 37.8842 20.1187 37.8522 20.1C37.8202 20.0787 37.7962 20.056 37.7802 20.032L37.4682 19.604L39.2322 18.104H40.0442V23.156H41.0842Z" fill="#EEEEEE" fill-opacity="0.5"/>
<rect x="46.25" y="42.75" width="13.5" height="12.5" fill="black" fill-opacity="0.1" stroke="#B422D9" stroke-width="0.5"/>
<path d="M55.12 49C55.12 49.504 55.0653 49.9427 54.956 50.316C54.8493 50.6867 54.7 50.9933 54.508 51.236C54.3187 51.4787 54.0933 51.66 53.832 51.78C53.5733 51.8973 53.2933 51.956 52.992 51.956C52.6907 51.956 52.4107 51.8973 52.152 51.78C51.896 51.66 51.6733 51.4787 51.484 51.236C51.2947 50.9933 51.1467 50.6867 51.04 50.316C50.9333 49.9427 50.88 49.504 50.88 49C50.88 48.4933 50.9333 48.0547 51.04 47.684C51.1467 47.3133 51.2947 47.0067 51.484 46.764C51.6733 46.5213 51.896 46.3413 52.152 46.224C52.4107 46.104 52.6907 46.044 52.992 46.044C53.2933 46.044 53.5733 46.104 53.832 46.224C54.0933 46.3413 54.3187 46.5213 54.508 46.764C54.7 47.0067 54.8493 47.3133 54.956 47.684C55.0653 48.0547 55.12 48.4933 55.12 49ZM54.1 49C54.1 48.5813 54.0693 48.2347 54.008 47.96C53.9467 47.6853 53.864 47.4667 53.76 47.304C53.6587 47.1413 53.5413 47.028 53.408 46.964C53.2747 46.8973 53.136 46.864 52.992 46.864C52.8507 46.864 52.7133 46.8973 52.58 46.964C52.4493 47.028 52.3333 47.1413 52.232 47.304C52.1307 47.4667 52.0493 47.6853 51.988 47.96C51.9293 48.2347 51.9 48.5813 51.9 49C51.9 49.4187 51.9293 49.7653 51.988 50.04C52.0493 50.3147 52.1307 50.5333 52.232 50.696C52.3333 50.8587 52.4493 50.9733 52.58 51.04C52.7133 51.104 52.8507 51.136 52.992 51.136C53.136 51.136 53.2747 51.104 53.408 51.04C53.5413 50.9733 53.6587 50.8587 53.76 50.696C53.864 50.5333 53.9467 50.3147 54.008 50.04C54.0693 49.7653 54.1 49.4187 54.1 49Z" fill="#EEEEEE"/>
<path d="M67.4457 49.576H65.8937V51.224H65.0897V49.576H63.5457V48.844H65.0897V47.204H65.8937V48.844H67.4457V49.576Z" fill="#EEEEEE" fill-opacity="0.5"/>
<path d="M71.9543 51.156V51.896H68.7543V51.156H69.9263V47.784C69.9263 47.6507 69.9303 47.5133 69.9383 47.372L69.1063 48.068C69.0583 48.1053 69.0103 48.1293 68.9623 48.14C68.9169 48.148 68.8729 48.148 68.8303 48.14C68.7903 48.132 68.7543 48.1187 68.7223 48.1C68.6903 48.0787 68.6663 48.056 68.6503 48.032L68.3383 47.604L70.1023 46.104H70.9143V51.156H71.9543Z" fill="#EEEEEE" fill-opacity="0.5"/>
<path d="M82.3797 49.604H80.8277V51.252H80.0237V49.604H78.4797V48.872H80.0237V47.232H80.8277V48.872H82.3797V49.604Z" fill="#EEEEEE" fill-opacity="0.5"/>
<path d="M86.6723 51.004C86.779 51.004 86.863 51.0347 86.9243 51.096C86.9883 51.1547 87.0203 51.2333 87.0203 51.332V51.924H83.0523V51.596C83.0523 51.5293 83.0656 51.46 83.0923 51.388C83.1216 51.3133 83.167 51.2467 83.2283 51.188L84.9843 49.428C85.131 49.2787 85.2616 49.136 85.3763 49C85.4936 48.864 85.591 48.7293 85.6683 48.596C85.7456 48.4627 85.8043 48.328 85.8443 48.192C85.887 48.0533 85.9083 47.908 85.9083 47.756C85.9083 47.6173 85.8883 47.496 85.8483 47.392C85.8083 47.2853 85.751 47.196 85.6763 47.124C85.6043 47.052 85.5163 46.9987 85.4123 46.964C85.311 46.9267 85.1963 46.908 85.0683 46.908C84.951 46.908 84.8416 46.9253 84.7403 46.96C84.6416 46.992 84.5536 47.0387 84.4763 47.1C84.399 47.1587 84.3336 47.228 84.2803 47.308C84.227 47.388 84.187 47.476 84.1603 47.572C84.115 47.6947 84.0563 47.776 83.9843 47.816C83.9123 47.856 83.8083 47.8653 83.6723 47.844L83.1523 47.752C83.1923 47.4747 83.2696 47.232 83.3843 47.024C83.499 46.8133 83.6416 46.6387 83.8123 46.5C83.9856 46.3587 84.183 46.2533 84.4043 46.184C84.6283 46.112 84.8683 46.076 85.1243 46.076C85.391 46.076 85.635 46.116 85.8563 46.196C86.0776 46.2733 86.267 46.384 86.4243 46.528C86.5816 46.672 86.7043 46.8453 86.7923 47.048C86.8803 47.2507 86.9243 47.476 86.9243 47.724C86.9243 47.9373 86.8923 48.1347 86.8283 48.316C86.767 48.4973 86.683 48.6707 86.5763 48.836C86.4723 49.0013 86.3496 49.1613 86.2083 49.316C86.067 49.4707 85.919 49.628 85.7643 49.788L84.4603 51.12C84.5856 51.0827 84.7096 51.0547 84.8323 51.036C84.9576 51.0147 85.0763 51.004 85.1883 51.004H86.6723Z" fill="#EEEEEE" fill-opacity="0.5"/>
<path d="M97.3837 49.572H95.8317V51.22H95.0277V49.572H93.4837V48.84H95.0277V47.2H95.8317V48.84H97.3837V49.572Z" fill="#EEEEEE" fill-opacity="0.5"/>
<path d="M98.1843 47.72C98.2243 47.4427 98.3017 47.2 98.4163 46.992C98.531 46.7813 98.6737 46.6067 98.8443 46.468C99.0177 46.3267 99.215 46.2213 99.4363 46.152C99.6603 46.08 99.9003 46.044 100.156 46.044C100.423 46.044 100.663 46.0827 100.876 46.16C101.092 46.2347 101.276 46.34 101.428 46.476C101.58 46.6093 101.696 46.7667 101.776 46.948C101.859 47.1293 101.9 47.3253 101.9 47.536C101.9 47.72 101.879 47.8827 101.836 48.024C101.796 48.1627 101.738 48.284 101.66 48.388C101.583 48.492 101.487 48.58 101.372 48.652C101.258 48.724 101.128 48.784 100.984 48.832C101.331 48.9413 101.59 49.108 101.76 49.332C101.931 49.556 102.016 49.8373 102.016 50.176C102.016 50.464 101.963 50.7187 101.856 50.94C101.75 51.1613 101.606 51.348 101.424 51.5C101.243 51.6493 101.032 51.7627 100.792 51.84C100.555 51.9173 100.303 51.956 100.036 51.956C99.7457 51.956 99.4923 51.9227 99.2763 51.856C99.0603 51.7893 98.8723 51.6907 98.7123 51.56C98.5523 51.4293 98.4163 51.2693 98.3043 51.08C98.1923 50.8907 98.0963 50.672 98.0163 50.424L98.4523 50.244C98.567 50.196 98.6737 50.184 98.7723 50.208C98.8737 50.2293 98.947 50.2827 98.9923 50.368C99.0403 50.4613 99.0923 50.5533 99.1483 50.644C99.207 50.7347 99.2763 50.816 99.3563 50.888C99.4363 50.9573 99.5297 51.0147 99.6363 51.06C99.7457 51.1027 99.875 51.124 100.024 51.124C100.192 51.124 100.339 51.0973 100.464 51.044C100.59 50.988 100.694 50.916 100.776 50.828C100.862 50.74 100.924 50.6427 100.964 50.536C101.007 50.4267 101.028 50.3173 101.028 50.208C101.028 50.0693 101.014 49.944 100.984 49.832C100.955 49.7173 100.894 49.62 100.8 49.54C100.707 49.46 100.572 49.3973 100.396 49.352C100.223 49.3067 99.9897 49.284 99.6963 49.284V48.58C99.939 48.5773 100.14 48.5547 100.3 48.512C100.46 48.4693 100.587 48.4107 100.68 48.336C100.776 48.2587 100.843 48.1667 100.88 48.06C100.918 47.9533 100.936 47.836 100.936 47.708C100.936 47.436 100.86 47.2293 100.708 47.088C100.556 46.9467 100.354 46.876 100.1 46.876C99.983 46.876 99.875 46.8933 99.7763 46.928C99.6777 46.96 99.5883 47.0067 99.5083 47.068C99.431 47.1267 99.3657 47.196 99.3123 47.276C99.259 47.356 99.219 47.444 99.1923 47.54C99.147 47.6627 99.087 47.744 99.0123 47.784C98.9403 47.824 98.8377 47.8333 98.7043 47.812L98.1843 47.72Z" fill="#EEEEEE" fill-opacity="0.5"/>
<path d="M4.35382 49.064H6.42582V49.888H4.35382V49.064Z" fill="#EEEEEE" fill-opacity="0.5"/>
<path d="M7.3142 47.72C7.3542 47.4427 7.43153 47.2 7.5462 46.992C7.66086 46.7813 7.80353 46.6067 7.9742 46.468C8.14753 46.3267 8.34486 46.2213 8.5662 46.152C8.7902 46.08 9.0302 46.044 9.2862 46.044C9.55286 46.044 9.79286 46.0827 10.0062 46.16C10.2222 46.2347 10.4062 46.34 10.5582 46.476C10.7102 46.6093 10.8262 46.7667 10.9062 46.948C10.9889 47.1293 11.0302 47.3253 11.0302 47.536C11.0302 47.72 11.0089 47.8827 10.9662 48.024C10.9262 48.1627 10.8675 48.284 10.7902 48.388C10.7129 48.492 10.6169 48.58 10.5022 48.652C10.3875 48.724 10.2582 48.784 10.1142 48.832C10.4609 48.9413 10.7195 49.108 10.8902 49.332C11.0609 49.556 11.1462 49.8373 11.1462 50.176C11.1462 50.464 11.0929 50.7187 10.9862 50.94C10.8795 51.1613 10.7355 51.348 10.5542 51.5C10.3729 51.6493 10.1622 51.7627 9.9222 51.84C9.68486 51.9173 9.43286 51.956 9.1662 51.956C8.87553 51.956 8.6222 51.9227 8.4062 51.856C8.1902 51.7893 8.0022 51.6907 7.8422 51.56C7.6822 51.4293 7.5462 51.2693 7.4342 51.08C7.3222 50.8907 7.2262 50.672 7.1462 50.424L7.5822 50.244C7.69686 50.196 7.80353 50.184 7.9022 50.208C8.00353 50.2293 8.07686 50.2827 8.1222 50.368C8.1702 50.4613 8.2222 50.5533 8.2782 50.644C8.33686 50.7347 8.4062 50.816 8.4862 50.888C8.5662 50.9573 8.65953 51.0147 8.7662 51.06C8.87553 51.1027 9.00486 51.124 9.1542 51.124C9.3222 51.124 9.46886 51.0973 9.5942 51.044C9.71953 50.988 9.82353 50.916 9.9062 50.828C9.99153 50.74 10.0542 50.6427 10.0942 50.536C10.1369 50.4267 10.1582 50.3173 10.1582 50.208C10.1582 50.0693 10.1435 49.944 10.1142 49.832C10.0849 49.7173 10.0235 49.62 9.9302 49.54C9.83686 49.46 9.7022 49.3973 9.5262 49.352C9.35286 49.3067 9.11953 49.284 8.8262 49.284V48.58C9.06886 48.5773 9.2702 48.5547 9.4302 48.512C9.5902 48.4693 9.71686 48.4107 9.8102 48.336C9.9062 48.2587 9.97286 48.1667 10.0102 48.06C10.0475 47.9533 10.0662 47.836 10.0662 47.708C10.0662 47.436 9.9902 47.2293 9.8382 47.088C9.6862 46.9467 9.48353 46.876 9.2302 46.876C9.11286 46.876 9.00486 46.8933 8.9062 46.928C8.80753 46.96 8.7182 47.0067 8.6382 47.068C8.56086 47.1267 8.49553 47.196 8.4422 47.276C8.38886 47.356 8.34886 47.444 8.3222 47.54C8.27686 47.6627 8.21686 47.744 8.1422 47.784C8.0702 47.824 7.96753 47.8333 7.8342 47.812L7.3142 47.72Z" fill="#EEEEEE" fill-opacity="0.5"/>
<path d="M19.3499 49.096H21.4219V49.92H19.3499V49.096Z" fill="#EEEEEE" fill-opacity="0.5"/>
<path d="M25.8022 51.004C25.9089 51.004 25.9929 51.0347 26.0542 51.096C26.1182 51.1547 26.1502 51.2333 26.1502 51.332V51.924H22.1822V51.596C22.1822 51.5293 22.1956 51.46 22.2222 51.388C22.2516 51.3133 22.2969 51.2467 22.3582 51.188L24.1142 49.428C24.2609 49.2787 24.3916 49.136 24.5062 49C24.6236 48.864 24.7209 48.7293 24.7982 48.596C24.8756 48.4627 24.9342 48.328 24.9742 48.192C25.0169 48.0533 25.0382 47.908 25.0382 47.756C25.0382 47.6173 25.0182 47.496 24.9782 47.392C24.9382 47.2853 24.8809 47.196 24.8062 47.124C24.7342 47.052 24.6462 46.9987 24.5422 46.964C24.4409 46.9267 24.3262 46.908 24.1982 46.908C24.0809 46.908 23.9716 46.9253 23.8702 46.96C23.7716 46.992 23.6836 47.0387 23.6062 47.1C23.5289 47.1587 23.4636 47.228 23.4102 47.308C23.3569 47.388 23.3169 47.476 23.2902 47.572C23.2449 47.6947 23.1862 47.776 23.1142 47.816C23.0422 47.856 22.9382 47.8653 22.8022 47.844L22.2822 47.752C22.3222 47.4747 22.3996 47.232 22.5142 47.024C22.6289 46.8133 22.7716 46.6387 22.9422 46.5C23.1156 46.3587 23.3129 46.2533 23.5342 46.184C23.7582 46.112 23.9982 46.076 24.2542 46.076C24.5209 46.076 24.7649 46.116 24.9862 46.196C25.2076 46.2733 25.3969 46.384 25.5542 46.528C25.7116 46.672 25.8342 46.8453 25.9222 47.048C26.0102 47.2507 26.0542 47.476 26.0542 47.724C26.0542 47.9373 26.0222 48.1347 25.9582 48.316C25.8969 48.4973 25.8129 48.6707 25.7062 48.836C25.6022 49.0013 25.4796 49.1613 25.3382 49.316C25.1969 49.4707 25.0489 49.628 24.8942 49.788L23.5902 51.12C23.7156 51.0827 23.8396 51.0547 23.9622 51.036C24.0876 51.0147 24.2062 51.004 24.3182 51.004H25.8022Z" fill="#EEEEEE" fill-opacity="0.5"/>
<path d="M34.4158 49.068H36.4878V49.892H34.4158V49.068Z" fill="#EEEEEE" fill-opacity="0.5"/>
<path d="M41.0842 51.156V51.896H37.8842V51.156H39.0562V47.784C39.0562 47.6507 39.0602 47.5133 39.0682 47.372L38.2362 48.068C38.1882 48.1053 38.1402 48.1293 38.0922 48.14C38.0469 48.148 38.0029 48.148 37.9602 48.14C37.9202 48.132 37.8842 48.1187 37.8522 48.1C37.8202 48.0787 37.7962 48.056 37.7802 48.032L37.4682 47.604L39.2322 46.104H40.0442V51.156H41.0842Z" fill="#EEEEEE" fill-opacity="0.5"/>
<rect x="31.25" y="28.75" width="13.5" height="12.5" fill="black" fill-opacity="0.1" stroke="#B422D9" stroke-width="0.5"/>
<path d="M55.12 35C55.12 35.504 55.0653 35.9427 54.956 36.316C54.8493 36.6867 54.7 36.9933 54.508 37.236C54.3187 37.4787 54.0933 37.66 53.832 37.78C53.5733 37.8973 53.2933 37.956 52.992 37.956C52.6907 37.956 52.4107 37.8973 52.152 37.78C51.896 37.66 51.6733 37.4787 51.484 37.236C51.2947 36.9933 51.1467 36.6867 51.04 36.316C50.9333 35.9427 50.88 35.504 50.88 35C50.88 34.4933 50.9333 34.0547 51.04 33.684C51.1467 33.3133 51.2947 33.0067 51.484 32.764C51.6733 32.5213 51.896 32.3413 52.152 32.224C52.4107 32.104 52.6907 32.044 52.992 32.044C53.2933 32.044 53.5733 32.104 53.832 32.224C54.0933 32.3413 54.3187 32.5213 54.508 32.764C54.7 33.0067 54.8493 33.3133 54.956 33.684C55.0653 34.0547 55.12 34.4933 55.12 35ZM54.1 35C54.1 34.5813 54.0693 34.2347 54.008 33.96C53.9467 33.6853 53.864 33.4667 53.76 33.304C53.6587 33.1413 53.5413 33.028 53.408 32.964C53.2747 32.8973 53.136 32.864 52.992 32.864C52.8507 32.864 52.7133 32.8973 52.58 32.964C52.4493 33.028 52.3333 33.1413 52.232 33.304C52.1307 33.4667 52.0493 33.6853 51.988 33.96C51.9293 34.2347 51.9 34.5813 51.9 35C51.9 35.4187 51.9293 35.7653 51.988 36.04C52.0493 36.3147 52.1307 36.5333 52.232 36.696C52.3333 36.8587 52.4493 36.9733 52.58 37.04C52.7133 37.104 52.8507 37.136 52.992 37.136C53.136 37.136 53.2747 37.104 53.408 37.04C53.5413 36.9733 53.6587 36.8587 53.76 36.696C53.864 36.5333 53.9467 36.3147 54.008 36.04C54.0693 35.7653 54.1 35.4187 54.1 35Z" fill="#EEEEEE" fill-opacity="0.5"/>
<path d="M67.4457 35.576H65.8937V37.224H65.0897V35.576H63.5457V34.844H65.0897V33.204H65.8937V34.844H67.4457V35.576Z" fill="#EEEEEE" fill-opacity="0.5"/>
<path d="M71.9543 37.156V37.896H68.7543V37.156H69.9263V33.784C69.9263 33.6507 69.9303 33.5133 69.9383 33.372L69.1063 34.068C69.0583 34.1053 69.0103 34.1293 68.9623 34.14C68.9169 34.148 68.8729 34.148 68.8303 34.14C68.7903 34.132 68.7543 34.1187 68.7223 34.1C68.6903 34.0787 68.6663 34.056 68.6503 34.032L68.3383 33.604L70.1023 32.104H70.9143V37.156H71.9543Z" fill="#EEEEEE" fill-opacity="0.5"/>
<path d="M82.3797 35.604H80.8277V37.252H80.0237V35.604H78.4797V34.872H80.0237V33.232H80.8277V34.872H82.3797V35.604Z" fill="#EEEEEE" fill-opacity="0.5"/>
<path d="M86.6723 37.004C86.779 37.004 86.863 37.0347 86.9243 37.096C86.9883 37.1547 87.0203 37.2333 87.0203 37.332V37.924H83.0523V37.596C83.0523 37.5293 83.0656 37.46 83.0923 37.388C83.1216 37.3133 83.167 37.2467 83.2283 37.188L84.9843 35.428C85.131 35.2787 85.2616 35.136 85.3763 35C85.4936 34.864 85.591 34.7293 85.6683 34.596C85.7456 34.4627 85.8043 34.328 85.8443 34.192C85.887 34.0533 85.9083 33.908 85.9083 33.756C85.9083 33.6173 85.8883 33.496 85.8483 33.392C85.8083 33.2853 85.751 33.196 85.6763 33.124C85.6043 33.052 85.5163 32.9987 85.4123 32.964C85.311 32.9267 85.1963 32.908 85.0683 32.908C84.951 32.908 84.8416 32.9253 84.7403 32.96C84.6416 32.992 84.5536 33.0387 84.4763 33.1C84.399 33.1587 84.3336 33.228 84.2803 33.308C84.227 33.388 84.187 33.476 84.1603 33.572C84.115 33.6947 84.0563 33.776 83.9843 33.816C83.9123 33.856 83.8083 33.8653 83.6723 33.844L83.1523 33.752C83.1923 33.4747 83.2696 33.232 83.3843 33.024C83.499 32.8133 83.6416 32.6387 83.8123 32.5C83.9856 32.3587 84.183 32.2533 84.4043 32.184C84.6283 32.112 84.8683 32.076 85.1243 32.076C85.391 32.076 85.635 32.116 85.8563 32.196C86.0776 32.2733 86.267 32.384 86.4243 32.528C86.5816 32.672 86.7043 32.8453 86.7923 33.048C86.8803 33.2507 86.9243 33.476 86.9243 33.724C86.9243 33.9373 86.8923 34.1347 86.8283 34.316C86.767 34.4973 86.683 34.6707 86.5763 34.836C86.4723 35.0013 86.3496 35.1613 86.2083 35.316C86.067 35.4707 85.919 35.628 85.7643 35.788L84.4603 37.12C84.5856 37.0827 84.7096 37.0547 84.8323 37.036C84.9576 37.0147 85.0763 37.004 85.1883 37.004H86.6723Z" fill="#EEEEEE" fill-opacity="0.5"/>
<path d="M97.3837 35.572H95.8317V37.22H95.0277V35.572H93.4837V34.84H95.0277V33.2H95.8317V34.84H97.3837V35.572Z" fill="#EEEEEE" fill-opacity="0.5"/>
<path d="M98.1843 33.72C98.2243 33.4427 98.3017 33.2 98.4163 32.992C98.531 32.7813 98.6737 32.6067 98.8443 32.468C99.0177 32.3267 99.215 32.2213 99.4363 32.152C99.6603 32.08 99.9003 32.044 100.156 32.044C100.423 32.044 100.663 32.0827 100.876 32.16C101.092 32.2347 101.276 32.34 101.428 32.476C101.58 32.6093 101.696 32.7667 101.776 32.948C101.859 33.1293 101.9 33.3253 101.9 33.536C101.9 33.72 101.879 33.8827 101.836 34.024C101.796 34.1627 101.738 34.284 101.66 34.388C101.583 34.492 101.487 34.58 101.372 34.652C101.258 34.724 101.128 34.784 100.984 34.832C101.331 34.9413 101.59 35.108 101.76 35.332C101.931 35.556 102.016 35.8373 102.016 36.176C102.016 36.464 101.963 36.7187 101.856 36.94C101.75 37.1613 101.606 37.348 101.424 37.5C101.243 37.6493 101.032 37.7627 100.792 37.84C100.555 37.9173 100.303 37.956 100.036 37.956C99.7457 37.956 99.4923 37.9227 99.2763 37.856C99.0603 37.7893 98.8723 37.6907 98.7123 37.56C98.5523 37.4293 98.4163 37.2693 98.3043 37.08C98.1923 36.8907 98.0963 36.672 98.0163 36.424L98.4523 36.244C98.567 36.196 98.6737 36.184 98.7723 36.208C98.8737 36.2293 98.947 36.2827 98.9923 36.368C99.0403 36.4613 99.0923 36.5533 99.1483 36.644C99.207 36.7347 99.2763 36.816 99.3563 36.888C99.4363 36.9573 99.5297 37.0147 99.6363 37.06C99.7457 37.1027 99.875 37.124 100.024 37.124C100.192 37.124 100.339 37.0973 100.464 37.044C100.59 36.988 100.694 36.916 100.776 36.828C100.862 36.74 100.924 36.6427 100.964 36.536C101.007 36.4267 101.028 36.3173 101.028 36.208C101.028 36.0693 101.014 35.944 100.984 35.832C100.955 35.7173 100.894 35.62 100.8 35.54C100.707 35.46 100.572 35.3973 100.396 35.352C100.223 35.3067 99.9897 35.284 99.6963 35.284V34.58C99.939 34.5773 100.14 34.5547 100.3 34.512C100.46 34.4693 100.587 34.4107 100.68 34.336C100.776 34.2587 100.843 34.1667 100.88 34.06C100.918 33.9533 100.936 33.836 100.936 33.708C100.936 33.436 100.86 33.2293 100.708 33.088C100.556 32.9467 100.354 32.876 100.1 32.876C99.983 32.876 99.875 32.8933 99.7763 32.928C99.6777 32.96 99.5883 33.0067 99.5083 33.068C99.431 33.1267 99.3657 33.196 99.3123 33.276C99.259 33.356 99.219 33.444 99.1923 33.54C99.147 33.6627 99.087 33.744 99.0123 33.784C98.9403 33.824 98.8377 33.8333 98.7043 33.812L98.1843 33.72Z" fill="#EEEEEE" fill-opacity="0.5"/>
<path d="M4.35382 35.064H6.42582V35.888H4.35382V35.064Z" fill="#EEEEEE" fill-opacity="0.5"/>
<path d="M7.3142 33.72C7.3542 33.4427 7.43153 33.2 7.5462 32.992C7.66086 32.7813 7.80353 32.6067 7.9742 32.468C8.14753 32.3267 8.34486 32.2213 8.5662 32.152C8.7902 32.08 9.0302 32.044 9.2862 32.044C9.55286 32.044 9.79286 32.0827 10.0062 32.16C10.2222 32.2347 10.4062 32.34 10.5582 32.476C10.7102 32.6093 10.8262 32.7667 10.9062 32.948C10.9889 33.1293 11.0302 33.3253 11.0302 33.536C11.0302 33.72 11.0089 33.8827 10.9662 34.024C10.9262 34.1627 10.8675 34.284 10.7902 34.388C10.7129 34.492 10.6169 34.58 10.5022 34.652C10.3875 34.724 10.2582 34.784 10.1142 34.832C10.4609 34.9413 10.7195 35.108 10.8902 35.332C11.0609 35.556 11.1462 35.8373 11.1462 36.176C11.1462 36.464 11.0929 36.7187 10.9862 36.94C10.8795 37.1613 10.7355 37.348 10.5542 37.5C10.3729 37.6493 10.1622 37.7627 9.9222 37.84C9.68486 37.9173 9.43286 37.956 9.1662 37.956C8.87553 37.956 8.6222 37.9227 8.4062 37.856C8.1902 37.7893 8.0022 37.6907 7.8422 37.56C7.6822 37.4293 7.5462 37.2693 7.4342 37.08C7.3222 36.8907 7.2262 36.672 7.1462 36.424L7.5822 36.244C7.69686 36.196 7.80353 36.184 7.9022 36.208C8.00353 36.2293 8.07686 36.2827 8.1222 36.368C8.1702 36.4613 8.2222 36.5533 8.2782 36.644C8.33686 36.7347 8.4062 36.816 8.4862 36.888C8.5662 36.9573 8.65953 37.0147 8.7662 37.06C8.87553 37.1027 9.00486 37.124 9.1542 37.124C9.3222 37.124 9.46886 37.0973 9.5942 37.044C9.71953 36.988 9.82353 36.916 9.9062 36.828C9.99153 36.74 10.0542 36.6427 10.0942 36.536C10.1369 36.4267 10.1582 36.3173 10.1582 36.208C10.1582 36.0693 10.1435 35.944 10.1142 35.832C10.0849 35.7173 10.0235 35.62 9.9302 35.54C9.83686 35.46 9.7022 35.3973 9.5262 35.352C9.35286 35.3067 9.11953 35.284 8.8262 35.284V34.58C9.06886 34.5773 9.2702 34.5547 9.4302 34.512C9.5902 34.4693 9.71686 34.4107 9.8102 34.336C9.9062 34.2587 9.97286 34.1667 10.0102 34.06C10.0475 33.9533 10.0662 33.836 10.0662 33.708C10.0662 33.436 9.9902 33.2293 9.8382 33.088C9.6862 32.9467 9.48353 32.876 9.2302 32.876C9.11286 32.876 9.00486 32.8933 8.9062 32.928C8.80753 32.96 8.7182 33.0067 8.6382 33.068C8.56086 33.1267 8.49553 33.196 8.4422 33.276C8.38886 33.356 8.34886 33.444 8.3222 33.54C8.27686 33.6627 8.21686 33.744 8.1422 33.784C8.0702 33.824 7.96753 33.8333 7.8342 33.812L7.3142 33.72Z" fill="#EEEEEE" fill-opacity="0.5"/>
<path d="M19.3499 35.096H21.4219V35.92H19.3499V35.096Z" fill="#EEEEEE" fill-opacity="0.5"/>
<path d="M25.8022 37.004C25.9089 37.004 25.9929 37.0347 26.0542 37.096C26.1182 37.1547 26.1502 37.2333 26.1502 37.332V37.924H22.1822V37.596C22.1822 37.5293 22.1956 37.46 22.2222 37.388C22.2516 37.3133 22.2969 37.2467 22.3582 37.188L24.1142 35.428C24.2609 35.2787 24.3916 35.136 24.5062 35C24.6236 34.864 24.7209 34.7293 24.7982 34.596C24.8756 34.4627 24.9342 34.328 24.9742 34.192C25.0169 34.0533 25.0382 33.908 25.0382 33.756C25.0382 33.6173 25.0182 33.496 24.9782 33.392C24.9382 33.2853 24.8809 33.196 24.8062 33.124C24.7342 33.052 24.6462 32.9987 24.5422 32.964C24.4409 32.9267 24.3262 32.908 24.1982 32.908C24.0809 32.908 23.9716 32.9253 23.8702 32.96C23.7716 32.992 23.6836 33.0387 23.6062 33.1C23.5289 33.1587 23.4636 33.228 23.4102 33.308C23.3569 33.388 23.3169 33.476 23.2902 33.572C23.2449 33.6947 23.1862 33.776 23.1142 33.816C23.0422 33.856 22.9382 33.8653 22.8022 33.844L22.2822 33.752C22.3222 33.4747 22.3996 33.232 22.5142 33.024C22.6289 32.8133 22.7716 32.6387 22.9422 32.5C23.1156 32.3587 23.3129 32.2533 23.5342 32.184C23.7582 32.112 23.9982 32.076 24.2542 32.076C24.5209 32.076 24.7649 32.116 24.9862 32.196C25.2076 32.2733 25.3969 32.384 25.5542 32.528C25.7116 32.672 25.8342 32.8453 25.9222 33.048C26.0102 33.2507 26.0542 33.476 26.0542 33.724C26.0542 33.9373 26.0222 34.1347 25.9582 34.316C25.8969 34.4973 25.8129 34.6707 25.7062 34.836C25.6022 35.0013 25.4796 35.1613 25.3382 35.316C25.1969 35.4707 25.0489 35.628 24.8942 35.788L23.5902 37.12C23.7156 37.0827 23.8396 37.0547 23.9622 37.036C24.0876 37.0147 24.2062 37.004 24.3182 37.004H25.8022Z" fill="#EEEEEE" fill-opacity="0.5"/>
<path d="M34.4158 35.068H36.4878V35.892H34.4158V35.068Z" fill="#EEEEEE"/>
<path d="M41.0842 37.156V37.896H37.8842V37.156H39.0562V33.784C39.0562 33.6507 39.0602 33.5133 39.0682 33.372L38.2362 34.068C38.1882 34.1053 38.1402 34.1293 38.0922 34.14C38.0469 34.148 38.0029 34.148 37.9602 34.14C37.9202 34.132 37.8842 34.1187 37.8522 34.1C37.8202 34.0787 37.7962 34.056 37.7802 34.032L37.4682 33.604L39.2322 32.104H40.0442V37.156H41.0842Z" fill="#EEEEEE"/>
<rect x="61.25" y="56.75" width="13.5" height="12.5" fill="black" fill-opacity="0.1" stroke="#B422D9" stroke-width="0.5"/>
<path d="M55.12 63C55.12 63.504 55.0653 63.9427 54.956 64.316C54.8493 64.6867 54.7 64.9933 54.508 65.236C54.3187 65.4787 54.0933 65.66 53.832 65.78C53.5733 65.8973 53.2933 65.956 52.992 65.956C52.6907 65.956 52.4107 65.8973 52.152 65.78C51.896 65.66 51.6733 65.4787 51.484 65.236C51.2947 64.9933 51.1467 64.6867 51.04 64.316C50.9333 63.9427 50.88 63.504 50.88 63C50.88 62.4933 50.9333 62.0547 51.04 61.684C51.1467 61.3133 51.2947 61.0067 51.484 60.764C51.6733 60.5213 51.896 60.3413 52.152 60.224C52.4107 60.104 52.6907 60.044 52.992 60.044C53.2933 60.044 53.5733 60.104 53.832 60.224C54.0933 60.3413 54.3187 60.5213 54.508 60.764C54.7 61.0067 54.8493 61.3133 54.956 61.684C55.0653 62.0547 55.12 62.4933 55.12 63ZM54.1 63C54.1 62.5813 54.0693 62.2347 54.008 61.96C53.9467 61.6853 53.864 61.4667 53.76 61.304C53.6587 61.1413 53.5413 61.028 53.408 60.964C53.2747 60.8973 53.136 60.864 52.992 60.864C52.8507 60.864 52.7133 60.8973 52.58 60.964C52.4493 61.028 52.3333 61.1413 52.232 61.304C52.1307 61.4667 52.0493 61.6853 51.988 61.96C51.9293 62.2347 51.9 62.5813 51.9 63C51.9 63.4187 51.9293 63.7653 51.988 64.04C52.0493 64.3147 52.1307 64.5333 52.232 64.696C52.3333 64.8587 52.4493 64.9733 52.58 65.04C52.7133 65.104 52.8507 65.136 52.992 65.136C53.136 65.136 53.2747 65.104 53.408 65.04C53.5413 64.9733 53.6587 64.8587 53.76 64.696C53.864 64.5333 53.9467 64.3147 54.008 64.04C54.0693 63.7653 54.1 63.4187 54.1 63Z" fill="#EEEEEE" fill-opacity="0.5"/>
<path d="M67.4457 63.576H65.8937V65.224H65.0897V63.576H63.5457V62.844H65.0897V61.204H65.8937V62.844H67.4457V63.576Z" fill="#EEEEEE"/>
<path d="M71.9543 65.156V65.896H68.7543V65.156H69.9263V61.784C69.9263 61.6507 69.9303 61.5133 69.9383 61.372L69.1063 62.068C69.0583 62.1053 69.0103 62.1293 68.9623 62.14C68.9169 62.148 68.8729 62.148 68.8303 62.14C68.7903 62.132 68.7543 62.1187 68.7223 62.1C68.6903 62.0787 68.6663 62.056 68.6503 62.032L68.3383 61.604L70.1023 60.104H70.9143V65.156H71.9543Z" fill="#EEEEEE"/>
<path d="M82.3797 63.604H80.8277V65.252H80.0237V63.604H78.4797V62.872H80.0237V61.232H80.8277V62.872H82.3797V63.604Z" fill="#EEEEEE" fill-opacity="0.5"/>
<path d="M86.6723 65.004C86.779 65.004 86.863 65.0347 86.9243 65.096C86.9883 65.1547 87.0203 65.2333 87.0203 65.332V65.924H83.0523V65.596C83.0523 65.5293 83.0656 65.46 83.0923 65.388C83.1216 65.3133 83.167 65.2467 83.2283 65.188L84.9843 63.428C85.131 63.2787 85.2616 63.136 85.3763 63C85.4936 62.864 85.591 62.7293 85.6683 62.596C85.7456 62.4627 85.8043 62.328 85.8443 62.192C85.887 62.0533 85.9083 61.908 85.9083 61.756C85.9083 61.6173 85.8883 61.496 85.8483 61.392C85.8083 61.2853 85.751 61.196 85.6763 61.124C85.6043 61.052 85.5163 60.9987 85.4123 60.964C85.311 60.9267 85.1963 60.908 85.0683 60.908C84.951 60.908 84.8416 60.9253 84.7403 60.96C84.6416 60.992 84.5536 61.0387 84.4763 61.1C84.399 61.1587 84.3336 61.228 84.2803 61.308C84.227 61.388 84.187 61.476 84.1603 61.572C84.115 61.6947 84.0563 61.776 83.9843 61.816C83.9123 61.856 83.8083 61.8653 83.6723 61.844L83.1523 61.752C83.1923 61.4747 83.2696 61.232 83.3843 61.024C83.499 60.8133 83.6416 60.6387 83.8123 60.5C83.9856 60.3587 84.183 60.2533 84.4043 60.184C84.6283 60.112 84.8683 60.076 85.1243 60.076C85.391 60.076 85.635 60.116 85.8563 60.196C86.0776 60.2733 86.267 60.384 86.4243 60.528C86.5816 60.672 86.7043 60.8453 86.7923 61.048C86.8803 61.2507 86.9243 61.476 86.9243 61.724C86.9243 61.9373 86.8923 62.1347 86.8283 62.316C86.767 62.4973 86.683 62.6707 86.5763 62.836C86.4723 63.0013 86.3496 63.1613 86.2083 63.316C86.067 63.4707 85.919 63.628 85.7643 63.788L84.4603 65.12C84.5856 65.0827 84.7096 65.0547 84.8323 65.036C84.9576 65.0147 85.0763 65.004 85.1883 65.004H86.6723Z" fill="#EEEEEE" fill-opacity="0.5"/>
<path d="M97.3837 63.572H95.8317V65.22H95.0277V63.572H93.4837V62.84H95.0277V61.2H95.8317V62.84H97.3837V63.572Z" fill="#EEEEEE" fill-opacity="0.5"/>
<path d="M98.1843 61.72C98.2243 61.4427 98.3017 61.2 98.4163 60.992C98.531 60.7813 98.6737 60.6067 98.8443 60.468C99.0177 60.3267 99.215 60.2213 99.4363 60.152C99.6603 60.08 99.9003 60.044 100.156 60.044C100.423 60.044 100.663 60.0827 100.876 60.16C101.092 60.2347 101.276 60.34 101.428 60.476C101.58 60.6093 101.696 60.7667 101.776 60.948C101.859 61.1293 101.9 61.3253 101.9 61.536C101.9 61.72 101.879 61.8827 101.836 62.024C101.796 62.1627 101.738 62.284 101.66 62.388C101.583 62.492 101.487 62.58 101.372 62.652C101.258 62.724 101.128 62.784 100.984 62.832C101.331 62.9413 101.59 63.108 101.76 63.332C101.931 63.556 102.016 63.8373 102.016 64.176C102.016 64.464 101.963 64.7187 101.856 64.94C101.75 65.1613 101.606 65.348 101.424 65.5C101.243 65.6493 101.032 65.7627 100.792 65.84C100.555 65.9173 100.303 65.956 100.036 65.956C99.7457 65.956 99.4923 65.9227 99.2763 65.856C99.0603 65.7893 98.8723 65.6907 98.7123 65.56C98.5523 65.4293 98.4163 65.2693 98.3043 65.08C98.1923 64.8907 98.0963 64.672 98.0163 64.424L98.4523 64.244C98.567 64.196 98.6737 64.184 98.7723 64.208C98.8737 64.2293 98.947 64.2827 98.9923 64.368C99.0403 64.4613 99.0923 64.5533 99.1483 64.644C99.207 64.7347 99.2763 64.816 99.3563 64.888C99.4363 64.9573 99.5297 65.0147 99.6363 65.06C99.7457 65.1027 99.875 65.124 100.024 65.124C100.192 65.124 100.339 65.0973 100.464 65.044C100.59 64.988 100.694 64.916 100.776 64.828C100.862 64.74 100.924 64.6427 100.964 64.536C101.007 64.4267 101.028 64.3173 101.028 64.208C101.028 64.0693 101.014 63.944 100.984 63.832C100.955 63.7173 100.894 63.62 100.8 63.54C100.707 63.46 100.572 63.3973 100.396 63.352C100.223 63.3067 99.9897 63.284 99.6963 63.284V62.58C99.939 62.5773 100.14 62.5547 100.3 62.512C100.46 62.4693 100.587 62.4107 100.68 62.336C100.776 62.2587 100.843 62.1667 100.88 62.06C100.918 61.9533 100.936 61.836 100.936 61.708C100.936 61.436 100.86 61.2293 100.708 61.088C100.556 60.9467 100.354 60.876 100.1 60.876C99.983 60.876 99.875 60.8933 99.7763 60.928C99.6777 60.96 99.5883 61.0067 99.5083 61.068C99.431 61.1267 99.3657 61.196 99.3123 61.276C99.259 61.356 99.219 61.444 99.1923 61.54C99.147 61.6627 99.087 61.744 99.0123 61.784C98.9403 61.824 98.8377 61.8333 98.7043 61.812L98.1843 61.72Z" fill="#EEEEEE" fill-opacity="0.5"/>
<path d="M4.35382 63.064H6.42582V63.888H4.35382V63.064Z" fill="#EEEEEE" fill-opacity="0.5"/>
<path d="M7.3142 61.72C7.3542 61.4427 7.43153 61.2 7.5462 60.992C7.66086 60.7813 7.80353 60.6067 7.9742 60.468C8.14753 60.3267 8.34486 60.2213 8.5662 60.152C8.7902 60.08 9.0302 60.044 9.2862 60.044C9.55286 60.044 9.79286 60.0827 10.0062 60.16C10.2222 60.2347 10.4062 60.34 10.5582 60.476C10.7102 60.6093 10.8262 60.7667 10.9062 60.948C10.9889 61.1293 11.0302 61.3253 11.0302 61.536C11.0302 61.72 11.0089 61.8827 10.9662 62.024C10.9262 62.1627 10.8675 62.284 10.7902 62.388C10.7129 62.492 10.6169 62.58 10.5022 62.652C10.3875 62.724 10.2582 62.784 10.1142 62.832C10.4609 62.9413 10.7195 63.108 10.8902 63.332C11.0609 63.556 11.1462 63.8373 11.1462 64.176C11.1462 64.464 11.0929 64.7187 10.9862 64.94C10.8795 65.1613 10.7355 65.348 10.5542 65.5C10.3729 65.6493 10.1622 65.7627 9.9222 65.84C9.68486 65.9173 9.43286 65.956 9.1662 65.956C8.87553 65.956 8.6222 65.9227 8.4062 65.856C8.1902 65.7893 8.0022 65.6907 7.8422 65.56C7.6822 65.4293 7.5462 65.2693 7.4342 65.08C7.3222 64.8907 7.2262 64.672 7.1462 64.424L7.5822 64.244C7.69686 64.196 7.80353 64.184 7.9022 64.208C8.00353 64.2293 8.07686 64.2827 8.1222 64.368C8.1702 64.4613 8.2222 64.5533 8.2782 64.644C8.33686 64.7347 8.4062 64.816 8.4862 64.888C8.5662 64.9573 8.65953 65.0147 8.7662 65.06C8.87553 65.1027 9.00486 65.124 9.1542 65.124C9.3222 65.124 9.46886 65.0973 9.5942 65.044C9.71953 64.988 9.82353 64.916 9.9062 64.828C9.99153 64.74 10.0542 64.6427 10.0942 64.536C10.1369 64.4267 10.1582 64.3173 10.1582 64.208C10.1582 64.0693 10.1435 63.944 10.1142 63.832C10.0849 63.7173 10.0235 63.62 9.9302 63.54C9.83686 63.46 9.7022 63.3973 9.5262 63.352C9.35286 63.3067 9.11953 63.284 8.8262 63.284V62.58C9.06886 62.5773 9.2702 62.5547 9.4302 62.512C9.5902 62.4693 9.71686 62.4107 9.8102 62.336C9.9062 62.2587 9.97286 62.1667 10.0102 62.06C10.0475 61.9533 10.0662 61.836 10.0662 61.708C10.0662 61.436 9.9902 61.2293 9.8382 61.088C9.6862 60.9467 9.48353 60.876 9.2302 60.876C9.11286 60.876 9.00486 60.8933 8.9062 60.928C8.80753 60.96 8.7182 61.0067 8.6382 61.068C8.56086 61.1267 8.49553 61.196 8.4422 61.276C8.38886 61.356 8.34886 61.444 8.3222 61.54C8.27686 61.6627 8.21686 61.744 8.1422 61.784C8.0702 61.824 7.96753 61.8333 7.8342 61.812L7.3142 61.72Z" fill="#EEEEEE" fill-opacity="0.5"/>
<path d="M19.3499 63.096H21.4219V63.92H19.3499V63.096Z" fill="#EEEEEE" fill-opacity="0.5"/>
<path d="M25.8022 65.004C25.9089 65.004 25.9929 65.0347 26.0542 65.096C26.1182 65.1547 26.1502 65.2333 26.1502 65.332V65.924H22.1822V65.596C22.1822 65.5293 22.1956 65.46 22.2222 65.388C22.2516 65.3133 22.2969 65.2467 22.3582 65.188L24.1142 63.428C24.2609 63.2787 24.3916 63.136 24.5062 63C24.6236 62.864 24.7209 62.7293 24.7982 62.596C24.8756 62.4627 24.9342 62.328 24.9742 62.192C25.0169 62.0533 25.0382 61.908 25.0382 61.756C25.0382 61.6173 25.0182 61.496 24.9782 61.392C24.9382 61.2853 24.8809 61.196 24.8062 61.124C24.7342 61.052 24.6462 60.9987 24.5422 60.964C24.4409 60.9267 24.3262 60.908 24.1982 60.908C24.0809 60.908 23.9716 60.9253 23.8702 60.96C23.7716 60.992 23.6836 61.0387 23.6062 61.1C23.5289 61.1587 23.4636 61.228 23.4102 61.308C23.3569 61.388 23.3169 61.476 23.2902 61.572C23.2449 61.6947 23.1862 61.776 23.1142 61.816C23.0422 61.856 22.9382 61.8653 22.8022 61.844L22.2822 61.752C22.3222 61.4747 22.3996 61.232 22.5142 61.024C22.6289 60.8133 22.7716 60.6387 22.9422 60.5C23.1156 60.3587 23.3129 60.2533 23.5342 60.184C23.7582 60.112 23.9982 60.076 24.2542 60.076C24.5209 60.076 24.7649 60.116 24.9862 60.196C25.2076 60.2733 25.3969 60.384 25.5542 60.528C25.7116 60.672 25.8342 60.8453 25.9222 61.048C26.0102 61.2507 26.0542 61.476 26.0542 61.724C26.0542 61.9373 26.0222 62.1347 25.9582 62.316C25.8969 62.4973 25.8129 62.6707 25.7062 62.836C25.6022 63.0013 25.4796 63.1613 25.3382 63.316C25.1969 63.4707 25.0489 63.628 24.8942 63.788L23.5902 65.12C23.7156 65.0827 23.8396 65.0547 23.9622 65.036C24.0876 65.0147 24.2062 65.004 24.3182 65.004H25.8022Z" fill="#EEEEEE" fill-opacity="0.5"/>
<path d="M34.4158 63.068H36.4878V63.892H34.4158V63.068Z" fill="#EEEEEE" fill-opacity="0.5"/>
<path d="M41.0842 65.156V65.896H37.8842V65.156H39.0562V61.784C39.0562 61.6507 39.0602 61.5133 39.0682 61.372L38.2362 62.068C38.1882 62.1053 38.1402 62.1293 38.0922 62.14C38.0469 62.148 38.0029 62.148 37.9602 62.14C37.9202 62.132 37.8842 62.1187 37.8522 62.1C37.8202 62.0787 37.7962 62.056 37.7802 62.032L37.4682 61.604L39.2322 60.104H40.0442V65.156H41.0842Z" fill="#EEEEEE" fill-opacity="0.5"/>
<rect x="91.25" y="84.75" width="13.5" height="12.5" fill="black" fill-opacity="0.1" stroke="#B422D9" stroke-width="0.5"/>
<path d="M55.12 91C55.12 91.504 55.0653 91.9427 54.956 92.316C54.8493 92.6867 54.7 92.9933 54.508 93.236C54.3187 93.4787 54.0933 93.66 53.832 93.78C53.5733 93.8973 53.2933 93.956 52.992 93.956C52.6907 93.956 52.4107 93.8973 52.152 93.78C51.896 93.66 51.6733 93.4787 51.484 93.236C51.2947 92.9933 51.1467 92.6867 51.04 92.316C50.9333 91.9427 50.88 91.504 50.88 91C50.88 90.4933 50.9333 90.0547 51.04 89.684C51.1467 89.3133 51.2947 89.0067 51.484 88.764C51.6733 88.5213 51.896 88.3413 52.152 88.224C52.4107 88.104 52.6907 88.044 52.992 88.044C53.2933 88.044 53.5733 88.104 53.832 88.224C54.0933 88.3413 54.3187 88.5213 54.508 88.764C54.7 89.0067 54.8493 89.3133 54.956 89.684C55.0653 90.0547 55.12 90.4933 55.12 91ZM54.1 91C54.1 90.5813 54.0693 90.2347 54.008 89.96C53.9467 89.6853 53.864 89.4667 53.76 89.304C53.6587 89.1413 53.5413 89.028 53.408 88.964C53.2747 88.8973 53.136 88.864 52.992 88.864C52.8507 88.864 52.7133 88.8973 52.58 88.964C52.4493 89.028 52.3333 89.1413 52.232 89.304C52.1307 89.4667 52.0493 89.6853 51.988 89.96C51.9293 90.2347 51.9 90.5813 51.9 91C51.9 91.4187 51.9293 91.7653 51.988 92.04C52.0493 92.3147 52.1307 92.5333 52.232 92.696C52.3333 92.8587 52.4493 92.9733 52.58 93.04C52.7133 93.104 52.8507 93.136 52.992 93.136C53.136 93.136 53.2747 93.104 53.408 93.04C53.5413 92.9733 53.6587 92.8587 53.76 92.696C53.864 92.5333 53.9467 92.3147 54.008 92.04C54.0693 91.7653 54.1 91.4187 54.1 91Z" fill="#EEEEEE" fill-opacity="0.5"/>
<path d="M67.4457 91.576H65.8937V93.224H65.0897V91.576H63.5457V90.844H65.0897V89.204H65.8937V90.844H67.4457V91.576Z" fill="#EEEEEE" fill-opacity="0.5"/>
<path d="M71.9543 93.156V93.896H68.7543V93.156H69.9263V89.784C69.9263 89.6507 69.9303 89.5133 69.9383 89.372L69.1063 90.068C69.0583 90.1053 69.0103 90.1293 68.9623 90.14C68.9169 90.148 68.8729 90.148 68.8303 90.14C68.7903 90.132 68.7543 90.1187 68.7223 90.1C68.6903 90.0787 68.6663 90.056 68.6503 90.032L68.3383 89.604L70.1023 88.104H70.9143V93.156H71.9543Z" fill="#EEEEEE" fill-opacity="0.5"/>
<path d="M82.3797 91.604H80.8277V93.252H80.0237V91.604H78.4797V90.872H80.0237V89.232H80.8277V90.872H82.3797V91.604Z" fill="#EEEEEE" fill-opacity="0.5"/>
<path d="M86.6723 93.004C86.779 93.004 86.863 93.0347 86.9243 93.096C86.9883 93.1547 87.0203 93.2333 87.0203 93.332V93.924H83.0523V93.596C83.0523 93.5293 83.0656 93.46 83.0923 93.388C83.1216 93.3133 83.167 93.2467 83.2283 93.188L84.9843 91.428C85.131 91.2787 85.2616 91.136 85.3763 91C85.4936 90.864 85.591 90.7293 85.6683 90.596C85.7456 90.4627 85.8043 90.328 85.8443 90.192C85.887 90.0533 85.9083 89.908 85.9083 89.756C85.9083 89.6173 85.8883 89.496 85.8483 89.392C85.8083 89.2853 85.751 89.196 85.6763 89.124C85.6043 89.052 85.5163 88.9987 85.4123 88.964C85.311 88.9267 85.1963 88.908 85.0683 88.908C84.951 88.908 84.8416 88.9253 84.7403 88.96C84.6416 88.992 84.5536 89.0387 84.4763 89.1C84.399 89.1587 84.3336 89.228 84.2803 89.308C84.227 89.388 84.187 89.476 84.1603 89.572C84.115 89.6947 84.0563 89.776 83.9843 89.816C83.9123 89.856 83.8083 89.8653 83.6723 89.844L83.1523 89.752C83.1923 89.4747 83.2696 89.232 83.3843 89.024C83.499 88.8133 83.6416 88.6387 83.8123 88.5C83.9856 88.3587 84.183 88.2533 84.4043 88.184C84.6283 88.112 84.8683 88.076 85.1243 88.076C85.391 88.076 85.635 88.116 85.8563 88.196C86.0776 88.2733 86.267 88.384 86.4243 88.528C86.5816 88.672 86.7043 88.8453 86.7923 89.048C86.8803 89.2507 86.9243 89.476 86.9243 89.724C86.9243 89.9373 86.8923 90.1347 86.8283 90.316C86.767 90.4973 86.683 90.6707 86.5763 90.836C86.4723 91.0013 86.3496 91.1613 86.2083 91.316C86.067 91.4707 85.919 91.628 85.7643 91.788L84.4603 93.12C84.5856 93.0827 84.7096 93.0547 84.8323 93.036C84.9576 93.0147 85.0763 93.004 85.1883 93.004H86.6723Z" fill="#EEEEEE" fill-opacity="0.5"/>
<path d="M97.3837 91.572H95.8317V93.22H95.0277V91.572H93.4837V90.84H95.0277V89.2H95.8317V90.84H97.3837V91.572Z" fill="#EEEEEE"/>
<path d="M98.1843 89.72C98.2243 89.4427 98.3017 89.2 98.4163 88.992C98.531 88.7813 98.6737 88.6067 98.8443 88.468C99.0177 88.3267 99.215 88.2213 99.4363 88.152C99.6603 88.08 99.9003 88.044 100.156 88.044C100.423 88.044 100.663 88.0827 100.876 88.16C101.092 88.2347 101.276 88.34 101.428 88.476C101.58 88.6093 101.696 88.7667 101.776 88.948C101.859 89.1293 101.9 89.3253 101.9 89.536C101.9 89.72 101.879 89.8827 101.836 90.024C101.796 90.1627 101.738 90.284 101.66 90.388C101.583 90.492 101.487 90.58 101.372 90.652C101.258 90.724 101.128 90.784 100.984 90.832C101.331 90.9413 101.59 91.108 101.76 91.332C101.931 91.556 102.016 91.8373 102.016 92.176C102.016 92.464 101.963 92.7187 101.856 92.94C101.75 93.1613 101.606 93.348 101.424 93.5C101.243 93.6493 101.032 93.7627 100.792 93.84C100.555 93.9173 100.303 93.956 100.036 93.956C99.7457 93.956 99.4923 93.9227 99.2763 93.856C99.0603 93.7893 98.8723 93.6907 98.7123 93.56C98.5523 93.4293 98.4163 93.2693 98.3043 93.08C98.1923 92.8907 98.0963 92.672 98.0163 92.424L98.4523 92.244C98.567 92.196 98.6737 92.184 98.7723 92.208C98.8737 92.2293 98.947 92.2827 98.9923 92.368C99.0403 92.4613 99.0923 92.5533 99.1483 92.644C99.207 92.7347 99.2763 92.816 99.3563 92.888C99.4363 92.9573 99.5297 93.0147 99.6363 93.06C99.7457 93.1027 99.875 93.124 100.024 93.124C100.192 93.124 100.339 93.0973 100.464 93.044C100.59 92.988 100.694 92.916 100.776 92.828C100.862 92.74 100.924 92.6427 100.964 92.536C101.007 92.4267 101.028 92.3173 101.028 92.208C101.028 92.0693 101.014 91.944 100.984 91.832C100.955 91.7173 100.894 91.62 100.8 91.54C100.707 91.46 100.572 91.3973 100.396 91.352C100.223 91.3067 99.9897 91.284 99.6963 91.284V90.58C99.939 90.5773 100.14 90.5547 100.3 90.512C100.46 90.4693 100.587 90.4107 100.68 90.336C100.776 90.2587 100.843 90.1667 100.88 90.06C100.918 89.9533 100.936 89.836 100.936 89.708C100.936 89.436 100.86 89.2293 100.708 89.088C100.556 88.9467 100.354 88.876 100.1 88.876C99.983 88.876 99.875 88.8933 99.7763 88.928C99.6777 88.96 99.5883 89.0067 99.5083 89.068C99.431 89.1267 99.3657 89.196 99.3123 89.276C99.259 89.356 99.219 89.444 99.1923 89.54C99.147 89.6627 99.087 89.744 99.0123 89.784C98.9403 89.824 98.8377 89.8333 98.7043 89.812L98.1843 89.72Z" fill="#EEEEEE"/>
<path d="M4.35382 91.064H6.42582V91.888H4.35382V91.064Z" fill="#EEEEEE" fill-opacity="0.5"/>
<path d="M7.3142 89.72C7.3542 89.4427 7.43153 89.2 7.5462 88.992C7.66086 88.7813 7.80353 88.6067 7.9742 88.468C8.14753 88.3267 8.34486 88.2213 8.5662 88.152C8.7902 88.08 9.0302 88.044 9.2862 88.044C9.55286 88.044 9.79286 88.0827 10.0062 88.16C10.2222 88.2347 10.4062 88.34 10.5582 88.476C10.7102 88.6093 10.8262 88.7667 10.9062 88.948C10.9889 89.1293 11.0302 89.3253 11.0302 89.536C11.0302 89.72 11.0089 89.8827 10.9662 90.024C10.9262 90.1627 10.8675 90.284 10.7902 90.388C10.7129 90.492 10.6169 90.58 10.5022 90.652C10.3875 90.724 10.2582 90.784 10.1142 90.832C10.4609 90.9413 10.7195 91.108 10.8902 91.332C11.0609 91.556 11.1462 91.8373 11.1462 92.176C11.1462 92.464 11.0929 92.7187 10.9862 92.94C10.8795 93.1613 10.7355 93.348 10.5542 93.5C10.3729 93.6493 10.1622 93.7627 9.9222 93.84C9.68486 93.9173 9.43286 93.956 9.1662 93.956C8.87553 93.956 8.6222 93.9227 8.4062 93.856C8.1902 93.7893 8.0022 93.6907 7.8422 93.56C7.6822 93.4293 7.5462 93.2693 7.4342 93.08C7.3222 92.8907 7.2262 92.672 7.1462 92.424L7.5822 92.244C7.69686 92.196 7.80353 92.184 7.9022 92.208C8.00353 92.2293 8.07686 92.2827 8.1222 92.368C8.1702 92.4613 8.2222 92.5533 8.2782 92.644C8.33686 92.7347 8.4062 92.816 8.4862 92.888C8.5662 92.9573 8.65953 93.0147 8.7662 93.06C8.87553 93.1027 9.00486 93.124 9.1542 93.124C9.3222 93.124 9.46886 93.0973 9.5942 93.044C9.71953 92.988 9.82353 92.916 9.9062 92.828C9.99153 92.74 10.0542 92.6427 10.0942 92.536C10.1369 92.4267 10.1582 92.3173 10.1582 92.208C10.1582 92.0693 10.1435 91.944 10.1142 91.832C10.0849 91.7173 10.0235 91.62 9.9302 91.54C9.83686 91.46 9.7022 91.3973 9.5262 91.352C9.35286 91.3067 9.11953 91.284 8.8262 91.284V90.58C9.06886 90.5773 9.2702 90.5547 9.4302 90.512C9.5902 90.4693 9.71686 90.4107 9.8102 90.336C9.9062 90.2587 9.97286 90.1667 10.0102 90.06C10.0475 89.9533 10.0662 89.836 10.0662 89.708C10.0662 89.436 9.9902 89.2293 9.8382 89.088C9.6862 88.9467 9.48353 88.876 9.2302 88.876C9.11286 88.876 9.00486 88.8933 8.9062 88.928C8.80753 88.96 8.7182 89.0067 8.6382 89.068C8.56086 89.1267 8.49553 89.196 8.4422 89.276C8.38886 89.356 8.34886 89.444 8.3222 89.54C8.27686 89.6627 8.21686 89.744 8.1422 89.784C8.0702 89.824 7.96753 89.8333 7.8342 89.812L7.3142 89.72Z" fill="#EEEEEE" fill-opacity="0.5"/>
<path d="M19.3499 91.096H21.4219V91.92H19.3499V91.096Z" fill="#EEEEEE" fill-opacity="0.5"/>
<path d="M25.8022 93.004C25.9089 93.004 25.9929 93.0347 26.0542 93.096C26.1182 93.1547 26.1502 93.2333 26.1502 93.332V93.924H22.1822V93.596C22.1822 93.5293 22.1956 93.46 22.2222 93.388C22.2516 93.3133 22.2969 93.2467 22.3582 93.188L24.1142 91.428C24.2609 91.2787 24.3916 91.136 24.5062 91C24.6236 90.864 24.7209 90.7293 24.7982 90.596C24.8756 90.4627 24.9342 90.328 24.9742 90.192C25.0169 90.0533 25.0382 89.908 25.0382 89.756C25.0382 89.6173 25.0182 89.496 24.9782 89.392C24.9382 89.2853 24.8809 89.196 24.8062 89.124C24.7342 89.052 24.6462 88.9987 24.5422 88.964C24.4409 88.9267 24.3262 88.908 24.1982 88.908C24.0809 88.908 23.9716 88.9253 23.8702 88.96C23.7716 88.992 23.6836 89.0387 23.6062 89.1C23.5289 89.1587 23.4636 89.228 23.4102 89.308C23.3569 89.388 23.3169 89.476 23.2902 89.572C23.2449 89.6947 23.1862 89.776 23.1142 89.816C23.0422 89.856 22.9382 89.8653 22.8022 89.844L22.2822 89.752C22.3222 89.4747 22.3996 89.232 22.5142 89.024C22.6289 88.8133 22.7716 88.6387 22.9422 88.5C23.1156 88.3587 23.3129 88.2533 23.5342 88.184C23.7582 88.112 23.9982 88.076 24.2542 88.076C24.5209 88.076 24.7649 88.116 24.9862 88.196C25.2076 88.2733 25.3969 88.384 25.5542 88.528C25.7116 88.672 25.8342 88.8453 25.9222 89.048C26.0102 89.2507 26.0542 89.476 26.0542 89.724C26.0542 89.9373 26.0222 90.1347 25.9582 90.316C25.8969 90.4973 25.8129 90.6707 25.7062 90.836C25.6022 91.0013 25.4796 91.1613 25.3382 91.316C25.1969 91.4707 25.0489 91.628 24.8942 91.788L23.5902 93.12C23.7156 93.0827 23.8396 93.0547 23.9622 93.036C24.0876 93.0147 24.2062 93.004 24.3182 93.004H25.8022Z" fill="#EEEEEE" fill-opacity="0.5"/>
<path d="M34.4158 91.068H36.4878V91.892H34.4158V91.068Z" fill="#EEEEEE" fill-opacity="0.5"/>
<path d="M41.0842 93.156V93.896H37.8842V93.156H39.0562V89.784C39.0562 89.6507 39.0602 89.5133 39.0682 89.372L38.2362 90.068C38.1882 90.1053 38.1402 90.1293 38.0922 90.14C38.0469 90.148 38.0029 90.148 37.9602 90.14C37.9202 90.132 37.8842 90.1187 37.8522 90.1C37.8202 90.0787 37.7962 90.056 37.7802 90.032L37.4682 89.604L39.2322 88.104H40.0442V93.156H41.0842Z" fill="#EEEEEE" fill-opacity="0.5"/>
<rect x="76.25" y="70.75" width="13.5" height="12.5" fill="black" fill-opacity="0.1" stroke="#B422D9" stroke-width="0.5"/>
<path d="M55.12 77C55.12 77.504 55.0653 77.9427 54.956 78.316C54.8493 78.6867 54.7 78.9933 54.508 79.236C54.3187 79.4787 54.0933 79.66 53.832 79.78C53.5733 79.8973 53.2933 79.956 52.992 79.956C52.6907 79.956 52.4107 79.8973 52.152 79.78C51.896 79.66 51.6733 79.4787 51.484 79.236C51.2947 78.9933 51.1467 78.6867 51.04 78.316C50.9333 77.9427 50.88 77.504 50.88 77C50.88 76.4933 50.9333 76.0547 51.04 75.684C51.1467 75.3133 51.2947 75.0067 51.484 74.764C51.6733 74.5213 51.896 74.3413 52.152 74.224C52.4107 74.104 52.6907 74.044 52.992 74.044C53.2933 74.044 53.5733 74.104 53.832 74.224C54.0933 74.3413 54.3187 74.5213 54.508 74.764C54.7 75.0067 54.8493 75.3133 54.956 75.684C55.0653 76.0547 55.12 76.4933 55.12 77ZM54.1 77C54.1 76.5813 54.0693 76.2347 54.008 75.96C53.9467 75.6853 53.864 75.4667 53.76 75.304C53.6587 75.1413 53.5413 75.028 53.408 74.964C53.2747 74.8973 53.136 74.864 52.992 74.864C52.8507 74.864 52.7133 74.8973 52.58 74.964C52.4493 75.028 52.3333 75.1413 52.232 75.304C52.1307 75.4667 52.0493 75.6853 51.988 75.96C51.9293 76.2347 51.9 76.5813 51.9 77C51.9 77.4187 51.9293 77.7653 51.988 78.04C52.0493 78.3147 52.1307 78.5333 52.232 78.696C52.3333 78.8587 52.4493 78.9733 52.58 79.04C52.7133 79.104 52.8507 79.136 52.992 79.136C53.136 79.136 53.2747 79.104 53.408 79.04C53.5413 78.9733 53.6587 78.8587 53.76 78.696C53.864 78.5333 53.9467 78.3147 54.008 78.04C54.0693 77.7653 54.1 77.4187 54.1 77Z" fill="#EEEEEE" fill-opacity="0.5"/>
<path d="M67.4457 77.576H65.8937V79.224H65.0897V77.576H63.5457V76.844H65.0897V75.204H65.8937V76.844H67.4457V77.576Z" fill="#EEEEEE" fill-opacity="0.5"/>
<path d="M71.9543 79.156V79.896H68.7543V79.156H69.9263V75.784C69.9263 75.6507 69.9303 75.5133 69.9383 75.372L69.1063 76.068C69.0583 76.1053 69.0103 76.1293 68.9623 76.14C68.9169 76.148 68.8729 76.148 68.8303 76.14C68.7903 76.132 68.7543 76.1187 68.7223 76.1C68.6903 76.0787 68.6663 76.056 68.6503 76.032L68.3383 75.604L70.1023 74.104H70.9143V79.156H71.9543Z" fill="#EEEEEE" fill-opacity="0.5"/>
<path d="M82.3797 77.604H80.8277V79.252H80.0237V77.604H78.4797V76.872H80.0237V75.232H80.8277V76.872H82.3797V77.604Z" fill="#EEEEEE"/>
<path d="M86.6723 79.004C86.779 79.004 86.863 79.0347 86.9243 79.096C86.9883 79.1547 87.0203 79.2333 87.0203 79.332V79.924H83.0523V79.596C83.0523 79.5293 83.0656 79.46 83.0923 79.388C83.1216 79.3133 83.167 79.2467 83.2283 79.188L84.9843 77.428C85.131 77.2787 85.2616 77.136 85.3763 77C85.4936 76.864 85.591 76.7293 85.6683 76.596C85.7456 76.4627 85.8043 76.328 85.8443 76.192C85.887 76.0533 85.9083 75.908 85.9083 75.756C85.9083 75.6173 85.8883 75.496 85.8483 75.392C85.8083 75.2853 85.751 75.196 85.6763 75.124C85.6043 75.052 85.5163 74.9987 85.4123 74.964C85.311 74.9267 85.1963 74.908 85.0683 74.908C84.951 74.908 84.8416 74.9253 84.7403 74.96C84.6416 74.992 84.5536 75.0387 84.4763 75.1C84.399 75.1587 84.3336 75.228 84.2803 75.308C84.227 75.388 84.187 75.476 84.1603 75.572C84.115 75.6947 84.0563 75.776 83.9843 75.816C83.9123 75.856 83.8083 75.8653 83.6723 75.844L83.1523 75.752C83.1923 75.4747 83.2696 75.232 83.3843 75.024C83.499 74.8133 83.6416 74.6387 83.8123 74.5C83.9856 74.3587 84.183 74.2533 84.4043 74.184C84.6283 74.112 84.8683 74.076 85.1243 74.076C85.391 74.076 85.635 74.116 85.8563 74.196C86.0776 74.2733 86.267 74.384 86.4243 74.528C86.5816 74.672 86.7043 74.8453 86.7923 75.048C86.8803 75.2507 86.9243 75.476 86.9243 75.724C86.9243 75.9373 86.8923 76.1347 86.8283 76.316C86.767 76.4973 86.683 76.6707 86.5763 76.836C86.4723 77.0013 86.3496 77.1613 86.2083 77.316C86.067 77.4707 85.919 77.628 85.7643 77.788L84.4603 79.12C84.5856 79.0827 84.7096 79.0547 84.8323 79.036C84.9576 79.0147 85.0763 79.004 85.1883 79.004H86.6723Z" fill="#EEEEEE"/>
<path d="M97.3837 77.572H95.8317V79.22H95.0277V77.572H93.4837V76.84H95.0277V75.2H95.8317V76.84H97.3837V77.572Z" fill="#EEEEEE" fill-opacity="0.5"/>
<path d="M98.1843 75.72C98.2243 75.4427 98.3017 75.2 98.4163 74.992C98.531 74.7813 98.6737 74.6067 98.8443 74.468C99.0177 74.3267 99.215 74.2213 99.4363 74.152C99.6603 74.08 99.9003 74.044 100.156 74.044C100.423 74.044 100.663 74.0827 100.876 74.16C101.092 74.2347 101.276 74.34 101.428 74.476C101.58 74.6093 101.696 74.7667 101.776 74.948C101.859 75.1293 101.9 75.3253 101.9 75.536C101.9 75.72 101.879 75.8827 101.836 76.024C101.796 76.1627 101.738 76.284 101.66 76.388C101.583 76.492 101.487 76.58 101.372 76.652C101.258 76.724 101.128 76.784 100.984 76.832C101.331 76.9413 101.59 77.108 101.76 77.332C101.931 77.556 102.016 77.8373 102.016 78.176C102.016 78.464 101.963 78.7187 101.856 78.94C101.75 79.1613 101.606 79.348 101.424 79.5C101.243 79.6493 101.032 79.7627 100.792 79.84C100.555 79.9173 100.303 79.956 100.036 79.956C99.7457 79.956 99.4923 79.9227 99.2763 79.856C99.0603 79.7893 98.8723 79.6907 98.7123 79.56C98.5523 79.4293 98.4163 79.2693 98.3043 79.08C98.1923 78.8907 98.0963 78.672 98.0163 78.424L98.4523 78.244C98.567 78.196 98.6737 78.184 98.7723 78.208C98.8737 78.2293 98.947 78.2827 98.9923 78.368C99.0403 78.4613 99.0923 78.5533 99.1483 78.644C99.207 78.7347 99.2763 78.816 99.3563 78.888C99.4363 78.9573 99.5297 79.0147 99.6363 79.06C99.7457 79.1027 99.875 79.124 100.024 79.124C100.192 79.124 100.339 79.0973 100.464 79.044C100.59 78.988 100.694 78.916 100.776 78.828C100.862 78.74 100.924 78.6427 100.964 78.536C101.007 78.4267 101.028 78.3173 101.028 78.208C101.028 78.0693 101.014 77.944 100.984 77.832C100.955 77.7173 100.894 77.62 100.8 77.54C100.707 77.46 100.572 77.3973 100.396 77.352C100.223 77.3067 99.9897 77.284 99.6963 77.284V76.58C99.939 76.5773 100.14 76.5547 100.3 76.512C100.46 76.4693 100.587 76.4107 100.68 76.336C100.776 76.2587 100.843 76.1667 100.88 76.06C100.918 75.9533 100.936 75.836 100.936 75.708C100.936 75.436 100.86 75.2293 100.708 75.088C100.556 74.9467 100.354 74.876 100.1 74.876C99.983 74.876 99.875 74.8933 99.7763 74.928C99.6777 74.96 99.5883 75.0067 99.5083 75.068C99.431 75.1267 99.3657 75.196 99.3123 75.276C99.259 75.356 99.219 75.444 99.1923 75.54C99.147 75.6627 99.087 75.744 99.0123 75.784C98.9403 75.824 98.8377 75.8333 98.7043 75.812L98.1843 75.72Z" fill="#EEEEEE" fill-opacity="0.5"/>
<path d="M4.35382 77.064H6.42582V77.888H4.35382V77.064Z" fill="#EEEEEE" fill-opacity="0.5"/>
<path d="M7.3142 75.72C7.3542 75.4427 7.43153 75.2 7.5462 74.992C7.66086 74.7813 7.80353 74.6067 7.9742 74.468C8.14753 74.3267 8.34486 74.2213 8.5662 74.152C8.7902 74.08 9.0302 74.044 9.2862 74.044C9.55286 74.044 9.79286 74.0827 10.0062 74.16C10.2222 74.2347 10.4062 74.34 10.5582 74.476C10.7102 74.6093 10.8262 74.7667 10.9062 74.948C10.9889 75.1293 11.0302 75.3253 11.0302 75.536C11.0302 75.72 11.0089 75.8827 10.9662 76.024C10.9262 76.1627 10.8675 76.284 10.7902 76.388C10.7129 76.492 10.6169 76.58 10.5022 76.652C10.3875 76.724 10.2582 76.784 10.1142 76.832C10.4609 76.9413 10.7195 77.108 10.8902 77.332C11.0609 77.556 11.1462 77.8373 11.1462 78.176C11.1462 78.464 11.0929 78.7187 10.9862 78.94C10.8795 79.1613 10.7355 79.348 10.5542 79.5C10.3729 79.6493 10.1622 79.7627 9.9222 79.84C9.68486 79.9173 9.43286 79.956 9.1662 79.956C8.87553 79.956 8.6222 79.9227 8.4062 79.856C8.1902 79.7893 8.0022 79.6907 7.8422 79.56C7.6822 79.4293 7.5462 79.2693 7.4342 79.08C7.3222 78.8907 7.2262 78.672 7.1462 78.424L7.5822 78.244C7.69686 78.196 7.80353 78.184 7.9022 78.208C8.00353 78.2293 8.07686 78.2827 8.1222 78.368C8.1702 78.4613 8.2222 78.5533 8.2782 78.644C8.33686 78.7347 8.4062 78.816 8.4862 78.888C8.5662 78.9573 8.65953 79.0147 8.7662 79.06C8.87553 79.1027 9.00486 79.124 9.1542 79.124C9.3222 79.124 9.46886 79.0973 9.5942 79.044C9.71953 78.988 9.82353 78.916 9.9062 78.828C9.99153 78.74 10.0542 78.6427 10.0942 78.536C10.1369 78.4267 10.1582 78.3173 10.1582 78.208C10.1582 78.0693 10.1435 77.944 10.1142 77.832C10.0849 77.7173 10.0235 77.62 9.9302 77.54C9.83686 77.46 9.7022 77.3973 9.5262 77.352C9.35286 77.3067 9.11953 77.284 8.8262 77.284V76.58C9.06886 76.5773 9.2702 76.5547 9.4302 76.512C9.5902 76.4693 9.71686 76.4107 9.8102 76.336C9.9062 76.2587 9.97286 76.1667 10.0102 76.06C10.0475 75.9533 10.0662 75.836 10.0662 75.708C10.0662 75.436 9.9902 75.2293 9.8382 75.088C9.6862 74.9467 9.48353 74.876 9.2302 74.876C9.11286 74.876 9.00486 74.8933 8.9062 74.928C8.80753 74.96 8.7182 75.0067 8.6382 75.068C8.56086 75.1267 8.49553 75.196 8.4422 75.276C8.38886 75.356 8.34886 75.444 8.3222 75.54C8.27686 75.6627 8.21686 75.744 8.1422 75.784C8.0702 75.824 7.96753 75.8333 7.8342 75.812L7.3142 75.72Z" fill="#EEEEEE" fill-opacity="0.5"/>
<path d="M19.3499 77.096H21.4219V77.92H19.3499V77.096Z" fill="#EEEEEE" fill-opacity="0.5"/>
<path d="M25.8022 79.004C25.9089 79.004 25.9929 79.0347 26.0542 79.096C26.1182 79.1547 26.1502 79.2333 26.1502 79.332V79.924H22.1822V79.596C22.1822 79.5293 22.1956 79.46 22.2222 79.388C22.2516 79.3133 22.2969 79.2467 22.3582 79.188L24.1142 77.428C24.2609 77.2787 24.3916 77.136 24.5062 77C24.6236 76.864 24.7209 76.7293 24.7982 76.596C24.8756 76.4627 24.9342 76.328 24.9742 76.192C25.0169 76.0533 25.0382 75.908 25.0382 75.756C25.0382 75.6173 25.0182 75.496 24.9782 75.392C24.9382 75.2853 24.8809 75.196 24.8062 75.124C24.7342 75.052 24.6462 74.9987 24.5422 74.964C24.4409 74.9267 24.3262 74.908 24.1982 74.908C24.0809 74.908 23.9716 74.9253 23.8702 74.96C23.7716 74.992 23.6836 75.0387 23.6062 75.1C23.5289 75.1587 23.4636 75.228 23.4102 75.308C23.3569 75.388 23.3169 75.476 23.2902 75.572C23.2449 75.6947 23.1862 75.776 23.1142 75.816C23.0422 75.856 22.9382 75.8653 22.8022 75.844L22.2822 75.752C22.3222 75.4747 22.3996 75.232 22.5142 75.024C22.6289 74.8133 22.7716 74.6387 22.9422 74.5C23.1156 74.3587 23.3129 74.2533 23.5342 74.184C23.7582 74.112 23.9982 74.076 24.2542 74.076C24.5209 74.076 24.7649 74.116 24.9862 74.196C25.2076 74.2733 25.3969 74.384 25.5542 74.528C25.7116 74.672 25.8342 74.8453 25.9222 75.048C26.0102 75.2507 26.0542 75.476 26.0542 75.724C26.0542 75.9373 26.0222 76.1347 25.9582 76.316C25.8969 76.4973 25.8129 76.6707 25.7062 76.836C25.6022 77.0013 25.4796 77.1613 25.3382 77.316C25.1969 77.4707 25.0489 77.628 24.8942 77.788L23.5902 79.12C23.7156 79.0827 23.8396 79.0547 23.9622 79.036C24.0876 79.0147 24.2062 79.004 24.3182 79.004H25.8022Z" fill="#EEEEEE" fill-opacity="0.5"/>
<path d="M34.4158 77.068H36.4878V77.892H34.4158V77.068Z" fill="#EEEEEE" fill-opacity="0.5"/>
<path d="M41.0842 79.156V79.896H37.8842V79.156H39.0562V75.784C39.0562 75.6507 39.0602 75.5133 39.0682 75.372L38.2362 76.068C38.1882 76.1053 38.1402 76.1293 38.0922 76.14C38.0469 76.148 38.0029 76.148 37.9602 76.14C37.9202 76.132 37.8842 76.1187 37.8522 76.1C37.8202 76.0787 37.7962 76.056 37.7802 76.032L37.4682 75.604L39.2322 74.104H40.0442V79.156H41.0842Z" fill="#EEEEEE" fill-opacity="0.5"/>
</svg>
