<svg width="135" height="108" viewBox="0 0 135 108" fill="none" xmlns="http://www.w3.org/2000/svg">
<rect y="1" width="34.1264" height="25" fill="white" fill-opacity="0.2"/>
<rect x="33.6245" y="28" width="34.1264" height="25" fill="white" fill-opacity="0.2"/>
<rect x="67.249" y="55" width="34.1264" height="25" fill="white" fill-opacity="0.2"/>
<rect x="100.874" y="82" width="34.1264" height="25" fill="white" fill-opacity="0.2"/>
<path d="M12.623 10.606V16.338H12.235C12.1737 16.338 12.1217 16.3273 12.079 16.306C12.039 16.2846 11.999 16.2486 11.959 16.198L8.643 11.878C8.64834 11.9446 8.65234 12.01 8.655 12.074C8.65767 12.138 8.659 12.198 8.659 12.254V16.338H7.979V10.606H8.379C8.41367 10.606 8.443 10.6086 8.467 10.614C8.491 10.6166 8.51234 10.6233 8.531 10.634C8.54967 10.642 8.56834 10.6553 8.587 10.674C8.60567 10.69 8.62567 10.7113 8.647 10.738L11.963 15.054C11.9577 14.9846 11.9523 14.918 11.947 14.854C11.9443 14.7873 11.943 14.7246 11.943 14.666V10.606H12.623Z" fill="white"/>
<path d="M15.5034 12.222C15.7994 12.222 16.066 12.2713 16.3034 12.37C16.5407 12.4686 16.7434 12.6086 16.9114 12.79C17.0794 12.9713 17.2074 13.1913 17.2954 13.45C17.386 13.706 17.4314 13.9926 17.4314 14.31C17.4314 14.63 17.386 14.918 17.2954 15.174C17.2074 15.43 17.0794 15.6486 16.9114 15.83C16.7434 16.0113 16.5407 16.1513 16.3034 16.25C16.066 16.346 15.7994 16.394 15.5034 16.394C15.2047 16.394 14.9354 16.346 14.6954 16.25C14.458 16.1513 14.2554 16.0113 14.0874 15.83C13.9194 15.6486 13.79 15.43 13.6994 15.174C13.6114 14.918 13.5674 14.63 13.5674 14.31C13.5674 13.9926 13.6114 13.706 13.6994 13.45C13.79 13.1913 13.9194 12.9713 14.0874 12.79C14.2554 12.6086 14.458 12.4686 14.6954 12.37C14.9354 12.2713 15.2047 12.222 15.5034 12.222ZM15.5034 15.838C15.9034 15.838 16.202 15.7046 16.3994 15.438C16.5967 15.1686 16.6954 14.794 16.6954 14.314C16.6954 13.8313 16.5967 13.4553 16.3994 13.186C16.202 12.9166 15.9034 12.782 15.5034 12.782C15.3007 12.782 15.1234 12.8166 14.9714 12.886C14.822 12.9553 14.6967 13.0553 14.5954 13.186C14.4967 13.3166 14.422 13.478 14.3714 13.67C14.3234 13.8593 14.2994 14.074 14.2994 14.314C14.2994 14.794 14.398 15.1686 14.5954 15.438C14.7954 15.7046 15.098 15.838 15.5034 15.838Z" fill="white"/>
<path d="M19.0064 12.874C19.0944 12.7753 19.1878 12.686 19.2864 12.606C19.3851 12.526 19.4891 12.458 19.5984 12.402C19.7104 12.3433 19.8278 12.2993 19.9504 12.27C20.0758 12.238 20.2104 12.222 20.3544 12.222C20.5758 12.222 20.7704 12.2593 20.9384 12.334C21.1091 12.406 21.2504 12.51 21.3624 12.646C21.4771 12.7793 21.5638 12.9406 21.6224 13.13C21.6811 13.3193 21.7104 13.5286 21.7104 13.758V16.338H20.9944V13.758C20.9944 13.4513 20.9238 13.214 20.7824 13.046C20.6438 12.8753 20.4318 12.79 20.1464 12.79C19.9358 12.79 19.7384 12.8406 19.5544 12.942C19.3731 13.0433 19.2051 13.1806 19.0504 13.354V16.338H18.3344V12.286H18.7624C18.8638 12.286 18.9264 12.3353 18.9504 12.434L19.0064 12.874Z" fill="white"/>
<path d="M25.5074 13.87C25.5074 13.7046 25.4834 13.554 25.4354 13.418C25.39 13.2793 25.322 13.1606 25.2314 13.062C25.1434 12.9606 25.0354 12.8833 24.9074 12.83C24.7794 12.774 24.634 12.746 24.4714 12.746C24.13 12.746 23.8594 12.846 23.6594 13.046C23.462 13.2433 23.3394 13.518 23.2914 13.87H25.5074ZM26.0834 15.77C25.9954 15.8766 25.89 15.97 25.7674 16.05C25.6447 16.1273 25.5127 16.1913 25.3714 16.242C25.2327 16.2926 25.0887 16.33 24.9394 16.354C24.79 16.3806 24.642 16.394 24.4954 16.394C24.2154 16.394 23.9567 16.3473 23.7194 16.254C23.4847 16.158 23.2807 16.0193 23.1074 15.838C22.9367 15.654 22.8034 15.4273 22.7074 15.158C22.6114 14.8886 22.5634 14.5793 22.5634 14.23C22.5634 13.9473 22.606 13.6833 22.6914 13.438C22.7794 13.1926 22.9047 12.9806 23.0674 12.802C23.23 12.6206 23.4287 12.4793 23.6634 12.378C23.898 12.274 24.162 12.222 24.4554 12.222C24.698 12.222 24.922 12.2633 25.1274 12.346C25.3354 12.426 25.514 12.5433 25.6634 12.698C25.8154 12.85 25.934 13.0393 26.0194 13.266C26.1047 13.49 26.1474 13.746 26.1474 14.034C26.1474 14.146 26.1354 14.2206 26.1114 14.258C26.0874 14.2953 26.042 14.314 25.9754 14.314H23.2674C23.2754 14.57 23.31 14.7926 23.3714 14.982C23.4354 15.1713 23.5234 15.33 23.6354 15.458C23.7474 15.5833 23.8807 15.678 24.0354 15.742C24.19 15.8033 24.3634 15.834 24.5554 15.834C24.734 15.834 24.8874 15.814 25.0154 15.774C25.146 15.7313 25.258 15.686 25.3514 15.638C25.4447 15.59 25.522 15.546 25.5834 15.506C25.6474 15.4633 25.702 15.442 25.7474 15.442C25.806 15.442 25.8514 15.4646 25.8834 15.51L26.0834 15.77Z" fill="white"/>
<path d="M45.7579 38.578C45.7339 38.618 45.7072 38.6486 45.6779 38.67C45.6512 38.6886 45.6179 38.698 45.5779 38.698C45.5326 38.698 45.4792 38.6753 45.4179 38.63C45.3566 38.5846 45.2792 38.5353 45.1859 38.482C45.0952 38.426 44.9846 38.3753 44.8539 38.33C44.7259 38.2846 44.5699 38.262 44.3859 38.262C44.2126 38.262 44.0592 38.286 43.9259 38.334C43.7952 38.3793 43.6846 38.442 43.5939 38.522C43.5059 38.602 43.4392 38.6966 43.3939 38.806C43.3486 38.9126 43.3259 39.0286 43.3259 39.154C43.3259 39.314 43.3646 39.4473 43.4419 39.554C43.5219 39.658 43.6259 39.7473 43.7539 39.822C43.8846 39.8966 44.0312 39.962 44.1939 40.018C44.3592 40.0713 44.5272 40.1273 44.6979 40.186C44.8712 40.2446 45.0392 40.3113 45.2019 40.386C45.3672 40.458 45.5139 40.55 45.6419 40.662C45.7726 40.774 45.8766 40.9113 45.9539 41.074C46.0339 41.2366 46.0739 41.4366 46.0739 41.674C46.0739 41.9246 46.0312 42.1606 45.9459 42.382C45.8606 42.6006 45.7352 42.7913 45.5699 42.954C45.4072 43.1166 45.2059 43.2446 44.9659 43.338C44.7286 43.4313 44.4579 43.478 44.1539 43.478C43.7806 43.478 43.4419 43.4113 43.1379 43.278C42.8339 43.142 42.5739 42.9593 42.3579 42.73L42.5819 42.362C42.6032 42.3326 42.6286 42.3086 42.6579 42.29C42.6899 42.2686 42.7246 42.258 42.7619 42.258C42.7966 42.258 42.8352 42.2726 42.8779 42.302C42.9232 42.3286 42.9739 42.3633 43.0299 42.406C43.0859 42.4486 43.1499 42.4953 43.2219 42.546C43.2939 42.5966 43.3752 42.6433 43.4659 42.686C43.5592 42.7286 43.6646 42.7646 43.7819 42.794C43.8992 42.8206 44.0312 42.834 44.1779 42.834C44.3619 42.834 44.5259 42.8086 44.6699 42.758C44.8139 42.7073 44.9352 42.6366 45.0339 42.546C45.1352 42.4526 45.2126 42.342 45.2659 42.214C45.3192 42.086 45.3459 41.9433 45.3459 41.786C45.3459 41.6126 45.3059 41.4713 45.2259 41.362C45.1486 41.25 45.0459 41.1566 44.9179 41.082C44.7899 41.0073 44.6432 40.9446 44.4779 40.894C44.3126 40.8406 44.1446 40.7873 43.9739 40.734C43.8032 40.678 43.6352 40.614 43.4699 40.542C43.3046 40.47 43.1579 40.3766 43.0299 40.262C42.9019 40.1473 42.7979 40.0046 42.7179 39.834C42.6406 39.6606 42.6019 39.4473 42.6019 39.194C42.6019 38.9913 42.6406 38.7953 42.7179 38.606C42.7979 38.4166 42.9126 38.2486 43.0619 38.102C43.2139 37.9553 43.3992 37.838 43.6179 37.75C43.8392 37.662 44.0926 37.618 44.3779 37.618C44.6979 37.618 44.9886 37.6686 45.2499 37.77C45.5139 37.8713 45.7459 38.018 45.9459 38.21L45.7579 38.578Z" fill="white"/>
<path d="M49.6902 40.946C49.6902 40.7806 49.6662 40.63 49.6182 40.494C49.5729 40.3553 49.5049 40.2366 49.4142 40.138C49.3262 40.0366 49.2182 39.9593 49.0902 39.906C48.9622 39.85 48.8169 39.822 48.6542 39.822C48.3129 39.822 48.0422 39.922 47.8422 40.122C47.6449 40.3193 47.5222 40.594 47.4742 40.946H49.6902ZM50.2662 42.846C50.1782 42.9526 50.0729 43.046 49.9502 43.126C49.8276 43.2033 49.6956 43.2673 49.5542 43.318C49.4156 43.3686 49.2716 43.406 49.1222 43.43C48.9729 43.4566 48.8249 43.47 48.6782 43.47C48.3982 43.47 48.1396 43.4233 47.9022 43.33C47.6676 43.234 47.4636 43.0953 47.2902 42.914C47.1196 42.73 46.9862 42.5033 46.8902 42.234C46.7942 41.9646 46.7462 41.6553 46.7462 41.306C46.7462 41.0233 46.7889 40.7593 46.8742 40.514C46.9622 40.2686 47.0876 40.0566 47.2502 39.878C47.4129 39.6966 47.6116 39.5553 47.8462 39.454C48.0809 39.35 48.3449 39.298 48.6382 39.298C48.8809 39.298 49.1049 39.3393 49.3102 39.422C49.5182 39.502 49.6969 39.6193 49.8462 39.774C49.9982 39.926 50.1169 40.1153 50.2022 40.342C50.2876 40.566 50.3302 40.822 50.3302 41.11C50.3302 41.222 50.3182 41.2966 50.2942 41.334C50.2702 41.3713 50.2249 41.39 50.1582 41.39H47.4502C47.4582 41.646 47.4929 41.8686 47.5542 42.058C47.6182 42.2473 47.7062 42.406 47.8182 42.534C47.9302 42.6593 48.0636 42.754 48.2182 42.818C48.3729 42.8793 48.5462 42.91 48.7382 42.91C48.9169 42.91 49.0702 42.89 49.1982 42.85C49.3289 42.8073 49.4409 42.762 49.5342 42.714C49.6276 42.666 49.7049 42.622 49.7662 42.582C49.8302 42.5393 49.8849 42.518 49.9302 42.518C49.9889 42.518 50.0342 42.5406 50.0662 42.586L50.2662 42.846Z" fill="white"/>
<path d="M51.8768 39.95C51.9648 39.8513 52.0581 39.762 52.1568 39.682C52.2555 39.602 52.3595 39.534 52.4688 39.478C52.5808 39.4193 52.6981 39.3753 52.8208 39.346C52.9461 39.314 53.0808 39.298 53.2248 39.298C53.4461 39.298 53.6408 39.3353 53.8088 39.41C53.9795 39.482 54.1208 39.586 54.2328 39.722C54.3475 39.8553 54.4341 40.0166 54.4928 40.206C54.5515 40.3953 54.5808 40.6046 54.5808 40.834V43.414H53.8648V40.834C53.8648 40.5273 53.7941 40.29 53.6528 40.122C53.5141 39.9513 53.3021 39.866 53.0168 39.866C52.8061 39.866 52.6088 39.9166 52.4248 40.018C52.2435 40.1193 52.0755 40.2566 51.9208 40.43V43.414H51.2048V39.362H51.6328C51.7341 39.362 51.7968 39.4113 51.8208 39.51L51.8768 39.95Z" fill="white"/>
<path d="M58.3057 40.326C58.1724 40.1473 58.0284 40.0233 57.8737 39.954C57.7191 39.882 57.5457 39.846 57.3537 39.846C56.9777 39.846 56.6884 39.9806 56.4857 40.25C56.2831 40.5193 56.1817 40.9033 56.1817 41.402C56.1817 41.666 56.2044 41.8926 56.2497 42.082C56.2951 42.2686 56.3617 42.4233 56.4497 42.546C56.5377 42.666 56.6457 42.754 56.7737 42.81C56.9017 42.866 57.0471 42.894 57.2097 42.894C57.4444 42.894 57.6484 42.8406 57.8217 42.734C57.9977 42.6273 58.1591 42.4766 58.3057 42.282V40.326ZM59.0177 37.522V43.414H58.5937C58.4924 43.414 58.4284 43.3646 58.4017 43.266L58.3377 42.774C58.1644 42.982 57.9671 43.15 57.7457 43.278C57.5244 43.406 57.2684 43.47 56.9777 43.47C56.7457 43.47 56.5351 43.426 56.3457 43.338C56.1564 43.2473 55.9951 43.1153 55.8617 42.942C55.7284 42.7686 55.6257 42.5526 55.5537 42.294C55.4817 42.0353 55.4457 41.738 55.4457 41.402C55.4457 41.1033 55.4857 40.826 55.5657 40.57C55.6457 40.3113 55.7604 40.0873 55.9097 39.898C56.0591 39.7086 56.2417 39.5606 56.4577 39.454C56.6764 39.3446 56.9217 39.29 57.1937 39.29C57.4417 39.29 57.6537 39.3326 57.8297 39.418C58.0084 39.5006 58.1671 39.6166 58.3057 39.766V37.522H59.0177Z" fill="white"/>
<path d="M75.2646 60.578C75.2406 60.618 75.214 60.6486 75.1846 60.67C75.158 60.6886 75.1246 60.698 75.0846 60.698C75.0393 60.698 74.986 60.6753 74.9246 60.63C74.8633 60.5846 74.786 60.5353 74.6926 60.482C74.602 60.426 74.4913 60.3753 74.3606 60.33C74.2326 60.2846 74.0766 60.262 73.8926 60.262C73.7193 60.262 73.566 60.286 73.4326 60.334C73.302 60.3793 73.1913 60.442 73.1006 60.522C73.0126 60.602 72.946 60.6966 72.9006 60.806C72.8553 60.9126 72.8326 61.0286 72.8326 61.154C72.8326 61.314 72.8713 61.4473 72.9486 61.554C73.0286 61.658 73.1326 61.7473 73.2606 61.822C73.3913 61.8966 73.538 61.962 73.7006 62.018C73.866 62.0713 74.034 62.1273 74.2046 62.186C74.378 62.2446 74.546 62.3113 74.7086 62.386C74.874 62.458 75.0206 62.55 75.1486 62.662C75.2793 62.774 75.3833 62.9113 75.4606 63.074C75.5406 63.2366 75.5806 63.4366 75.5806 63.674C75.5806 63.9246 75.538 64.1606 75.4526 64.382C75.3673 64.6006 75.242 64.7913 75.0766 64.954C74.914 65.1166 74.7126 65.2446 74.4726 65.338C74.2353 65.4313 73.9646 65.478 73.6606 65.478C73.2873 65.478 72.9486 65.4113 72.6446 65.278C72.3406 65.142 72.0806 64.9593 71.8646 64.73L72.0886 64.362C72.11 64.3326 72.1353 64.3086 72.1646 64.29C72.1966 64.2686 72.2313 64.258 72.2686 64.258C72.3033 64.258 72.342 64.2726 72.3846 64.302C72.43 64.3286 72.4806 64.3633 72.5366 64.406C72.5926 64.4486 72.6566 64.4953 72.7286 64.546C72.8006 64.5966 72.882 64.6433 72.9726 64.686C73.066 64.7286 73.1713 64.7646 73.2886 64.794C73.406 64.8206 73.538 64.834 73.6846 64.834C73.8686 64.834 74.0326 64.8086 74.1766 64.758C74.3206 64.7073 74.442 64.6366 74.5406 64.546C74.642 64.4526 74.7193 64.342 74.7726 64.214C74.826 64.086 74.8526 63.9433 74.8526 63.786C74.8526 63.6126 74.8126 63.4713 74.7326 63.362C74.6553 63.25 74.5526 63.1566 74.4246 63.082C74.2966 63.0073 74.15 62.9446 73.9846 62.894C73.8193 62.8406 73.6513 62.7873 73.4806 62.734C73.31 62.678 73.142 62.614 72.9766 62.542C72.8113 62.47 72.6646 62.3766 72.5366 62.262C72.4086 62.1473 72.3046 62.0046 72.2246 61.834C72.1473 61.6606 72.1086 61.4473 72.1086 61.194C72.1086 60.9913 72.1473 60.7953 72.2246 60.606C72.3046 60.4166 72.4193 60.2486 72.5686 60.102C72.7206 59.9553 72.906 59.838 73.1246 59.75C73.346 59.662 73.5993 59.618 73.8846 59.618C74.2046 59.618 74.4953 59.6686 74.7566 59.77C75.0206 59.8713 75.2526 60.018 75.4526 60.21L75.2646 60.578Z" fill="white"/>
<path d="M79.1969 62.946C79.1969 62.7806 79.1729 62.63 79.1249 62.494C79.0796 62.3553 79.0116 62.2366 78.9209 62.138C78.8329 62.0366 78.7249 61.9593 78.5969 61.906C78.4689 61.85 78.3236 61.822 78.1609 61.822C77.8196 61.822 77.5489 61.922 77.3489 62.122C77.1516 62.3193 77.0289 62.594 76.9809 62.946H79.1969ZM79.7729 64.846C79.6849 64.9526 79.5796 65.046 79.4569 65.126C79.3343 65.2033 79.2023 65.2673 79.0609 65.318C78.9223 65.3686 78.7783 65.406 78.6289 65.43C78.4796 65.4566 78.3316 65.47 78.1849 65.47C77.9049 65.47 77.6463 65.4233 77.4089 65.33C77.1743 65.234 76.9703 65.0953 76.7969 64.914C76.6263 64.73 76.4929 64.5033 76.3969 64.234C76.3009 63.9646 76.2529 63.6553 76.2529 63.306C76.2529 63.0233 76.2956 62.7593 76.3809 62.514C76.4689 62.2686 76.5943 62.0566 76.7569 61.878C76.9196 61.6966 77.1183 61.5553 77.3529 61.454C77.5876 61.35 77.8516 61.298 78.1449 61.298C78.3876 61.298 78.6116 61.3393 78.8169 61.422C79.0249 61.502 79.2036 61.6193 79.3529 61.774C79.5049 61.926 79.6236 62.1153 79.7089 62.342C79.7943 62.566 79.8369 62.822 79.8369 63.11C79.8369 63.222 79.8249 63.2966 79.8009 63.334C79.7769 63.3713 79.7316 63.39 79.6649 63.39H76.9569C76.9649 63.646 76.9996 63.8686 77.0609 64.058C77.1249 64.2473 77.2129 64.406 77.3249 64.534C77.4369 64.6593 77.5703 64.754 77.7249 64.818C77.8796 64.8793 78.0529 64.91 78.2449 64.91C78.4236 64.91 78.5769 64.89 78.7049 64.85C78.8356 64.8073 78.9476 64.762 79.0409 64.714C79.1343 64.666 79.2116 64.622 79.2729 64.582C79.3369 64.5393 79.3916 64.518 79.4369 64.518C79.4956 64.518 79.5409 64.5406 79.5729 64.586L79.7729 64.846Z" fill="white"/>
<path d="M81.3835 61.95C81.4715 61.8513 81.5648 61.762 81.6635 61.682C81.7622 61.602 81.8662 61.534 81.9755 61.478C82.0875 61.4193 82.2048 61.3753 82.3275 61.346C82.4528 61.314 82.5875 61.298 82.7315 61.298C82.9528 61.298 83.1475 61.3353 83.3155 61.41C83.4862 61.482 83.6275 61.586 83.7395 61.722C83.8542 61.8553 83.9408 62.0166 83.9995 62.206C84.0582 62.3953 84.0875 62.6046 84.0875 62.834V65.414H83.3715V62.834C83.3715 62.5273 83.3008 62.29 83.1595 62.122C83.0208 61.9513 82.8088 61.866 82.5235 61.866C82.3128 61.866 82.1155 61.9166 81.9315 62.018C81.7502 62.1193 81.5822 62.2566 81.4275 62.43V65.414H80.7115V61.362H81.1395C81.2408 61.362 81.3035 61.4113 81.3275 61.51L81.3835 61.95Z" fill="white"/>
<path d="M87.8124 62.326C87.6791 62.1473 87.5351 62.0233 87.3804 61.954C87.2258 61.882 87.0524 61.846 86.8604 61.846C86.4844 61.846 86.1951 61.9806 85.9924 62.25C85.7898 62.5193 85.6884 62.9033 85.6884 63.402C85.6884 63.666 85.7111 63.8926 85.7564 64.082C85.8018 64.2686 85.8684 64.4233 85.9564 64.546C86.0444 64.666 86.1524 64.754 86.2804 64.81C86.4084 64.866 86.5538 64.894 86.7164 64.894C86.9511 64.894 87.1551 64.8406 87.3284 64.734C87.5044 64.6273 87.6658 64.4766 87.8124 64.282V62.326ZM88.5244 59.522V65.414H88.1004C87.9991 65.414 87.9351 65.3646 87.9084 65.266L87.8444 64.774C87.6711 64.982 87.4738 65.15 87.2524 65.278C87.0311 65.406 86.7751 65.47 86.4844 65.47C86.2524 65.47 86.0418 65.426 85.8524 65.338C85.6631 65.2473 85.5018 65.1153 85.3684 64.942C85.2351 64.7686 85.1324 64.5526 85.0604 64.294C84.9884 64.0353 84.9524 63.738 84.9524 63.402C84.9524 63.1033 84.9924 62.826 85.0724 62.57C85.1524 62.3113 85.2671 62.0873 85.4164 61.898C85.5658 61.7086 85.7484 61.5606 85.9644 61.454C86.1831 61.3446 86.4284 61.29 86.7004 61.29C86.9484 61.29 87.1604 61.3326 87.3364 61.418C87.5151 61.5006 87.6738 61.6166 87.8124 61.766V59.522H88.5244Z" fill="white"/>
<path d="M93.0639 62.59C92.7812 62.7393 92.5679 62.9206 92.4239 63.134C92.2825 63.3473 92.2119 63.5793 92.2119 63.83C92.2119 64.0033 92.2439 64.1566 92.3079 64.29C92.3719 64.4206 92.4559 64.5313 92.5599 64.622C92.6639 64.7126 92.7825 64.782 92.9159 64.83C93.0492 64.8753 93.1852 64.898 93.3239 64.898C93.6225 64.898 93.8905 64.8433 94.1279 64.734C94.3679 64.6246 94.5772 64.478 94.7559 64.294L93.0639 62.59ZM96.7599 65.414H96.0679C95.9905 65.414 95.9279 65.4046 95.8799 65.386C95.8319 65.3673 95.7799 65.3286 95.7239 65.27L95.1439 64.686C94.8932 64.9286 94.6039 65.122 94.2759 65.266C93.9505 65.4073 93.5919 65.478 93.1999 65.478C92.9865 65.478 92.7772 65.442 92.5719 65.37C92.3692 65.298 92.1865 65.194 92.0239 65.058C91.8612 64.9193 91.7305 64.7513 91.6319 64.554C91.5332 64.3566 91.4839 64.134 91.4839 63.886C91.4839 63.6993 91.5145 63.5233 91.5759 63.358C91.6399 63.19 91.7279 63.0353 91.8399 62.894C91.9519 62.7526 92.0839 62.626 92.2359 62.514C92.3879 62.402 92.5545 62.306 92.7359 62.226C92.5732 62.018 92.4532 61.818 92.3759 61.626C92.2985 61.4313 92.2599 61.23 92.2599 61.022C92.2599 60.8273 92.2945 60.6446 92.3639 60.474C92.4359 60.3033 92.5385 60.1553 92.6719 60.03C92.8052 59.902 92.9665 59.802 93.1559 59.73C93.3479 59.6553 93.5625 59.618 93.7999 59.618C94.0105 59.618 94.2025 59.6526 94.3759 59.722C94.5492 59.7886 94.6985 59.878 94.8239 59.99C94.9492 60.102 95.0479 60.2326 95.1199 60.382C95.1945 60.5286 95.2372 60.682 95.2479 60.842L94.8039 60.93C94.7159 60.9513 94.6505 60.91 94.6079 60.806C94.5892 60.7366 94.5585 60.6646 94.5159 60.59C94.4759 60.5153 94.4225 60.4473 94.3559 60.386C94.2919 60.3246 94.2132 60.274 94.1199 60.234C94.0292 60.194 93.9225 60.174 93.7999 60.174C93.6665 60.174 93.5452 60.1953 93.4359 60.238C93.3292 60.2806 93.2372 60.3406 93.1599 60.418C93.0852 60.4926 93.0279 60.582 92.9879 60.686C92.9479 60.7873 92.9279 60.898 92.9279 61.018C92.9279 61.1113 92.9385 61.2006 92.9599 61.286C92.9812 61.3713 93.0145 61.458 93.0599 61.546C93.1079 61.634 93.1679 61.7233 93.2399 61.814C93.3119 61.9046 93.3985 62.0006 93.4999 62.102L95.1479 63.778C95.2492 63.5966 95.3305 63.4086 95.3919 63.214C95.4532 63.0166 95.4932 62.8206 95.5119 62.626C95.5172 62.5753 95.5332 62.5353 95.5599 62.506C95.5865 62.4766 95.6239 62.462 95.6719 62.462H96.1079C96.1052 62.7686 96.0572 63.07 95.9639 63.366C95.8705 63.6593 95.7359 63.9353 95.5599 64.194L96.7599 65.414Z" fill="white"/>
<path d="M76.9886 72.658V74.858C76.7006 75.066 76.3926 75.222 76.0646 75.326C75.7393 75.4273 75.382 75.478 74.9926 75.478C74.5313 75.478 74.1153 75.4073 73.7446 75.266C73.374 75.122 73.0566 74.922 72.7926 74.666C72.5313 74.4073 72.33 74.098 72.1886 73.738C72.0473 73.378 71.9766 72.982 71.9766 72.55C71.9766 72.1126 72.0446 71.714 72.1806 71.354C72.3193 70.994 72.5153 70.686 72.7686 70.43C73.022 70.1713 73.33 69.9713 73.6926 69.83C74.0553 69.6886 74.4606 69.618 74.9086 69.618C75.1353 69.618 75.346 69.6353 75.5406 69.67C75.7353 69.702 75.9153 69.75 76.0806 69.814C76.246 69.8753 76.3993 69.9513 76.5406 70.042C76.682 70.13 76.814 70.23 76.9366 70.342L76.7166 70.694C76.682 70.7473 76.6366 70.782 76.5806 70.798C76.5273 70.8113 76.4673 70.798 76.4006 70.758C76.3366 70.7206 76.2633 70.6753 76.1806 70.622C76.098 70.5686 75.9966 70.518 75.8766 70.47C75.7593 70.4193 75.6193 70.3766 75.4566 70.342C75.2966 70.3073 75.106 70.29 74.8846 70.29C74.562 70.29 74.27 70.3433 74.0086 70.45C73.7473 70.554 73.5246 70.7046 73.3406 70.902C73.1566 71.0966 73.0153 71.334 72.9166 71.614C72.818 71.8913 72.7686 72.2033 72.7686 72.55C72.7686 72.91 72.8193 73.2326 72.9206 73.518C73.0246 73.8006 73.1713 74.042 73.3606 74.242C73.5526 74.4393 73.7846 74.59 74.0566 74.694C74.3286 74.798 74.634 74.85 74.9726 74.85C75.2393 74.85 75.4753 74.8206 75.6806 74.762C75.8886 74.7006 76.0913 74.6166 76.2886 74.51V73.25H75.3966C75.346 73.25 75.3046 73.2353 75.2726 73.206C75.2433 73.1766 75.2286 73.1406 75.2286 73.098V72.658H76.9886Z" fill="white"/>
<path d="M78.7053 69.522V75.414H77.9933V69.522H78.7053Z" fill="white"/>
<path d="M81.5679 71.298C81.8639 71.298 82.1306 71.3473 82.3679 71.446C82.6053 71.5446 82.8079 71.6846 82.9759 71.866C83.1439 72.0473 83.2719 72.2673 83.3599 72.526C83.4506 72.782 83.4959 73.0686 83.4959 73.386C83.4959 73.706 83.4506 73.994 83.3599 74.25C83.2719 74.506 83.1439 74.7246 82.9759 74.906C82.8079 75.0873 82.6053 75.2273 82.3679 75.326C82.1306 75.422 81.8639 75.47 81.5679 75.47C81.2693 75.47 80.9999 75.422 80.7599 75.326C80.5226 75.2273 80.3199 75.0873 80.1519 74.906C79.9839 74.7246 79.8546 74.506 79.7639 74.25C79.6759 73.994 79.6319 73.706 79.6319 73.386C79.6319 73.0686 79.6759 72.782 79.7639 72.526C79.8546 72.2673 79.9839 72.0473 80.1519 71.866C80.3199 71.6846 80.5226 71.5446 80.7599 71.446C80.9999 71.3473 81.2693 71.298 81.5679 71.298ZM81.5679 74.914C81.9679 74.914 82.2666 74.7806 82.4639 74.514C82.6613 74.2446 82.7599 73.87 82.7599 73.39C82.7599 72.9073 82.6613 72.5313 82.4639 72.262C82.2666 71.9926 81.9679 71.858 81.5679 71.858C81.3653 71.858 81.1879 71.8926 81.0359 71.962C80.8866 72.0313 80.7613 72.1313 80.6599 72.262C80.5613 72.3926 80.4866 72.554 80.4359 72.746C80.3879 72.9353 80.3639 73.15 80.3639 73.39C80.3639 73.87 80.4626 74.2446 80.6599 74.514C80.8599 74.7806 81.1626 74.914 81.5679 74.914Z" fill="white"/>
<path d="M85.115 74.438C85.2457 74.614 85.3883 74.738 85.543 74.81C85.7003 74.882 85.8723 74.918 86.059 74.918C86.4403 74.918 86.7323 74.7833 86.935 74.514C87.1377 74.2446 87.239 73.8433 87.239 73.31C87.239 72.814 87.1483 72.45 86.967 72.218C86.7883 71.9833 86.5323 71.866 86.199 71.866C85.967 71.866 85.7643 71.9193 85.591 72.026C85.4203 72.1326 85.2617 72.2833 85.115 72.478V74.438ZM85.115 71.946C85.2857 71.7486 85.4777 71.5913 85.691 71.474C85.907 71.3566 86.155 71.298 86.435 71.298C86.6723 71.298 86.8857 71.3433 87.075 71.434C87.267 71.5246 87.4297 71.6566 87.563 71.83C87.6963 72.0006 87.7977 72.2086 87.867 72.454C87.939 72.6993 87.975 72.9753 87.975 73.282C87.975 73.61 87.935 73.9086 87.855 74.178C87.775 74.4473 87.659 74.678 87.507 74.87C87.3577 75.0593 87.175 75.2073 86.959 75.314C86.743 75.418 86.5003 75.47 86.231 75.47C85.9643 75.47 85.739 75.4206 85.555 75.322C85.3737 75.2206 85.215 75.078 85.079 74.894L85.043 75.262C85.0217 75.3633 84.9603 75.414 84.859 75.414H84.399V69.522H85.115V71.946Z" fill="white"/>
<path d="M91.0716 73.59C90.7436 73.6006 90.4636 73.6273 90.2316 73.67C90.0022 73.71 89.8142 73.7633 89.6676 73.83C89.5236 73.8966 89.4182 73.9753 89.3516 74.066C89.2876 74.1566 89.2556 74.258 89.2556 74.37C89.2556 74.4766 89.2729 74.5686 89.3076 74.646C89.3422 74.7233 89.3889 74.7873 89.4476 74.838C89.5089 74.886 89.5796 74.922 89.6596 74.946C89.7422 74.9673 89.8302 74.978 89.9236 74.978C90.0489 74.978 90.1636 74.966 90.2676 74.942C90.3716 74.9153 90.4689 74.878 90.5596 74.83C90.6529 74.782 90.7409 74.7246 90.8236 74.658C90.9089 74.5913 90.9916 74.5153 91.0716 74.43V73.59ZM88.7716 71.934C88.9956 71.718 89.2369 71.5566 89.4956 71.45C89.7542 71.3433 90.0409 71.29 90.3556 71.29C90.5822 71.29 90.7836 71.3273 90.9596 71.402C91.1356 71.4766 91.2836 71.5806 91.4036 71.714C91.5236 71.8473 91.6142 72.0086 91.6756 72.198C91.7369 72.3873 91.7676 72.5953 91.7676 72.822V75.414H91.4516C91.3822 75.414 91.3289 75.4033 91.2916 75.382C91.2542 75.358 91.2249 75.3126 91.2036 75.246L91.1236 74.862C91.0169 74.9606 90.9129 75.0486 90.8116 75.126C90.7102 75.2006 90.6036 75.2646 90.4916 75.318C90.3796 75.3686 90.2596 75.4073 90.1316 75.434C90.0062 75.4633 89.8662 75.478 89.7116 75.478C89.5542 75.478 89.4062 75.4566 89.2676 75.414C89.1289 75.3686 89.0076 75.302 88.9036 75.214C88.8022 75.126 88.7209 75.0153 88.6596 74.882C88.6009 74.746 88.5716 74.586 88.5716 74.402C88.5716 74.242 88.6156 74.0886 88.7036 73.942C88.7916 73.7926 88.9342 73.6606 89.1316 73.546C89.3289 73.4313 89.5862 73.338 89.9036 73.266C90.2209 73.1913 90.6102 73.1486 91.0716 73.138V72.822C91.0716 72.5073 91.0036 72.27 90.8676 72.11C90.7316 71.9473 90.5329 71.866 90.2716 71.866C90.0956 71.866 89.9476 71.8886 89.8276 71.934C89.7102 71.9766 89.6076 72.026 89.5196 72.082C89.4342 72.1353 89.3596 72.1846 89.2956 72.23C89.2342 72.2726 89.1729 72.294 89.1116 72.294C89.0636 72.294 89.0222 72.282 88.9876 72.258C88.9529 72.2313 88.9236 72.1993 88.8996 72.162L88.7716 71.934Z" fill="white"/>
<path d="M93.5881 69.522V75.414H92.8761V69.522H93.5881Z" fill="white"/>
<path d="M117.406 95.318L116.506 92.986C116.48 92.9167 116.452 92.8367 116.422 92.746C116.393 92.6527 116.365 92.554 116.338 92.45C116.282 92.666 116.225 92.846 116.166 92.99L115.266 95.318H117.406ZM119.022 97.446H118.422C118.353 97.446 118.297 97.4287 118.254 97.394C118.212 97.3593 118.18 97.3153 118.158 97.262L117.622 95.878H115.05L114.514 97.262C114.498 97.31 114.468 97.3527 114.422 97.39C114.377 97.4273 114.321 97.446 114.254 97.446H113.654L115.946 91.714H116.73L119.022 97.446Z" fill="white"/>
<path d="M120.329 91.554V97.446H119.617V91.554H120.329Z" fill="white"/>
<path d="M122.219 91.554V97.446H121.507V91.554H122.219Z" fill="white"/>
</svg>
