<svg width="92" height="42" viewBox="0 0 92 42" fill="none" xmlns="http://www.w3.org/2000/svg">
<g clip-path="url(#clip0_205_31964)">
<rect x="30.5" y="14.75" width="31" height="12.5" fill="white" fill-opacity="0.2"/>
<rect x="61" y="28.75" width="31" height="12.5" fill="white" fill-opacity="0.2"/>
<rect y="0.75" width="31" height="12.5" fill="white" fill-opacity="0.2"/>
<path d="M8.70689 4.556C8.68289 4.596 8.65622 4.62667 8.62688 4.648C8.60022 4.66667 8.56688 4.676 8.52689 4.676C8.48155 4.676 8.42822 4.65333 8.36688 4.608C8.30555 4.56267 8.22822 4.51333 8.13489 4.46C8.04422 4.404 7.93355 4.35333 7.80289 4.308C7.67488 4.26267 7.51888 4.24 7.33488 4.24C7.16155 4.24 7.00822 4.264 6.87488 4.312C6.74422 4.35733 6.63355 4.42 6.54288 4.5C6.45488 4.58 6.38822 4.67467 6.34288 4.784C6.29755 4.89067 6.27488 5.00667 6.27488 5.132C6.27488 5.292 6.31355 5.42533 6.39088 5.532C6.47088 5.636 6.57488 5.72533 6.70288 5.8C6.83355 5.87467 6.98022 5.94 7.14288 5.996C7.30822 6.04933 7.47622 6.10533 7.64688 6.164C7.82022 6.22267 7.98822 6.28933 8.15088 6.364C8.31622 6.436 8.46288 6.528 8.59088 6.64C8.72155 6.752 8.82555 6.88933 8.90288 7.052C8.98289 7.21467 9.02289 7.41467 9.02289 7.652C9.02289 7.90267 8.98022 8.13867 8.89489 8.36C8.80955 8.57867 8.68422 8.76933 8.51888 8.932C8.35622 9.09467 8.15488 9.22267 7.91489 9.316C7.67755 9.40933 7.40688 9.456 7.10289 9.456C6.72955 9.456 6.39088 9.38933 6.08688 9.256C5.78288 9.12 5.52288 8.93733 5.30688 8.708L5.53088 8.34C5.55222 8.31067 5.57755 8.28667 5.60688 8.268C5.63888 8.24667 5.67355 8.236 5.71088 8.236C5.74555 8.236 5.78422 8.25067 5.82688 8.28C5.87222 8.30667 5.92288 8.34133 5.97888 8.384C6.03488 8.42667 6.09888 8.47333 6.17088 8.524C6.24288 8.57467 6.32422 8.62133 6.41488 8.664C6.50822 8.70667 6.61355 8.74267 6.73088 8.772C6.84822 8.79867 6.98022 8.812 7.12688 8.812C7.31088 8.812 7.47488 8.78667 7.61889 8.736C7.76288 8.68533 7.88422 8.61467 7.98288 8.524C8.08422 8.43067 8.16155 8.32 8.21488 8.192C8.26822 8.064 8.29488 7.92133 8.29488 7.764C8.29488 7.59067 8.25488 7.44933 8.17489 7.34C8.09755 7.228 7.99488 7.13467 7.86688 7.06C7.73889 6.98533 7.59222 6.92267 7.42688 6.872C7.26155 6.81867 7.09355 6.76533 6.92288 6.712C6.75222 6.656 6.58422 6.592 6.41888 6.52C6.25355 6.448 6.10688 6.35467 5.97888 6.24C5.85088 6.12533 5.74688 5.98267 5.66688 5.812C5.58955 5.63867 5.55088 5.42533 5.55088 5.172C5.55088 4.96933 5.58955 4.77333 5.66688 4.584C5.74688 4.39467 5.86155 4.22667 6.01088 4.08C6.16288 3.93333 6.34822 3.816 6.56688 3.728C6.78822 3.64 7.04155 3.596 7.32688 3.596C7.64689 3.596 7.93755 3.64667 8.19888 3.748C8.46289 3.84933 8.69489 3.996 8.89489 4.188L8.70689 4.556Z" fill="white"/>
<path d="M10.6636 5.34V9.392H9.95157V5.34H10.6636ZM10.8156 4.068C10.8156 4.13733 10.8009 4.20267 10.7716 4.264C10.7449 4.32267 10.7076 4.376 10.6596 4.424C10.6142 4.46933 10.5596 4.50533 10.4956 4.532C10.4342 4.55867 10.3689 4.572 10.2996 4.572C10.2302 4.572 10.1649 4.55867 10.1036 4.532C10.0449 4.50533 9.99291 4.46933 9.94757 4.424C9.90224 4.376 9.86624 4.32267 9.83957 4.264C9.81291 4.20267 9.79957 4.13733 9.79957 4.068C9.79957 3.99867 9.81291 3.93333 9.83957 3.872C9.86624 3.808 9.90224 3.75333 9.94757 3.708C9.99291 3.66 10.0449 3.62267 10.1036 3.596C10.1649 3.56933 10.2302 3.556 10.2996 3.556C10.3689 3.556 10.4342 3.56933 10.4956 3.596C10.5596 3.62267 10.6142 3.66 10.6596 3.708C10.7076 3.75333 10.7449 3.808 10.7716 3.872C10.8009 3.93333 10.8156 3.99867 10.8156 4.068Z" fill="white"/>
<path d="M12.5054 5.928C12.5934 5.82933 12.6868 5.74 12.7854 5.66C12.8841 5.58 12.9881 5.512 13.0974 5.456C13.2094 5.39733 13.3268 5.35333 13.4494 5.324C13.5748 5.292 13.7094 5.276 13.8534 5.276C14.0748 5.276 14.2694 5.31333 14.4374 5.388C14.6081 5.46 14.7494 5.564 14.8614 5.7C14.9761 5.83333 15.0628 5.99467 15.1214 6.184C15.1801 6.37333 15.2094 6.58267 15.2094 6.812V9.392H14.4934V6.812C14.4934 6.50533 14.4228 6.268 14.2814 6.1C14.1428 5.92933 13.9308 5.844 13.6454 5.844C13.4348 5.844 13.2374 5.89467 13.0534 5.996C12.8721 6.09733 12.7041 6.23467 12.5494 6.408V9.392H11.8334V5.34H12.2614C12.3628 5.34 12.4254 5.38933 12.4494 5.488L12.5054 5.928Z" fill="white"/>
<path d="M17.7064 7.412C17.8504 7.412 17.9771 7.392 18.0864 7.352C18.1957 7.312 18.2877 7.256 18.3624 7.184C18.4371 7.112 18.4931 7.02667 18.5304 6.928C18.5677 6.82667 18.5864 6.716 18.5864 6.596C18.5864 6.348 18.5104 6.15067 18.3584 6.004C18.2091 5.85733 17.9917 5.784 17.7064 5.784C17.4184 5.784 17.1984 5.85733 17.0464 6.004C16.8971 6.15067 16.8224 6.348 16.8224 6.596C16.8224 6.716 16.8411 6.82667 16.8784 6.928C16.9184 7.02667 16.9757 7.112 17.0504 7.184C17.1251 7.256 17.2171 7.312 17.3264 7.352C17.4357 7.392 17.5624 7.412 17.7064 7.412ZM18.9904 9.612C18.9904 9.51333 18.9624 9.43333 18.9064 9.372C18.8504 9.31067 18.7744 9.26267 18.6784 9.228C18.5851 9.19333 18.4757 9.16933 18.3504 9.156C18.2251 9.14 18.0917 9.128 17.9504 9.12C17.8117 9.112 17.6704 9.104 17.5264 9.096C17.3824 9.088 17.2437 9.07467 17.1104 9.056C16.9611 9.12533 16.8384 9.21333 16.7424 9.32C16.6491 9.424 16.6024 9.54667 16.6024 9.688C16.6024 9.77867 16.6251 9.86267 16.6704 9.94C16.7184 10.02 16.7904 10.088 16.8864 10.144C16.9824 10.2027 17.1024 10.248 17.2464 10.28C17.3931 10.3147 17.5651 10.332 17.7624 10.332C17.9544 10.332 18.1264 10.3147 18.2784 10.28C18.4304 10.2453 18.5584 10.196 18.6624 10.132C18.7691 10.068 18.8504 9.992 18.9064 9.904C18.9624 9.816 18.9904 9.71867 18.9904 9.612ZM19.7144 5.5V5.764C19.7144 5.852 19.6584 5.908 19.5464 5.932L19.0864 5.992C19.1771 6.168 19.2224 6.36267 19.2224 6.576C19.2224 6.77333 19.1837 6.95333 19.1064 7.116C19.0317 7.276 18.9277 7.41333 18.7944 7.528C18.6611 7.64267 18.5011 7.73067 18.3144 7.792C18.1277 7.85333 17.9251 7.884 17.7064 7.884C17.5171 7.884 17.3384 7.86133 17.1704 7.816C17.0851 7.86933 17.0197 7.92667 16.9744 7.988C16.9291 8.04667 16.9064 8.10667 16.9064 8.168C16.9064 8.264 16.9451 8.33733 17.0224 8.388C17.1024 8.436 17.2064 8.47067 17.3344 8.492C17.4624 8.51333 17.6077 8.52667 17.7704 8.532C17.9357 8.53733 18.1037 8.54667 18.2744 8.56C18.4477 8.57067 18.6157 8.59067 18.7784 8.62C18.9437 8.64933 19.0904 8.69733 19.2184 8.764C19.3464 8.83067 19.4491 8.92267 19.5264 9.04C19.6064 9.15733 19.6464 9.30933 19.6464 9.496C19.6464 9.66933 19.6024 9.83733 19.5144 10C19.4291 10.1627 19.3051 10.3067 19.1424 10.432C18.9797 10.56 18.7797 10.6613 18.5424 10.736C18.3077 10.8133 18.0424 10.852 17.7464 10.852C17.4504 10.852 17.1917 10.8227 16.9704 10.764C16.7491 10.7053 16.5651 10.6267 16.4184 10.528C16.2717 10.4293 16.1611 10.3147 16.0864 10.184C16.0144 10.056 15.9784 9.92133 15.9784 9.78C15.9784 9.58 16.0411 9.41067 16.1664 9.272C16.2917 9.13333 16.4637 9.02267 16.6824 8.94C16.5624 8.88667 16.4664 8.816 16.3944 8.728C16.3251 8.63733 16.2904 8.516 16.2904 8.364C16.2904 8.30533 16.3011 8.24533 16.3224 8.184C16.3437 8.12 16.3757 8.05733 16.4184 7.996C16.4637 7.932 16.5184 7.872 16.5824 7.816C16.6464 7.76 16.7211 7.71067 16.8064 7.668C16.6064 7.556 16.4504 7.408 16.3384 7.224C16.2264 7.03733 16.1704 6.82133 16.1704 6.576C16.1704 6.37867 16.2077 6.2 16.2824 6.04C16.3597 5.87733 16.4664 5.74 16.6024 5.628C16.7384 5.51333 16.8997 5.42533 17.0864 5.364C17.2757 5.30267 17.4824 5.272 17.7064 5.272C17.8824 5.272 18.0464 5.292 18.1984 5.332C18.3504 5.36933 18.4891 5.42533 18.6144 5.5H19.7144Z" fill="white"/>
<path d="M21.1866 3.5V9.392H20.4746V3.5H21.1866Z" fill="white"/>
<path d="M25.0533 6.924C25.0533 6.75867 25.0293 6.608 24.9813 6.472C24.9359 6.33333 24.8679 6.21467 24.7773 6.116C24.6893 6.01467 24.5813 5.93733 24.4533 5.884C24.3253 5.828 24.1799 5.8 24.0173 5.8C23.6759 5.8 23.4053 5.9 23.2053 6.1C23.0079 6.29733 22.8853 6.572 22.8373 6.924H25.0533ZM25.6293 8.824C25.5413 8.93067 25.4359 9.024 25.3133 9.104C25.1906 9.18133 25.0586 9.24533 24.9173 9.296C24.7786 9.34667 24.6346 9.384 24.4853 9.408C24.3359 9.43467 24.1879 9.448 24.0413 9.448C23.7613 9.448 23.5026 9.40133 23.2653 9.308C23.0306 9.212 22.8266 9.07333 22.6533 8.892C22.4826 8.708 22.3493 8.48133 22.2533 8.212C22.1573 7.94267 22.1093 7.63333 22.1093 7.284C22.1093 7.00133 22.1519 6.73733 22.2373 6.492C22.3253 6.24667 22.4506 6.03467 22.6133 5.856C22.7759 5.67467 22.9746 5.53333 23.2093 5.432C23.4439 5.328 23.7079 5.276 24.0013 5.276C24.2439 5.276 24.4679 5.31733 24.6733 5.4C24.8813 5.48 25.0599 5.59733 25.2093 5.752C25.3613 5.904 25.4799 6.09333 25.5653 6.32C25.6506 6.544 25.6933 6.8 25.6933 7.088C25.6933 7.2 25.6813 7.27467 25.6573 7.312C25.6333 7.34933 25.5879 7.368 25.5213 7.368H22.8133C22.8213 7.624 22.8559 7.84667 22.9173 8.036C22.9813 8.22533 23.0693 8.384 23.1813 8.512C23.2933 8.63733 23.4266 8.732 23.5813 8.796C23.7359 8.85733 23.9093 8.888 24.1013 8.888C24.2799 8.888 24.4333 8.868 24.5613 8.828C24.6919 8.78533 24.8039 8.74 24.8973 8.692C24.9906 8.644 25.0679 8.6 25.1293 8.56C25.1933 8.51733 25.2479 8.496 25.2933 8.496C25.3519 8.496 25.3973 8.51867 25.4293 8.564L25.6293 8.824Z" fill="white"/>
<path d="M41.5058 18.5779C41.4818 18.6179 41.4552 18.6486 41.4258 18.6699C41.3992 18.6886 41.3658 18.6979 41.3258 18.6979C41.2805 18.6979 41.2272 18.6753 41.1658 18.6299C41.1045 18.5846 41.0272 18.5353 40.9338 18.4819C40.8432 18.4259 40.7325 18.3753 40.6018 18.3299C40.4738 18.2846 40.3178 18.2619 40.1338 18.2619C39.9605 18.2619 39.8072 18.2859 39.6738 18.3339C39.5432 18.3793 39.4325 18.4419 39.3418 18.5219C39.2538 18.6019 39.1872 18.6966 39.1418 18.8059C39.0965 18.9126 39.0738 19.0286 39.0738 19.1539C39.0738 19.3139 39.1125 19.4473 39.1898 19.5539C39.2698 19.6579 39.3738 19.7473 39.5018 19.8219C39.6325 19.8966 39.7792 19.9619 39.9418 20.0179C40.1072 20.0713 40.2752 20.1273 40.4458 20.1859C40.6192 20.2446 40.7872 20.3113 40.9498 20.3859C41.1152 20.4579 41.2618 20.5499 41.3898 20.6619C41.5205 20.7739 41.6245 20.9113 41.7018 21.0739C41.7818 21.2366 41.8218 21.4366 41.8218 21.6739C41.8218 21.9246 41.7792 22.1606 41.6938 22.3819C41.6085 22.6006 41.4832 22.7913 41.3178 22.9539C41.1552 23.1166 40.9538 23.2446 40.7138 23.3379C40.4765 23.4313 40.2058 23.4779 39.9018 23.4779C39.5285 23.4779 39.1898 23.4113 38.8858 23.2779C38.5818 23.1419 38.3218 22.9593 38.1058 22.7299L38.3298 22.3619C38.3512 22.3326 38.3765 22.3086 38.4058 22.2899C38.4378 22.2686 38.4725 22.2579 38.5098 22.2579C38.5445 22.2579 38.5832 22.2726 38.6258 22.3019C38.6712 22.3286 38.7218 22.3633 38.7778 22.4059C38.8338 22.4486 38.8978 22.4953 38.9698 22.5459C39.0418 22.5966 39.1232 22.6433 39.2138 22.6859C39.3072 22.7286 39.4125 22.7646 39.5298 22.7939C39.6472 22.8206 39.7792 22.8339 39.9258 22.8339C40.1098 22.8339 40.2738 22.8086 40.4178 22.7579C40.5618 22.7073 40.6832 22.6366 40.7818 22.5459C40.8832 22.4526 40.9605 22.3419 41.0138 22.2139C41.0672 22.0859 41.0938 21.9433 41.0938 21.7859C41.0938 21.6126 41.0538 21.4713 40.9738 21.3619C40.8965 21.2499 40.7938 21.1566 40.6658 21.0819C40.5378 21.0073 40.3912 20.9446 40.2258 20.8939C40.0605 20.8406 39.8925 20.7873 39.7218 20.7339C39.5512 20.6779 39.3832 20.6139 39.2178 20.5419C39.0525 20.4699 38.9058 20.3766 38.7778 20.2619C38.6498 20.1473 38.5458 20.0046 38.4658 19.8339C38.3885 19.6606 38.3498 19.4473 38.3498 19.1939C38.3498 18.9913 38.3885 18.7953 38.4658 18.6059C38.5458 18.4166 38.6605 18.2486 38.8098 18.1019C38.9618 17.9553 39.1472 17.8379 39.3658 17.7499C39.5872 17.6619 39.8405 17.6179 40.1258 17.6179C40.4458 17.6179 40.7365 17.6686 40.9978 17.7699C41.2618 17.8713 41.4938 18.0179 41.6938 18.2099L41.5058 18.5779Z" fill="white"/>
<path d="M43.3953 19.9019C43.5686 19.7179 43.7606 19.5713 43.9713 19.4619C44.1819 19.3526 44.4246 19.2979 44.6993 19.2979C44.9206 19.2979 45.1153 19.3353 45.2833 19.4099C45.4539 19.4819 45.5953 19.5859 45.7073 19.7219C45.8219 19.8553 45.9086 20.0166 45.9673 20.2059C46.0259 20.3953 46.0553 20.6046 46.0553 20.8339V23.4139H45.3393V20.8339C45.3393 20.5273 45.2686 20.2899 45.1273 20.1219C44.9886 19.9513 44.7766 19.8659 44.4913 19.8659C44.2806 19.8659 44.0833 19.9166 43.8993 20.0179C43.7179 20.1193 43.5499 20.2566 43.3953 20.4299V23.4139H42.6793V17.5219H43.3953V19.9019Z" fill="white"/>
<path d="M47.8922 19.3619V23.4139H47.1802V19.3619H47.8922ZM48.0442 18.0899C48.0442 18.1593 48.0295 18.2246 48.0002 18.2859C47.9735 18.3446 47.9362 18.3979 47.8882 18.4459C47.8429 18.4913 47.7882 18.5273 47.7242 18.5539C47.6629 18.5806 47.5975 18.5939 47.5282 18.5939C47.4589 18.5939 47.3935 18.5806 47.3322 18.5539C47.2735 18.5273 47.2215 18.4913 47.1762 18.4459C47.1309 18.3979 47.0949 18.3446 47.0682 18.2859C47.0415 18.2246 47.0282 18.1593 47.0282 18.0899C47.0282 18.0206 47.0415 17.9553 47.0682 17.8939C47.0949 17.8299 47.1309 17.7753 47.1762 17.7299C47.2215 17.6819 47.2735 17.6446 47.3322 17.6179C47.3935 17.5913 47.4589 17.5779 47.5282 17.5779C47.5975 17.5779 47.6629 17.5913 47.7242 17.6179C47.7882 17.6446 47.8429 17.6819 47.8882 17.7299C47.9362 17.7753 47.9735 17.8299 48.0002 17.8939C48.0295 17.9553 48.0442 18.0206 48.0442 18.0899Z" fill="white"/>
<path d="M52.6301 19.9579V22.3899C52.6301 22.5606 52.6714 22.6873 52.7541 22.7699C52.8368 22.8526 52.9421 22.8939 53.0701 22.8939C53.1474 22.8939 53.2128 22.8846 53.2661 22.8659C53.3221 22.8446 53.3701 22.8219 53.4101 22.7979C53.4501 22.7739 53.4834 22.7526 53.5101 22.7339C53.5368 22.7126 53.5608 22.7019 53.5821 22.7019C53.6061 22.7019 53.6248 22.7073 53.6381 22.7179C53.6541 22.7286 53.6701 22.7459 53.6861 22.7699L53.8941 23.1099C53.7714 23.2246 53.6234 23.3153 53.4501 23.3819C53.2768 23.4459 53.0968 23.4779 52.9101 23.4779C52.5928 23.4779 52.3474 23.3886 52.1741 23.2099C52.0034 23.0313 51.9181 22.7739 51.9181 22.4379V19.9579H50.0421V23.4139H49.3261V19.9699L48.8781 19.9179C48.8221 19.9046 48.7754 19.8846 48.7381 19.8579C48.7034 19.8286 48.6861 19.7873 48.6861 19.7339V19.4419H49.3261V19.0499C49.3261 18.8179 49.3581 18.6126 49.4221 18.4339C49.4888 18.2526 49.5821 18.1006 49.7021 17.9779C49.8248 17.8526 49.9714 17.7579 50.1421 17.6939C50.3128 17.6299 50.5048 17.5979 50.7181 17.5979C50.8994 17.5979 51.0661 17.6246 51.2181 17.6779L51.2021 18.0339C51.1968 18.0979 51.1608 18.1326 51.0941 18.1379C51.0301 18.1433 50.9434 18.1459 50.8341 18.1459C50.7114 18.1459 50.5994 18.1619 50.4981 18.1939C50.3994 18.2259 50.3141 18.2779 50.2421 18.3499C50.1701 18.4219 50.1141 18.5166 50.0741 18.6339C50.0368 18.7513 50.0181 18.8966 50.0181 19.0699V19.4419H51.9421L52.1021 18.1819C52.1128 18.1419 52.1314 18.1099 52.1581 18.0859C52.1874 18.0593 52.2248 18.0459 52.2701 18.0459H52.6301V19.4419H53.7981V19.9579H52.6301Z" fill="white"/>
<path d="M72.3557 34.4701C72.3557 34.8994 72.2877 35.2901 72.1517 35.6421C72.0157 35.9941 71.8237 36.2954 71.5757 36.5461C71.3277 36.7967 71.029 36.9914 70.6797 37.1301C70.333 37.2661 69.949 37.3341 69.5277 37.3341H67.3877V31.6021H69.5277C69.949 31.6021 70.333 31.6714 70.6797 31.8101C71.029 31.9461 71.3277 32.1407 71.5757 32.3941C71.8237 32.6447 72.0157 32.9461 72.1517 33.2981C72.2877 33.6501 72.3557 34.0407 72.3557 34.4701ZM71.5597 34.4701C71.5597 34.1181 71.5117 33.8034 71.4157 33.5261C71.3197 33.2487 71.1837 33.0141 71.0077 32.8221C70.8317 32.6301 70.6184 32.4834 70.3677 32.3821C70.117 32.2807 69.837 32.2301 69.5277 32.2301H68.1637V36.7061H69.5277C69.837 36.7061 70.117 36.6554 70.3677 36.5541C70.6184 36.4527 70.8317 36.3074 71.0077 36.1181C71.1837 35.9261 71.3197 35.6914 71.4157 35.4141C71.5117 35.1367 71.5597 34.8221 71.5597 34.4701Z" fill="white"/>
<path d="M73.8957 34.0941C74.0237 33.8167 74.181 33.6007 74.3677 33.4461C74.5544 33.2887 74.7824 33.2101 75.0517 33.2101C75.137 33.2101 75.2184 33.2194 75.2957 33.2381C75.3757 33.2567 75.4464 33.2861 75.5077 33.3261L75.4557 33.8581C75.4397 33.9247 75.3997 33.9581 75.3357 33.9581C75.2984 33.9581 75.2437 33.9501 75.1717 33.9341C75.0997 33.9181 75.0184 33.9101 74.9277 33.9101C74.7997 33.9101 74.685 33.9287 74.5837 33.9661C74.485 34.0034 74.3957 34.0594 74.3157 34.1341C74.2384 34.2061 74.1677 34.2967 74.1037 34.4061C74.0424 34.5127 73.9864 34.6354 73.9357 34.7741V37.3341H73.2197V33.2821H73.6277C73.705 33.2821 73.7584 33.2967 73.7877 33.3261C73.817 33.3554 73.837 33.4061 73.8477 33.4781L73.8957 34.0941Z" fill="white"/>
<path d="M78.2673 35.5101C77.9393 35.5207 77.6593 35.5474 77.4273 35.5901C77.1979 35.6301 77.0099 35.6834 76.8633 35.7501C76.7193 35.8167 76.6139 35.8954 76.5473 35.9861C76.4833 36.0767 76.4513 36.1781 76.4513 36.2901C76.4513 36.3967 76.4686 36.4887 76.5033 36.5661C76.5379 36.6434 76.5846 36.7074 76.6433 36.7581C76.7046 36.8061 76.7753 36.8421 76.8553 36.8661C76.9379 36.8874 77.0259 36.8981 77.1193 36.8981C77.2446 36.8981 77.3593 36.8861 77.4633 36.8621C77.5673 36.8354 77.6646 36.7981 77.7553 36.7501C77.8486 36.7021 77.9366 36.6447 78.0193 36.5781C78.1046 36.5114 78.1873 36.4354 78.2673 36.3501V35.5101ZM75.9673 33.8541C76.1913 33.6381 76.4326 33.4767 76.6913 33.3701C76.9499 33.2634 77.2366 33.2101 77.5513 33.2101C77.7779 33.2101 77.9793 33.2474 78.1553 33.3221C78.3313 33.3967 78.4793 33.5007 78.5993 33.6341C78.7193 33.7674 78.8099 33.9287 78.8713 34.1181C78.9326 34.3074 78.9633 34.5154 78.9633 34.7421V37.3341H78.6473C78.5779 37.3341 78.5246 37.3234 78.4873 37.3021C78.4499 37.2781 78.4206 37.2327 78.3993 37.1661L78.3193 36.7821C78.2126 36.8807 78.1086 36.9687 78.0073 37.0461C77.9059 37.1207 77.7993 37.1847 77.6873 37.2381C77.5753 37.2887 77.4553 37.3274 77.3273 37.3541C77.2019 37.3834 77.0619 37.3981 76.9073 37.3981C76.7499 37.3981 76.6019 37.3767 76.4633 37.3341C76.3246 37.2887 76.2033 37.2221 76.0993 37.1341C75.9979 37.0461 75.9166 36.9354 75.8553 36.8021C75.7966 36.6661 75.7673 36.5061 75.7673 36.3221C75.7673 36.1621 75.8113 36.0087 75.8993 35.8621C75.9873 35.7127 76.1299 35.5807 76.3273 35.4661C76.5246 35.3514 76.7819 35.2581 77.0993 35.1861C77.4166 35.1114 77.8059 35.0687 78.2673 35.0581V34.7421C78.2673 34.4274 78.1993 34.1901 78.0633 34.0301C77.9273 33.8674 77.7286 33.7861 77.4673 33.7861C77.2913 33.7861 77.1433 33.8087 77.0233 33.8541C76.9059 33.8967 76.8033 33.9461 76.7153 34.0021C76.6299 34.0554 76.5553 34.1047 76.4913 34.1501C76.4299 34.1927 76.3686 34.2141 76.3073 34.2141C76.2593 34.2141 76.2179 34.2021 76.1833 34.1781C76.1486 34.1514 76.1193 34.1194 76.0953 34.0821L75.9673 33.8541Z" fill="white"/>
<path d="M85.6124 33.2821L84.3004 37.3341H83.7364C83.6671 37.3341 83.619 37.2887 83.5924 37.1981L82.6964 34.4501C82.675 34.3887 82.6577 34.3274 82.6444 34.2661C82.631 34.2021 82.6177 34.1394 82.6044 34.0781C82.591 34.1394 82.5777 34.2021 82.5644 34.2661C82.551 34.3274 82.5337 34.3901 82.5124 34.4541L81.6004 37.1981C81.5764 37.2887 81.523 37.3341 81.4404 37.3341H80.9044L79.5924 33.2821H80.1524C80.2084 33.2821 80.255 33.2967 80.2924 33.3261C80.3324 33.3554 80.359 33.3901 80.3724 33.4301L81.1484 36.0381C81.1937 36.2301 81.2297 36.4114 81.2564 36.5821C81.2804 36.4941 81.3044 36.4047 81.3284 36.3141C81.355 36.2234 81.383 36.1314 81.4124 36.0381L82.2684 33.4141C82.2817 33.3741 82.3044 33.3407 82.3364 33.3141C82.371 33.2874 82.4124 33.2741 82.4604 33.2741H82.7724C82.8257 33.2741 82.8697 33.2874 82.9044 33.3141C82.939 33.3407 82.963 33.3741 82.9764 33.4141L83.8124 36.0381C83.8417 36.1314 83.8684 36.2234 83.8924 36.3141C83.9164 36.4047 83.939 36.4941 83.9604 36.5821C83.9737 36.4941 83.9897 36.4061 84.0084 36.3181C84.0297 36.2274 84.0524 36.1341 84.0764 36.0381L84.8684 33.4301C84.8817 33.3874 84.9071 33.3527 84.9444 33.3261C84.9817 33.2967 85.0257 33.2821 85.0764 33.2821H85.6124Z" fill="white"/>
</g>
<defs>
<clipPath id="clip0_205_31964">
<rect width="92" height="42" fill="white"/>
</clipPath>
</defs>
</svg>
