<svg width="24" height="24" viewBox="0 0 24 24" fill="none" xmlns="http://www.w3.org/2000/svg">
<g clip-path="url(#clip0_205_31860)">
<rect y="0.5" width="11" height="11" fill="white" fill-opacity="0.2"/>
<rect x="13" y="12.5" width="11" height="11" fill="white" fill-opacity="0.2"/>
<path d="M7.98399 6.00203C7.98399 6.43137 7.91599 6.82203 7.77999 7.17403C7.64399 7.52603 7.45199 7.82737 7.20399 8.07803C6.95599 8.3287 6.65732 8.52337 6.30799 8.66203C5.96132 8.79803 5.57732 8.86603 5.15599 8.86603H3.01599V3.13403H5.15599C5.57732 3.13403 5.96132 3.20337 6.30799 3.34203C6.65732 3.47803 6.95599 3.6727 7.20399 3.92603C7.45199 4.1767 7.64399 4.47803 7.77999 4.83003C7.91599 5.18203 7.98399 5.5727 7.98399 6.00203ZM7.18799 6.00203C7.18799 5.65003 7.13999 5.33537 7.04399 5.05803C6.94799 4.7807 6.81199 4.54603 6.63599 4.35403C6.45999 4.16203 6.24666 4.01537 5.99599 3.91403C5.74532 3.8127 5.46532 3.76203 5.15599 3.76203H3.79199V8.23803H5.15599C5.46532 8.23803 5.74532 8.18737 5.99599 8.08603C6.24666 7.9847 6.45999 7.83937 6.63599 7.65003C6.81199 7.45803 6.94799 7.22337 7.04399 6.94603C7.13999 6.6687 7.18799 6.35403 7.18799 6.00203Z" fill="white"/>
<path d="M19.568 18.738L18.668 16.406C18.6413 16.3367 18.6133 16.2567 18.584 16.166C18.5546 16.0727 18.5266 15.974 18.5 15.87C18.444 16.086 18.3866 16.266 18.328 16.41L17.428 18.738H19.568ZM21.184 20.866H20.584C20.5146 20.866 20.4586 20.8487 20.416 20.814C20.3733 20.7794 20.3413 20.7354 20.32 20.682L19.784 19.298H17.212L16.676 20.682C16.66 20.73 16.6293 20.7727 16.584 20.81C16.5386 20.8474 16.4826 20.866 16.416 20.866H15.816L18.108 15.134H18.892L21.184 20.866Z" fill="white"/>
</g>
<defs>
<clipPath id="clip0_205_31860">
<rect width="24" height="24" fill="white"/>
</clipPath>
</defs>
</svg>
