<svg width="135" height="36" viewBox="0 0 135 36" fill="none" xmlns="http://www.w3.org/2000/svg">
<g clip-path="url(#clip0_205_24226)">
<path fill-rule="evenodd" clip-rule="evenodd" d="M89.6641 11V1H45.332V11H89.6641ZM89.6641 0.5H89.6678H90.1641H90.1678H134.5H135V1V11V11.5H134.5H90.1678H90.1641H89.6678H89.6641H45.332H44.832V11V1V0.5H45.332H89.6641ZM90.1678 11H134.5V1H90.1678V11Z" fill="white" fill-opacity="0.25"/>
<rect x="0.25" y="0.75" width="44.8358" height="10.5" fill="black" fill-opacity="0.1" stroke="#189BE4" stroke-width="0.5"/>
<path fill-rule="evenodd" clip-rule="evenodd" d="M0.5 13H44.8358V23H0.5V13ZM0 12.5H0.5H44.8358H45.3358V13V23V23.5H44.8358H0.5H0V23V13V12.5ZM90.1641 13H134.5V23H90.1641V13ZM89.6641 12.5H90.1641H134.5H135V13V23V23.5H134.5H90.1641H89.6641V23V13V12.5Z" fill="white" fill-opacity="0.25"/>
<path fill-rule="evenodd" clip-rule="evenodd" d="M44.832 35V25H0.5V35H44.832ZM44.832 24.5H44.8358H45.332H45.3358H89.6678H90.1678V25V35V35.5H89.6678H45.3358H45.332H44.8358H44.832H0.5H0V35V25V24.5H0.5H44.832ZM45.3358 35H89.6678V25H45.3358V35Z" fill="white" fill-opacity="0.25"/>
<rect x="45.082" y="12.75" width="44.8358" height="10.5" fill="black" fill-opacity="0.1" stroke="#189BE4" stroke-width="0.5"/>
<rect x="89.9141" y="24.75" width="44.8358" height="10.5" fill="black" fill-opacity="0.1" stroke="#189BE4" stroke-width="0.5"/>
<path d="M20.3765 3.10199L18.5885 8.83399H17.8925L16.4405 4.46199C16.4271 4.41932 16.4138 4.37399 16.4005 4.32599C16.3898 4.27799 16.3778 4.22732 16.3645 4.17399C16.3511 4.22732 16.3378 4.27799 16.3245 4.32599C16.3111 4.37399 16.2978 4.41932 16.2845 4.46199L14.8245 8.83399H14.1285L12.3405 3.10199H12.9845C13.0538 3.10199 13.1111 3.11932 13.1565 3.15399C13.2045 3.18866 13.2351 3.23266 13.2485 3.28599L14.4325 7.26999C14.4511 7.34199 14.4685 7.41932 14.4845 7.50199C14.5031 7.58466 14.5205 7.67266 14.5365 7.76599C14.5551 7.67266 14.5738 7.58466 14.5925 7.50199C14.6138 7.41666 14.6365 7.33932 14.6605 7.26999L16.0085 3.28599C16.0245 3.24066 16.0551 3.19932 16.1005 3.16199C16.1485 3.12199 16.2058 3.10199 16.2725 3.10199H16.4965C16.5658 3.10199 16.6218 3.11932 16.6645 3.15399C16.7071 3.18866 16.7391 3.23266 16.7605 3.28599L18.1045 7.26999C18.1285 7.33932 18.1498 7.41399 18.1685 7.49399C18.1898 7.57399 18.2098 7.65799 18.2285 7.74599C18.2418 7.65799 18.2565 7.57399 18.2725 7.49399C18.2885 7.41399 18.3058 7.33932 18.3245 7.26999L19.5125 3.28599C19.5258 3.23799 19.5551 3.19532 19.6005 3.15799C19.6485 3.12066 19.7058 3.10199 19.7725 3.10199H20.3765Z" fill="#EEEEEE"/>
<path d="M22.8046 7.00999C22.4766 7.02066 22.1966 7.04732 21.9646 7.08999C21.7352 7.12999 21.5472 7.18332 21.4006 7.24999C21.2566 7.31666 21.1512 7.39532 21.0846 7.48599C21.0206 7.57666 20.9886 7.67799 20.9886 7.78999C20.9886 7.89666 21.0059 7.98866 21.0406 8.06599C21.0752 8.14332 21.1219 8.20732 21.1806 8.25799C21.2419 8.30599 21.3126 8.34199 21.3926 8.36599C21.4752 8.38732 21.5632 8.39799 21.6566 8.39799C21.7819 8.39799 21.8966 8.38599 22.0006 8.36199C22.1046 8.33532 22.2019 8.29799 22.2926 8.24999C22.3859 8.20199 22.4739 8.14466 22.5566 8.07799C22.6419 8.01132 22.7246 7.93532 22.8046 7.84999V7.00999ZM20.5046 5.35399C20.7286 5.13799 20.9699 4.97666 21.2286 4.86999C21.4872 4.76332 21.7739 4.70999 22.0886 4.70999C22.3152 4.70999 22.5166 4.74732 22.6926 4.82199C22.8686 4.89666 23.0166 5.00066 23.1366 5.13399C23.2566 5.26732 23.3472 5.42866 23.4086 5.61799C23.4699 5.80732 23.5006 6.01532 23.5006 6.24199V8.83399H23.1846C23.1152 8.83399 23.0619 8.82332 23.0246 8.80199C22.9872 8.77799 22.9579 8.73266 22.9366 8.66599L22.8566 8.28199C22.7499 8.38066 22.6459 8.46866 22.5446 8.54599C22.4432 8.62066 22.3366 8.68466 22.2246 8.73799C22.1126 8.78866 21.9926 8.82732 21.8646 8.85399C21.7392 8.88332 21.5992 8.89799 21.4446 8.89799C21.2872 8.89799 21.1392 8.87666 21.0006 8.83399C20.8619 8.78866 20.7406 8.72199 20.6366 8.63399C20.5352 8.54599 20.4539 8.43532 20.3926 8.30199C20.3339 8.16599 20.3046 8.00599 20.3046 7.82199C20.3046 7.66199 20.3486 7.50866 20.4366 7.36199C20.5246 7.21266 20.6672 7.08066 20.8646 6.96599C21.0619 6.85132 21.3192 6.75799 21.6366 6.68599C21.9539 6.61132 22.3432 6.56866 22.8046 6.55799V6.24199C22.8046 5.92732 22.7366 5.68999 22.6006 5.52999C22.4646 5.36732 22.2659 5.28599 22.0046 5.28599C21.8286 5.28599 21.6806 5.30866 21.5606 5.35399C21.4432 5.39666 21.3406 5.44599 21.2526 5.50199C21.1672 5.55532 21.0926 5.60466 21.0286 5.64999C20.9672 5.69266 20.9059 5.71399 20.8446 5.71399C20.7966 5.71399 20.7552 5.70199 20.7206 5.67799C20.6859 5.65132 20.6566 5.61932 20.6326 5.58199L20.5046 5.35399Z" fill="#EEEEEE"/>
<path d="M25.2611 5.59399C25.3891 5.31666 25.5465 5.10066 25.7331 4.94599C25.9198 4.78866 26.1478 4.70999 26.4171 4.70999C26.5025 4.70999 26.5838 4.71932 26.6611 4.73799C26.7411 4.75666 26.8118 4.78599 26.8731 4.82599L26.8211 5.35799C26.8051 5.42466 26.7651 5.45799 26.7011 5.45799C26.6638 5.45799 26.6091 5.44999 26.5371 5.43399C26.4651 5.41799 26.3838 5.40999 26.2931 5.40999C26.1651 5.40999 26.0505 5.42866 25.9491 5.46599C25.8505 5.50332 25.7611 5.55932 25.6811 5.63399C25.6038 5.70599 25.5331 5.79666 25.4691 5.90599C25.4078 6.01266 25.3518 6.13532 25.3011 6.27399V8.83399H24.5851V4.78199H24.9931C25.0705 4.78199 25.1238 4.79666 25.1531 4.82599C25.1825 4.85532 25.2025 4.90599 25.2131 4.97799L25.2611 5.59399Z" fill="#EEEEEE"/>
<path d="M27.4992 8.83399V4.78199H27.9272C28.0285 4.78199 28.0912 4.83132 28.1152 4.92999L28.1672 5.34599C28.3165 5.16199 28.4845 5.01132 28.6712 4.89399C28.8579 4.77666 29.0739 4.71799 29.3192 4.71799C29.5912 4.71799 29.8112 4.79399 29.9792 4.94599C30.1499 5.09799 30.2725 5.30332 30.3472 5.56199C30.4059 5.41532 30.4805 5.28866 30.5712 5.18199C30.6645 5.07532 30.7685 4.98732 30.8832 4.91799C30.9979 4.84866 31.1192 4.79799 31.2472 4.76599C31.3779 4.73399 31.5099 4.71799 31.6432 4.71799C31.8565 4.71799 32.0459 4.75266 32.2112 4.82199C32.3792 4.88866 32.5205 4.98732 32.6352 5.11799C32.7525 5.24866 32.8419 5.40999 32.9032 5.60199C32.9645 5.79132 32.9952 6.00866 32.9952 6.25399V8.83399H32.2792V6.25399C32.2792 5.93666 32.2099 5.69666 32.0712 5.53399C31.9325 5.36866 31.7325 5.28599 31.4712 5.28599C31.3539 5.28599 31.2419 5.30732 31.1352 5.34999C31.0312 5.38999 30.9392 5.44999 30.8592 5.52999C30.7792 5.60999 30.7152 5.71132 30.6672 5.83399C30.6219 5.95399 30.5992 6.09399 30.5992 6.25399V8.83399H29.8832V6.25399C29.8832 5.92866 29.8179 5.68599 29.6872 5.52599C29.5565 5.36599 29.3659 5.28599 29.1152 5.28599C28.9392 5.28599 28.7765 5.33399 28.6272 5.42999C28.4779 5.52332 28.3405 5.65132 28.2152 5.81399V8.83399H27.4992Z" fill="#EEEEEE"/>
<path d="M59.6763 3.18197V8.91397H59.2883C59.227 8.91397 59.175 8.90331 59.1323 8.88197C59.0923 8.86064 59.0523 8.82464 59.0123 8.77397L55.6963 4.45397C55.7017 4.52064 55.7057 4.58597 55.7083 4.64997C55.711 4.71397 55.7123 4.77397 55.7123 4.82997V8.91397H55.0323V3.18197H55.4323C55.467 3.18197 55.4963 3.18464 55.5203 3.18997C55.5443 3.19264 55.5657 3.19931 55.5843 3.20997C55.603 3.21797 55.6217 3.23131 55.6403 3.24997C55.659 3.26597 55.679 3.28731 55.7003 3.31397L59.0163 7.62997C59.011 7.56064 59.0057 7.49397 59.0003 7.42997C58.9977 7.36331 58.9963 7.30064 58.9963 7.24197V3.18197H59.6763Z" fill="#EEEEEE" fill-opacity="0.5"/>
<path d="M63.5607 6.44597C63.5607 6.28064 63.5367 6.12997 63.4887 5.99397C63.4434 5.85531 63.3754 5.73664 63.2847 5.63797C63.1967 5.53664 63.0887 5.45931 62.9607 5.40597C62.8327 5.34997 62.6874 5.32197 62.5247 5.32197C62.1834 5.32197 61.9127 5.42197 61.7127 5.62197C61.5154 5.81931 61.3927 6.09397 61.3447 6.44597H63.5607ZM64.1367 8.34597C64.0487 8.45264 63.9434 8.54597 63.8207 8.62597C63.6981 8.70331 63.5661 8.76731 63.4247 8.81797C63.2861 8.86864 63.1421 8.90597 62.9927 8.92997C62.8434 8.95664 62.6954 8.96997 62.5487 8.96997C62.2687 8.96997 62.0101 8.92331 61.7727 8.82997C61.5381 8.73397 61.3341 8.59531 61.1607 8.41397C60.9901 8.22997 60.8567 8.00331 60.7607 7.73397C60.6647 7.46464 60.6167 7.15531 60.6167 6.80597C60.6167 6.52331 60.6594 6.25931 60.7447 6.01397C60.8327 5.76864 60.9581 5.55664 61.1207 5.37797C61.2834 5.19664 61.4821 5.05531 61.7167 4.95397C61.9514 4.84997 62.2154 4.79797 62.5087 4.79797C62.7514 4.79797 62.9754 4.83931 63.1807 4.92197C63.3887 5.00197 63.5674 5.11931 63.7167 5.27397C63.8687 5.42597 63.9874 5.61531 64.0727 5.84197C64.1581 6.06597 64.2007 6.32197 64.2007 6.60997C64.2007 6.72197 64.1887 6.79664 64.1647 6.83397C64.1407 6.87131 64.0954 6.88997 64.0287 6.88997H61.3207C61.3287 7.14597 61.3634 7.36864 61.4247 7.55797C61.4887 7.74731 61.5767 7.90597 61.6887 8.03397C61.8007 8.15931 61.9341 8.25397 62.0887 8.31797C62.2434 8.37931 62.4167 8.40997 62.6087 8.40997C62.7874 8.40997 62.9407 8.38997 63.0687 8.34997C63.1994 8.30731 63.3114 8.26197 63.4047 8.21397C63.4981 8.16597 63.5754 8.12197 63.6367 8.08197C63.7007 8.03931 63.7554 8.01797 63.8007 8.01797C63.8594 8.01797 63.9047 8.04064 63.9367 8.08597L64.1367 8.34597Z" fill="#EEEEEE" fill-opacity="0.5"/>
<path d="M68.4073 4.86197V8.91397H67.9833C67.882 8.91397 67.818 8.86464 67.7913 8.76597L67.7353 8.32997C67.5593 8.52464 67.362 8.68197 67.1433 8.80197C66.9246 8.91931 66.674 8.97797 66.3913 8.97797C66.17 8.97797 65.974 8.94197 65.8033 8.86997C65.6353 8.79531 65.494 8.69131 65.3793 8.55797C65.2646 8.42464 65.178 8.26331 65.1193 8.07397C65.0633 7.88464 65.0353 7.67531 65.0353 7.44597V4.86197H65.7473V7.44597C65.7473 7.75264 65.8166 7.98997 65.9553 8.15797C66.0966 8.32597 66.3113 8.40997 66.5993 8.40997C66.81 8.40997 67.006 8.36064 67.1873 8.26197C67.3713 8.16064 67.5406 8.02197 67.6953 7.84597V4.86197H68.4073Z" fill="#EEEEEE" fill-opacity="0.5"/>
<path d="M70.7802 8.97797C70.4602 8.97797 70.2136 8.88864 70.0402 8.70997C69.8696 8.53131 69.7842 8.27397 69.7842 7.93797V5.45797H69.2962C69.2536 5.45797 69.2176 5.44597 69.1882 5.42197C69.1589 5.39531 69.1442 5.35531 69.1442 5.30197V5.01797L69.8082 4.93397L69.9722 3.68197C69.9802 3.64197 69.9976 3.60997 70.0242 3.58597C70.0536 3.55931 70.0909 3.54597 70.1362 3.54597H70.4962V4.94197H71.6682V5.45797H70.4962V7.88997C70.4962 8.06064 70.5376 8.18731 70.6202 8.26997C70.7029 8.35264 70.8096 8.39397 70.9402 8.39397C71.0149 8.39397 71.0789 8.38464 71.1322 8.36597C71.1882 8.34464 71.2362 8.32197 71.2762 8.29797C71.3162 8.27397 71.3496 8.25264 71.3762 8.23397C71.4056 8.21264 71.4309 8.20197 71.4522 8.20197C71.4896 8.20197 71.5229 8.22464 71.5522 8.26997L71.7602 8.60997C71.6376 8.72464 71.4896 8.81531 71.3162 8.88197C71.1429 8.94597 70.9642 8.97797 70.7802 8.97797Z" fill="#EEEEEE" fill-opacity="0.5"/>
<path d="M73.0794 5.67397C73.2074 5.39664 73.3647 5.18064 73.5514 5.02597C73.7381 4.86864 73.9661 4.78997 74.2354 4.78997C74.3207 4.78997 74.4021 4.79931 74.4794 4.81797C74.5594 4.83664 74.6301 4.86597 74.6914 4.90597L74.6394 5.43797C74.6234 5.50464 74.5834 5.53797 74.5194 5.53797C74.4821 5.53797 74.4274 5.52997 74.3554 5.51397C74.2834 5.49797 74.2021 5.48997 74.1114 5.48997C73.9834 5.48997 73.8687 5.50864 73.7674 5.54597C73.6687 5.58331 73.5794 5.63931 73.4994 5.71397C73.4221 5.78597 73.3514 5.87664 73.2874 5.98597C73.2261 6.09264 73.1701 6.21531 73.1194 6.35397V8.91397H72.4034V4.86197H72.8114C72.8887 4.86197 72.9421 4.87664 72.9714 4.90597C73.0007 4.93531 73.0207 4.98597 73.0314 5.05797L73.0794 5.67397Z" fill="#EEEEEE" fill-opacity="0.5"/>
<path d="M77.451 7.08997C77.123 7.10064 76.843 7.12731 76.611 7.16997C76.3816 7.20997 76.1936 7.26331 76.047 7.32997C75.903 7.39664 75.7976 7.47531 75.731 7.56597C75.667 7.65664 75.635 7.75797 75.635 7.86997C75.635 7.97664 75.6523 8.06864 75.687 8.14597C75.7216 8.22331 75.7683 8.28731 75.827 8.33797C75.8883 8.38597 75.959 8.42197 76.039 8.44597C76.1216 8.46731 76.2096 8.47797 76.303 8.47797C76.4283 8.47797 76.543 8.46597 76.647 8.44197C76.751 8.41531 76.8483 8.37797 76.939 8.32997C77.0323 8.28197 77.1203 8.22464 77.203 8.15797C77.2883 8.09131 77.371 8.01531 77.451 7.92997V7.08997ZM75.151 5.43397C75.375 5.21797 75.6163 5.05664 75.875 4.94997C76.1336 4.84331 76.4203 4.78997 76.735 4.78997C76.9616 4.78997 77.163 4.82731 77.339 4.90197C77.515 4.97664 77.663 5.08064 77.783 5.21397C77.903 5.34731 77.9936 5.50864 78.055 5.69797C78.1163 5.88731 78.147 6.09531 78.147 6.32197V8.91397H77.831C77.7616 8.91397 77.7083 8.90331 77.671 8.88197C77.6336 8.85797 77.6043 8.81264 77.583 8.74597L77.503 8.36197C77.3963 8.46064 77.2923 8.54864 77.191 8.62597C77.0896 8.70064 76.983 8.76464 76.871 8.81797C76.759 8.86864 76.639 8.90731 76.511 8.93397C76.3856 8.96331 76.2456 8.97797 76.091 8.97797C75.9336 8.97797 75.7856 8.95664 75.647 8.91397C75.5083 8.86864 75.387 8.80197 75.283 8.71397C75.1816 8.62597 75.1003 8.51531 75.039 8.38197C74.9803 8.24597 74.951 8.08597 74.951 7.90197C74.951 7.74197 74.995 7.58864 75.083 7.44197C75.171 7.29264 75.3136 7.16064 75.511 7.04597C75.7083 6.93131 75.9656 6.83797 76.283 6.76597C76.6003 6.69131 76.9896 6.64864 77.451 6.63797V6.32197C77.451 6.00731 77.383 5.76997 77.247 5.60997C77.111 5.44731 76.9123 5.36597 76.651 5.36597C76.475 5.36597 76.327 5.38864 76.207 5.43397C76.0896 5.47664 75.987 5.52597 75.899 5.58197C75.8136 5.63531 75.739 5.68464 75.675 5.72997C75.6136 5.77264 75.5523 5.79397 75.491 5.79397C75.443 5.79397 75.4016 5.78197 75.367 5.75797C75.3323 5.73131 75.303 5.69931 75.279 5.66197L75.151 5.43397Z" fill="#EEEEEE" fill-opacity="0.5"/>
<path d="M79.9675 3.02197V8.91397H79.2555V3.02197H79.9675Z" fill="#EEEEEE" fill-opacity="0.5"/>
<path d="M104.074 8.34997C104.295 8.34997 104.486 8.32464 104.646 8.27397C104.806 8.22331 104.936 8.15264 105.038 8.06197C105.142 7.96864 105.218 7.85931 105.266 7.73397C105.314 7.60597 105.338 7.46597 105.338 7.31397C105.338 7.01797 105.232 6.78464 105.022 6.61397C104.811 6.44064 104.495 6.35397 104.074 6.35397H102.834V8.34997H104.074ZM102.834 3.84597V5.80197H103.858C104.076 5.80197 104.266 5.77797 104.426 5.72997C104.588 5.68197 104.722 5.61531 104.826 5.52997C104.932 5.44464 105.011 5.34197 105.062 5.22197C105.112 5.09931 105.138 4.96597 105.138 4.82197C105.138 4.48331 105.036 4.23664 104.834 4.08197C104.631 3.92464 104.316 3.84597 103.89 3.84597H102.834ZM103.89 3.23397C104.242 3.23397 104.544 3.26864 104.798 3.33797C105.054 3.40731 105.263 3.50597 105.426 3.63397C105.591 3.76197 105.712 3.91931 105.79 4.10597C105.867 4.28997 105.906 4.49797 105.906 4.72997C105.906 4.87131 105.883 5.00731 105.838 5.13797C105.795 5.26597 105.73 5.38597 105.642 5.49797C105.554 5.60997 105.442 5.71131 105.306 5.80197C105.172 5.88997 105.015 5.96197 104.834 6.01797C105.255 6.09797 105.571 6.24864 105.782 6.46997C105.995 6.68864 106.102 6.97664 106.102 7.33397C106.102 7.57664 106.056 7.79797 105.966 7.99797C105.878 8.19797 105.747 8.36997 105.574 8.51397C105.403 8.65797 105.192 8.76997 104.942 8.84997C104.691 8.92731 104.406 8.96597 104.086 8.96597H102.062V3.23397H103.89Z" fill="#EEEEEE" fill-opacity="0.5"/>
<path d="M107.656 5.72597C107.784 5.44864 107.941 5.23264 108.128 5.07797C108.314 4.92064 108.542 4.84197 108.812 4.84197C108.897 4.84197 108.978 4.85131 109.056 4.86997C109.136 4.88864 109.206 4.91797 109.268 4.95797L109.216 5.48997C109.2 5.55664 109.16 5.58997 109.096 5.58997C109.058 5.58997 109.004 5.58197 108.932 5.56597C108.86 5.54997 108.778 5.54197 108.688 5.54197C108.56 5.54197 108.445 5.56064 108.344 5.59797C108.245 5.63531 108.156 5.69131 108.076 5.76597C107.998 5.83797 107.928 5.92864 107.864 6.03797C107.802 6.14464 107.746 6.26731 107.696 6.40597V8.96597H106.98V4.91397H107.388C107.465 4.91397 107.518 4.92864 107.548 4.95797C107.577 4.98731 107.597 5.03797 107.608 5.10997L107.656 5.72597Z" fill="#EEEEEE" fill-opacity="0.5"/>
<path d="M110.646 4.91397V8.96597H109.934V4.91397H110.646ZM110.798 3.64197C110.798 3.71131 110.783 3.77664 110.754 3.83797C110.727 3.89664 110.69 3.94997 110.642 3.99797C110.596 4.04331 110.542 4.07931 110.478 4.10597C110.416 4.13264 110.351 4.14597 110.282 4.14597C110.212 4.14597 110.147 4.13264 110.086 4.10597C110.027 4.07931 109.975 4.04331 109.93 3.99797C109.884 3.94997 109.848 3.89664 109.822 3.83797C109.795 3.77664 109.782 3.71131 109.782 3.64197C109.782 3.57264 109.795 3.50731 109.822 3.44597C109.848 3.38197 109.884 3.32731 109.93 3.28197C109.975 3.23397 110.027 3.19664 110.086 3.16997C110.147 3.14331 110.212 3.12997 110.282 3.12997C110.351 3.12997 110.416 3.14331 110.478 3.16997C110.542 3.19664 110.596 3.23397 110.642 3.28197C110.69 3.32731 110.727 3.38197 110.754 3.44597C110.783 3.50731 110.798 3.57264 110.798 3.64197Z" fill="#EEEEEE" fill-opacity="0.5"/>
<path d="M113.228 6.98597C113.372 6.98597 113.498 6.96597 113.608 6.92597C113.717 6.88597 113.809 6.82997 113.884 6.75797C113.958 6.68597 114.014 6.60064 114.052 6.50197C114.089 6.40064 114.108 6.28997 114.108 6.16997C114.108 5.92197 114.032 5.72464 113.88 5.57797C113.73 5.43131 113.513 5.35797 113.228 5.35797C112.94 5.35797 112.72 5.43131 112.568 5.57797C112.418 5.72464 112.344 5.92197 112.344 6.16997C112.344 6.28997 112.362 6.40064 112.4 6.50197C112.44 6.60064 112.497 6.68597 112.572 6.75797C112.646 6.82997 112.738 6.88597 112.848 6.92597C112.957 6.96597 113.084 6.98597 113.228 6.98597ZM114.512 9.18597C114.512 9.08731 114.484 9.00731 114.428 8.94597C114.372 8.88464 114.296 8.83664 114.2 8.80197C114.106 8.76731 113.997 8.74331 113.872 8.72997C113.746 8.71397 113.613 8.70197 113.472 8.69397C113.333 8.68597 113.192 8.67797 113.048 8.66997C112.904 8.66197 112.765 8.64864 112.632 8.62997C112.482 8.69931 112.36 8.78731 112.264 8.89397C112.17 8.99797 112.124 9.12064 112.124 9.26197C112.124 9.35264 112.146 9.43664 112.192 9.51397C112.24 9.59397 112.312 9.66197 112.408 9.71797C112.504 9.77664 112.624 9.82197 112.768 9.85397C112.914 9.88864 113.086 9.90597 113.284 9.90597C113.476 9.90597 113.648 9.88864 113.8 9.85397C113.952 9.81931 114.08 9.76997 114.184 9.70597C114.29 9.64197 114.372 9.56597 114.428 9.47797C114.484 9.38997 114.512 9.29264 114.512 9.18597ZM115.236 5.07397V5.33797C115.236 5.42597 115.18 5.48197 115.068 5.50597L114.608 5.56597C114.698 5.74197 114.744 5.93664 114.744 6.14997C114.744 6.34731 114.705 6.52731 114.628 6.68997C114.553 6.84997 114.449 6.98731 114.316 7.10197C114.182 7.21664 114.022 7.30464 113.836 7.36597C113.649 7.42731 113.446 7.45797 113.228 7.45797C113.038 7.45797 112.86 7.43531 112.692 7.38997C112.606 7.44331 112.541 7.50064 112.496 7.56197C112.45 7.62064 112.428 7.68064 112.428 7.74197C112.428 7.83797 112.466 7.91131 112.544 7.96197C112.624 8.00997 112.728 8.04464 112.856 8.06597C112.984 8.08731 113.129 8.10064 113.292 8.10597C113.457 8.11131 113.625 8.12064 113.796 8.13398C113.969 8.14464 114.137 8.16464 114.3 8.19397C114.465 8.22331 114.612 8.27131 114.74 8.33797C114.868 8.40464 114.97 8.49664 115.048 8.61397C115.128 8.73131 115.168 8.88331 115.168 9.06997C115.168 9.24331 115.124 9.41131 115.036 9.57397C114.95 9.73664 114.826 9.88064 114.664 10.006C114.501 10.134 114.301 10.2353 114.064 10.31C113.829 10.3873 113.564 10.426 113.268 10.426C112.972 10.426 112.713 10.3966 112.492 10.338C112.27 10.2793 112.086 10.2006 111.94 10.102C111.793 10.0033 111.682 9.88864 111.608 9.75797C111.536 9.62997 111.5 9.49531 111.5 9.35397C111.5 9.15397 111.562 8.98464 111.688 8.84597C111.813 8.70731 111.985 8.59664 112.204 8.51397C112.084 8.46064 111.988 8.38997 111.916 8.30197C111.846 8.21131 111.812 8.08997 111.812 7.93797C111.812 7.87931 111.822 7.81931 111.844 7.75797C111.865 7.69397 111.897 7.63131 111.94 7.56997C111.985 7.50597 112.04 7.44597 112.104 7.38997C112.168 7.33397 112.242 7.28464 112.328 7.24197C112.128 7.12997 111.972 6.98197 111.86 6.79797C111.748 6.61131 111.692 6.39531 111.692 6.14997C111.692 5.95264 111.729 5.77397 111.804 5.61397C111.881 5.45131 111.988 5.31397 112.124 5.20197C112.26 5.08731 112.421 4.99931 112.608 4.93797C112.797 4.87664 113.004 4.84597 113.228 4.84597C113.404 4.84597 113.568 4.86597 113.72 4.90597C113.872 4.94331 114.01 4.99931 114.136 5.07397H115.236Z" fill="#EEEEEE" fill-opacity="0.5"/>
<path d="M116.688 5.45397C116.861 5.26997 117.053 5.12331 117.264 5.01397C117.475 4.90464 117.717 4.84997 117.992 4.84997C118.213 4.84997 118.408 4.88731 118.576 4.96197C118.747 5.03397 118.888 5.13797 119 5.27397C119.115 5.40731 119.201 5.56864 119.26 5.75797C119.319 5.94731 119.348 6.15664 119.348 6.38597V8.96597H118.632V6.38597C118.632 6.07931 118.561 5.84197 118.42 5.67397C118.281 5.50331 118.069 5.41797 117.784 5.41797C117.573 5.41797 117.376 5.46864 117.192 5.56997C117.011 5.67131 116.843 5.80864 116.688 5.98197V8.96597H115.972V3.07397H116.688V5.45397Z" fill="#EEEEEE" fill-opacity="0.5"/>
<path d="M121.622 9.02997C121.302 9.02997 121.055 8.94064 120.882 8.76197C120.711 8.58331 120.626 8.32598 120.626 7.98997V5.50997H120.138C120.095 5.50997 120.059 5.49797 120.03 5.47397C120.001 5.44731 119.986 5.40731 119.986 5.35397V5.06997L120.65 4.98597L120.814 3.73397C120.822 3.69397 120.839 3.66197 120.866 3.63797C120.895 3.61131 120.933 3.59797 120.978 3.59797H121.338V4.99397H122.51V5.50997H121.338V7.94197C121.338 8.11264 121.379 8.23931 121.462 8.32197C121.545 8.40464 121.651 8.44597 121.782 8.44597C121.857 8.44597 121.921 8.43664 121.974 8.41797C122.03 8.39664 122.078 8.37397 122.118 8.34997C122.158 8.32597 122.191 8.30464 122.218 8.28597C122.247 8.26464 122.273 8.25397 122.294 8.25397C122.331 8.25397 122.365 8.27664 122.394 8.32197L122.602 8.66197C122.479 8.77664 122.331 8.86731 122.158 8.93397C121.985 8.99797 121.806 9.02997 121.622 9.02997Z" fill="#EEEEEE" fill-opacity="0.5"/>
<path d="M20.3765 15.102L18.5885 20.834H17.8925L16.4405 16.462C16.4271 16.4193 16.4138 16.374 16.4005 16.326C16.3898 16.278 16.3778 16.2273 16.3645 16.174C16.3511 16.2273 16.3378 16.278 16.3245 16.326C16.3111 16.374 16.2978 16.4193 16.2845 16.462L14.8245 20.834H14.1285L12.3405 15.102H12.9845C13.0538 15.102 13.1111 15.1193 13.1565 15.154C13.2045 15.1887 13.2351 15.2327 13.2485 15.286L14.4325 19.27C14.4511 19.342 14.4685 19.4193 14.4845 19.502C14.5031 19.5847 14.5205 19.6727 14.5365 19.766C14.5551 19.6727 14.5738 19.5847 14.5925 19.502C14.6138 19.4167 14.6365 19.3393 14.6605 19.27L16.0085 15.286C16.0245 15.2407 16.0551 15.1993 16.1005 15.162C16.1485 15.122 16.2058 15.102 16.2725 15.102H16.4965C16.5658 15.102 16.6218 15.1193 16.6645 15.154C16.7071 15.1887 16.7391 15.2327 16.7605 15.286L18.1045 19.27C18.1285 19.3393 18.1498 19.414 18.1685 19.494C18.1898 19.574 18.2098 19.658 18.2285 19.746C18.2418 19.658 18.2565 19.574 18.2725 19.494C18.2885 19.414 18.3058 19.3393 18.3245 19.27L19.5125 15.286C19.5258 15.238 19.5551 15.1953 19.6005 15.158C19.6485 15.1207 19.7058 15.102 19.7725 15.102H20.3765Z" fill="#EEEEEE" fill-opacity="0.5"/>
<path d="M22.8046 19.01C22.4766 19.0207 22.1966 19.0473 21.9646 19.09C21.7352 19.13 21.5472 19.1833 21.4006 19.25C21.2566 19.3167 21.1512 19.3953 21.0846 19.486C21.0206 19.5767 20.9886 19.678 20.9886 19.79C20.9886 19.8967 21.0059 19.9887 21.0406 20.066C21.0752 20.1433 21.1219 20.2073 21.1806 20.258C21.2419 20.306 21.3126 20.342 21.3926 20.366C21.4752 20.3873 21.5632 20.398 21.6566 20.398C21.7819 20.398 21.8966 20.386 22.0006 20.362C22.1046 20.3353 22.2019 20.298 22.2926 20.25C22.3859 20.202 22.4739 20.1447 22.5566 20.078C22.6419 20.0113 22.7246 19.9353 22.8046 19.85V19.01ZM20.5046 17.354C20.7286 17.138 20.9699 16.9767 21.2286 16.87C21.4872 16.7633 21.7739 16.71 22.0886 16.71C22.3152 16.71 22.5166 16.7473 22.6926 16.822C22.8686 16.8967 23.0166 17.0007 23.1366 17.134C23.2566 17.2673 23.3472 17.4287 23.4086 17.618C23.4699 17.8073 23.5006 18.0153 23.5006 18.242V20.834H23.1846C23.1152 20.834 23.0619 20.8233 23.0246 20.802C22.9872 20.778 22.9579 20.7327 22.9366 20.666L22.8566 20.282C22.7499 20.3807 22.6459 20.4687 22.5446 20.546C22.4432 20.6207 22.3366 20.6847 22.2246 20.738C22.1126 20.7887 21.9926 20.8273 21.8646 20.854C21.7392 20.8833 21.5992 20.898 21.4446 20.898C21.2872 20.898 21.1392 20.8767 21.0006 20.834C20.8619 20.7887 20.7406 20.722 20.6366 20.634C20.5352 20.546 20.4539 20.4353 20.3926 20.302C20.3339 20.166 20.3046 20.006 20.3046 19.822C20.3046 19.662 20.3486 19.5087 20.4366 19.362C20.5246 19.2127 20.6672 19.0807 20.8646 18.966C21.0619 18.8513 21.3192 18.758 21.6366 18.686C21.9539 18.6113 22.3432 18.5687 22.8046 18.558V18.242C22.8046 17.9273 22.7366 17.69 22.6006 17.53C22.4646 17.3673 22.2659 17.286 22.0046 17.286C21.8286 17.286 21.6806 17.3087 21.5606 17.354C21.4432 17.3967 21.3406 17.446 21.2526 17.502C21.1672 17.5553 21.0926 17.6047 21.0286 17.65C20.9672 17.6927 20.9059 17.714 20.8446 17.714C20.7966 17.714 20.7552 17.702 20.7206 17.678C20.6859 17.6513 20.6566 17.6193 20.6326 17.582L20.5046 17.354Z" fill="#EEEEEE" fill-opacity="0.5"/>
<path d="M25.2611 17.594C25.3891 17.3167 25.5465 17.1007 25.7331 16.946C25.9198 16.7887 26.1478 16.71 26.4171 16.71C26.5025 16.71 26.5838 16.7193 26.6611 16.738C26.7411 16.7567 26.8118 16.786 26.8731 16.826L26.8211 17.358C26.8051 17.4247 26.7651 17.458 26.7011 17.458C26.6638 17.458 26.6091 17.45 26.5371 17.434C26.4651 17.418 26.3838 17.41 26.2931 17.41C26.1651 17.41 26.0505 17.4287 25.9491 17.466C25.8505 17.5033 25.7611 17.5593 25.6811 17.634C25.6038 17.706 25.5331 17.7967 25.4691 17.906C25.4078 18.0127 25.3518 18.1353 25.3011 18.274V20.834H24.5851V16.782H24.9931C25.0705 16.782 25.1238 16.7967 25.1531 16.826C25.1825 16.8553 25.2025 16.906 25.2131 16.978L25.2611 17.594Z" fill="#EEEEEE" fill-opacity="0.5"/>
<path d="M27.4992 20.834V16.782H27.9272C28.0285 16.782 28.0912 16.8313 28.1152 16.93L28.1672 17.346C28.3165 17.162 28.4845 17.0113 28.6712 16.894C28.8579 16.7767 29.0739 16.718 29.3192 16.718C29.5912 16.718 29.8112 16.794 29.9792 16.946C30.1499 17.098 30.2725 17.3033 30.3472 17.562C30.4059 17.4153 30.4805 17.2887 30.5712 17.182C30.6645 17.0753 30.7685 16.9873 30.8832 16.918C30.9979 16.8487 31.1192 16.798 31.2472 16.766C31.3779 16.734 31.5099 16.718 31.6432 16.718C31.8565 16.718 32.0459 16.7527 32.2112 16.822C32.3792 16.8887 32.5205 16.9873 32.6352 17.118C32.7525 17.2487 32.8419 17.41 32.9032 17.602C32.9645 17.7913 32.9952 18.0087 32.9952 18.254V20.834H32.2792V18.254C32.2792 17.9367 32.2099 17.6967 32.0712 17.534C31.9325 17.3687 31.7325 17.286 31.4712 17.286C31.3539 17.286 31.2419 17.3073 31.1352 17.35C31.0312 17.39 30.9392 17.45 30.8592 17.53C30.7792 17.61 30.7152 17.7113 30.6672 17.834C30.6219 17.954 30.5992 18.094 30.5992 18.254V20.834H29.8832V18.254C29.8832 17.9287 29.8179 17.686 29.6872 17.526C29.5565 17.366 29.3659 17.286 29.1152 17.286C28.9392 17.286 28.7765 17.334 28.6272 17.43C28.4779 17.5233 28.3405 17.6513 28.2152 17.814V20.834H27.4992Z" fill="#EEEEEE" fill-opacity="0.5"/>
<path d="M59.6763 15.182V20.914H59.2883C59.227 20.914 59.175 20.9033 59.1323 20.882C59.0923 20.8606 59.0523 20.8246 59.0123 20.774L55.6963 16.454C55.7017 16.5206 55.7057 16.586 55.7083 16.65C55.711 16.714 55.7123 16.774 55.7123 16.83V20.914H55.0323V15.182H55.4323C55.467 15.182 55.4963 15.1846 55.5203 15.19C55.5443 15.1926 55.5657 15.1993 55.5843 15.21C55.603 15.218 55.6217 15.2313 55.6403 15.25C55.659 15.266 55.679 15.2873 55.7003 15.314L59.0163 19.63C59.011 19.5606 59.0057 19.494 59.0003 19.43C58.9977 19.3633 58.9963 19.3006 58.9963 19.242V15.182H59.6763Z" fill="#EEEEEE"/>
<path d="M63.5607 18.446C63.5607 18.2806 63.5367 18.13 63.4887 17.994C63.4434 17.8553 63.3754 17.7366 63.2847 17.638C63.1967 17.5366 63.0887 17.4593 62.9607 17.406C62.8327 17.35 62.6874 17.322 62.5247 17.322C62.1834 17.322 61.9127 17.422 61.7127 17.622C61.5154 17.8193 61.3927 18.094 61.3447 18.446H63.5607ZM64.1367 20.346C64.0487 20.4526 63.9434 20.546 63.8207 20.626C63.6981 20.7033 63.5661 20.7673 63.4247 20.818C63.2861 20.8686 63.1421 20.906 62.9927 20.93C62.8434 20.9566 62.6954 20.97 62.5487 20.97C62.2687 20.97 62.0101 20.9233 61.7727 20.83C61.5381 20.734 61.3341 20.5953 61.1607 20.414C60.9901 20.23 60.8567 20.0033 60.7607 19.734C60.6647 19.4646 60.6167 19.1553 60.6167 18.806C60.6167 18.5233 60.6594 18.2593 60.7447 18.014C60.8327 17.7686 60.9581 17.5566 61.1207 17.378C61.2834 17.1966 61.4821 17.0553 61.7167 16.954C61.9514 16.85 62.2154 16.798 62.5087 16.798C62.7514 16.798 62.9754 16.8393 63.1807 16.922C63.3887 17.002 63.5674 17.1193 63.7167 17.274C63.8687 17.426 63.9874 17.6153 64.0727 17.842C64.1581 18.066 64.2007 18.322 64.2007 18.61C64.2007 18.722 64.1887 18.7966 64.1647 18.834C64.1407 18.8713 64.0954 18.89 64.0287 18.89H61.3207C61.3287 19.146 61.3634 19.3686 61.4247 19.558C61.4887 19.7473 61.5767 19.906 61.6887 20.034C61.8007 20.1593 61.9341 20.254 62.0887 20.318C62.2434 20.3793 62.4167 20.41 62.6087 20.41C62.7874 20.41 62.9407 20.39 63.0687 20.35C63.1994 20.3073 63.3114 20.262 63.4047 20.214C63.4981 20.166 63.5754 20.122 63.6367 20.082C63.7007 20.0393 63.7554 20.018 63.8007 20.018C63.8594 20.018 63.9047 20.0406 63.9367 20.086L64.1367 20.346Z" fill="#EEEEEE"/>
<path d="M68.4073 16.862V20.914H67.9833C67.882 20.914 67.818 20.8646 67.7913 20.766L67.7353 20.33C67.5593 20.5246 67.362 20.682 67.1433 20.802C66.9246 20.9193 66.674 20.978 66.3913 20.978C66.17 20.978 65.974 20.942 65.8033 20.87C65.6353 20.7953 65.494 20.6913 65.3793 20.558C65.2646 20.4246 65.178 20.2633 65.1193 20.074C65.0633 19.8846 65.0353 19.6753 65.0353 19.446V16.862H65.7473V19.446C65.7473 19.7526 65.8166 19.99 65.9553 20.158C66.0966 20.326 66.3113 20.41 66.5993 20.41C66.81 20.41 67.006 20.3606 67.1873 20.262C67.3713 20.1606 67.5406 20.022 67.6953 19.846V16.862H68.4073Z" fill="#EEEEEE"/>
<path d="M70.7802 20.978C70.4602 20.978 70.2136 20.8886 70.0402 20.71C69.8696 20.5313 69.7842 20.274 69.7842 19.938V17.458H69.2962C69.2536 17.458 69.2176 17.446 69.1882 17.422C69.1589 17.3953 69.1442 17.3553 69.1442 17.302V17.018L69.8082 16.934L69.9722 15.682C69.9802 15.642 69.9976 15.61 70.0242 15.586C70.0536 15.5593 70.0909 15.546 70.1362 15.546H70.4962V16.942H71.6682V17.458H70.4962V19.89C70.4962 20.0606 70.5376 20.1873 70.6202 20.27C70.7029 20.3526 70.8096 20.394 70.9402 20.394C71.0149 20.394 71.0789 20.3846 71.1322 20.366C71.1882 20.3446 71.2362 20.322 71.2762 20.298C71.3162 20.274 71.3496 20.2526 71.3762 20.234C71.4056 20.2126 71.4309 20.202 71.4522 20.202C71.4896 20.202 71.5229 20.2246 71.5522 20.27L71.7602 20.61C71.6376 20.7246 71.4896 20.8153 71.3162 20.882C71.1429 20.946 70.9642 20.978 70.7802 20.978Z" fill="#EEEEEE"/>
<path d="M73.0794 17.674C73.2074 17.3966 73.3647 17.1806 73.5514 17.026C73.7381 16.8686 73.9661 16.79 74.2354 16.79C74.3207 16.79 74.4021 16.7993 74.4794 16.818C74.5594 16.8366 74.6301 16.866 74.6914 16.906L74.6394 17.438C74.6234 17.5046 74.5834 17.538 74.5194 17.538C74.4821 17.538 74.4274 17.53 74.3554 17.514C74.2834 17.498 74.2021 17.49 74.1114 17.49C73.9834 17.49 73.8687 17.5086 73.7674 17.546C73.6687 17.5833 73.5794 17.6393 73.4994 17.714C73.4221 17.786 73.3514 17.8766 73.2874 17.986C73.2261 18.0926 73.1701 18.2153 73.1194 18.354V20.914H72.4034V16.862H72.8114C72.8887 16.862 72.9421 16.8766 72.9714 16.906C73.0007 16.9353 73.0207 16.986 73.0314 17.058L73.0794 17.674Z" fill="#EEEEEE"/>
<path d="M77.451 19.09C77.123 19.1006 76.843 19.1273 76.611 19.17C76.3816 19.21 76.1936 19.2633 76.047 19.33C75.903 19.3966 75.7976 19.4753 75.731 19.566C75.667 19.6566 75.635 19.758 75.635 19.87C75.635 19.9766 75.6523 20.0686 75.687 20.146C75.7216 20.2233 75.7683 20.2873 75.827 20.338C75.8883 20.386 75.959 20.422 76.039 20.446C76.1216 20.4673 76.2096 20.478 76.303 20.478C76.4283 20.478 76.543 20.466 76.647 20.442C76.751 20.4153 76.8483 20.378 76.939 20.33C77.0323 20.282 77.1203 20.2246 77.203 20.158C77.2883 20.0913 77.371 20.0153 77.451 19.93V19.09ZM75.151 17.434C75.375 17.218 75.6163 17.0566 75.875 16.95C76.1336 16.8433 76.4203 16.79 76.735 16.79C76.9616 16.79 77.163 16.8273 77.339 16.902C77.515 16.9766 77.663 17.0806 77.783 17.214C77.903 17.3473 77.9936 17.5086 78.055 17.698C78.1163 17.8873 78.147 18.0953 78.147 18.322V20.914H77.831C77.7616 20.914 77.7083 20.9033 77.671 20.882C77.6336 20.858 77.6043 20.8126 77.583 20.746L77.503 20.362C77.3963 20.4606 77.2923 20.5486 77.191 20.626C77.0896 20.7006 76.983 20.7646 76.871 20.818C76.759 20.8686 76.639 20.9073 76.511 20.934C76.3856 20.9633 76.2456 20.978 76.091 20.978C75.9336 20.978 75.7856 20.9566 75.647 20.914C75.5083 20.8686 75.387 20.802 75.283 20.714C75.1816 20.626 75.1003 20.5153 75.039 20.382C74.9803 20.246 74.951 20.086 74.951 19.902C74.951 19.742 74.995 19.5886 75.083 19.442C75.171 19.2926 75.3136 19.1606 75.511 19.046C75.7083 18.9313 75.9656 18.838 76.283 18.766C76.6003 18.6913 76.9896 18.6486 77.451 18.638V18.322C77.451 18.0073 77.383 17.77 77.247 17.61C77.111 17.4473 76.9123 17.366 76.651 17.366C76.475 17.366 76.327 17.3886 76.207 17.434C76.0896 17.4766 75.987 17.526 75.899 17.582C75.8136 17.6353 75.739 17.6846 75.675 17.73C75.6136 17.7726 75.5523 17.794 75.491 17.794C75.443 17.794 75.4016 17.782 75.367 17.758C75.3323 17.7313 75.303 17.6993 75.279 17.662L75.151 17.434Z" fill="#EEEEEE"/>
<path d="M79.9675 15.022V20.914H79.2555V15.022H79.9675Z" fill="#EEEEEE"/>
<path d="M104.074 20.35C104.295 20.35 104.486 20.3246 104.646 20.274C104.806 20.2233 104.936 20.1526 105.038 20.062C105.142 19.9686 105.218 19.8593 105.266 19.734C105.314 19.606 105.338 19.466 105.338 19.314C105.338 19.018 105.232 18.7846 105.022 18.614C104.811 18.4406 104.495 18.354 104.074 18.354H102.834V20.35H104.074ZM102.834 15.846V17.802H103.858C104.076 17.802 104.266 17.778 104.426 17.73C104.588 17.682 104.722 17.6153 104.826 17.53C104.932 17.4446 105.011 17.342 105.062 17.222C105.112 17.0993 105.138 16.966 105.138 16.822C105.138 16.4833 105.036 16.2366 104.834 16.082C104.631 15.9246 104.316 15.846 103.89 15.846H102.834ZM103.89 15.234C104.242 15.234 104.544 15.2686 104.798 15.338C105.054 15.4073 105.263 15.506 105.426 15.634C105.591 15.762 105.712 15.9193 105.79 16.106C105.867 16.29 105.906 16.498 105.906 16.73C105.906 16.8713 105.883 17.0073 105.838 17.138C105.795 17.266 105.73 17.386 105.642 17.498C105.554 17.61 105.442 17.7113 105.306 17.802C105.172 17.89 105.015 17.962 104.834 18.018C105.255 18.098 105.571 18.2486 105.782 18.47C105.995 18.6886 106.102 18.9766 106.102 19.334C106.102 19.5766 106.056 19.798 105.966 19.998C105.878 20.198 105.747 20.37 105.574 20.514C105.403 20.658 105.192 20.77 104.942 20.85C104.691 20.9273 104.406 20.966 104.086 20.966H102.062V15.234H103.89Z" fill="#EEEEEE" fill-opacity="0.5"/>
<path d="M107.656 17.726C107.784 17.4486 107.941 17.2326 108.128 17.078C108.314 16.9206 108.542 16.842 108.812 16.842C108.897 16.842 108.978 16.8513 109.056 16.87C109.136 16.8886 109.206 16.918 109.268 16.958L109.216 17.49C109.2 17.5566 109.16 17.59 109.096 17.59C109.058 17.59 109.004 17.582 108.932 17.566C108.86 17.55 108.778 17.542 108.688 17.542C108.56 17.542 108.445 17.5606 108.344 17.598C108.245 17.6353 108.156 17.6913 108.076 17.766C107.998 17.838 107.928 17.9286 107.864 18.038C107.802 18.1446 107.746 18.2673 107.696 18.406V20.966H106.98V16.914H107.388C107.465 16.914 107.518 16.9286 107.548 16.958C107.577 16.9873 107.597 17.038 107.608 17.11L107.656 17.726Z" fill="#EEEEEE" fill-opacity="0.5"/>
<path d="M110.646 16.914V20.966H109.934V16.914H110.646ZM110.798 15.642C110.798 15.7113 110.783 15.7766 110.754 15.838C110.727 15.8966 110.69 15.95 110.642 15.998C110.596 16.0433 110.542 16.0793 110.478 16.106C110.416 16.1326 110.351 16.146 110.282 16.146C110.212 16.146 110.147 16.1326 110.086 16.106C110.027 16.0793 109.975 16.0433 109.93 15.998C109.884 15.95 109.848 15.8966 109.822 15.838C109.795 15.7766 109.782 15.7113 109.782 15.642C109.782 15.5726 109.795 15.5073 109.822 15.446C109.848 15.382 109.884 15.3273 109.93 15.282C109.975 15.234 110.027 15.1966 110.086 15.17C110.147 15.1433 110.212 15.13 110.282 15.13C110.351 15.13 110.416 15.1433 110.478 15.17C110.542 15.1966 110.596 15.234 110.642 15.282C110.69 15.3273 110.727 15.382 110.754 15.446C110.783 15.5073 110.798 15.5726 110.798 15.642Z" fill="#EEEEEE" fill-opacity="0.5"/>
<path d="M113.228 18.986C113.372 18.986 113.498 18.966 113.608 18.926C113.717 18.886 113.809 18.83 113.884 18.758C113.958 18.686 114.014 18.6006 114.052 18.502C114.089 18.4006 114.108 18.29 114.108 18.17C114.108 17.922 114.032 17.7246 113.88 17.578C113.73 17.4313 113.513 17.358 113.228 17.358C112.94 17.358 112.72 17.4313 112.568 17.578C112.418 17.7246 112.344 17.922 112.344 18.17C112.344 18.29 112.362 18.4006 112.4 18.502C112.44 18.6006 112.497 18.686 112.572 18.758C112.646 18.83 112.738 18.886 112.848 18.926C112.957 18.966 113.084 18.986 113.228 18.986ZM114.512 21.186C114.512 21.0873 114.484 21.0073 114.428 20.946C114.372 20.8846 114.296 20.8366 114.2 20.802C114.106 20.7673 113.997 20.7433 113.872 20.73C113.746 20.714 113.613 20.702 113.472 20.694C113.333 20.686 113.192 20.678 113.048 20.67C112.904 20.662 112.765 20.6486 112.632 20.63C112.482 20.6993 112.36 20.7873 112.264 20.894C112.17 20.998 112.124 21.1206 112.124 21.262C112.124 21.3526 112.146 21.4366 112.192 21.514C112.24 21.594 112.312 21.662 112.408 21.718C112.504 21.7766 112.624 21.822 112.768 21.854C112.914 21.8886 113.086 21.906 113.284 21.906C113.476 21.906 113.648 21.8886 113.8 21.854C113.952 21.8193 114.08 21.77 114.184 21.706C114.29 21.642 114.372 21.566 114.428 21.478C114.484 21.39 114.512 21.2926 114.512 21.186ZM115.236 17.074V17.338C115.236 17.426 115.18 17.482 115.068 17.506L114.608 17.566C114.698 17.742 114.744 17.9366 114.744 18.15C114.744 18.3473 114.705 18.5273 114.628 18.69C114.553 18.85 114.449 18.9873 114.316 19.102C114.182 19.2166 114.022 19.3046 113.836 19.366C113.649 19.4273 113.446 19.458 113.228 19.458C113.038 19.458 112.86 19.4353 112.692 19.39C112.606 19.4433 112.541 19.5006 112.496 19.562C112.45 19.6206 112.428 19.6806 112.428 19.742C112.428 19.838 112.466 19.9113 112.544 19.962C112.624 20.01 112.728 20.0446 112.856 20.066C112.984 20.0873 113.129 20.1006 113.292 20.106C113.457 20.1113 113.625 20.1206 113.796 20.134C113.969 20.1446 114.137 20.1646 114.3 20.194C114.465 20.2233 114.612 20.2713 114.74 20.338C114.868 20.4046 114.97 20.4966 115.048 20.614C115.128 20.7313 115.168 20.8833 115.168 21.07C115.168 21.2433 115.124 21.4113 115.036 21.574C114.95 21.7366 114.826 21.8806 114.664 22.006C114.501 22.134 114.301 22.2353 114.064 22.31C113.829 22.3873 113.564 22.426 113.268 22.426C112.972 22.426 112.713 22.3966 112.492 22.338C112.27 22.2793 112.086 22.2006 111.94 22.102C111.793 22.0033 111.682 21.8886 111.608 21.758C111.536 21.63 111.5 21.4953 111.5 21.354C111.5 21.154 111.562 20.9846 111.688 20.846C111.813 20.7073 111.985 20.5966 112.204 20.514C112.084 20.4606 111.988 20.39 111.916 20.302C111.846 20.2113 111.812 20.09 111.812 19.938C111.812 19.8793 111.822 19.8193 111.844 19.758C111.865 19.694 111.897 19.6313 111.94 19.57C111.985 19.506 112.04 19.446 112.104 19.39C112.168 19.334 112.242 19.2846 112.328 19.242C112.128 19.13 111.972 18.982 111.86 18.798C111.748 18.6113 111.692 18.3953 111.692 18.15C111.692 17.9526 111.729 17.774 111.804 17.614C111.881 17.4513 111.988 17.314 112.124 17.202C112.26 17.0873 112.421 16.9993 112.608 16.938C112.797 16.8766 113.004 16.846 113.228 16.846C113.404 16.846 113.568 16.866 113.72 16.906C113.872 16.9433 114.01 16.9993 114.136 17.074H115.236Z" fill="#EEEEEE" fill-opacity="0.5"/>
<path d="M116.688 17.454C116.861 17.27 117.053 17.1233 117.264 17.014C117.475 16.9046 117.717 16.85 117.992 16.85C118.213 16.85 118.408 16.8873 118.576 16.962C118.747 17.034 118.888 17.138 119 17.274C119.115 17.4073 119.201 17.5686 119.26 17.758C119.319 17.9473 119.348 18.1566 119.348 18.386V20.966H118.632V18.386C118.632 18.0793 118.561 17.842 118.42 17.674C118.281 17.5033 118.069 17.418 117.784 17.418C117.573 17.418 117.376 17.4686 117.192 17.57C117.011 17.6713 116.843 17.8086 116.688 17.982V20.966H115.972V15.074H116.688V17.454Z" fill="#EEEEEE" fill-opacity="0.5"/>
<path d="M121.622 21.03C121.302 21.03 121.055 20.9406 120.882 20.762C120.711 20.5833 120.626 20.326 120.626 19.99V17.51H120.138C120.095 17.51 120.059 17.498 120.03 17.474C120.001 17.4473 119.986 17.4073 119.986 17.354V17.07L120.65 16.986L120.814 15.734C120.822 15.694 120.839 15.662 120.866 15.638C120.895 15.6113 120.933 15.598 120.978 15.598H121.338V16.994H122.51V17.51H121.338V19.942C121.338 20.1126 121.379 20.2393 121.462 20.322C121.545 20.4046 121.651 20.446 121.782 20.446C121.857 20.446 121.921 20.4366 121.974 20.418C122.03 20.3966 122.078 20.374 122.118 20.35C122.158 20.326 122.191 20.3046 122.218 20.286C122.247 20.2646 122.273 20.254 122.294 20.254C122.331 20.254 122.365 20.2766 122.394 20.322L122.602 20.662C122.479 20.7766 122.331 20.8673 122.158 20.934C121.985 20.998 121.806 21.03 121.622 21.03Z" fill="#EEEEEE" fill-opacity="0.5"/>
<path d="M20.3765 27.102L18.5885 32.834H17.8925L16.4405 28.462C16.4271 28.4193 16.4138 28.374 16.4005 28.326C16.3898 28.278 16.3778 28.2273 16.3645 28.174C16.3511 28.2273 16.3378 28.278 16.3245 28.326C16.3111 28.374 16.2978 28.4193 16.2845 28.462L14.8245 32.834H14.1285L12.3405 27.102H12.9845C13.0538 27.102 13.1111 27.1193 13.1565 27.154C13.2045 27.1887 13.2351 27.2327 13.2485 27.286L14.4325 31.27C14.4511 31.342 14.4685 31.4193 14.4845 31.502C14.5031 31.5847 14.5205 31.6727 14.5365 31.766C14.5551 31.6727 14.5738 31.5847 14.5925 31.502C14.6138 31.4167 14.6365 31.3393 14.6605 31.27L16.0085 27.286C16.0245 27.2407 16.0551 27.1993 16.1005 27.162C16.1485 27.122 16.2058 27.102 16.2725 27.102H16.4965C16.5658 27.102 16.6218 27.1193 16.6645 27.154C16.7071 27.1887 16.7391 27.2327 16.7605 27.286L18.1045 31.27C18.1285 31.3393 18.1498 31.414 18.1685 31.494C18.1898 31.574 18.2098 31.658 18.2285 31.746C18.2418 31.658 18.2565 31.574 18.2725 31.494C18.2885 31.414 18.3058 31.3393 18.3245 31.27L19.5125 27.286C19.5258 27.238 19.5551 27.1953 19.6005 27.158C19.6485 27.1207 19.7058 27.102 19.7725 27.102H20.3765Z" fill="#EEEEEE" fill-opacity="0.5"/>
<path d="M22.8046 31.01C22.4766 31.0207 22.1966 31.0473 21.9646 31.09C21.7352 31.13 21.5472 31.1833 21.4006 31.25C21.2566 31.3167 21.1512 31.3953 21.0846 31.486C21.0206 31.5767 20.9886 31.678 20.9886 31.79C20.9886 31.8967 21.0059 31.9887 21.0406 32.066C21.0752 32.1433 21.1219 32.2073 21.1806 32.258C21.2419 32.306 21.3126 32.342 21.3926 32.366C21.4752 32.3873 21.5632 32.398 21.6566 32.398C21.7819 32.398 21.8966 32.386 22.0006 32.362C22.1046 32.3353 22.2019 32.298 22.2926 32.25C22.3859 32.202 22.4739 32.1447 22.5566 32.078C22.6419 32.0113 22.7246 31.9353 22.8046 31.85V31.01ZM20.5046 29.354C20.7286 29.138 20.9699 28.9767 21.2286 28.87C21.4872 28.7633 21.7739 28.71 22.0886 28.71C22.3152 28.71 22.5166 28.7473 22.6926 28.822C22.8686 28.8967 23.0166 29.0007 23.1366 29.134C23.2566 29.2673 23.3472 29.4287 23.4086 29.618C23.4699 29.8073 23.5006 30.0153 23.5006 30.242V32.834H23.1846C23.1152 32.834 23.0619 32.8233 23.0246 32.802C22.9872 32.778 22.9579 32.7327 22.9366 32.666L22.8566 32.282C22.7499 32.3807 22.6459 32.4687 22.5446 32.546C22.4432 32.6207 22.3366 32.6847 22.2246 32.738C22.1126 32.7887 21.9926 32.8273 21.8646 32.854C21.7392 32.8833 21.5992 32.898 21.4446 32.898C21.2872 32.898 21.1392 32.8767 21.0006 32.834C20.8619 32.7887 20.7406 32.722 20.6366 32.634C20.5352 32.546 20.4539 32.4353 20.3926 32.302C20.3339 32.166 20.3046 32.006 20.3046 31.822C20.3046 31.662 20.3486 31.5087 20.4366 31.362C20.5246 31.2127 20.6672 31.0807 20.8646 30.966C21.0619 30.8513 21.3192 30.758 21.6366 30.686C21.9539 30.6113 22.3432 30.5687 22.8046 30.558V30.242C22.8046 29.9273 22.7366 29.69 22.6006 29.53C22.4646 29.3673 22.2659 29.286 22.0046 29.286C21.8286 29.286 21.6806 29.3087 21.5606 29.354C21.4432 29.3967 21.3406 29.446 21.2526 29.502C21.1672 29.5553 21.0926 29.6047 21.0286 29.65C20.9672 29.6927 20.9059 29.714 20.8446 29.714C20.7966 29.714 20.7552 29.702 20.7206 29.678C20.6859 29.6513 20.6566 29.6193 20.6326 29.582L20.5046 29.354Z" fill="#EEEEEE" fill-opacity="0.5"/>
<path d="M25.2611 29.594C25.3891 29.3167 25.5465 29.1007 25.7331 28.946C25.9198 28.7887 26.1478 28.71 26.4171 28.71C26.5025 28.71 26.5838 28.7193 26.6611 28.738C26.7411 28.7567 26.8118 28.786 26.8731 28.826L26.8211 29.358C26.8051 29.4247 26.7651 29.458 26.7011 29.458C26.6638 29.458 26.6091 29.45 26.5371 29.434C26.4651 29.418 26.3838 29.41 26.2931 29.41C26.1651 29.41 26.0505 29.4287 25.9491 29.466C25.8505 29.5033 25.7611 29.5593 25.6811 29.634C25.6038 29.706 25.5331 29.7967 25.4691 29.906C25.4078 30.0127 25.3518 30.1353 25.3011 30.274V32.834H24.5851V28.782H24.9931C25.0705 28.782 25.1238 28.7967 25.1531 28.826C25.1825 28.8553 25.2025 28.906 25.2131 28.978L25.2611 29.594Z" fill="#EEEEEE" fill-opacity="0.5"/>
<path d="M27.4992 32.834V28.782H27.9272C28.0285 28.782 28.0912 28.8313 28.1152 28.93L28.1672 29.346C28.3165 29.162 28.4845 29.0113 28.6712 28.894C28.8579 28.7767 29.0739 28.718 29.3192 28.718C29.5912 28.718 29.8112 28.794 29.9792 28.946C30.1499 29.098 30.2725 29.3033 30.3472 29.562C30.4059 29.4153 30.4805 29.2887 30.5712 29.182C30.6645 29.0753 30.7685 28.9873 30.8832 28.918C30.9979 28.8487 31.1192 28.798 31.2472 28.766C31.3779 28.734 31.5099 28.718 31.6432 28.718C31.8565 28.718 32.0459 28.7527 32.2112 28.822C32.3792 28.8887 32.5205 28.9873 32.6352 29.118C32.7525 29.2487 32.8419 29.41 32.9032 29.602C32.9645 29.7913 32.9952 30.0087 32.9952 30.254V32.834H32.2792V30.254C32.2792 29.9367 32.2099 29.6967 32.0712 29.534C31.9325 29.3687 31.7325 29.286 31.4712 29.286C31.3539 29.286 31.2419 29.3073 31.1352 29.35C31.0312 29.39 30.9392 29.45 30.8592 29.53C30.7792 29.61 30.7152 29.7113 30.6672 29.834C30.6219 29.954 30.5992 30.094 30.5992 30.254V32.834H29.8832V30.254C29.8832 29.9287 29.8179 29.686 29.6872 29.526C29.5565 29.366 29.3659 29.286 29.1152 29.286C28.9392 29.286 28.7765 29.334 28.6272 29.43C28.4779 29.5233 28.3405 29.6513 28.2152 29.814V32.834H27.4992Z" fill="#EEEEEE" fill-opacity="0.5"/>
<path d="M59.6763 27.182V32.914H59.2883C59.227 32.914 59.175 32.9033 59.1323 32.882C59.0923 32.8606 59.0523 32.8246 59.0123 32.774L55.6963 28.454C55.7017 28.5206 55.7057 28.586 55.7083 28.65C55.711 28.714 55.7123 28.774 55.7123 28.83V32.914H55.0323V27.182H55.4323C55.467 27.182 55.4963 27.1846 55.5203 27.19C55.5443 27.1926 55.5657 27.1993 55.5843 27.21C55.603 27.218 55.6217 27.2313 55.6403 27.25C55.659 27.266 55.679 27.2873 55.7003 27.314L59.0163 31.63C59.011 31.5606 59.0057 31.494 59.0003 31.43C58.9977 31.3633 58.9963 31.3006 58.9963 31.242V27.182H59.6763Z" fill="#EEEEEE" fill-opacity="0.5"/>
<path d="M63.5607 30.446C63.5607 30.2806 63.5367 30.13 63.4887 29.994C63.4434 29.8553 63.3754 29.7366 63.2847 29.638C63.1967 29.5366 63.0887 29.4593 62.9607 29.406C62.8327 29.35 62.6874 29.322 62.5247 29.322C62.1834 29.322 61.9127 29.422 61.7127 29.622C61.5154 29.8193 61.3927 30.094 61.3447 30.446H63.5607ZM64.1367 32.346C64.0487 32.4526 63.9434 32.546 63.8207 32.626C63.6981 32.7033 63.5661 32.7673 63.4247 32.818C63.2861 32.8686 63.1421 32.906 62.9927 32.93C62.8434 32.9566 62.6954 32.97 62.5487 32.97C62.2687 32.97 62.0101 32.9233 61.7727 32.83C61.5381 32.734 61.3341 32.5953 61.1607 32.414C60.9901 32.23 60.8567 32.0033 60.7607 31.734C60.6647 31.4646 60.6167 31.1553 60.6167 30.806C60.6167 30.5233 60.6594 30.2593 60.7447 30.014C60.8327 29.7686 60.9581 29.5566 61.1207 29.378C61.2834 29.1966 61.4821 29.0553 61.7167 28.954C61.9514 28.85 62.2154 28.798 62.5087 28.798C62.7514 28.798 62.9754 28.8393 63.1807 28.922C63.3887 29.002 63.5674 29.1193 63.7167 29.274C63.8687 29.426 63.9874 29.6153 64.0727 29.842C64.1581 30.066 64.2007 30.322 64.2007 30.61C64.2007 30.722 64.1887 30.7966 64.1647 30.834C64.1407 30.8713 64.0954 30.89 64.0287 30.89H61.3207C61.3287 31.146 61.3634 31.3686 61.4247 31.558C61.4887 31.7473 61.5767 31.906 61.6887 32.034C61.8007 32.1593 61.9341 32.254 62.0887 32.318C62.2434 32.3793 62.4167 32.41 62.6087 32.41C62.7874 32.41 62.9407 32.39 63.0687 32.35C63.1994 32.3073 63.3114 32.262 63.4047 32.214C63.4981 32.166 63.5754 32.122 63.6367 32.082C63.7007 32.0393 63.7554 32.018 63.8007 32.018C63.8594 32.018 63.9047 32.0406 63.9367 32.086L64.1367 32.346Z" fill="#EEEEEE" fill-opacity="0.5"/>
<path d="M68.4073 28.862V32.914H67.9833C67.882 32.914 67.818 32.8646 67.7913 32.766L67.7353 32.33C67.5593 32.5246 67.362 32.682 67.1433 32.802C66.9246 32.9193 66.674 32.978 66.3913 32.978C66.17 32.978 65.974 32.942 65.8033 32.87C65.6353 32.7953 65.494 32.6913 65.3793 32.558C65.2646 32.4246 65.178 32.2633 65.1193 32.074C65.0633 31.8846 65.0353 31.6753 65.0353 31.446V28.862H65.7473V31.446C65.7473 31.7526 65.8166 31.99 65.9553 32.158C66.0966 32.326 66.3113 32.41 66.5993 32.41C66.81 32.41 67.006 32.3606 67.1873 32.262C67.3713 32.1606 67.5406 32.022 67.6953 31.846V28.862H68.4073Z" fill="#EEEEEE" fill-opacity="0.5"/>
<path d="M70.7802 32.978C70.4602 32.978 70.2136 32.8886 70.0402 32.71C69.8696 32.5313 69.7842 32.274 69.7842 31.938V29.458H69.2962C69.2536 29.458 69.2176 29.446 69.1882 29.422C69.1589 29.3953 69.1442 29.3553 69.1442 29.302V29.018L69.8082 28.934L69.9722 27.682C69.9802 27.642 69.9976 27.61 70.0242 27.586C70.0536 27.5593 70.0909 27.546 70.1362 27.546H70.4962V28.942H71.6682V29.458H70.4962V31.89C70.4962 32.0606 70.5376 32.1873 70.6202 32.27C70.7029 32.3526 70.8096 32.394 70.9402 32.394C71.0149 32.394 71.0789 32.3846 71.1322 32.366C71.1882 32.3446 71.2362 32.322 71.2762 32.298C71.3162 32.274 71.3496 32.2526 71.3762 32.234C71.4056 32.2126 71.4309 32.202 71.4522 32.202C71.4896 32.202 71.5229 32.2246 71.5522 32.27L71.7602 32.61C71.6376 32.7246 71.4896 32.8153 71.3162 32.882C71.1429 32.946 70.9642 32.978 70.7802 32.978Z" fill="#EEEEEE" fill-opacity="0.5"/>
<path d="M73.0794 29.674C73.2074 29.3966 73.3647 29.1806 73.5514 29.026C73.7381 28.8686 73.9661 28.79 74.2354 28.79C74.3207 28.79 74.4021 28.7993 74.4794 28.818C74.5594 28.8366 74.6301 28.866 74.6914 28.906L74.6394 29.438C74.6234 29.5046 74.5834 29.538 74.5194 29.538C74.4821 29.538 74.4274 29.53 74.3554 29.514C74.2834 29.498 74.2021 29.49 74.1114 29.49C73.9834 29.49 73.8687 29.5086 73.7674 29.546C73.6687 29.5833 73.5794 29.6393 73.4994 29.714C73.4221 29.786 73.3514 29.8766 73.2874 29.986C73.2261 30.0926 73.1701 30.2153 73.1194 30.354V32.914H72.4034V28.862H72.8114C72.8887 28.862 72.9421 28.8766 72.9714 28.906C73.0007 28.9353 73.0207 28.986 73.0314 29.058L73.0794 29.674Z" fill="#EEEEEE" fill-opacity="0.5"/>
<path d="M77.451 31.09C77.123 31.1006 76.843 31.1273 76.611 31.17C76.3816 31.21 76.1936 31.2633 76.047 31.33C75.903 31.3966 75.7976 31.4753 75.731 31.566C75.667 31.6566 75.635 31.758 75.635 31.87C75.635 31.9766 75.6523 32.0686 75.687 32.146C75.7216 32.2233 75.7683 32.2873 75.827 32.338C75.8883 32.386 75.959 32.422 76.039 32.446C76.1216 32.4673 76.2096 32.478 76.303 32.478C76.4283 32.478 76.543 32.466 76.647 32.442C76.751 32.4153 76.8483 32.378 76.939 32.33C77.0323 32.282 77.1203 32.2246 77.203 32.158C77.2883 32.0913 77.371 32.0153 77.451 31.93V31.09ZM75.151 29.434C75.375 29.218 75.6163 29.0566 75.875 28.95C76.1336 28.8433 76.4203 28.79 76.735 28.79C76.9616 28.79 77.163 28.8273 77.339 28.902C77.515 28.9766 77.663 29.0806 77.783 29.214C77.903 29.3473 77.9936 29.5086 78.055 29.698C78.1163 29.8873 78.147 30.0953 78.147 30.322V32.914H77.831C77.7616 32.914 77.7083 32.9033 77.671 32.882C77.6336 32.858 77.6043 32.8126 77.583 32.746L77.503 32.362C77.3963 32.4606 77.2923 32.5486 77.191 32.626C77.0896 32.7006 76.983 32.7646 76.871 32.818C76.759 32.8686 76.639 32.9073 76.511 32.934C76.3856 32.9633 76.2456 32.978 76.091 32.978C75.9336 32.978 75.7856 32.9566 75.647 32.914C75.5083 32.8686 75.387 32.802 75.283 32.714C75.1816 32.626 75.1003 32.5153 75.039 32.382C74.9803 32.246 74.951 32.086 74.951 31.902C74.951 31.742 74.995 31.5886 75.083 31.442C75.171 31.2926 75.3136 31.1606 75.511 31.046C75.7083 30.9313 75.9656 30.838 76.283 30.766C76.6003 30.6913 76.9896 30.6486 77.451 30.638V30.322C77.451 30.0073 77.383 29.77 77.247 29.61C77.111 29.4473 76.9123 29.366 76.651 29.366C76.475 29.366 76.327 29.3886 76.207 29.434C76.0896 29.4766 75.987 29.526 75.899 29.582C75.8136 29.6353 75.739 29.6846 75.675 29.73C75.6136 29.7726 75.5523 29.794 75.491 29.794C75.443 29.794 75.4016 29.782 75.367 29.758C75.3323 29.7313 75.303 29.6993 75.279 29.662L75.151 29.434Z" fill="#EEEEEE" fill-opacity="0.5"/>
<path d="M79.9675 27.022V32.914H79.2555V27.022H79.9675Z" fill="#EEEEEE" fill-opacity="0.5"/>
<path d="M104.074 32.35C104.295 32.35 104.486 32.3246 104.646 32.274C104.806 32.2233 104.936 32.1526 105.038 32.062C105.142 31.9686 105.218 31.8593 105.266 31.734C105.314 31.606 105.338 31.466 105.338 31.314C105.338 31.018 105.232 30.7846 105.022 30.614C104.811 30.4406 104.495 30.354 104.074 30.354H102.834V32.35H104.074ZM102.834 27.846V29.802H103.858C104.076 29.802 104.266 29.778 104.426 29.73C104.588 29.682 104.722 29.6153 104.826 29.53C104.932 29.4446 105.011 29.342 105.062 29.222C105.112 29.0993 105.138 28.966 105.138 28.822C105.138 28.4833 105.036 28.2366 104.834 28.082C104.631 27.9246 104.316 27.846 103.89 27.846H102.834ZM103.89 27.234C104.242 27.234 104.544 27.2686 104.798 27.338C105.054 27.4073 105.263 27.506 105.426 27.634C105.591 27.762 105.712 27.9193 105.79 28.106C105.867 28.29 105.906 28.498 105.906 28.73C105.906 28.8713 105.883 29.0073 105.838 29.138C105.795 29.266 105.73 29.386 105.642 29.498C105.554 29.61 105.442 29.7113 105.306 29.802C105.172 29.89 105.015 29.962 104.834 30.018C105.255 30.098 105.571 30.2486 105.782 30.47C105.995 30.6886 106.102 30.9766 106.102 31.334C106.102 31.5766 106.056 31.798 105.966 31.998C105.878 32.198 105.747 32.37 105.574 32.514C105.403 32.658 105.192 32.77 104.942 32.85C104.691 32.9273 104.406 32.966 104.086 32.966H102.062V27.234H103.89Z" fill="#EEEEEE"/>
<path d="M107.656 29.726C107.784 29.4486 107.941 29.2326 108.128 29.078C108.314 28.9206 108.542 28.842 108.812 28.842C108.897 28.842 108.978 28.8513 109.056 28.87C109.136 28.8886 109.206 28.918 109.268 28.958L109.216 29.49C109.2 29.5566 109.16 29.59 109.096 29.59C109.058 29.59 109.004 29.582 108.932 29.566C108.86 29.55 108.778 29.542 108.688 29.542C108.56 29.542 108.445 29.5606 108.344 29.598C108.245 29.6353 108.156 29.6913 108.076 29.766C107.998 29.838 107.928 29.9286 107.864 30.038C107.802 30.1446 107.746 30.2673 107.696 30.406V32.966H106.98V28.914H107.388C107.465 28.914 107.518 28.9286 107.548 28.958C107.577 28.9873 107.597 29.038 107.608 29.11L107.656 29.726Z" fill="#EEEEEE"/>
<path d="M110.646 28.914V32.966H109.934V28.914H110.646ZM110.798 27.642C110.798 27.7113 110.783 27.7766 110.754 27.838C110.727 27.8966 110.69 27.95 110.642 27.998C110.596 28.0433 110.542 28.0793 110.478 28.106C110.416 28.1326 110.351 28.146 110.282 28.146C110.212 28.146 110.147 28.1326 110.086 28.106C110.027 28.0793 109.975 28.0433 109.93 27.998C109.884 27.95 109.848 27.8966 109.822 27.838C109.795 27.7766 109.782 27.7113 109.782 27.642C109.782 27.5726 109.795 27.5073 109.822 27.446C109.848 27.382 109.884 27.3273 109.93 27.282C109.975 27.234 110.027 27.1966 110.086 27.17C110.147 27.1433 110.212 27.13 110.282 27.13C110.351 27.13 110.416 27.1433 110.478 27.17C110.542 27.1966 110.596 27.234 110.642 27.282C110.69 27.3273 110.727 27.382 110.754 27.446C110.783 27.5073 110.798 27.5726 110.798 27.642Z" fill="#EEEEEE"/>
<path d="M113.228 30.986C113.372 30.986 113.498 30.966 113.608 30.926C113.717 30.886 113.809 30.83 113.884 30.758C113.958 30.686 114.014 30.6006 114.052 30.502C114.089 30.4006 114.108 30.29 114.108 30.17C114.108 29.922 114.032 29.7246 113.88 29.578C113.73 29.4313 113.513 29.358 113.228 29.358C112.94 29.358 112.72 29.4313 112.568 29.578C112.418 29.7246 112.344 29.922 112.344 30.17C112.344 30.29 112.362 30.4006 112.4 30.502C112.44 30.6006 112.497 30.686 112.572 30.758C112.646 30.83 112.738 30.886 112.848 30.926C112.957 30.966 113.084 30.986 113.228 30.986ZM114.512 33.186C114.512 33.0873 114.484 33.0073 114.428 32.946C114.372 32.8846 114.296 32.8366 114.2 32.802C114.106 32.7673 113.997 32.7433 113.872 32.73C113.746 32.714 113.613 32.702 113.472 32.694C113.333 32.686 113.192 32.678 113.048 32.67C112.904 32.662 112.765 32.6486 112.632 32.63C112.482 32.6993 112.36 32.7873 112.264 32.894C112.17 32.998 112.124 33.1206 112.124 33.262C112.124 33.3526 112.146 33.4366 112.192 33.514C112.24 33.594 112.312 33.662 112.408 33.718C112.504 33.7766 112.624 33.822 112.768 33.854C112.914 33.8886 113.086 33.906 113.284 33.906C113.476 33.906 113.648 33.8886 113.8 33.854C113.952 33.8193 114.08 33.77 114.184 33.706C114.29 33.642 114.372 33.566 114.428 33.478C114.484 33.39 114.512 33.2926 114.512 33.186ZM115.236 29.074V29.338C115.236 29.426 115.18 29.482 115.068 29.506L114.608 29.566C114.698 29.742 114.744 29.9366 114.744 30.15C114.744 30.3473 114.705 30.5273 114.628 30.69C114.553 30.85 114.449 30.9873 114.316 31.102C114.182 31.2166 114.022 31.3046 113.836 31.366C113.649 31.4273 113.446 31.458 113.228 31.458C113.038 31.458 112.86 31.4353 112.692 31.39C112.606 31.4433 112.541 31.5006 112.496 31.562C112.45 31.6206 112.428 31.6806 112.428 31.742C112.428 31.838 112.466 31.9113 112.544 31.962C112.624 32.01 112.728 32.0446 112.856 32.066C112.984 32.0873 113.129 32.1006 113.292 32.106C113.457 32.1113 113.625 32.1206 113.796 32.134C113.969 32.1446 114.137 32.1646 114.3 32.194C114.465 32.2233 114.612 32.2713 114.74 32.338C114.868 32.4046 114.97 32.4966 115.048 32.614C115.128 32.7313 115.168 32.8833 115.168 33.07C115.168 33.2433 115.124 33.4113 115.036 33.574C114.95 33.7366 114.826 33.8806 114.664 34.006C114.501 34.134 114.301 34.2353 114.064 34.31C113.829 34.3873 113.564 34.426 113.268 34.426C112.972 34.426 112.713 34.3966 112.492 34.338C112.27 34.2793 112.086 34.2006 111.94 34.102C111.793 34.0033 111.682 33.8886 111.608 33.758C111.536 33.63 111.5 33.4953 111.5 33.354C111.5 33.154 111.562 32.9846 111.688 32.846C111.813 32.7073 111.985 32.5966 112.204 32.514C112.084 32.4606 111.988 32.39 111.916 32.302C111.846 32.2113 111.812 32.09 111.812 31.938C111.812 31.8793 111.822 31.8193 111.844 31.758C111.865 31.694 111.897 31.6313 111.94 31.57C111.985 31.506 112.04 31.446 112.104 31.39C112.168 31.334 112.242 31.2846 112.328 31.242C112.128 31.13 111.972 30.982 111.86 30.798C111.748 30.6113 111.692 30.3953 111.692 30.15C111.692 29.9526 111.729 29.774 111.804 29.614C111.881 29.4513 111.988 29.314 112.124 29.202C112.26 29.0873 112.421 28.9993 112.608 28.938C112.797 28.8766 113.004 28.846 113.228 28.846C113.404 28.846 113.568 28.866 113.72 28.906C113.872 28.9433 114.01 28.9993 114.136 29.074H115.236Z" fill="#EEEEEE"/>
<path d="M116.688 29.454C116.861 29.27 117.053 29.1233 117.264 29.014C117.475 28.9046 117.717 28.85 117.992 28.85C118.213 28.85 118.408 28.8873 118.576 28.962C118.747 29.034 118.888 29.138 119 29.274C119.115 29.4073 119.201 29.5686 119.26 29.758C119.319 29.9473 119.348 30.1566 119.348 30.386V32.966H118.632V30.386C118.632 30.0793 118.561 29.842 118.42 29.674C118.281 29.5033 118.069 29.418 117.784 29.418C117.573 29.418 117.376 29.4686 117.192 29.57C117.011 29.6713 116.843 29.8086 116.688 29.982V32.966H115.972V27.074H116.688V29.454Z" fill="#EEEEEE"/>
<path d="M121.622 33.03C121.302 33.03 121.055 32.9406 120.882 32.762C120.711 32.5833 120.626 32.326 120.626 31.99V29.51H120.138C120.095 29.51 120.059 29.498 120.03 29.474C120.001 29.4473 119.986 29.4073 119.986 29.354V29.07L120.65 28.986L120.814 27.734C120.822 27.694 120.839 27.662 120.866 27.638C120.895 27.6113 120.933 27.598 120.978 27.598H121.338V28.994H122.51V29.51H121.338V31.942C121.338 32.1126 121.379 32.2393 121.462 32.322C121.545 32.4046 121.651 32.446 121.782 32.446C121.857 32.446 121.921 32.4366 121.974 32.418C122.03 32.3966 122.078 32.374 122.118 32.35C122.158 32.326 122.191 32.3046 122.218 32.286C122.247 32.2646 122.273 32.254 122.294 32.254C122.331 32.254 122.365 32.2766 122.394 32.322L122.602 32.662C122.479 32.7766 122.331 32.8673 122.158 32.934C121.985 32.998 121.806 33.03 121.622 33.03Z" fill="#EEEEEE"/>
</g>
<defs>
<clipPath id="clip0_205_24226">
<rect width="135" height="36" fill="white"/>
</clipPath>
</defs>
</svg>
