<svg width="13" height="52" viewBox="0 0 13 52" fill="none" xmlns="http://www.w3.org/2000/svg">
<path fill-rule="evenodd" clip-rule="evenodd" d="M6.50004 51.4021L6.48974 51.409L6.06996 51.1151C3.50666 49.3208 1.96422 47.5765 1.18713 46.005C0.408757 44.431 0.381241 42.9787 0.964694 41.8951C1.54959 40.8089 2.68416 40.2292 3.89151 40.3315C4.81905 40.4101 5.73902 40.8808 6.50004 41.7346C7.26107 40.8808 8.18104 40.4101 9.10858 40.3315C10.3159 40.2292 11.4505 40.8089 12.0354 41.8951C12.6188 42.9787 12.5913 44.431 11.813 46.005C11.0359 47.5765 9.49343 49.3208 6.93013 51.1151L6.51035 51.409L6.50004 51.4021Z" fill="#189BE4"/>
<path fill-rule="evenodd" clip-rule="evenodd" d="M6.48974 12.4082L6.50004 12.4014L6.51035 12.4082L6.93013 12.1144C9.49343 10.3201 11.0359 8.57575 11.813 7.0043C12.5913 5.43026 12.6188 3.97796 12.0354 2.89441C11.4505 1.80817 10.3159 1.22848 9.10858 1.3308C8.18104 1.40942 7.26107 1.88006 6.50004 2.73386C5.73902 1.88006 4.81905 1.40942 3.89151 1.3308C2.68416 1.22848 1.54959 1.80817 0.964694 2.89441C0.381241 3.97796 0.408757 5.43026 1.18713 7.0043C1.96422 8.57575 3.50666 10.3201 6.06996 12.1144L6.48974 12.4082ZM6.50004 4.00001C6.35639 3.76059 6.20356 3.54524 6.04387 3.35298C2.86863 -0.469839 -3.0211 4.83517 6.50004 11.5C16.0212 4.83517 10.1315 -0.469839 6.95622 3.35298C6.79653 3.54524 6.6437 3.76059 6.50004 4.00001Z" fill="#189BE4"/>
<path fill-rule="evenodd" clip-rule="evenodd" d="M6.48974 25.409L6.50004 25.4022L6.51035 25.409L6.93013 25.1152C9.49343 23.3209 11.0359 21.5765 11.813 20.0051C12.5913 18.4311 12.6188 16.9788 12.0354 15.8952C11.4505 14.809 10.3159 14.2293 9.10858 14.3316C8.18104 14.4102 7.26107 14.8809 6.50004 15.7347C5.73902 14.8809 4.81905 14.4102 3.89151 14.3316C2.68416 14.2293 1.54959 14.809 0.964694 15.8952C0.381241 16.9788 0.408757 18.4311 1.18713 20.0051C1.96422 21.5765 3.50666 23.3209 6.06996 25.1152L6.48974 25.409ZM6.50004 17.0008C6.35639 16.7614 6.20356 16.546 6.04387 16.3538C2.86863 12.531 -3.0211 17.836 6.50004 24.5008C16.0212 17.836 10.1315 12.531 6.95622 16.3538C6.79653 16.546 6.6437 16.7614 6.50004 17.0008Z" fill="#189BE4"/>
<path fill-rule="evenodd" clip-rule="evenodd" d="M6.48974 25.409L6.50004 25.4021L6.51035 25.409L6.93013 25.1151C9.49343 23.3208 11.0359 21.5765 11.813 20.005C12.5913 18.431 12.6188 16.9787 12.0354 15.8951C11.4505 14.8089 10.3159 14.2292 9.10858 14.3315C8.18104 14.4101 7.26107 14.8808 6.50004 15.7346C5.73902 14.8808 4.81905 14.4101 3.89151 14.3315C2.68416 14.2292 1.54959 14.8089 0.964694 15.8951C0.381241 16.9787 0.408757 18.431 1.18713 20.005C1.96422 21.5765 3.50666 23.3208 6.06996 25.1151L6.48974 25.409ZM6.50004 17.0007C6.35639 16.7613 6.20356 16.546 6.04387 16.3537C2.86863 12.5309 -3.0211 17.8359 6.50004 24.5007C16.0212 17.8359 10.1315 12.5309 6.95622 16.3537C6.79653 16.546 6.6437 16.7613 6.50004 17.0007Z" fill="white" fill-opacity="0.2"/>
<path fill-rule="evenodd" clip-rule="evenodd" d="M6.50004 38.4021L6.48974 38.409L6.06996 38.1151C3.50666 36.3208 1.96422 34.5765 1.18713 33.005C0.408757 31.431 0.381241 29.9787 0.964694 28.8951C1.54959 27.8089 2.68416 27.2292 3.89151 27.3315C4.81905 27.4101 5.73902 27.8808 6.50004 28.7346C7.26107 27.8808 8.18104 27.4101 9.10858 27.3315C10.3159 27.2292 11.4505 27.8089 12.0354 28.8951C12.6188 29.9787 12.5913 31.431 11.813 33.005C11.0359 34.5765 9.49343 36.3208 6.93013 38.1151L6.51035 38.409L6.50004 38.4021Z" fill="#189BE4"/>
<path fill-rule="evenodd" clip-rule="evenodd" d="M6.50004 25.4022L6.48974 25.409L6.06996 25.1152C3.50666 23.3209 1.96422 21.5765 1.18713 20.0051C0.408757 18.4311 0.381241 16.9788 0.964694 15.8952C1.54959 14.809 2.68416 14.2293 3.89151 14.3316C4.81905 14.4102 5.73902 14.8809 6.50004 15.7347C7.26107 14.8809 8.18104 14.4102 9.10858 14.3316C10.3159 14.2293 11.4505 14.809 12.0354 15.8952C12.6188 16.9788 12.5913 18.4311 11.813 20.0051C11.0359 21.5765 9.49343 23.3209 6.93013 25.1152L6.51035 25.409L6.50004 25.4022Z" fill="white" fill-opacity="0.2"/>
<path fill-rule="evenodd" clip-rule="evenodd" d="M6.50004 51.4022L6.48974 51.409L6.06996 51.1152C3.50666 49.3209 1.96422 47.5765 1.18713 46.0051C0.408757 44.4311 0.381241 42.9788 0.964694 41.8952C1.54959 40.809 2.68416 40.2293 3.89151 40.3316C4.81905 40.4102 5.73902 40.8809 6.50004 41.7347C7.26107 40.8809 8.18104 40.4102 9.10858 40.3316C10.3159 40.2293 11.4505 40.809 12.0354 41.8952C12.6188 42.9788 12.5913 44.4311 11.813 46.0051C11.0359 47.5765 9.49343 49.3209 6.93013 51.1152L6.51035 51.409L6.50004 51.4022Z" fill="white" fill-opacity="0.2"/>
</svg>
