<svg width="31" height="12" viewBox="0 0 31 12" fill="none" xmlns="http://www.w3.org/2000/svg">
<g clip-path="url(#clip0_205_24251)">
<rect y="0.5" width="31" height="11" fill="white" fill-opacity="0.1"/>
<path d="M10.0724 3.39396C10.0724 3.48196 10.0457 3.56729 9.99239 3.64996L6.74839 8.20596H10.0244V8.83796H5.72839V8.53396C5.72839 8.49129 5.73506 8.45129 5.74839 8.41396C5.76439 8.37662 5.78306 8.34062 5.80439 8.30596L9.05639 3.73796H5.88039V3.10596H10.0724V3.39396Z" fill="white"/>
<path d="M12.4056 4.72196C12.7016 4.72196 12.9682 4.77129 13.2056 4.86996C13.4429 4.96862 13.6456 5.10862 13.8136 5.28996C13.9816 5.47129 14.1096 5.69129 14.1976 5.94996C14.2882 6.20596 14.3336 6.49262 14.3336 6.80996C14.3336 7.12996 14.2882 7.41796 14.1976 7.67396C14.1096 7.92996 13.9816 8.14862 13.8136 8.32996C13.6456 8.51129 13.4429 8.65129 13.2056 8.74996C12.9682 8.84596 12.7016 8.89396 12.4056 8.89396C12.1069 8.89396 11.8376 8.84596 11.5976 8.74996C11.3602 8.65129 11.1576 8.51129 10.9896 8.32996C10.8216 8.14862 10.6922 7.92996 10.6016 7.67396C10.5136 7.41796 10.4696 7.12996 10.4696 6.80996C10.4696 6.49262 10.5136 6.20596 10.6016 5.94996C10.6922 5.69129 10.8216 5.47129 10.9896 5.28996C11.1576 5.10862 11.3602 4.96862 11.5976 4.86996C11.8376 4.77129 12.1069 4.72196 12.4056 4.72196ZM12.4056 8.33796C12.8056 8.33796 13.1042 8.20462 13.3016 7.93796C13.4989 7.66862 13.5976 7.29396 13.5976 6.81396C13.5976 6.33129 13.4989 5.95529 13.3016 5.68596C13.1042 5.41662 12.8056 5.28196 12.4056 5.28196C12.2029 5.28196 12.0256 5.31662 11.8736 5.38596C11.7242 5.45529 11.5989 5.55529 11.4976 5.68596C11.3989 5.81662 11.3242 5.97796 11.2736 6.16996C11.2256 6.35929 11.2016 6.57396 11.2016 6.81396C11.2016 7.29396 11.3002 7.66862 11.4976 7.93796C11.6976 8.20462 12.0002 8.33796 12.4056 8.33796Z" fill="white"/>
<path d="M16.9446 4.72196C17.2406 4.72196 17.5073 4.77129 17.7446 4.86996C17.982 4.96862 18.1846 5.10862 18.3526 5.28996C18.5206 5.47129 18.6486 5.69129 18.7366 5.94996C18.8273 6.20596 18.8726 6.49262 18.8726 6.80996C18.8726 7.12996 18.8273 7.41796 18.7366 7.67396C18.6486 7.92996 18.5206 8.14862 18.3526 8.32996C18.1846 8.51129 17.982 8.65129 17.7446 8.74996C17.5073 8.84596 17.2406 8.89396 16.9446 8.89396C16.646 8.89396 16.3766 8.84596 16.1366 8.74996C15.8993 8.65129 15.6966 8.51129 15.5286 8.32996C15.3606 8.14862 15.2313 7.92996 15.1406 7.67396C15.0526 7.41796 15.0086 7.12996 15.0086 6.80996C15.0086 6.49262 15.0526 6.20596 15.1406 5.94996C15.2313 5.69129 15.3606 5.47129 15.5286 5.28996C15.6966 5.10862 15.8993 4.96862 16.1366 4.86996C16.3766 4.77129 16.646 4.72196 16.9446 4.72196ZM16.9446 8.33796C17.3446 8.33796 17.6433 8.20462 17.8406 7.93796C18.038 7.66862 18.1366 7.29396 18.1366 6.81396C18.1366 6.33129 18.038 5.95529 17.8406 5.68596C17.6433 5.41662 17.3446 5.28196 16.9446 5.28196C16.742 5.28196 16.5646 5.31662 16.4126 5.38596C16.2633 5.45529 16.138 5.55529 16.0366 5.68596C15.938 5.81662 15.8633 5.97796 15.8126 6.16996C15.7646 6.35929 15.7406 6.57396 15.7406 6.81396C15.7406 7.29396 15.8393 7.66862 16.0366 7.93796C16.2366 8.20462 16.5393 8.33796 16.9446 8.33796Z" fill="white"/>
<path d="M19.7757 8.83796V4.78596H20.2037C20.305 4.78596 20.3677 4.83529 20.3917 4.93396L20.4437 5.34996C20.593 5.16596 20.761 5.01529 20.9477 4.89796C21.1344 4.78062 21.3504 4.72196 21.5957 4.72196C21.8677 4.72196 22.0877 4.79796 22.2557 4.94996C22.4264 5.10196 22.549 5.30729 22.6237 5.56596C22.6824 5.41929 22.757 5.29262 22.8477 5.18596C22.941 5.07929 23.045 4.99129 23.1597 4.92196C23.2744 4.85262 23.3957 4.80196 23.5237 4.76996C23.6544 4.73796 23.7864 4.72196 23.9197 4.72196C24.133 4.72196 24.3224 4.75662 24.4877 4.82596C24.6557 4.89262 24.797 4.99129 24.9117 5.12196C25.029 5.25262 25.1184 5.41396 25.1797 5.60596C25.241 5.79529 25.2717 6.01262 25.2717 6.25796V8.83796H24.5557V6.25796C24.5557 5.94062 24.4864 5.70062 24.3477 5.53796C24.209 5.37262 24.009 5.28996 23.7477 5.28996C23.6304 5.28996 23.5184 5.31129 23.4117 5.35396C23.3077 5.39396 23.2157 5.45396 23.1357 5.53396C23.0557 5.61396 22.9917 5.71529 22.9437 5.83796C22.8984 5.95796 22.8757 6.09796 22.8757 6.25796V8.83796H22.1597V6.25796C22.1597 5.93262 22.0944 5.68996 21.9637 5.52996C21.833 5.36996 21.6424 5.28996 21.3917 5.28996C21.2157 5.28996 21.053 5.33796 20.9037 5.43396C20.7544 5.52729 20.617 5.65529 20.4917 5.81796V8.83796H19.7757Z" fill="white"/>
</g>
<defs>
<clipPath id="clip0_205_24251">
<rect width="31" height="12" fill="white"/>
</clipPath>
</defs>
</svg>
