<svg width="50" height="760" viewBox="0 0 50 760" fill="none" xmlns="http://www.w3.org/2000/svg">
<rect width="25.25" height="15.25" fill="white" fill-opacity="0.2"/>
<rect x="24.75" y="76" width="25.25" height="15.25" fill="white" fill-opacity="0.2"/>
<rect y="166.75" width="25.25" height="15.5" fill="white" fill-opacity="0.2"/>
<rect x="24.75" y="242.75" width="25.25" height="15.5" fill="white" fill-opacity="0.2"/>
<rect y="333.75" width="25.25" height="15.5" fill="white" fill-opacity="0.2"/>
<rect x="24.75" y="409.75" width="25.25" height="15.5" fill="white" fill-opacity="0.2"/>
<rect y="500.75" width="25.25" height="15.5" fill="white" fill-opacity="0.2"/>
<rect x="24.75" y="576.75" width="25.25" height="15.5" fill="white" fill-opacity="0.2"/>
<rect y="667.75" width="25.25" height="15.25" fill="white" fill-opacity="0.2"/>
<rect x="24.75" y="743.75" width="25.25" height="15.25" fill="white" fill-opacity="0.2"/>
<path d="M28.4355 750.615L28.082 753.527L27.9175 754.251C27.8918 754.335 27.8533 754.399 27.802 754.444C27.753 754.49 27.6841 754.514 27.5955 754.514H27.354L27.823 750.625L27.473 750.58C27.431 750.568 27.3971 750.55 27.3715 750.527C27.3481 750.504 27.3388 750.468 27.3435 750.419L27.375 750.167H27.879L27.921 749.824C27.9466 749.621 27.9968 749.441 28.0715 749.285C28.1485 749.126 28.2441 748.993 28.3585 748.886C28.4751 748.776 28.607 748.693 28.754 748.637C28.9033 748.581 29.0643 748.553 29.237 748.553C29.3793 748.553 29.5111 748.576 29.6325 748.623L29.573 748.945C29.5636 748.992 29.5321 749.015 29.4785 749.015C29.4248 749.015 29.3571 749.015 29.2755 749.015C29.1751 749.015 29.0818 749.03 28.9955 749.061C28.9115 749.089 28.8368 749.135 28.7715 749.201C28.7061 749.266 28.6501 749.351 28.6035 749.456C28.5591 749.561 28.5276 749.689 28.509 749.841L28.4705 750.167H29.356L29.2965 750.615H28.4355Z" fill="white"/>
<path d="M29.7991 751.637H32.7986L32.7426 752.095H29.7431L29.7991 751.637ZM29.9461 750.471H32.9421L32.8896 750.93H29.8901L29.9461 750.471Z" fill="white"/>
<path d="M35.9912 750.531C35.9399 750.519 35.8885 750.512 35.8372 750.51C35.7882 750.505 35.7392 750.503 35.6902 750.503C35.5502 750.503 35.4149 750.526 35.2842 750.573C35.1535 750.617 35.031 750.68 34.9167 750.762C34.8024 750.843 34.6985 750.941 34.6052 751.056C34.5119 751.168 34.4314 751.291 34.3637 751.427C34.2984 751.562 34.247 751.707 34.2097 751.861C34.1724 752.012 34.1537 752.169 34.1537 752.33C34.1537 752.892 34.3334 753.173 34.6927 753.173C34.807 753.173 34.919 753.138 35.0287 753.068C35.1384 752.996 35.2422 752.897 35.3402 752.771C35.4405 752.642 35.5327 752.492 35.6167 752.319C35.7007 752.144 35.7754 751.953 35.8407 751.745L35.9912 750.531ZM35.7532 752.708C35.6692 752.857 35.5782 752.992 35.4802 753.114C35.3845 753.235 35.2819 753.339 35.1722 753.425C35.0649 753.509 34.9505 753.574 34.8292 753.621C34.7102 753.668 34.5865 753.691 34.4582 753.691C34.3182 753.691 34.191 753.664 34.0767 753.611C33.9624 753.555 33.8644 753.474 33.7827 753.369C33.7034 753.262 33.6415 753.131 33.5972 752.977C33.5529 752.821 33.5307 752.642 33.5307 752.442C33.5307 752.232 33.5564 752.027 33.6077 751.829C33.6614 751.628 33.736 751.439 33.8317 751.262C33.9297 751.085 34.0464 750.923 34.1817 750.776C34.317 750.626 34.4675 750.498 34.6332 750.391C34.8012 750.281 34.9809 750.197 35.1722 750.139C35.3635 750.078 35.5642 750.048 35.7742 750.048C35.9259 750.048 36.0729 750.06 36.2152 750.086C36.3599 750.109 36.5022 750.151 36.6422 750.212L36.2187 753.642H35.8967C35.815 753.642 35.759 753.621 35.7287 753.579C35.7007 753.537 35.6867 753.486 35.6867 753.425L35.7532 752.708Z" fill="white"/>
<path d="M38.9294 751.738L39.8709 753.642H39.3179C39.2712 753.642 39.2339 753.63 39.2059 753.607C39.1802 753.584 39.1592 753.555 39.1429 753.52L38.4779 752.099C38.4569 752.148 38.4324 752.193 38.4044 752.235L37.4384 753.523C37.4127 753.556 37.3859 753.584 37.3579 753.607C37.3299 753.63 37.2949 753.642 37.2529 753.642H36.7104L38.1419 751.735L37.2914 750.097H37.8479C37.8945 750.097 37.9284 750.104 37.9494 750.118C37.9704 750.129 37.9879 750.151 38.0019 750.184L38.5969 751.406C38.6225 751.354 38.6517 751.304 38.6844 751.255L39.4859 750.195C39.5232 750.129 39.5722 750.097 39.6329 750.097H40.1929L38.9294 751.738Z" fill="white"/>
<path d="M43.8845 751.521H42.453L42.2675 753.03H41.774L41.9595 751.521H40.535L40.591 751.066H42.0155L42.201 749.565H42.691L42.509 751.066H43.9405L43.8845 751.521Z" fill="white"/>
<path d="M45.145 752.865C45.2337 752.989 45.3398 753.077 45.4635 753.131C45.5895 753.182 45.7155 753.208 45.8415 753.208C45.9628 753.208 46.0772 753.182 46.1845 753.131C46.2918 753.08 46.3898 753.011 46.4785 752.925C46.5672 752.836 46.6453 752.733 46.713 752.617C46.783 752.498 46.8425 752.372 46.8915 752.239C46.9405 752.103 46.9767 751.964 47 751.822C47.0257 751.677 47.0385 751.535 47.0385 751.395C47.0385 751.117 46.9883 750.906 46.888 750.762C46.79 750.617 46.65 750.545 46.468 750.545C46.356 750.545 46.2428 750.58 46.1285 750.65C46.0142 750.72 45.9033 750.818 45.796 750.944C45.6887 751.067 45.5883 751.215 45.495 751.388C45.404 751.558 45.3247 751.745 45.257 751.948L45.145 752.865ZM45.3725 750.996C45.4612 750.851 45.5557 750.721 45.656 750.604C45.7587 750.487 45.866 750.388 45.978 750.307C46.09 750.223 46.2067 750.158 46.328 750.114C46.4493 750.067 46.573 750.044 46.699 750.044C47.0023 750.044 47.238 750.154 47.406 750.373C47.574 750.592 47.658 750.913 47.658 751.336C47.658 751.527 47.6382 751.718 47.5985 751.91C47.5588 752.101 47.5017 752.284 47.427 752.459C47.3547 752.632 47.266 752.794 47.161 752.946C47.0583 753.095 46.9428 753.226 46.8145 753.338C46.6885 753.447 46.5508 753.534 46.4015 753.597C46.2522 753.66 46.0958 753.691 45.9325 753.691C45.7435 753.691 45.5732 753.651 45.4215 753.572C45.2698 753.493 45.1438 753.38 45.0435 753.233L44.9945 753.46C44.9758 753.521 44.9525 753.566 44.9245 753.597C44.8965 753.627 44.8463 753.642 44.774 753.642H44.445L45.068 748.487H45.677L45.3725 750.996Z" fill="white"/>
<path fill-rule="evenodd" clip-rule="evenodd" d="M11.6034 672.81C11.9605 672.81 12.25 672.521 12.25 672.164C12.25 671.807 11.9605 671.517 11.6034 671.517C11.2463 671.517 10.9569 671.807 10.9569 672.164C10.9569 672.521 11.2463 672.81 11.6034 672.81ZM11.6034 673.06C11.7121 673.06 11.8162 673.041 11.9126 673.006C12.2815 674.321 12.9113 675.351 13.4594 676.061C13.7485 676.435 14.0158 676.722 14.2118 676.916C14.2896 676.993 14.3562 677.055 14.4086 677.103C14.3351 677.233 14.2931 677.383 14.2931 677.543C14.2931 678.038 14.6945 678.44 15.1897 678.44C15.6848 678.44 16.0862 678.038 16.0862 677.543C16.0862 677.395 16.0504 677.255 15.9868 677.132C15.9988 677.137 15.9988 677.137 15.9988 677.137L15.9988 677.137L15.9991 677.136L16.001 677.132L16.0094 677.112C16.0171 677.095 16.029 677.068 16.045 677.033C16.077 676.963 16.1256 676.861 16.191 676.735C16.322 676.484 16.5195 676.137 16.7845 675.76C17.2998 675.028 18.058 674.199 19.0628 673.718C19.2228 673.866 19.4371 673.957 19.6725 673.957C20.1676 673.957 20.569 673.555 20.569 673.06C20.569 672.565 20.1676 672.164 19.6725 672.164C19.1773 672.164 18.7759 672.565 18.7759 673.06C18.7759 673.139 18.786 673.215 18.8049 673.287C17.7131 673.823 16.9087 674.715 16.3756 675.473C16.0952 675.871 15.8864 676.238 15.7474 676.505C15.6962 676.603 15.6543 676.689 15.6218 676.757C15.4936 676.687 15.3463 676.647 15.1897 676.647C15.0368 676.647 14.8928 676.685 14.7668 676.752C14.7171 676.708 14.6477 676.644 14.5633 676.56C14.3808 676.38 14.1287 676.11 13.8551 675.755C13.3083 675.047 12.6788 674.007 12.3413 672.673C12.4414 672.528 12.5 672.353 12.5 672.164C12.5 671.669 12.0986 671.267 11.6034 671.267C11.1299 671.267 10.7421 671.634 10.7091 672.099C10.6697 672.106 10.6245 672.116 10.5742 672.131C10.4087 672.181 10.1945 672.286 9.95173 672.499C9.46939 672.924 8.87464 673.774 8.30706 675.476C7.75524 677.132 7.16373 677.912 6.73837 678.277C6.5265 678.459 6.35439 678.54 6.245 678.576C6.22474 678.583 6.20646 678.588 6.1903 678.592C6.08387 678.215 5.73788 677.94 5.32747 677.94C4.83231 677.94 4.43091 678.341 4.43091 678.836C4.43091 679.331 4.83231 679.733 5.32747 679.733C5.73053 679.733 6.07146 679.467 6.18435 679.101L6.18953 679.1C6.24325 679.093 6.31508 679.079 6.40173 679.051C6.57573 678.993 6.80483 678.879 7.06421 678.656C7.58136 678.212 8.21252 677.341 8.78141 675.635C9.33454 673.975 9.8921 673.218 10.2819 672.875C10.4753 672.705 10.6271 672.637 10.7185 672.609C10.7647 672.596 10.7972 672.591 10.8142 672.59L10.8145 672.59C10.9662 672.87 11.2626 673.06 11.6034 673.06ZM5.32747 679.483C5.68456 679.483 5.97403 679.193 5.97403 678.836C5.97403 678.479 5.68456 678.19 5.32747 678.19C4.97038 678.19 4.68091 678.479 4.68091 678.836C4.68091 679.193 4.97038 679.483 5.32747 679.483ZM15.8362 677.543C15.8362 677.9 15.5468 678.19 15.1897 678.19C14.8326 678.19 14.5431 677.9 14.5431 677.543C14.5431 677.186 14.8326 676.897 15.1897 676.897C15.5468 676.897 15.8362 677.186 15.8362 677.543ZM19.6725 673.707C20.0296 673.707 20.319 673.417 20.319 673.06C20.319 672.703 20.0296 672.414 19.6725 672.414C19.3154 672.414 19.0259 672.703 19.0259 673.06C19.0259 673.417 19.3154 673.707 19.6725 673.707Z" fill="white"/>
<path d="M4.5 512.5L7.5 504.5L10.5 508.5H17.5L20.5 512.5" stroke="white" stroke-width="0.5" stroke-linecap="round"/>
<path d="M46.5 415.9H43.5V413.5H40.5V419.1H37.5V421.5H34.5V415.1H31.5V419.9H28.5V418.3" stroke="white" stroke-width="0.5"/>
<path d="M3.49707 341.56C3.49707 344.459 5.10645 344.885 5.77441 343.29C6.17988 342.323 6.13769 341.859 6.53613 339.25C6.79588 337.549 8.422 338.077 8.73145 339.726C9.31213 342.819 9.5166 343.689 9.5166 343.689C10.0998 346.652 11.4968 345.411 12.0361 343.843C12.2073 343.345 12.2399 343.314 12.4971 342.14C13.0917 339.424 14.317 342.14 14.9816 342.14C16.3369 342.14 16.6015 338.871 16.6015 338.871C16.7676 337.401 17.6507 337.1 18.4971 338.081C20.293 340.489 21.5028 340.436 21.5028 340.436" stroke="white" stroke-width="0.5" stroke-linecap="round"/>
<path d="M30 254.5V246.5L38 254.5V246.5L45 254.5" stroke="white" stroke-width="0.5" stroke-linecap="round"/>
<path d="M4.5 178V171H12.5V178H20.5V171" stroke="white" stroke-width="0.5" stroke-linecap="round"/>
<path d="M29.5 83.5L33.5 79.5L41.5 87.5L45.5 83.5" stroke="white" stroke-width="0.5" stroke-linecap="round"/>
<path d="M4 7.5235C4.5 1.71103 12.0107 1.83601 12.5 7.5235C12.9893 13.211 20.5 13.211 21 7.5235" stroke="white" stroke-width="0.5" stroke-linecap="round"/>
<rect x="27.625" y="584.5" width="3.5" height="5.5" fill="white"/>
<rect x="31.625" y="584.5" width="3.5" height="3" fill="white"/>
<rect x="43.625" y="584.5" width="3.5" height="4" fill="white"/>
<rect x="35.625" y="579.5" width="3.5" height="5" fill="white"/>
<rect x="39.625" y="582" width="3.5" height="2.5" fill="white"/>
</svg>
