<svg width="81" height="45" viewBox="0 0 81 45" fill="none" xmlns="http://www.w3.org/2000/svg">
<rect x="1" y="1" width="25" height="13" fill="white" fill-opacity="0.2"/>
<rect x="28" y="16" width="25" height="13" fill="white" fill-opacity="0.2"/>
<rect x="55" y="31" width="25" height="13" fill="white" fill-opacity="0.2"/>
<path d="M42.136 24.504C42.2427 24.504 42.3267 24.5347 42.388 24.596C42.452 24.6547 42.484 24.7333 42.484 24.832V25.424H38.516V25.096C38.516 25.0293 38.5293 24.96 38.556 24.888C38.5853 24.8133 38.6307 24.7467 38.692 24.688L40.448 22.928C40.5947 22.7787 40.7253 22.636 40.84 22.5C40.9573 22.364 41.0547 22.2293 41.132 22.096C41.2093 21.9627 41.268 21.828 41.308 21.692C41.3507 21.5533 41.372 21.408 41.372 21.256C41.372 21.1173 41.352 20.996 41.312 20.892C41.272 20.7853 41.2147 20.696 41.14 20.624C41.068 20.552 40.98 20.4987 40.876 20.464C40.7747 20.4267 40.66 20.408 40.532 20.408C40.4147 20.408 40.3053 20.4253 40.204 20.46C40.1053 20.492 40.0173 20.5387 39.94 20.6C39.8627 20.6587 39.7973 20.728 39.744 20.808C39.6907 20.888 39.6507 20.976 39.624 21.072C39.5787 21.1947 39.52 21.276 39.448 21.316C39.376 21.356 39.272 21.3653 39.136 21.344L38.616 21.252C38.656 20.9747 38.7333 20.732 38.848 20.524C38.9627 20.3133 39.1053 20.1387 39.276 20C39.4493 19.8587 39.6467 19.7533 39.868 19.684C40.092 19.612 40.332 19.576 40.588 19.576C40.8547 19.576 41.0987 19.616 41.32 19.696C41.5413 19.7733 41.7307 19.884 41.888 20.028C42.0453 20.172 42.168 20.3453 42.256 20.548C42.344 20.7507 42.388 20.976 42.388 21.224C42.388 21.4373 42.356 21.6347 42.292 21.816C42.2307 21.9973 42.1467 22.1707 42.04 22.336C41.936 22.5013 41.8133 22.6613 41.672 22.816C41.5307 22.9707 41.3827 23.128 41.228 23.288L39.924 24.62C40.0493 24.5827 40.1733 24.5547 40.296 24.536C40.4213 24.5147 40.54 24.504 40.652 24.504H42.136Z" fill="white"/>
<path d="M65.668 36.2009C65.708 35.9195 65.7853 35.6732 65.9 35.4621C66.0147 35.2483 66.1573 35.071 66.328 34.9303C66.5013 34.7869 66.6987 34.68 66.92 34.6096C67.144 34.5365 67.384 34.5 67.64 34.5C67.9067 34.5 68.1467 34.5392 68.36 34.6177C68.576 34.6935 68.76 34.8004 68.912 34.9384C69.064 35.0737 69.18 35.2334 69.26 35.4175C69.3427 35.6015 69.384 35.8004 69.384 36.0142C69.384 36.2009 69.3627 36.366 69.32 36.5095C69.28 36.6502 69.2213 36.7733 69.144 36.8789C69.0667 36.9844 68.9707 37.0737 68.856 37.1468C68.7413 37.2199 68.612 37.2808 68.468 37.3295C68.8147 37.4405 69.0733 37.6096 69.244 37.8369C69.4147 38.0643 69.5 38.3498 69.5 38.6935C69.5 38.9858 69.4467 39.2442 69.34 39.4689C69.2333 39.6935 69.0893 39.8829 68.908 40.0372C68.7267 40.1888 68.516 40.3038 68.276 40.3823C68.0387 40.4608 67.7867 40.5 67.52 40.5C67.2293 40.5 66.976 40.4662 66.76 40.3985C66.544 40.3309 66.356 40.2307 66.196 40.0981C66.036 39.9655 65.9 39.8031 65.788 39.611C65.676 39.4188 65.58 39.1969 65.5 38.9452L65.936 38.7625C66.0507 38.7138 66.1573 38.7016 66.256 38.726C66.3573 38.7476 66.4307 38.8018 66.476 38.8884C66.524 38.9831 66.576 39.0765 66.632 39.1685C66.6907 39.2605 66.76 39.343 66.84 39.4161C66.92 39.4865 67.0133 39.5447 67.12 39.5907C67.2293 39.634 67.3587 39.6556 67.508 39.6556C67.676 39.6556 67.8227 39.6286 67.948 39.5744C68.0733 39.5176 68.1773 39.4445 68.26 39.3552C68.3453 39.2659 68.408 39.1671 68.448 39.0589C68.4907 38.9479 68.512 38.8369 68.512 38.726C68.512 38.5853 68.4973 38.4581 68.468 38.3444C68.4387 38.228 68.3773 38.1292 68.284 38.048C68.1907 37.9668 68.056 37.9032 67.88 37.8572C67.7067 37.8112 67.4733 37.7882 67.18 37.7882V37.0737C67.4227 37.071 67.624 37.048 67.784 37.0047C67.944 36.9614 68.0707 36.9019 68.164 36.8261C68.26 36.7476 68.3267 36.6543 68.364 36.546C68.4013 36.4378 68.42 36.3187 68.42 36.1888C68.42 35.9127 68.344 35.703 68.192 35.5595C68.04 35.4161 67.8373 35.3444 67.584 35.3444C67.4667 35.3444 67.3587 35.362 67.26 35.3972C67.1613 35.4296 67.072 35.477 66.992 35.5392C66.9147 35.5988 66.8493 35.6691 66.796 35.7503C66.7427 35.8315 66.7027 35.9208 66.676 36.0183C66.6307 36.1428 66.5707 36.2253 66.496 36.2659C66.424 36.3065 66.3213 36.316 66.188 36.2943L65.668 36.2009Z" fill="white"/>
<path d="M15.308 9.656V10.396H12.108V9.656H13.28V6.284C13.28 6.15067 13.284 6.01334 13.292 5.872L12.46 6.568C12.412 6.60534 12.364 6.62934 12.316 6.64C12.2707 6.648 12.2267 6.648 12.184 6.64C12.144 6.632 12.108 6.61867 12.076 6.6C12.044 6.57867 12.02 6.556 12.004 6.532L11.692 6.104L13.456 4.604H14.268V9.656H15.308Z" fill="white"/>
</svg>
